%TF.GenerationSoftware,KiCad,Pcbnew,9.0.1*%
%TF.CreationDate,2025-04-14T23:47:01-07:00*%
%TF.ProjectId,Input_PCB_V4,496e7075-745f-4504-9342-5f56342e6b69,rev?*%
%TF.SameCoordinates,Original*%
%TF.FileFunction,Drillmap*%
%TF.FilePolarity,Positive*%
%FSLAX45Y45*%
G04 Gerber Fmt 4.5, Leading zero omitted, Abs format (unit mm)*
G04 Created by KiCad (PCBNEW 9.0.1) date 2025-04-14 23:47:01*
%MOMM*%
%LPD*%
G01*
G04 APERTURE LIST*
%ADD10C,0.050000*%
%ADD11C,0.200000*%
%ADD12C,0.100000*%
%ADD13C,0.106680*%
G04 APERTURE END LIST*
D10*
X2000000Y-8000000D02*
X26000000Y-8000000D01*
X26000000Y-13000000D01*
X2000000Y-13000000D01*
X2000000Y-8000000D01*
D11*
D12*
X3955000Y-11485000D02*
X3985000Y-11515000D01*
X3985000Y-11485000D02*
X3955000Y-11515000D01*
X4015000Y-11175000D02*
X4045000Y-11205000D01*
X4045000Y-11175000D02*
X4015000Y-11205000D01*
X4085000Y-10555000D02*
X4115000Y-10585000D01*
X4115000Y-10555000D02*
X4085000Y-10585000D01*
X4115000Y-9815000D02*
X4145000Y-9845000D01*
X4145000Y-9815000D02*
X4115000Y-9845000D01*
X4195000Y-11257500D02*
X4225000Y-11287500D01*
X4225000Y-11257500D02*
X4195000Y-11287500D01*
X4211842Y-11179293D02*
X4241842Y-11209293D01*
X4241842Y-11179293D02*
X4211842Y-11209293D01*
X4219200Y-10010000D02*
X4249200Y-10040000D01*
X4249200Y-10010000D02*
X4219200Y-10040000D01*
X4285000Y-10785000D02*
X4315000Y-10815000D01*
X4315000Y-10785000D02*
X4285000Y-10815000D01*
X4346475Y-9654615D02*
X4376475Y-9684615D01*
X4376475Y-9654615D02*
X4346475Y-9684615D01*
X4415000Y-10665000D02*
X4445000Y-10695000D01*
X4445000Y-10665000D02*
X4415000Y-10695000D01*
X4446514Y-10591468D02*
X4476514Y-10621468D01*
X4476514Y-10591468D02*
X4446514Y-10621468D01*
X4466250Y-10115000D02*
X4496250Y-10145000D01*
X4496250Y-10115000D02*
X4466250Y-10145000D01*
X4525000Y-11715000D02*
X4555000Y-11745000D01*
X4555000Y-11715000D02*
X4525000Y-11745000D01*
X4525000Y-11865000D02*
X4555000Y-11895000D01*
X4555000Y-11865000D02*
X4525000Y-11895000D01*
X4535000Y-11165000D02*
X4565000Y-11195000D01*
X4565000Y-11165000D02*
X4535000Y-11195000D01*
X4535000Y-11415000D02*
X4565000Y-11445000D01*
X4565000Y-11415000D02*
X4535000Y-11445000D01*
X4535000Y-11515000D02*
X4565000Y-11545000D01*
X4565000Y-11515000D02*
X4535000Y-11545000D01*
X4537500Y-11615000D02*
X4567500Y-11645000D01*
X4567500Y-11615000D02*
X4537500Y-11645000D01*
X4599200Y-9341765D02*
X4629200Y-9371765D01*
X4629200Y-9341765D02*
X4599200Y-9371765D01*
X4686100Y-9685000D02*
X4716100Y-9715000D01*
X4716100Y-9685000D02*
X4686100Y-9715000D01*
X4755000Y-10005000D02*
X4785000Y-10035000D01*
X4785000Y-10005000D02*
X4755000Y-10035000D01*
X4935000Y-9915000D02*
X4965000Y-9945000D01*
X4965000Y-9915000D02*
X4935000Y-9945000D01*
X4935301Y-9834612D02*
X4965301Y-9864612D01*
X4965301Y-9834612D02*
X4935301Y-9864612D01*
X5015000Y-10485000D02*
X5045000Y-10515000D01*
X5045000Y-10485000D02*
X5015000Y-10515000D01*
X5035000Y-10865000D02*
X5065000Y-10895000D01*
X5065000Y-10865000D02*
X5035000Y-10895000D01*
X5035000Y-11165000D02*
X5065000Y-11195000D01*
X5065000Y-11165000D02*
X5035000Y-11195000D01*
X5035000Y-11415000D02*
X5065000Y-11445000D01*
X5065000Y-11415000D02*
X5035000Y-11445000D01*
X5035000Y-11715000D02*
X5065000Y-11745000D01*
X5065000Y-11715000D02*
X5035000Y-11745000D01*
X5065000Y-11865000D02*
X5095000Y-11895000D01*
X5095000Y-11865000D02*
X5065000Y-11895000D01*
X5175000Y-10665000D02*
X5205000Y-10695000D01*
X5205000Y-10665000D02*
X5175000Y-10695000D01*
X5294092Y-10305850D02*
X5324092Y-10335850D01*
X5324092Y-10305850D02*
X5294092Y-10335850D01*
X5295000Y-11215000D02*
X5325000Y-11245000D01*
X5325000Y-11215000D02*
X5295000Y-11245000D01*
X5352500Y-10251183D02*
X5382500Y-10281183D01*
X5382500Y-10251183D02*
X5352500Y-10281183D01*
X5357470Y-11264976D02*
X5387470Y-11294976D01*
X5387470Y-11264976D02*
X5357470Y-11294976D01*
X5535000Y-12905000D02*
X5565000Y-12935000D01*
X5565000Y-12905000D02*
X5535000Y-12935000D01*
X5715000Y-10915000D02*
X5745000Y-10945000D01*
X5745000Y-10915000D02*
X5715000Y-10945000D01*
X5745000Y-11537500D02*
X5775000Y-11567500D01*
X5775000Y-11537500D02*
X5745000Y-11567500D01*
X6255000Y-12870000D02*
X6285000Y-12900000D01*
X6285000Y-12870000D02*
X6255000Y-12900000D01*
X6985000Y-8065000D02*
X7015000Y-8095000D01*
X7015000Y-8065000D02*
X6985000Y-8095000D01*
X7045000Y-8122500D02*
X7075000Y-8152500D01*
X7075000Y-8122500D02*
X7045000Y-8152500D01*
X7375000Y-8180000D02*
X7405000Y-8210000D01*
X7405000Y-8180000D02*
X7375000Y-8210000D01*
X7430621Y-8237500D02*
X7460621Y-8267500D01*
X7460621Y-8237500D02*
X7430621Y-8267500D01*
X7585000Y-8295000D02*
X7615000Y-8325000D01*
X7615000Y-8295000D02*
X7585000Y-8325000D01*
X8453817Y-8237500D02*
X8483817Y-8267500D01*
X8483817Y-8237500D02*
X8453817Y-8267500D01*
X8565000Y-8065000D02*
X8595000Y-8095000D01*
X8595000Y-8065000D02*
X8565000Y-8095000D01*
X8855000Y-8122500D02*
X8885000Y-8152500D01*
X8885000Y-8122500D02*
X8855000Y-8152500D01*
X9175000Y-8180000D02*
X9205000Y-8210000D01*
X9205000Y-8180000D02*
X9175000Y-8210000D01*
X9455000Y-8295000D02*
X9485000Y-8325000D01*
X9485000Y-8295000D02*
X9455000Y-8325000D01*
X10185000Y-11537500D02*
X10215000Y-11567500D01*
X10215000Y-11537500D02*
X10185000Y-11567500D01*
X10365000Y-11480000D02*
X10395000Y-11510000D01*
X10395000Y-11480000D02*
X10365000Y-11510000D01*
X10545000Y-11422500D02*
X10575000Y-11452500D01*
X10575000Y-11422500D02*
X10545000Y-11452500D01*
X10674992Y-9975000D02*
X10704992Y-10005000D01*
X10704992Y-9975000D02*
X10674992Y-10005000D01*
X10905000Y-11192500D02*
X10935000Y-11222500D01*
X10935000Y-11192500D02*
X10905000Y-11222500D01*
X10935000Y-10795000D02*
X10965000Y-10825000D01*
X10965000Y-10795000D02*
X10935000Y-10825000D01*
X11005000Y-10855000D02*
X11035000Y-10885000D01*
X11035000Y-10855000D02*
X11005000Y-10885000D01*
X11045000Y-11360000D02*
X11075000Y-11390000D01*
X11075000Y-11360000D02*
X11045000Y-11390000D01*
X11065000Y-8237500D02*
X11095000Y-8267500D01*
X11095000Y-8237500D02*
X11065000Y-8267500D01*
X11065000Y-10915000D02*
X11095000Y-10945000D01*
X11095000Y-10915000D02*
X11065000Y-10945000D01*
X11135000Y-10962500D02*
X11165000Y-10992500D01*
X11165000Y-10962500D02*
X11135000Y-10992500D01*
X11255000Y-8065000D02*
X11285000Y-8095000D01*
X11285000Y-8065000D02*
X11255000Y-8095000D01*
X11255000Y-11265000D02*
X11285000Y-11295000D01*
X11285000Y-11265000D02*
X11255000Y-11295000D01*
X11365000Y-8122500D02*
X11395000Y-8152500D01*
X11395000Y-8122500D02*
X11365000Y-8152500D01*
X11494992Y-9935000D02*
X11524992Y-9965000D01*
X11524992Y-9935000D02*
X11494992Y-9965000D01*
X11675000Y-8180000D02*
X11705000Y-8210000D01*
X11705000Y-8180000D02*
X11675000Y-8210000D01*
X11725000Y-11710000D02*
X11755000Y-11740000D01*
X11755000Y-11710000D02*
X11725000Y-11740000D01*
X11754992Y-9585000D02*
X11784992Y-9615000D01*
X11784992Y-9585000D02*
X11754992Y-9615000D01*
X11755000Y-10655000D02*
X11785000Y-10685000D01*
X11785000Y-10655000D02*
X11755000Y-10685000D01*
X11805000Y-11652500D02*
X11835000Y-11682500D01*
X11835000Y-11652500D02*
X11805000Y-11682500D01*
X11821556Y-9540624D02*
X11851556Y-9570624D01*
X11851556Y-9540624D02*
X11821556Y-9570624D01*
X11825000Y-10695000D02*
X11855000Y-10725000D01*
X11855000Y-10695000D02*
X11825000Y-10725000D01*
X11885000Y-11595000D02*
X11915000Y-11625000D01*
X11915000Y-11595000D02*
X11885000Y-11625000D01*
X11935000Y-8295000D02*
X11965000Y-8325000D01*
X11965000Y-8295000D02*
X11935000Y-8325000D01*
X12294992Y-9915000D02*
X12324992Y-9945000D01*
X12324992Y-9915000D02*
X12294992Y-9945000D01*
X12544992Y-9605000D02*
X12574992Y-9635000D01*
X12574992Y-9605000D02*
X12544992Y-9635000D01*
X12545000Y-10495000D02*
X12575000Y-10525000D01*
X12575000Y-10495000D02*
X12545000Y-10525000D01*
X12601560Y-9548431D02*
X12631560Y-9578431D01*
X12631560Y-9548431D02*
X12601560Y-9578431D01*
X12605000Y-10555000D02*
X12635000Y-10585000D01*
X12635000Y-10555000D02*
X12605000Y-10585000D01*
X12672333Y-9511131D02*
X12702333Y-9541131D01*
X12702333Y-9511131D02*
X12672333Y-9541131D01*
X12675000Y-10625000D02*
X12705000Y-10655000D01*
X12705000Y-10625000D02*
X12675000Y-10655000D01*
X12874992Y-10215000D02*
X12904992Y-10245000D01*
X12904992Y-10215000D02*
X12874992Y-10245000D01*
X13356000Y-10143750D02*
X13386000Y-10173750D01*
X13386000Y-10143750D02*
X13356000Y-10173750D01*
X13485407Y-9025407D02*
X13515407Y-9055407D01*
X13515407Y-9025407D02*
X13485407Y-9055407D01*
X13921000Y-9963750D02*
X13951000Y-9993750D01*
X13951000Y-9963750D02*
X13921000Y-9993750D01*
X14205000Y-9495000D02*
X14235000Y-9525000D01*
X14235000Y-9495000D02*
X14205000Y-9525000D01*
X14485000Y-11192500D02*
X14515000Y-11222500D01*
X14515000Y-11192500D02*
X14485000Y-11222500D01*
X14485000Y-11480000D02*
X14515000Y-11510000D01*
X14515000Y-11480000D02*
X14485000Y-11510000D01*
X14545000Y-11422500D02*
X14575000Y-11452500D01*
X14575000Y-11422500D02*
X14545000Y-11452500D01*
X14615000Y-11537500D02*
X14645000Y-11567500D01*
X14645000Y-11537500D02*
X14615000Y-11567500D01*
X14885000Y-10365000D02*
X14915000Y-10395000D01*
X14915000Y-10365000D02*
X14885000Y-10395000D01*
X15015000Y-11537500D02*
X15045000Y-11567500D01*
X15045000Y-11537500D02*
X15015000Y-11567500D01*
X15185000Y-11415000D02*
X15215000Y-11445000D01*
X15215000Y-11415000D02*
X15185000Y-11445000D01*
X15265000Y-11475000D02*
X15295000Y-11505000D01*
X15295000Y-11475000D02*
X15265000Y-11505000D01*
X16205000Y-9530000D02*
X16235000Y-9560000D01*
X16235000Y-9530000D02*
X16205000Y-9560000D01*
X16255000Y-11075000D02*
X16285000Y-11105000D01*
X16285000Y-11075000D02*
X16255000Y-11105000D01*
X16402748Y-10425120D02*
X16432748Y-10455120D01*
X16432748Y-10425120D02*
X16402748Y-10455120D01*
X16498817Y-9587500D02*
X16528817Y-9617500D01*
X16528817Y-9587500D02*
X16498817Y-9617500D01*
X16515000Y-10944880D02*
X16545000Y-10974880D01*
X16545000Y-10944880D02*
X16515000Y-10974880D01*
X16635000Y-10645000D02*
X16665000Y-10675000D01*
X16665000Y-10645000D02*
X16635000Y-10675000D01*
X16690659Y-9652500D02*
X16720659Y-9682500D01*
X16720659Y-9652500D02*
X16690659Y-9682500D01*
X16695000Y-10702500D02*
X16725000Y-10732500D01*
X16725000Y-10702500D02*
X16695000Y-10732500D01*
X16705000Y-10944880D02*
X16735000Y-10974880D01*
X16735000Y-10944880D02*
X16705000Y-10974880D01*
X16712500Y-9915000D02*
X16742500Y-9945000D01*
X16742500Y-9915000D02*
X16712500Y-9945000D01*
X16725000Y-11182500D02*
X16755000Y-11212500D01*
X16755000Y-11182500D02*
X16725000Y-11212500D01*
X16755139Y-11426907D02*
X16785139Y-11456907D01*
X16785139Y-11426907D02*
X16755139Y-11456907D01*
X16760000Y-10409788D02*
X16790000Y-10439788D01*
X16790000Y-10409788D02*
X16760000Y-10439788D01*
X16835000Y-9905000D02*
X16865000Y-9935000D01*
X16865000Y-9905000D02*
X16835000Y-9935000D01*
X16836317Y-9795000D02*
X16866317Y-9825000D01*
X16866317Y-9795000D02*
X16836317Y-9825000D01*
X16852500Y-11445000D02*
X16882500Y-11475000D01*
X16882500Y-11445000D02*
X16852500Y-11475000D01*
X16860000Y-10465000D02*
X16890000Y-10495000D01*
X16890000Y-10465000D02*
X16860000Y-10495000D01*
X17010000Y-10409788D02*
X17040000Y-10439788D01*
X17040000Y-10409788D02*
X17010000Y-10439788D01*
X17010000Y-10960212D02*
X17040000Y-10990212D01*
X17040000Y-10960212D02*
X17010000Y-10990212D01*
X17069187Y-10760034D02*
X17099187Y-10790034D01*
X17099187Y-10760034D02*
X17069187Y-10790034D01*
X17115685Y-10464981D02*
X17145685Y-10494981D01*
X17145685Y-10464981D02*
X17115685Y-10494981D01*
X17119027Y-10827500D02*
X17149027Y-10857500D01*
X17149027Y-10827500D02*
X17119027Y-10857500D01*
X17165599Y-10527500D02*
X17195599Y-10557500D01*
X17195599Y-10527500D02*
X17165599Y-10557500D01*
X17174408Y-10885232D02*
X17204408Y-10915232D01*
X17204408Y-10885232D02*
X17174408Y-10915232D01*
X17227574Y-10945010D02*
X17257574Y-10975010D01*
X17257574Y-10945010D02*
X17227574Y-10975010D01*
X17246916Y-10527500D02*
X17276916Y-10557500D01*
X17276916Y-10527500D02*
X17246916Y-10557500D01*
X17310000Y-10960213D02*
X17340000Y-10990213D01*
X17340000Y-10960213D02*
X17310000Y-10990213D01*
X17310000Y-10409787D02*
X17340000Y-10439787D01*
X17340000Y-10409787D02*
X17310000Y-10439787D01*
X17317290Y-10489455D02*
X17347290Y-10519455D01*
X17347290Y-10489455D02*
X17317290Y-10519455D01*
X17335000Y-8298500D02*
X17365000Y-8328500D01*
X17365000Y-8298500D02*
X17335000Y-8328500D01*
X17387665Y-10527500D02*
X17417665Y-10557500D01*
X17417665Y-10527500D02*
X17387665Y-10557500D01*
X17515000Y-10305000D02*
X17545000Y-10335000D01*
X17545000Y-10305000D02*
X17515000Y-10335000D01*
X17517458Y-11122543D02*
X17547458Y-11152543D01*
X17547458Y-11122543D02*
X17517458Y-11152543D01*
X18235000Y-11075000D02*
X18265000Y-11105000D01*
X18265000Y-11075000D02*
X18235000Y-11105000D01*
X18495000Y-8065000D02*
X18525000Y-8095000D01*
X18525000Y-8065000D02*
X18495000Y-8095000D01*
X18561564Y-8122500D02*
X18591564Y-8152500D01*
X18591564Y-8122500D02*
X18561564Y-8152500D01*
X18865000Y-8183500D02*
X18895000Y-8213500D01*
X18895000Y-8183500D02*
X18865000Y-8213500D01*
X18925000Y-8241000D02*
X18955000Y-8271000D01*
X18955000Y-8241000D02*
X18925000Y-8271000D01*
X19185000Y-8298500D02*
X19215000Y-8328500D01*
X19215000Y-8298500D02*
X19185000Y-8328500D01*
X19445000Y-8183500D02*
X19475000Y-8213500D01*
X19475000Y-8183500D02*
X19445000Y-8213500D01*
X19545000Y-8122500D02*
X19575000Y-8152500D01*
X19575000Y-8122500D02*
X19545000Y-8152500D01*
X19635000Y-8065000D02*
X19665000Y-8095000D01*
X19665000Y-8065000D02*
X19635000Y-8095000D01*
X19755000Y-8241000D02*
X19785000Y-8271000D01*
X19785000Y-8241000D02*
X19755000Y-8271000D01*
X19845000Y-8298500D02*
X19875000Y-8328500D01*
X19875000Y-8298500D02*
X19845000Y-8328500D01*
X20035000Y-10525000D02*
X20065000Y-10555000D01*
X20065000Y-10525000D02*
X20035000Y-10555000D01*
X20055000Y-8241000D02*
X20085000Y-8271000D01*
X20085000Y-8241000D02*
X20055000Y-8271000D01*
X20225000Y-10205000D02*
X20255000Y-10235000D01*
X20255000Y-10205000D02*
X20225000Y-10235000D01*
X20285000Y-8065000D02*
X20315000Y-8095000D01*
X20315000Y-8065000D02*
X20285000Y-8095000D01*
X20365000Y-8122500D02*
X20395000Y-8152500D01*
X20395000Y-8122500D02*
X20365000Y-8152500D01*
X20374973Y-10755397D02*
X20404973Y-10785397D01*
X20404973Y-10755397D02*
X20374973Y-10785397D01*
X20495000Y-11355000D02*
X20525000Y-11385000D01*
X20525000Y-11355000D02*
X20495000Y-11385000D01*
X20593706Y-10740078D02*
X20623706Y-10770078D01*
X20623706Y-10740078D02*
X20593706Y-10770078D01*
X20635000Y-11025000D02*
X20665000Y-11055000D01*
X20665000Y-11025000D02*
X20635000Y-11055000D01*
X20675000Y-8183500D02*
X20705000Y-8213500D01*
X20705000Y-8183500D02*
X20675000Y-8213500D01*
X20679987Y-10750198D02*
X20709987Y-10780198D01*
X20709987Y-10750198D02*
X20679987Y-10780198D01*
X20696004Y-10218012D02*
X20726004Y-10248012D01*
X20726004Y-10218012D02*
X20696004Y-10248012D01*
X20895803Y-10740549D02*
X20925803Y-10770549D01*
X20925803Y-10740549D02*
X20895803Y-10770549D01*
X20925000Y-10205000D02*
X20955000Y-10235000D01*
X20955000Y-10205000D02*
X20925000Y-10235000D01*
X20965000Y-9539788D02*
X20995000Y-9569788D01*
X20995000Y-9539788D02*
X20965000Y-9569788D01*
X21165000Y-8298500D02*
X21195000Y-8328500D01*
X21195000Y-8298500D02*
X21165000Y-8328500D01*
X21279987Y-9979908D02*
X21309987Y-10009908D01*
X21309987Y-9979908D02*
X21279987Y-10009908D01*
X21313214Y-10740078D02*
X21343214Y-10770078D01*
X21343214Y-10740078D02*
X21313214Y-10770078D01*
X22265000Y-8065000D02*
X22295000Y-8095000D01*
X22295000Y-8065000D02*
X22265000Y-8095000D01*
X22565000Y-8241000D02*
X22595000Y-8271000D01*
X22595000Y-8241000D02*
X22565000Y-8271000D01*
X22864000Y-8126000D02*
X22894000Y-8156000D01*
X22894000Y-8126000D02*
X22864000Y-8156000D01*
X23177000Y-8185000D02*
X23207000Y-8215000D01*
X23207000Y-8185000D02*
X23177000Y-8215000D01*
X3990000Y-10770000D02*
G75*
G02*
X3950000Y-10770000I-20000J0D01*
G01*
X3950000Y-10770000D02*
G75*
G02*
X3990000Y-10770000I20000J0D01*
G01*
X4178282Y-11503282D02*
G75*
G02*
X4138282Y-11503282I-20000J0D01*
G01*
X4138282Y-11503282D02*
G75*
G02*
X4178282Y-11503282I20000J0D01*
G01*
X4480000Y-10480000D02*
G75*
G02*
X4440000Y-10480000I-20000J0D01*
G01*
X4440000Y-10480000D02*
G75*
G02*
X4480000Y-10480000I20000J0D01*
G01*
X4646686Y-9261462D02*
G75*
G02*
X4606686Y-9261462I-20000J0D01*
G01*
X4606686Y-9261462D02*
G75*
G02*
X4646686Y-9261462I20000J0D01*
G01*
X4760000Y-10747500D02*
G75*
G02*
X4720000Y-10747500I-20000J0D01*
G01*
X4720000Y-10747500D02*
G75*
G02*
X4760000Y-10747500I20000J0D01*
G01*
X5100000Y-10390000D02*
G75*
G02*
X5060000Y-10390000I-20000J0D01*
G01*
X5060000Y-10390000D02*
G75*
G02*
X5100000Y-10390000I20000J0D01*
G01*
X5560000Y-11700000D02*
G75*
G02*
X5520000Y-11700000I-20000J0D01*
G01*
X5520000Y-11700000D02*
G75*
G02*
X5560000Y-11700000I20000J0D01*
G01*
X5570000Y-11140000D02*
G75*
G02*
X5530000Y-11140000I-20000J0D01*
G01*
X5530000Y-11140000D02*
G75*
G02*
X5570000Y-11140000I20000J0D01*
G01*
X6380000Y-11915000D02*
G75*
G02*
X6340000Y-11915000I-20000J0D01*
G01*
X6340000Y-11915000D02*
G75*
G02*
X6380000Y-11915000I20000J0D01*
G01*
X6380000Y-12107500D02*
G75*
G02*
X6340000Y-12107500I-20000J0D01*
G01*
X6340000Y-12107500D02*
G75*
G02*
X6380000Y-12107500I20000J0D01*
G01*
X6640000Y-11915000D02*
G75*
G02*
X6600000Y-11915000I-20000J0D01*
G01*
X6600000Y-11915000D02*
G75*
G02*
X6640000Y-11915000I20000J0D01*
G01*
X10590000Y-9790000D02*
G75*
G02*
X10550000Y-9790000I-20000J0D01*
G01*
X10550000Y-9790000D02*
G75*
G02*
X10590000Y-9790000I20000J0D01*
G01*
X10600000Y-10170000D02*
G75*
G02*
X10560000Y-10170000I-20000J0D01*
G01*
X10560000Y-10170000D02*
G75*
G02*
X10600000Y-10170000I20000J0D01*
G01*
X11410000Y-9667500D02*
G75*
G02*
X11370000Y-9667500I-20000J0D01*
G01*
X11370000Y-9667500D02*
G75*
G02*
X11410000Y-9667500I20000J0D01*
G01*
X11650000Y-10170000D02*
G75*
G02*
X11610000Y-10170000I-20000J0D01*
G01*
X11610000Y-10170000D02*
G75*
G02*
X11650000Y-10170000I20000J0D01*
G01*
X12020000Y-11950000D02*
G75*
G02*
X11980000Y-11950000I-20000J0D01*
G01*
X11980000Y-11950000D02*
G75*
G02*
X12020000Y-11950000I20000J0D01*
G01*
X12200000Y-9620000D02*
G75*
G02*
X12160000Y-9620000I-20000J0D01*
G01*
X12160000Y-9620000D02*
G75*
G02*
X12200000Y-9620000I20000J0D01*
G01*
X12510000Y-10135000D02*
G75*
G02*
X12470000Y-10135000I-20000J0D01*
G01*
X12470000Y-10135000D02*
G75*
G02*
X12510000Y-10135000I20000J0D01*
G01*
X13720000Y-9040000D02*
G75*
G02*
X13680000Y-9040000I-20000J0D01*
G01*
X13680000Y-9040000D02*
G75*
G02*
X13720000Y-9040000I20000J0D01*
G01*
X14016000Y-10358750D02*
G75*
G02*
X13976000Y-10358750I-20000J0D01*
G01*
X13976000Y-10358750D02*
G75*
G02*
X14016000Y-10358750I20000J0D01*
G01*
X14026000Y-10078750D02*
G75*
G02*
X13986000Y-10078750I-20000J0D01*
G01*
X13986000Y-10078750D02*
G75*
G02*
X14026000Y-10078750I20000J0D01*
G01*
X16600000Y-9950000D02*
G75*
G02*
X16560000Y-9950000I-20000J0D01*
G01*
X16560000Y-9950000D02*
G75*
G02*
X16600000Y-9950000I20000J0D01*
G01*
X16657141Y-11411455D02*
G75*
G02*
X16617141Y-11411455I-20000J0D01*
G01*
X16617141Y-11411455D02*
G75*
G02*
X16657141Y-11411455I20000J0D01*
G01*
X17200000Y-11430000D02*
G75*
G02*
X17160000Y-11430000I-20000J0D01*
G01*
X17160000Y-11430000D02*
G75*
G02*
X17200000Y-11430000I20000J0D01*
G01*
X17270000Y-10000000D02*
G75*
G02*
X17230000Y-10000000I-20000J0D01*
G01*
X17230000Y-10000000D02*
G75*
G02*
X17270000Y-10000000I20000J0D01*
G01*
X19968458Y-10332199D02*
G75*
G02*
X19928458Y-10332199I-20000J0D01*
G01*
X19928458Y-10332199D02*
G75*
G02*
X19968458Y-10332199I20000J0D01*
G01*
X20623737Y-11156263D02*
G75*
G02*
X20583737Y-11156263I-20000J0D01*
G01*
X20583737Y-11156263D02*
G75*
G02*
X20623737Y-11156263I20000J0D01*
G01*
X21000000Y-9760000D02*
G75*
G02*
X20960000Y-9760000I-20000J0D01*
G01*
X20960000Y-9760000D02*
G75*
G02*
X21000000Y-9760000I20000J0D01*
G01*
X21220000Y-11200000D02*
G75*
G02*
X21180000Y-11200000I-20000J0D01*
G01*
X21180000Y-11200000D02*
G75*
G02*
X21220000Y-11200000I20000J0D01*
G01*
X13480000Y-12130000D02*
X13480000Y-12230000D01*
X13430000Y-12180000D02*
X13530000Y-12180000D01*
X13846000Y-10598750D02*
X13846000Y-10698750D01*
X13796000Y-10648750D02*
X13896000Y-10648750D01*
X3175356Y-9051356D02*
X3175356Y-8980644D01*
X3104644Y-8980644D01*
X3104644Y-9051356D01*
X3175356Y-9051356D01*
X3175356Y-9305356D02*
X3175356Y-9234644D01*
X3104644Y-9234644D01*
X3104644Y-9305356D01*
X3175356Y-9305356D01*
X3175356Y-9559356D02*
X3175356Y-9488644D01*
X3104644Y-9488644D01*
X3104644Y-9559356D01*
X3175356Y-9559356D01*
X3175356Y-9813356D02*
X3175356Y-9742644D01*
X3104644Y-9742644D01*
X3104644Y-9813356D01*
X3175356Y-9813356D01*
X3175356Y-10067356D02*
X3175356Y-9996644D01*
X3104644Y-9996644D01*
X3104644Y-10067356D01*
X3175356Y-10067356D01*
X3175356Y-10321356D02*
X3175356Y-10250644D01*
X3104644Y-10250644D01*
X3104644Y-10321356D01*
X3175356Y-10321356D01*
X3175356Y-10575356D02*
X3175356Y-10504644D01*
X3104644Y-10504644D01*
X3104644Y-10575356D01*
X3175356Y-10575356D01*
X3175356Y-10829356D02*
X3175356Y-10758644D01*
X3104644Y-10758644D01*
X3104644Y-10829356D01*
X3175356Y-10829356D01*
X3175356Y-11083356D02*
X3175356Y-11012644D01*
X3104644Y-11012644D01*
X3104644Y-11083356D01*
X3175356Y-11083356D01*
X3175356Y-11337356D02*
X3175356Y-11266644D01*
X3104644Y-11266644D01*
X3104644Y-11337356D01*
X3175356Y-11337356D01*
X3175356Y-11591356D02*
X3175356Y-11520644D01*
X3104644Y-11520644D01*
X3104644Y-11591356D01*
X3175356Y-11591356D01*
X3175356Y-11845356D02*
X3175356Y-11774644D01*
X3104644Y-11774644D01*
X3104644Y-11845356D01*
X3175356Y-11845356D01*
X3429356Y-9051356D02*
X3429356Y-8980644D01*
X3358644Y-8980644D01*
X3358644Y-9051356D01*
X3429356Y-9051356D01*
X3429356Y-9305356D02*
X3429356Y-9234644D01*
X3358644Y-9234644D01*
X3358644Y-9305356D01*
X3429356Y-9305356D01*
X3429356Y-9559356D02*
X3429356Y-9488644D01*
X3358644Y-9488644D01*
X3358644Y-9559356D01*
X3429356Y-9559356D01*
X3429356Y-9813356D02*
X3429356Y-9742644D01*
X3358644Y-9742644D01*
X3358644Y-9813356D01*
X3429356Y-9813356D01*
X3429356Y-10067356D02*
X3429356Y-9996644D01*
X3358644Y-9996644D01*
X3358644Y-10067356D01*
X3429356Y-10067356D01*
X3429356Y-10321356D02*
X3429356Y-10250644D01*
X3358644Y-10250644D01*
X3358644Y-10321356D01*
X3429356Y-10321356D01*
X3429356Y-10575356D02*
X3429356Y-10504644D01*
X3358644Y-10504644D01*
X3358644Y-10575356D01*
X3429356Y-10575356D01*
X3429356Y-10829356D02*
X3429356Y-10758644D01*
X3358644Y-10758644D01*
X3358644Y-10829356D01*
X3429356Y-10829356D01*
X3429356Y-11083356D02*
X3429356Y-11012644D01*
X3358644Y-11012644D01*
X3358644Y-11083356D01*
X3429356Y-11083356D01*
X3429356Y-11337356D02*
X3429356Y-11266644D01*
X3358644Y-11266644D01*
X3358644Y-11337356D01*
X3429356Y-11337356D01*
X3429356Y-11591356D02*
X3429356Y-11520644D01*
X3358644Y-11520644D01*
X3358644Y-11591356D01*
X3429356Y-11591356D01*
X3429356Y-11845356D02*
X3429356Y-11774644D01*
X3358644Y-11774644D01*
X3358644Y-11845356D01*
X3429356Y-11845356D01*
X4065356Y-8581356D02*
X4065356Y-8510644D01*
X3994644Y-8510644D01*
X3994644Y-8581356D01*
X4065356Y-8581356D01*
X4065356Y-8835356D02*
X4065356Y-8764644D01*
X3994644Y-8764644D01*
X3994644Y-8835356D01*
X4065356Y-8835356D01*
X4319356Y-8581356D02*
X4319356Y-8510644D01*
X4248644Y-8510644D01*
X4248644Y-8581356D01*
X4319356Y-8581356D01*
X4319356Y-8835356D02*
X4319356Y-8764644D01*
X4248644Y-8764644D01*
X4248644Y-8835356D01*
X4319356Y-8835356D01*
X4573356Y-8581356D02*
X4573356Y-8510644D01*
X4502644Y-8510644D01*
X4502644Y-8581356D01*
X4573356Y-8581356D01*
X4573356Y-8835356D02*
X4573356Y-8764644D01*
X4502644Y-8764644D01*
X4502644Y-8835356D01*
X4573356Y-8835356D01*
X4827356Y-8581356D02*
X4827356Y-8510644D01*
X4756644Y-8510644D01*
X4756644Y-8581356D01*
X4827356Y-8581356D01*
X4827356Y-8835356D02*
X4827356Y-8764644D01*
X4756644Y-8764644D01*
X4756644Y-8835356D01*
X4827356Y-8835356D01*
X5081356Y-8581356D02*
X5081356Y-8510644D01*
X5010644Y-8510644D01*
X5010644Y-8581356D01*
X5081356Y-8581356D01*
X5081356Y-8835356D02*
X5081356Y-8764644D01*
X5010644Y-8764644D01*
X5010644Y-8835356D01*
X5081356Y-8835356D01*
X5335356Y-8581356D02*
X5335356Y-8510644D01*
X5264644Y-8510644D01*
X5264644Y-8581356D01*
X5335356Y-8581356D01*
X5335356Y-8835356D02*
X5335356Y-8764644D01*
X5264644Y-8764644D01*
X5264644Y-8835356D01*
X5335356Y-8835356D01*
X6565356Y-8581356D02*
X6565356Y-8510644D01*
X6494644Y-8510644D01*
X6494644Y-8581356D01*
X6565356Y-8581356D01*
X6565356Y-8835356D02*
X6565356Y-8764644D01*
X6494644Y-8764644D01*
X6494644Y-8835356D01*
X6565356Y-8835356D01*
X6819356Y-8581356D02*
X6819356Y-8510644D01*
X6748644Y-8510644D01*
X6748644Y-8581356D01*
X6819356Y-8581356D01*
X6819356Y-8835356D02*
X6819356Y-8764644D01*
X6748644Y-8764644D01*
X6748644Y-8835356D01*
X6819356Y-8835356D01*
X7073356Y-8581356D02*
X7073356Y-8510644D01*
X7002644Y-8510644D01*
X7002644Y-8581356D01*
X7073356Y-8581356D01*
X7073356Y-8835356D02*
X7073356Y-8764644D01*
X7002644Y-8764644D01*
X7002644Y-8835356D01*
X7073356Y-8835356D01*
X7327356Y-8581356D02*
X7327356Y-8510644D01*
X7256644Y-8510644D01*
X7256644Y-8581356D01*
X7327356Y-8581356D01*
X7327356Y-8835356D02*
X7327356Y-8764644D01*
X7256644Y-8764644D01*
X7256644Y-8835356D01*
X7327356Y-8835356D01*
X7581356Y-8581356D02*
X7581356Y-8510644D01*
X7510644Y-8510644D01*
X7510644Y-8581356D01*
X7581356Y-8581356D01*
X7581356Y-8835356D02*
X7581356Y-8764644D01*
X7510644Y-8764644D01*
X7510644Y-8835356D01*
X7581356Y-8835356D01*
X7835356Y-8581356D02*
X7835356Y-8510644D01*
X7764644Y-8510644D01*
X7764644Y-8581356D01*
X7835356Y-8581356D01*
X7835356Y-8835356D02*
X7835356Y-8764644D01*
X7764644Y-8764644D01*
X7764644Y-8835356D01*
X7835356Y-8835356D01*
X9065356Y-8581356D02*
X9065356Y-8510644D01*
X8994644Y-8510644D01*
X8994644Y-8581356D01*
X9065356Y-8581356D01*
X9065356Y-8835356D02*
X9065356Y-8764644D01*
X8994644Y-8764644D01*
X8994644Y-8835356D01*
X9065356Y-8835356D01*
X9319356Y-8581356D02*
X9319356Y-8510644D01*
X9248644Y-8510644D01*
X9248644Y-8581356D01*
X9319356Y-8581356D01*
X9319356Y-8835356D02*
X9319356Y-8764644D01*
X9248644Y-8764644D01*
X9248644Y-8835356D01*
X9319356Y-8835356D01*
X9573356Y-8581356D02*
X9573356Y-8510644D01*
X9502644Y-8510644D01*
X9502644Y-8581356D01*
X9573356Y-8581356D01*
X9573356Y-8835356D02*
X9573356Y-8764644D01*
X9502644Y-8764644D01*
X9502644Y-8835356D01*
X9573356Y-8835356D01*
X9827356Y-8581356D02*
X9827356Y-8510644D01*
X9756644Y-8510644D01*
X9756644Y-8581356D01*
X9827356Y-8581356D01*
X9827356Y-8835356D02*
X9827356Y-8764644D01*
X9756644Y-8764644D01*
X9756644Y-8835356D01*
X9827356Y-8835356D01*
X10081356Y-8581356D02*
X10081356Y-8510644D01*
X10010644Y-8510644D01*
X10010644Y-8581356D01*
X10081356Y-8581356D01*
X10081356Y-8835356D02*
X10081356Y-8764644D01*
X10010644Y-8764644D01*
X10010644Y-8835356D01*
X10081356Y-8835356D01*
X10335356Y-8581356D02*
X10335356Y-8510644D01*
X10264644Y-8510644D01*
X10264644Y-8581356D01*
X10335356Y-8581356D01*
X10335356Y-8835356D02*
X10335356Y-8764644D01*
X10264644Y-8764644D01*
X10264644Y-8835356D01*
X10335356Y-8835356D01*
X11527356Y-12795356D02*
X11527356Y-12724644D01*
X11456644Y-12724644D01*
X11456644Y-12795356D01*
X11527356Y-12795356D01*
X11565356Y-8581356D02*
X11565356Y-8510644D01*
X11494644Y-8510644D01*
X11494644Y-8581356D01*
X11565356Y-8581356D01*
X11565356Y-8835356D02*
X11565356Y-8764644D01*
X11494644Y-8764644D01*
X11494644Y-8835356D01*
X11565356Y-8835356D01*
X11781356Y-12795356D02*
X11781356Y-12724644D01*
X11710644Y-12724644D01*
X11710644Y-12795356D01*
X11781356Y-12795356D01*
X11819356Y-8581356D02*
X11819356Y-8510644D01*
X11748644Y-8510644D01*
X11748644Y-8581356D01*
X11819356Y-8581356D01*
X11819356Y-8835356D02*
X11819356Y-8764644D01*
X11748644Y-8764644D01*
X11748644Y-8835356D01*
X11819356Y-8835356D01*
X12035356Y-12795356D02*
X12035356Y-12724644D01*
X11964644Y-12724644D01*
X11964644Y-12795356D01*
X12035356Y-12795356D01*
X12073356Y-8581356D02*
X12073356Y-8510644D01*
X12002644Y-8510644D01*
X12002644Y-8581356D01*
X12073356Y-8581356D01*
X12073356Y-8835356D02*
X12073356Y-8764644D01*
X12002644Y-8764644D01*
X12002644Y-8835356D01*
X12073356Y-8835356D01*
X12327356Y-8581356D02*
X12327356Y-8510644D01*
X12256644Y-8510644D01*
X12256644Y-8581356D01*
X12327356Y-8581356D01*
X12327356Y-8835356D02*
X12327356Y-8764644D01*
X12256644Y-8764644D01*
X12256644Y-8835356D01*
X12327356Y-8835356D01*
X12581356Y-8581356D02*
X12581356Y-8510644D01*
X12510644Y-8510644D01*
X12510644Y-8581356D01*
X12581356Y-8581356D01*
X12581356Y-8835356D02*
X12581356Y-8764644D01*
X12510644Y-8764644D01*
X12510644Y-8835356D01*
X12581356Y-8835356D01*
X12835356Y-8581356D02*
X12835356Y-8510644D01*
X12764644Y-8510644D01*
X12764644Y-8581356D01*
X12835356Y-8581356D01*
X12835356Y-8835356D02*
X12835356Y-8764644D01*
X12764644Y-8764644D01*
X12764644Y-8835356D01*
X12835356Y-8835356D01*
X15565356Y-8581356D02*
X15565356Y-8510644D01*
X15494644Y-8510644D01*
X15494644Y-8581356D01*
X15565356Y-8581356D01*
X15565356Y-8835356D02*
X15565356Y-8764644D01*
X15494644Y-8764644D01*
X15494644Y-8835356D01*
X15565356Y-8835356D01*
X15635356Y-12281356D02*
X15635356Y-12210644D01*
X15564644Y-12210644D01*
X15564644Y-12281356D01*
X15635356Y-12281356D01*
X15635356Y-12535356D02*
X15635356Y-12464644D01*
X15564644Y-12464644D01*
X15564644Y-12535356D01*
X15635356Y-12535356D01*
X15819356Y-8581356D02*
X15819356Y-8510644D01*
X15748644Y-8510644D01*
X15748644Y-8581356D01*
X15819356Y-8581356D01*
X15819356Y-8835356D02*
X15819356Y-8764644D01*
X15748644Y-8764644D01*
X15748644Y-8835356D01*
X15819356Y-8835356D01*
X15889356Y-12281356D02*
X15889356Y-12210644D01*
X15818644Y-12210644D01*
X15818644Y-12281356D01*
X15889356Y-12281356D01*
X15889356Y-12535356D02*
X15889356Y-12464644D01*
X15818644Y-12464644D01*
X15818644Y-12535356D01*
X15889356Y-12535356D01*
X16073356Y-8581356D02*
X16073356Y-8510644D01*
X16002644Y-8510644D01*
X16002644Y-8581356D01*
X16073356Y-8581356D01*
X16073356Y-8835356D02*
X16073356Y-8764644D01*
X16002644Y-8764644D01*
X16002644Y-8835356D01*
X16073356Y-8835356D01*
X16143356Y-12281356D02*
X16143356Y-12210644D01*
X16072644Y-12210644D01*
X16072644Y-12281356D01*
X16143356Y-12281356D01*
X16143356Y-12535356D02*
X16143356Y-12464644D01*
X16072644Y-12464644D01*
X16072644Y-12535356D01*
X16143356Y-12535356D01*
X16327356Y-8581356D02*
X16327356Y-8510644D01*
X16256644Y-8510644D01*
X16256644Y-8581356D01*
X16327356Y-8581356D01*
X16327356Y-8835356D02*
X16327356Y-8764644D01*
X16256644Y-8764644D01*
X16256644Y-8835356D01*
X16327356Y-8835356D01*
X16397356Y-12281356D02*
X16397356Y-12210644D01*
X16326644Y-12210644D01*
X16326644Y-12281356D01*
X16397356Y-12281356D01*
X16397356Y-12535356D02*
X16397356Y-12464644D01*
X16326644Y-12464644D01*
X16326644Y-12535356D01*
X16397356Y-12535356D01*
X16581356Y-8581356D02*
X16581356Y-8510644D01*
X16510644Y-8510644D01*
X16510644Y-8581356D01*
X16581356Y-8581356D01*
X16581356Y-8835356D02*
X16581356Y-8764644D01*
X16510644Y-8764644D01*
X16510644Y-8835356D01*
X16581356Y-8835356D01*
X16651356Y-12281356D02*
X16651356Y-12210644D01*
X16580644Y-12210644D01*
X16580644Y-12281356D01*
X16651356Y-12281356D01*
X16651356Y-12535356D02*
X16651356Y-12464644D01*
X16580644Y-12464644D01*
X16580644Y-12535356D01*
X16651356Y-12535356D01*
X16835356Y-8581356D02*
X16835356Y-8510644D01*
X16764644Y-8510644D01*
X16764644Y-8581356D01*
X16835356Y-8581356D01*
X16835356Y-8835356D02*
X16835356Y-8764644D01*
X16764644Y-8764644D01*
X16764644Y-8835356D01*
X16835356Y-8835356D01*
X16905356Y-12281356D02*
X16905356Y-12210644D01*
X16834644Y-12210644D01*
X16834644Y-12281356D01*
X16905356Y-12281356D01*
X16905356Y-12535356D02*
X16905356Y-12464644D01*
X16834644Y-12464644D01*
X16834644Y-12535356D01*
X16905356Y-12535356D01*
X17159356Y-12281356D02*
X17159356Y-12210644D01*
X17088644Y-12210644D01*
X17088644Y-12281356D01*
X17159356Y-12281356D01*
X17159356Y-12535356D02*
X17159356Y-12464644D01*
X17088644Y-12464644D01*
X17088644Y-12535356D01*
X17159356Y-12535356D01*
X17413356Y-12281356D02*
X17413356Y-12210644D01*
X17342644Y-12210644D01*
X17342644Y-12281356D01*
X17413356Y-12281356D01*
X17413356Y-12535356D02*
X17413356Y-12464644D01*
X17342644Y-12464644D01*
X17342644Y-12535356D01*
X17413356Y-12535356D01*
X17667356Y-12281356D02*
X17667356Y-12210644D01*
X17596644Y-12210644D01*
X17596644Y-12281356D01*
X17667356Y-12281356D01*
X17667356Y-12535356D02*
X17667356Y-12464644D01*
X17596644Y-12464644D01*
X17596644Y-12535356D01*
X17667356Y-12535356D01*
X17921356Y-12281356D02*
X17921356Y-12210644D01*
X17850644Y-12210644D01*
X17850644Y-12281356D01*
X17921356Y-12281356D01*
X17921356Y-12535356D02*
X17921356Y-12464644D01*
X17850644Y-12464644D01*
X17850644Y-12535356D01*
X17921356Y-12535356D01*
X18065356Y-8581356D02*
X18065356Y-8510644D01*
X17994644Y-8510644D01*
X17994644Y-8581356D01*
X18065356Y-8581356D01*
X18065356Y-8835356D02*
X18065356Y-8764644D01*
X17994644Y-8764644D01*
X17994644Y-8835356D01*
X18065356Y-8835356D01*
X18175356Y-12281356D02*
X18175356Y-12210644D01*
X18104644Y-12210644D01*
X18104644Y-12281356D01*
X18175356Y-12281356D01*
X18175356Y-12535356D02*
X18175356Y-12464644D01*
X18104644Y-12464644D01*
X18104644Y-12535356D01*
X18175356Y-12535356D01*
X18319356Y-8581356D02*
X18319356Y-8510644D01*
X18248644Y-8510644D01*
X18248644Y-8581356D01*
X18319356Y-8581356D01*
X18319356Y-8835356D02*
X18319356Y-8764644D01*
X18248644Y-8764644D01*
X18248644Y-8835356D01*
X18319356Y-8835356D01*
X18429356Y-12281356D02*
X18429356Y-12210644D01*
X18358644Y-12210644D01*
X18358644Y-12281356D01*
X18429356Y-12281356D01*
X18429356Y-12535356D02*
X18429356Y-12464644D01*
X18358644Y-12464644D01*
X18358644Y-12535356D01*
X18429356Y-12535356D01*
X18573356Y-8581356D02*
X18573356Y-8510644D01*
X18502644Y-8510644D01*
X18502644Y-8581356D01*
X18573356Y-8581356D01*
X18573356Y-8835356D02*
X18573356Y-8764644D01*
X18502644Y-8764644D01*
X18502644Y-8835356D01*
X18573356Y-8835356D01*
X18827356Y-8581356D02*
X18827356Y-8510644D01*
X18756644Y-8510644D01*
X18756644Y-8581356D01*
X18827356Y-8581356D01*
X18827356Y-8835356D02*
X18827356Y-8764644D01*
X18756644Y-8764644D01*
X18756644Y-8835356D01*
X18827356Y-8835356D01*
X19081356Y-8581356D02*
X19081356Y-8510644D01*
X19010644Y-8510644D01*
X19010644Y-8581356D01*
X19081356Y-8581356D01*
X19081356Y-8835356D02*
X19081356Y-8764644D01*
X19010644Y-8764644D01*
X19010644Y-8835356D01*
X19081356Y-8835356D01*
X19335356Y-8581356D02*
X19335356Y-8510644D01*
X19264644Y-8510644D01*
X19264644Y-8581356D01*
X19335356Y-8581356D01*
X19335356Y-8835356D02*
X19335356Y-8764644D01*
X19264644Y-8764644D01*
X19264644Y-8835356D01*
X19335356Y-8835356D01*
X20535356Y-12281356D02*
X20535356Y-12210644D01*
X20464644Y-12210644D01*
X20464644Y-12281356D01*
X20535356Y-12281356D01*
X20535356Y-12535356D02*
X20535356Y-12464644D01*
X20464644Y-12464644D01*
X20464644Y-12535356D01*
X20535356Y-12535356D01*
X20565356Y-8581356D02*
X20565356Y-8510644D01*
X20494644Y-8510644D01*
X20494644Y-8581356D01*
X20565356Y-8581356D01*
X20565356Y-8835356D02*
X20565356Y-8764644D01*
X20494644Y-8764644D01*
X20494644Y-8835356D01*
X20565356Y-8835356D01*
X20789356Y-12281356D02*
X20789356Y-12210644D01*
X20718644Y-12210644D01*
X20718644Y-12281356D01*
X20789356Y-12281356D01*
X20789356Y-12535356D02*
X20789356Y-12464644D01*
X20718644Y-12464644D01*
X20718644Y-12535356D01*
X20789356Y-12535356D01*
X20819356Y-8581356D02*
X20819356Y-8510644D01*
X20748644Y-8510644D01*
X20748644Y-8581356D01*
X20819356Y-8581356D01*
X20819356Y-8835356D02*
X20819356Y-8764644D01*
X20748644Y-8764644D01*
X20748644Y-8835356D01*
X20819356Y-8835356D01*
X21043356Y-12281356D02*
X21043356Y-12210644D01*
X20972644Y-12210644D01*
X20972644Y-12281356D01*
X21043356Y-12281356D01*
X21043356Y-12535356D02*
X21043356Y-12464644D01*
X20972644Y-12464644D01*
X20972644Y-12535356D01*
X21043356Y-12535356D01*
X21073356Y-8581356D02*
X21073356Y-8510644D01*
X21002644Y-8510644D01*
X21002644Y-8581356D01*
X21073356Y-8581356D01*
X21073356Y-8835356D02*
X21073356Y-8764644D01*
X21002644Y-8764644D01*
X21002644Y-8835356D01*
X21073356Y-8835356D01*
X21297356Y-12281356D02*
X21297356Y-12210644D01*
X21226644Y-12210644D01*
X21226644Y-12281356D01*
X21297356Y-12281356D01*
X21297356Y-12535356D02*
X21297356Y-12464644D01*
X21226644Y-12464644D01*
X21226644Y-12535356D01*
X21297356Y-12535356D01*
X21327356Y-8581356D02*
X21327356Y-8510644D01*
X21256644Y-8510644D01*
X21256644Y-8581356D01*
X21327356Y-8581356D01*
X21327356Y-8835356D02*
X21327356Y-8764644D01*
X21256644Y-8764644D01*
X21256644Y-8835356D01*
X21327356Y-8835356D01*
X21551356Y-12281356D02*
X21551356Y-12210644D01*
X21480644Y-12210644D01*
X21480644Y-12281356D01*
X21551356Y-12281356D01*
X21551356Y-12535356D02*
X21551356Y-12464644D01*
X21480644Y-12464644D01*
X21480644Y-12535356D01*
X21551356Y-12535356D01*
X21581356Y-8581356D02*
X21581356Y-8510644D01*
X21510644Y-8510644D01*
X21510644Y-8581356D01*
X21581356Y-8581356D01*
X21581356Y-8835356D02*
X21581356Y-8764644D01*
X21510644Y-8764644D01*
X21510644Y-8835356D01*
X21581356Y-8835356D01*
X21805356Y-12281356D02*
X21805356Y-12210644D01*
X21734644Y-12210644D01*
X21734644Y-12281356D01*
X21805356Y-12281356D01*
X21805356Y-12535356D02*
X21805356Y-12464644D01*
X21734644Y-12464644D01*
X21734644Y-12535356D01*
X21805356Y-12535356D01*
X21835356Y-8581356D02*
X21835356Y-8510644D01*
X21764644Y-8510644D01*
X21764644Y-8581356D01*
X21835356Y-8581356D01*
X21835356Y-8835356D02*
X21835356Y-8764644D01*
X21764644Y-8764644D01*
X21764644Y-8835356D01*
X21835356Y-8835356D01*
X22059356Y-12281356D02*
X22059356Y-12210644D01*
X21988644Y-12210644D01*
X21988644Y-12281356D01*
X22059356Y-12281356D01*
X22059356Y-12535356D02*
X22059356Y-12464644D01*
X21988644Y-12464644D01*
X21988644Y-12535356D01*
X22059356Y-12535356D01*
X22313356Y-12281356D02*
X22313356Y-12210644D01*
X22242644Y-12210644D01*
X22242644Y-12281356D01*
X22313356Y-12281356D01*
X22313356Y-12535356D02*
X22313356Y-12464644D01*
X22242644Y-12464644D01*
X22242644Y-12535356D01*
X22313356Y-12535356D01*
X22567356Y-12281356D02*
X22567356Y-12210644D01*
X22496644Y-12210644D01*
X22496644Y-12281356D01*
X22567356Y-12281356D01*
X22567356Y-12535356D02*
X22567356Y-12464644D01*
X22496644Y-12464644D01*
X22496644Y-12535356D01*
X22567356Y-12535356D01*
X22821356Y-12281356D02*
X22821356Y-12210644D01*
X22750644Y-12210644D01*
X22750644Y-12281356D01*
X22821356Y-12281356D01*
X22821356Y-12535356D02*
X22821356Y-12464644D01*
X22750644Y-12464644D01*
X22750644Y-12535356D01*
X22821356Y-12535356D01*
X23065356Y-8581356D02*
X23065356Y-8510644D01*
X22994644Y-8510644D01*
X22994644Y-8581356D01*
X23065356Y-8581356D01*
X23065356Y-8835356D02*
X23065356Y-8764644D01*
X22994644Y-8764644D01*
X22994644Y-8835356D01*
X23065356Y-8835356D01*
X23075356Y-12281356D02*
X23075356Y-12210644D01*
X23004644Y-12210644D01*
X23004644Y-12281356D01*
X23075356Y-12281356D01*
X23075356Y-12535356D02*
X23075356Y-12464644D01*
X23004644Y-12464644D01*
X23004644Y-12535356D01*
X23075356Y-12535356D01*
X23319356Y-8581356D02*
X23319356Y-8510644D01*
X23248644Y-8510644D01*
X23248644Y-8581356D01*
X23319356Y-8581356D01*
X23319356Y-8835356D02*
X23319356Y-8764644D01*
X23248644Y-8764644D01*
X23248644Y-8835356D01*
X23319356Y-8835356D01*
X23329356Y-12281356D02*
X23329356Y-12210644D01*
X23258644Y-12210644D01*
X23258644Y-12281356D01*
X23329356Y-12281356D01*
X23329356Y-12535356D02*
X23329356Y-12464644D01*
X23258644Y-12464644D01*
X23258644Y-12535356D01*
X23329356Y-12535356D01*
X23573356Y-8581356D02*
X23573356Y-8510644D01*
X23502644Y-8510644D01*
X23502644Y-8581356D01*
X23573356Y-8581356D01*
X23573356Y-8835356D02*
X23573356Y-8764644D01*
X23502644Y-8764644D01*
X23502644Y-8835356D01*
X23573356Y-8835356D01*
X23827356Y-8581356D02*
X23827356Y-8510644D01*
X23756644Y-8510644D01*
X23756644Y-8581356D01*
X23827356Y-8581356D01*
X23827356Y-8835356D02*
X23827356Y-8764644D01*
X23756644Y-8764644D01*
X23756644Y-8835356D01*
X23827356Y-8835356D01*
X24081356Y-8581356D02*
X24081356Y-8510644D01*
X24010644Y-8510644D01*
X24010644Y-8581356D01*
X24081356Y-8581356D01*
X24081356Y-8835356D02*
X24081356Y-8764644D01*
X24010644Y-8764644D01*
X24010644Y-8835356D01*
X24081356Y-8835356D01*
X24335356Y-8581356D02*
X24335356Y-8510644D01*
X24264644Y-8510644D01*
X24264644Y-8581356D01*
X24335356Y-8581356D01*
X24335356Y-8835356D02*
X24335356Y-8764644D01*
X24264644Y-8764644D01*
X24264644Y-8835356D01*
X24335356Y-8835356D01*
D13*
X4546660Y-12277530D02*
X4600000Y-12224190D01*
X4546660Y-12170850D01*
X4493320Y-12224190D01*
X4546660Y-12277530D01*
X4846660Y-12277530D02*
X4900000Y-12224190D01*
X4846660Y-12170850D01*
X4793320Y-12224190D01*
X4846660Y-12277530D01*
D11*
X7500000Y-10815000D02*
X7700000Y-11015000D01*
X7700000Y-10815000D02*
X7500000Y-11015000D01*
X7700000Y-10915000D02*
G75*
G02*
X7500000Y-10915000I-100000J0D01*
G01*
X7500000Y-10915000D02*
G75*
G02*
X7700000Y-10915000I100000J0D01*
G01*
X7500000Y-12385000D02*
X7700000Y-12585000D01*
X7700000Y-12385000D02*
X7500000Y-12585000D01*
X7700000Y-12485000D02*
G75*
G02*
X7500000Y-12485000I-100000J0D01*
G01*
X7500000Y-12485000D02*
G75*
G02*
X7700000Y-12485000I100000J0D01*
G01*
X9000000Y-10815000D02*
X9200000Y-11015000D01*
X9200000Y-10815000D02*
X9000000Y-11015000D01*
X9200000Y-10915000D02*
G75*
G02*
X9000000Y-10915000I-100000J0D01*
G01*
X9000000Y-10915000D02*
G75*
G02*
X9200000Y-10915000I100000J0D01*
G01*
X9000000Y-12385000D02*
X9200000Y-12585000D01*
X9200000Y-12385000D02*
X9000000Y-12585000D01*
X9200000Y-12485000D02*
G75*
G02*
X9000000Y-12485000I-100000J0D01*
G01*
X9000000Y-12485000D02*
G75*
G02*
X9200000Y-12485000I100000J0D01*
G01*
X2258277Y-13313984D02*
X2258277Y-13113984D01*
X2258277Y-13113984D02*
X2305896Y-13113984D01*
X2305896Y-13113984D02*
X2334467Y-13123508D01*
X2334467Y-13123508D02*
X2353515Y-13142555D01*
X2353515Y-13142555D02*
X2363039Y-13161603D01*
X2363039Y-13161603D02*
X2372563Y-13199698D01*
X2372563Y-13199698D02*
X2372563Y-13228269D01*
X2372563Y-13228269D02*
X2363039Y-13266365D01*
X2363039Y-13266365D02*
X2353515Y-13285412D01*
X2353515Y-13285412D02*
X2334467Y-13304460D01*
X2334467Y-13304460D02*
X2305896Y-13313984D01*
X2305896Y-13313984D02*
X2258277Y-13313984D01*
X2458277Y-13313984D02*
X2458277Y-13180650D01*
X2458277Y-13218746D02*
X2467801Y-13199698D01*
X2467801Y-13199698D02*
X2477324Y-13190174D01*
X2477324Y-13190174D02*
X2496372Y-13180650D01*
X2496372Y-13180650D02*
X2515420Y-13180650D01*
X2582086Y-13313984D02*
X2582086Y-13180650D01*
X2582086Y-13113984D02*
X2572563Y-13123508D01*
X2572563Y-13123508D02*
X2582086Y-13133031D01*
X2582086Y-13133031D02*
X2591610Y-13123508D01*
X2591610Y-13123508D02*
X2582086Y-13113984D01*
X2582086Y-13113984D02*
X2582086Y-13133031D01*
X2705896Y-13313984D02*
X2686848Y-13304460D01*
X2686848Y-13304460D02*
X2677324Y-13285412D01*
X2677324Y-13285412D02*
X2677324Y-13113984D01*
X2810658Y-13313984D02*
X2791610Y-13304460D01*
X2791610Y-13304460D02*
X2782086Y-13285412D01*
X2782086Y-13285412D02*
X2782086Y-13113984D01*
X3039229Y-13313984D02*
X3039229Y-13113984D01*
X3039229Y-13113984D02*
X3105896Y-13256841D01*
X3105896Y-13256841D02*
X3172562Y-13113984D01*
X3172562Y-13113984D02*
X3172562Y-13313984D01*
X3353515Y-13313984D02*
X3353515Y-13209222D01*
X3353515Y-13209222D02*
X3343991Y-13190174D01*
X3343991Y-13190174D02*
X3324943Y-13180650D01*
X3324943Y-13180650D02*
X3286848Y-13180650D01*
X3286848Y-13180650D02*
X3267801Y-13190174D01*
X3353515Y-13304460D02*
X3334467Y-13313984D01*
X3334467Y-13313984D02*
X3286848Y-13313984D01*
X3286848Y-13313984D02*
X3267801Y-13304460D01*
X3267801Y-13304460D02*
X3258277Y-13285412D01*
X3258277Y-13285412D02*
X3258277Y-13266365D01*
X3258277Y-13266365D02*
X3267801Y-13247317D01*
X3267801Y-13247317D02*
X3286848Y-13237793D01*
X3286848Y-13237793D02*
X3334467Y-13237793D01*
X3334467Y-13237793D02*
X3353515Y-13228269D01*
X3448753Y-13180650D02*
X3448753Y-13380650D01*
X3448753Y-13190174D02*
X3467801Y-13180650D01*
X3467801Y-13180650D02*
X3505896Y-13180650D01*
X3505896Y-13180650D02*
X3524943Y-13190174D01*
X3524943Y-13190174D02*
X3534467Y-13199698D01*
X3534467Y-13199698D02*
X3543991Y-13218746D01*
X3543991Y-13218746D02*
X3543991Y-13275888D01*
X3543991Y-13275888D02*
X3534467Y-13294936D01*
X3534467Y-13294936D02*
X3524943Y-13304460D01*
X3524943Y-13304460D02*
X3505896Y-13313984D01*
X3505896Y-13313984D02*
X3467801Y-13313984D01*
X3467801Y-13313984D02*
X3448753Y-13304460D01*
X3629705Y-13294936D02*
X3639229Y-13304460D01*
X3639229Y-13304460D02*
X3629705Y-13313984D01*
X3629705Y-13313984D02*
X3620182Y-13304460D01*
X3620182Y-13304460D02*
X3629705Y-13294936D01*
X3629705Y-13294936D02*
X3629705Y-13313984D01*
X3629705Y-13190174D02*
X3639229Y-13199698D01*
X3639229Y-13199698D02*
X3629705Y-13209222D01*
X3629705Y-13209222D02*
X3620182Y-13199698D01*
X3620182Y-13199698D02*
X3629705Y-13190174D01*
X3629705Y-13190174D02*
X3629705Y-13209222D01*
D12*
X1967500Y-13627500D02*
X1997500Y-13657500D01*
X1997500Y-13627500D02*
X1967500Y-13657500D01*
D11*
X2296372Y-13533984D02*
X2315420Y-13533984D01*
X2315420Y-13533984D02*
X2334467Y-13543508D01*
X2334467Y-13543508D02*
X2343991Y-13553031D01*
X2343991Y-13553031D02*
X2353515Y-13572079D01*
X2353515Y-13572079D02*
X2363039Y-13610174D01*
X2363039Y-13610174D02*
X2363039Y-13657793D01*
X2363039Y-13657793D02*
X2353515Y-13695888D01*
X2353515Y-13695888D02*
X2343991Y-13714936D01*
X2343991Y-13714936D02*
X2334467Y-13724460D01*
X2334467Y-13724460D02*
X2315420Y-13733984D01*
X2315420Y-13733984D02*
X2296372Y-13733984D01*
X2296372Y-13733984D02*
X2277324Y-13724460D01*
X2277324Y-13724460D02*
X2267801Y-13714936D01*
X2267801Y-13714936D02*
X2258277Y-13695888D01*
X2258277Y-13695888D02*
X2248753Y-13657793D01*
X2248753Y-13657793D02*
X2248753Y-13610174D01*
X2248753Y-13610174D02*
X2258277Y-13572079D01*
X2258277Y-13572079D02*
X2267801Y-13553031D01*
X2267801Y-13553031D02*
X2277324Y-13543508D01*
X2277324Y-13543508D02*
X2296372Y-13533984D01*
X2448753Y-13714936D02*
X2458277Y-13724460D01*
X2458277Y-13724460D02*
X2448753Y-13733984D01*
X2448753Y-13733984D02*
X2439229Y-13724460D01*
X2439229Y-13724460D02*
X2448753Y-13714936D01*
X2448753Y-13714936D02*
X2448753Y-13733984D01*
X2524944Y-13533984D02*
X2648753Y-13533984D01*
X2648753Y-13533984D02*
X2582086Y-13610174D01*
X2582086Y-13610174D02*
X2610658Y-13610174D01*
X2610658Y-13610174D02*
X2629705Y-13619698D01*
X2629705Y-13619698D02*
X2639229Y-13629222D01*
X2639229Y-13629222D02*
X2648753Y-13648269D01*
X2648753Y-13648269D02*
X2648753Y-13695888D01*
X2648753Y-13695888D02*
X2639229Y-13714936D01*
X2639229Y-13714936D02*
X2629705Y-13724460D01*
X2629705Y-13724460D02*
X2610658Y-13733984D01*
X2610658Y-13733984D02*
X2553515Y-13733984D01*
X2553515Y-13733984D02*
X2534467Y-13724460D01*
X2534467Y-13724460D02*
X2524944Y-13714936D01*
X2772563Y-13533984D02*
X2791610Y-13533984D01*
X2791610Y-13533984D02*
X2810658Y-13543508D01*
X2810658Y-13543508D02*
X2820182Y-13553031D01*
X2820182Y-13553031D02*
X2829705Y-13572079D01*
X2829705Y-13572079D02*
X2839229Y-13610174D01*
X2839229Y-13610174D02*
X2839229Y-13657793D01*
X2839229Y-13657793D02*
X2829705Y-13695888D01*
X2829705Y-13695888D02*
X2820182Y-13714936D01*
X2820182Y-13714936D02*
X2810658Y-13724460D01*
X2810658Y-13724460D02*
X2791610Y-13733984D01*
X2791610Y-13733984D02*
X2772563Y-13733984D01*
X2772563Y-13733984D02*
X2753515Y-13724460D01*
X2753515Y-13724460D02*
X2743991Y-13714936D01*
X2743991Y-13714936D02*
X2734467Y-13695888D01*
X2734467Y-13695888D02*
X2724944Y-13657793D01*
X2724944Y-13657793D02*
X2724944Y-13610174D01*
X2724944Y-13610174D02*
X2734467Y-13572079D01*
X2734467Y-13572079D02*
X2743991Y-13553031D01*
X2743991Y-13553031D02*
X2753515Y-13543508D01*
X2753515Y-13543508D02*
X2772563Y-13533984D01*
X2963039Y-13533984D02*
X2982086Y-13533984D01*
X2982086Y-13533984D02*
X3001134Y-13543508D01*
X3001134Y-13543508D02*
X3010658Y-13553031D01*
X3010658Y-13553031D02*
X3020182Y-13572079D01*
X3020182Y-13572079D02*
X3029705Y-13610174D01*
X3029705Y-13610174D02*
X3029705Y-13657793D01*
X3029705Y-13657793D02*
X3020182Y-13695888D01*
X3020182Y-13695888D02*
X3010658Y-13714936D01*
X3010658Y-13714936D02*
X3001134Y-13724460D01*
X3001134Y-13724460D02*
X2982086Y-13733984D01*
X2982086Y-13733984D02*
X2963039Y-13733984D01*
X2963039Y-13733984D02*
X2943991Y-13724460D01*
X2943991Y-13724460D02*
X2934467Y-13714936D01*
X2934467Y-13714936D02*
X2924943Y-13695888D01*
X2924943Y-13695888D02*
X2915420Y-13657793D01*
X2915420Y-13657793D02*
X2915420Y-13610174D01*
X2915420Y-13610174D02*
X2924943Y-13572079D01*
X2924943Y-13572079D02*
X2934467Y-13553031D01*
X2934467Y-13553031D02*
X2943991Y-13543508D01*
X2943991Y-13543508D02*
X2963039Y-13533984D01*
X3115420Y-13733984D02*
X3115420Y-13600650D01*
X3115420Y-13619698D02*
X3124943Y-13610174D01*
X3124943Y-13610174D02*
X3143991Y-13600650D01*
X3143991Y-13600650D02*
X3172563Y-13600650D01*
X3172563Y-13600650D02*
X3191610Y-13610174D01*
X3191610Y-13610174D02*
X3201134Y-13629222D01*
X3201134Y-13629222D02*
X3201134Y-13733984D01*
X3201134Y-13629222D02*
X3210658Y-13610174D01*
X3210658Y-13610174D02*
X3229705Y-13600650D01*
X3229705Y-13600650D02*
X3258277Y-13600650D01*
X3258277Y-13600650D02*
X3277324Y-13610174D01*
X3277324Y-13610174D02*
X3286848Y-13629222D01*
X3286848Y-13629222D02*
X3286848Y-13733984D01*
X3382086Y-13733984D02*
X3382086Y-13600650D01*
X3382086Y-13619698D02*
X3391610Y-13610174D01*
X3391610Y-13610174D02*
X3410658Y-13600650D01*
X3410658Y-13600650D02*
X3439229Y-13600650D01*
X3439229Y-13600650D02*
X3458277Y-13610174D01*
X3458277Y-13610174D02*
X3467801Y-13629222D01*
X3467801Y-13629222D02*
X3467801Y-13733984D01*
X3467801Y-13629222D02*
X3477324Y-13610174D01*
X3477324Y-13610174D02*
X3496372Y-13600650D01*
X3496372Y-13600650D02*
X3524943Y-13600650D01*
X3524943Y-13600650D02*
X3543991Y-13610174D01*
X3543991Y-13610174D02*
X3553515Y-13629222D01*
X3553515Y-13629222D02*
X3553515Y-13733984D01*
X3943991Y-13524460D02*
X3772563Y-13781603D01*
X4201134Y-13533984D02*
X4220182Y-13533984D01*
X4220182Y-13533984D02*
X4239229Y-13543508D01*
X4239229Y-13543508D02*
X4248753Y-13553031D01*
X4248753Y-13553031D02*
X4258277Y-13572079D01*
X4258277Y-13572079D02*
X4267801Y-13610174D01*
X4267801Y-13610174D02*
X4267801Y-13657793D01*
X4267801Y-13657793D02*
X4258277Y-13695888D01*
X4258277Y-13695888D02*
X4248753Y-13714936D01*
X4248753Y-13714936D02*
X4239229Y-13724460D01*
X4239229Y-13724460D02*
X4220182Y-13733984D01*
X4220182Y-13733984D02*
X4201134Y-13733984D01*
X4201134Y-13733984D02*
X4182086Y-13724460D01*
X4182086Y-13724460D02*
X4172563Y-13714936D01*
X4172563Y-13714936D02*
X4163039Y-13695888D01*
X4163039Y-13695888D02*
X4153515Y-13657793D01*
X4153515Y-13657793D02*
X4153515Y-13610174D01*
X4153515Y-13610174D02*
X4163039Y-13572079D01*
X4163039Y-13572079D02*
X4172563Y-13553031D01*
X4172563Y-13553031D02*
X4182086Y-13543508D01*
X4182086Y-13543508D02*
X4201134Y-13533984D01*
X4353515Y-13714936D02*
X4363039Y-13724460D01*
X4363039Y-13724460D02*
X4353515Y-13733984D01*
X4353515Y-13733984D02*
X4343991Y-13724460D01*
X4343991Y-13724460D02*
X4353515Y-13714936D01*
X4353515Y-13714936D02*
X4353515Y-13733984D01*
X4486848Y-13533984D02*
X4505896Y-13533984D01*
X4505896Y-13533984D02*
X4524944Y-13543508D01*
X4524944Y-13543508D02*
X4534468Y-13553031D01*
X4534468Y-13553031D02*
X4543991Y-13572079D01*
X4543991Y-13572079D02*
X4553515Y-13610174D01*
X4553515Y-13610174D02*
X4553515Y-13657793D01*
X4553515Y-13657793D02*
X4543991Y-13695888D01*
X4543991Y-13695888D02*
X4534468Y-13714936D01*
X4534468Y-13714936D02*
X4524944Y-13724460D01*
X4524944Y-13724460D02*
X4505896Y-13733984D01*
X4505896Y-13733984D02*
X4486848Y-13733984D01*
X4486848Y-13733984D02*
X4467801Y-13724460D01*
X4467801Y-13724460D02*
X4458277Y-13714936D01*
X4458277Y-13714936D02*
X4448753Y-13695888D01*
X4448753Y-13695888D02*
X4439229Y-13657793D01*
X4439229Y-13657793D02*
X4439229Y-13610174D01*
X4439229Y-13610174D02*
X4448753Y-13572079D01*
X4448753Y-13572079D02*
X4458277Y-13553031D01*
X4458277Y-13553031D02*
X4467801Y-13543508D01*
X4467801Y-13543508D02*
X4486848Y-13533984D01*
X4743991Y-13733984D02*
X4629706Y-13733984D01*
X4686848Y-13733984D02*
X4686848Y-13533984D01*
X4686848Y-13533984D02*
X4667801Y-13562555D01*
X4667801Y-13562555D02*
X4648753Y-13581603D01*
X4648753Y-13581603D02*
X4629706Y-13591127D01*
X4934468Y-13733984D02*
X4820182Y-13733984D01*
X4877325Y-13733984D02*
X4877325Y-13533984D01*
X4877325Y-13533984D02*
X4858277Y-13562555D01*
X4858277Y-13562555D02*
X4839229Y-13581603D01*
X4839229Y-13581603D02*
X4820182Y-13591127D01*
X5048753Y-13619698D02*
X5029706Y-13610174D01*
X5029706Y-13610174D02*
X5020182Y-13600650D01*
X5020182Y-13600650D02*
X5010658Y-13581603D01*
X5010658Y-13581603D02*
X5010658Y-13572079D01*
X5010658Y-13572079D02*
X5020182Y-13553031D01*
X5020182Y-13553031D02*
X5029706Y-13543508D01*
X5029706Y-13543508D02*
X5048753Y-13533984D01*
X5048753Y-13533984D02*
X5086849Y-13533984D01*
X5086849Y-13533984D02*
X5105896Y-13543508D01*
X5105896Y-13543508D02*
X5115420Y-13553031D01*
X5115420Y-13553031D02*
X5124944Y-13572079D01*
X5124944Y-13572079D02*
X5124944Y-13581603D01*
X5124944Y-13581603D02*
X5115420Y-13600650D01*
X5115420Y-13600650D02*
X5105896Y-13610174D01*
X5105896Y-13610174D02*
X5086849Y-13619698D01*
X5086849Y-13619698D02*
X5048753Y-13619698D01*
X5048753Y-13619698D02*
X5029706Y-13629222D01*
X5029706Y-13629222D02*
X5020182Y-13638746D01*
X5020182Y-13638746D02*
X5010658Y-13657793D01*
X5010658Y-13657793D02*
X5010658Y-13695888D01*
X5010658Y-13695888D02*
X5020182Y-13714936D01*
X5020182Y-13714936D02*
X5029706Y-13724460D01*
X5029706Y-13724460D02*
X5048753Y-13733984D01*
X5048753Y-13733984D02*
X5086849Y-13733984D01*
X5086849Y-13733984D02*
X5105896Y-13724460D01*
X5105896Y-13724460D02*
X5115420Y-13714936D01*
X5115420Y-13714936D02*
X5124944Y-13695888D01*
X5124944Y-13695888D02*
X5124944Y-13657793D01*
X5124944Y-13657793D02*
X5115420Y-13638746D01*
X5115420Y-13638746D02*
X5105896Y-13629222D01*
X5105896Y-13629222D02*
X5086849Y-13619698D01*
X5201134Y-13533984D02*
X5201134Y-13572079D01*
X5277325Y-13533984D02*
X5277325Y-13572079D01*
X5572563Y-13810174D02*
X5563039Y-13800650D01*
X5563039Y-13800650D02*
X5543991Y-13772079D01*
X5543991Y-13772079D02*
X5534468Y-13753031D01*
X5534468Y-13753031D02*
X5524944Y-13724460D01*
X5524944Y-13724460D02*
X5515420Y-13676841D01*
X5515420Y-13676841D02*
X5515420Y-13638746D01*
X5515420Y-13638746D02*
X5524944Y-13591127D01*
X5524944Y-13591127D02*
X5534468Y-13562555D01*
X5534468Y-13562555D02*
X5543991Y-13543508D01*
X5543991Y-13543508D02*
X5563039Y-13514936D01*
X5563039Y-13514936D02*
X5572563Y-13505412D01*
X5753515Y-13733984D02*
X5639229Y-13733984D01*
X5696372Y-13733984D02*
X5696372Y-13533984D01*
X5696372Y-13533984D02*
X5677325Y-13562555D01*
X5677325Y-13562555D02*
X5658277Y-13581603D01*
X5658277Y-13581603D02*
X5639229Y-13591127D01*
X5934468Y-13533984D02*
X5839229Y-13533984D01*
X5839229Y-13533984D02*
X5829706Y-13629222D01*
X5829706Y-13629222D02*
X5839229Y-13619698D01*
X5839229Y-13619698D02*
X5858277Y-13610174D01*
X5858277Y-13610174D02*
X5905896Y-13610174D01*
X5905896Y-13610174D02*
X5924944Y-13619698D01*
X5924944Y-13619698D02*
X5934468Y-13629222D01*
X5934468Y-13629222D02*
X5943991Y-13648269D01*
X5943991Y-13648269D02*
X5943991Y-13695888D01*
X5943991Y-13695888D02*
X5934468Y-13714936D01*
X5934468Y-13714936D02*
X5924944Y-13724460D01*
X5924944Y-13724460D02*
X5905896Y-13733984D01*
X5905896Y-13733984D02*
X5858277Y-13733984D01*
X5858277Y-13733984D02*
X5839229Y-13724460D01*
X5839229Y-13724460D02*
X5829706Y-13714936D01*
X6058277Y-13619698D02*
X6039229Y-13610174D01*
X6039229Y-13610174D02*
X6029706Y-13600650D01*
X6029706Y-13600650D02*
X6020182Y-13581603D01*
X6020182Y-13581603D02*
X6020182Y-13572079D01*
X6020182Y-13572079D02*
X6029706Y-13553031D01*
X6029706Y-13553031D02*
X6039229Y-13543508D01*
X6039229Y-13543508D02*
X6058277Y-13533984D01*
X6058277Y-13533984D02*
X6096372Y-13533984D01*
X6096372Y-13533984D02*
X6115420Y-13543508D01*
X6115420Y-13543508D02*
X6124944Y-13553031D01*
X6124944Y-13553031D02*
X6134468Y-13572079D01*
X6134468Y-13572079D02*
X6134468Y-13581603D01*
X6134468Y-13581603D02*
X6124944Y-13600650D01*
X6124944Y-13600650D02*
X6115420Y-13610174D01*
X6115420Y-13610174D02*
X6096372Y-13619698D01*
X6096372Y-13619698D02*
X6058277Y-13619698D01*
X6058277Y-13619698D02*
X6039229Y-13629222D01*
X6039229Y-13629222D02*
X6029706Y-13638746D01*
X6029706Y-13638746D02*
X6020182Y-13657793D01*
X6020182Y-13657793D02*
X6020182Y-13695888D01*
X6020182Y-13695888D02*
X6029706Y-13714936D01*
X6029706Y-13714936D02*
X6039229Y-13724460D01*
X6039229Y-13724460D02*
X6058277Y-13733984D01*
X6058277Y-13733984D02*
X6096372Y-13733984D01*
X6096372Y-13733984D02*
X6115420Y-13724460D01*
X6115420Y-13724460D02*
X6124944Y-13714936D01*
X6124944Y-13714936D02*
X6134468Y-13695888D01*
X6134468Y-13695888D02*
X6134468Y-13657793D01*
X6134468Y-13657793D02*
X6124944Y-13638746D01*
X6124944Y-13638746D02*
X6115420Y-13629222D01*
X6115420Y-13629222D02*
X6096372Y-13619698D01*
X6372563Y-13733984D02*
X6372563Y-13533984D01*
X6458277Y-13733984D02*
X6458277Y-13629222D01*
X6458277Y-13629222D02*
X6448753Y-13610174D01*
X6448753Y-13610174D02*
X6429706Y-13600650D01*
X6429706Y-13600650D02*
X6401134Y-13600650D01*
X6401134Y-13600650D02*
X6382087Y-13610174D01*
X6382087Y-13610174D02*
X6372563Y-13619698D01*
X6582087Y-13733984D02*
X6563039Y-13724460D01*
X6563039Y-13724460D02*
X6553515Y-13714936D01*
X6553515Y-13714936D02*
X6543991Y-13695888D01*
X6543991Y-13695888D02*
X6543991Y-13638746D01*
X6543991Y-13638746D02*
X6553515Y-13619698D01*
X6553515Y-13619698D02*
X6563039Y-13610174D01*
X6563039Y-13610174D02*
X6582087Y-13600650D01*
X6582087Y-13600650D02*
X6610658Y-13600650D01*
X6610658Y-13600650D02*
X6629706Y-13610174D01*
X6629706Y-13610174D02*
X6639230Y-13619698D01*
X6639230Y-13619698D02*
X6648753Y-13638746D01*
X6648753Y-13638746D02*
X6648753Y-13695888D01*
X6648753Y-13695888D02*
X6639230Y-13714936D01*
X6639230Y-13714936D02*
X6629706Y-13724460D01*
X6629706Y-13724460D02*
X6610658Y-13733984D01*
X6610658Y-13733984D02*
X6582087Y-13733984D01*
X6763039Y-13733984D02*
X6743991Y-13724460D01*
X6743991Y-13724460D02*
X6734468Y-13705412D01*
X6734468Y-13705412D02*
X6734468Y-13533984D01*
X6915420Y-13724460D02*
X6896372Y-13733984D01*
X6896372Y-13733984D02*
X6858277Y-13733984D01*
X6858277Y-13733984D02*
X6839230Y-13724460D01*
X6839230Y-13724460D02*
X6829706Y-13705412D01*
X6829706Y-13705412D02*
X6829706Y-13629222D01*
X6829706Y-13629222D02*
X6839230Y-13610174D01*
X6839230Y-13610174D02*
X6858277Y-13600650D01*
X6858277Y-13600650D02*
X6896372Y-13600650D01*
X6896372Y-13600650D02*
X6915420Y-13610174D01*
X6915420Y-13610174D02*
X6924944Y-13629222D01*
X6924944Y-13629222D02*
X6924944Y-13648269D01*
X6924944Y-13648269D02*
X6829706Y-13667317D01*
X7001134Y-13724460D02*
X7020182Y-13733984D01*
X7020182Y-13733984D02*
X7058277Y-13733984D01*
X7058277Y-13733984D02*
X7077325Y-13724460D01*
X7077325Y-13724460D02*
X7086849Y-13705412D01*
X7086849Y-13705412D02*
X7086849Y-13695888D01*
X7086849Y-13695888D02*
X7077325Y-13676841D01*
X7077325Y-13676841D02*
X7058277Y-13667317D01*
X7058277Y-13667317D02*
X7029706Y-13667317D01*
X7029706Y-13667317D02*
X7010658Y-13657793D01*
X7010658Y-13657793D02*
X7001134Y-13638746D01*
X7001134Y-13638746D02*
X7001134Y-13629222D01*
X7001134Y-13629222D02*
X7010658Y-13610174D01*
X7010658Y-13610174D02*
X7029706Y-13600650D01*
X7029706Y-13600650D02*
X7058277Y-13600650D01*
X7058277Y-13600650D02*
X7077325Y-13610174D01*
X7153515Y-13810174D02*
X7163039Y-13800650D01*
X7163039Y-13800650D02*
X7182087Y-13772079D01*
X7182087Y-13772079D02*
X7191611Y-13753031D01*
X7191611Y-13753031D02*
X7201134Y-13724460D01*
X7201134Y-13724460D02*
X7210658Y-13676841D01*
X7210658Y-13676841D02*
X7210658Y-13638746D01*
X7210658Y-13638746D02*
X7201134Y-13591127D01*
X7201134Y-13591127D02*
X7191611Y-13562555D01*
X7191611Y-13562555D02*
X7182087Y-13543508D01*
X7182087Y-13543508D02*
X7163039Y-13514936D01*
X7163039Y-13514936D02*
X7153515Y-13505412D01*
D12*
X1997500Y-13906500D02*
G75*
G02*
X1957500Y-13906500I-20000J0D01*
G01*
X1957500Y-13906500D02*
G75*
G02*
X1997500Y-13906500I20000J0D01*
G01*
D11*
X2296372Y-13797984D02*
X2315420Y-13797984D01*
X2315420Y-13797984D02*
X2334467Y-13807508D01*
X2334467Y-13807508D02*
X2343991Y-13817031D01*
X2343991Y-13817031D02*
X2353515Y-13836079D01*
X2353515Y-13836079D02*
X2363039Y-13874174D01*
X2363039Y-13874174D02*
X2363039Y-13921793D01*
X2363039Y-13921793D02*
X2353515Y-13959888D01*
X2353515Y-13959888D02*
X2343991Y-13978936D01*
X2343991Y-13978936D02*
X2334467Y-13988460D01*
X2334467Y-13988460D02*
X2315420Y-13997984D01*
X2315420Y-13997984D02*
X2296372Y-13997984D01*
X2296372Y-13997984D02*
X2277324Y-13988460D01*
X2277324Y-13988460D02*
X2267801Y-13978936D01*
X2267801Y-13978936D02*
X2258277Y-13959888D01*
X2258277Y-13959888D02*
X2248753Y-13921793D01*
X2248753Y-13921793D02*
X2248753Y-13874174D01*
X2248753Y-13874174D02*
X2258277Y-13836079D01*
X2258277Y-13836079D02*
X2267801Y-13817031D01*
X2267801Y-13817031D02*
X2277324Y-13807508D01*
X2277324Y-13807508D02*
X2296372Y-13797984D01*
X2448753Y-13978936D02*
X2458277Y-13988460D01*
X2458277Y-13988460D02*
X2448753Y-13997984D01*
X2448753Y-13997984D02*
X2439229Y-13988460D01*
X2439229Y-13988460D02*
X2448753Y-13978936D01*
X2448753Y-13978936D02*
X2448753Y-13997984D01*
X2629705Y-13864650D02*
X2629705Y-13997984D01*
X2582086Y-13788460D02*
X2534467Y-13931317D01*
X2534467Y-13931317D02*
X2658277Y-13931317D01*
X2772563Y-13797984D02*
X2791610Y-13797984D01*
X2791610Y-13797984D02*
X2810658Y-13807508D01*
X2810658Y-13807508D02*
X2820182Y-13817031D01*
X2820182Y-13817031D02*
X2829705Y-13836079D01*
X2829705Y-13836079D02*
X2839229Y-13874174D01*
X2839229Y-13874174D02*
X2839229Y-13921793D01*
X2839229Y-13921793D02*
X2829705Y-13959888D01*
X2829705Y-13959888D02*
X2820182Y-13978936D01*
X2820182Y-13978936D02*
X2810658Y-13988460D01*
X2810658Y-13988460D02*
X2791610Y-13997984D01*
X2791610Y-13997984D02*
X2772563Y-13997984D01*
X2772563Y-13997984D02*
X2753515Y-13988460D01*
X2753515Y-13988460D02*
X2743991Y-13978936D01*
X2743991Y-13978936D02*
X2734467Y-13959888D01*
X2734467Y-13959888D02*
X2724944Y-13921793D01*
X2724944Y-13921793D02*
X2724944Y-13874174D01*
X2724944Y-13874174D02*
X2734467Y-13836079D01*
X2734467Y-13836079D02*
X2743991Y-13817031D01*
X2743991Y-13817031D02*
X2753515Y-13807508D01*
X2753515Y-13807508D02*
X2772563Y-13797984D01*
X2963039Y-13797984D02*
X2982086Y-13797984D01*
X2982086Y-13797984D02*
X3001134Y-13807508D01*
X3001134Y-13807508D02*
X3010658Y-13817031D01*
X3010658Y-13817031D02*
X3020182Y-13836079D01*
X3020182Y-13836079D02*
X3029705Y-13874174D01*
X3029705Y-13874174D02*
X3029705Y-13921793D01*
X3029705Y-13921793D02*
X3020182Y-13959888D01*
X3020182Y-13959888D02*
X3010658Y-13978936D01*
X3010658Y-13978936D02*
X3001134Y-13988460D01*
X3001134Y-13988460D02*
X2982086Y-13997984D01*
X2982086Y-13997984D02*
X2963039Y-13997984D01*
X2963039Y-13997984D02*
X2943991Y-13988460D01*
X2943991Y-13988460D02*
X2934467Y-13978936D01*
X2934467Y-13978936D02*
X2924943Y-13959888D01*
X2924943Y-13959888D02*
X2915420Y-13921793D01*
X2915420Y-13921793D02*
X2915420Y-13874174D01*
X2915420Y-13874174D02*
X2924943Y-13836079D01*
X2924943Y-13836079D02*
X2934467Y-13817031D01*
X2934467Y-13817031D02*
X2943991Y-13807508D01*
X2943991Y-13807508D02*
X2963039Y-13797984D01*
X3115420Y-13997984D02*
X3115420Y-13864650D01*
X3115420Y-13883698D02*
X3124943Y-13874174D01*
X3124943Y-13874174D02*
X3143991Y-13864650D01*
X3143991Y-13864650D02*
X3172563Y-13864650D01*
X3172563Y-13864650D02*
X3191610Y-13874174D01*
X3191610Y-13874174D02*
X3201134Y-13893222D01*
X3201134Y-13893222D02*
X3201134Y-13997984D01*
X3201134Y-13893222D02*
X3210658Y-13874174D01*
X3210658Y-13874174D02*
X3229705Y-13864650D01*
X3229705Y-13864650D02*
X3258277Y-13864650D01*
X3258277Y-13864650D02*
X3277324Y-13874174D01*
X3277324Y-13874174D02*
X3286848Y-13893222D01*
X3286848Y-13893222D02*
X3286848Y-13997984D01*
X3382086Y-13997984D02*
X3382086Y-13864650D01*
X3382086Y-13883698D02*
X3391610Y-13874174D01*
X3391610Y-13874174D02*
X3410658Y-13864650D01*
X3410658Y-13864650D02*
X3439229Y-13864650D01*
X3439229Y-13864650D02*
X3458277Y-13874174D01*
X3458277Y-13874174D02*
X3467801Y-13893222D01*
X3467801Y-13893222D02*
X3467801Y-13997984D01*
X3467801Y-13893222D02*
X3477324Y-13874174D01*
X3477324Y-13874174D02*
X3496372Y-13864650D01*
X3496372Y-13864650D02*
X3524943Y-13864650D01*
X3524943Y-13864650D02*
X3543991Y-13874174D01*
X3543991Y-13874174D02*
X3553515Y-13893222D01*
X3553515Y-13893222D02*
X3553515Y-13997984D01*
X3943991Y-13788460D02*
X3772563Y-14045603D01*
X4201134Y-13797984D02*
X4220182Y-13797984D01*
X4220182Y-13797984D02*
X4239229Y-13807508D01*
X4239229Y-13807508D02*
X4248753Y-13817031D01*
X4248753Y-13817031D02*
X4258277Y-13836079D01*
X4258277Y-13836079D02*
X4267801Y-13874174D01*
X4267801Y-13874174D02*
X4267801Y-13921793D01*
X4267801Y-13921793D02*
X4258277Y-13959888D01*
X4258277Y-13959888D02*
X4248753Y-13978936D01*
X4248753Y-13978936D02*
X4239229Y-13988460D01*
X4239229Y-13988460D02*
X4220182Y-13997984D01*
X4220182Y-13997984D02*
X4201134Y-13997984D01*
X4201134Y-13997984D02*
X4182086Y-13988460D01*
X4182086Y-13988460D02*
X4172563Y-13978936D01*
X4172563Y-13978936D02*
X4163039Y-13959888D01*
X4163039Y-13959888D02*
X4153515Y-13921793D01*
X4153515Y-13921793D02*
X4153515Y-13874174D01*
X4153515Y-13874174D02*
X4163039Y-13836079D01*
X4163039Y-13836079D02*
X4172563Y-13817031D01*
X4172563Y-13817031D02*
X4182086Y-13807508D01*
X4182086Y-13807508D02*
X4201134Y-13797984D01*
X4353515Y-13978936D02*
X4363039Y-13988460D01*
X4363039Y-13988460D02*
X4353515Y-13997984D01*
X4353515Y-13997984D02*
X4343991Y-13988460D01*
X4343991Y-13988460D02*
X4353515Y-13978936D01*
X4353515Y-13978936D02*
X4353515Y-13997984D01*
X4486848Y-13797984D02*
X4505896Y-13797984D01*
X4505896Y-13797984D02*
X4524944Y-13807508D01*
X4524944Y-13807508D02*
X4534468Y-13817031D01*
X4534468Y-13817031D02*
X4543991Y-13836079D01*
X4543991Y-13836079D02*
X4553515Y-13874174D01*
X4553515Y-13874174D02*
X4553515Y-13921793D01*
X4553515Y-13921793D02*
X4543991Y-13959888D01*
X4543991Y-13959888D02*
X4534468Y-13978936D01*
X4534468Y-13978936D02*
X4524944Y-13988460D01*
X4524944Y-13988460D02*
X4505896Y-13997984D01*
X4505896Y-13997984D02*
X4486848Y-13997984D01*
X4486848Y-13997984D02*
X4467801Y-13988460D01*
X4467801Y-13988460D02*
X4458277Y-13978936D01*
X4458277Y-13978936D02*
X4448753Y-13959888D01*
X4448753Y-13959888D02*
X4439229Y-13921793D01*
X4439229Y-13921793D02*
X4439229Y-13874174D01*
X4439229Y-13874174D02*
X4448753Y-13836079D01*
X4448753Y-13836079D02*
X4458277Y-13817031D01*
X4458277Y-13817031D02*
X4467801Y-13807508D01*
X4467801Y-13807508D02*
X4486848Y-13797984D01*
X4743991Y-13997984D02*
X4629706Y-13997984D01*
X4686848Y-13997984D02*
X4686848Y-13797984D01*
X4686848Y-13797984D02*
X4667801Y-13826555D01*
X4667801Y-13826555D02*
X4648753Y-13845603D01*
X4648753Y-13845603D02*
X4629706Y-13855127D01*
X4924944Y-13797984D02*
X4829706Y-13797984D01*
X4829706Y-13797984D02*
X4820182Y-13893222D01*
X4820182Y-13893222D02*
X4829706Y-13883698D01*
X4829706Y-13883698D02*
X4848753Y-13874174D01*
X4848753Y-13874174D02*
X4896372Y-13874174D01*
X4896372Y-13874174D02*
X4915420Y-13883698D01*
X4915420Y-13883698D02*
X4924944Y-13893222D01*
X4924944Y-13893222D02*
X4934468Y-13912269D01*
X4934468Y-13912269D02*
X4934468Y-13959888D01*
X4934468Y-13959888D02*
X4924944Y-13978936D01*
X4924944Y-13978936D02*
X4915420Y-13988460D01*
X4915420Y-13988460D02*
X4896372Y-13997984D01*
X4896372Y-13997984D02*
X4848753Y-13997984D01*
X4848753Y-13997984D02*
X4829706Y-13988460D01*
X4829706Y-13988460D02*
X4820182Y-13978936D01*
X5001134Y-13797984D02*
X5134468Y-13797984D01*
X5134468Y-13797984D02*
X5048753Y-13997984D01*
X5201134Y-13797984D02*
X5201134Y-13836079D01*
X5277325Y-13797984D02*
X5277325Y-13836079D01*
X5572563Y-14074174D02*
X5563039Y-14064650D01*
X5563039Y-14064650D02*
X5543991Y-14036079D01*
X5543991Y-14036079D02*
X5534468Y-14017031D01*
X5534468Y-14017031D02*
X5524944Y-13988460D01*
X5524944Y-13988460D02*
X5515420Y-13940841D01*
X5515420Y-13940841D02*
X5515420Y-13902746D01*
X5515420Y-13902746D02*
X5524944Y-13855127D01*
X5524944Y-13855127D02*
X5534468Y-13826555D01*
X5534468Y-13826555D02*
X5543991Y-13807508D01*
X5543991Y-13807508D02*
X5563039Y-13778936D01*
X5563039Y-13778936D02*
X5572563Y-13769412D01*
X5639229Y-13817031D02*
X5648753Y-13807508D01*
X5648753Y-13807508D02*
X5667801Y-13797984D01*
X5667801Y-13797984D02*
X5715420Y-13797984D01*
X5715420Y-13797984D02*
X5734468Y-13807508D01*
X5734468Y-13807508D02*
X5743991Y-13817031D01*
X5743991Y-13817031D02*
X5753515Y-13836079D01*
X5753515Y-13836079D02*
X5753515Y-13855127D01*
X5753515Y-13855127D02*
X5743991Y-13883698D01*
X5743991Y-13883698D02*
X5629706Y-13997984D01*
X5629706Y-13997984D02*
X5753515Y-13997984D01*
X5848753Y-13997984D02*
X5886848Y-13997984D01*
X5886848Y-13997984D02*
X5905896Y-13988460D01*
X5905896Y-13988460D02*
X5915420Y-13978936D01*
X5915420Y-13978936D02*
X5934468Y-13950365D01*
X5934468Y-13950365D02*
X5943991Y-13912269D01*
X5943991Y-13912269D02*
X5943991Y-13836079D01*
X5943991Y-13836079D02*
X5934468Y-13817031D01*
X5934468Y-13817031D02*
X5924944Y-13807508D01*
X5924944Y-13807508D02*
X5905896Y-13797984D01*
X5905896Y-13797984D02*
X5867801Y-13797984D01*
X5867801Y-13797984D02*
X5848753Y-13807508D01*
X5848753Y-13807508D02*
X5839229Y-13817031D01*
X5839229Y-13817031D02*
X5829706Y-13836079D01*
X5829706Y-13836079D02*
X5829706Y-13883698D01*
X5829706Y-13883698D02*
X5839229Y-13902746D01*
X5839229Y-13902746D02*
X5848753Y-13912269D01*
X5848753Y-13912269D02*
X5867801Y-13921793D01*
X5867801Y-13921793D02*
X5905896Y-13921793D01*
X5905896Y-13921793D02*
X5924944Y-13912269D01*
X5924944Y-13912269D02*
X5934468Y-13902746D01*
X5934468Y-13902746D02*
X5943991Y-13883698D01*
X6182087Y-13997984D02*
X6182087Y-13797984D01*
X6267801Y-13997984D02*
X6267801Y-13893222D01*
X6267801Y-13893222D02*
X6258277Y-13874174D01*
X6258277Y-13874174D02*
X6239230Y-13864650D01*
X6239230Y-13864650D02*
X6210658Y-13864650D01*
X6210658Y-13864650D02*
X6191610Y-13874174D01*
X6191610Y-13874174D02*
X6182087Y-13883698D01*
X6391610Y-13997984D02*
X6372563Y-13988460D01*
X6372563Y-13988460D02*
X6363039Y-13978936D01*
X6363039Y-13978936D02*
X6353515Y-13959888D01*
X6353515Y-13959888D02*
X6353515Y-13902746D01*
X6353515Y-13902746D02*
X6363039Y-13883698D01*
X6363039Y-13883698D02*
X6372563Y-13874174D01*
X6372563Y-13874174D02*
X6391610Y-13864650D01*
X6391610Y-13864650D02*
X6420182Y-13864650D01*
X6420182Y-13864650D02*
X6439230Y-13874174D01*
X6439230Y-13874174D02*
X6448753Y-13883698D01*
X6448753Y-13883698D02*
X6458277Y-13902746D01*
X6458277Y-13902746D02*
X6458277Y-13959888D01*
X6458277Y-13959888D02*
X6448753Y-13978936D01*
X6448753Y-13978936D02*
X6439230Y-13988460D01*
X6439230Y-13988460D02*
X6420182Y-13997984D01*
X6420182Y-13997984D02*
X6391610Y-13997984D01*
X6572563Y-13997984D02*
X6553515Y-13988460D01*
X6553515Y-13988460D02*
X6543991Y-13969412D01*
X6543991Y-13969412D02*
X6543991Y-13797984D01*
X6724944Y-13988460D02*
X6705896Y-13997984D01*
X6705896Y-13997984D02*
X6667801Y-13997984D01*
X6667801Y-13997984D02*
X6648753Y-13988460D01*
X6648753Y-13988460D02*
X6639230Y-13969412D01*
X6639230Y-13969412D02*
X6639230Y-13893222D01*
X6639230Y-13893222D02*
X6648753Y-13874174D01*
X6648753Y-13874174D02*
X6667801Y-13864650D01*
X6667801Y-13864650D02*
X6705896Y-13864650D01*
X6705896Y-13864650D02*
X6724944Y-13874174D01*
X6724944Y-13874174D02*
X6734468Y-13893222D01*
X6734468Y-13893222D02*
X6734468Y-13912269D01*
X6734468Y-13912269D02*
X6639230Y-13931317D01*
X6810658Y-13988460D02*
X6829706Y-13997984D01*
X6829706Y-13997984D02*
X6867801Y-13997984D01*
X6867801Y-13997984D02*
X6886849Y-13988460D01*
X6886849Y-13988460D02*
X6896372Y-13969412D01*
X6896372Y-13969412D02*
X6896372Y-13959888D01*
X6896372Y-13959888D02*
X6886849Y-13940841D01*
X6886849Y-13940841D02*
X6867801Y-13931317D01*
X6867801Y-13931317D02*
X6839230Y-13931317D01*
X6839230Y-13931317D02*
X6820182Y-13921793D01*
X6820182Y-13921793D02*
X6810658Y-13902746D01*
X6810658Y-13902746D02*
X6810658Y-13893222D01*
X6810658Y-13893222D02*
X6820182Y-13874174D01*
X6820182Y-13874174D02*
X6839230Y-13864650D01*
X6839230Y-13864650D02*
X6867801Y-13864650D01*
X6867801Y-13864650D02*
X6886849Y-13874174D01*
X6963039Y-14074174D02*
X6972563Y-14064650D01*
X6972563Y-14064650D02*
X6991611Y-14036079D01*
X6991611Y-14036079D02*
X7001134Y-14017031D01*
X7001134Y-14017031D02*
X7010658Y-13988460D01*
X7010658Y-13988460D02*
X7020182Y-13940841D01*
X7020182Y-13940841D02*
X7020182Y-13902746D01*
X7020182Y-13902746D02*
X7010658Y-13855127D01*
X7010658Y-13855127D02*
X7001134Y-13826555D01*
X7001134Y-13826555D02*
X6991611Y-13807508D01*
X6991611Y-13807508D02*
X6972563Y-13778936D01*
X6972563Y-13778936D02*
X6963039Y-13769412D01*
D12*
X1947500Y-14120500D02*
X1947500Y-14220500D01*
X1897500Y-14170500D02*
X1997500Y-14170500D01*
D11*
X2363039Y-14261984D02*
X2248753Y-14261984D01*
X2305896Y-14261984D02*
X2305896Y-14061984D01*
X2305896Y-14061984D02*
X2286848Y-14090555D01*
X2286848Y-14090555D02*
X2267801Y-14109603D01*
X2267801Y-14109603D02*
X2248753Y-14119127D01*
X2448753Y-14242936D02*
X2458277Y-14252460D01*
X2458277Y-14252460D02*
X2448753Y-14261984D01*
X2448753Y-14261984D02*
X2439229Y-14252460D01*
X2439229Y-14252460D02*
X2448753Y-14242936D01*
X2448753Y-14242936D02*
X2448753Y-14261984D01*
X2582086Y-14061984D02*
X2601134Y-14061984D01*
X2601134Y-14061984D02*
X2620182Y-14071508D01*
X2620182Y-14071508D02*
X2629705Y-14081031D01*
X2629705Y-14081031D02*
X2639229Y-14100079D01*
X2639229Y-14100079D02*
X2648753Y-14138174D01*
X2648753Y-14138174D02*
X2648753Y-14185793D01*
X2648753Y-14185793D02*
X2639229Y-14223888D01*
X2639229Y-14223888D02*
X2629705Y-14242936D01*
X2629705Y-14242936D02*
X2620182Y-14252460D01*
X2620182Y-14252460D02*
X2601134Y-14261984D01*
X2601134Y-14261984D02*
X2582086Y-14261984D01*
X2582086Y-14261984D02*
X2563039Y-14252460D01*
X2563039Y-14252460D02*
X2553515Y-14242936D01*
X2553515Y-14242936D02*
X2543991Y-14223888D01*
X2543991Y-14223888D02*
X2534467Y-14185793D01*
X2534467Y-14185793D02*
X2534467Y-14138174D01*
X2534467Y-14138174D02*
X2543991Y-14100079D01*
X2543991Y-14100079D02*
X2553515Y-14081031D01*
X2553515Y-14081031D02*
X2563039Y-14071508D01*
X2563039Y-14071508D02*
X2582086Y-14061984D01*
X2772563Y-14061984D02*
X2791610Y-14061984D01*
X2791610Y-14061984D02*
X2810658Y-14071508D01*
X2810658Y-14071508D02*
X2820182Y-14081031D01*
X2820182Y-14081031D02*
X2829705Y-14100079D01*
X2829705Y-14100079D02*
X2839229Y-14138174D01*
X2839229Y-14138174D02*
X2839229Y-14185793D01*
X2839229Y-14185793D02*
X2829705Y-14223888D01*
X2829705Y-14223888D02*
X2820182Y-14242936D01*
X2820182Y-14242936D02*
X2810658Y-14252460D01*
X2810658Y-14252460D02*
X2791610Y-14261984D01*
X2791610Y-14261984D02*
X2772563Y-14261984D01*
X2772563Y-14261984D02*
X2753515Y-14252460D01*
X2753515Y-14252460D02*
X2743991Y-14242936D01*
X2743991Y-14242936D02*
X2734467Y-14223888D01*
X2734467Y-14223888D02*
X2724944Y-14185793D01*
X2724944Y-14185793D02*
X2724944Y-14138174D01*
X2724944Y-14138174D02*
X2734467Y-14100079D01*
X2734467Y-14100079D02*
X2743991Y-14081031D01*
X2743991Y-14081031D02*
X2753515Y-14071508D01*
X2753515Y-14071508D02*
X2772563Y-14061984D01*
X2963039Y-14061984D02*
X2982086Y-14061984D01*
X2982086Y-14061984D02*
X3001134Y-14071508D01*
X3001134Y-14071508D02*
X3010658Y-14081031D01*
X3010658Y-14081031D02*
X3020182Y-14100079D01*
X3020182Y-14100079D02*
X3029705Y-14138174D01*
X3029705Y-14138174D02*
X3029705Y-14185793D01*
X3029705Y-14185793D02*
X3020182Y-14223888D01*
X3020182Y-14223888D02*
X3010658Y-14242936D01*
X3010658Y-14242936D02*
X3001134Y-14252460D01*
X3001134Y-14252460D02*
X2982086Y-14261984D01*
X2982086Y-14261984D02*
X2963039Y-14261984D01*
X2963039Y-14261984D02*
X2943991Y-14252460D01*
X2943991Y-14252460D02*
X2934467Y-14242936D01*
X2934467Y-14242936D02*
X2924943Y-14223888D01*
X2924943Y-14223888D02*
X2915420Y-14185793D01*
X2915420Y-14185793D02*
X2915420Y-14138174D01*
X2915420Y-14138174D02*
X2924943Y-14100079D01*
X2924943Y-14100079D02*
X2934467Y-14081031D01*
X2934467Y-14081031D02*
X2943991Y-14071508D01*
X2943991Y-14071508D02*
X2963039Y-14061984D01*
X3115420Y-14261984D02*
X3115420Y-14128650D01*
X3115420Y-14147698D02*
X3124943Y-14138174D01*
X3124943Y-14138174D02*
X3143991Y-14128650D01*
X3143991Y-14128650D02*
X3172563Y-14128650D01*
X3172563Y-14128650D02*
X3191610Y-14138174D01*
X3191610Y-14138174D02*
X3201134Y-14157222D01*
X3201134Y-14157222D02*
X3201134Y-14261984D01*
X3201134Y-14157222D02*
X3210658Y-14138174D01*
X3210658Y-14138174D02*
X3229705Y-14128650D01*
X3229705Y-14128650D02*
X3258277Y-14128650D01*
X3258277Y-14128650D02*
X3277324Y-14138174D01*
X3277324Y-14138174D02*
X3286848Y-14157222D01*
X3286848Y-14157222D02*
X3286848Y-14261984D01*
X3382086Y-14261984D02*
X3382086Y-14128650D01*
X3382086Y-14147698D02*
X3391610Y-14138174D01*
X3391610Y-14138174D02*
X3410658Y-14128650D01*
X3410658Y-14128650D02*
X3439229Y-14128650D01*
X3439229Y-14128650D02*
X3458277Y-14138174D01*
X3458277Y-14138174D02*
X3467801Y-14157222D01*
X3467801Y-14157222D02*
X3467801Y-14261984D01*
X3467801Y-14157222D02*
X3477324Y-14138174D01*
X3477324Y-14138174D02*
X3496372Y-14128650D01*
X3496372Y-14128650D02*
X3524943Y-14128650D01*
X3524943Y-14128650D02*
X3543991Y-14138174D01*
X3543991Y-14138174D02*
X3553515Y-14157222D01*
X3553515Y-14157222D02*
X3553515Y-14261984D01*
X3943991Y-14052460D02*
X3772563Y-14309603D01*
X4201134Y-14061984D02*
X4220182Y-14061984D01*
X4220182Y-14061984D02*
X4239229Y-14071508D01*
X4239229Y-14071508D02*
X4248753Y-14081031D01*
X4248753Y-14081031D02*
X4258277Y-14100079D01*
X4258277Y-14100079D02*
X4267801Y-14138174D01*
X4267801Y-14138174D02*
X4267801Y-14185793D01*
X4267801Y-14185793D02*
X4258277Y-14223888D01*
X4258277Y-14223888D02*
X4248753Y-14242936D01*
X4248753Y-14242936D02*
X4239229Y-14252460D01*
X4239229Y-14252460D02*
X4220182Y-14261984D01*
X4220182Y-14261984D02*
X4201134Y-14261984D01*
X4201134Y-14261984D02*
X4182086Y-14252460D01*
X4182086Y-14252460D02*
X4172563Y-14242936D01*
X4172563Y-14242936D02*
X4163039Y-14223888D01*
X4163039Y-14223888D02*
X4153515Y-14185793D01*
X4153515Y-14185793D02*
X4153515Y-14138174D01*
X4153515Y-14138174D02*
X4163039Y-14100079D01*
X4163039Y-14100079D02*
X4172563Y-14081031D01*
X4172563Y-14081031D02*
X4182086Y-14071508D01*
X4182086Y-14071508D02*
X4201134Y-14061984D01*
X4353515Y-14242936D02*
X4363039Y-14252460D01*
X4363039Y-14252460D02*
X4353515Y-14261984D01*
X4353515Y-14261984D02*
X4343991Y-14252460D01*
X4343991Y-14252460D02*
X4353515Y-14242936D01*
X4353515Y-14242936D02*
X4353515Y-14261984D01*
X4486848Y-14061984D02*
X4505896Y-14061984D01*
X4505896Y-14061984D02*
X4524944Y-14071508D01*
X4524944Y-14071508D02*
X4534468Y-14081031D01*
X4534468Y-14081031D02*
X4543991Y-14100079D01*
X4543991Y-14100079D02*
X4553515Y-14138174D01*
X4553515Y-14138174D02*
X4553515Y-14185793D01*
X4553515Y-14185793D02*
X4543991Y-14223888D01*
X4543991Y-14223888D02*
X4534468Y-14242936D01*
X4534468Y-14242936D02*
X4524944Y-14252460D01*
X4524944Y-14252460D02*
X4505896Y-14261984D01*
X4505896Y-14261984D02*
X4486848Y-14261984D01*
X4486848Y-14261984D02*
X4467801Y-14252460D01*
X4467801Y-14252460D02*
X4458277Y-14242936D01*
X4458277Y-14242936D02*
X4448753Y-14223888D01*
X4448753Y-14223888D02*
X4439229Y-14185793D01*
X4439229Y-14185793D02*
X4439229Y-14138174D01*
X4439229Y-14138174D02*
X4448753Y-14100079D01*
X4448753Y-14100079D02*
X4458277Y-14081031D01*
X4458277Y-14081031D02*
X4467801Y-14071508D01*
X4467801Y-14071508D02*
X4486848Y-14061984D01*
X4620182Y-14061984D02*
X4743991Y-14061984D01*
X4743991Y-14061984D02*
X4677325Y-14138174D01*
X4677325Y-14138174D02*
X4705896Y-14138174D01*
X4705896Y-14138174D02*
X4724944Y-14147698D01*
X4724944Y-14147698D02*
X4734468Y-14157222D01*
X4734468Y-14157222D02*
X4743991Y-14176269D01*
X4743991Y-14176269D02*
X4743991Y-14223888D01*
X4743991Y-14223888D02*
X4734468Y-14242936D01*
X4734468Y-14242936D02*
X4724944Y-14252460D01*
X4724944Y-14252460D02*
X4705896Y-14261984D01*
X4705896Y-14261984D02*
X4648753Y-14261984D01*
X4648753Y-14261984D02*
X4629706Y-14252460D01*
X4629706Y-14252460D02*
X4620182Y-14242936D01*
X4839229Y-14261984D02*
X4877325Y-14261984D01*
X4877325Y-14261984D02*
X4896372Y-14252460D01*
X4896372Y-14252460D02*
X4905896Y-14242936D01*
X4905896Y-14242936D02*
X4924944Y-14214365D01*
X4924944Y-14214365D02*
X4934468Y-14176269D01*
X4934468Y-14176269D02*
X4934468Y-14100079D01*
X4934468Y-14100079D02*
X4924944Y-14081031D01*
X4924944Y-14081031D02*
X4915420Y-14071508D01*
X4915420Y-14071508D02*
X4896372Y-14061984D01*
X4896372Y-14061984D02*
X4858277Y-14061984D01*
X4858277Y-14061984D02*
X4839229Y-14071508D01*
X4839229Y-14071508D02*
X4829706Y-14081031D01*
X4829706Y-14081031D02*
X4820182Y-14100079D01*
X4820182Y-14100079D02*
X4820182Y-14147698D01*
X4820182Y-14147698D02*
X4829706Y-14166746D01*
X4829706Y-14166746D02*
X4839229Y-14176269D01*
X4839229Y-14176269D02*
X4858277Y-14185793D01*
X4858277Y-14185793D02*
X4896372Y-14185793D01*
X4896372Y-14185793D02*
X4915420Y-14176269D01*
X4915420Y-14176269D02*
X4924944Y-14166746D01*
X4924944Y-14166746D02*
X4934468Y-14147698D01*
X5105896Y-14128650D02*
X5105896Y-14261984D01*
X5058277Y-14052460D02*
X5010658Y-14195317D01*
X5010658Y-14195317D02*
X5134468Y-14195317D01*
X5201134Y-14061984D02*
X5201134Y-14100079D01*
X5277325Y-14061984D02*
X5277325Y-14100079D01*
X5572563Y-14338174D02*
X5563039Y-14328650D01*
X5563039Y-14328650D02*
X5543991Y-14300079D01*
X5543991Y-14300079D02*
X5534468Y-14281031D01*
X5534468Y-14281031D02*
X5524944Y-14252460D01*
X5524944Y-14252460D02*
X5515420Y-14204841D01*
X5515420Y-14204841D02*
X5515420Y-14166746D01*
X5515420Y-14166746D02*
X5524944Y-14119127D01*
X5524944Y-14119127D02*
X5534468Y-14090555D01*
X5534468Y-14090555D02*
X5543991Y-14071508D01*
X5543991Y-14071508D02*
X5563039Y-14042936D01*
X5563039Y-14042936D02*
X5572563Y-14033412D01*
X5639229Y-14081031D02*
X5648753Y-14071508D01*
X5648753Y-14071508D02*
X5667801Y-14061984D01*
X5667801Y-14061984D02*
X5715420Y-14061984D01*
X5715420Y-14061984D02*
X5734468Y-14071508D01*
X5734468Y-14071508D02*
X5743991Y-14081031D01*
X5743991Y-14081031D02*
X5753515Y-14100079D01*
X5753515Y-14100079D02*
X5753515Y-14119127D01*
X5753515Y-14119127D02*
X5743991Y-14147698D01*
X5743991Y-14147698D02*
X5629706Y-14261984D01*
X5629706Y-14261984D02*
X5753515Y-14261984D01*
X5991610Y-14261984D02*
X5991610Y-14061984D01*
X6077325Y-14261984D02*
X6077325Y-14157222D01*
X6077325Y-14157222D02*
X6067801Y-14138174D01*
X6067801Y-14138174D02*
X6048753Y-14128650D01*
X6048753Y-14128650D02*
X6020182Y-14128650D01*
X6020182Y-14128650D02*
X6001134Y-14138174D01*
X6001134Y-14138174D02*
X5991610Y-14147698D01*
X6201134Y-14261984D02*
X6182087Y-14252460D01*
X6182087Y-14252460D02*
X6172563Y-14242936D01*
X6172563Y-14242936D02*
X6163039Y-14223888D01*
X6163039Y-14223888D02*
X6163039Y-14166746D01*
X6163039Y-14166746D02*
X6172563Y-14147698D01*
X6172563Y-14147698D02*
X6182087Y-14138174D01*
X6182087Y-14138174D02*
X6201134Y-14128650D01*
X6201134Y-14128650D02*
X6229706Y-14128650D01*
X6229706Y-14128650D02*
X6248753Y-14138174D01*
X6248753Y-14138174D02*
X6258277Y-14147698D01*
X6258277Y-14147698D02*
X6267801Y-14166746D01*
X6267801Y-14166746D02*
X6267801Y-14223888D01*
X6267801Y-14223888D02*
X6258277Y-14242936D01*
X6258277Y-14242936D02*
X6248753Y-14252460D01*
X6248753Y-14252460D02*
X6229706Y-14261984D01*
X6229706Y-14261984D02*
X6201134Y-14261984D01*
X6382087Y-14261984D02*
X6363039Y-14252460D01*
X6363039Y-14252460D02*
X6353515Y-14233412D01*
X6353515Y-14233412D02*
X6353515Y-14061984D01*
X6534468Y-14252460D02*
X6515420Y-14261984D01*
X6515420Y-14261984D02*
X6477325Y-14261984D01*
X6477325Y-14261984D02*
X6458277Y-14252460D01*
X6458277Y-14252460D02*
X6448753Y-14233412D01*
X6448753Y-14233412D02*
X6448753Y-14157222D01*
X6448753Y-14157222D02*
X6458277Y-14138174D01*
X6458277Y-14138174D02*
X6477325Y-14128650D01*
X6477325Y-14128650D02*
X6515420Y-14128650D01*
X6515420Y-14128650D02*
X6534468Y-14138174D01*
X6534468Y-14138174D02*
X6543991Y-14157222D01*
X6543991Y-14157222D02*
X6543991Y-14176269D01*
X6543991Y-14176269D02*
X6448753Y-14195317D01*
X6620182Y-14252460D02*
X6639230Y-14261984D01*
X6639230Y-14261984D02*
X6677325Y-14261984D01*
X6677325Y-14261984D02*
X6696372Y-14252460D01*
X6696372Y-14252460D02*
X6705896Y-14233412D01*
X6705896Y-14233412D02*
X6705896Y-14223888D01*
X6705896Y-14223888D02*
X6696372Y-14204841D01*
X6696372Y-14204841D02*
X6677325Y-14195317D01*
X6677325Y-14195317D02*
X6648753Y-14195317D01*
X6648753Y-14195317D02*
X6629706Y-14185793D01*
X6629706Y-14185793D02*
X6620182Y-14166746D01*
X6620182Y-14166746D02*
X6620182Y-14157222D01*
X6620182Y-14157222D02*
X6629706Y-14138174D01*
X6629706Y-14138174D02*
X6648753Y-14128650D01*
X6648753Y-14128650D02*
X6677325Y-14128650D01*
X6677325Y-14128650D02*
X6696372Y-14138174D01*
X6772563Y-14338174D02*
X6782087Y-14328650D01*
X6782087Y-14328650D02*
X6801134Y-14300079D01*
X6801134Y-14300079D02*
X6810658Y-14281031D01*
X6810658Y-14281031D02*
X6820182Y-14252460D01*
X6820182Y-14252460D02*
X6829706Y-14204841D01*
X6829706Y-14204841D02*
X6829706Y-14166746D01*
X6829706Y-14166746D02*
X6820182Y-14119127D01*
X6820182Y-14119127D02*
X6810658Y-14090555D01*
X6810658Y-14090555D02*
X6801134Y-14071508D01*
X6801134Y-14071508D02*
X6782087Y-14042936D01*
X6782087Y-14042936D02*
X6772563Y-14033412D01*
D12*
X1982856Y-14469856D02*
X1982856Y-14399144D01*
X1912144Y-14399144D01*
X1912144Y-14469856D01*
X1982856Y-14469856D01*
D11*
X2363039Y-14525984D02*
X2248753Y-14525984D01*
X2305896Y-14525984D02*
X2305896Y-14325984D01*
X2305896Y-14325984D02*
X2286848Y-14354555D01*
X2286848Y-14354555D02*
X2267801Y-14373603D01*
X2267801Y-14373603D02*
X2248753Y-14383127D01*
X2448753Y-14506936D02*
X2458277Y-14516460D01*
X2458277Y-14516460D02*
X2448753Y-14525984D01*
X2448753Y-14525984D02*
X2439229Y-14516460D01*
X2439229Y-14516460D02*
X2448753Y-14506936D01*
X2448753Y-14506936D02*
X2448753Y-14525984D01*
X2582086Y-14325984D02*
X2601134Y-14325984D01*
X2601134Y-14325984D02*
X2620182Y-14335508D01*
X2620182Y-14335508D02*
X2629705Y-14345031D01*
X2629705Y-14345031D02*
X2639229Y-14364079D01*
X2639229Y-14364079D02*
X2648753Y-14402174D01*
X2648753Y-14402174D02*
X2648753Y-14449793D01*
X2648753Y-14449793D02*
X2639229Y-14487888D01*
X2639229Y-14487888D02*
X2629705Y-14506936D01*
X2629705Y-14506936D02*
X2620182Y-14516460D01*
X2620182Y-14516460D02*
X2601134Y-14525984D01*
X2601134Y-14525984D02*
X2582086Y-14525984D01*
X2582086Y-14525984D02*
X2563039Y-14516460D01*
X2563039Y-14516460D02*
X2553515Y-14506936D01*
X2553515Y-14506936D02*
X2543991Y-14487888D01*
X2543991Y-14487888D02*
X2534467Y-14449793D01*
X2534467Y-14449793D02*
X2534467Y-14402174D01*
X2534467Y-14402174D02*
X2543991Y-14364079D01*
X2543991Y-14364079D02*
X2553515Y-14345031D01*
X2553515Y-14345031D02*
X2563039Y-14335508D01*
X2563039Y-14335508D02*
X2582086Y-14325984D01*
X2772563Y-14325984D02*
X2791610Y-14325984D01*
X2791610Y-14325984D02*
X2810658Y-14335508D01*
X2810658Y-14335508D02*
X2820182Y-14345031D01*
X2820182Y-14345031D02*
X2829705Y-14364079D01*
X2829705Y-14364079D02*
X2839229Y-14402174D01*
X2839229Y-14402174D02*
X2839229Y-14449793D01*
X2839229Y-14449793D02*
X2829705Y-14487888D01*
X2829705Y-14487888D02*
X2820182Y-14506936D01*
X2820182Y-14506936D02*
X2810658Y-14516460D01*
X2810658Y-14516460D02*
X2791610Y-14525984D01*
X2791610Y-14525984D02*
X2772563Y-14525984D01*
X2772563Y-14525984D02*
X2753515Y-14516460D01*
X2753515Y-14516460D02*
X2743991Y-14506936D01*
X2743991Y-14506936D02*
X2734467Y-14487888D01*
X2734467Y-14487888D02*
X2724944Y-14449793D01*
X2724944Y-14449793D02*
X2724944Y-14402174D01*
X2724944Y-14402174D02*
X2734467Y-14364079D01*
X2734467Y-14364079D02*
X2743991Y-14345031D01*
X2743991Y-14345031D02*
X2753515Y-14335508D01*
X2753515Y-14335508D02*
X2772563Y-14325984D01*
X2963039Y-14325984D02*
X2982086Y-14325984D01*
X2982086Y-14325984D02*
X3001134Y-14335508D01*
X3001134Y-14335508D02*
X3010658Y-14345031D01*
X3010658Y-14345031D02*
X3020182Y-14364079D01*
X3020182Y-14364079D02*
X3029705Y-14402174D01*
X3029705Y-14402174D02*
X3029705Y-14449793D01*
X3029705Y-14449793D02*
X3020182Y-14487888D01*
X3020182Y-14487888D02*
X3010658Y-14506936D01*
X3010658Y-14506936D02*
X3001134Y-14516460D01*
X3001134Y-14516460D02*
X2982086Y-14525984D01*
X2982086Y-14525984D02*
X2963039Y-14525984D01*
X2963039Y-14525984D02*
X2943991Y-14516460D01*
X2943991Y-14516460D02*
X2934467Y-14506936D01*
X2934467Y-14506936D02*
X2924943Y-14487888D01*
X2924943Y-14487888D02*
X2915420Y-14449793D01*
X2915420Y-14449793D02*
X2915420Y-14402174D01*
X2915420Y-14402174D02*
X2924943Y-14364079D01*
X2924943Y-14364079D02*
X2934467Y-14345031D01*
X2934467Y-14345031D02*
X2943991Y-14335508D01*
X2943991Y-14335508D02*
X2963039Y-14325984D01*
X3115420Y-14525984D02*
X3115420Y-14392650D01*
X3115420Y-14411698D02*
X3124943Y-14402174D01*
X3124943Y-14402174D02*
X3143991Y-14392650D01*
X3143991Y-14392650D02*
X3172563Y-14392650D01*
X3172563Y-14392650D02*
X3191610Y-14402174D01*
X3191610Y-14402174D02*
X3201134Y-14421222D01*
X3201134Y-14421222D02*
X3201134Y-14525984D01*
X3201134Y-14421222D02*
X3210658Y-14402174D01*
X3210658Y-14402174D02*
X3229705Y-14392650D01*
X3229705Y-14392650D02*
X3258277Y-14392650D01*
X3258277Y-14392650D02*
X3277324Y-14402174D01*
X3277324Y-14402174D02*
X3286848Y-14421222D01*
X3286848Y-14421222D02*
X3286848Y-14525984D01*
X3382086Y-14525984D02*
X3382086Y-14392650D01*
X3382086Y-14411698D02*
X3391610Y-14402174D01*
X3391610Y-14402174D02*
X3410658Y-14392650D01*
X3410658Y-14392650D02*
X3439229Y-14392650D01*
X3439229Y-14392650D02*
X3458277Y-14402174D01*
X3458277Y-14402174D02*
X3467801Y-14421222D01*
X3467801Y-14421222D02*
X3467801Y-14525984D01*
X3467801Y-14421222D02*
X3477324Y-14402174D01*
X3477324Y-14402174D02*
X3496372Y-14392650D01*
X3496372Y-14392650D02*
X3524943Y-14392650D01*
X3524943Y-14392650D02*
X3543991Y-14402174D01*
X3543991Y-14402174D02*
X3553515Y-14421222D01*
X3553515Y-14421222D02*
X3553515Y-14525984D01*
X3943991Y-14316460D02*
X3772563Y-14573603D01*
X4201134Y-14325984D02*
X4220182Y-14325984D01*
X4220182Y-14325984D02*
X4239229Y-14335508D01*
X4239229Y-14335508D02*
X4248753Y-14345031D01*
X4248753Y-14345031D02*
X4258277Y-14364079D01*
X4258277Y-14364079D02*
X4267801Y-14402174D01*
X4267801Y-14402174D02*
X4267801Y-14449793D01*
X4267801Y-14449793D02*
X4258277Y-14487888D01*
X4258277Y-14487888D02*
X4248753Y-14506936D01*
X4248753Y-14506936D02*
X4239229Y-14516460D01*
X4239229Y-14516460D02*
X4220182Y-14525984D01*
X4220182Y-14525984D02*
X4201134Y-14525984D01*
X4201134Y-14525984D02*
X4182086Y-14516460D01*
X4182086Y-14516460D02*
X4172563Y-14506936D01*
X4172563Y-14506936D02*
X4163039Y-14487888D01*
X4163039Y-14487888D02*
X4153515Y-14449793D01*
X4153515Y-14449793D02*
X4153515Y-14402174D01*
X4153515Y-14402174D02*
X4163039Y-14364079D01*
X4163039Y-14364079D02*
X4172563Y-14345031D01*
X4172563Y-14345031D02*
X4182086Y-14335508D01*
X4182086Y-14335508D02*
X4201134Y-14325984D01*
X4353515Y-14506936D02*
X4363039Y-14516460D01*
X4363039Y-14516460D02*
X4353515Y-14525984D01*
X4353515Y-14525984D02*
X4343991Y-14516460D01*
X4343991Y-14516460D02*
X4353515Y-14506936D01*
X4353515Y-14506936D02*
X4353515Y-14525984D01*
X4486848Y-14325984D02*
X4505896Y-14325984D01*
X4505896Y-14325984D02*
X4524944Y-14335508D01*
X4524944Y-14335508D02*
X4534468Y-14345031D01*
X4534468Y-14345031D02*
X4543991Y-14364079D01*
X4543991Y-14364079D02*
X4553515Y-14402174D01*
X4553515Y-14402174D02*
X4553515Y-14449793D01*
X4553515Y-14449793D02*
X4543991Y-14487888D01*
X4543991Y-14487888D02*
X4534468Y-14506936D01*
X4534468Y-14506936D02*
X4524944Y-14516460D01*
X4524944Y-14516460D02*
X4505896Y-14525984D01*
X4505896Y-14525984D02*
X4486848Y-14525984D01*
X4486848Y-14525984D02*
X4467801Y-14516460D01*
X4467801Y-14516460D02*
X4458277Y-14506936D01*
X4458277Y-14506936D02*
X4448753Y-14487888D01*
X4448753Y-14487888D02*
X4439229Y-14449793D01*
X4439229Y-14449793D02*
X4439229Y-14402174D01*
X4439229Y-14402174D02*
X4448753Y-14364079D01*
X4448753Y-14364079D02*
X4458277Y-14345031D01*
X4458277Y-14345031D02*
X4467801Y-14335508D01*
X4467801Y-14335508D02*
X4486848Y-14325984D01*
X4620182Y-14325984D02*
X4743991Y-14325984D01*
X4743991Y-14325984D02*
X4677325Y-14402174D01*
X4677325Y-14402174D02*
X4705896Y-14402174D01*
X4705896Y-14402174D02*
X4724944Y-14411698D01*
X4724944Y-14411698D02*
X4734468Y-14421222D01*
X4734468Y-14421222D02*
X4743991Y-14440269D01*
X4743991Y-14440269D02*
X4743991Y-14487888D01*
X4743991Y-14487888D02*
X4734468Y-14506936D01*
X4734468Y-14506936D02*
X4724944Y-14516460D01*
X4724944Y-14516460D02*
X4705896Y-14525984D01*
X4705896Y-14525984D02*
X4648753Y-14525984D01*
X4648753Y-14525984D02*
X4629706Y-14516460D01*
X4629706Y-14516460D02*
X4620182Y-14506936D01*
X4839229Y-14525984D02*
X4877325Y-14525984D01*
X4877325Y-14525984D02*
X4896372Y-14516460D01*
X4896372Y-14516460D02*
X4905896Y-14506936D01*
X4905896Y-14506936D02*
X4924944Y-14478365D01*
X4924944Y-14478365D02*
X4934468Y-14440269D01*
X4934468Y-14440269D02*
X4934468Y-14364079D01*
X4934468Y-14364079D02*
X4924944Y-14345031D01*
X4924944Y-14345031D02*
X4915420Y-14335508D01*
X4915420Y-14335508D02*
X4896372Y-14325984D01*
X4896372Y-14325984D02*
X4858277Y-14325984D01*
X4858277Y-14325984D02*
X4839229Y-14335508D01*
X4839229Y-14335508D02*
X4829706Y-14345031D01*
X4829706Y-14345031D02*
X4820182Y-14364079D01*
X4820182Y-14364079D02*
X4820182Y-14411698D01*
X4820182Y-14411698D02*
X4829706Y-14430746D01*
X4829706Y-14430746D02*
X4839229Y-14440269D01*
X4839229Y-14440269D02*
X4858277Y-14449793D01*
X4858277Y-14449793D02*
X4896372Y-14449793D01*
X4896372Y-14449793D02*
X4915420Y-14440269D01*
X4915420Y-14440269D02*
X4924944Y-14430746D01*
X4924944Y-14430746D02*
X4934468Y-14411698D01*
X5105896Y-14392650D02*
X5105896Y-14525984D01*
X5058277Y-14316460D02*
X5010658Y-14459317D01*
X5010658Y-14459317D02*
X5134468Y-14459317D01*
X5201134Y-14325984D02*
X5201134Y-14364079D01*
X5277325Y-14325984D02*
X5277325Y-14364079D01*
X5572563Y-14602174D02*
X5563039Y-14592650D01*
X5563039Y-14592650D02*
X5543991Y-14564079D01*
X5543991Y-14564079D02*
X5534468Y-14545031D01*
X5534468Y-14545031D02*
X5524944Y-14516460D01*
X5524944Y-14516460D02*
X5515420Y-14468841D01*
X5515420Y-14468841D02*
X5515420Y-14430746D01*
X5515420Y-14430746D02*
X5524944Y-14383127D01*
X5524944Y-14383127D02*
X5534468Y-14354555D01*
X5534468Y-14354555D02*
X5543991Y-14335508D01*
X5543991Y-14335508D02*
X5563039Y-14306936D01*
X5563039Y-14306936D02*
X5572563Y-14297412D01*
X5753515Y-14525984D02*
X5639229Y-14525984D01*
X5696372Y-14525984D02*
X5696372Y-14325984D01*
X5696372Y-14325984D02*
X5677325Y-14354555D01*
X5677325Y-14354555D02*
X5658277Y-14373603D01*
X5658277Y-14373603D02*
X5639229Y-14383127D01*
X5820182Y-14325984D02*
X5953515Y-14325984D01*
X5953515Y-14325984D02*
X5867801Y-14525984D01*
X6134468Y-14525984D02*
X6020182Y-14525984D01*
X6077325Y-14525984D02*
X6077325Y-14325984D01*
X6077325Y-14325984D02*
X6058277Y-14354555D01*
X6058277Y-14354555D02*
X6039229Y-14373603D01*
X6039229Y-14373603D02*
X6020182Y-14383127D01*
X6372563Y-14525984D02*
X6372563Y-14325984D01*
X6458277Y-14525984D02*
X6458277Y-14421222D01*
X6458277Y-14421222D02*
X6448753Y-14402174D01*
X6448753Y-14402174D02*
X6429706Y-14392650D01*
X6429706Y-14392650D02*
X6401134Y-14392650D01*
X6401134Y-14392650D02*
X6382087Y-14402174D01*
X6382087Y-14402174D02*
X6372563Y-14411698D01*
X6582087Y-14525984D02*
X6563039Y-14516460D01*
X6563039Y-14516460D02*
X6553515Y-14506936D01*
X6553515Y-14506936D02*
X6543991Y-14487888D01*
X6543991Y-14487888D02*
X6543991Y-14430746D01*
X6543991Y-14430746D02*
X6553515Y-14411698D01*
X6553515Y-14411698D02*
X6563039Y-14402174D01*
X6563039Y-14402174D02*
X6582087Y-14392650D01*
X6582087Y-14392650D02*
X6610658Y-14392650D01*
X6610658Y-14392650D02*
X6629706Y-14402174D01*
X6629706Y-14402174D02*
X6639230Y-14411698D01*
X6639230Y-14411698D02*
X6648753Y-14430746D01*
X6648753Y-14430746D02*
X6648753Y-14487888D01*
X6648753Y-14487888D02*
X6639230Y-14506936D01*
X6639230Y-14506936D02*
X6629706Y-14516460D01*
X6629706Y-14516460D02*
X6610658Y-14525984D01*
X6610658Y-14525984D02*
X6582087Y-14525984D01*
X6763039Y-14525984D02*
X6743991Y-14516460D01*
X6743991Y-14516460D02*
X6734468Y-14497412D01*
X6734468Y-14497412D02*
X6734468Y-14325984D01*
X6915420Y-14516460D02*
X6896372Y-14525984D01*
X6896372Y-14525984D02*
X6858277Y-14525984D01*
X6858277Y-14525984D02*
X6839230Y-14516460D01*
X6839230Y-14516460D02*
X6829706Y-14497412D01*
X6829706Y-14497412D02*
X6829706Y-14421222D01*
X6829706Y-14421222D02*
X6839230Y-14402174D01*
X6839230Y-14402174D02*
X6858277Y-14392650D01*
X6858277Y-14392650D02*
X6896372Y-14392650D01*
X6896372Y-14392650D02*
X6915420Y-14402174D01*
X6915420Y-14402174D02*
X6924944Y-14421222D01*
X6924944Y-14421222D02*
X6924944Y-14440269D01*
X6924944Y-14440269D02*
X6829706Y-14459317D01*
X7001134Y-14516460D02*
X7020182Y-14525984D01*
X7020182Y-14525984D02*
X7058277Y-14525984D01*
X7058277Y-14525984D02*
X7077325Y-14516460D01*
X7077325Y-14516460D02*
X7086849Y-14497412D01*
X7086849Y-14497412D02*
X7086849Y-14487888D01*
X7086849Y-14487888D02*
X7077325Y-14468841D01*
X7077325Y-14468841D02*
X7058277Y-14459317D01*
X7058277Y-14459317D02*
X7029706Y-14459317D01*
X7029706Y-14459317D02*
X7010658Y-14449793D01*
X7010658Y-14449793D02*
X7001134Y-14430746D01*
X7001134Y-14430746D02*
X7001134Y-14421222D01*
X7001134Y-14421222D02*
X7010658Y-14402174D01*
X7010658Y-14402174D02*
X7029706Y-14392650D01*
X7029706Y-14392650D02*
X7058277Y-14392650D01*
X7058277Y-14392650D02*
X7077325Y-14402174D01*
X7153515Y-14602174D02*
X7163039Y-14592650D01*
X7163039Y-14592650D02*
X7182087Y-14564079D01*
X7182087Y-14564079D02*
X7191611Y-14545031D01*
X7191611Y-14545031D02*
X7201134Y-14516460D01*
X7201134Y-14516460D02*
X7210658Y-14468841D01*
X7210658Y-14468841D02*
X7210658Y-14430746D01*
X7210658Y-14430746D02*
X7201134Y-14383127D01*
X7201134Y-14383127D02*
X7191611Y-14354555D01*
X7191611Y-14354555D02*
X7182087Y-14335508D01*
X7182087Y-14335508D02*
X7163039Y-14306936D01*
X7163039Y-14306936D02*
X7153515Y-14297412D01*
D13*
X1944160Y-14751840D02*
X1997500Y-14698500D01*
X1944160Y-14645160D01*
X1890820Y-14698500D01*
X1944160Y-14751840D01*
D11*
X2363039Y-14789984D02*
X2248753Y-14789984D01*
X2305896Y-14789984D02*
X2305896Y-14589984D01*
X2305896Y-14589984D02*
X2286848Y-14618555D01*
X2286848Y-14618555D02*
X2267801Y-14637603D01*
X2267801Y-14637603D02*
X2248753Y-14647127D01*
X2448753Y-14770936D02*
X2458277Y-14780460D01*
X2458277Y-14780460D02*
X2448753Y-14789984D01*
X2448753Y-14789984D02*
X2439229Y-14780460D01*
X2439229Y-14780460D02*
X2448753Y-14770936D01*
X2448753Y-14770936D02*
X2448753Y-14789984D01*
X2582086Y-14589984D02*
X2601134Y-14589984D01*
X2601134Y-14589984D02*
X2620182Y-14599508D01*
X2620182Y-14599508D02*
X2629705Y-14609031D01*
X2629705Y-14609031D02*
X2639229Y-14628079D01*
X2639229Y-14628079D02*
X2648753Y-14666174D01*
X2648753Y-14666174D02*
X2648753Y-14713793D01*
X2648753Y-14713793D02*
X2639229Y-14751888D01*
X2639229Y-14751888D02*
X2629705Y-14770936D01*
X2629705Y-14770936D02*
X2620182Y-14780460D01*
X2620182Y-14780460D02*
X2601134Y-14789984D01*
X2601134Y-14789984D02*
X2582086Y-14789984D01*
X2582086Y-14789984D02*
X2563039Y-14780460D01*
X2563039Y-14780460D02*
X2553515Y-14770936D01*
X2553515Y-14770936D02*
X2543991Y-14751888D01*
X2543991Y-14751888D02*
X2534467Y-14713793D01*
X2534467Y-14713793D02*
X2534467Y-14666174D01*
X2534467Y-14666174D02*
X2543991Y-14628079D01*
X2543991Y-14628079D02*
X2553515Y-14609031D01*
X2553515Y-14609031D02*
X2563039Y-14599508D01*
X2563039Y-14599508D02*
X2582086Y-14589984D01*
X2820182Y-14589984D02*
X2782086Y-14589984D01*
X2782086Y-14589984D02*
X2763039Y-14599508D01*
X2763039Y-14599508D02*
X2753515Y-14609031D01*
X2753515Y-14609031D02*
X2734467Y-14637603D01*
X2734467Y-14637603D02*
X2724944Y-14675698D01*
X2724944Y-14675698D02*
X2724944Y-14751888D01*
X2724944Y-14751888D02*
X2734467Y-14770936D01*
X2734467Y-14770936D02*
X2743991Y-14780460D01*
X2743991Y-14780460D02*
X2763039Y-14789984D01*
X2763039Y-14789984D02*
X2801134Y-14789984D01*
X2801134Y-14789984D02*
X2820182Y-14780460D01*
X2820182Y-14780460D02*
X2829705Y-14770936D01*
X2829705Y-14770936D02*
X2839229Y-14751888D01*
X2839229Y-14751888D02*
X2839229Y-14704269D01*
X2839229Y-14704269D02*
X2829705Y-14685222D01*
X2829705Y-14685222D02*
X2820182Y-14675698D01*
X2820182Y-14675698D02*
X2801134Y-14666174D01*
X2801134Y-14666174D02*
X2763039Y-14666174D01*
X2763039Y-14666174D02*
X2743991Y-14675698D01*
X2743991Y-14675698D02*
X2734467Y-14685222D01*
X2734467Y-14685222D02*
X2724944Y-14704269D01*
X2905896Y-14589984D02*
X3039229Y-14589984D01*
X3039229Y-14589984D02*
X2953515Y-14789984D01*
X3115420Y-14789984D02*
X3115420Y-14656650D01*
X3115420Y-14675698D02*
X3124943Y-14666174D01*
X3124943Y-14666174D02*
X3143991Y-14656650D01*
X3143991Y-14656650D02*
X3172563Y-14656650D01*
X3172563Y-14656650D02*
X3191610Y-14666174D01*
X3191610Y-14666174D02*
X3201134Y-14685222D01*
X3201134Y-14685222D02*
X3201134Y-14789984D01*
X3201134Y-14685222D02*
X3210658Y-14666174D01*
X3210658Y-14666174D02*
X3229705Y-14656650D01*
X3229705Y-14656650D02*
X3258277Y-14656650D01*
X3258277Y-14656650D02*
X3277324Y-14666174D01*
X3277324Y-14666174D02*
X3286848Y-14685222D01*
X3286848Y-14685222D02*
X3286848Y-14789984D01*
X3382086Y-14789984D02*
X3382086Y-14656650D01*
X3382086Y-14675698D02*
X3391610Y-14666174D01*
X3391610Y-14666174D02*
X3410658Y-14656650D01*
X3410658Y-14656650D02*
X3439229Y-14656650D01*
X3439229Y-14656650D02*
X3458277Y-14666174D01*
X3458277Y-14666174D02*
X3467801Y-14685222D01*
X3467801Y-14685222D02*
X3467801Y-14789984D01*
X3467801Y-14685222D02*
X3477324Y-14666174D01*
X3477324Y-14666174D02*
X3496372Y-14656650D01*
X3496372Y-14656650D02*
X3524943Y-14656650D01*
X3524943Y-14656650D02*
X3543991Y-14666174D01*
X3543991Y-14666174D02*
X3553515Y-14685222D01*
X3553515Y-14685222D02*
X3553515Y-14789984D01*
X3943991Y-14580460D02*
X3772563Y-14837603D01*
X4201134Y-14589984D02*
X4220182Y-14589984D01*
X4220182Y-14589984D02*
X4239229Y-14599508D01*
X4239229Y-14599508D02*
X4248753Y-14609031D01*
X4248753Y-14609031D02*
X4258277Y-14628079D01*
X4258277Y-14628079D02*
X4267801Y-14666174D01*
X4267801Y-14666174D02*
X4267801Y-14713793D01*
X4267801Y-14713793D02*
X4258277Y-14751888D01*
X4258277Y-14751888D02*
X4248753Y-14770936D01*
X4248753Y-14770936D02*
X4239229Y-14780460D01*
X4239229Y-14780460D02*
X4220182Y-14789984D01*
X4220182Y-14789984D02*
X4201134Y-14789984D01*
X4201134Y-14789984D02*
X4182086Y-14780460D01*
X4182086Y-14780460D02*
X4172563Y-14770936D01*
X4172563Y-14770936D02*
X4163039Y-14751888D01*
X4163039Y-14751888D02*
X4153515Y-14713793D01*
X4153515Y-14713793D02*
X4153515Y-14666174D01*
X4153515Y-14666174D02*
X4163039Y-14628079D01*
X4163039Y-14628079D02*
X4172563Y-14609031D01*
X4172563Y-14609031D02*
X4182086Y-14599508D01*
X4182086Y-14599508D02*
X4201134Y-14589984D01*
X4353515Y-14770936D02*
X4363039Y-14780460D01*
X4363039Y-14780460D02*
X4353515Y-14789984D01*
X4353515Y-14789984D02*
X4343991Y-14780460D01*
X4343991Y-14780460D02*
X4353515Y-14770936D01*
X4353515Y-14770936D02*
X4353515Y-14789984D01*
X4486848Y-14589984D02*
X4505896Y-14589984D01*
X4505896Y-14589984D02*
X4524944Y-14599508D01*
X4524944Y-14599508D02*
X4534468Y-14609031D01*
X4534468Y-14609031D02*
X4543991Y-14628079D01*
X4543991Y-14628079D02*
X4553515Y-14666174D01*
X4553515Y-14666174D02*
X4553515Y-14713793D01*
X4553515Y-14713793D02*
X4543991Y-14751888D01*
X4543991Y-14751888D02*
X4534468Y-14770936D01*
X4534468Y-14770936D02*
X4524944Y-14780460D01*
X4524944Y-14780460D02*
X4505896Y-14789984D01*
X4505896Y-14789984D02*
X4486848Y-14789984D01*
X4486848Y-14789984D02*
X4467801Y-14780460D01*
X4467801Y-14780460D02*
X4458277Y-14770936D01*
X4458277Y-14770936D02*
X4448753Y-14751888D01*
X4448753Y-14751888D02*
X4439229Y-14713793D01*
X4439229Y-14713793D02*
X4439229Y-14666174D01*
X4439229Y-14666174D02*
X4448753Y-14628079D01*
X4448753Y-14628079D02*
X4458277Y-14609031D01*
X4458277Y-14609031D02*
X4467801Y-14599508D01*
X4467801Y-14599508D02*
X4486848Y-14589984D01*
X4724944Y-14656650D02*
X4724944Y-14789984D01*
X4677325Y-14580460D02*
X4629706Y-14723317D01*
X4629706Y-14723317D02*
X4753515Y-14723317D01*
X4820182Y-14609031D02*
X4829706Y-14599508D01*
X4829706Y-14599508D02*
X4848753Y-14589984D01*
X4848753Y-14589984D02*
X4896372Y-14589984D01*
X4896372Y-14589984D02*
X4915420Y-14599508D01*
X4915420Y-14599508D02*
X4924944Y-14609031D01*
X4924944Y-14609031D02*
X4934468Y-14628079D01*
X4934468Y-14628079D02*
X4934468Y-14647127D01*
X4934468Y-14647127D02*
X4924944Y-14675698D01*
X4924944Y-14675698D02*
X4810658Y-14789984D01*
X4810658Y-14789984D02*
X4934468Y-14789984D01*
X5058277Y-14589984D02*
X5077325Y-14589984D01*
X5077325Y-14589984D02*
X5096372Y-14599508D01*
X5096372Y-14599508D02*
X5105896Y-14609031D01*
X5105896Y-14609031D02*
X5115420Y-14628079D01*
X5115420Y-14628079D02*
X5124944Y-14666174D01*
X5124944Y-14666174D02*
X5124944Y-14713793D01*
X5124944Y-14713793D02*
X5115420Y-14751888D01*
X5115420Y-14751888D02*
X5105896Y-14770936D01*
X5105896Y-14770936D02*
X5096372Y-14780460D01*
X5096372Y-14780460D02*
X5077325Y-14789984D01*
X5077325Y-14789984D02*
X5058277Y-14789984D01*
X5058277Y-14789984D02*
X5039229Y-14780460D01*
X5039229Y-14780460D02*
X5029706Y-14770936D01*
X5029706Y-14770936D02*
X5020182Y-14751888D01*
X5020182Y-14751888D02*
X5010658Y-14713793D01*
X5010658Y-14713793D02*
X5010658Y-14666174D01*
X5010658Y-14666174D02*
X5020182Y-14628079D01*
X5020182Y-14628079D02*
X5029706Y-14609031D01*
X5029706Y-14609031D02*
X5039229Y-14599508D01*
X5039229Y-14599508D02*
X5058277Y-14589984D01*
X5201134Y-14589984D02*
X5201134Y-14628079D01*
X5277325Y-14589984D02*
X5277325Y-14628079D01*
X5572563Y-14866174D02*
X5563039Y-14856650D01*
X5563039Y-14856650D02*
X5543991Y-14828079D01*
X5543991Y-14828079D02*
X5534468Y-14809031D01*
X5534468Y-14809031D02*
X5524944Y-14780460D01*
X5524944Y-14780460D02*
X5515420Y-14732841D01*
X5515420Y-14732841D02*
X5515420Y-14694746D01*
X5515420Y-14694746D02*
X5524944Y-14647127D01*
X5524944Y-14647127D02*
X5534468Y-14618555D01*
X5534468Y-14618555D02*
X5543991Y-14599508D01*
X5543991Y-14599508D02*
X5563039Y-14570936D01*
X5563039Y-14570936D02*
X5572563Y-14561412D01*
X5639229Y-14609031D02*
X5648753Y-14599508D01*
X5648753Y-14599508D02*
X5667801Y-14589984D01*
X5667801Y-14589984D02*
X5715420Y-14589984D01*
X5715420Y-14589984D02*
X5734468Y-14599508D01*
X5734468Y-14599508D02*
X5743991Y-14609031D01*
X5743991Y-14609031D02*
X5753515Y-14628079D01*
X5753515Y-14628079D02*
X5753515Y-14647127D01*
X5753515Y-14647127D02*
X5743991Y-14675698D01*
X5743991Y-14675698D02*
X5629706Y-14789984D01*
X5629706Y-14789984D02*
X5753515Y-14789984D01*
X5991610Y-14789984D02*
X5991610Y-14589984D01*
X6077325Y-14789984D02*
X6077325Y-14685222D01*
X6077325Y-14685222D02*
X6067801Y-14666174D01*
X6067801Y-14666174D02*
X6048753Y-14656650D01*
X6048753Y-14656650D02*
X6020182Y-14656650D01*
X6020182Y-14656650D02*
X6001134Y-14666174D01*
X6001134Y-14666174D02*
X5991610Y-14675698D01*
X6201134Y-14789984D02*
X6182087Y-14780460D01*
X6182087Y-14780460D02*
X6172563Y-14770936D01*
X6172563Y-14770936D02*
X6163039Y-14751888D01*
X6163039Y-14751888D02*
X6163039Y-14694746D01*
X6163039Y-14694746D02*
X6172563Y-14675698D01*
X6172563Y-14675698D02*
X6182087Y-14666174D01*
X6182087Y-14666174D02*
X6201134Y-14656650D01*
X6201134Y-14656650D02*
X6229706Y-14656650D01*
X6229706Y-14656650D02*
X6248753Y-14666174D01*
X6248753Y-14666174D02*
X6258277Y-14675698D01*
X6258277Y-14675698D02*
X6267801Y-14694746D01*
X6267801Y-14694746D02*
X6267801Y-14751888D01*
X6267801Y-14751888D02*
X6258277Y-14770936D01*
X6258277Y-14770936D02*
X6248753Y-14780460D01*
X6248753Y-14780460D02*
X6229706Y-14789984D01*
X6229706Y-14789984D02*
X6201134Y-14789984D01*
X6382087Y-14789984D02*
X6363039Y-14780460D01*
X6363039Y-14780460D02*
X6353515Y-14761412D01*
X6353515Y-14761412D02*
X6353515Y-14589984D01*
X6534468Y-14780460D02*
X6515420Y-14789984D01*
X6515420Y-14789984D02*
X6477325Y-14789984D01*
X6477325Y-14789984D02*
X6458277Y-14780460D01*
X6458277Y-14780460D02*
X6448753Y-14761412D01*
X6448753Y-14761412D02*
X6448753Y-14685222D01*
X6448753Y-14685222D02*
X6458277Y-14666174D01*
X6458277Y-14666174D02*
X6477325Y-14656650D01*
X6477325Y-14656650D02*
X6515420Y-14656650D01*
X6515420Y-14656650D02*
X6534468Y-14666174D01*
X6534468Y-14666174D02*
X6543991Y-14685222D01*
X6543991Y-14685222D02*
X6543991Y-14704269D01*
X6543991Y-14704269D02*
X6448753Y-14723317D01*
X6620182Y-14780460D02*
X6639230Y-14789984D01*
X6639230Y-14789984D02*
X6677325Y-14789984D01*
X6677325Y-14789984D02*
X6696372Y-14780460D01*
X6696372Y-14780460D02*
X6705896Y-14761412D01*
X6705896Y-14761412D02*
X6705896Y-14751888D01*
X6705896Y-14751888D02*
X6696372Y-14732841D01*
X6696372Y-14732841D02*
X6677325Y-14723317D01*
X6677325Y-14723317D02*
X6648753Y-14723317D01*
X6648753Y-14723317D02*
X6629706Y-14713793D01*
X6629706Y-14713793D02*
X6620182Y-14694746D01*
X6620182Y-14694746D02*
X6620182Y-14685222D01*
X6620182Y-14685222D02*
X6629706Y-14666174D01*
X6629706Y-14666174D02*
X6648753Y-14656650D01*
X6648753Y-14656650D02*
X6677325Y-14656650D01*
X6677325Y-14656650D02*
X6696372Y-14666174D01*
X6772563Y-14866174D02*
X6782087Y-14856650D01*
X6782087Y-14856650D02*
X6801134Y-14828079D01*
X6801134Y-14828079D02*
X6810658Y-14809031D01*
X6810658Y-14809031D02*
X6820182Y-14780460D01*
X6820182Y-14780460D02*
X6829706Y-14732841D01*
X6829706Y-14732841D02*
X6829706Y-14694746D01*
X6829706Y-14694746D02*
X6820182Y-14647127D01*
X6820182Y-14647127D02*
X6810658Y-14618555D01*
X6810658Y-14618555D02*
X6801134Y-14599508D01*
X6801134Y-14599508D02*
X6782087Y-14570936D01*
X6782087Y-14570936D02*
X6772563Y-14561412D01*
X1797500Y-14862500D02*
X1997500Y-15062500D01*
X1997500Y-14862500D02*
X1797500Y-15062500D01*
X1997500Y-14962500D02*
G75*
G02*
X1797500Y-14962500I-100000J0D01*
G01*
X1797500Y-14962500D02*
G75*
G02*
X1997500Y-14962500I100000J0D01*
G01*
X2248753Y-14873031D02*
X2258277Y-14863508D01*
X2258277Y-14863508D02*
X2277324Y-14853984D01*
X2277324Y-14853984D02*
X2324944Y-14853984D01*
X2324944Y-14853984D02*
X2343991Y-14863508D01*
X2343991Y-14863508D02*
X2353515Y-14873031D01*
X2353515Y-14873031D02*
X2363039Y-14892079D01*
X2363039Y-14892079D02*
X2363039Y-14911127D01*
X2363039Y-14911127D02*
X2353515Y-14939698D01*
X2353515Y-14939698D02*
X2239229Y-15053984D01*
X2239229Y-15053984D02*
X2363039Y-15053984D01*
X2448753Y-15034936D02*
X2458277Y-15044460D01*
X2458277Y-15044460D02*
X2448753Y-15053984D01*
X2448753Y-15053984D02*
X2439229Y-15044460D01*
X2439229Y-15044460D02*
X2448753Y-15034936D01*
X2448753Y-15034936D02*
X2448753Y-15053984D01*
X2582086Y-14853984D02*
X2601134Y-14853984D01*
X2601134Y-14853984D02*
X2620182Y-14863508D01*
X2620182Y-14863508D02*
X2629705Y-14873031D01*
X2629705Y-14873031D02*
X2639229Y-14892079D01*
X2639229Y-14892079D02*
X2648753Y-14930174D01*
X2648753Y-14930174D02*
X2648753Y-14977793D01*
X2648753Y-14977793D02*
X2639229Y-15015888D01*
X2639229Y-15015888D02*
X2629705Y-15034936D01*
X2629705Y-15034936D02*
X2620182Y-15044460D01*
X2620182Y-15044460D02*
X2601134Y-15053984D01*
X2601134Y-15053984D02*
X2582086Y-15053984D01*
X2582086Y-15053984D02*
X2563039Y-15044460D01*
X2563039Y-15044460D02*
X2553515Y-15034936D01*
X2553515Y-15034936D02*
X2543991Y-15015888D01*
X2543991Y-15015888D02*
X2534467Y-14977793D01*
X2534467Y-14977793D02*
X2534467Y-14930174D01*
X2534467Y-14930174D02*
X2543991Y-14892079D01*
X2543991Y-14892079D02*
X2553515Y-14873031D01*
X2553515Y-14873031D02*
X2563039Y-14863508D01*
X2563039Y-14863508D02*
X2582086Y-14853984D01*
X2772563Y-14853984D02*
X2791610Y-14853984D01*
X2791610Y-14853984D02*
X2810658Y-14863508D01*
X2810658Y-14863508D02*
X2820182Y-14873031D01*
X2820182Y-14873031D02*
X2829705Y-14892079D01*
X2829705Y-14892079D02*
X2839229Y-14930174D01*
X2839229Y-14930174D02*
X2839229Y-14977793D01*
X2839229Y-14977793D02*
X2829705Y-15015888D01*
X2829705Y-15015888D02*
X2820182Y-15034936D01*
X2820182Y-15034936D02*
X2810658Y-15044460D01*
X2810658Y-15044460D02*
X2791610Y-15053984D01*
X2791610Y-15053984D02*
X2772563Y-15053984D01*
X2772563Y-15053984D02*
X2753515Y-15044460D01*
X2753515Y-15044460D02*
X2743991Y-15034936D01*
X2743991Y-15034936D02*
X2734467Y-15015888D01*
X2734467Y-15015888D02*
X2724944Y-14977793D01*
X2724944Y-14977793D02*
X2724944Y-14930174D01*
X2724944Y-14930174D02*
X2734467Y-14892079D01*
X2734467Y-14892079D02*
X2743991Y-14873031D01*
X2743991Y-14873031D02*
X2753515Y-14863508D01*
X2753515Y-14863508D02*
X2772563Y-14853984D01*
X2963039Y-14853984D02*
X2982086Y-14853984D01*
X2982086Y-14853984D02*
X3001134Y-14863508D01*
X3001134Y-14863508D02*
X3010658Y-14873031D01*
X3010658Y-14873031D02*
X3020182Y-14892079D01*
X3020182Y-14892079D02*
X3029705Y-14930174D01*
X3029705Y-14930174D02*
X3029705Y-14977793D01*
X3029705Y-14977793D02*
X3020182Y-15015888D01*
X3020182Y-15015888D02*
X3010658Y-15034936D01*
X3010658Y-15034936D02*
X3001134Y-15044460D01*
X3001134Y-15044460D02*
X2982086Y-15053984D01*
X2982086Y-15053984D02*
X2963039Y-15053984D01*
X2963039Y-15053984D02*
X2943991Y-15044460D01*
X2943991Y-15044460D02*
X2934467Y-15034936D01*
X2934467Y-15034936D02*
X2924943Y-15015888D01*
X2924943Y-15015888D02*
X2915420Y-14977793D01*
X2915420Y-14977793D02*
X2915420Y-14930174D01*
X2915420Y-14930174D02*
X2924943Y-14892079D01*
X2924943Y-14892079D02*
X2934467Y-14873031D01*
X2934467Y-14873031D02*
X2943991Y-14863508D01*
X2943991Y-14863508D02*
X2963039Y-14853984D01*
X3115420Y-15053984D02*
X3115420Y-14920650D01*
X3115420Y-14939698D02*
X3124943Y-14930174D01*
X3124943Y-14930174D02*
X3143991Y-14920650D01*
X3143991Y-14920650D02*
X3172563Y-14920650D01*
X3172563Y-14920650D02*
X3191610Y-14930174D01*
X3191610Y-14930174D02*
X3201134Y-14949222D01*
X3201134Y-14949222D02*
X3201134Y-15053984D01*
X3201134Y-14949222D02*
X3210658Y-14930174D01*
X3210658Y-14930174D02*
X3229705Y-14920650D01*
X3229705Y-14920650D02*
X3258277Y-14920650D01*
X3258277Y-14920650D02*
X3277324Y-14930174D01*
X3277324Y-14930174D02*
X3286848Y-14949222D01*
X3286848Y-14949222D02*
X3286848Y-15053984D01*
X3382086Y-15053984D02*
X3382086Y-14920650D01*
X3382086Y-14939698D02*
X3391610Y-14930174D01*
X3391610Y-14930174D02*
X3410658Y-14920650D01*
X3410658Y-14920650D02*
X3439229Y-14920650D01*
X3439229Y-14920650D02*
X3458277Y-14930174D01*
X3458277Y-14930174D02*
X3467801Y-14949222D01*
X3467801Y-14949222D02*
X3467801Y-15053984D01*
X3467801Y-14949222D02*
X3477324Y-14930174D01*
X3477324Y-14930174D02*
X3496372Y-14920650D01*
X3496372Y-14920650D02*
X3524943Y-14920650D01*
X3524943Y-14920650D02*
X3543991Y-14930174D01*
X3543991Y-14930174D02*
X3553515Y-14949222D01*
X3553515Y-14949222D02*
X3553515Y-15053984D01*
X3943991Y-14844460D02*
X3772563Y-15101603D01*
X4201134Y-14853984D02*
X4220182Y-14853984D01*
X4220182Y-14853984D02*
X4239229Y-14863508D01*
X4239229Y-14863508D02*
X4248753Y-14873031D01*
X4248753Y-14873031D02*
X4258277Y-14892079D01*
X4258277Y-14892079D02*
X4267801Y-14930174D01*
X4267801Y-14930174D02*
X4267801Y-14977793D01*
X4267801Y-14977793D02*
X4258277Y-15015888D01*
X4258277Y-15015888D02*
X4248753Y-15034936D01*
X4248753Y-15034936D02*
X4239229Y-15044460D01*
X4239229Y-15044460D02*
X4220182Y-15053984D01*
X4220182Y-15053984D02*
X4201134Y-15053984D01*
X4201134Y-15053984D02*
X4182086Y-15044460D01*
X4182086Y-15044460D02*
X4172563Y-15034936D01*
X4172563Y-15034936D02*
X4163039Y-15015888D01*
X4163039Y-15015888D02*
X4153515Y-14977793D01*
X4153515Y-14977793D02*
X4153515Y-14930174D01*
X4153515Y-14930174D02*
X4163039Y-14892079D01*
X4163039Y-14892079D02*
X4172563Y-14873031D01*
X4172563Y-14873031D02*
X4182086Y-14863508D01*
X4182086Y-14863508D02*
X4201134Y-14853984D01*
X4353515Y-15034936D02*
X4363039Y-15044460D01*
X4363039Y-15044460D02*
X4353515Y-15053984D01*
X4353515Y-15053984D02*
X4343991Y-15044460D01*
X4343991Y-15044460D02*
X4353515Y-15034936D01*
X4353515Y-15034936D02*
X4353515Y-15053984D01*
X4486848Y-14853984D02*
X4505896Y-14853984D01*
X4505896Y-14853984D02*
X4524944Y-14863508D01*
X4524944Y-14863508D02*
X4534468Y-14873031D01*
X4534468Y-14873031D02*
X4543991Y-14892079D01*
X4543991Y-14892079D02*
X4553515Y-14930174D01*
X4553515Y-14930174D02*
X4553515Y-14977793D01*
X4553515Y-14977793D02*
X4543991Y-15015888D01*
X4543991Y-15015888D02*
X4534468Y-15034936D01*
X4534468Y-15034936D02*
X4524944Y-15044460D01*
X4524944Y-15044460D02*
X4505896Y-15053984D01*
X4505896Y-15053984D02*
X4486848Y-15053984D01*
X4486848Y-15053984D02*
X4467801Y-15044460D01*
X4467801Y-15044460D02*
X4458277Y-15034936D01*
X4458277Y-15034936D02*
X4448753Y-15015888D01*
X4448753Y-15015888D02*
X4439229Y-14977793D01*
X4439229Y-14977793D02*
X4439229Y-14930174D01*
X4439229Y-14930174D02*
X4448753Y-14892079D01*
X4448753Y-14892079D02*
X4458277Y-14873031D01*
X4458277Y-14873031D02*
X4467801Y-14863508D01*
X4467801Y-14863508D02*
X4486848Y-14853984D01*
X4620182Y-14853984D02*
X4753515Y-14853984D01*
X4753515Y-14853984D02*
X4667801Y-15053984D01*
X4858277Y-14939698D02*
X4839229Y-14930174D01*
X4839229Y-14930174D02*
X4829706Y-14920650D01*
X4829706Y-14920650D02*
X4820182Y-14901603D01*
X4820182Y-14901603D02*
X4820182Y-14892079D01*
X4820182Y-14892079D02*
X4829706Y-14873031D01*
X4829706Y-14873031D02*
X4839229Y-14863508D01*
X4839229Y-14863508D02*
X4858277Y-14853984D01*
X4858277Y-14853984D02*
X4896372Y-14853984D01*
X4896372Y-14853984D02*
X4915420Y-14863508D01*
X4915420Y-14863508D02*
X4924944Y-14873031D01*
X4924944Y-14873031D02*
X4934468Y-14892079D01*
X4934468Y-14892079D02*
X4934468Y-14901603D01*
X4934468Y-14901603D02*
X4924944Y-14920650D01*
X4924944Y-14920650D02*
X4915420Y-14930174D01*
X4915420Y-14930174D02*
X4896372Y-14939698D01*
X4896372Y-14939698D02*
X4858277Y-14939698D01*
X4858277Y-14939698D02*
X4839229Y-14949222D01*
X4839229Y-14949222D02*
X4829706Y-14958746D01*
X4829706Y-14958746D02*
X4820182Y-14977793D01*
X4820182Y-14977793D02*
X4820182Y-15015888D01*
X4820182Y-15015888D02*
X4829706Y-15034936D01*
X4829706Y-15034936D02*
X4839229Y-15044460D01*
X4839229Y-15044460D02*
X4858277Y-15053984D01*
X4858277Y-15053984D02*
X4896372Y-15053984D01*
X4896372Y-15053984D02*
X4915420Y-15044460D01*
X4915420Y-15044460D02*
X4924944Y-15034936D01*
X4924944Y-15034936D02*
X4934468Y-15015888D01*
X4934468Y-15015888D02*
X4934468Y-14977793D01*
X4934468Y-14977793D02*
X4924944Y-14958746D01*
X4924944Y-14958746D02*
X4915420Y-14949222D01*
X4915420Y-14949222D02*
X4896372Y-14939698D01*
X5001134Y-14853984D02*
X5134468Y-14853984D01*
X5134468Y-14853984D02*
X5048753Y-15053984D01*
X5201134Y-14853984D02*
X5201134Y-14892079D01*
X5277325Y-14853984D02*
X5277325Y-14892079D01*
X5572563Y-15130174D02*
X5563039Y-15120650D01*
X5563039Y-15120650D02*
X5543991Y-15092079D01*
X5543991Y-15092079D02*
X5534468Y-15073031D01*
X5534468Y-15073031D02*
X5524944Y-15044460D01*
X5524944Y-15044460D02*
X5515420Y-14996841D01*
X5515420Y-14996841D02*
X5515420Y-14958746D01*
X5515420Y-14958746D02*
X5524944Y-14911127D01*
X5524944Y-14911127D02*
X5534468Y-14882555D01*
X5534468Y-14882555D02*
X5543991Y-14863508D01*
X5543991Y-14863508D02*
X5563039Y-14834936D01*
X5563039Y-14834936D02*
X5572563Y-14825412D01*
X5734468Y-14920650D02*
X5734468Y-15053984D01*
X5686848Y-14844460D02*
X5639229Y-14987317D01*
X5639229Y-14987317D02*
X5763039Y-14987317D01*
X5991610Y-15053984D02*
X5991610Y-14853984D01*
X6077325Y-15053984D02*
X6077325Y-14949222D01*
X6077325Y-14949222D02*
X6067801Y-14930174D01*
X6067801Y-14930174D02*
X6048753Y-14920650D01*
X6048753Y-14920650D02*
X6020182Y-14920650D01*
X6020182Y-14920650D02*
X6001134Y-14930174D01*
X6001134Y-14930174D02*
X5991610Y-14939698D01*
X6201134Y-15053984D02*
X6182087Y-15044460D01*
X6182087Y-15044460D02*
X6172563Y-15034936D01*
X6172563Y-15034936D02*
X6163039Y-15015888D01*
X6163039Y-15015888D02*
X6163039Y-14958746D01*
X6163039Y-14958746D02*
X6172563Y-14939698D01*
X6172563Y-14939698D02*
X6182087Y-14930174D01*
X6182087Y-14930174D02*
X6201134Y-14920650D01*
X6201134Y-14920650D02*
X6229706Y-14920650D01*
X6229706Y-14920650D02*
X6248753Y-14930174D01*
X6248753Y-14930174D02*
X6258277Y-14939698D01*
X6258277Y-14939698D02*
X6267801Y-14958746D01*
X6267801Y-14958746D02*
X6267801Y-15015888D01*
X6267801Y-15015888D02*
X6258277Y-15034936D01*
X6258277Y-15034936D02*
X6248753Y-15044460D01*
X6248753Y-15044460D02*
X6229706Y-15053984D01*
X6229706Y-15053984D02*
X6201134Y-15053984D01*
X6382087Y-15053984D02*
X6363039Y-15044460D01*
X6363039Y-15044460D02*
X6353515Y-15025412D01*
X6353515Y-15025412D02*
X6353515Y-14853984D01*
X6534468Y-15044460D02*
X6515420Y-15053984D01*
X6515420Y-15053984D02*
X6477325Y-15053984D01*
X6477325Y-15053984D02*
X6458277Y-15044460D01*
X6458277Y-15044460D02*
X6448753Y-15025412D01*
X6448753Y-15025412D02*
X6448753Y-14949222D01*
X6448753Y-14949222D02*
X6458277Y-14930174D01*
X6458277Y-14930174D02*
X6477325Y-14920650D01*
X6477325Y-14920650D02*
X6515420Y-14920650D01*
X6515420Y-14920650D02*
X6534468Y-14930174D01*
X6534468Y-14930174D02*
X6543991Y-14949222D01*
X6543991Y-14949222D02*
X6543991Y-14968269D01*
X6543991Y-14968269D02*
X6448753Y-14987317D01*
X6620182Y-15044460D02*
X6639230Y-15053984D01*
X6639230Y-15053984D02*
X6677325Y-15053984D01*
X6677325Y-15053984D02*
X6696372Y-15044460D01*
X6696372Y-15044460D02*
X6705896Y-15025412D01*
X6705896Y-15025412D02*
X6705896Y-15015888D01*
X6705896Y-15015888D02*
X6696372Y-14996841D01*
X6696372Y-14996841D02*
X6677325Y-14987317D01*
X6677325Y-14987317D02*
X6648753Y-14987317D01*
X6648753Y-14987317D02*
X6629706Y-14977793D01*
X6629706Y-14977793D02*
X6620182Y-14958746D01*
X6620182Y-14958746D02*
X6620182Y-14949222D01*
X6620182Y-14949222D02*
X6629706Y-14930174D01*
X6629706Y-14930174D02*
X6648753Y-14920650D01*
X6648753Y-14920650D02*
X6677325Y-14920650D01*
X6677325Y-14920650D02*
X6696372Y-14930174D01*
X6772563Y-15130174D02*
X6782087Y-15120650D01*
X6782087Y-15120650D02*
X6801134Y-15092079D01*
X6801134Y-15092079D02*
X6810658Y-15073031D01*
X6810658Y-15073031D02*
X6820182Y-15044460D01*
X6820182Y-15044460D02*
X6829706Y-14996841D01*
X6829706Y-14996841D02*
X6829706Y-14958746D01*
X6829706Y-14958746D02*
X6820182Y-14911127D01*
X6820182Y-14911127D02*
X6810658Y-14882555D01*
X6810658Y-14882555D02*
X6801134Y-14863508D01*
X6801134Y-14863508D02*
X6782087Y-14834936D01*
X6782087Y-14834936D02*
X6772563Y-14825412D01*
M02*
