M48
; DRILL file {KiCad 8.0.8} date 2025-04-26T15:59:26-0700
; FORMAT={-:-/ absolute / metric / decimal}
; #@! TF.CreationDate,2025-04-26T15:59:26-07:00
; #@! TF.GenerationSoftware,Kicad,Pcbnew,8.0.8
; #@! TF.FileFunction,Plated,1,2,PTH
FMAT,2
METRIC
; #@! TA.AperFunction,Plated,PTH,ViaDrill
T1C0.300
; #@! TA.AperFunction,Plated,PTH,ComponentDrill
T2C0.813
; #@! TA.AperFunction,Plated,PTH,ComponentDrill
T3C0.940
; #@! TA.AperFunction,Plated,PTH,ComponentDrill
T4C1.100
; #@! TA.AperFunction,Plated,PTH,ComponentDrill
T5C2.050
%
G90
G05
T1
X103.984Y-93.171
X128.902Y-93.349
X154.378Y-93.323
X180.514Y-94.034
X231.213Y-93.323
X256.333Y-93.323
X281.733Y-93.476
X307.235Y-93.145
T2
X107.115Y-102.645
X109.115Y-102.645
X132.515Y-102.645
X134.515Y-102.645
X157.915Y-102.645
X159.915Y-102.645
X183.315Y-102.645
X185.315Y-102.645
X234.115Y-102.645
X236.115Y-102.645
X259.515Y-102.645
X261.515Y-102.645
X284.915Y-102.645
X286.915Y-102.645
X310.315Y-102.645
X312.315Y-102.645
T3
X95.374Y-88.218
X95.374Y-103.458
X120.672Y-88.167
X120.672Y-103.407
X146.072Y-88.167
X146.072Y-103.407
X171.32Y-88.269
X171.32Y-103.509
X222.323Y-88.269
X222.323Y-103.509
X247.469Y-88.269
X247.469Y-103.509
X273.199Y-88.167
X273.199Y-103.407
X298.472Y-88.167
X298.472Y-103.407
T4
X108.48Y-95.66
X133.88Y-95.66
X159.28Y-95.66
X184.68Y-95.66
X235.48Y-95.66
X260.65Y-95.66
X286.28Y-95.66
X311.68Y-95.66
T5
X106.43Y-93.61
X106.43Y-97.71
X110.53Y-93.61
X110.53Y-97.71
X131.83Y-93.61
X131.83Y-97.71
X135.93Y-93.61
X135.93Y-97.71
X157.23Y-93.61
X157.23Y-97.71
X161.33Y-93.61
X161.33Y-97.71
X182.63Y-93.61
X182.63Y-97.71
X186.73Y-93.61
X186.73Y-97.71
X233.43Y-93.61
X233.43Y-97.71
X237.53Y-93.61
X237.53Y-97.71
X258.6Y-93.61
X258.6Y-97.71
X262.7Y-93.61
X262.7Y-97.71
X284.23Y-93.61
X284.23Y-97.71
X288.33Y-93.61
X288.33Y-97.71
X309.63Y-93.61
X309.63Y-97.71
X313.73Y-93.61
X313.73Y-97.71
M30
