G04 #@! TF.GenerationSoftware,KiCad,Pcbnew,8.0.8*
G04 #@! TF.CreationDate,2025-04-26T15:59:21-07:00*
G04 #@! TF.ProjectId,Output Board,4f757470-7574-4204-926f-6172642e6b69,rev?*
G04 #@! TF.SameCoordinates,Original*
G04 #@! TF.FileFunction,Soldermask,Top*
G04 #@! TF.FilePolarity,Negative*
%FSLAX46Y46*%
G04 Gerber Fmt 4.6, Leading zero omitted, Abs format (unit mm)*
G04 Created by KiCad (PCBNEW 8.0.8) date 2025-04-26 15:59:21*
%MOMM*%
%LPD*%
G01*
G04 APERTURE LIST*
%ADD10C,1.320800*%
%ADD11C,3.000000*%
%ADD12C,2.604000*%
%ADD13C,1.350000*%
%ADD14R,1.447800X1.447800*%
%ADD15C,1.447800*%
G04 APERTURE END LIST*
D10*
X310314999Y-102645000D03*
X312315000Y-102645000D03*
X284914999Y-102645000D03*
X286915000Y-102645000D03*
X259514999Y-102645000D03*
X261515000Y-102645000D03*
X234114999Y-102645000D03*
X236115000Y-102645000D03*
X183314999Y-102645000D03*
X185315000Y-102645000D03*
X132514999Y-102645000D03*
X134515000Y-102645000D03*
X107114999Y-102645000D03*
X109115000Y-102645000D03*
D11*
X78000000Y-95660000D03*
D12*
X258600000Y-93610000D03*
X258600000Y-97710000D03*
D13*
X260650000Y-95660000D03*
D12*
X262700000Y-93610000D03*
X262700000Y-97710000D03*
X182630000Y-93610000D03*
X182630000Y-97710000D03*
D13*
X184680000Y-95660000D03*
D12*
X186730000Y-93610000D03*
X186730000Y-97710000D03*
D11*
X332000000Y-95660000D03*
D12*
X131830000Y-93610000D03*
X131830000Y-97710000D03*
D13*
X133880000Y-95660000D03*
D12*
X135930000Y-93610000D03*
X135930000Y-97710000D03*
X284230000Y-93610000D03*
X284230000Y-97710000D03*
D13*
X286280000Y-95660000D03*
D12*
X288330000Y-93610000D03*
X288330000Y-97710000D03*
X309630000Y-93610000D03*
X309630000Y-97710000D03*
D13*
X311680000Y-95660000D03*
D12*
X313730000Y-93610000D03*
X313730000Y-97710000D03*
D11*
X205000000Y-95660000D03*
D12*
X157230000Y-93610000D03*
X157230000Y-97710000D03*
D13*
X159280000Y-95660000D03*
D12*
X161330000Y-93610000D03*
X161330000Y-97710000D03*
X106430000Y-93610000D03*
X106430000Y-97710000D03*
D13*
X108480000Y-95660000D03*
D12*
X110530000Y-93610000D03*
X110530000Y-97710000D03*
X233430000Y-93610000D03*
X233430000Y-97710000D03*
D13*
X235480000Y-95660000D03*
D12*
X237530000Y-93610000D03*
X237530000Y-97710000D03*
D14*
X95373600Y-88217800D03*
D15*
X95373600Y-103457800D03*
D14*
X146072000Y-88167000D03*
D15*
X146072000Y-103407000D03*
D14*
X273199000Y-88167000D03*
D15*
X273199000Y-103407000D03*
D14*
X120672000Y-88167000D03*
D15*
X120672000Y-103407000D03*
D14*
X222322800Y-88268600D03*
D15*
X222322800Y-103508600D03*
D14*
X298472000Y-88167000D03*
D15*
X298472000Y-103407000D03*
D14*
X171319600Y-88268600D03*
D15*
X171319600Y-103508600D03*
D14*
X247468800Y-88268600D03*
D15*
X247468800Y-103508600D03*
D10*
X157914999Y-102645000D03*
X159915000Y-102645000D03*
M02*
