%TF.GenerationSoftware,KiCad,Pcbnew,8.0.8*%
%TF.CreationDate,2025-04-26T15:59:32-07:00*%
%TF.ProjectId,Output Board,4f757470-7574-4204-926f-6172642e6b69,rev?*%
%TF.SameCoordinates,Original*%
%TF.FileFunction,Drillmap*%
%TF.FilePolarity,Positive*%
%FSLAX45Y45*%
G04 Gerber Fmt 4.5, Leading zero omitted, Abs format (unit mm)*
G04 Created by KiCad (PCBNEW 8.0.8) date 2025-04-26 15:59:32*
%MOMM*%
%LPD*%
G01*
G04 APERTURE LIST*
%ADD10C,0.050000*%
%ADD11C,0.200000*%
%ADD12C,0.100000*%
%ADD13C,0.110000*%
%ADD14C,0.205000*%
G04 APERTURE END LIST*
D10*
X34470000Y-10582000D02*
X34470000Y-3082000D01*
X34470000Y-3082000D02*
X6530000Y-3082000D01*
X6530000Y-10582000D02*
X6530000Y-3082000D01*
X6530000Y-10582000D02*
X34470000Y-10582000D01*
D11*
D12*
X10383420Y-9302080D02*
X10413420Y-9332080D01*
X10413420Y-9302080D02*
X10383420Y-9332080D01*
X12875160Y-9319860D02*
X12905160Y-9349860D01*
X12905160Y-9319860D02*
X12875160Y-9349860D01*
X15422780Y-9317320D02*
X15452780Y-9347320D01*
X15452780Y-9317320D02*
X15422780Y-9347320D01*
X18036440Y-9388440D02*
X18066440Y-9418440D01*
X18066440Y-9388440D02*
X18036440Y-9418440D01*
X23106280Y-9317320D02*
X23136280Y-9347320D01*
X23136280Y-9317320D02*
X23106280Y-9347320D01*
X25618340Y-9317320D02*
X25648340Y-9347320D01*
X25648340Y-9317320D02*
X25618340Y-9347320D01*
X28158340Y-9332560D02*
X28188340Y-9362560D01*
X28188340Y-9332560D02*
X28158340Y-9362560D01*
X30708500Y-9299540D02*
X30738500Y-9329540D01*
X30738500Y-9299540D02*
X30708500Y-9329540D01*
X10752140Y-10264500D02*
G75*
G02*
X10670860Y-10264500I-40640J0D01*
G01*
X10670860Y-10264500D02*
G75*
G02*
X10752140Y-10264500I40640J0D01*
G01*
X10952140Y-10264500D02*
G75*
G02*
X10870860Y-10264500I-40640J0D01*
G01*
X10870860Y-10264500D02*
G75*
G02*
X10952140Y-10264500I40640J0D01*
G01*
X13292140Y-10264500D02*
G75*
G02*
X13210860Y-10264500I-40640J0D01*
G01*
X13210860Y-10264500D02*
G75*
G02*
X13292140Y-10264500I40640J0D01*
G01*
X13492140Y-10264500D02*
G75*
G02*
X13410860Y-10264500I-40640J0D01*
G01*
X13410860Y-10264500D02*
G75*
G02*
X13492140Y-10264500I40640J0D01*
G01*
X15832140Y-10264500D02*
G75*
G02*
X15750860Y-10264500I-40640J0D01*
G01*
X15750860Y-10264500D02*
G75*
G02*
X15832140Y-10264500I40640J0D01*
G01*
X16032140Y-10264500D02*
G75*
G02*
X15950860Y-10264500I-40640J0D01*
G01*
X15950860Y-10264500D02*
G75*
G02*
X16032140Y-10264500I40640J0D01*
G01*
X18372140Y-10264500D02*
G75*
G02*
X18290860Y-10264500I-40640J0D01*
G01*
X18290860Y-10264500D02*
G75*
G02*
X18372140Y-10264500I40640J0D01*
G01*
X18572140Y-10264500D02*
G75*
G02*
X18490860Y-10264500I-40640J0D01*
G01*
X18490860Y-10264500D02*
G75*
G02*
X18572140Y-10264500I40640J0D01*
G01*
X23452140Y-10264500D02*
G75*
G02*
X23370860Y-10264500I-40640J0D01*
G01*
X23370860Y-10264500D02*
G75*
G02*
X23452140Y-10264500I40640J0D01*
G01*
X23652140Y-10264500D02*
G75*
G02*
X23570860Y-10264500I-40640J0D01*
G01*
X23570860Y-10264500D02*
G75*
G02*
X23652140Y-10264500I40640J0D01*
G01*
X25992140Y-10264500D02*
G75*
G02*
X25910860Y-10264500I-40640J0D01*
G01*
X25910860Y-10264500D02*
G75*
G02*
X25992140Y-10264500I40640J0D01*
G01*
X26192140Y-10264500D02*
G75*
G02*
X26110860Y-10264500I-40640J0D01*
G01*
X26110860Y-10264500D02*
G75*
G02*
X26192140Y-10264500I40640J0D01*
G01*
X28532140Y-10264500D02*
G75*
G02*
X28450860Y-10264500I-40640J0D01*
G01*
X28450860Y-10264500D02*
G75*
G02*
X28532140Y-10264500I40640J0D01*
G01*
X28732140Y-10264500D02*
G75*
G02*
X28650860Y-10264500I-40640J0D01*
G01*
X28650860Y-10264500D02*
G75*
G02*
X28732140Y-10264500I40640J0D01*
G01*
X31072140Y-10264500D02*
G75*
G02*
X30990860Y-10264500I-40640J0D01*
G01*
X30990860Y-10264500D02*
G75*
G02*
X31072140Y-10264500I40640J0D01*
G01*
X31272140Y-10264500D02*
G75*
G02*
X31190860Y-10264500I-40640J0D01*
G01*
X31190860Y-10264500D02*
G75*
G02*
X31272140Y-10264500I40640J0D01*
G01*
X9537360Y-8774790D02*
X9537360Y-8868770D01*
X9490370Y-8821780D02*
X9584350Y-8821780D01*
X9537360Y-10298790D02*
X9537360Y-10392770D01*
X9490370Y-10345780D02*
X9584350Y-10345780D01*
X12067200Y-8769710D02*
X12067200Y-8863690D01*
X12020210Y-8816700D02*
X12114190Y-8816700D01*
X12067200Y-10293710D02*
X12067200Y-10387690D01*
X12020210Y-10340700D02*
X12114190Y-10340700D01*
X14607200Y-8769710D02*
X14607200Y-8863690D01*
X14560210Y-8816700D02*
X14654190Y-8816700D01*
X14607200Y-10293710D02*
X14607200Y-10387690D01*
X14560210Y-10340700D02*
X14654190Y-10340700D01*
X17131960Y-8779870D02*
X17131960Y-8873850D01*
X17084970Y-8826860D02*
X17178950Y-8826860D01*
X17131960Y-10303870D02*
X17131960Y-10397850D01*
X17084970Y-10350860D02*
X17178950Y-10350860D01*
X22232280Y-8779870D02*
X22232280Y-8873850D01*
X22185290Y-8826860D02*
X22279270Y-8826860D01*
X22232280Y-10303870D02*
X22232280Y-10397850D01*
X22185290Y-10350860D02*
X22279270Y-10350860D01*
X24746880Y-8779870D02*
X24746880Y-8873850D01*
X24699890Y-8826860D02*
X24793870Y-8826860D01*
X24746880Y-10303870D02*
X24746880Y-10397850D01*
X24699890Y-10350860D02*
X24793870Y-10350860D01*
X27319900Y-8769710D02*
X27319900Y-8863690D01*
X27272910Y-8816700D02*
X27366890Y-8816700D01*
X27319900Y-10293710D02*
X27319900Y-10387690D01*
X27272910Y-10340700D02*
X27366890Y-10340700D01*
X29847200Y-8769710D02*
X29847200Y-8863690D01*
X29800210Y-8816700D02*
X29894190Y-8816700D01*
X29847200Y-10293710D02*
X29847200Y-10387690D01*
X29800210Y-10340700D02*
X29894190Y-10340700D01*
D13*
X10886891Y-9604891D02*
X10886891Y-9527109D01*
X10809109Y-9527109D01*
X10809109Y-9604891D01*
X10886891Y-9604891D01*
X13426891Y-9604891D02*
X13426891Y-9527109D01*
X13349109Y-9527109D01*
X13349109Y-9604891D01*
X13426891Y-9604891D01*
X15966891Y-9604891D02*
X15966891Y-9527109D01*
X15889109Y-9527109D01*
X15889109Y-9604891D01*
X15966891Y-9604891D01*
X18506891Y-9604891D02*
X18506891Y-9527109D01*
X18429109Y-9527109D01*
X18429109Y-9604891D01*
X18506891Y-9604891D01*
X23586891Y-9604891D02*
X23586891Y-9527109D01*
X23509109Y-9527109D01*
X23509109Y-9604891D01*
X23586891Y-9604891D01*
X26103891Y-9604891D02*
X26103891Y-9527109D01*
X26026109Y-9527109D01*
X26026109Y-9604891D01*
X26103891Y-9604891D01*
X28666891Y-9604891D02*
X28666891Y-9527109D01*
X28589109Y-9527109D01*
X28589109Y-9604891D01*
X28666891Y-9604891D01*
X31206891Y-9604891D02*
X31206891Y-9527109D01*
X31129109Y-9527109D01*
X31129109Y-9604891D01*
X31206891Y-9604891D01*
D14*
X10643000Y-9463500D02*
X10745500Y-9361000D01*
X10643000Y-9258500D01*
X10540500Y-9361000D01*
X10643000Y-9463500D01*
X10643000Y-9873500D02*
X10745500Y-9771000D01*
X10643000Y-9668500D01*
X10540500Y-9771000D01*
X10643000Y-9873500D01*
X11053000Y-9463500D02*
X11155500Y-9361000D01*
X11053000Y-9258500D01*
X10950500Y-9361000D01*
X11053000Y-9463500D01*
X11053000Y-9873500D02*
X11155500Y-9771000D01*
X11053000Y-9668500D01*
X10950500Y-9771000D01*
X11053000Y-9873500D01*
X13183000Y-9463500D02*
X13285500Y-9361000D01*
X13183000Y-9258500D01*
X13080500Y-9361000D01*
X13183000Y-9463500D01*
X13183000Y-9873500D02*
X13285500Y-9771000D01*
X13183000Y-9668500D01*
X13080500Y-9771000D01*
X13183000Y-9873500D01*
X13593000Y-9463500D02*
X13695500Y-9361000D01*
X13593000Y-9258500D01*
X13490500Y-9361000D01*
X13593000Y-9463500D01*
X13593000Y-9873500D02*
X13695500Y-9771000D01*
X13593000Y-9668500D01*
X13490500Y-9771000D01*
X13593000Y-9873500D01*
X15723000Y-9463500D02*
X15825500Y-9361000D01*
X15723000Y-9258500D01*
X15620500Y-9361000D01*
X15723000Y-9463500D01*
X15723000Y-9873500D02*
X15825500Y-9771000D01*
X15723000Y-9668500D01*
X15620500Y-9771000D01*
X15723000Y-9873500D01*
X16133000Y-9463500D02*
X16235500Y-9361000D01*
X16133000Y-9258500D01*
X16030500Y-9361000D01*
X16133000Y-9463500D01*
X16133000Y-9873500D02*
X16235500Y-9771000D01*
X16133000Y-9668500D01*
X16030500Y-9771000D01*
X16133000Y-9873500D01*
X18263000Y-9463500D02*
X18365500Y-9361000D01*
X18263000Y-9258500D01*
X18160500Y-9361000D01*
X18263000Y-9463500D01*
X18263000Y-9873500D02*
X18365500Y-9771000D01*
X18263000Y-9668500D01*
X18160500Y-9771000D01*
X18263000Y-9873500D01*
X18673000Y-9463500D02*
X18775500Y-9361000D01*
X18673000Y-9258500D01*
X18570500Y-9361000D01*
X18673000Y-9463500D01*
X18673000Y-9873500D02*
X18775500Y-9771000D01*
X18673000Y-9668500D01*
X18570500Y-9771000D01*
X18673000Y-9873500D01*
X23343000Y-9463500D02*
X23445500Y-9361000D01*
X23343000Y-9258500D01*
X23240500Y-9361000D01*
X23343000Y-9463500D01*
X23343000Y-9873500D02*
X23445500Y-9771000D01*
X23343000Y-9668500D01*
X23240500Y-9771000D01*
X23343000Y-9873500D01*
X23753000Y-9463500D02*
X23855500Y-9361000D01*
X23753000Y-9258500D01*
X23650500Y-9361000D01*
X23753000Y-9463500D01*
X23753000Y-9873500D02*
X23855500Y-9771000D01*
X23753000Y-9668500D01*
X23650500Y-9771000D01*
X23753000Y-9873500D01*
X25860000Y-9463500D02*
X25962500Y-9361000D01*
X25860000Y-9258500D01*
X25757500Y-9361000D01*
X25860000Y-9463500D01*
X25860000Y-9873500D02*
X25962500Y-9771000D01*
X25860000Y-9668500D01*
X25757500Y-9771000D01*
X25860000Y-9873500D01*
X26270000Y-9463500D02*
X26372500Y-9361000D01*
X26270000Y-9258500D01*
X26167500Y-9361000D01*
X26270000Y-9463500D01*
X26270000Y-9873500D02*
X26372500Y-9771000D01*
X26270000Y-9668500D01*
X26167500Y-9771000D01*
X26270000Y-9873500D01*
X28423000Y-9463500D02*
X28525500Y-9361000D01*
X28423000Y-9258500D01*
X28320500Y-9361000D01*
X28423000Y-9463500D01*
X28423000Y-9873500D02*
X28525500Y-9771000D01*
X28423000Y-9668500D01*
X28320500Y-9771000D01*
X28423000Y-9873500D01*
X28833000Y-9463500D02*
X28935500Y-9361000D01*
X28833000Y-9258500D01*
X28730500Y-9361000D01*
X28833000Y-9463500D01*
X28833000Y-9873500D02*
X28935500Y-9771000D01*
X28833000Y-9668500D01*
X28730500Y-9771000D01*
X28833000Y-9873500D01*
X30963000Y-9463500D02*
X31065500Y-9361000D01*
X30963000Y-9258500D01*
X30860500Y-9361000D01*
X30963000Y-9463500D01*
X30963000Y-9873500D02*
X31065500Y-9771000D01*
X30963000Y-9668500D01*
X30860500Y-9771000D01*
X30963000Y-9873500D01*
X31373000Y-9463500D02*
X31475500Y-9361000D01*
X31373000Y-9258500D01*
X31270500Y-9361000D01*
X31373000Y-9463500D01*
X31373000Y-9873500D02*
X31475500Y-9771000D01*
X31373000Y-9668500D01*
X31270500Y-9771000D01*
X31373000Y-9873500D01*
D11*
X6788277Y-10895984D02*
X6788277Y-10695984D01*
X6788277Y-10695984D02*
X6835896Y-10695984D01*
X6835896Y-10695984D02*
X6864467Y-10705508D01*
X6864467Y-10705508D02*
X6883515Y-10724555D01*
X6883515Y-10724555D02*
X6893039Y-10743603D01*
X6893039Y-10743603D02*
X6902562Y-10781698D01*
X6902562Y-10781698D02*
X6902562Y-10810270D01*
X6902562Y-10810270D02*
X6893039Y-10848365D01*
X6893039Y-10848365D02*
X6883515Y-10867412D01*
X6883515Y-10867412D02*
X6864467Y-10886460D01*
X6864467Y-10886460D02*
X6835896Y-10895984D01*
X6835896Y-10895984D02*
X6788277Y-10895984D01*
X6988277Y-10895984D02*
X6988277Y-10762650D01*
X6988277Y-10800746D02*
X6997801Y-10781698D01*
X6997801Y-10781698D02*
X7007324Y-10772174D01*
X7007324Y-10772174D02*
X7026372Y-10762650D01*
X7026372Y-10762650D02*
X7045420Y-10762650D01*
X7112086Y-10895984D02*
X7112086Y-10762650D01*
X7112086Y-10695984D02*
X7102562Y-10705508D01*
X7102562Y-10705508D02*
X7112086Y-10715031D01*
X7112086Y-10715031D02*
X7121610Y-10705508D01*
X7121610Y-10705508D02*
X7112086Y-10695984D01*
X7112086Y-10695984D02*
X7112086Y-10715031D01*
X7235896Y-10895984D02*
X7216848Y-10886460D01*
X7216848Y-10886460D02*
X7207324Y-10867412D01*
X7207324Y-10867412D02*
X7207324Y-10695984D01*
X7340658Y-10895984D02*
X7321610Y-10886460D01*
X7321610Y-10886460D02*
X7312086Y-10867412D01*
X7312086Y-10867412D02*
X7312086Y-10695984D01*
X7569229Y-10895984D02*
X7569229Y-10695984D01*
X7569229Y-10695984D02*
X7635896Y-10838841D01*
X7635896Y-10838841D02*
X7702562Y-10695984D01*
X7702562Y-10695984D02*
X7702562Y-10895984D01*
X7883515Y-10895984D02*
X7883515Y-10791222D01*
X7883515Y-10791222D02*
X7873991Y-10772174D01*
X7873991Y-10772174D02*
X7854943Y-10762650D01*
X7854943Y-10762650D02*
X7816848Y-10762650D01*
X7816848Y-10762650D02*
X7797801Y-10772174D01*
X7883515Y-10886460D02*
X7864467Y-10895984D01*
X7864467Y-10895984D02*
X7816848Y-10895984D01*
X7816848Y-10895984D02*
X7797801Y-10886460D01*
X7797801Y-10886460D02*
X7788277Y-10867412D01*
X7788277Y-10867412D02*
X7788277Y-10848365D01*
X7788277Y-10848365D02*
X7797801Y-10829317D01*
X7797801Y-10829317D02*
X7816848Y-10819793D01*
X7816848Y-10819793D02*
X7864467Y-10819793D01*
X7864467Y-10819793D02*
X7883515Y-10810270D01*
X7978753Y-10762650D02*
X7978753Y-10962650D01*
X7978753Y-10772174D02*
X7997801Y-10762650D01*
X7997801Y-10762650D02*
X8035896Y-10762650D01*
X8035896Y-10762650D02*
X8054943Y-10772174D01*
X8054943Y-10772174D02*
X8064467Y-10781698D01*
X8064467Y-10781698D02*
X8073991Y-10800746D01*
X8073991Y-10800746D02*
X8073991Y-10857889D01*
X8073991Y-10857889D02*
X8064467Y-10876936D01*
X8064467Y-10876936D02*
X8054943Y-10886460D01*
X8054943Y-10886460D02*
X8035896Y-10895984D01*
X8035896Y-10895984D02*
X7997801Y-10895984D01*
X7997801Y-10895984D02*
X7978753Y-10886460D01*
X8159705Y-10876936D02*
X8169229Y-10886460D01*
X8169229Y-10886460D02*
X8159705Y-10895984D01*
X8159705Y-10895984D02*
X8150182Y-10886460D01*
X8150182Y-10886460D02*
X8159705Y-10876936D01*
X8159705Y-10876936D02*
X8159705Y-10895984D01*
X8159705Y-10772174D02*
X8169229Y-10781698D01*
X8169229Y-10781698D02*
X8159705Y-10791222D01*
X8159705Y-10791222D02*
X8150182Y-10781698D01*
X8150182Y-10781698D02*
X8159705Y-10772174D01*
X8159705Y-10772174D02*
X8159705Y-10791222D01*
D12*
X6497500Y-11209500D02*
X6527500Y-11239500D01*
X6527500Y-11209500D02*
X6497500Y-11239500D01*
D11*
X6826372Y-11115984D02*
X6845420Y-11115984D01*
X6845420Y-11115984D02*
X6864467Y-11125508D01*
X6864467Y-11125508D02*
X6873991Y-11135031D01*
X6873991Y-11135031D02*
X6883515Y-11154079D01*
X6883515Y-11154079D02*
X6893039Y-11192174D01*
X6893039Y-11192174D02*
X6893039Y-11239793D01*
X6893039Y-11239793D02*
X6883515Y-11277888D01*
X6883515Y-11277888D02*
X6873991Y-11296936D01*
X6873991Y-11296936D02*
X6864467Y-11306460D01*
X6864467Y-11306460D02*
X6845420Y-11315984D01*
X6845420Y-11315984D02*
X6826372Y-11315984D01*
X6826372Y-11315984D02*
X6807324Y-11306460D01*
X6807324Y-11306460D02*
X6797801Y-11296936D01*
X6797801Y-11296936D02*
X6788277Y-11277888D01*
X6788277Y-11277888D02*
X6778753Y-11239793D01*
X6778753Y-11239793D02*
X6778753Y-11192174D01*
X6778753Y-11192174D02*
X6788277Y-11154079D01*
X6788277Y-11154079D02*
X6797801Y-11135031D01*
X6797801Y-11135031D02*
X6807324Y-11125508D01*
X6807324Y-11125508D02*
X6826372Y-11115984D01*
X6978753Y-11296936D02*
X6988277Y-11306460D01*
X6988277Y-11306460D02*
X6978753Y-11315984D01*
X6978753Y-11315984D02*
X6969229Y-11306460D01*
X6969229Y-11306460D02*
X6978753Y-11296936D01*
X6978753Y-11296936D02*
X6978753Y-11315984D01*
X7054943Y-11115984D02*
X7178753Y-11115984D01*
X7178753Y-11115984D02*
X7112086Y-11192174D01*
X7112086Y-11192174D02*
X7140658Y-11192174D01*
X7140658Y-11192174D02*
X7159705Y-11201698D01*
X7159705Y-11201698D02*
X7169229Y-11211222D01*
X7169229Y-11211222D02*
X7178753Y-11230269D01*
X7178753Y-11230269D02*
X7178753Y-11277888D01*
X7178753Y-11277888D02*
X7169229Y-11296936D01*
X7169229Y-11296936D02*
X7159705Y-11306460D01*
X7159705Y-11306460D02*
X7140658Y-11315984D01*
X7140658Y-11315984D02*
X7083515Y-11315984D01*
X7083515Y-11315984D02*
X7064467Y-11306460D01*
X7064467Y-11306460D02*
X7054943Y-11296936D01*
X7302562Y-11115984D02*
X7321610Y-11115984D01*
X7321610Y-11115984D02*
X7340658Y-11125508D01*
X7340658Y-11125508D02*
X7350182Y-11135031D01*
X7350182Y-11135031D02*
X7359705Y-11154079D01*
X7359705Y-11154079D02*
X7369229Y-11192174D01*
X7369229Y-11192174D02*
X7369229Y-11239793D01*
X7369229Y-11239793D02*
X7359705Y-11277888D01*
X7359705Y-11277888D02*
X7350182Y-11296936D01*
X7350182Y-11296936D02*
X7340658Y-11306460D01*
X7340658Y-11306460D02*
X7321610Y-11315984D01*
X7321610Y-11315984D02*
X7302562Y-11315984D01*
X7302562Y-11315984D02*
X7283515Y-11306460D01*
X7283515Y-11306460D02*
X7273991Y-11296936D01*
X7273991Y-11296936D02*
X7264467Y-11277888D01*
X7264467Y-11277888D02*
X7254943Y-11239793D01*
X7254943Y-11239793D02*
X7254943Y-11192174D01*
X7254943Y-11192174D02*
X7264467Y-11154079D01*
X7264467Y-11154079D02*
X7273991Y-11135031D01*
X7273991Y-11135031D02*
X7283515Y-11125508D01*
X7283515Y-11125508D02*
X7302562Y-11115984D01*
X7493039Y-11115984D02*
X7512086Y-11115984D01*
X7512086Y-11115984D02*
X7531134Y-11125508D01*
X7531134Y-11125508D02*
X7540658Y-11135031D01*
X7540658Y-11135031D02*
X7550182Y-11154079D01*
X7550182Y-11154079D02*
X7559705Y-11192174D01*
X7559705Y-11192174D02*
X7559705Y-11239793D01*
X7559705Y-11239793D02*
X7550182Y-11277888D01*
X7550182Y-11277888D02*
X7540658Y-11296936D01*
X7540658Y-11296936D02*
X7531134Y-11306460D01*
X7531134Y-11306460D02*
X7512086Y-11315984D01*
X7512086Y-11315984D02*
X7493039Y-11315984D01*
X7493039Y-11315984D02*
X7473991Y-11306460D01*
X7473991Y-11306460D02*
X7464467Y-11296936D01*
X7464467Y-11296936D02*
X7454943Y-11277888D01*
X7454943Y-11277888D02*
X7445420Y-11239793D01*
X7445420Y-11239793D02*
X7445420Y-11192174D01*
X7445420Y-11192174D02*
X7454943Y-11154079D01*
X7454943Y-11154079D02*
X7464467Y-11135031D01*
X7464467Y-11135031D02*
X7473991Y-11125508D01*
X7473991Y-11125508D02*
X7493039Y-11115984D01*
X7645420Y-11315984D02*
X7645420Y-11182650D01*
X7645420Y-11201698D02*
X7654943Y-11192174D01*
X7654943Y-11192174D02*
X7673991Y-11182650D01*
X7673991Y-11182650D02*
X7702563Y-11182650D01*
X7702563Y-11182650D02*
X7721610Y-11192174D01*
X7721610Y-11192174D02*
X7731134Y-11211222D01*
X7731134Y-11211222D02*
X7731134Y-11315984D01*
X7731134Y-11211222D02*
X7740658Y-11192174D01*
X7740658Y-11192174D02*
X7759705Y-11182650D01*
X7759705Y-11182650D02*
X7788277Y-11182650D01*
X7788277Y-11182650D02*
X7807324Y-11192174D01*
X7807324Y-11192174D02*
X7816848Y-11211222D01*
X7816848Y-11211222D02*
X7816848Y-11315984D01*
X7912086Y-11315984D02*
X7912086Y-11182650D01*
X7912086Y-11201698D02*
X7921610Y-11192174D01*
X7921610Y-11192174D02*
X7940658Y-11182650D01*
X7940658Y-11182650D02*
X7969229Y-11182650D01*
X7969229Y-11182650D02*
X7988277Y-11192174D01*
X7988277Y-11192174D02*
X7997801Y-11211222D01*
X7997801Y-11211222D02*
X7997801Y-11315984D01*
X7997801Y-11211222D02*
X8007324Y-11192174D01*
X8007324Y-11192174D02*
X8026372Y-11182650D01*
X8026372Y-11182650D02*
X8054943Y-11182650D01*
X8054943Y-11182650D02*
X8073991Y-11192174D01*
X8073991Y-11192174D02*
X8083515Y-11211222D01*
X8083515Y-11211222D02*
X8083515Y-11315984D01*
X8473991Y-11106460D02*
X8302563Y-11363603D01*
X8731134Y-11115984D02*
X8750182Y-11115984D01*
X8750182Y-11115984D02*
X8769229Y-11125508D01*
X8769229Y-11125508D02*
X8778753Y-11135031D01*
X8778753Y-11135031D02*
X8788277Y-11154079D01*
X8788277Y-11154079D02*
X8797801Y-11192174D01*
X8797801Y-11192174D02*
X8797801Y-11239793D01*
X8797801Y-11239793D02*
X8788277Y-11277888D01*
X8788277Y-11277888D02*
X8778753Y-11296936D01*
X8778753Y-11296936D02*
X8769229Y-11306460D01*
X8769229Y-11306460D02*
X8750182Y-11315984D01*
X8750182Y-11315984D02*
X8731134Y-11315984D01*
X8731134Y-11315984D02*
X8712087Y-11306460D01*
X8712087Y-11306460D02*
X8702563Y-11296936D01*
X8702563Y-11296936D02*
X8693039Y-11277888D01*
X8693039Y-11277888D02*
X8683515Y-11239793D01*
X8683515Y-11239793D02*
X8683515Y-11192174D01*
X8683515Y-11192174D02*
X8693039Y-11154079D01*
X8693039Y-11154079D02*
X8702563Y-11135031D01*
X8702563Y-11135031D02*
X8712087Y-11125508D01*
X8712087Y-11125508D02*
X8731134Y-11115984D01*
X8883515Y-11296936D02*
X8893039Y-11306460D01*
X8893039Y-11306460D02*
X8883515Y-11315984D01*
X8883515Y-11315984D02*
X8873991Y-11306460D01*
X8873991Y-11306460D02*
X8883515Y-11296936D01*
X8883515Y-11296936D02*
X8883515Y-11315984D01*
X9016848Y-11115984D02*
X9035896Y-11115984D01*
X9035896Y-11115984D02*
X9054944Y-11125508D01*
X9054944Y-11125508D02*
X9064468Y-11135031D01*
X9064468Y-11135031D02*
X9073991Y-11154079D01*
X9073991Y-11154079D02*
X9083515Y-11192174D01*
X9083515Y-11192174D02*
X9083515Y-11239793D01*
X9083515Y-11239793D02*
X9073991Y-11277888D01*
X9073991Y-11277888D02*
X9064468Y-11296936D01*
X9064468Y-11296936D02*
X9054944Y-11306460D01*
X9054944Y-11306460D02*
X9035896Y-11315984D01*
X9035896Y-11315984D02*
X9016848Y-11315984D01*
X9016848Y-11315984D02*
X8997801Y-11306460D01*
X8997801Y-11306460D02*
X8988277Y-11296936D01*
X8988277Y-11296936D02*
X8978753Y-11277888D01*
X8978753Y-11277888D02*
X8969229Y-11239793D01*
X8969229Y-11239793D02*
X8969229Y-11192174D01*
X8969229Y-11192174D02*
X8978753Y-11154079D01*
X8978753Y-11154079D02*
X8988277Y-11135031D01*
X8988277Y-11135031D02*
X8997801Y-11125508D01*
X8997801Y-11125508D02*
X9016848Y-11115984D01*
X9273991Y-11315984D02*
X9159706Y-11315984D01*
X9216848Y-11315984D02*
X9216848Y-11115984D01*
X9216848Y-11115984D02*
X9197801Y-11144555D01*
X9197801Y-11144555D02*
X9178753Y-11163603D01*
X9178753Y-11163603D02*
X9159706Y-11173127D01*
X9464468Y-11315984D02*
X9350182Y-11315984D01*
X9407325Y-11315984D02*
X9407325Y-11115984D01*
X9407325Y-11115984D02*
X9388277Y-11144555D01*
X9388277Y-11144555D02*
X9369229Y-11163603D01*
X9369229Y-11163603D02*
X9350182Y-11173127D01*
X9578753Y-11201698D02*
X9559706Y-11192174D01*
X9559706Y-11192174D02*
X9550182Y-11182650D01*
X9550182Y-11182650D02*
X9540658Y-11163603D01*
X9540658Y-11163603D02*
X9540658Y-11154079D01*
X9540658Y-11154079D02*
X9550182Y-11135031D01*
X9550182Y-11135031D02*
X9559706Y-11125508D01*
X9559706Y-11125508D02*
X9578753Y-11115984D01*
X9578753Y-11115984D02*
X9616849Y-11115984D01*
X9616849Y-11115984D02*
X9635896Y-11125508D01*
X9635896Y-11125508D02*
X9645420Y-11135031D01*
X9645420Y-11135031D02*
X9654944Y-11154079D01*
X9654944Y-11154079D02*
X9654944Y-11163603D01*
X9654944Y-11163603D02*
X9645420Y-11182650D01*
X9645420Y-11182650D02*
X9635896Y-11192174D01*
X9635896Y-11192174D02*
X9616849Y-11201698D01*
X9616849Y-11201698D02*
X9578753Y-11201698D01*
X9578753Y-11201698D02*
X9559706Y-11211222D01*
X9559706Y-11211222D02*
X9550182Y-11220746D01*
X9550182Y-11220746D02*
X9540658Y-11239793D01*
X9540658Y-11239793D02*
X9540658Y-11277888D01*
X9540658Y-11277888D02*
X9550182Y-11296936D01*
X9550182Y-11296936D02*
X9559706Y-11306460D01*
X9559706Y-11306460D02*
X9578753Y-11315984D01*
X9578753Y-11315984D02*
X9616849Y-11315984D01*
X9616849Y-11315984D02*
X9635896Y-11306460D01*
X9635896Y-11306460D02*
X9645420Y-11296936D01*
X9645420Y-11296936D02*
X9654944Y-11277888D01*
X9654944Y-11277888D02*
X9654944Y-11239793D01*
X9654944Y-11239793D02*
X9645420Y-11220746D01*
X9645420Y-11220746D02*
X9635896Y-11211222D01*
X9635896Y-11211222D02*
X9616849Y-11201698D01*
X9731134Y-11115984D02*
X9731134Y-11154079D01*
X9807325Y-11115984D02*
X9807325Y-11154079D01*
X10102563Y-11392174D02*
X10093039Y-11382650D01*
X10093039Y-11382650D02*
X10073991Y-11354079D01*
X10073991Y-11354079D02*
X10064468Y-11335031D01*
X10064468Y-11335031D02*
X10054944Y-11306460D01*
X10054944Y-11306460D02*
X10045420Y-11258841D01*
X10045420Y-11258841D02*
X10045420Y-11220746D01*
X10045420Y-11220746D02*
X10054944Y-11173127D01*
X10054944Y-11173127D02*
X10064468Y-11144555D01*
X10064468Y-11144555D02*
X10073991Y-11125508D01*
X10073991Y-11125508D02*
X10093039Y-11096936D01*
X10093039Y-11096936D02*
X10102563Y-11087412D01*
X10207325Y-11201698D02*
X10188277Y-11192174D01*
X10188277Y-11192174D02*
X10178753Y-11182650D01*
X10178753Y-11182650D02*
X10169230Y-11163603D01*
X10169230Y-11163603D02*
X10169230Y-11154079D01*
X10169230Y-11154079D02*
X10178753Y-11135031D01*
X10178753Y-11135031D02*
X10188277Y-11125508D01*
X10188277Y-11125508D02*
X10207325Y-11115984D01*
X10207325Y-11115984D02*
X10245420Y-11115984D01*
X10245420Y-11115984D02*
X10264468Y-11125508D01*
X10264468Y-11125508D02*
X10273991Y-11135031D01*
X10273991Y-11135031D02*
X10283515Y-11154079D01*
X10283515Y-11154079D02*
X10283515Y-11163603D01*
X10283515Y-11163603D02*
X10273991Y-11182650D01*
X10273991Y-11182650D02*
X10264468Y-11192174D01*
X10264468Y-11192174D02*
X10245420Y-11201698D01*
X10245420Y-11201698D02*
X10207325Y-11201698D01*
X10207325Y-11201698D02*
X10188277Y-11211222D01*
X10188277Y-11211222D02*
X10178753Y-11220746D01*
X10178753Y-11220746D02*
X10169230Y-11239793D01*
X10169230Y-11239793D02*
X10169230Y-11277888D01*
X10169230Y-11277888D02*
X10178753Y-11296936D01*
X10178753Y-11296936D02*
X10188277Y-11306460D01*
X10188277Y-11306460D02*
X10207325Y-11315984D01*
X10207325Y-11315984D02*
X10245420Y-11315984D01*
X10245420Y-11315984D02*
X10264468Y-11306460D01*
X10264468Y-11306460D02*
X10273991Y-11296936D01*
X10273991Y-11296936D02*
X10283515Y-11277888D01*
X10283515Y-11277888D02*
X10283515Y-11239793D01*
X10283515Y-11239793D02*
X10273991Y-11220746D01*
X10273991Y-11220746D02*
X10264468Y-11211222D01*
X10264468Y-11211222D02*
X10245420Y-11201698D01*
X10521611Y-11315984D02*
X10521611Y-11115984D01*
X10607325Y-11315984D02*
X10607325Y-11211222D01*
X10607325Y-11211222D02*
X10597801Y-11192174D01*
X10597801Y-11192174D02*
X10578753Y-11182650D01*
X10578753Y-11182650D02*
X10550182Y-11182650D01*
X10550182Y-11182650D02*
X10531134Y-11192174D01*
X10531134Y-11192174D02*
X10521611Y-11201698D01*
X10731134Y-11315984D02*
X10712087Y-11306460D01*
X10712087Y-11306460D02*
X10702563Y-11296936D01*
X10702563Y-11296936D02*
X10693039Y-11277888D01*
X10693039Y-11277888D02*
X10693039Y-11220746D01*
X10693039Y-11220746D02*
X10702563Y-11201698D01*
X10702563Y-11201698D02*
X10712087Y-11192174D01*
X10712087Y-11192174D02*
X10731134Y-11182650D01*
X10731134Y-11182650D02*
X10759706Y-11182650D01*
X10759706Y-11182650D02*
X10778753Y-11192174D01*
X10778753Y-11192174D02*
X10788277Y-11201698D01*
X10788277Y-11201698D02*
X10797801Y-11220746D01*
X10797801Y-11220746D02*
X10797801Y-11277888D01*
X10797801Y-11277888D02*
X10788277Y-11296936D01*
X10788277Y-11296936D02*
X10778753Y-11306460D01*
X10778753Y-11306460D02*
X10759706Y-11315984D01*
X10759706Y-11315984D02*
X10731134Y-11315984D01*
X10912087Y-11315984D02*
X10893039Y-11306460D01*
X10893039Y-11306460D02*
X10883515Y-11287412D01*
X10883515Y-11287412D02*
X10883515Y-11115984D01*
X11064468Y-11306460D02*
X11045420Y-11315984D01*
X11045420Y-11315984D02*
X11007325Y-11315984D01*
X11007325Y-11315984D02*
X10988277Y-11306460D01*
X10988277Y-11306460D02*
X10978753Y-11287412D01*
X10978753Y-11287412D02*
X10978753Y-11211222D01*
X10978753Y-11211222D02*
X10988277Y-11192174D01*
X10988277Y-11192174D02*
X11007325Y-11182650D01*
X11007325Y-11182650D02*
X11045420Y-11182650D01*
X11045420Y-11182650D02*
X11064468Y-11192174D01*
X11064468Y-11192174D02*
X11073992Y-11211222D01*
X11073992Y-11211222D02*
X11073992Y-11230269D01*
X11073992Y-11230269D02*
X10978753Y-11249317D01*
X11150182Y-11306460D02*
X11169230Y-11315984D01*
X11169230Y-11315984D02*
X11207325Y-11315984D01*
X11207325Y-11315984D02*
X11226372Y-11306460D01*
X11226372Y-11306460D02*
X11235896Y-11287412D01*
X11235896Y-11287412D02*
X11235896Y-11277888D01*
X11235896Y-11277888D02*
X11226372Y-11258841D01*
X11226372Y-11258841D02*
X11207325Y-11249317D01*
X11207325Y-11249317D02*
X11178753Y-11249317D01*
X11178753Y-11249317D02*
X11159706Y-11239793D01*
X11159706Y-11239793D02*
X11150182Y-11220746D01*
X11150182Y-11220746D02*
X11150182Y-11211222D01*
X11150182Y-11211222D02*
X11159706Y-11192174D01*
X11159706Y-11192174D02*
X11178753Y-11182650D01*
X11178753Y-11182650D02*
X11207325Y-11182650D01*
X11207325Y-11182650D02*
X11226372Y-11192174D01*
X11302563Y-11392174D02*
X11312087Y-11382650D01*
X11312087Y-11382650D02*
X11331134Y-11354079D01*
X11331134Y-11354079D02*
X11340658Y-11335031D01*
X11340658Y-11335031D02*
X11350182Y-11306460D01*
X11350182Y-11306460D02*
X11359706Y-11258841D01*
X11359706Y-11258841D02*
X11359706Y-11220746D01*
X11359706Y-11220746D02*
X11350182Y-11173127D01*
X11350182Y-11173127D02*
X11340658Y-11144555D01*
X11340658Y-11144555D02*
X11331134Y-11125508D01*
X11331134Y-11125508D02*
X11312087Y-11096936D01*
X11312087Y-11096936D02*
X11302563Y-11087412D01*
D12*
X6527500Y-11488500D02*
G75*
G02*
X6446220Y-11488500I-40640J0D01*
G01*
X6446220Y-11488500D02*
G75*
G02*
X6527500Y-11488500I40640J0D01*
G01*
D11*
X6826372Y-11379984D02*
X6845420Y-11379984D01*
X6845420Y-11379984D02*
X6864467Y-11389508D01*
X6864467Y-11389508D02*
X6873991Y-11399031D01*
X6873991Y-11399031D02*
X6883515Y-11418079D01*
X6883515Y-11418079D02*
X6893039Y-11456174D01*
X6893039Y-11456174D02*
X6893039Y-11503793D01*
X6893039Y-11503793D02*
X6883515Y-11541888D01*
X6883515Y-11541888D02*
X6873991Y-11560936D01*
X6873991Y-11560936D02*
X6864467Y-11570460D01*
X6864467Y-11570460D02*
X6845420Y-11579984D01*
X6845420Y-11579984D02*
X6826372Y-11579984D01*
X6826372Y-11579984D02*
X6807324Y-11570460D01*
X6807324Y-11570460D02*
X6797801Y-11560936D01*
X6797801Y-11560936D02*
X6788277Y-11541888D01*
X6788277Y-11541888D02*
X6778753Y-11503793D01*
X6778753Y-11503793D02*
X6778753Y-11456174D01*
X6778753Y-11456174D02*
X6788277Y-11418079D01*
X6788277Y-11418079D02*
X6797801Y-11399031D01*
X6797801Y-11399031D02*
X6807324Y-11389508D01*
X6807324Y-11389508D02*
X6826372Y-11379984D01*
X6978753Y-11560936D02*
X6988277Y-11570460D01*
X6988277Y-11570460D02*
X6978753Y-11579984D01*
X6978753Y-11579984D02*
X6969229Y-11570460D01*
X6969229Y-11570460D02*
X6978753Y-11560936D01*
X6978753Y-11560936D02*
X6978753Y-11579984D01*
X7102562Y-11465698D02*
X7083515Y-11456174D01*
X7083515Y-11456174D02*
X7073991Y-11446650D01*
X7073991Y-11446650D02*
X7064467Y-11427603D01*
X7064467Y-11427603D02*
X7064467Y-11418079D01*
X7064467Y-11418079D02*
X7073991Y-11399031D01*
X7073991Y-11399031D02*
X7083515Y-11389508D01*
X7083515Y-11389508D02*
X7102562Y-11379984D01*
X7102562Y-11379984D02*
X7140658Y-11379984D01*
X7140658Y-11379984D02*
X7159705Y-11389508D01*
X7159705Y-11389508D02*
X7169229Y-11399031D01*
X7169229Y-11399031D02*
X7178753Y-11418079D01*
X7178753Y-11418079D02*
X7178753Y-11427603D01*
X7178753Y-11427603D02*
X7169229Y-11446650D01*
X7169229Y-11446650D02*
X7159705Y-11456174D01*
X7159705Y-11456174D02*
X7140658Y-11465698D01*
X7140658Y-11465698D02*
X7102562Y-11465698D01*
X7102562Y-11465698D02*
X7083515Y-11475222D01*
X7083515Y-11475222D02*
X7073991Y-11484746D01*
X7073991Y-11484746D02*
X7064467Y-11503793D01*
X7064467Y-11503793D02*
X7064467Y-11541888D01*
X7064467Y-11541888D02*
X7073991Y-11560936D01*
X7073991Y-11560936D02*
X7083515Y-11570460D01*
X7083515Y-11570460D02*
X7102562Y-11579984D01*
X7102562Y-11579984D02*
X7140658Y-11579984D01*
X7140658Y-11579984D02*
X7159705Y-11570460D01*
X7159705Y-11570460D02*
X7169229Y-11560936D01*
X7169229Y-11560936D02*
X7178753Y-11541888D01*
X7178753Y-11541888D02*
X7178753Y-11503793D01*
X7178753Y-11503793D02*
X7169229Y-11484746D01*
X7169229Y-11484746D02*
X7159705Y-11475222D01*
X7159705Y-11475222D02*
X7140658Y-11465698D01*
X7369229Y-11579984D02*
X7254943Y-11579984D01*
X7312086Y-11579984D02*
X7312086Y-11379984D01*
X7312086Y-11379984D02*
X7293039Y-11408555D01*
X7293039Y-11408555D02*
X7273991Y-11427603D01*
X7273991Y-11427603D02*
X7254943Y-11437127D01*
X7435896Y-11379984D02*
X7559705Y-11379984D01*
X7559705Y-11379984D02*
X7493039Y-11456174D01*
X7493039Y-11456174D02*
X7521610Y-11456174D01*
X7521610Y-11456174D02*
X7540658Y-11465698D01*
X7540658Y-11465698D02*
X7550182Y-11475222D01*
X7550182Y-11475222D02*
X7559705Y-11494269D01*
X7559705Y-11494269D02*
X7559705Y-11541888D01*
X7559705Y-11541888D02*
X7550182Y-11560936D01*
X7550182Y-11560936D02*
X7540658Y-11570460D01*
X7540658Y-11570460D02*
X7521610Y-11579984D01*
X7521610Y-11579984D02*
X7464467Y-11579984D01*
X7464467Y-11579984D02*
X7445420Y-11570460D01*
X7445420Y-11570460D02*
X7435896Y-11560936D01*
X7645420Y-11579984D02*
X7645420Y-11446650D01*
X7645420Y-11465698D02*
X7654943Y-11456174D01*
X7654943Y-11456174D02*
X7673991Y-11446650D01*
X7673991Y-11446650D02*
X7702563Y-11446650D01*
X7702563Y-11446650D02*
X7721610Y-11456174D01*
X7721610Y-11456174D02*
X7731134Y-11475222D01*
X7731134Y-11475222D02*
X7731134Y-11579984D01*
X7731134Y-11475222D02*
X7740658Y-11456174D01*
X7740658Y-11456174D02*
X7759705Y-11446650D01*
X7759705Y-11446650D02*
X7788277Y-11446650D01*
X7788277Y-11446650D02*
X7807324Y-11456174D01*
X7807324Y-11456174D02*
X7816848Y-11475222D01*
X7816848Y-11475222D02*
X7816848Y-11579984D01*
X7912086Y-11579984D02*
X7912086Y-11446650D01*
X7912086Y-11465698D02*
X7921610Y-11456174D01*
X7921610Y-11456174D02*
X7940658Y-11446650D01*
X7940658Y-11446650D02*
X7969229Y-11446650D01*
X7969229Y-11446650D02*
X7988277Y-11456174D01*
X7988277Y-11456174D02*
X7997801Y-11475222D01*
X7997801Y-11475222D02*
X7997801Y-11579984D01*
X7997801Y-11475222D02*
X8007324Y-11456174D01*
X8007324Y-11456174D02*
X8026372Y-11446650D01*
X8026372Y-11446650D02*
X8054943Y-11446650D01*
X8054943Y-11446650D02*
X8073991Y-11456174D01*
X8073991Y-11456174D02*
X8083515Y-11475222D01*
X8083515Y-11475222D02*
X8083515Y-11579984D01*
X8473991Y-11370460D02*
X8302563Y-11627603D01*
X8731134Y-11379984D02*
X8750182Y-11379984D01*
X8750182Y-11379984D02*
X8769229Y-11389508D01*
X8769229Y-11389508D02*
X8778753Y-11399031D01*
X8778753Y-11399031D02*
X8788277Y-11418079D01*
X8788277Y-11418079D02*
X8797801Y-11456174D01*
X8797801Y-11456174D02*
X8797801Y-11503793D01*
X8797801Y-11503793D02*
X8788277Y-11541888D01*
X8788277Y-11541888D02*
X8778753Y-11560936D01*
X8778753Y-11560936D02*
X8769229Y-11570460D01*
X8769229Y-11570460D02*
X8750182Y-11579984D01*
X8750182Y-11579984D02*
X8731134Y-11579984D01*
X8731134Y-11579984D02*
X8712087Y-11570460D01*
X8712087Y-11570460D02*
X8702563Y-11560936D01*
X8702563Y-11560936D02*
X8693039Y-11541888D01*
X8693039Y-11541888D02*
X8683515Y-11503793D01*
X8683515Y-11503793D02*
X8683515Y-11456174D01*
X8683515Y-11456174D02*
X8693039Y-11418079D01*
X8693039Y-11418079D02*
X8702563Y-11399031D01*
X8702563Y-11399031D02*
X8712087Y-11389508D01*
X8712087Y-11389508D02*
X8731134Y-11379984D01*
X8883515Y-11560936D02*
X8893039Y-11570460D01*
X8893039Y-11570460D02*
X8883515Y-11579984D01*
X8883515Y-11579984D02*
X8873991Y-11570460D01*
X8873991Y-11570460D02*
X8883515Y-11560936D01*
X8883515Y-11560936D02*
X8883515Y-11579984D01*
X9016848Y-11379984D02*
X9035896Y-11379984D01*
X9035896Y-11379984D02*
X9054944Y-11389508D01*
X9054944Y-11389508D02*
X9064468Y-11399031D01*
X9064468Y-11399031D02*
X9073991Y-11418079D01*
X9073991Y-11418079D02*
X9083515Y-11456174D01*
X9083515Y-11456174D02*
X9083515Y-11503793D01*
X9083515Y-11503793D02*
X9073991Y-11541888D01*
X9073991Y-11541888D02*
X9064468Y-11560936D01*
X9064468Y-11560936D02*
X9054944Y-11570460D01*
X9054944Y-11570460D02*
X9035896Y-11579984D01*
X9035896Y-11579984D02*
X9016848Y-11579984D01*
X9016848Y-11579984D02*
X8997801Y-11570460D01*
X8997801Y-11570460D02*
X8988277Y-11560936D01*
X8988277Y-11560936D02*
X8978753Y-11541888D01*
X8978753Y-11541888D02*
X8969229Y-11503793D01*
X8969229Y-11503793D02*
X8969229Y-11456174D01*
X8969229Y-11456174D02*
X8978753Y-11418079D01*
X8978753Y-11418079D02*
X8988277Y-11399031D01*
X8988277Y-11399031D02*
X8997801Y-11389508D01*
X8997801Y-11389508D02*
X9016848Y-11379984D01*
X9150182Y-11379984D02*
X9273991Y-11379984D01*
X9273991Y-11379984D02*
X9207325Y-11456174D01*
X9207325Y-11456174D02*
X9235896Y-11456174D01*
X9235896Y-11456174D02*
X9254944Y-11465698D01*
X9254944Y-11465698D02*
X9264468Y-11475222D01*
X9264468Y-11475222D02*
X9273991Y-11494269D01*
X9273991Y-11494269D02*
X9273991Y-11541888D01*
X9273991Y-11541888D02*
X9264468Y-11560936D01*
X9264468Y-11560936D02*
X9254944Y-11570460D01*
X9254944Y-11570460D02*
X9235896Y-11579984D01*
X9235896Y-11579984D02*
X9178753Y-11579984D01*
X9178753Y-11579984D02*
X9159706Y-11570460D01*
X9159706Y-11570460D02*
X9150182Y-11560936D01*
X9350182Y-11399031D02*
X9359706Y-11389508D01*
X9359706Y-11389508D02*
X9378753Y-11379984D01*
X9378753Y-11379984D02*
X9426372Y-11379984D01*
X9426372Y-11379984D02*
X9445420Y-11389508D01*
X9445420Y-11389508D02*
X9454944Y-11399031D01*
X9454944Y-11399031D02*
X9464468Y-11418079D01*
X9464468Y-11418079D02*
X9464468Y-11437127D01*
X9464468Y-11437127D02*
X9454944Y-11465698D01*
X9454944Y-11465698D02*
X9340658Y-11579984D01*
X9340658Y-11579984D02*
X9464468Y-11579984D01*
X9588277Y-11379984D02*
X9607325Y-11379984D01*
X9607325Y-11379984D02*
X9626372Y-11389508D01*
X9626372Y-11389508D02*
X9635896Y-11399031D01*
X9635896Y-11399031D02*
X9645420Y-11418079D01*
X9645420Y-11418079D02*
X9654944Y-11456174D01*
X9654944Y-11456174D02*
X9654944Y-11503793D01*
X9654944Y-11503793D02*
X9645420Y-11541888D01*
X9645420Y-11541888D02*
X9635896Y-11560936D01*
X9635896Y-11560936D02*
X9626372Y-11570460D01*
X9626372Y-11570460D02*
X9607325Y-11579984D01*
X9607325Y-11579984D02*
X9588277Y-11579984D01*
X9588277Y-11579984D02*
X9569229Y-11570460D01*
X9569229Y-11570460D02*
X9559706Y-11560936D01*
X9559706Y-11560936D02*
X9550182Y-11541888D01*
X9550182Y-11541888D02*
X9540658Y-11503793D01*
X9540658Y-11503793D02*
X9540658Y-11456174D01*
X9540658Y-11456174D02*
X9550182Y-11418079D01*
X9550182Y-11418079D02*
X9559706Y-11399031D01*
X9559706Y-11399031D02*
X9569229Y-11389508D01*
X9569229Y-11389508D02*
X9588277Y-11379984D01*
X9731134Y-11379984D02*
X9731134Y-11418079D01*
X9807325Y-11379984D02*
X9807325Y-11418079D01*
X10102563Y-11656174D02*
X10093039Y-11646650D01*
X10093039Y-11646650D02*
X10073991Y-11618079D01*
X10073991Y-11618079D02*
X10064468Y-11599031D01*
X10064468Y-11599031D02*
X10054944Y-11570460D01*
X10054944Y-11570460D02*
X10045420Y-11522841D01*
X10045420Y-11522841D02*
X10045420Y-11484746D01*
X10045420Y-11484746D02*
X10054944Y-11437127D01*
X10054944Y-11437127D02*
X10064468Y-11408555D01*
X10064468Y-11408555D02*
X10073991Y-11389508D01*
X10073991Y-11389508D02*
X10093039Y-11360936D01*
X10093039Y-11360936D02*
X10102563Y-11351412D01*
X10283515Y-11579984D02*
X10169230Y-11579984D01*
X10226372Y-11579984D02*
X10226372Y-11379984D01*
X10226372Y-11379984D02*
X10207325Y-11408555D01*
X10207325Y-11408555D02*
X10188277Y-11427603D01*
X10188277Y-11427603D02*
X10169230Y-11437127D01*
X10454944Y-11379984D02*
X10416849Y-11379984D01*
X10416849Y-11379984D02*
X10397801Y-11389508D01*
X10397801Y-11389508D02*
X10388277Y-11399031D01*
X10388277Y-11399031D02*
X10369230Y-11427603D01*
X10369230Y-11427603D02*
X10359706Y-11465698D01*
X10359706Y-11465698D02*
X10359706Y-11541888D01*
X10359706Y-11541888D02*
X10369230Y-11560936D01*
X10369230Y-11560936D02*
X10378753Y-11570460D01*
X10378753Y-11570460D02*
X10397801Y-11579984D01*
X10397801Y-11579984D02*
X10435896Y-11579984D01*
X10435896Y-11579984D02*
X10454944Y-11570460D01*
X10454944Y-11570460D02*
X10464468Y-11560936D01*
X10464468Y-11560936D02*
X10473991Y-11541888D01*
X10473991Y-11541888D02*
X10473991Y-11494269D01*
X10473991Y-11494269D02*
X10464468Y-11475222D01*
X10464468Y-11475222D02*
X10454944Y-11465698D01*
X10454944Y-11465698D02*
X10435896Y-11456174D01*
X10435896Y-11456174D02*
X10397801Y-11456174D01*
X10397801Y-11456174D02*
X10378753Y-11465698D01*
X10378753Y-11465698D02*
X10369230Y-11475222D01*
X10369230Y-11475222D02*
X10359706Y-11494269D01*
X10712087Y-11579984D02*
X10712087Y-11379984D01*
X10797801Y-11579984D02*
X10797801Y-11475222D01*
X10797801Y-11475222D02*
X10788277Y-11456174D01*
X10788277Y-11456174D02*
X10769230Y-11446650D01*
X10769230Y-11446650D02*
X10740658Y-11446650D01*
X10740658Y-11446650D02*
X10721611Y-11456174D01*
X10721611Y-11456174D02*
X10712087Y-11465698D01*
X10921611Y-11579984D02*
X10902563Y-11570460D01*
X10902563Y-11570460D02*
X10893039Y-11560936D01*
X10893039Y-11560936D02*
X10883515Y-11541888D01*
X10883515Y-11541888D02*
X10883515Y-11484746D01*
X10883515Y-11484746D02*
X10893039Y-11465698D01*
X10893039Y-11465698D02*
X10902563Y-11456174D01*
X10902563Y-11456174D02*
X10921611Y-11446650D01*
X10921611Y-11446650D02*
X10950182Y-11446650D01*
X10950182Y-11446650D02*
X10969230Y-11456174D01*
X10969230Y-11456174D02*
X10978753Y-11465698D01*
X10978753Y-11465698D02*
X10988277Y-11484746D01*
X10988277Y-11484746D02*
X10988277Y-11541888D01*
X10988277Y-11541888D02*
X10978753Y-11560936D01*
X10978753Y-11560936D02*
X10969230Y-11570460D01*
X10969230Y-11570460D02*
X10950182Y-11579984D01*
X10950182Y-11579984D02*
X10921611Y-11579984D01*
X11102563Y-11579984D02*
X11083515Y-11570460D01*
X11083515Y-11570460D02*
X11073992Y-11551412D01*
X11073992Y-11551412D02*
X11073992Y-11379984D01*
X11254944Y-11570460D02*
X11235896Y-11579984D01*
X11235896Y-11579984D02*
X11197801Y-11579984D01*
X11197801Y-11579984D02*
X11178753Y-11570460D01*
X11178753Y-11570460D02*
X11169230Y-11551412D01*
X11169230Y-11551412D02*
X11169230Y-11475222D01*
X11169230Y-11475222D02*
X11178753Y-11456174D01*
X11178753Y-11456174D02*
X11197801Y-11446650D01*
X11197801Y-11446650D02*
X11235896Y-11446650D01*
X11235896Y-11446650D02*
X11254944Y-11456174D01*
X11254944Y-11456174D02*
X11264468Y-11475222D01*
X11264468Y-11475222D02*
X11264468Y-11494269D01*
X11264468Y-11494269D02*
X11169230Y-11513317D01*
X11340658Y-11570460D02*
X11359706Y-11579984D01*
X11359706Y-11579984D02*
X11397801Y-11579984D01*
X11397801Y-11579984D02*
X11416849Y-11570460D01*
X11416849Y-11570460D02*
X11426372Y-11551412D01*
X11426372Y-11551412D02*
X11426372Y-11541888D01*
X11426372Y-11541888D02*
X11416849Y-11522841D01*
X11416849Y-11522841D02*
X11397801Y-11513317D01*
X11397801Y-11513317D02*
X11369230Y-11513317D01*
X11369230Y-11513317D02*
X11350182Y-11503793D01*
X11350182Y-11503793D02*
X11340658Y-11484746D01*
X11340658Y-11484746D02*
X11340658Y-11475222D01*
X11340658Y-11475222D02*
X11350182Y-11456174D01*
X11350182Y-11456174D02*
X11369230Y-11446650D01*
X11369230Y-11446650D02*
X11397801Y-11446650D01*
X11397801Y-11446650D02*
X11416849Y-11456174D01*
X11493039Y-11656174D02*
X11502563Y-11646650D01*
X11502563Y-11646650D02*
X11521611Y-11618079D01*
X11521611Y-11618079D02*
X11531134Y-11599031D01*
X11531134Y-11599031D02*
X11540658Y-11570460D01*
X11540658Y-11570460D02*
X11550182Y-11522841D01*
X11550182Y-11522841D02*
X11550182Y-11484746D01*
X11550182Y-11484746D02*
X11540658Y-11437127D01*
X11540658Y-11437127D02*
X11531134Y-11408555D01*
X11531134Y-11408555D02*
X11521611Y-11389508D01*
X11521611Y-11389508D02*
X11502563Y-11360936D01*
X11502563Y-11360936D02*
X11493039Y-11351412D01*
D12*
X6480510Y-11705510D02*
X6480510Y-11799490D01*
X6433520Y-11752500D02*
X6527500Y-11752500D01*
D11*
X6826372Y-11643984D02*
X6845420Y-11643984D01*
X6845420Y-11643984D02*
X6864467Y-11653508D01*
X6864467Y-11653508D02*
X6873991Y-11663031D01*
X6873991Y-11663031D02*
X6883515Y-11682079D01*
X6883515Y-11682079D02*
X6893039Y-11720174D01*
X6893039Y-11720174D02*
X6893039Y-11767793D01*
X6893039Y-11767793D02*
X6883515Y-11805888D01*
X6883515Y-11805888D02*
X6873991Y-11824936D01*
X6873991Y-11824936D02*
X6864467Y-11834460D01*
X6864467Y-11834460D02*
X6845420Y-11843984D01*
X6845420Y-11843984D02*
X6826372Y-11843984D01*
X6826372Y-11843984D02*
X6807324Y-11834460D01*
X6807324Y-11834460D02*
X6797801Y-11824936D01*
X6797801Y-11824936D02*
X6788277Y-11805888D01*
X6788277Y-11805888D02*
X6778753Y-11767793D01*
X6778753Y-11767793D02*
X6778753Y-11720174D01*
X6778753Y-11720174D02*
X6788277Y-11682079D01*
X6788277Y-11682079D02*
X6797801Y-11663031D01*
X6797801Y-11663031D02*
X6807324Y-11653508D01*
X6807324Y-11653508D02*
X6826372Y-11643984D01*
X6978753Y-11824936D02*
X6988277Y-11834460D01*
X6988277Y-11834460D02*
X6978753Y-11843984D01*
X6978753Y-11843984D02*
X6969229Y-11834460D01*
X6969229Y-11834460D02*
X6978753Y-11824936D01*
X6978753Y-11824936D02*
X6978753Y-11843984D01*
X7083515Y-11843984D02*
X7121610Y-11843984D01*
X7121610Y-11843984D02*
X7140658Y-11834460D01*
X7140658Y-11834460D02*
X7150182Y-11824936D01*
X7150182Y-11824936D02*
X7169229Y-11796365D01*
X7169229Y-11796365D02*
X7178753Y-11758269D01*
X7178753Y-11758269D02*
X7178753Y-11682079D01*
X7178753Y-11682079D02*
X7169229Y-11663031D01*
X7169229Y-11663031D02*
X7159705Y-11653508D01*
X7159705Y-11653508D02*
X7140658Y-11643984D01*
X7140658Y-11643984D02*
X7102562Y-11643984D01*
X7102562Y-11643984D02*
X7083515Y-11653508D01*
X7083515Y-11653508D02*
X7073991Y-11663031D01*
X7073991Y-11663031D02*
X7064467Y-11682079D01*
X7064467Y-11682079D02*
X7064467Y-11729698D01*
X7064467Y-11729698D02*
X7073991Y-11748746D01*
X7073991Y-11748746D02*
X7083515Y-11758269D01*
X7083515Y-11758269D02*
X7102562Y-11767793D01*
X7102562Y-11767793D02*
X7140658Y-11767793D01*
X7140658Y-11767793D02*
X7159705Y-11758269D01*
X7159705Y-11758269D02*
X7169229Y-11748746D01*
X7169229Y-11748746D02*
X7178753Y-11729698D01*
X7350182Y-11710650D02*
X7350182Y-11843984D01*
X7302562Y-11634460D02*
X7254943Y-11777317D01*
X7254943Y-11777317D02*
X7378753Y-11777317D01*
X7493039Y-11643984D02*
X7512086Y-11643984D01*
X7512086Y-11643984D02*
X7531134Y-11653508D01*
X7531134Y-11653508D02*
X7540658Y-11663031D01*
X7540658Y-11663031D02*
X7550182Y-11682079D01*
X7550182Y-11682079D02*
X7559705Y-11720174D01*
X7559705Y-11720174D02*
X7559705Y-11767793D01*
X7559705Y-11767793D02*
X7550182Y-11805888D01*
X7550182Y-11805888D02*
X7540658Y-11824936D01*
X7540658Y-11824936D02*
X7531134Y-11834460D01*
X7531134Y-11834460D02*
X7512086Y-11843984D01*
X7512086Y-11843984D02*
X7493039Y-11843984D01*
X7493039Y-11843984D02*
X7473991Y-11834460D01*
X7473991Y-11834460D02*
X7464467Y-11824936D01*
X7464467Y-11824936D02*
X7454943Y-11805888D01*
X7454943Y-11805888D02*
X7445420Y-11767793D01*
X7445420Y-11767793D02*
X7445420Y-11720174D01*
X7445420Y-11720174D02*
X7454943Y-11682079D01*
X7454943Y-11682079D02*
X7464467Y-11663031D01*
X7464467Y-11663031D02*
X7473991Y-11653508D01*
X7473991Y-11653508D02*
X7493039Y-11643984D01*
X7645420Y-11843984D02*
X7645420Y-11710650D01*
X7645420Y-11729698D02*
X7654943Y-11720174D01*
X7654943Y-11720174D02*
X7673991Y-11710650D01*
X7673991Y-11710650D02*
X7702563Y-11710650D01*
X7702563Y-11710650D02*
X7721610Y-11720174D01*
X7721610Y-11720174D02*
X7731134Y-11739222D01*
X7731134Y-11739222D02*
X7731134Y-11843984D01*
X7731134Y-11739222D02*
X7740658Y-11720174D01*
X7740658Y-11720174D02*
X7759705Y-11710650D01*
X7759705Y-11710650D02*
X7788277Y-11710650D01*
X7788277Y-11710650D02*
X7807324Y-11720174D01*
X7807324Y-11720174D02*
X7816848Y-11739222D01*
X7816848Y-11739222D02*
X7816848Y-11843984D01*
X7912086Y-11843984D02*
X7912086Y-11710650D01*
X7912086Y-11729698D02*
X7921610Y-11720174D01*
X7921610Y-11720174D02*
X7940658Y-11710650D01*
X7940658Y-11710650D02*
X7969229Y-11710650D01*
X7969229Y-11710650D02*
X7988277Y-11720174D01*
X7988277Y-11720174D02*
X7997801Y-11739222D01*
X7997801Y-11739222D02*
X7997801Y-11843984D01*
X7997801Y-11739222D02*
X8007324Y-11720174D01*
X8007324Y-11720174D02*
X8026372Y-11710650D01*
X8026372Y-11710650D02*
X8054943Y-11710650D01*
X8054943Y-11710650D02*
X8073991Y-11720174D01*
X8073991Y-11720174D02*
X8083515Y-11739222D01*
X8083515Y-11739222D02*
X8083515Y-11843984D01*
X8473991Y-11634460D02*
X8302563Y-11891603D01*
X8731134Y-11643984D02*
X8750182Y-11643984D01*
X8750182Y-11643984D02*
X8769229Y-11653508D01*
X8769229Y-11653508D02*
X8778753Y-11663031D01*
X8778753Y-11663031D02*
X8788277Y-11682079D01*
X8788277Y-11682079D02*
X8797801Y-11720174D01*
X8797801Y-11720174D02*
X8797801Y-11767793D01*
X8797801Y-11767793D02*
X8788277Y-11805888D01*
X8788277Y-11805888D02*
X8778753Y-11824936D01*
X8778753Y-11824936D02*
X8769229Y-11834460D01*
X8769229Y-11834460D02*
X8750182Y-11843984D01*
X8750182Y-11843984D02*
X8731134Y-11843984D01*
X8731134Y-11843984D02*
X8712087Y-11834460D01*
X8712087Y-11834460D02*
X8702563Y-11824936D01*
X8702563Y-11824936D02*
X8693039Y-11805888D01*
X8693039Y-11805888D02*
X8683515Y-11767793D01*
X8683515Y-11767793D02*
X8683515Y-11720174D01*
X8683515Y-11720174D02*
X8693039Y-11682079D01*
X8693039Y-11682079D02*
X8702563Y-11663031D01*
X8702563Y-11663031D02*
X8712087Y-11653508D01*
X8712087Y-11653508D02*
X8731134Y-11643984D01*
X8883515Y-11824936D02*
X8893039Y-11834460D01*
X8893039Y-11834460D02*
X8883515Y-11843984D01*
X8883515Y-11843984D02*
X8873991Y-11834460D01*
X8873991Y-11834460D02*
X8883515Y-11824936D01*
X8883515Y-11824936D02*
X8883515Y-11843984D01*
X9016848Y-11643984D02*
X9035896Y-11643984D01*
X9035896Y-11643984D02*
X9054944Y-11653508D01*
X9054944Y-11653508D02*
X9064468Y-11663031D01*
X9064468Y-11663031D02*
X9073991Y-11682079D01*
X9073991Y-11682079D02*
X9083515Y-11720174D01*
X9083515Y-11720174D02*
X9083515Y-11767793D01*
X9083515Y-11767793D02*
X9073991Y-11805888D01*
X9073991Y-11805888D02*
X9064468Y-11824936D01*
X9064468Y-11824936D02*
X9054944Y-11834460D01*
X9054944Y-11834460D02*
X9035896Y-11843984D01*
X9035896Y-11843984D02*
X9016848Y-11843984D01*
X9016848Y-11843984D02*
X8997801Y-11834460D01*
X8997801Y-11834460D02*
X8988277Y-11824936D01*
X8988277Y-11824936D02*
X8978753Y-11805888D01*
X8978753Y-11805888D02*
X8969229Y-11767793D01*
X8969229Y-11767793D02*
X8969229Y-11720174D01*
X8969229Y-11720174D02*
X8978753Y-11682079D01*
X8978753Y-11682079D02*
X8988277Y-11663031D01*
X8988277Y-11663031D02*
X8997801Y-11653508D01*
X8997801Y-11653508D02*
X9016848Y-11643984D01*
X9150182Y-11643984D02*
X9273991Y-11643984D01*
X9273991Y-11643984D02*
X9207325Y-11720174D01*
X9207325Y-11720174D02*
X9235896Y-11720174D01*
X9235896Y-11720174D02*
X9254944Y-11729698D01*
X9254944Y-11729698D02*
X9264468Y-11739222D01*
X9264468Y-11739222D02*
X9273991Y-11758269D01*
X9273991Y-11758269D02*
X9273991Y-11805888D01*
X9273991Y-11805888D02*
X9264468Y-11824936D01*
X9264468Y-11824936D02*
X9254944Y-11834460D01*
X9254944Y-11834460D02*
X9235896Y-11843984D01*
X9235896Y-11843984D02*
X9178753Y-11843984D01*
X9178753Y-11843984D02*
X9159706Y-11834460D01*
X9159706Y-11834460D02*
X9150182Y-11824936D01*
X9340658Y-11643984D02*
X9473991Y-11643984D01*
X9473991Y-11643984D02*
X9388277Y-11843984D01*
X9588277Y-11643984D02*
X9607325Y-11643984D01*
X9607325Y-11643984D02*
X9626372Y-11653508D01*
X9626372Y-11653508D02*
X9635896Y-11663031D01*
X9635896Y-11663031D02*
X9645420Y-11682079D01*
X9645420Y-11682079D02*
X9654944Y-11720174D01*
X9654944Y-11720174D02*
X9654944Y-11767793D01*
X9654944Y-11767793D02*
X9645420Y-11805888D01*
X9645420Y-11805888D02*
X9635896Y-11824936D01*
X9635896Y-11824936D02*
X9626372Y-11834460D01*
X9626372Y-11834460D02*
X9607325Y-11843984D01*
X9607325Y-11843984D02*
X9588277Y-11843984D01*
X9588277Y-11843984D02*
X9569229Y-11834460D01*
X9569229Y-11834460D02*
X9559706Y-11824936D01*
X9559706Y-11824936D02*
X9550182Y-11805888D01*
X9550182Y-11805888D02*
X9540658Y-11767793D01*
X9540658Y-11767793D02*
X9540658Y-11720174D01*
X9540658Y-11720174D02*
X9550182Y-11682079D01*
X9550182Y-11682079D02*
X9559706Y-11663031D01*
X9559706Y-11663031D02*
X9569229Y-11653508D01*
X9569229Y-11653508D02*
X9588277Y-11643984D01*
X9731134Y-11643984D02*
X9731134Y-11682079D01*
X9807325Y-11643984D02*
X9807325Y-11682079D01*
X10102563Y-11920174D02*
X10093039Y-11910650D01*
X10093039Y-11910650D02*
X10073991Y-11882079D01*
X10073991Y-11882079D02*
X10064468Y-11863031D01*
X10064468Y-11863031D02*
X10054944Y-11834460D01*
X10054944Y-11834460D02*
X10045420Y-11786841D01*
X10045420Y-11786841D02*
X10045420Y-11748746D01*
X10045420Y-11748746D02*
X10054944Y-11701127D01*
X10054944Y-11701127D02*
X10064468Y-11672555D01*
X10064468Y-11672555D02*
X10073991Y-11653508D01*
X10073991Y-11653508D02*
X10093039Y-11624936D01*
X10093039Y-11624936D02*
X10102563Y-11615412D01*
X10283515Y-11843984D02*
X10169230Y-11843984D01*
X10226372Y-11843984D02*
X10226372Y-11643984D01*
X10226372Y-11643984D02*
X10207325Y-11672555D01*
X10207325Y-11672555D02*
X10188277Y-11691603D01*
X10188277Y-11691603D02*
X10169230Y-11701127D01*
X10454944Y-11643984D02*
X10416849Y-11643984D01*
X10416849Y-11643984D02*
X10397801Y-11653508D01*
X10397801Y-11653508D02*
X10388277Y-11663031D01*
X10388277Y-11663031D02*
X10369230Y-11691603D01*
X10369230Y-11691603D02*
X10359706Y-11729698D01*
X10359706Y-11729698D02*
X10359706Y-11805888D01*
X10359706Y-11805888D02*
X10369230Y-11824936D01*
X10369230Y-11824936D02*
X10378753Y-11834460D01*
X10378753Y-11834460D02*
X10397801Y-11843984D01*
X10397801Y-11843984D02*
X10435896Y-11843984D01*
X10435896Y-11843984D02*
X10454944Y-11834460D01*
X10454944Y-11834460D02*
X10464468Y-11824936D01*
X10464468Y-11824936D02*
X10473991Y-11805888D01*
X10473991Y-11805888D02*
X10473991Y-11758269D01*
X10473991Y-11758269D02*
X10464468Y-11739222D01*
X10464468Y-11739222D02*
X10454944Y-11729698D01*
X10454944Y-11729698D02*
X10435896Y-11720174D01*
X10435896Y-11720174D02*
X10397801Y-11720174D01*
X10397801Y-11720174D02*
X10378753Y-11729698D01*
X10378753Y-11729698D02*
X10369230Y-11739222D01*
X10369230Y-11739222D02*
X10359706Y-11758269D01*
X10712087Y-11843984D02*
X10712087Y-11643984D01*
X10797801Y-11843984D02*
X10797801Y-11739222D01*
X10797801Y-11739222D02*
X10788277Y-11720174D01*
X10788277Y-11720174D02*
X10769230Y-11710650D01*
X10769230Y-11710650D02*
X10740658Y-11710650D01*
X10740658Y-11710650D02*
X10721611Y-11720174D01*
X10721611Y-11720174D02*
X10712087Y-11729698D01*
X10921611Y-11843984D02*
X10902563Y-11834460D01*
X10902563Y-11834460D02*
X10893039Y-11824936D01*
X10893039Y-11824936D02*
X10883515Y-11805888D01*
X10883515Y-11805888D02*
X10883515Y-11748746D01*
X10883515Y-11748746D02*
X10893039Y-11729698D01*
X10893039Y-11729698D02*
X10902563Y-11720174D01*
X10902563Y-11720174D02*
X10921611Y-11710650D01*
X10921611Y-11710650D02*
X10950182Y-11710650D01*
X10950182Y-11710650D02*
X10969230Y-11720174D01*
X10969230Y-11720174D02*
X10978753Y-11729698D01*
X10978753Y-11729698D02*
X10988277Y-11748746D01*
X10988277Y-11748746D02*
X10988277Y-11805888D01*
X10988277Y-11805888D02*
X10978753Y-11824936D01*
X10978753Y-11824936D02*
X10969230Y-11834460D01*
X10969230Y-11834460D02*
X10950182Y-11843984D01*
X10950182Y-11843984D02*
X10921611Y-11843984D01*
X11102563Y-11843984D02*
X11083515Y-11834460D01*
X11083515Y-11834460D02*
X11073992Y-11815412D01*
X11073992Y-11815412D02*
X11073992Y-11643984D01*
X11254944Y-11834460D02*
X11235896Y-11843984D01*
X11235896Y-11843984D02*
X11197801Y-11843984D01*
X11197801Y-11843984D02*
X11178753Y-11834460D01*
X11178753Y-11834460D02*
X11169230Y-11815412D01*
X11169230Y-11815412D02*
X11169230Y-11739222D01*
X11169230Y-11739222D02*
X11178753Y-11720174D01*
X11178753Y-11720174D02*
X11197801Y-11710650D01*
X11197801Y-11710650D02*
X11235896Y-11710650D01*
X11235896Y-11710650D02*
X11254944Y-11720174D01*
X11254944Y-11720174D02*
X11264468Y-11739222D01*
X11264468Y-11739222D02*
X11264468Y-11758269D01*
X11264468Y-11758269D02*
X11169230Y-11777317D01*
X11340658Y-11834460D02*
X11359706Y-11843984D01*
X11359706Y-11843984D02*
X11397801Y-11843984D01*
X11397801Y-11843984D02*
X11416849Y-11834460D01*
X11416849Y-11834460D02*
X11426372Y-11815412D01*
X11426372Y-11815412D02*
X11426372Y-11805888D01*
X11426372Y-11805888D02*
X11416849Y-11786841D01*
X11416849Y-11786841D02*
X11397801Y-11777317D01*
X11397801Y-11777317D02*
X11369230Y-11777317D01*
X11369230Y-11777317D02*
X11350182Y-11767793D01*
X11350182Y-11767793D02*
X11340658Y-11748746D01*
X11340658Y-11748746D02*
X11340658Y-11739222D01*
X11340658Y-11739222D02*
X11350182Y-11720174D01*
X11350182Y-11720174D02*
X11369230Y-11710650D01*
X11369230Y-11710650D02*
X11397801Y-11710650D01*
X11397801Y-11710650D02*
X11416849Y-11720174D01*
X11493039Y-11920174D02*
X11502563Y-11910650D01*
X11502563Y-11910650D02*
X11521611Y-11882079D01*
X11521611Y-11882079D02*
X11531134Y-11863031D01*
X11531134Y-11863031D02*
X11540658Y-11834460D01*
X11540658Y-11834460D02*
X11550182Y-11786841D01*
X11550182Y-11786841D02*
X11550182Y-11748746D01*
X11550182Y-11748746D02*
X11540658Y-11701127D01*
X11540658Y-11701127D02*
X11531134Y-11672555D01*
X11531134Y-11672555D02*
X11521611Y-11653508D01*
X11521611Y-11653508D02*
X11502563Y-11624936D01*
X11502563Y-11624936D02*
X11493039Y-11615412D01*
D13*
X6511391Y-12055391D02*
X6511391Y-11977609D01*
X6433609Y-11977609D01*
X6433609Y-12055391D01*
X6511391Y-12055391D01*
D11*
X6893039Y-12107984D02*
X6778753Y-12107984D01*
X6835896Y-12107984D02*
X6835896Y-11907984D01*
X6835896Y-11907984D02*
X6816848Y-11936555D01*
X6816848Y-11936555D02*
X6797801Y-11955603D01*
X6797801Y-11955603D02*
X6778753Y-11965127D01*
X6978753Y-12088936D02*
X6988277Y-12098460D01*
X6988277Y-12098460D02*
X6978753Y-12107984D01*
X6978753Y-12107984D02*
X6969229Y-12098460D01*
X6969229Y-12098460D02*
X6978753Y-12088936D01*
X6978753Y-12088936D02*
X6978753Y-12107984D01*
X7178753Y-12107984D02*
X7064467Y-12107984D01*
X7121610Y-12107984D02*
X7121610Y-11907984D01*
X7121610Y-11907984D02*
X7102562Y-11936555D01*
X7102562Y-11936555D02*
X7083515Y-11955603D01*
X7083515Y-11955603D02*
X7064467Y-11965127D01*
X7302562Y-11907984D02*
X7321610Y-11907984D01*
X7321610Y-11907984D02*
X7340658Y-11917508D01*
X7340658Y-11917508D02*
X7350182Y-11927031D01*
X7350182Y-11927031D02*
X7359705Y-11946079D01*
X7359705Y-11946079D02*
X7369229Y-11984174D01*
X7369229Y-11984174D02*
X7369229Y-12031793D01*
X7369229Y-12031793D02*
X7359705Y-12069888D01*
X7359705Y-12069888D02*
X7350182Y-12088936D01*
X7350182Y-12088936D02*
X7340658Y-12098460D01*
X7340658Y-12098460D02*
X7321610Y-12107984D01*
X7321610Y-12107984D02*
X7302562Y-12107984D01*
X7302562Y-12107984D02*
X7283515Y-12098460D01*
X7283515Y-12098460D02*
X7273991Y-12088936D01*
X7273991Y-12088936D02*
X7264467Y-12069888D01*
X7264467Y-12069888D02*
X7254943Y-12031793D01*
X7254943Y-12031793D02*
X7254943Y-11984174D01*
X7254943Y-11984174D02*
X7264467Y-11946079D01*
X7264467Y-11946079D02*
X7273991Y-11927031D01*
X7273991Y-11927031D02*
X7283515Y-11917508D01*
X7283515Y-11917508D02*
X7302562Y-11907984D01*
X7493039Y-11907984D02*
X7512086Y-11907984D01*
X7512086Y-11907984D02*
X7531134Y-11917508D01*
X7531134Y-11917508D02*
X7540658Y-11927031D01*
X7540658Y-11927031D02*
X7550182Y-11946079D01*
X7550182Y-11946079D02*
X7559705Y-11984174D01*
X7559705Y-11984174D02*
X7559705Y-12031793D01*
X7559705Y-12031793D02*
X7550182Y-12069888D01*
X7550182Y-12069888D02*
X7540658Y-12088936D01*
X7540658Y-12088936D02*
X7531134Y-12098460D01*
X7531134Y-12098460D02*
X7512086Y-12107984D01*
X7512086Y-12107984D02*
X7493039Y-12107984D01*
X7493039Y-12107984D02*
X7473991Y-12098460D01*
X7473991Y-12098460D02*
X7464467Y-12088936D01*
X7464467Y-12088936D02*
X7454943Y-12069888D01*
X7454943Y-12069888D02*
X7445420Y-12031793D01*
X7445420Y-12031793D02*
X7445420Y-11984174D01*
X7445420Y-11984174D02*
X7454943Y-11946079D01*
X7454943Y-11946079D02*
X7464467Y-11927031D01*
X7464467Y-11927031D02*
X7473991Y-11917508D01*
X7473991Y-11917508D02*
X7493039Y-11907984D01*
X7645420Y-12107984D02*
X7645420Y-11974650D01*
X7645420Y-11993698D02*
X7654943Y-11984174D01*
X7654943Y-11984174D02*
X7673991Y-11974650D01*
X7673991Y-11974650D02*
X7702563Y-11974650D01*
X7702563Y-11974650D02*
X7721610Y-11984174D01*
X7721610Y-11984174D02*
X7731134Y-12003222D01*
X7731134Y-12003222D02*
X7731134Y-12107984D01*
X7731134Y-12003222D02*
X7740658Y-11984174D01*
X7740658Y-11984174D02*
X7759705Y-11974650D01*
X7759705Y-11974650D02*
X7788277Y-11974650D01*
X7788277Y-11974650D02*
X7807324Y-11984174D01*
X7807324Y-11984174D02*
X7816848Y-12003222D01*
X7816848Y-12003222D02*
X7816848Y-12107984D01*
X7912086Y-12107984D02*
X7912086Y-11974650D01*
X7912086Y-11993698D02*
X7921610Y-11984174D01*
X7921610Y-11984174D02*
X7940658Y-11974650D01*
X7940658Y-11974650D02*
X7969229Y-11974650D01*
X7969229Y-11974650D02*
X7988277Y-11984174D01*
X7988277Y-11984174D02*
X7997801Y-12003222D01*
X7997801Y-12003222D02*
X7997801Y-12107984D01*
X7997801Y-12003222D02*
X8007324Y-11984174D01*
X8007324Y-11984174D02*
X8026372Y-11974650D01*
X8026372Y-11974650D02*
X8054943Y-11974650D01*
X8054943Y-11974650D02*
X8073991Y-11984174D01*
X8073991Y-11984174D02*
X8083515Y-12003222D01*
X8083515Y-12003222D02*
X8083515Y-12107984D01*
X8473991Y-11898460D02*
X8302563Y-12155603D01*
X8731134Y-11907984D02*
X8750182Y-11907984D01*
X8750182Y-11907984D02*
X8769229Y-11917508D01*
X8769229Y-11917508D02*
X8778753Y-11927031D01*
X8778753Y-11927031D02*
X8788277Y-11946079D01*
X8788277Y-11946079D02*
X8797801Y-11984174D01*
X8797801Y-11984174D02*
X8797801Y-12031793D01*
X8797801Y-12031793D02*
X8788277Y-12069888D01*
X8788277Y-12069888D02*
X8778753Y-12088936D01*
X8778753Y-12088936D02*
X8769229Y-12098460D01*
X8769229Y-12098460D02*
X8750182Y-12107984D01*
X8750182Y-12107984D02*
X8731134Y-12107984D01*
X8731134Y-12107984D02*
X8712087Y-12098460D01*
X8712087Y-12098460D02*
X8702563Y-12088936D01*
X8702563Y-12088936D02*
X8693039Y-12069888D01*
X8693039Y-12069888D02*
X8683515Y-12031793D01*
X8683515Y-12031793D02*
X8683515Y-11984174D01*
X8683515Y-11984174D02*
X8693039Y-11946079D01*
X8693039Y-11946079D02*
X8702563Y-11927031D01*
X8702563Y-11927031D02*
X8712087Y-11917508D01*
X8712087Y-11917508D02*
X8731134Y-11907984D01*
X8883515Y-12088936D02*
X8893039Y-12098460D01*
X8893039Y-12098460D02*
X8883515Y-12107984D01*
X8883515Y-12107984D02*
X8873991Y-12098460D01*
X8873991Y-12098460D02*
X8883515Y-12088936D01*
X8883515Y-12088936D02*
X8883515Y-12107984D01*
X9016848Y-11907984D02*
X9035896Y-11907984D01*
X9035896Y-11907984D02*
X9054944Y-11917508D01*
X9054944Y-11917508D02*
X9064468Y-11927031D01*
X9064468Y-11927031D02*
X9073991Y-11946079D01*
X9073991Y-11946079D02*
X9083515Y-11984174D01*
X9083515Y-11984174D02*
X9083515Y-12031793D01*
X9083515Y-12031793D02*
X9073991Y-12069888D01*
X9073991Y-12069888D02*
X9064468Y-12088936D01*
X9064468Y-12088936D02*
X9054944Y-12098460D01*
X9054944Y-12098460D02*
X9035896Y-12107984D01*
X9035896Y-12107984D02*
X9016848Y-12107984D01*
X9016848Y-12107984D02*
X8997801Y-12098460D01*
X8997801Y-12098460D02*
X8988277Y-12088936D01*
X8988277Y-12088936D02*
X8978753Y-12069888D01*
X8978753Y-12069888D02*
X8969229Y-12031793D01*
X8969229Y-12031793D02*
X8969229Y-11984174D01*
X8969229Y-11984174D02*
X8978753Y-11946079D01*
X8978753Y-11946079D02*
X8988277Y-11927031D01*
X8988277Y-11927031D02*
X8997801Y-11917508D01*
X8997801Y-11917508D02*
X9016848Y-11907984D01*
X9254944Y-11974650D02*
X9254944Y-12107984D01*
X9207325Y-11898460D02*
X9159706Y-12041317D01*
X9159706Y-12041317D02*
X9283515Y-12041317D01*
X9340658Y-11907984D02*
X9464468Y-11907984D01*
X9464468Y-11907984D02*
X9397801Y-11984174D01*
X9397801Y-11984174D02*
X9426372Y-11984174D01*
X9426372Y-11984174D02*
X9445420Y-11993698D01*
X9445420Y-11993698D02*
X9454944Y-12003222D01*
X9454944Y-12003222D02*
X9464468Y-12022269D01*
X9464468Y-12022269D02*
X9464468Y-12069888D01*
X9464468Y-12069888D02*
X9454944Y-12088936D01*
X9454944Y-12088936D02*
X9445420Y-12098460D01*
X9445420Y-12098460D02*
X9426372Y-12107984D01*
X9426372Y-12107984D02*
X9369229Y-12107984D01*
X9369229Y-12107984D02*
X9350182Y-12098460D01*
X9350182Y-12098460D02*
X9340658Y-12088936D01*
X9531134Y-11907984D02*
X9654944Y-11907984D01*
X9654944Y-11907984D02*
X9588277Y-11984174D01*
X9588277Y-11984174D02*
X9616849Y-11984174D01*
X9616849Y-11984174D02*
X9635896Y-11993698D01*
X9635896Y-11993698D02*
X9645420Y-12003222D01*
X9645420Y-12003222D02*
X9654944Y-12022269D01*
X9654944Y-12022269D02*
X9654944Y-12069888D01*
X9654944Y-12069888D02*
X9645420Y-12088936D01*
X9645420Y-12088936D02*
X9635896Y-12098460D01*
X9635896Y-12098460D02*
X9616849Y-12107984D01*
X9616849Y-12107984D02*
X9559706Y-12107984D01*
X9559706Y-12107984D02*
X9540658Y-12098460D01*
X9540658Y-12098460D02*
X9531134Y-12088936D01*
X9731134Y-11907984D02*
X9731134Y-11946079D01*
X9807325Y-11907984D02*
X9807325Y-11946079D01*
X10102563Y-12184174D02*
X10093039Y-12174650D01*
X10093039Y-12174650D02*
X10073991Y-12146079D01*
X10073991Y-12146079D02*
X10064468Y-12127031D01*
X10064468Y-12127031D02*
X10054944Y-12098460D01*
X10054944Y-12098460D02*
X10045420Y-12050841D01*
X10045420Y-12050841D02*
X10045420Y-12012746D01*
X10045420Y-12012746D02*
X10054944Y-11965127D01*
X10054944Y-11965127D02*
X10064468Y-11936555D01*
X10064468Y-11936555D02*
X10073991Y-11917508D01*
X10073991Y-11917508D02*
X10093039Y-11888936D01*
X10093039Y-11888936D02*
X10102563Y-11879412D01*
X10207325Y-11993698D02*
X10188277Y-11984174D01*
X10188277Y-11984174D02*
X10178753Y-11974650D01*
X10178753Y-11974650D02*
X10169230Y-11955603D01*
X10169230Y-11955603D02*
X10169230Y-11946079D01*
X10169230Y-11946079D02*
X10178753Y-11927031D01*
X10178753Y-11927031D02*
X10188277Y-11917508D01*
X10188277Y-11917508D02*
X10207325Y-11907984D01*
X10207325Y-11907984D02*
X10245420Y-11907984D01*
X10245420Y-11907984D02*
X10264468Y-11917508D01*
X10264468Y-11917508D02*
X10273991Y-11927031D01*
X10273991Y-11927031D02*
X10283515Y-11946079D01*
X10283515Y-11946079D02*
X10283515Y-11955603D01*
X10283515Y-11955603D02*
X10273991Y-11974650D01*
X10273991Y-11974650D02*
X10264468Y-11984174D01*
X10264468Y-11984174D02*
X10245420Y-11993698D01*
X10245420Y-11993698D02*
X10207325Y-11993698D01*
X10207325Y-11993698D02*
X10188277Y-12003222D01*
X10188277Y-12003222D02*
X10178753Y-12012746D01*
X10178753Y-12012746D02*
X10169230Y-12031793D01*
X10169230Y-12031793D02*
X10169230Y-12069888D01*
X10169230Y-12069888D02*
X10178753Y-12088936D01*
X10178753Y-12088936D02*
X10188277Y-12098460D01*
X10188277Y-12098460D02*
X10207325Y-12107984D01*
X10207325Y-12107984D02*
X10245420Y-12107984D01*
X10245420Y-12107984D02*
X10264468Y-12098460D01*
X10264468Y-12098460D02*
X10273991Y-12088936D01*
X10273991Y-12088936D02*
X10283515Y-12069888D01*
X10283515Y-12069888D02*
X10283515Y-12031793D01*
X10283515Y-12031793D02*
X10273991Y-12012746D01*
X10273991Y-12012746D02*
X10264468Y-12003222D01*
X10264468Y-12003222D02*
X10245420Y-11993698D01*
X10521611Y-12107984D02*
X10521611Y-11907984D01*
X10607325Y-12107984D02*
X10607325Y-12003222D01*
X10607325Y-12003222D02*
X10597801Y-11984174D01*
X10597801Y-11984174D02*
X10578753Y-11974650D01*
X10578753Y-11974650D02*
X10550182Y-11974650D01*
X10550182Y-11974650D02*
X10531134Y-11984174D01*
X10531134Y-11984174D02*
X10521611Y-11993698D01*
X10731134Y-12107984D02*
X10712087Y-12098460D01*
X10712087Y-12098460D02*
X10702563Y-12088936D01*
X10702563Y-12088936D02*
X10693039Y-12069888D01*
X10693039Y-12069888D02*
X10693039Y-12012746D01*
X10693039Y-12012746D02*
X10702563Y-11993698D01*
X10702563Y-11993698D02*
X10712087Y-11984174D01*
X10712087Y-11984174D02*
X10731134Y-11974650D01*
X10731134Y-11974650D02*
X10759706Y-11974650D01*
X10759706Y-11974650D02*
X10778753Y-11984174D01*
X10778753Y-11984174D02*
X10788277Y-11993698D01*
X10788277Y-11993698D02*
X10797801Y-12012746D01*
X10797801Y-12012746D02*
X10797801Y-12069888D01*
X10797801Y-12069888D02*
X10788277Y-12088936D01*
X10788277Y-12088936D02*
X10778753Y-12098460D01*
X10778753Y-12098460D02*
X10759706Y-12107984D01*
X10759706Y-12107984D02*
X10731134Y-12107984D01*
X10912087Y-12107984D02*
X10893039Y-12098460D01*
X10893039Y-12098460D02*
X10883515Y-12079412D01*
X10883515Y-12079412D02*
X10883515Y-11907984D01*
X11064468Y-12098460D02*
X11045420Y-12107984D01*
X11045420Y-12107984D02*
X11007325Y-12107984D01*
X11007325Y-12107984D02*
X10988277Y-12098460D01*
X10988277Y-12098460D02*
X10978753Y-12079412D01*
X10978753Y-12079412D02*
X10978753Y-12003222D01*
X10978753Y-12003222D02*
X10988277Y-11984174D01*
X10988277Y-11984174D02*
X11007325Y-11974650D01*
X11007325Y-11974650D02*
X11045420Y-11974650D01*
X11045420Y-11974650D02*
X11064468Y-11984174D01*
X11064468Y-11984174D02*
X11073992Y-12003222D01*
X11073992Y-12003222D02*
X11073992Y-12022269D01*
X11073992Y-12022269D02*
X10978753Y-12041317D01*
X11150182Y-12098460D02*
X11169230Y-12107984D01*
X11169230Y-12107984D02*
X11207325Y-12107984D01*
X11207325Y-12107984D02*
X11226372Y-12098460D01*
X11226372Y-12098460D02*
X11235896Y-12079412D01*
X11235896Y-12079412D02*
X11235896Y-12069888D01*
X11235896Y-12069888D02*
X11226372Y-12050841D01*
X11226372Y-12050841D02*
X11207325Y-12041317D01*
X11207325Y-12041317D02*
X11178753Y-12041317D01*
X11178753Y-12041317D02*
X11159706Y-12031793D01*
X11159706Y-12031793D02*
X11150182Y-12012746D01*
X11150182Y-12012746D02*
X11150182Y-12003222D01*
X11150182Y-12003222D02*
X11159706Y-11984174D01*
X11159706Y-11984174D02*
X11178753Y-11974650D01*
X11178753Y-11974650D02*
X11207325Y-11974650D01*
X11207325Y-11974650D02*
X11226372Y-11984174D01*
X11302563Y-12184174D02*
X11312087Y-12174650D01*
X11312087Y-12174650D02*
X11331134Y-12146079D01*
X11331134Y-12146079D02*
X11340658Y-12127031D01*
X11340658Y-12127031D02*
X11350182Y-12098460D01*
X11350182Y-12098460D02*
X11359706Y-12050841D01*
X11359706Y-12050841D02*
X11359706Y-12012746D01*
X11359706Y-12012746D02*
X11350182Y-11965127D01*
X11350182Y-11965127D02*
X11340658Y-11936555D01*
X11340658Y-11936555D02*
X11331134Y-11917508D01*
X11331134Y-11917508D02*
X11312087Y-11888936D01*
X11312087Y-11888936D02*
X11302563Y-11879412D01*
X6427500Y-12380500D02*
X6527500Y-12280500D01*
X6427500Y-12180500D01*
X6327500Y-12280500D01*
X6427500Y-12380500D01*
X6778753Y-12191031D02*
X6788277Y-12181508D01*
X6788277Y-12181508D02*
X6807324Y-12171984D01*
X6807324Y-12171984D02*
X6854943Y-12171984D01*
X6854943Y-12171984D02*
X6873991Y-12181508D01*
X6873991Y-12181508D02*
X6883515Y-12191031D01*
X6883515Y-12191031D02*
X6893039Y-12210079D01*
X6893039Y-12210079D02*
X6893039Y-12229127D01*
X6893039Y-12229127D02*
X6883515Y-12257698D01*
X6883515Y-12257698D02*
X6769229Y-12371984D01*
X6769229Y-12371984D02*
X6893039Y-12371984D01*
X6978753Y-12352936D02*
X6988277Y-12362460D01*
X6988277Y-12362460D02*
X6978753Y-12371984D01*
X6978753Y-12371984D02*
X6969229Y-12362460D01*
X6969229Y-12362460D02*
X6978753Y-12352936D01*
X6978753Y-12352936D02*
X6978753Y-12371984D01*
X7112086Y-12171984D02*
X7131134Y-12171984D01*
X7131134Y-12171984D02*
X7150182Y-12181508D01*
X7150182Y-12181508D02*
X7159705Y-12191031D01*
X7159705Y-12191031D02*
X7169229Y-12210079D01*
X7169229Y-12210079D02*
X7178753Y-12248174D01*
X7178753Y-12248174D02*
X7178753Y-12295793D01*
X7178753Y-12295793D02*
X7169229Y-12333888D01*
X7169229Y-12333888D02*
X7159705Y-12352936D01*
X7159705Y-12352936D02*
X7150182Y-12362460D01*
X7150182Y-12362460D02*
X7131134Y-12371984D01*
X7131134Y-12371984D02*
X7112086Y-12371984D01*
X7112086Y-12371984D02*
X7093039Y-12362460D01*
X7093039Y-12362460D02*
X7083515Y-12352936D01*
X7083515Y-12352936D02*
X7073991Y-12333888D01*
X7073991Y-12333888D02*
X7064467Y-12295793D01*
X7064467Y-12295793D02*
X7064467Y-12248174D01*
X7064467Y-12248174D02*
X7073991Y-12210079D01*
X7073991Y-12210079D02*
X7083515Y-12191031D01*
X7083515Y-12191031D02*
X7093039Y-12181508D01*
X7093039Y-12181508D02*
X7112086Y-12171984D01*
X7359705Y-12171984D02*
X7264467Y-12171984D01*
X7264467Y-12171984D02*
X7254943Y-12267222D01*
X7254943Y-12267222D02*
X7264467Y-12257698D01*
X7264467Y-12257698D02*
X7283515Y-12248174D01*
X7283515Y-12248174D02*
X7331134Y-12248174D01*
X7331134Y-12248174D02*
X7350182Y-12257698D01*
X7350182Y-12257698D02*
X7359705Y-12267222D01*
X7359705Y-12267222D02*
X7369229Y-12286269D01*
X7369229Y-12286269D02*
X7369229Y-12333888D01*
X7369229Y-12333888D02*
X7359705Y-12352936D01*
X7359705Y-12352936D02*
X7350182Y-12362460D01*
X7350182Y-12362460D02*
X7331134Y-12371984D01*
X7331134Y-12371984D02*
X7283515Y-12371984D01*
X7283515Y-12371984D02*
X7264467Y-12362460D01*
X7264467Y-12362460D02*
X7254943Y-12352936D01*
X7493039Y-12171984D02*
X7512086Y-12171984D01*
X7512086Y-12171984D02*
X7531134Y-12181508D01*
X7531134Y-12181508D02*
X7540658Y-12191031D01*
X7540658Y-12191031D02*
X7550182Y-12210079D01*
X7550182Y-12210079D02*
X7559705Y-12248174D01*
X7559705Y-12248174D02*
X7559705Y-12295793D01*
X7559705Y-12295793D02*
X7550182Y-12333888D01*
X7550182Y-12333888D02*
X7540658Y-12352936D01*
X7540658Y-12352936D02*
X7531134Y-12362460D01*
X7531134Y-12362460D02*
X7512086Y-12371984D01*
X7512086Y-12371984D02*
X7493039Y-12371984D01*
X7493039Y-12371984D02*
X7473991Y-12362460D01*
X7473991Y-12362460D02*
X7464467Y-12352936D01*
X7464467Y-12352936D02*
X7454943Y-12333888D01*
X7454943Y-12333888D02*
X7445420Y-12295793D01*
X7445420Y-12295793D02*
X7445420Y-12248174D01*
X7445420Y-12248174D02*
X7454943Y-12210079D01*
X7454943Y-12210079D02*
X7464467Y-12191031D01*
X7464467Y-12191031D02*
X7473991Y-12181508D01*
X7473991Y-12181508D02*
X7493039Y-12171984D01*
X7645420Y-12371984D02*
X7645420Y-12238650D01*
X7645420Y-12257698D02*
X7654943Y-12248174D01*
X7654943Y-12248174D02*
X7673991Y-12238650D01*
X7673991Y-12238650D02*
X7702563Y-12238650D01*
X7702563Y-12238650D02*
X7721610Y-12248174D01*
X7721610Y-12248174D02*
X7731134Y-12267222D01*
X7731134Y-12267222D02*
X7731134Y-12371984D01*
X7731134Y-12267222D02*
X7740658Y-12248174D01*
X7740658Y-12248174D02*
X7759705Y-12238650D01*
X7759705Y-12238650D02*
X7788277Y-12238650D01*
X7788277Y-12238650D02*
X7807324Y-12248174D01*
X7807324Y-12248174D02*
X7816848Y-12267222D01*
X7816848Y-12267222D02*
X7816848Y-12371984D01*
X7912086Y-12371984D02*
X7912086Y-12238650D01*
X7912086Y-12257698D02*
X7921610Y-12248174D01*
X7921610Y-12248174D02*
X7940658Y-12238650D01*
X7940658Y-12238650D02*
X7969229Y-12238650D01*
X7969229Y-12238650D02*
X7988277Y-12248174D01*
X7988277Y-12248174D02*
X7997801Y-12267222D01*
X7997801Y-12267222D02*
X7997801Y-12371984D01*
X7997801Y-12267222D02*
X8007324Y-12248174D01*
X8007324Y-12248174D02*
X8026372Y-12238650D01*
X8026372Y-12238650D02*
X8054943Y-12238650D01*
X8054943Y-12238650D02*
X8073991Y-12248174D01*
X8073991Y-12248174D02*
X8083515Y-12267222D01*
X8083515Y-12267222D02*
X8083515Y-12371984D01*
X8473991Y-12162460D02*
X8302563Y-12419603D01*
X8731134Y-12171984D02*
X8750182Y-12171984D01*
X8750182Y-12171984D02*
X8769229Y-12181508D01*
X8769229Y-12181508D02*
X8778753Y-12191031D01*
X8778753Y-12191031D02*
X8788277Y-12210079D01*
X8788277Y-12210079D02*
X8797801Y-12248174D01*
X8797801Y-12248174D02*
X8797801Y-12295793D01*
X8797801Y-12295793D02*
X8788277Y-12333888D01*
X8788277Y-12333888D02*
X8778753Y-12352936D01*
X8778753Y-12352936D02*
X8769229Y-12362460D01*
X8769229Y-12362460D02*
X8750182Y-12371984D01*
X8750182Y-12371984D02*
X8731134Y-12371984D01*
X8731134Y-12371984D02*
X8712087Y-12362460D01*
X8712087Y-12362460D02*
X8702563Y-12352936D01*
X8702563Y-12352936D02*
X8693039Y-12333888D01*
X8693039Y-12333888D02*
X8683515Y-12295793D01*
X8683515Y-12295793D02*
X8683515Y-12248174D01*
X8683515Y-12248174D02*
X8693039Y-12210079D01*
X8693039Y-12210079D02*
X8702563Y-12191031D01*
X8702563Y-12191031D02*
X8712087Y-12181508D01*
X8712087Y-12181508D02*
X8731134Y-12171984D01*
X8883515Y-12352936D02*
X8893039Y-12362460D01*
X8893039Y-12362460D02*
X8883515Y-12371984D01*
X8883515Y-12371984D02*
X8873991Y-12362460D01*
X8873991Y-12362460D02*
X8883515Y-12352936D01*
X8883515Y-12352936D02*
X8883515Y-12371984D01*
X9016848Y-12171984D02*
X9035896Y-12171984D01*
X9035896Y-12171984D02*
X9054944Y-12181508D01*
X9054944Y-12181508D02*
X9064468Y-12191031D01*
X9064468Y-12191031D02*
X9073991Y-12210079D01*
X9073991Y-12210079D02*
X9083515Y-12248174D01*
X9083515Y-12248174D02*
X9083515Y-12295793D01*
X9083515Y-12295793D02*
X9073991Y-12333888D01*
X9073991Y-12333888D02*
X9064468Y-12352936D01*
X9064468Y-12352936D02*
X9054944Y-12362460D01*
X9054944Y-12362460D02*
X9035896Y-12371984D01*
X9035896Y-12371984D02*
X9016848Y-12371984D01*
X9016848Y-12371984D02*
X8997801Y-12362460D01*
X8997801Y-12362460D02*
X8988277Y-12352936D01*
X8988277Y-12352936D02*
X8978753Y-12333888D01*
X8978753Y-12333888D02*
X8969229Y-12295793D01*
X8969229Y-12295793D02*
X8969229Y-12248174D01*
X8969229Y-12248174D02*
X8978753Y-12210079D01*
X8978753Y-12210079D02*
X8988277Y-12191031D01*
X8988277Y-12191031D02*
X8997801Y-12181508D01*
X8997801Y-12181508D02*
X9016848Y-12171984D01*
X9197801Y-12257698D02*
X9178753Y-12248174D01*
X9178753Y-12248174D02*
X9169229Y-12238650D01*
X9169229Y-12238650D02*
X9159706Y-12219603D01*
X9159706Y-12219603D02*
X9159706Y-12210079D01*
X9159706Y-12210079D02*
X9169229Y-12191031D01*
X9169229Y-12191031D02*
X9178753Y-12181508D01*
X9178753Y-12181508D02*
X9197801Y-12171984D01*
X9197801Y-12171984D02*
X9235896Y-12171984D01*
X9235896Y-12171984D02*
X9254944Y-12181508D01*
X9254944Y-12181508D02*
X9264468Y-12191031D01*
X9264468Y-12191031D02*
X9273991Y-12210079D01*
X9273991Y-12210079D02*
X9273991Y-12219603D01*
X9273991Y-12219603D02*
X9264468Y-12238650D01*
X9264468Y-12238650D02*
X9254944Y-12248174D01*
X9254944Y-12248174D02*
X9235896Y-12257698D01*
X9235896Y-12257698D02*
X9197801Y-12257698D01*
X9197801Y-12257698D02*
X9178753Y-12267222D01*
X9178753Y-12267222D02*
X9169229Y-12276746D01*
X9169229Y-12276746D02*
X9159706Y-12295793D01*
X9159706Y-12295793D02*
X9159706Y-12333888D01*
X9159706Y-12333888D02*
X9169229Y-12352936D01*
X9169229Y-12352936D02*
X9178753Y-12362460D01*
X9178753Y-12362460D02*
X9197801Y-12371984D01*
X9197801Y-12371984D02*
X9235896Y-12371984D01*
X9235896Y-12371984D02*
X9254944Y-12362460D01*
X9254944Y-12362460D02*
X9264468Y-12352936D01*
X9264468Y-12352936D02*
X9273991Y-12333888D01*
X9273991Y-12333888D02*
X9273991Y-12295793D01*
X9273991Y-12295793D02*
X9264468Y-12276746D01*
X9264468Y-12276746D02*
X9254944Y-12267222D01*
X9254944Y-12267222D02*
X9235896Y-12257698D01*
X9397801Y-12171984D02*
X9416849Y-12171984D01*
X9416849Y-12171984D02*
X9435896Y-12181508D01*
X9435896Y-12181508D02*
X9445420Y-12191031D01*
X9445420Y-12191031D02*
X9454944Y-12210079D01*
X9454944Y-12210079D02*
X9464468Y-12248174D01*
X9464468Y-12248174D02*
X9464468Y-12295793D01*
X9464468Y-12295793D02*
X9454944Y-12333888D01*
X9454944Y-12333888D02*
X9445420Y-12352936D01*
X9445420Y-12352936D02*
X9435896Y-12362460D01*
X9435896Y-12362460D02*
X9416849Y-12371984D01*
X9416849Y-12371984D02*
X9397801Y-12371984D01*
X9397801Y-12371984D02*
X9378753Y-12362460D01*
X9378753Y-12362460D02*
X9369229Y-12352936D01*
X9369229Y-12352936D02*
X9359706Y-12333888D01*
X9359706Y-12333888D02*
X9350182Y-12295793D01*
X9350182Y-12295793D02*
X9350182Y-12248174D01*
X9350182Y-12248174D02*
X9359706Y-12210079D01*
X9359706Y-12210079D02*
X9369229Y-12191031D01*
X9369229Y-12191031D02*
X9378753Y-12181508D01*
X9378753Y-12181508D02*
X9397801Y-12171984D01*
X9531134Y-12171984D02*
X9664468Y-12171984D01*
X9664468Y-12171984D02*
X9578753Y-12371984D01*
X9731134Y-12171984D02*
X9731134Y-12210079D01*
X9807325Y-12171984D02*
X9807325Y-12210079D01*
X10102563Y-12448174D02*
X10093039Y-12438650D01*
X10093039Y-12438650D02*
X10073991Y-12410079D01*
X10073991Y-12410079D02*
X10064468Y-12391031D01*
X10064468Y-12391031D02*
X10054944Y-12362460D01*
X10054944Y-12362460D02*
X10045420Y-12314841D01*
X10045420Y-12314841D02*
X10045420Y-12276746D01*
X10045420Y-12276746D02*
X10054944Y-12229127D01*
X10054944Y-12229127D02*
X10064468Y-12200555D01*
X10064468Y-12200555D02*
X10073991Y-12181508D01*
X10073991Y-12181508D02*
X10093039Y-12152936D01*
X10093039Y-12152936D02*
X10102563Y-12143412D01*
X10159706Y-12171984D02*
X10283515Y-12171984D01*
X10283515Y-12171984D02*
X10216849Y-12248174D01*
X10216849Y-12248174D02*
X10245420Y-12248174D01*
X10245420Y-12248174D02*
X10264468Y-12257698D01*
X10264468Y-12257698D02*
X10273991Y-12267222D01*
X10273991Y-12267222D02*
X10283515Y-12286269D01*
X10283515Y-12286269D02*
X10283515Y-12333888D01*
X10283515Y-12333888D02*
X10273991Y-12352936D01*
X10273991Y-12352936D02*
X10264468Y-12362460D01*
X10264468Y-12362460D02*
X10245420Y-12371984D01*
X10245420Y-12371984D02*
X10188277Y-12371984D01*
X10188277Y-12371984D02*
X10169230Y-12362460D01*
X10169230Y-12362460D02*
X10159706Y-12352936D01*
X10359706Y-12191031D02*
X10369230Y-12181508D01*
X10369230Y-12181508D02*
X10388277Y-12171984D01*
X10388277Y-12171984D02*
X10435896Y-12171984D01*
X10435896Y-12171984D02*
X10454944Y-12181508D01*
X10454944Y-12181508D02*
X10464468Y-12191031D01*
X10464468Y-12191031D02*
X10473991Y-12210079D01*
X10473991Y-12210079D02*
X10473991Y-12229127D01*
X10473991Y-12229127D02*
X10464468Y-12257698D01*
X10464468Y-12257698D02*
X10350182Y-12371984D01*
X10350182Y-12371984D02*
X10473991Y-12371984D01*
X10712087Y-12371984D02*
X10712087Y-12171984D01*
X10797801Y-12371984D02*
X10797801Y-12267222D01*
X10797801Y-12267222D02*
X10788277Y-12248174D01*
X10788277Y-12248174D02*
X10769230Y-12238650D01*
X10769230Y-12238650D02*
X10740658Y-12238650D01*
X10740658Y-12238650D02*
X10721611Y-12248174D01*
X10721611Y-12248174D02*
X10712087Y-12257698D01*
X10921611Y-12371984D02*
X10902563Y-12362460D01*
X10902563Y-12362460D02*
X10893039Y-12352936D01*
X10893039Y-12352936D02*
X10883515Y-12333888D01*
X10883515Y-12333888D02*
X10883515Y-12276746D01*
X10883515Y-12276746D02*
X10893039Y-12257698D01*
X10893039Y-12257698D02*
X10902563Y-12248174D01*
X10902563Y-12248174D02*
X10921611Y-12238650D01*
X10921611Y-12238650D02*
X10950182Y-12238650D01*
X10950182Y-12238650D02*
X10969230Y-12248174D01*
X10969230Y-12248174D02*
X10978753Y-12257698D01*
X10978753Y-12257698D02*
X10988277Y-12276746D01*
X10988277Y-12276746D02*
X10988277Y-12333888D01*
X10988277Y-12333888D02*
X10978753Y-12352936D01*
X10978753Y-12352936D02*
X10969230Y-12362460D01*
X10969230Y-12362460D02*
X10950182Y-12371984D01*
X10950182Y-12371984D02*
X10921611Y-12371984D01*
X11102563Y-12371984D02*
X11083515Y-12362460D01*
X11083515Y-12362460D02*
X11073992Y-12343412D01*
X11073992Y-12343412D02*
X11073992Y-12171984D01*
X11254944Y-12362460D02*
X11235896Y-12371984D01*
X11235896Y-12371984D02*
X11197801Y-12371984D01*
X11197801Y-12371984D02*
X11178753Y-12362460D01*
X11178753Y-12362460D02*
X11169230Y-12343412D01*
X11169230Y-12343412D02*
X11169230Y-12267222D01*
X11169230Y-12267222D02*
X11178753Y-12248174D01*
X11178753Y-12248174D02*
X11197801Y-12238650D01*
X11197801Y-12238650D02*
X11235896Y-12238650D01*
X11235896Y-12238650D02*
X11254944Y-12248174D01*
X11254944Y-12248174D02*
X11264468Y-12267222D01*
X11264468Y-12267222D02*
X11264468Y-12286269D01*
X11264468Y-12286269D02*
X11169230Y-12305317D01*
X11340658Y-12362460D02*
X11359706Y-12371984D01*
X11359706Y-12371984D02*
X11397801Y-12371984D01*
X11397801Y-12371984D02*
X11416849Y-12362460D01*
X11416849Y-12362460D02*
X11426372Y-12343412D01*
X11426372Y-12343412D02*
X11426372Y-12333888D01*
X11426372Y-12333888D02*
X11416849Y-12314841D01*
X11416849Y-12314841D02*
X11397801Y-12305317D01*
X11397801Y-12305317D02*
X11369230Y-12305317D01*
X11369230Y-12305317D02*
X11350182Y-12295793D01*
X11350182Y-12295793D02*
X11340658Y-12276746D01*
X11340658Y-12276746D02*
X11340658Y-12267222D01*
X11340658Y-12267222D02*
X11350182Y-12248174D01*
X11350182Y-12248174D02*
X11369230Y-12238650D01*
X11369230Y-12238650D02*
X11397801Y-12238650D01*
X11397801Y-12238650D02*
X11416849Y-12248174D01*
X11493039Y-12448174D02*
X11502563Y-12438650D01*
X11502563Y-12438650D02*
X11521611Y-12410079D01*
X11521611Y-12410079D02*
X11531134Y-12391031D01*
X11531134Y-12391031D02*
X11540658Y-12362460D01*
X11540658Y-12362460D02*
X11550182Y-12314841D01*
X11550182Y-12314841D02*
X11550182Y-12276746D01*
X11550182Y-12276746D02*
X11540658Y-12229127D01*
X11540658Y-12229127D02*
X11531134Y-12200555D01*
X11531134Y-12200555D02*
X11521611Y-12181508D01*
X11521611Y-12181508D02*
X11502563Y-12152936D01*
X11502563Y-12152936D02*
X11493039Y-12143412D01*
M02*
