G04 #@! TF.GenerationSoftware,KiCad,Pcbnew,8.0.8*
G04 #@! TF.CreationDate,2025-04-26T15:59:21-07:00*
G04 #@! TF.ProjectId,Output Board,4f757470-7574-4204-926f-6172642e6b69,rev?*
G04 #@! TF.SameCoordinates,Original*
G04 #@! TF.FileFunction,Legend,Top*
G04 #@! TF.FilePolarity,Positive*
%FSLAX46Y46*%
G04 Gerber Fmt 4.6, Leading zero omitted, Abs format (unit mm)*
G04 Created by KiCad (PCBNEW 8.0.8) date 2025-04-26 15:59:21*
%MOMM*%
%LPD*%
G01*
G04 APERTURE LIST*
%ADD10C,0.150000*%
%ADD11C,0.200000*%
%ADD12C,0.250000*%
%ADD13C,0.100000*%
%ADD14C,0.300000*%
%ADD15C,0.508000*%
%ADD16C,0.000000*%
%ADD17C,1.320800*%
%ADD18C,3.000000*%
%ADD19C,2.604000*%
%ADD20C,1.350000*%
%ADD21R,1.447800X1.447800*%
%ADD22C,1.447800*%
G04 APERTURE END LIST*
D10*
X194304800Y-100841600D02*
X216304800Y-100841600D01*
D11*
X195494263Y-102143457D02*
X195494263Y-101243457D01*
X195494263Y-101672028D02*
X196008549Y-101672028D01*
X196008549Y-102143457D02*
X196008549Y-101243457D01*
X196951406Y-102143457D02*
X196651406Y-101714885D01*
X196437120Y-102143457D02*
X196437120Y-101243457D01*
X196437120Y-101243457D02*
X196779977Y-101243457D01*
X196779977Y-101243457D02*
X196865692Y-101286314D01*
X196865692Y-101286314D02*
X196908549Y-101329171D01*
X196908549Y-101329171D02*
X196951406Y-101414885D01*
X196951406Y-101414885D02*
X196951406Y-101543457D01*
X196951406Y-101543457D02*
X196908549Y-101629171D01*
X196908549Y-101629171D02*
X196865692Y-101672028D01*
X196865692Y-101672028D02*
X196779977Y-101714885D01*
X196779977Y-101714885D02*
X196437120Y-101714885D01*
X197765692Y-102143457D02*
X197337120Y-102143457D01*
X197337120Y-102143457D02*
X197337120Y-101243457D01*
X199179977Y-102143457D02*
X198751405Y-102143457D01*
X198751405Y-102143457D02*
X198751405Y-101243457D01*
X199865691Y-102143457D02*
X199865691Y-101672028D01*
X199865691Y-101672028D02*
X199822833Y-101586314D01*
X199822833Y-101586314D02*
X199737119Y-101543457D01*
X199737119Y-101543457D02*
X199565691Y-101543457D01*
X199565691Y-101543457D02*
X199479976Y-101586314D01*
X199865691Y-102100600D02*
X199779976Y-102143457D01*
X199779976Y-102143457D02*
X199565691Y-102143457D01*
X199565691Y-102143457D02*
X199479976Y-102100600D01*
X199479976Y-102100600D02*
X199437119Y-102014885D01*
X199437119Y-102014885D02*
X199437119Y-101929171D01*
X199437119Y-101929171D02*
X199479976Y-101843457D01*
X199479976Y-101843457D02*
X199565691Y-101800600D01*
X199565691Y-101800600D02*
X199779976Y-101800600D01*
X199779976Y-101800600D02*
X199865691Y-101757742D01*
X200294262Y-102143457D02*
X200294262Y-101243457D01*
X200294262Y-101586314D02*
X200379977Y-101543457D01*
X200379977Y-101543457D02*
X200551405Y-101543457D01*
X200551405Y-101543457D02*
X200637119Y-101586314D01*
X200637119Y-101586314D02*
X200679977Y-101629171D01*
X200679977Y-101629171D02*
X200722834Y-101714885D01*
X200722834Y-101714885D02*
X200722834Y-101972028D01*
X200722834Y-101972028D02*
X200679977Y-102057742D01*
X200679977Y-102057742D02*
X200637119Y-102100600D01*
X200637119Y-102100600D02*
X200551405Y-102143457D01*
X200551405Y-102143457D02*
X200379977Y-102143457D01*
X200379977Y-102143457D02*
X200294262Y-102100600D01*
X201237120Y-102143457D02*
X201151405Y-102100600D01*
X201151405Y-102100600D02*
X201108548Y-102057742D01*
X201108548Y-102057742D02*
X201065691Y-101972028D01*
X201065691Y-101972028D02*
X201065691Y-101714885D01*
X201065691Y-101714885D02*
X201108548Y-101629171D01*
X201108548Y-101629171D02*
X201151405Y-101586314D01*
X201151405Y-101586314D02*
X201237120Y-101543457D01*
X201237120Y-101543457D02*
X201365691Y-101543457D01*
X201365691Y-101543457D02*
X201451405Y-101586314D01*
X201451405Y-101586314D02*
X201494263Y-101629171D01*
X201494263Y-101629171D02*
X201537120Y-101714885D01*
X201537120Y-101714885D02*
X201537120Y-101972028D01*
X201537120Y-101972028D02*
X201494263Y-102057742D01*
X201494263Y-102057742D02*
X201451405Y-102100600D01*
X201451405Y-102100600D02*
X201365691Y-102143457D01*
X201365691Y-102143457D02*
X201237120Y-102143457D01*
X201922834Y-102143457D02*
X201922834Y-101543457D01*
X201922834Y-101714885D02*
X201965691Y-101629171D01*
X201965691Y-101629171D02*
X202008549Y-101586314D01*
X202008549Y-101586314D02*
X202094263Y-101543457D01*
X202094263Y-101543457D02*
X202179977Y-101543457D01*
X202865692Y-102143457D02*
X202865692Y-101672028D01*
X202865692Y-101672028D02*
X202822834Y-101586314D01*
X202822834Y-101586314D02*
X202737120Y-101543457D01*
X202737120Y-101543457D02*
X202565692Y-101543457D01*
X202565692Y-101543457D02*
X202479977Y-101586314D01*
X202865692Y-102100600D02*
X202779977Y-102143457D01*
X202779977Y-102143457D02*
X202565692Y-102143457D01*
X202565692Y-102143457D02*
X202479977Y-102100600D01*
X202479977Y-102100600D02*
X202437120Y-102014885D01*
X202437120Y-102014885D02*
X202437120Y-101929171D01*
X202437120Y-101929171D02*
X202479977Y-101843457D01*
X202479977Y-101843457D02*
X202565692Y-101800600D01*
X202565692Y-101800600D02*
X202779977Y-101800600D01*
X202779977Y-101800600D02*
X202865692Y-101757742D01*
X203165692Y-101543457D02*
X203508549Y-101543457D01*
X203294263Y-101243457D02*
X203294263Y-102014885D01*
X203294263Y-102014885D02*
X203337120Y-102100600D01*
X203337120Y-102100600D02*
X203422835Y-102143457D01*
X203422835Y-102143457D02*
X203508549Y-102143457D01*
X203937121Y-102143457D02*
X203851406Y-102100600D01*
X203851406Y-102100600D02*
X203808549Y-102057742D01*
X203808549Y-102057742D02*
X203765692Y-101972028D01*
X203765692Y-101972028D02*
X203765692Y-101714885D01*
X203765692Y-101714885D02*
X203808549Y-101629171D01*
X203808549Y-101629171D02*
X203851406Y-101586314D01*
X203851406Y-101586314D02*
X203937121Y-101543457D01*
X203937121Y-101543457D02*
X204065692Y-101543457D01*
X204065692Y-101543457D02*
X204151406Y-101586314D01*
X204151406Y-101586314D02*
X204194264Y-101629171D01*
X204194264Y-101629171D02*
X204237121Y-101714885D01*
X204237121Y-101714885D02*
X204237121Y-101972028D01*
X204237121Y-101972028D02*
X204194264Y-102057742D01*
X204194264Y-102057742D02*
X204151406Y-102100600D01*
X204151406Y-102100600D02*
X204065692Y-102143457D01*
X204065692Y-102143457D02*
X203937121Y-102143457D01*
X204622835Y-102143457D02*
X204622835Y-101543457D01*
X204622835Y-101714885D02*
X204665692Y-101629171D01*
X204665692Y-101629171D02*
X204708550Y-101586314D01*
X204708550Y-101586314D02*
X204794264Y-101543457D01*
X204794264Y-101543457D02*
X204879978Y-101543457D01*
X205179978Y-102143457D02*
X205179978Y-101543457D01*
X205179978Y-101243457D02*
X205137121Y-101286314D01*
X205137121Y-101286314D02*
X205179978Y-101329171D01*
X205179978Y-101329171D02*
X205222835Y-101286314D01*
X205222835Y-101286314D02*
X205179978Y-101243457D01*
X205179978Y-101243457D02*
X205179978Y-101329171D01*
X205951406Y-102100600D02*
X205865692Y-102143457D01*
X205865692Y-102143457D02*
X205694264Y-102143457D01*
X205694264Y-102143457D02*
X205608549Y-102100600D01*
X205608549Y-102100600D02*
X205565692Y-102014885D01*
X205565692Y-102014885D02*
X205565692Y-101672028D01*
X205565692Y-101672028D02*
X205608549Y-101586314D01*
X205608549Y-101586314D02*
X205694264Y-101543457D01*
X205694264Y-101543457D02*
X205865692Y-101543457D01*
X205865692Y-101543457D02*
X205951406Y-101586314D01*
X205951406Y-101586314D02*
X205994264Y-101672028D01*
X205994264Y-101672028D02*
X205994264Y-101757742D01*
X205994264Y-101757742D02*
X205565692Y-101843457D01*
X206337121Y-102100600D02*
X206422835Y-102143457D01*
X206422835Y-102143457D02*
X206594264Y-102143457D01*
X206594264Y-102143457D02*
X206679978Y-102100600D01*
X206679978Y-102100600D02*
X206722835Y-102014885D01*
X206722835Y-102014885D02*
X206722835Y-101972028D01*
X206722835Y-101972028D02*
X206679978Y-101886314D01*
X206679978Y-101886314D02*
X206594264Y-101843457D01*
X206594264Y-101843457D02*
X206465693Y-101843457D01*
X206465693Y-101843457D02*
X206379978Y-101800600D01*
X206379978Y-101800600D02*
X206337121Y-101714885D01*
X206337121Y-101714885D02*
X206337121Y-101672028D01*
X206337121Y-101672028D02*
X206379978Y-101586314D01*
X206379978Y-101586314D02*
X206465693Y-101543457D01*
X206465693Y-101543457D02*
X206594264Y-101543457D01*
X206594264Y-101543457D02*
X206679978Y-101586314D01*
X208308549Y-102057742D02*
X208265692Y-102100600D01*
X208265692Y-102100600D02*
X208137120Y-102143457D01*
X208137120Y-102143457D02*
X208051406Y-102143457D01*
X208051406Y-102143457D02*
X207922835Y-102100600D01*
X207922835Y-102100600D02*
X207837120Y-102014885D01*
X207837120Y-102014885D02*
X207794263Y-101929171D01*
X207794263Y-101929171D02*
X207751406Y-101757742D01*
X207751406Y-101757742D02*
X207751406Y-101629171D01*
X207751406Y-101629171D02*
X207794263Y-101457742D01*
X207794263Y-101457742D02*
X207837120Y-101372028D01*
X207837120Y-101372028D02*
X207922835Y-101286314D01*
X207922835Y-101286314D02*
X208051406Y-101243457D01*
X208051406Y-101243457D02*
X208137120Y-101243457D01*
X208137120Y-101243457D02*
X208265692Y-101286314D01*
X208265692Y-101286314D02*
X208308549Y-101329171D01*
X208822835Y-102143457D02*
X208737120Y-102100600D01*
X208737120Y-102100600D02*
X208694263Y-102014885D01*
X208694263Y-102014885D02*
X208694263Y-101243457D01*
X209165692Y-102143457D02*
X209165692Y-101543457D01*
X209165692Y-101243457D02*
X209122835Y-101286314D01*
X209122835Y-101286314D02*
X209165692Y-101329171D01*
X209165692Y-101329171D02*
X209208549Y-101286314D01*
X209208549Y-101286314D02*
X209165692Y-101243457D01*
X209165692Y-101243457D02*
X209165692Y-101329171D01*
X209594263Y-101543457D02*
X209594263Y-102143457D01*
X209594263Y-101629171D02*
X209637120Y-101586314D01*
X209637120Y-101586314D02*
X209722835Y-101543457D01*
X209722835Y-101543457D02*
X209851406Y-101543457D01*
X209851406Y-101543457D02*
X209937120Y-101586314D01*
X209937120Y-101586314D02*
X209979978Y-101672028D01*
X209979978Y-101672028D02*
X209979978Y-102143457D01*
X210408549Y-102143457D02*
X210408549Y-101543457D01*
X210408549Y-101243457D02*
X210365692Y-101286314D01*
X210365692Y-101286314D02*
X210408549Y-101329171D01*
X210408549Y-101329171D02*
X210451406Y-101286314D01*
X210451406Y-101286314D02*
X210408549Y-101243457D01*
X210408549Y-101243457D02*
X210408549Y-101329171D01*
X211222835Y-102100600D02*
X211137120Y-102143457D01*
X211137120Y-102143457D02*
X210965692Y-102143457D01*
X210965692Y-102143457D02*
X210879977Y-102100600D01*
X210879977Y-102100600D02*
X210837120Y-102057742D01*
X210837120Y-102057742D02*
X210794263Y-101972028D01*
X210794263Y-101972028D02*
X210794263Y-101714885D01*
X210794263Y-101714885D02*
X210837120Y-101629171D01*
X210837120Y-101629171D02*
X210879977Y-101586314D01*
X210879977Y-101586314D02*
X210965692Y-101543457D01*
X210965692Y-101543457D02*
X211137120Y-101543457D01*
X211137120Y-101543457D02*
X211222835Y-101586314D01*
X212165692Y-101243457D02*
X212679978Y-101243457D01*
X212422835Y-102143457D02*
X212422835Y-101243457D01*
X213322834Y-102100600D02*
X213237120Y-102143457D01*
X213237120Y-102143457D02*
X213065692Y-102143457D01*
X213065692Y-102143457D02*
X212979977Y-102100600D01*
X212979977Y-102100600D02*
X212937120Y-102014885D01*
X212937120Y-102014885D02*
X212937120Y-101672028D01*
X212937120Y-101672028D02*
X212979977Y-101586314D01*
X212979977Y-101586314D02*
X213065692Y-101543457D01*
X213065692Y-101543457D02*
X213237120Y-101543457D01*
X213237120Y-101543457D02*
X213322834Y-101586314D01*
X213322834Y-101586314D02*
X213365692Y-101672028D01*
X213365692Y-101672028D02*
X213365692Y-101757742D01*
X213365692Y-101757742D02*
X212937120Y-101843457D01*
X214137121Y-102143457D02*
X214137121Y-101672028D01*
X214137121Y-101672028D02*
X214094263Y-101586314D01*
X214094263Y-101586314D02*
X214008549Y-101543457D01*
X214008549Y-101543457D02*
X213837121Y-101543457D01*
X213837121Y-101543457D02*
X213751406Y-101586314D01*
X214137121Y-102100600D02*
X214051406Y-102143457D01*
X214051406Y-102143457D02*
X213837121Y-102143457D01*
X213837121Y-102143457D02*
X213751406Y-102100600D01*
X213751406Y-102100600D02*
X213708549Y-102014885D01*
X213708549Y-102014885D02*
X213708549Y-101929171D01*
X213708549Y-101929171D02*
X213751406Y-101843457D01*
X213751406Y-101843457D02*
X213837121Y-101800600D01*
X213837121Y-101800600D02*
X214051406Y-101800600D01*
X214051406Y-101800600D02*
X214137121Y-101757742D01*
X214565692Y-102143457D02*
X214565692Y-101543457D01*
X214565692Y-101629171D02*
X214608549Y-101586314D01*
X214608549Y-101586314D02*
X214694264Y-101543457D01*
X214694264Y-101543457D02*
X214822835Y-101543457D01*
X214822835Y-101543457D02*
X214908549Y-101586314D01*
X214908549Y-101586314D02*
X214951407Y-101672028D01*
X214951407Y-101672028D02*
X214951407Y-102143457D01*
X214951407Y-101672028D02*
X214994264Y-101586314D01*
X214994264Y-101586314D02*
X215079978Y-101543457D01*
X215079978Y-101543457D02*
X215208549Y-101543457D01*
X215208549Y-101543457D02*
X215294264Y-101586314D01*
X215294264Y-101586314D02*
X215337121Y-101672028D01*
X215337121Y-101672028D02*
X215337121Y-102143457D01*
D12*
X194407143Y-88388512D02*
X195264286Y-88388512D01*
X194835714Y-89888512D02*
X194835714Y-88388512D01*
X195764285Y-89888512D02*
X195764285Y-88388512D01*
X195764285Y-89102798D02*
X196621428Y-89102798D01*
X196621428Y-89888512D02*
X196621428Y-88388512D01*
X197335714Y-89888512D02*
X197335714Y-88388512D01*
X197978572Y-89817084D02*
X198192858Y-89888512D01*
X198192858Y-89888512D02*
X198550000Y-89888512D01*
X198550000Y-89888512D02*
X198692858Y-89817084D01*
X198692858Y-89817084D02*
X198764286Y-89745655D01*
X198764286Y-89745655D02*
X198835715Y-89602798D01*
X198835715Y-89602798D02*
X198835715Y-89459941D01*
X198835715Y-89459941D02*
X198764286Y-89317084D01*
X198764286Y-89317084D02*
X198692858Y-89245655D01*
X198692858Y-89245655D02*
X198550000Y-89174226D01*
X198550000Y-89174226D02*
X198264286Y-89102798D01*
X198264286Y-89102798D02*
X198121429Y-89031369D01*
X198121429Y-89031369D02*
X198050000Y-88959941D01*
X198050000Y-88959941D02*
X197978572Y-88817084D01*
X197978572Y-88817084D02*
X197978572Y-88674226D01*
X197978572Y-88674226D02*
X198050000Y-88531369D01*
X198050000Y-88531369D02*
X198121429Y-88459941D01*
X198121429Y-88459941D02*
X198264286Y-88388512D01*
X198264286Y-88388512D02*
X198621429Y-88388512D01*
X198621429Y-88388512D02*
X198835715Y-88459941D01*
X200550000Y-89817084D02*
X200764286Y-89888512D01*
X200764286Y-89888512D02*
X201121428Y-89888512D01*
X201121428Y-89888512D02*
X201264286Y-89817084D01*
X201264286Y-89817084D02*
X201335714Y-89745655D01*
X201335714Y-89745655D02*
X201407143Y-89602798D01*
X201407143Y-89602798D02*
X201407143Y-89459941D01*
X201407143Y-89459941D02*
X201335714Y-89317084D01*
X201335714Y-89317084D02*
X201264286Y-89245655D01*
X201264286Y-89245655D02*
X201121428Y-89174226D01*
X201121428Y-89174226D02*
X200835714Y-89102798D01*
X200835714Y-89102798D02*
X200692857Y-89031369D01*
X200692857Y-89031369D02*
X200621428Y-88959941D01*
X200621428Y-88959941D02*
X200550000Y-88817084D01*
X200550000Y-88817084D02*
X200550000Y-88674226D01*
X200550000Y-88674226D02*
X200621428Y-88531369D01*
X200621428Y-88531369D02*
X200692857Y-88459941D01*
X200692857Y-88459941D02*
X200835714Y-88388512D01*
X200835714Y-88388512D02*
X201192857Y-88388512D01*
X201192857Y-88388512D02*
X201407143Y-88459941D01*
X202049999Y-89888512D02*
X202049999Y-88388512D01*
X202764285Y-89888512D02*
X202764285Y-88388512D01*
X202764285Y-88388512D02*
X203121428Y-88388512D01*
X203121428Y-88388512D02*
X203335714Y-88459941D01*
X203335714Y-88459941D02*
X203478571Y-88602798D01*
X203478571Y-88602798D02*
X203550000Y-88745655D01*
X203550000Y-88745655D02*
X203621428Y-89031369D01*
X203621428Y-89031369D02*
X203621428Y-89245655D01*
X203621428Y-89245655D02*
X203550000Y-89531369D01*
X203550000Y-89531369D02*
X203478571Y-89674226D01*
X203478571Y-89674226D02*
X203335714Y-89817084D01*
X203335714Y-89817084D02*
X203121428Y-89888512D01*
X203121428Y-89888512D02*
X202764285Y-89888512D01*
X204264285Y-89102798D02*
X204764285Y-89102798D01*
X204978571Y-89888512D02*
X204264285Y-89888512D01*
X204264285Y-89888512D02*
X204264285Y-88388512D01*
X204264285Y-88388512D02*
X204978571Y-88388512D01*
X206692857Y-89459941D02*
X207407143Y-89459941D01*
X206550000Y-89888512D02*
X207050000Y-88388512D01*
X207050000Y-88388512D02*
X207550000Y-89888512D01*
X208835714Y-88459941D02*
X208692857Y-88388512D01*
X208692857Y-88388512D02*
X208478571Y-88388512D01*
X208478571Y-88388512D02*
X208264285Y-88459941D01*
X208264285Y-88459941D02*
X208121428Y-88602798D01*
X208121428Y-88602798D02*
X208049999Y-88745655D01*
X208049999Y-88745655D02*
X207978571Y-89031369D01*
X207978571Y-89031369D02*
X207978571Y-89245655D01*
X207978571Y-89245655D02*
X208049999Y-89531369D01*
X208049999Y-89531369D02*
X208121428Y-89674226D01*
X208121428Y-89674226D02*
X208264285Y-89817084D01*
X208264285Y-89817084D02*
X208478571Y-89888512D01*
X208478571Y-89888512D02*
X208621428Y-89888512D01*
X208621428Y-89888512D02*
X208835714Y-89817084D01*
X208835714Y-89817084D02*
X208907142Y-89745655D01*
X208907142Y-89745655D02*
X208907142Y-89245655D01*
X208907142Y-89245655D02*
X208621428Y-89245655D01*
X209478571Y-89459941D02*
X210192857Y-89459941D01*
X209335714Y-89888512D02*
X209835714Y-88388512D01*
X209835714Y-88388512D02*
X210335714Y-89888512D01*
X210835713Y-89888512D02*
X210835713Y-88388512D01*
X211549999Y-89888512D02*
X211549999Y-88388512D01*
X211549999Y-88388512D02*
X212407142Y-89888512D01*
X212407142Y-89888512D02*
X212407142Y-88388512D01*
X213050000Y-89817084D02*
X213264286Y-89888512D01*
X213264286Y-89888512D02*
X213621428Y-89888512D01*
X213621428Y-89888512D02*
X213764286Y-89817084D01*
X213764286Y-89817084D02*
X213835714Y-89745655D01*
X213835714Y-89745655D02*
X213907143Y-89602798D01*
X213907143Y-89602798D02*
X213907143Y-89459941D01*
X213907143Y-89459941D02*
X213835714Y-89317084D01*
X213835714Y-89317084D02*
X213764286Y-89245655D01*
X213764286Y-89245655D02*
X213621428Y-89174226D01*
X213621428Y-89174226D02*
X213335714Y-89102798D01*
X213335714Y-89102798D02*
X213192857Y-89031369D01*
X213192857Y-89031369D02*
X213121428Y-88959941D01*
X213121428Y-88959941D02*
X213050000Y-88817084D01*
X213050000Y-88817084D02*
X213050000Y-88674226D01*
X213050000Y-88674226D02*
X213121428Y-88531369D01*
X213121428Y-88531369D02*
X213192857Y-88459941D01*
X213192857Y-88459941D02*
X213335714Y-88388512D01*
X213335714Y-88388512D02*
X213692857Y-88388512D01*
X213692857Y-88388512D02*
X213907143Y-88459941D01*
X214335714Y-88388512D02*
X215192857Y-88388512D01*
X214764285Y-89888512D02*
X214764285Y-88388512D01*
X198085713Y-91517714D02*
X197585713Y-91517714D01*
X197585713Y-92303428D02*
X197585713Y-90803428D01*
X197585713Y-90803428D02*
X198299999Y-90803428D01*
X199728570Y-92303428D02*
X199228570Y-91589142D01*
X198871427Y-92303428D02*
X198871427Y-90803428D01*
X198871427Y-90803428D02*
X199442856Y-90803428D01*
X199442856Y-90803428D02*
X199585713Y-90874857D01*
X199585713Y-90874857D02*
X199657142Y-90946285D01*
X199657142Y-90946285D02*
X199728570Y-91089142D01*
X199728570Y-91089142D02*
X199728570Y-91303428D01*
X199728570Y-91303428D02*
X199657142Y-91446285D01*
X199657142Y-91446285D02*
X199585713Y-91517714D01*
X199585713Y-91517714D02*
X199442856Y-91589142D01*
X199442856Y-91589142D02*
X198871427Y-91589142D01*
X200657142Y-90803428D02*
X200942856Y-90803428D01*
X200942856Y-90803428D02*
X201085713Y-90874857D01*
X201085713Y-90874857D02*
X201228570Y-91017714D01*
X201228570Y-91017714D02*
X201299999Y-91303428D01*
X201299999Y-91303428D02*
X201299999Y-91803428D01*
X201299999Y-91803428D02*
X201228570Y-92089142D01*
X201228570Y-92089142D02*
X201085713Y-92232000D01*
X201085713Y-92232000D02*
X200942856Y-92303428D01*
X200942856Y-92303428D02*
X200657142Y-92303428D01*
X200657142Y-92303428D02*
X200514285Y-92232000D01*
X200514285Y-92232000D02*
X200371427Y-92089142D01*
X200371427Y-92089142D02*
X200299999Y-91803428D01*
X200299999Y-91803428D02*
X200299999Y-91303428D01*
X200299999Y-91303428D02*
X200371427Y-91017714D01*
X200371427Y-91017714D02*
X200514285Y-90874857D01*
X200514285Y-90874857D02*
X200657142Y-90803428D01*
X201942856Y-92303428D02*
X201942856Y-90803428D01*
X201942856Y-90803428D02*
X202799999Y-92303428D01*
X202799999Y-92303428D02*
X202799999Y-90803428D01*
X203300000Y-90803428D02*
X204157143Y-90803428D01*
X203728571Y-92303428D02*
X203728571Y-90803428D01*
X205799999Y-92303428D02*
X205799999Y-90803428D01*
X205799999Y-90803428D02*
X206371428Y-90803428D01*
X206371428Y-90803428D02*
X206514285Y-90874857D01*
X206514285Y-90874857D02*
X206585714Y-90946285D01*
X206585714Y-90946285D02*
X206657142Y-91089142D01*
X206657142Y-91089142D02*
X206657142Y-91303428D01*
X206657142Y-91303428D02*
X206585714Y-91446285D01*
X206585714Y-91446285D02*
X206514285Y-91517714D01*
X206514285Y-91517714D02*
X206371428Y-91589142D01*
X206371428Y-91589142D02*
X205799999Y-91589142D01*
X207228571Y-91874857D02*
X207942857Y-91874857D01*
X207085714Y-92303428D02*
X207585714Y-90803428D01*
X207585714Y-90803428D02*
X208085714Y-92303428D01*
X208585713Y-92303428D02*
X208585713Y-90803428D01*
X208585713Y-90803428D02*
X209442856Y-92303428D01*
X209442856Y-92303428D02*
X209442856Y-90803428D01*
X210157142Y-91517714D02*
X210657142Y-91517714D01*
X210871428Y-92303428D02*
X210157142Y-92303428D01*
X210157142Y-92303428D02*
X210157142Y-90803428D01*
X210157142Y-90803428D02*
X210871428Y-90803428D01*
X212228571Y-92303428D02*
X211514285Y-92303428D01*
X211514285Y-92303428D02*
X211514285Y-90803428D01*
D11*
X198186663Y-100263857D02*
X198186663Y-99363857D01*
X198186663Y-99792428D02*
X198700949Y-99792428D01*
X198700949Y-100263857D02*
X198700949Y-99363857D01*
X199515235Y-100263857D02*
X199515235Y-99792428D01*
X199515235Y-99792428D02*
X199472377Y-99706714D01*
X199472377Y-99706714D02*
X199386663Y-99663857D01*
X199386663Y-99663857D02*
X199215235Y-99663857D01*
X199215235Y-99663857D02*
X199129520Y-99706714D01*
X199515235Y-100221000D02*
X199429520Y-100263857D01*
X199429520Y-100263857D02*
X199215235Y-100263857D01*
X199215235Y-100263857D02*
X199129520Y-100221000D01*
X199129520Y-100221000D02*
X199086663Y-100135285D01*
X199086663Y-100135285D02*
X199086663Y-100049571D01*
X199086663Y-100049571D02*
X199129520Y-99963857D01*
X199129520Y-99963857D02*
X199215235Y-99921000D01*
X199215235Y-99921000D02*
X199429520Y-99921000D01*
X199429520Y-99921000D02*
X199515235Y-99878142D01*
X199943806Y-100263857D02*
X199943806Y-99663857D01*
X199943806Y-99835285D02*
X199986663Y-99749571D01*
X199986663Y-99749571D02*
X200029521Y-99706714D01*
X200029521Y-99706714D02*
X200115235Y-99663857D01*
X200115235Y-99663857D02*
X200200949Y-99663857D01*
X200415235Y-99663857D02*
X200629521Y-100263857D01*
X200629521Y-100263857D02*
X200843806Y-99663857D01*
X201529520Y-100221000D02*
X201443806Y-100263857D01*
X201443806Y-100263857D02*
X201272378Y-100263857D01*
X201272378Y-100263857D02*
X201186663Y-100221000D01*
X201186663Y-100221000D02*
X201143806Y-100135285D01*
X201143806Y-100135285D02*
X201143806Y-99792428D01*
X201143806Y-99792428D02*
X201186663Y-99706714D01*
X201186663Y-99706714D02*
X201272378Y-99663857D01*
X201272378Y-99663857D02*
X201443806Y-99663857D01*
X201443806Y-99663857D02*
X201529520Y-99706714D01*
X201529520Y-99706714D02*
X201572378Y-99792428D01*
X201572378Y-99792428D02*
X201572378Y-99878142D01*
X201572378Y-99878142D02*
X201143806Y-99963857D01*
X201872378Y-99663857D02*
X202086664Y-100263857D01*
X202300949Y-99663857D02*
X202086664Y-100263857D01*
X202086664Y-100263857D02*
X202000949Y-100478142D01*
X202000949Y-100478142D02*
X201958092Y-100521000D01*
X201958092Y-100521000D02*
X201872378Y-100563857D01*
X203329520Y-100263857D02*
X203329520Y-99363857D01*
X203329520Y-99363857D02*
X203629520Y-100006714D01*
X203629520Y-100006714D02*
X203929520Y-99363857D01*
X203929520Y-99363857D02*
X203929520Y-100263857D01*
X204743806Y-99663857D02*
X204743806Y-100263857D01*
X204358091Y-99663857D02*
X204358091Y-100135285D01*
X204358091Y-100135285D02*
X204400948Y-100221000D01*
X204400948Y-100221000D02*
X204486663Y-100263857D01*
X204486663Y-100263857D02*
X204615234Y-100263857D01*
X204615234Y-100263857D02*
X204700948Y-100221000D01*
X204700948Y-100221000D02*
X204743806Y-100178142D01*
X205558092Y-100263857D02*
X205558092Y-99363857D01*
X205558092Y-100221000D02*
X205472377Y-100263857D01*
X205472377Y-100263857D02*
X205300949Y-100263857D01*
X205300949Y-100263857D02*
X205215234Y-100221000D01*
X205215234Y-100221000D02*
X205172377Y-100178142D01*
X205172377Y-100178142D02*
X205129520Y-100092428D01*
X205129520Y-100092428D02*
X205129520Y-99835285D01*
X205129520Y-99835285D02*
X205172377Y-99749571D01*
X205172377Y-99749571D02*
X205215234Y-99706714D01*
X205215234Y-99706714D02*
X205300949Y-99663857D01*
X205300949Y-99663857D02*
X205472377Y-99663857D01*
X205472377Y-99663857D02*
X205558092Y-99706714D01*
X206372378Y-100263857D02*
X206372378Y-99363857D01*
X206372378Y-100221000D02*
X206286663Y-100263857D01*
X206286663Y-100263857D02*
X206115235Y-100263857D01*
X206115235Y-100263857D02*
X206029520Y-100221000D01*
X206029520Y-100221000D02*
X205986663Y-100178142D01*
X205986663Y-100178142D02*
X205943806Y-100092428D01*
X205943806Y-100092428D02*
X205943806Y-99835285D01*
X205943806Y-99835285D02*
X205986663Y-99749571D01*
X205986663Y-99749571D02*
X206029520Y-99706714D01*
X206029520Y-99706714D02*
X206115235Y-99663857D01*
X206115235Y-99663857D02*
X206286663Y-99663857D01*
X206286663Y-99663857D02*
X206372378Y-99706714D01*
X208000949Y-100178142D02*
X207958092Y-100221000D01*
X207958092Y-100221000D02*
X207829520Y-100263857D01*
X207829520Y-100263857D02*
X207743806Y-100263857D01*
X207743806Y-100263857D02*
X207615235Y-100221000D01*
X207615235Y-100221000D02*
X207529520Y-100135285D01*
X207529520Y-100135285D02*
X207486663Y-100049571D01*
X207486663Y-100049571D02*
X207443806Y-99878142D01*
X207443806Y-99878142D02*
X207443806Y-99749571D01*
X207443806Y-99749571D02*
X207486663Y-99578142D01*
X207486663Y-99578142D02*
X207529520Y-99492428D01*
X207529520Y-99492428D02*
X207615235Y-99406714D01*
X207615235Y-99406714D02*
X207743806Y-99363857D01*
X207743806Y-99363857D02*
X207829520Y-99363857D01*
X207829520Y-99363857D02*
X207958092Y-99406714D01*
X207958092Y-99406714D02*
X208000949Y-99449571D01*
X208515235Y-100263857D02*
X208429520Y-100221000D01*
X208429520Y-100221000D02*
X208386663Y-100178142D01*
X208386663Y-100178142D02*
X208343806Y-100092428D01*
X208343806Y-100092428D02*
X208343806Y-99835285D01*
X208343806Y-99835285D02*
X208386663Y-99749571D01*
X208386663Y-99749571D02*
X208429520Y-99706714D01*
X208429520Y-99706714D02*
X208515235Y-99663857D01*
X208515235Y-99663857D02*
X208643806Y-99663857D01*
X208643806Y-99663857D02*
X208729520Y-99706714D01*
X208729520Y-99706714D02*
X208772378Y-99749571D01*
X208772378Y-99749571D02*
X208815235Y-99835285D01*
X208815235Y-99835285D02*
X208815235Y-100092428D01*
X208815235Y-100092428D02*
X208772378Y-100178142D01*
X208772378Y-100178142D02*
X208729520Y-100221000D01*
X208729520Y-100221000D02*
X208643806Y-100263857D01*
X208643806Y-100263857D02*
X208515235Y-100263857D01*
X209329521Y-100263857D02*
X209243806Y-100221000D01*
X209243806Y-100221000D02*
X209200949Y-100135285D01*
X209200949Y-100135285D02*
X209200949Y-99363857D01*
X209800950Y-100263857D02*
X209715235Y-100221000D01*
X209715235Y-100221000D02*
X209672378Y-100135285D01*
X209672378Y-100135285D02*
X209672378Y-99363857D01*
X210486664Y-100221000D02*
X210400950Y-100263857D01*
X210400950Y-100263857D02*
X210229522Y-100263857D01*
X210229522Y-100263857D02*
X210143807Y-100221000D01*
X210143807Y-100221000D02*
X210100950Y-100135285D01*
X210100950Y-100135285D02*
X210100950Y-99792428D01*
X210100950Y-99792428D02*
X210143807Y-99706714D01*
X210143807Y-99706714D02*
X210229522Y-99663857D01*
X210229522Y-99663857D02*
X210400950Y-99663857D01*
X210400950Y-99663857D02*
X210486664Y-99706714D01*
X210486664Y-99706714D02*
X210529522Y-99792428D01*
X210529522Y-99792428D02*
X210529522Y-99878142D01*
X210529522Y-99878142D02*
X210100950Y-99963857D01*
X211300951Y-99663857D02*
X211300951Y-100392428D01*
X211300951Y-100392428D02*
X211258093Y-100478142D01*
X211258093Y-100478142D02*
X211215236Y-100521000D01*
X211215236Y-100521000D02*
X211129522Y-100563857D01*
X211129522Y-100563857D02*
X211000951Y-100563857D01*
X211000951Y-100563857D02*
X210915236Y-100521000D01*
X211300951Y-100221000D02*
X211215236Y-100263857D01*
X211215236Y-100263857D02*
X211043808Y-100263857D01*
X211043808Y-100263857D02*
X210958093Y-100221000D01*
X210958093Y-100221000D02*
X210915236Y-100178142D01*
X210915236Y-100178142D02*
X210872379Y-100092428D01*
X210872379Y-100092428D02*
X210872379Y-99835285D01*
X210872379Y-99835285D02*
X210915236Y-99749571D01*
X210915236Y-99749571D02*
X210958093Y-99706714D01*
X210958093Y-99706714D02*
X211043808Y-99663857D01*
X211043808Y-99663857D02*
X211215236Y-99663857D01*
X211215236Y-99663857D02*
X211300951Y-99706714D01*
X212072379Y-100221000D02*
X211986665Y-100263857D01*
X211986665Y-100263857D02*
X211815237Y-100263857D01*
X211815237Y-100263857D02*
X211729522Y-100221000D01*
X211729522Y-100221000D02*
X211686665Y-100135285D01*
X211686665Y-100135285D02*
X211686665Y-99792428D01*
X211686665Y-99792428D02*
X211729522Y-99706714D01*
X211729522Y-99706714D02*
X211815237Y-99663857D01*
X211815237Y-99663857D02*
X211986665Y-99663857D01*
X211986665Y-99663857D02*
X212072379Y-99706714D01*
X212072379Y-99706714D02*
X212115237Y-99792428D01*
X212115237Y-99792428D02*
X212115237Y-99878142D01*
X212115237Y-99878142D02*
X211686665Y-99963857D01*
D10*
X77214600Y-91982526D02*
X77214600Y-90982526D01*
X77214600Y-91458716D02*
X77786028Y-91458716D01*
X77786028Y-91982526D02*
X77786028Y-90982526D01*
X78786028Y-91982526D02*
X78214600Y-91982526D01*
X78500314Y-91982526D02*
X78500314Y-90982526D01*
X78500314Y-90982526D02*
X78405076Y-91125383D01*
X78405076Y-91125383D02*
X78309838Y-91220621D01*
X78309838Y-91220621D02*
X78214600Y-91268240D01*
D13*
X259838095Y-91509800D02*
X259980952Y-91557419D01*
X259980952Y-91557419D02*
X260219047Y-91557419D01*
X260219047Y-91557419D02*
X260314285Y-91509800D01*
X260314285Y-91509800D02*
X260361904Y-91462180D01*
X260361904Y-91462180D02*
X260409523Y-91366942D01*
X260409523Y-91366942D02*
X260409523Y-91271704D01*
X260409523Y-91271704D02*
X260361904Y-91176466D01*
X260361904Y-91176466D02*
X260314285Y-91128847D01*
X260314285Y-91128847D02*
X260219047Y-91081228D01*
X260219047Y-91081228D02*
X260028571Y-91033609D01*
X260028571Y-91033609D02*
X259933333Y-90985990D01*
X259933333Y-90985990D02*
X259885714Y-90938371D01*
X259885714Y-90938371D02*
X259838095Y-90843133D01*
X259838095Y-90843133D02*
X259838095Y-90747895D01*
X259838095Y-90747895D02*
X259885714Y-90652657D01*
X259885714Y-90652657D02*
X259933333Y-90605038D01*
X259933333Y-90605038D02*
X260028571Y-90557419D01*
X260028571Y-90557419D02*
X260266666Y-90557419D01*
X260266666Y-90557419D02*
X260409523Y-90605038D01*
X261266666Y-90557419D02*
X261076190Y-90557419D01*
X261076190Y-90557419D02*
X260980952Y-90605038D01*
X260980952Y-90605038D02*
X260933333Y-90652657D01*
X260933333Y-90652657D02*
X260838095Y-90795514D01*
X260838095Y-90795514D02*
X260790476Y-90985990D01*
X260790476Y-90985990D02*
X260790476Y-91366942D01*
X260790476Y-91366942D02*
X260838095Y-91462180D01*
X260838095Y-91462180D02*
X260885714Y-91509800D01*
X260885714Y-91509800D02*
X260980952Y-91557419D01*
X260980952Y-91557419D02*
X261171428Y-91557419D01*
X261171428Y-91557419D02*
X261266666Y-91509800D01*
X261266666Y-91509800D02*
X261314285Y-91462180D01*
X261314285Y-91462180D02*
X261361904Y-91366942D01*
X261361904Y-91366942D02*
X261361904Y-91128847D01*
X261361904Y-91128847D02*
X261314285Y-91033609D01*
X261314285Y-91033609D02*
X261266666Y-90985990D01*
X261266666Y-90985990D02*
X261171428Y-90938371D01*
X261171428Y-90938371D02*
X260980952Y-90938371D01*
X260980952Y-90938371D02*
X260885714Y-90985990D01*
X260885714Y-90985990D02*
X260838095Y-91033609D01*
X260838095Y-91033609D02*
X260790476Y-91128847D01*
D14*
D13*
X183918095Y-91409800D02*
X184060952Y-91457419D01*
X184060952Y-91457419D02*
X184299047Y-91457419D01*
X184299047Y-91457419D02*
X184394285Y-91409800D01*
X184394285Y-91409800D02*
X184441904Y-91362180D01*
X184441904Y-91362180D02*
X184489523Y-91266942D01*
X184489523Y-91266942D02*
X184489523Y-91171704D01*
X184489523Y-91171704D02*
X184441904Y-91076466D01*
X184441904Y-91076466D02*
X184394285Y-91028847D01*
X184394285Y-91028847D02*
X184299047Y-90981228D01*
X184299047Y-90981228D02*
X184108571Y-90933609D01*
X184108571Y-90933609D02*
X184013333Y-90885990D01*
X184013333Y-90885990D02*
X183965714Y-90838371D01*
X183965714Y-90838371D02*
X183918095Y-90743133D01*
X183918095Y-90743133D02*
X183918095Y-90647895D01*
X183918095Y-90647895D02*
X183965714Y-90552657D01*
X183965714Y-90552657D02*
X184013333Y-90505038D01*
X184013333Y-90505038D02*
X184108571Y-90457419D01*
X184108571Y-90457419D02*
X184346666Y-90457419D01*
X184346666Y-90457419D02*
X184489523Y-90505038D01*
X185346666Y-90790752D02*
X185346666Y-91457419D01*
X185108571Y-90409800D02*
X184870476Y-91124085D01*
X184870476Y-91124085D02*
X185489523Y-91124085D01*
D10*
X331238095Y-92114819D02*
X331238095Y-91114819D01*
X331238095Y-91591009D02*
X331809523Y-91591009D01*
X331809523Y-92114819D02*
X331809523Y-91114819D01*
X332190476Y-91114819D02*
X332809523Y-91114819D01*
X332809523Y-91114819D02*
X332476190Y-91495771D01*
X332476190Y-91495771D02*
X332619047Y-91495771D01*
X332619047Y-91495771D02*
X332714285Y-91543390D01*
X332714285Y-91543390D02*
X332761904Y-91591009D01*
X332761904Y-91591009D02*
X332809523Y-91686247D01*
X332809523Y-91686247D02*
X332809523Y-91924342D01*
X332809523Y-91924342D02*
X332761904Y-92019580D01*
X332761904Y-92019580D02*
X332714285Y-92067200D01*
X332714285Y-92067200D02*
X332619047Y-92114819D01*
X332619047Y-92114819D02*
X332333333Y-92114819D01*
X332333333Y-92114819D02*
X332238095Y-92067200D01*
X332238095Y-92067200D02*
X332190476Y-92019580D01*
D13*
X133038095Y-91509800D02*
X133180952Y-91557419D01*
X133180952Y-91557419D02*
X133419047Y-91557419D01*
X133419047Y-91557419D02*
X133514285Y-91509800D01*
X133514285Y-91509800D02*
X133561904Y-91462180D01*
X133561904Y-91462180D02*
X133609523Y-91366942D01*
X133609523Y-91366942D02*
X133609523Y-91271704D01*
X133609523Y-91271704D02*
X133561904Y-91176466D01*
X133561904Y-91176466D02*
X133514285Y-91128847D01*
X133514285Y-91128847D02*
X133419047Y-91081228D01*
X133419047Y-91081228D02*
X133228571Y-91033609D01*
X133228571Y-91033609D02*
X133133333Y-90985990D01*
X133133333Y-90985990D02*
X133085714Y-90938371D01*
X133085714Y-90938371D02*
X133038095Y-90843133D01*
X133038095Y-90843133D02*
X133038095Y-90747895D01*
X133038095Y-90747895D02*
X133085714Y-90652657D01*
X133085714Y-90652657D02*
X133133333Y-90605038D01*
X133133333Y-90605038D02*
X133228571Y-90557419D01*
X133228571Y-90557419D02*
X133466666Y-90557419D01*
X133466666Y-90557419D02*
X133609523Y-90605038D01*
X133990476Y-90652657D02*
X134038095Y-90605038D01*
X134038095Y-90605038D02*
X134133333Y-90557419D01*
X134133333Y-90557419D02*
X134371428Y-90557419D01*
X134371428Y-90557419D02*
X134466666Y-90605038D01*
X134466666Y-90605038D02*
X134514285Y-90652657D01*
X134514285Y-90652657D02*
X134561904Y-90747895D01*
X134561904Y-90747895D02*
X134561904Y-90843133D01*
X134561904Y-90843133D02*
X134514285Y-90985990D01*
X134514285Y-90985990D02*
X133942857Y-91557419D01*
X133942857Y-91557419D02*
X134561904Y-91557419D01*
X285518095Y-91509800D02*
X285660952Y-91557419D01*
X285660952Y-91557419D02*
X285899047Y-91557419D01*
X285899047Y-91557419D02*
X285994285Y-91509800D01*
X285994285Y-91509800D02*
X286041904Y-91462180D01*
X286041904Y-91462180D02*
X286089523Y-91366942D01*
X286089523Y-91366942D02*
X286089523Y-91271704D01*
X286089523Y-91271704D02*
X286041904Y-91176466D01*
X286041904Y-91176466D02*
X285994285Y-91128847D01*
X285994285Y-91128847D02*
X285899047Y-91081228D01*
X285899047Y-91081228D02*
X285708571Y-91033609D01*
X285708571Y-91033609D02*
X285613333Y-90985990D01*
X285613333Y-90985990D02*
X285565714Y-90938371D01*
X285565714Y-90938371D02*
X285518095Y-90843133D01*
X285518095Y-90843133D02*
X285518095Y-90747895D01*
X285518095Y-90747895D02*
X285565714Y-90652657D01*
X285565714Y-90652657D02*
X285613333Y-90605038D01*
X285613333Y-90605038D02*
X285708571Y-90557419D01*
X285708571Y-90557419D02*
X285946666Y-90557419D01*
X285946666Y-90557419D02*
X286089523Y-90605038D01*
X286422857Y-90557419D02*
X287089523Y-90557419D01*
X287089523Y-90557419D02*
X286660952Y-91557419D01*
X310918095Y-91509800D02*
X311060952Y-91557419D01*
X311060952Y-91557419D02*
X311299047Y-91557419D01*
X311299047Y-91557419D02*
X311394285Y-91509800D01*
X311394285Y-91509800D02*
X311441904Y-91462180D01*
X311441904Y-91462180D02*
X311489523Y-91366942D01*
X311489523Y-91366942D02*
X311489523Y-91271704D01*
X311489523Y-91271704D02*
X311441904Y-91176466D01*
X311441904Y-91176466D02*
X311394285Y-91128847D01*
X311394285Y-91128847D02*
X311299047Y-91081228D01*
X311299047Y-91081228D02*
X311108571Y-91033609D01*
X311108571Y-91033609D02*
X311013333Y-90985990D01*
X311013333Y-90985990D02*
X310965714Y-90938371D01*
X310965714Y-90938371D02*
X310918095Y-90843133D01*
X310918095Y-90843133D02*
X310918095Y-90747895D01*
X310918095Y-90747895D02*
X310965714Y-90652657D01*
X310965714Y-90652657D02*
X311013333Y-90605038D01*
X311013333Y-90605038D02*
X311108571Y-90557419D01*
X311108571Y-90557419D02*
X311346666Y-90557419D01*
X311346666Y-90557419D02*
X311489523Y-90605038D01*
X312060952Y-90985990D02*
X311965714Y-90938371D01*
X311965714Y-90938371D02*
X311918095Y-90890752D01*
X311918095Y-90890752D02*
X311870476Y-90795514D01*
X311870476Y-90795514D02*
X311870476Y-90747895D01*
X311870476Y-90747895D02*
X311918095Y-90652657D01*
X311918095Y-90652657D02*
X311965714Y-90605038D01*
X311965714Y-90605038D02*
X312060952Y-90557419D01*
X312060952Y-90557419D02*
X312251428Y-90557419D01*
X312251428Y-90557419D02*
X312346666Y-90605038D01*
X312346666Y-90605038D02*
X312394285Y-90652657D01*
X312394285Y-90652657D02*
X312441904Y-90747895D01*
X312441904Y-90747895D02*
X312441904Y-90795514D01*
X312441904Y-90795514D02*
X312394285Y-90890752D01*
X312394285Y-90890752D02*
X312346666Y-90938371D01*
X312346666Y-90938371D02*
X312251428Y-90985990D01*
X312251428Y-90985990D02*
X312060952Y-90985990D01*
X312060952Y-90985990D02*
X311965714Y-91033609D01*
X311965714Y-91033609D02*
X311918095Y-91081228D01*
X311918095Y-91081228D02*
X311870476Y-91176466D01*
X311870476Y-91176466D02*
X311870476Y-91366942D01*
X311870476Y-91366942D02*
X311918095Y-91462180D01*
X311918095Y-91462180D02*
X311965714Y-91509800D01*
X311965714Y-91509800D02*
X312060952Y-91557419D01*
X312060952Y-91557419D02*
X312251428Y-91557419D01*
X312251428Y-91557419D02*
X312346666Y-91509800D01*
X312346666Y-91509800D02*
X312394285Y-91462180D01*
X312394285Y-91462180D02*
X312441904Y-91366942D01*
X312441904Y-91366942D02*
X312441904Y-91176466D01*
X312441904Y-91176466D02*
X312394285Y-91081228D01*
X312394285Y-91081228D02*
X312346666Y-91033609D01*
X312346666Y-91033609D02*
X312251428Y-90985990D01*
D10*
X208438095Y-96154819D02*
X208438095Y-95154819D01*
X208438095Y-95631009D02*
X209009523Y-95631009D01*
X209009523Y-96154819D02*
X209009523Y-95154819D01*
X209438095Y-95250057D02*
X209485714Y-95202438D01*
X209485714Y-95202438D02*
X209580952Y-95154819D01*
X209580952Y-95154819D02*
X209819047Y-95154819D01*
X209819047Y-95154819D02*
X209914285Y-95202438D01*
X209914285Y-95202438D02*
X209961904Y-95250057D01*
X209961904Y-95250057D02*
X210009523Y-95345295D01*
X210009523Y-95345295D02*
X210009523Y-95440533D01*
X210009523Y-95440533D02*
X209961904Y-95583390D01*
X209961904Y-95583390D02*
X209390476Y-96154819D01*
X209390476Y-96154819D02*
X210009523Y-96154819D01*
D13*
X158518095Y-91509800D02*
X158660952Y-91557419D01*
X158660952Y-91557419D02*
X158899047Y-91557419D01*
X158899047Y-91557419D02*
X158994285Y-91509800D01*
X158994285Y-91509800D02*
X159041904Y-91462180D01*
X159041904Y-91462180D02*
X159089523Y-91366942D01*
X159089523Y-91366942D02*
X159089523Y-91271704D01*
X159089523Y-91271704D02*
X159041904Y-91176466D01*
X159041904Y-91176466D02*
X158994285Y-91128847D01*
X158994285Y-91128847D02*
X158899047Y-91081228D01*
X158899047Y-91081228D02*
X158708571Y-91033609D01*
X158708571Y-91033609D02*
X158613333Y-90985990D01*
X158613333Y-90985990D02*
X158565714Y-90938371D01*
X158565714Y-90938371D02*
X158518095Y-90843133D01*
X158518095Y-90843133D02*
X158518095Y-90747895D01*
X158518095Y-90747895D02*
X158565714Y-90652657D01*
X158565714Y-90652657D02*
X158613333Y-90605038D01*
X158613333Y-90605038D02*
X158708571Y-90557419D01*
X158708571Y-90557419D02*
X158946666Y-90557419D01*
X158946666Y-90557419D02*
X159089523Y-90605038D01*
X159422857Y-90557419D02*
X160041904Y-90557419D01*
X160041904Y-90557419D02*
X159708571Y-90938371D01*
X159708571Y-90938371D02*
X159851428Y-90938371D01*
X159851428Y-90938371D02*
X159946666Y-90985990D01*
X159946666Y-90985990D02*
X159994285Y-91033609D01*
X159994285Y-91033609D02*
X160041904Y-91128847D01*
X160041904Y-91128847D02*
X160041904Y-91366942D01*
X160041904Y-91366942D02*
X159994285Y-91462180D01*
X159994285Y-91462180D02*
X159946666Y-91509800D01*
X159946666Y-91509800D02*
X159851428Y-91557419D01*
X159851428Y-91557419D02*
X159565714Y-91557419D01*
X159565714Y-91557419D02*
X159470476Y-91509800D01*
X159470476Y-91509800D02*
X159422857Y-91462180D01*
X107718095Y-91509800D02*
X107860952Y-91557419D01*
X107860952Y-91557419D02*
X108099047Y-91557419D01*
X108099047Y-91557419D02*
X108194285Y-91509800D01*
X108194285Y-91509800D02*
X108241904Y-91462180D01*
X108241904Y-91462180D02*
X108289523Y-91366942D01*
X108289523Y-91366942D02*
X108289523Y-91271704D01*
X108289523Y-91271704D02*
X108241904Y-91176466D01*
X108241904Y-91176466D02*
X108194285Y-91128847D01*
X108194285Y-91128847D02*
X108099047Y-91081228D01*
X108099047Y-91081228D02*
X107908571Y-91033609D01*
X107908571Y-91033609D02*
X107813333Y-90985990D01*
X107813333Y-90985990D02*
X107765714Y-90938371D01*
X107765714Y-90938371D02*
X107718095Y-90843133D01*
X107718095Y-90843133D02*
X107718095Y-90747895D01*
X107718095Y-90747895D02*
X107765714Y-90652657D01*
X107765714Y-90652657D02*
X107813333Y-90605038D01*
X107813333Y-90605038D02*
X107908571Y-90557419D01*
X107908571Y-90557419D02*
X108146666Y-90557419D01*
X108146666Y-90557419D02*
X108289523Y-90605038D01*
X109241904Y-91557419D02*
X108670476Y-91557419D01*
X108956190Y-91557419D02*
X108956190Y-90557419D01*
X108956190Y-90557419D02*
X108860952Y-90700276D01*
X108860952Y-90700276D02*
X108765714Y-90795514D01*
X108765714Y-90795514D02*
X108670476Y-90843133D01*
X234718095Y-91409800D02*
X234860952Y-91457419D01*
X234860952Y-91457419D02*
X235099047Y-91457419D01*
X235099047Y-91457419D02*
X235194285Y-91409800D01*
X235194285Y-91409800D02*
X235241904Y-91362180D01*
X235241904Y-91362180D02*
X235289523Y-91266942D01*
X235289523Y-91266942D02*
X235289523Y-91171704D01*
X235289523Y-91171704D02*
X235241904Y-91076466D01*
X235241904Y-91076466D02*
X235194285Y-91028847D01*
X235194285Y-91028847D02*
X235099047Y-90981228D01*
X235099047Y-90981228D02*
X234908571Y-90933609D01*
X234908571Y-90933609D02*
X234813333Y-90885990D01*
X234813333Y-90885990D02*
X234765714Y-90838371D01*
X234765714Y-90838371D02*
X234718095Y-90743133D01*
X234718095Y-90743133D02*
X234718095Y-90647895D01*
X234718095Y-90647895D02*
X234765714Y-90552657D01*
X234765714Y-90552657D02*
X234813333Y-90505038D01*
X234813333Y-90505038D02*
X234908571Y-90457419D01*
X234908571Y-90457419D02*
X235146666Y-90457419D01*
X235146666Y-90457419D02*
X235289523Y-90505038D01*
X236194285Y-90457419D02*
X235718095Y-90457419D01*
X235718095Y-90457419D02*
X235670476Y-90933609D01*
X235670476Y-90933609D02*
X235718095Y-90885990D01*
X235718095Y-90885990D02*
X235813333Y-90838371D01*
X235813333Y-90838371D02*
X236051428Y-90838371D01*
X236051428Y-90838371D02*
X236146666Y-90885990D01*
X236146666Y-90885990D02*
X236194285Y-90933609D01*
X236194285Y-90933609D02*
X236241904Y-91028847D01*
X236241904Y-91028847D02*
X236241904Y-91266942D01*
X236241904Y-91266942D02*
X236194285Y-91362180D01*
X236194285Y-91362180D02*
X236146666Y-91409800D01*
X236146666Y-91409800D02*
X236051428Y-91457419D01*
X236051428Y-91457419D02*
X235813333Y-91457419D01*
X235813333Y-91457419D02*
X235718095Y-91409800D01*
X235718095Y-91409800D02*
X235670476Y-91362180D01*
D15*
X307987599Y-102645000D02*
G75*
G02*
X307225599Y-102645000I-381000J0D01*
G01*
X307225599Y-102645000D02*
G75*
G02*
X307987599Y-102645000I381000J0D01*
G01*
X282587599Y-102645000D02*
G75*
G02*
X281825599Y-102645000I-381000J0D01*
G01*
X281825599Y-102645000D02*
G75*
G02*
X282587599Y-102645000I381000J0D01*
G01*
X257187599Y-102645000D02*
G75*
G02*
X256425599Y-102645000I-381000J0D01*
G01*
X256425599Y-102645000D02*
G75*
G02*
X257187599Y-102645000I381000J0D01*
G01*
X231787599Y-102645000D02*
G75*
G02*
X231025599Y-102645000I-381000J0D01*
G01*
X231025599Y-102645000D02*
G75*
G02*
X231787599Y-102645000I381000J0D01*
G01*
X180987599Y-102645000D02*
G75*
G02*
X180225599Y-102645000I-381000J0D01*
G01*
X180225599Y-102645000D02*
G75*
G02*
X180987599Y-102645000I381000J0D01*
G01*
X130187599Y-102645000D02*
G75*
G02*
X129425599Y-102645000I-381000J0D01*
G01*
X129425599Y-102645000D02*
G75*
G02*
X130187599Y-102645000I381000J0D01*
G01*
X104787599Y-102645000D02*
G75*
G02*
X104025599Y-102645000I-381000J0D01*
G01*
X104025599Y-102645000D02*
G75*
G02*
X104787599Y-102645000I381000J0D01*
G01*
D10*
X256840000Y-91850000D02*
X264460000Y-91850000D01*
X264460000Y-99470000D01*
X256840000Y-99470000D01*
X256840000Y-91850000D01*
D16*
G36*
X192581104Y-93384067D02*
G01*
X192640384Y-93434157D01*
X192670872Y-93521831D01*
X192676540Y-93604008D01*
X192663960Y-93718997D01*
X192624416Y-93794086D01*
X192555199Y-93832704D01*
X192490323Y-93839883D01*
X192403422Y-93839883D01*
X192403422Y-93604008D01*
X192403422Y-93368133D01*
X192490323Y-93368133D01*
X192581104Y-93384067D01*
G37*
G36*
X195218788Y-95342837D02*
G01*
X195287035Y-95377083D01*
X195345650Y-95424547D01*
X195345650Y-96046775D01*
X195345505Y-96238629D01*
X195344737Y-96387064D01*
X195342851Y-96498317D01*
X195339351Y-96578626D01*
X195333739Y-96634229D01*
X195325520Y-96671365D01*
X195314196Y-96696270D01*
X195299273Y-96715183D01*
X195291857Y-96722795D01*
X195213173Y-96768645D01*
X195111847Y-96788716D01*
X194985631Y-96800844D01*
X194985631Y-96065232D01*
X194985631Y-95329619D01*
X195107025Y-95329619D01*
X195218788Y-95342837D01*
G37*
G36*
X191578163Y-93498603D02*
G01*
X191590412Y-93562890D01*
X191606536Y-93654775D01*
X191618806Y-93728153D01*
X191637663Y-93841455D01*
X191655042Y-93943062D01*
X191668449Y-94018525D01*
X191673442Y-94044722D01*
X191679060Y-94086171D01*
X191665870Y-94106151D01*
X191622236Y-94112489D01*
X191571952Y-94113001D01*
X191501956Y-94110297D01*
X191470750Y-94099170D01*
X191467621Y-94075094D01*
X191469063Y-94069551D01*
X191477631Y-94028363D01*
X191491319Y-93949886D01*
X191508134Y-93845977D01*
X191523510Y-93745752D01*
X191540561Y-93635842D01*
X191555421Y-93547463D01*
X191566427Y-93490023D01*
X191571763Y-93472634D01*
X191578163Y-93498603D01*
G37*
G36*
X193832691Y-95335581D02*
G01*
X193892040Y-95357979D01*
X193931530Y-95390563D01*
X193992473Y-95451506D01*
X193992473Y-96034947D01*
X193991885Y-96238801D01*
X193989428Y-96398801D01*
X193984066Y-96520743D01*
X193974761Y-96610422D01*
X193960475Y-96673636D01*
X193940172Y-96716180D01*
X193912814Y-96743852D01*
X193877363Y-96762446D01*
X193861201Y-96768461D01*
X193781544Y-96787975D01*
X193704472Y-96793883D01*
X193648630Y-96785396D01*
X193636592Y-96777973D01*
X193632355Y-96749820D01*
X193628520Y-96678392D01*
X193625229Y-96570072D01*
X193622627Y-96431242D01*
X193620858Y-96268287D01*
X193620068Y-96087587D01*
X193620039Y-96045520D01*
X193620039Y-95329619D01*
X193745313Y-95329619D01*
X193832691Y-95335581D01*
G37*
G36*
X191489810Y-97629122D02*
G01*
X191520221Y-97652898D01*
X191534821Y-97675037D01*
X191545384Y-97712583D01*
X191552507Y-97772687D01*
X191556788Y-97862498D01*
X191558824Y-97989167D01*
X191559238Y-98119682D01*
X191558535Y-98286831D01*
X191555335Y-98410756D01*
X191548001Y-98497884D01*
X191534895Y-98554642D01*
X191514381Y-98587457D01*
X191484822Y-98602754D01*
X191444580Y-98606962D01*
X191435093Y-98607038D01*
X191374544Y-98596199D01*
X191340743Y-98577244D01*
X191328380Y-98544765D01*
X191319471Y-98473537D01*
X191313811Y-98360391D01*
X191311192Y-98202159D01*
X191310948Y-98121756D01*
X191311429Y-97964854D01*
X191313359Y-97850054D01*
X191317473Y-97769807D01*
X191324507Y-97716565D01*
X191335193Y-97682776D01*
X191350267Y-97660891D01*
X191356354Y-97654973D01*
X191424438Y-97617430D01*
X191489810Y-97629122D01*
G37*
G36*
X196279271Y-92531145D02*
G01*
X196363637Y-92587998D01*
X196370262Y-95988574D01*
X196376888Y-99389150D01*
X196324061Y-99432600D01*
X196314493Y-99438777D01*
X196299916Y-99444342D01*
X196277836Y-99449325D01*
X196245758Y-99453760D01*
X196201187Y-99457677D01*
X196141628Y-99461109D01*
X196064587Y-99464088D01*
X195967569Y-99466644D01*
X195848078Y-99468812D01*
X195703621Y-99470621D01*
X195531702Y-99472104D01*
X195329827Y-99473293D01*
X195095501Y-99474219D01*
X194826229Y-99474915D01*
X194519516Y-99475412D01*
X194172867Y-99475743D01*
X193783788Y-99475938D01*
X193349785Y-99476030D01*
X192920169Y-99476051D01*
X189569103Y-99476051D01*
X189496526Y-99403474D01*
X189423949Y-99330897D01*
X189423949Y-98155524D01*
X190189215Y-98155524D01*
X190192270Y-98303506D01*
X190199311Y-98439023D01*
X190210323Y-98551748D01*
X190225290Y-98631355D01*
X190235822Y-98658360D01*
X190308842Y-98736640D01*
X190410565Y-98786777D01*
X190527190Y-98806304D01*
X190644915Y-98792755D01*
X190742418Y-98748897D01*
X190820576Y-98668254D01*
X190870073Y-98557529D01*
X190885077Y-98430743D01*
X190883819Y-98409088D01*
X190875733Y-98353825D01*
X190853971Y-98327160D01*
X190803641Y-98316534D01*
X190770919Y-98313871D01*
X190704834Y-98310999D01*
X190674424Y-98322116D01*
X190665836Y-98357601D01*
X190665396Y-98392948D01*
X190653988Y-98506859D01*
X190619374Y-98577616D01*
X190560975Y-98606267D01*
X190546832Y-98607038D01*
X190502364Y-98604514D01*
X190469400Y-98592648D01*
X190446224Y-98565003D01*
X190431124Y-98515141D01*
X190422385Y-98436623D01*
X190418295Y-98323013D01*
X190417138Y-98167870D01*
X190417107Y-98119682D01*
X190417794Y-97958919D01*
X190418683Y-97916207D01*
X191090537Y-97916207D01*
X191091191Y-98090483D01*
X191092197Y-98158883D01*
X191095086Y-98322500D01*
X191098257Y-98444023D01*
X191102696Y-98531009D01*
X191109386Y-98591015D01*
X191119313Y-98631600D01*
X191133460Y-98660322D01*
X191152811Y-98684738D01*
X191161975Y-98694718D01*
X191217747Y-98745789D01*
X191270005Y-98780348D01*
X191273705Y-98781982D01*
X191360626Y-98800771D01*
X191468205Y-98801387D01*
X191571299Y-98784848D01*
X191582577Y-98780841D01*
X191981330Y-98780841D01*
X192266862Y-98780841D01*
X192552395Y-98780841D01*
X192650900Y-98780841D01*
X192949253Y-98780841D01*
X193247605Y-98780841D01*
X193371750Y-98780841D01*
X193694526Y-98780841D01*
X194017302Y-98780841D01*
X194017302Y-98693940D01*
X194017302Y-98607038D01*
X193806256Y-98607038D01*
X193595210Y-98607038D01*
X193595210Y-98395992D01*
X193595210Y-98184946D01*
X193744184Y-98184946D01*
X193893158Y-98184946D01*
X193893158Y-98157066D01*
X194163025Y-98157066D01*
X194165622Y-98305276D01*
X194171814Y-98440758D01*
X194181603Y-98553137D01*
X194194989Y-98632038D01*
X194203831Y-98657300D01*
X194272058Y-98739505D01*
X194367358Y-98789223D01*
X194476823Y-98803415D01*
X194587544Y-98779046D01*
X194629778Y-98757525D01*
X194683535Y-98728710D01*
X194710908Y-98728104D01*
X194722107Y-98745203D01*
X194754672Y-98772310D01*
X194798635Y-98780841D01*
X194861486Y-98780841D01*
X195060118Y-98780841D01*
X195382894Y-98780841D01*
X195705670Y-98780841D01*
X195705670Y-98693940D01*
X195705670Y-98607038D01*
X195494624Y-98607038D01*
X195283578Y-98607038D01*
X195283578Y-98395992D01*
X195283578Y-98184946D01*
X195432552Y-98184946D01*
X195581525Y-98184946D01*
X195581525Y-98085631D01*
X195581525Y-97986315D01*
X195432552Y-97986315D01*
X195283578Y-97986315D01*
X195283578Y-97812512D01*
X195283578Y-97638710D01*
X195483708Y-97638710D01*
X195683839Y-97638710D01*
X195676133Y-97545601D01*
X195668426Y-97452493D01*
X195364272Y-97445521D01*
X195060118Y-97438550D01*
X195060118Y-98109695D01*
X195060118Y-98780841D01*
X194861486Y-98780841D01*
X194861486Y-98445650D01*
X194861486Y-98110460D01*
X194675269Y-98110460D01*
X194489052Y-98110460D01*
X194489052Y-98195712D01*
X194494414Y-98254624D01*
X194518522Y-98280743D01*
X194557332Y-98288820D01*
X194597890Y-98296900D01*
X194617038Y-98317990D01*
X194621323Y-98365815D01*
X194619199Y-98418525D01*
X194605640Y-98520489D01*
X194575534Y-98580733D01*
X194525017Y-98605551D01*
X194503392Y-98607038D01*
X194464354Y-98603755D01*
X194435402Y-98589639D01*
X194415046Y-98558297D01*
X194401793Y-98503331D01*
X194394152Y-98418347D01*
X194390631Y-98296947D01*
X194389739Y-98132738D01*
X194389736Y-98119682D01*
X194389779Y-98109695D01*
X194390424Y-97958919D01*
X194392885Y-97840650D01*
X194397718Y-97757724D01*
X194405519Y-97702993D01*
X194416887Y-97669305D01*
X194428753Y-97652898D01*
X194468932Y-97620375D01*
X194505494Y-97620685D01*
X194556538Y-97651498D01*
X194603255Y-97714028D01*
X194617927Y-97781850D01*
X194625865Y-97840267D01*
X194646702Y-97868335D01*
X194695367Y-97879289D01*
X194731134Y-97882220D01*
X194836657Y-97889854D01*
X194836657Y-97787878D01*
X194816365Y-97654583D01*
X194758711Y-97549113D01*
X194668534Y-97476607D01*
X194550668Y-97442203D01*
X194509300Y-97440078D01*
X194372975Y-97457577D01*
X194269346Y-97509071D01*
X194203940Y-97588239D01*
X194188574Y-97644457D01*
X194176799Y-97739824D01*
X194168615Y-97863965D01*
X194164023Y-98006504D01*
X194163025Y-98157066D01*
X193893158Y-98157066D01*
X193893158Y-98085631D01*
X193893158Y-97986315D01*
X193744184Y-97986315D01*
X193595210Y-97986315D01*
X193595210Y-97812512D01*
X193595210Y-97638710D01*
X193781427Y-97638710D01*
X193967644Y-97638710D01*
X193967644Y-97539394D01*
X193967644Y-97440078D01*
X193669697Y-97440078D01*
X193371750Y-97440078D01*
X193371750Y-98110460D01*
X193371750Y-98780841D01*
X193247605Y-98780841D01*
X193247605Y-98693940D01*
X193247605Y-98607038D01*
X193074260Y-98607038D01*
X192900915Y-98607038D01*
X192895183Y-98110460D01*
X192894251Y-98029766D01*
X192887586Y-97452493D01*
X192775856Y-97452493D01*
X192664125Y-97452493D01*
X192657513Y-98116667D01*
X192650900Y-98780841D01*
X192552395Y-98780841D01*
X192552395Y-98693940D01*
X192552395Y-98607038D01*
X192378593Y-98607038D01*
X192204790Y-98607038D01*
X192204790Y-98023558D01*
X192204790Y-97440078D01*
X192093060Y-97440078D01*
X191981330Y-97440078D01*
X191981330Y-98110460D01*
X191981330Y-98780841D01*
X191582577Y-98780841D01*
X191618649Y-98768025D01*
X191671804Y-98739115D01*
X191712137Y-98704897D01*
X191741392Y-98658514D01*
X191761312Y-98593109D01*
X191773642Y-98501825D01*
X191780124Y-98377804D01*
X191782502Y-98214189D01*
X191782698Y-98122874D01*
X191782633Y-98110460D01*
X191781749Y-97941032D01*
X191777793Y-97801720D01*
X191769170Y-97697826D01*
X191754220Y-97622240D01*
X191731283Y-97567853D01*
X191698698Y-97527553D01*
X191654804Y-97494231D01*
X191632736Y-97480687D01*
X191545930Y-97450696D01*
X191436123Y-97440820D01*
X191325671Y-97450962D01*
X191236932Y-97481022D01*
X191234487Y-97482438D01*
X191185725Y-97515957D01*
X191148782Y-97555902D01*
X191122225Y-97609085D01*
X191104621Y-97682322D01*
X191094536Y-97782425D01*
X191090537Y-97916207D01*
X190418683Y-97916207D01*
X190420256Y-97840650D01*
X190425088Y-97757724D01*
X190432889Y-97702993D01*
X190444257Y-97669305D01*
X190456124Y-97652898D01*
X190515707Y-97618035D01*
X190572428Y-97628415D01*
X190619994Y-97679741D01*
X190652110Y-97767716D01*
X190656143Y-97789445D01*
X190668179Y-97849373D01*
X190689093Y-97877761D01*
X190734293Y-97886396D01*
X190783675Y-97886999D01*
X190895606Y-97886999D01*
X190880233Y-97774841D01*
X190845126Y-97632514D01*
X190783013Y-97531031D01*
X190691465Y-97468086D01*
X190568059Y-97441377D01*
X190527694Y-97440078D01*
X190396089Y-97460148D01*
X190292602Y-97519084D01*
X190234255Y-97590041D01*
X190217154Y-97645461D01*
X190204115Y-97740045D01*
X190195122Y-97863468D01*
X190190160Y-98005403D01*
X190189215Y-98155524D01*
X189423949Y-98155524D01*
X189423949Y-96045520D01*
X189423949Y-96013092D01*
X189423886Y-95531149D01*
X189423776Y-95096397D01*
X189423771Y-95031672D01*
X190218475Y-95031672D01*
X190218475Y-96045520D01*
X190218894Y-96265274D01*
X190220088Y-96469495D01*
X190221968Y-96652858D01*
X190224442Y-96810041D01*
X190227418Y-96935720D01*
X190230807Y-97024573D01*
X190234517Y-97071275D01*
X190236111Y-97077004D01*
X190268871Y-97085521D01*
X190334562Y-97088784D01*
X190391292Y-97087349D01*
X190528837Y-97080059D01*
X190537646Y-96335191D01*
X190546455Y-95590323D01*
X190699034Y-96335191D01*
X190851613Y-97080059D01*
X190938159Y-97080059D01*
X191024706Y-97080059D01*
X191177863Y-96310362D01*
X191331021Y-95540665D01*
X191339606Y-96310362D01*
X191348192Y-97080059D01*
X191497165Y-97080059D01*
X191646139Y-97080059D01*
X191652622Y-96055865D01*
X191654162Y-95812561D01*
X191659104Y-95031672D01*
X191906843Y-95031672D01*
X191906843Y-95812561D01*
X191907785Y-96049156D01*
X191910514Y-96258563D01*
X191914890Y-96436067D01*
X191920768Y-96576952D01*
X191928006Y-96676502D01*
X191934350Y-96721710D01*
X191987483Y-96863954D01*
X192076188Y-96975424D01*
X192195344Y-97053809D01*
X192339831Y-97096795D01*
X192504529Y-97102072D01*
X192518257Y-97099419D01*
X193272434Y-97099419D01*
X193284422Y-97098951D01*
X194638026Y-97098951D01*
X194967009Y-97087526D01*
X195117403Y-97080662D01*
X195229048Y-97071095D01*
X195312838Y-97057292D01*
X195379669Y-97037720D01*
X195410416Y-97025165D01*
X195535765Y-96943065D01*
X195630315Y-96824979D01*
X195680272Y-96707625D01*
X195690993Y-96644245D01*
X195698325Y-96537817D01*
X195702320Y-96386623D01*
X195703028Y-96188943D01*
X195701314Y-96000000D01*
X195698570Y-95809422D01*
X195695601Y-95661634D01*
X195691787Y-95549769D01*
X195686510Y-95466960D01*
X195679149Y-95406340D01*
X195669085Y-95361043D01*
X195655697Y-95324202D01*
X195638367Y-95288951D01*
X195636900Y-95286196D01*
X195579322Y-95205664D01*
X195503223Y-95131410D01*
X195477397Y-95112393D01*
X195434994Y-95085826D01*
X195394783Y-95066957D01*
X195347080Y-95054212D01*
X195282204Y-95046010D01*
X195190473Y-95040775D01*
X195062205Y-95036929D01*
X195006138Y-95035602D01*
X194638026Y-95027117D01*
X194638026Y-96063034D01*
X194638026Y-97098951D01*
X193284422Y-97098951D01*
X193613832Y-97086091D01*
X193796497Y-97075860D01*
X193932388Y-97061106D01*
X194024212Y-97041499D01*
X194047263Y-97033076D01*
X194153516Y-96970816D01*
X194236555Y-96881080D01*
X194299536Y-96769697D01*
X194316349Y-96730959D01*
X194329150Y-96690669D01*
X194338479Y-96641680D01*
X194344873Y-96576848D01*
X194348870Y-96489025D01*
X194351010Y-96371067D01*
X194351829Y-96215827D01*
X194351903Y-96074487D01*
X194351852Y-96063034D01*
X194350940Y-95858911D01*
X194347492Y-95686487D01*
X194340419Y-95550728D01*
X194328581Y-95445148D01*
X194310838Y-95363259D01*
X194286050Y-95298574D01*
X194253077Y-95244607D01*
X194210778Y-95194869D01*
X194194366Y-95178065D01*
X194131393Y-95123497D01*
X194062033Y-95083929D01*
X193977236Y-95057173D01*
X193867953Y-95041044D01*
X193725133Y-95033355D01*
X193589003Y-95031810D01*
X193272434Y-95031672D01*
X193272434Y-96065545D01*
X193272434Y-97099419D01*
X192518257Y-97099419D01*
X192684318Y-97067326D01*
X192693524Y-97064524D01*
X192788569Y-97012333D01*
X192874802Y-96924132D01*
X192941184Y-96813521D01*
X192971809Y-96721710D01*
X192979989Y-96656838D01*
X192986917Y-96547037D01*
X192992451Y-96397022D01*
X192996448Y-96211509D01*
X192998012Y-96065545D01*
X192998765Y-95995213D01*
X192999316Y-95812561D01*
X192999316Y-95031672D01*
X192813099Y-95031672D01*
X192626882Y-95031672D01*
X192626882Y-95867693D01*
X192626666Y-96096217D01*
X192625860Y-96280207D01*
X192624225Y-96424783D01*
X192621522Y-96535069D01*
X192617512Y-96616186D01*
X192611957Y-96673257D01*
X192604617Y-96711403D01*
X192595254Y-96735746D01*
X192585790Y-96749120D01*
X192525333Y-96783841D01*
X192444221Y-96793488D01*
X192364875Y-96777691D01*
X192324683Y-96753435D01*
X192312403Y-96739517D01*
X192302552Y-96718912D01*
X192294864Y-96686466D01*
X192289074Y-96637029D01*
X192284915Y-96565448D01*
X192282122Y-96466570D01*
X192280431Y-96335243D01*
X192279576Y-96166314D01*
X192279291Y-95954633D01*
X192279277Y-95872007D01*
X192279277Y-95031672D01*
X192093060Y-95031672D01*
X191906843Y-95031672D01*
X191659104Y-95031672D01*
X191424627Y-95031672D01*
X191313308Y-95032841D01*
X191242135Y-95037459D01*
X191201625Y-95047195D01*
X191182298Y-95063715D01*
X191177593Y-95075122D01*
X191168992Y-95111749D01*
X191152186Y-95189083D01*
X191128856Y-95299170D01*
X191100684Y-95434053D01*
X191069353Y-95585777D01*
X191060782Y-95627566D01*
X191028851Y-95780545D01*
X190999241Y-95916961D01*
X190973671Y-96029323D01*
X190953861Y-96110137D01*
X190941529Y-96151914D01*
X190939598Y-96155656D01*
X190929586Y-96138736D01*
X190911854Y-96080224D01*
X190888214Y-95987262D01*
X190860477Y-95866993D01*
X190830457Y-95726559D01*
X190829343Y-95721150D01*
X190797846Y-95568242D01*
X190768020Y-95423771D01*
X190742013Y-95298124D01*
X190721975Y-95201689D01*
X190711064Y-95149609D01*
X190686110Y-95031672D01*
X190452293Y-95031672D01*
X190218475Y-95031672D01*
X189423771Y-95031672D01*
X189423743Y-94706370D01*
X189423908Y-94358602D01*
X189424394Y-94050627D01*
X189425323Y-93779977D01*
X189426817Y-93544188D01*
X189428998Y-93340792D01*
X189431989Y-93167323D01*
X189432598Y-93144673D01*
X190218475Y-93144673D01*
X190218475Y-93914370D01*
X190218475Y-94684067D01*
X190342620Y-94684067D01*
X190466765Y-94684067D01*
X190466765Y-94348876D01*
X190466765Y-94013685D01*
X190603324Y-94013685D01*
X190739883Y-94013685D01*
X190739883Y-94348876D01*
X190739883Y-94684067D01*
X190876442Y-94684067D01*
X191013001Y-94684067D01*
X191013001Y-94656212D01*
X191137146Y-94656212D01*
X191160160Y-94673706D01*
X191222631Y-94683089D01*
X191258387Y-94684067D01*
X191379628Y-94684067D01*
X191401153Y-94516471D01*
X191422679Y-94348876D01*
X191571652Y-94348876D01*
X191720626Y-94348876D01*
X191742151Y-94516471D01*
X191763676Y-94684067D01*
X191884917Y-94684067D01*
X192130303Y-94684067D01*
X192266862Y-94684067D01*
X192403422Y-94684067D01*
X194017302Y-94684067D01*
X194377322Y-94684067D01*
X194737341Y-94684067D01*
X194737341Y-94572336D01*
X194737341Y-94460606D01*
X194501467Y-94460606D01*
X194265592Y-94460606D01*
X194265592Y-94237146D01*
X194265592Y-94013685D01*
X194439394Y-94013685D01*
X194613197Y-94013685D01*
X194613197Y-93903090D01*
X194613197Y-93792494D01*
X194445601Y-93785152D01*
X194278006Y-93777811D01*
X194278006Y-93579179D01*
X194278006Y-93380548D01*
X194495259Y-93373374D01*
X194712512Y-93366200D01*
X194712512Y-93255436D01*
X194712512Y-93153668D01*
X194811828Y-93153668D01*
X194819805Y-93179560D01*
X194842025Y-93244814D01*
X194875919Y-93342067D01*
X194918919Y-93463955D01*
X194968458Y-93603115D01*
X194973216Y-93616422D01*
X195134604Y-94067587D01*
X195134604Y-94375827D01*
X195134604Y-94684067D01*
X195258749Y-94684067D01*
X195382894Y-94684067D01*
X195382894Y-94374463D01*
X195382894Y-94064859D01*
X195530192Y-93648216D01*
X195578940Y-93510543D01*
X195622818Y-93387024D01*
X195658795Y-93286159D01*
X195683840Y-93216447D01*
X195694237Y-93188123D01*
X195697990Y-93162430D01*
X195676715Y-93149395D01*
X195620203Y-93144953D01*
X195585055Y-93144673D01*
X195527614Y-93145291D01*
X195485993Y-93152060D01*
X195454825Y-93172353D01*
X195428742Y-93213541D01*
X195402377Y-93282997D01*
X195370362Y-93388094D01*
X195345533Y-93473656D01*
X195314899Y-93574678D01*
X195288001Y-93654920D01*
X195268362Y-93704338D01*
X195260843Y-93715214D01*
X195248181Y-93692790D01*
X195224503Y-93632159D01*
X195193217Y-93542628D01*
X195158486Y-93435888D01*
X195070637Y-93157087D01*
X194941232Y-93149582D01*
X194868776Y-93147381D01*
X194821815Y-93149794D01*
X194811828Y-93153668D01*
X194712512Y-93153668D01*
X194712512Y-93144673D01*
X194364907Y-93144673D01*
X194017302Y-93144673D01*
X194017302Y-93914370D01*
X194017302Y-94684067D01*
X192403422Y-94684067D01*
X192403422Y-94373705D01*
X192403874Y-94244904D01*
X192406091Y-94157693D01*
X192411364Y-94104003D01*
X192420984Y-94075768D01*
X192436240Y-94064922D01*
X192453079Y-94063343D01*
X192502600Y-94062654D01*
X192520349Y-94061825D01*
X192533487Y-94083656D01*
X192556832Y-94144424D01*
X192587260Y-94235232D01*
X192621646Y-94347181D01*
X192627166Y-94365979D01*
X192716370Y-94671652D01*
X192845429Y-94679157D01*
X192917742Y-94680091D01*
X192964574Y-94674418D01*
X192974487Y-94667742D01*
X192967095Y-94638352D01*
X192946853Y-94571195D01*
X192916666Y-94475599D01*
X192879437Y-94360889D01*
X192870604Y-94334059D01*
X192766721Y-94019295D01*
X192832407Y-93941232D01*
X192910529Y-93810873D01*
X192944830Y-93658977D01*
X192934835Y-93488240D01*
X192922486Y-93431186D01*
X192881868Y-93328639D01*
X192815168Y-93251120D01*
X192717641Y-93196397D01*
X192642030Y-93176993D01*
X193003033Y-93176993D01*
X193007376Y-93200538D01*
X193015843Y-93238949D01*
X193032938Y-93319077D01*
X193057207Y-93434018D01*
X193087195Y-93576865D01*
X193121451Y-93740711D01*
X193158521Y-93918652D01*
X193160212Y-93926784D01*
X193197303Y-94104484D01*
X193231648Y-94267742D01*
X193261804Y-94409794D01*
X193286327Y-94523878D01*
X193303772Y-94603232D01*
X193312694Y-94641093D01*
X193312911Y-94641842D01*
X193329677Y-94668352D01*
X193367682Y-94679892D01*
X193439872Y-94679871D01*
X193454383Y-94679085D01*
X193582549Y-94671652D01*
X193723936Y-94001271D01*
X193742203Y-93914370D01*
X193761931Y-93820519D01*
X193797257Y-93651334D01*
X193828388Y-93501102D01*
X193853803Y-93377213D01*
X193871975Y-93287056D01*
X193881382Y-93238019D01*
X193881423Y-93237781D01*
X193897522Y-93144673D01*
X193773887Y-93144673D01*
X193698616Y-93147564D01*
X193658949Y-93160035D01*
X193640980Y-93187788D01*
X193637608Y-93200538D01*
X193629445Y-93241968D01*
X193614355Y-93323569D01*
X193593919Y-93436588D01*
X193569720Y-93572271D01*
X193543341Y-93721866D01*
X193543285Y-93722182D01*
X193517158Y-93865622D01*
X193492779Y-93989188D01*
X193471708Y-94085762D01*
X193455508Y-94148223D01*
X193445741Y-94169454D01*
X193445233Y-94169103D01*
X193436023Y-94139732D01*
X193420247Y-94069370D01*
X193399508Y-93966009D01*
X193375411Y-93837639D01*
X193349556Y-93692252D01*
X193349323Y-93690909D01*
X193323501Y-93543344D01*
X193299782Y-93410707D01*
X193279737Y-93301547D01*
X193264933Y-93224412D01*
X193257023Y-93188123D01*
X193237264Y-93160926D01*
X193190812Y-93147721D01*
X193119096Y-93144673D01*
X193045672Y-93146402D01*
X193010709Y-93155313D01*
X193003033Y-93176993D01*
X192642030Y-93176993D01*
X192584539Y-93162239D01*
X192411115Y-93146413D01*
X192313131Y-93144673D01*
X192130303Y-93144673D01*
X192130303Y-93914370D01*
X192130303Y-94684067D01*
X191884917Y-94684067D01*
X191963462Y-94678525D01*
X192002927Y-94663061D01*
X192006159Y-94655259D01*
X192001844Y-94624717D01*
X191989819Y-94552971D01*
X191971467Y-94447634D01*
X191948167Y-94316319D01*
X191921302Y-94166642D01*
X191892253Y-94006215D01*
X191875490Y-93914370D01*
X191862400Y-93842653D01*
X191833126Y-93683570D01*
X191805810Y-93536579D01*
X191781836Y-93409294D01*
X191762582Y-93309330D01*
X191755774Y-93275025D01*
X191729520Y-93144673D01*
X191571652Y-93144673D01*
X191413785Y-93144673D01*
X191387948Y-93275025D01*
X191369972Y-93367710D01*
X191346926Y-93489536D01*
X191320182Y-93632952D01*
X191291111Y-93790406D01*
X191261084Y-93954349D01*
X191231471Y-94117230D01*
X191203644Y-94271498D01*
X191178974Y-94409602D01*
X191158833Y-94523993D01*
X191144590Y-94607119D01*
X191137618Y-94651429D01*
X191137146Y-94656212D01*
X191013001Y-94656212D01*
X191013001Y-93913072D01*
X191013001Y-93142078D01*
X190882649Y-93149582D01*
X190752297Y-93157087D01*
X190745348Y-93473656D01*
X190738399Y-93790225D01*
X190602582Y-93790225D01*
X190466765Y-93790225D01*
X190466765Y-93467449D01*
X190466765Y-93144673D01*
X190342620Y-93144673D01*
X190218475Y-93144673D01*
X189432598Y-93144673D01*
X189435912Y-93021316D01*
X189440888Y-92900303D01*
X189447041Y-92801818D01*
X189454492Y-92723396D01*
X189463364Y-92662570D01*
X189473778Y-92616873D01*
X189485858Y-92583839D01*
X189499724Y-92561003D01*
X189515500Y-92545897D01*
X189533308Y-92536055D01*
X189553269Y-92529012D01*
X189575507Y-92522301D01*
X189597301Y-92514612D01*
X189615248Y-92508766D01*
X189640045Y-92503507D01*
X189674239Y-92498806D01*
X189720380Y-92494631D01*
X189781015Y-92490952D01*
X189858694Y-92487738D01*
X189955964Y-92484959D01*
X190075374Y-92482584D01*
X190219474Y-92480582D01*
X190390810Y-92478922D01*
X190591933Y-92477574D01*
X190825390Y-92476508D01*
X191093729Y-92475691D01*
X191399500Y-92475095D01*
X191745251Y-92474687D01*
X192133530Y-92474438D01*
X192566887Y-92474317D01*
X192946489Y-92474292D01*
X196194905Y-92474292D01*
X196279271Y-92531145D01*
G37*
D10*
X180870000Y-91850000D02*
X188490000Y-91850000D01*
X188490000Y-99470000D01*
X180870000Y-99470000D01*
X180870000Y-91850000D01*
X130070000Y-91850000D02*
X137690000Y-91850000D01*
X137690000Y-99470000D01*
X130070000Y-99470000D01*
X130070000Y-91850000D01*
X282470000Y-91850000D02*
X290090000Y-91850000D01*
X290090000Y-99470000D01*
X282470000Y-99470000D01*
X282470000Y-91850000D01*
X307870000Y-91850000D02*
X315490000Y-91850000D01*
X315490000Y-99470000D01*
X307870000Y-99470000D01*
X307870000Y-91850000D01*
X155470000Y-91850000D02*
X163090000Y-91850000D01*
X163090000Y-99470000D01*
X155470000Y-99470000D01*
X155470000Y-91850000D01*
X104670000Y-91850000D02*
X112290000Y-91850000D01*
X112290000Y-99470000D01*
X104670000Y-99470000D01*
X104670000Y-91850000D01*
X231670000Y-91850000D02*
X239290000Y-91850000D01*
X239290000Y-99470000D01*
X231670000Y-99470000D01*
X231670000Y-91850000D01*
D15*
X155587599Y-102645000D02*
G75*
G02*
X154825599Y-102645000I-381000J0D01*
G01*
X154825599Y-102645000D02*
G75*
G02*
X155587599Y-102645000I381000J0D01*
G01*
%LPC*%
D17*
X310314999Y-102645000D03*
X312315000Y-102645000D03*
X284914999Y-102645000D03*
X286915000Y-102645000D03*
X259514999Y-102645000D03*
X261515000Y-102645000D03*
X234114999Y-102645000D03*
X236115000Y-102645000D03*
X183314999Y-102645000D03*
X185315000Y-102645000D03*
X132514999Y-102645000D03*
X134515000Y-102645000D03*
X107114999Y-102645000D03*
X109115000Y-102645000D03*
D18*
X78000000Y-95660000D03*
D19*
X258600000Y-93610000D03*
X258600000Y-97710000D03*
D20*
X260650000Y-95660000D03*
D19*
X262700000Y-93610000D03*
X262700000Y-97710000D03*
X182630000Y-93610000D03*
X182630000Y-97710000D03*
D20*
X184680000Y-95660000D03*
D19*
X186730000Y-93610000D03*
X186730000Y-97710000D03*
D18*
X332000000Y-95660000D03*
D19*
X131830000Y-93610000D03*
X131830000Y-97710000D03*
D20*
X133880000Y-95660000D03*
D19*
X135930000Y-93610000D03*
X135930000Y-97710000D03*
X284230000Y-93610000D03*
X284230000Y-97710000D03*
D20*
X286280000Y-95660000D03*
D19*
X288330000Y-93610000D03*
X288330000Y-97710000D03*
X309630000Y-93610000D03*
X309630000Y-97710000D03*
D20*
X311680000Y-95660000D03*
D19*
X313730000Y-93610000D03*
X313730000Y-97710000D03*
D18*
X205000000Y-95660000D03*
D19*
X157230000Y-93610000D03*
X157230000Y-97710000D03*
D20*
X159280000Y-95660000D03*
D19*
X161330000Y-93610000D03*
X161330000Y-97710000D03*
X106430000Y-93610000D03*
X106430000Y-97710000D03*
D20*
X108480000Y-95660000D03*
D19*
X110530000Y-93610000D03*
X110530000Y-97710000D03*
X233430000Y-93610000D03*
X233430000Y-97710000D03*
D20*
X235480000Y-95660000D03*
D19*
X237530000Y-93610000D03*
X237530000Y-97710000D03*
D21*
X95373600Y-88217800D03*
D22*
X95373600Y-103457800D03*
D21*
X146072000Y-88167000D03*
D22*
X146072000Y-103407000D03*
D21*
X273199000Y-88167000D03*
D22*
X273199000Y-103407000D03*
D21*
X120672000Y-88167000D03*
D22*
X120672000Y-103407000D03*
D21*
X222322800Y-88268600D03*
D22*
X222322800Y-103508600D03*
D21*
X298472000Y-88167000D03*
D22*
X298472000Y-103407000D03*
D21*
X171319600Y-88268600D03*
D22*
X171319600Y-103508600D03*
D21*
X247468800Y-88268600D03*
D22*
X247468800Y-103508600D03*
D17*
X157914999Y-102645000D03*
X159915000Y-102645000D03*
%LPD*%
M02*
