%TF.GenerationSoftware,KiCad,Pcbnew,8.0.6*%
%TF.CreationDate,2025-03-15T00:46:26-07:00*%
%TF.ProjectId,input_pcb2,696e7075-745f-4706-9362-322e6b696361,rev?*%
%TF.SameCoordinates,Original*%
%TF.FileFunction,Soldermask,Bot*%
%TF.FilePolarity,Negative*%
%FSLAX46Y46*%
G04 Gerber Fmt 4.6, Leading zero omitted, Abs format (unit mm)*
G04 Created by KiCad (PCBNEW 8.0.6) date 2025-03-15 00:46:26*
%MOMM*%
%LPD*%
G01*
G04 APERTURE LIST*
G04 Aperture macros list*
%AMRoundRect*
0 Rectangle with rounded corners*
0 $1 Rounding radius*
0 $2 $3 $4 $5 $6 $7 $8 $9 X,Y pos of 4 corners*
0 Add a 4 corners polygon primitive as box body*
4,1,4,$2,$3,$4,$5,$6,$7,$8,$9,$2,$3,0*
0 Add four circle primitives for the rounded corners*
1,1,$1+$1,$2,$3*
1,1,$1+$1,$4,$5*
1,1,$1+$1,$6,$7*
1,1,$1+$1,$8,$9*
0 Add four rect primitives between the rounded corners*
20,1,$1+$1,$2,$3,$4,$5,0*
20,1,$1+$1,$4,$5,$6,$7,0*
20,1,$1+$1,$6,$7,$8,$9,0*
20,1,$1+$1,$8,$9,$2,$3,0*%
G04 Aperture macros list end*
%ADD10RoundRect,0.038000X-0.850000X0.850000X-0.850000X-0.850000X0.850000X-0.850000X0.850000X0.850000X0*%
%ADD11O,1.776000X1.776000*%
%ADD12RoundRect,0.261177X0.626823X-0.626823X0.626823X0.626823X-0.626823X0.626823X-0.626823X-0.626823X0*%
%ADD13C,1.776000*%
%ADD14C,3.276000*%
%ADD15C,3.076000*%
%ADD16C,1.650800*%
%ADD17RoundRect,0.038000X0.850000X-0.850000X0.850000X0.850000X-0.850000X0.850000X-0.850000X-0.850000X0*%
%ADD18RoundRect,0.261177X-0.626823X-0.626823X0.626823X-0.626823X0.626823X0.626823X-0.626823X0.626823X0*%
G04 APERTURE END LIST*
D10*
%TO.C,J13*%
X193000000Y-88000000D03*
D11*
X193000000Y-85460000D03*
X190460000Y-88000000D03*
X190460000Y-85460000D03*
X187920000Y-88000000D03*
X187920000Y-85460000D03*
X185380000Y-88000000D03*
X185380000Y-85460000D03*
X182840000Y-88000000D03*
X182840000Y-85460000D03*
X180300000Y-88000000D03*
X180300000Y-85460000D03*
%TD*%
D12*
%TO.C,J4*%
X156000000Y-125000000D03*
D13*
X156000000Y-122460000D03*
X158540000Y-125000000D03*
X158540000Y-122460000D03*
X161080000Y-125000000D03*
X161080000Y-122460000D03*
X163620000Y-125000000D03*
X163620000Y-122460000D03*
X166160000Y-125000000D03*
X166160000Y-122460000D03*
X168700000Y-125000000D03*
X168700000Y-122460000D03*
X171240000Y-125000000D03*
X171240000Y-122460000D03*
X173780000Y-125000000D03*
X173780000Y-122460000D03*
X176320000Y-125000000D03*
X176320000Y-122460000D03*
X178860000Y-125000000D03*
X178860000Y-122460000D03*
X181400000Y-125000000D03*
X181400000Y-122460000D03*
X183940000Y-125000000D03*
X183940000Y-122460000D03*
%TD*%
D14*
%TO.C,H2*%
X24000000Y-126000000D03*
%TD*%
D15*
%TO.C,J6*%
X91000000Y-109150000D03*
X91000000Y-124850000D03*
%TD*%
D10*
%TO.C,J10*%
X103000000Y-88000000D03*
D11*
X103000000Y-85460000D03*
X100460000Y-88000000D03*
X100460000Y-85460000D03*
X97920000Y-88000000D03*
X97920000Y-85460000D03*
X95380000Y-88000000D03*
X95380000Y-85460000D03*
X92840000Y-88000000D03*
X92840000Y-85460000D03*
X90300000Y-88000000D03*
X90300000Y-85460000D03*
%TD*%
D14*
%TO.C,H5*%
X256000000Y-84000000D03*
%TD*%
D10*
%TO.C,J9*%
X78000000Y-88000000D03*
D11*
X78000000Y-85460000D03*
X75460000Y-88000000D03*
X75460000Y-85460000D03*
X72920000Y-88000000D03*
X72920000Y-85460000D03*
X70380000Y-88000000D03*
X70380000Y-85460000D03*
X67840000Y-88000000D03*
X67840000Y-85460000D03*
X65300000Y-88000000D03*
X65300000Y-85460000D03*
%TD*%
D14*
%TO.C,H6*%
X256000000Y-126000000D03*
%TD*%
%TO.C,H4*%
X140000000Y-126000000D03*
%TD*%
D16*
%TO.C,J3*%
X48466600Y-122241901D03*
X45466601Y-122241901D03*
%TD*%
D14*
%TO.C,H1*%
X24000000Y-84000000D03*
%TD*%
D10*
%TO.C,J11*%
X128000000Y-88000000D03*
D11*
X128000000Y-85460000D03*
X125460000Y-88000000D03*
X125460000Y-85460000D03*
X122920000Y-88000000D03*
X122920000Y-85460000D03*
X120380000Y-88000000D03*
X120380000Y-85460000D03*
X117840000Y-88000000D03*
X117840000Y-85460000D03*
X115300000Y-88000000D03*
X115300000Y-85460000D03*
%TD*%
D17*
%TO.C,J1*%
X114920000Y-127600000D03*
D11*
X117460000Y-127600000D03*
X120000000Y-127600000D03*
%TD*%
D10*
%TO.C,J14*%
X218000000Y-88000000D03*
D11*
X218000000Y-85460000D03*
X215460000Y-88000000D03*
X215460000Y-85460000D03*
X212920000Y-88000000D03*
X212920000Y-85460000D03*
X210380000Y-88000000D03*
X210380000Y-85460000D03*
X207840000Y-88000000D03*
X207840000Y-85460000D03*
X205300000Y-88000000D03*
X205300000Y-85460000D03*
%TD*%
D10*
%TO.C,J8*%
X53000000Y-88000000D03*
D11*
X53000000Y-85460000D03*
X50460000Y-88000000D03*
X50460000Y-85460000D03*
X47920000Y-88000000D03*
X47920000Y-85460000D03*
X45380000Y-88000000D03*
X45380000Y-85460000D03*
X42840000Y-88000000D03*
X42840000Y-85460000D03*
X40300000Y-88000000D03*
X40300000Y-85460000D03*
%TD*%
D10*
%TO.C,J12*%
X168000000Y-88000000D03*
D11*
X168000000Y-85460000D03*
X165460000Y-88000000D03*
X165460000Y-85460000D03*
X162920000Y-88000000D03*
X162920000Y-85460000D03*
X160380000Y-88000000D03*
X160380000Y-85460000D03*
X157840000Y-88000000D03*
X157840000Y-85460000D03*
X155300000Y-88000000D03*
X155300000Y-85460000D03*
%TD*%
D15*
%TO.C,J5*%
X76000000Y-109150000D03*
X76000000Y-124850000D03*
%TD*%
D14*
%TO.C,H3*%
X140000000Y-84000000D03*
%TD*%
D10*
%TO.C,J15*%
X243000000Y-88000000D03*
D11*
X243000000Y-85460000D03*
X240460000Y-88000000D03*
X240460000Y-85460000D03*
X237920000Y-88000000D03*
X237920000Y-85460000D03*
X235380000Y-88000000D03*
X235380000Y-85460000D03*
X232840000Y-88000000D03*
X232840000Y-85460000D03*
X230300000Y-88000000D03*
X230300000Y-85460000D03*
%TD*%
D18*
%TO.C,J2*%
X31400000Y-90160000D03*
D13*
X33940000Y-90160000D03*
X31400000Y-92700000D03*
X33940000Y-92700000D03*
X31400000Y-95240000D03*
X33940000Y-95240000D03*
X31400000Y-97780000D03*
X33940000Y-97780000D03*
X31400000Y-100320000D03*
X33940000Y-100320000D03*
X31400000Y-102860000D03*
X33940000Y-102860000D03*
X31400000Y-105400000D03*
X33940000Y-105400000D03*
X31400000Y-107940000D03*
X33940000Y-107940000D03*
X31400000Y-110480000D03*
X33940000Y-110480000D03*
X31400000Y-113020000D03*
X33940000Y-113020000D03*
X31400000Y-115560000D03*
X33940000Y-115560000D03*
X31400000Y-118100000D03*
X33940000Y-118100000D03*
%TD*%
D12*
%TO.C,J7*%
X205000000Y-125000000D03*
D13*
X205000000Y-122460000D03*
X207540000Y-125000000D03*
X207540000Y-122460000D03*
X210080000Y-125000000D03*
X210080000Y-122460000D03*
X212620000Y-125000000D03*
X212620000Y-122460000D03*
X215160000Y-125000000D03*
X215160000Y-122460000D03*
X217700000Y-125000000D03*
X217700000Y-122460000D03*
X220240000Y-125000000D03*
X220240000Y-122460000D03*
X222780000Y-125000000D03*
X222780000Y-122460000D03*
X225320000Y-125000000D03*
X225320000Y-122460000D03*
X227860000Y-125000000D03*
X227860000Y-122460000D03*
X230400000Y-125000000D03*
X230400000Y-122460000D03*
X232940000Y-125000000D03*
X232940000Y-122460000D03*
%TD*%
M02*
