%TF.GenerationSoftware,KiCad,Pcbnew,8.0.6*%
%TF.CreationDate,2025-03-15T00:46:26-07:00*%
%TF.ProjectId,input_pcb2,696e7075-745f-4706-9362-322e6b696361,rev?*%
%TF.SameCoordinates,Original*%
%TF.FileFunction,Soldermask,Top*%
%TF.FilePolarity,Negative*%
%FSLAX46Y46*%
G04 Gerber Fmt 4.6, Leading zero omitted, Abs format (unit mm)*
G04 Created by KiCad (PCBNEW 8.0.6) date 2025-03-15 00:46:26*
%MOMM*%
%LPD*%
G01*
G04 APERTURE LIST*
G04 Aperture macros list*
%AMRoundRect*
0 Rectangle with rounded corners*
0 $1 Rounding radius*
0 $2 $3 $4 $5 $6 $7 $8 $9 X,Y pos of 4 corners*
0 Add a 4 corners polygon primitive as box body*
4,1,4,$2,$3,$4,$5,$6,$7,$8,$9,$2,$3,0*
0 Add four circle primitives for the rounded corners*
1,1,$1+$1,$2,$3*
1,1,$1+$1,$4,$5*
1,1,$1+$1,$6,$7*
1,1,$1+$1,$8,$9*
0 Add four rect primitives between the rounded corners*
20,1,$1+$1,$2,$3,$4,$5,0*
20,1,$1+$1,$4,$5,$6,$7,0*
20,1,$1+$1,$6,$7,$8,$9,0*
20,1,$1+$1,$8,$9,$2,$3,0*%
G04 Aperture macros list end*
%ADD10RoundRect,0.269000X-0.494000X0.269000X-0.494000X-0.269000X0.494000X-0.269000X0.494000X0.269000X0*%
%ADD11RoundRect,0.102000X1.725000X0.925000X-1.725000X0.925000X-1.725000X-0.925000X1.725000X-0.925000X0*%
%ADD12RoundRect,0.268536X-0.469464X0.281964X-0.469464X-0.281964X0.469464X-0.281964X0.469464X0.281964X0*%
%ADD13RoundRect,0.038000X-0.850000X0.850000X-0.850000X-0.850000X0.850000X-0.850000X0.850000X0.850000X0*%
%ADD14O,1.776000X1.776000*%
%ADD15RoundRect,0.261177X0.626823X-0.626823X0.626823X0.626823X-0.626823X0.626823X-0.626823X-0.626823X0*%
%ADD16C,1.776000*%
%ADD17RoundRect,0.268536X0.281964X0.469464X-0.281964X0.469464X-0.281964X-0.469464X0.281964X-0.469464X0*%
%ADD18RoundRect,0.038000X0.177400X-0.730999X0.177400X0.730999X-0.177400X0.730999X-0.177400X-0.730999X0*%
%ADD19C,3.276000*%
%ADD20C,3.076000*%
%ADD21RoundRect,0.269000X0.494000X-0.269000X0.494000X0.269000X-0.494000X0.269000X-0.494000X-0.269000X0*%
%ADD22RoundRect,0.102000X-1.725000X-0.925000X1.725000X-0.925000X1.725000X0.925000X-1.725000X0.925000X0*%
%ADD23RoundRect,0.269000X0.269000X0.494000X-0.269000X0.494000X-0.269000X-0.494000X0.269000X-0.494000X0*%
%ADD24RoundRect,0.102000X0.925000X-1.725000X0.925000X1.725000X-0.925000X1.725000X-0.925000X-1.725000X0*%
%ADD25RoundRect,0.394000X0.394000X-0.644000X0.394000X0.644000X-0.394000X0.644000X-0.394000X-0.644000X0*%
%ADD26RoundRect,0.519000X1.419000X-0.519000X1.419000X0.519000X-1.419000X0.519000X-1.419000X-0.519000X0*%
%ADD27RoundRect,0.102000X-0.925000X1.725000X-0.925000X-1.725000X0.925000X-1.725000X0.925000X1.725000X0*%
%ADD28RoundRect,0.038000X0.177800X-0.704850X0.177800X0.704850X-0.177800X0.704850X-0.177800X-0.704850X0*%
%ADD29RoundRect,0.269000X-0.269000X-0.494000X0.269000X-0.494000X0.269000X0.494000X-0.269000X0.494000X0*%
%ADD30RoundRect,0.038000X-0.730999X-0.177400X0.730999X-0.177400X0.730999X0.177400X-0.730999X0.177400X0*%
%ADD31C,1.650800*%
%ADD32RoundRect,0.038000X-0.139700X0.702049X-0.139700X-0.702049X0.139700X-0.702049X0.139700X0.702049X0*%
%ADD33RoundRect,0.262750X0.475250X-0.262750X0.475250X0.262750X-0.475250X0.262750X-0.475250X-0.262750X0*%
%ADD34RoundRect,0.268536X-0.281964X-0.469464X0.281964X-0.469464X0.281964X0.469464X-0.281964X0.469464X0*%
%ADD35RoundRect,0.038000X0.850000X-0.850000X0.850000X0.850000X-0.850000X0.850000X-0.850000X-0.850000X0*%
%ADD36RoundRect,0.038000X0.702049X0.139700X-0.702049X0.139700X-0.702049X-0.139700X0.702049X-0.139700X0*%
%ADD37RoundRect,0.038000X0.139700X-0.702049X0.139700X0.702049X-0.139700X0.702049X-0.139700X-0.702049X0*%
%ADD38RoundRect,0.268536X0.469464X-0.281964X0.469464X0.281964X-0.469464X0.281964X-0.469464X-0.281964X0*%
%ADD39RoundRect,0.261177X-0.626823X-0.626823X0.626823X-0.626823X0.626823X0.626823X-0.626823X0.626823X0*%
%ADD40RoundRect,0.265833X-0.872167X-0.372167X0.872167X-0.372167X0.872167X0.372167X-0.872167X0.372167X0*%
%ADD41RoundRect,0.253273X-2.984727X-2.684727X2.984727X-2.684727X2.984727X2.684727X-2.984727X2.684727X0*%
G04 APERTURE END LIST*
D10*
%TO.C,C21*%
X123099916Y-96450000D03*
X123099916Y-98350000D03*
%TD*%
D11*
%TO.C,T11*%
X52300000Y-93800000D03*
%TD*%
D12*
%TO.C,R11*%
X130800000Y-86675000D03*
X130800000Y-88500000D03*
%TD*%
D13*
%TO.C,J13*%
X193000000Y-88000000D03*
D14*
X193000000Y-85460000D03*
X190460000Y-88000000D03*
X190460000Y-85460000D03*
X187920000Y-88000000D03*
X187920000Y-85460000D03*
X185380000Y-88000000D03*
X185380000Y-85460000D03*
X182840000Y-88000000D03*
X182840000Y-85460000D03*
X180300000Y-88000000D03*
X180300000Y-85460000D03*
%TD*%
D15*
%TO.C,J4*%
X156000000Y-125000000D03*
D16*
X156000000Y-122460000D03*
X158540000Y-125000000D03*
X158540000Y-122460000D03*
X161080000Y-125000000D03*
X161080000Y-122460000D03*
X163620000Y-125000000D03*
X163620000Y-122460000D03*
X166160000Y-125000000D03*
X166160000Y-122460000D03*
X168700000Y-125000000D03*
X168700000Y-122460000D03*
X171240000Y-125000000D03*
X171240000Y-122460000D03*
X173780000Y-125000000D03*
X173780000Y-122460000D03*
X176320000Y-125000000D03*
X176320000Y-122460000D03*
X178860000Y-125000000D03*
X178860000Y-122460000D03*
X181400000Y-125000000D03*
X181400000Y-122460000D03*
X183940000Y-125000000D03*
X183940000Y-122460000D03*
%TD*%
D17*
%TO.C,R15*%
X227612500Y-88000000D03*
X225787500Y-88000000D03*
%TD*%
D18*
%TO.C,U10*%
X138300000Y-96242000D03*
X138949998Y-96242000D03*
X139600000Y-96242000D03*
X140249998Y-96242000D03*
X140899997Y-96242000D03*
X141549998Y-96242000D03*
X142199997Y-96242000D03*
X142849998Y-96242000D03*
X142849998Y-90400000D03*
X142200000Y-90400000D03*
X141549998Y-90400000D03*
X140900000Y-90400000D03*
X140250001Y-90400000D03*
X139600000Y-90400000D03*
X138950001Y-90400000D03*
X138300000Y-90400000D03*
%TD*%
D19*
%TO.C,H2*%
X24000000Y-126000000D03*
%TD*%
D11*
%TO.C,T9*%
X56500000Y-98300000D03*
%TD*%
D12*
%TO.C,R14*%
X202500000Y-85887500D03*
X202500000Y-87712500D03*
%TD*%
D20*
%TO.C,J6*%
X91000000Y-109150000D03*
X91000000Y-124850000D03*
%TD*%
D21*
%TO.C,C18*%
X115099916Y-102400000D03*
X115099916Y-100500000D03*
%TD*%
D13*
%TO.C,J10*%
X103000000Y-88000000D03*
D14*
X103000000Y-85460000D03*
X100460000Y-88000000D03*
X100460000Y-85460000D03*
X97920000Y-88000000D03*
X97920000Y-85460000D03*
X95380000Y-88000000D03*
X95380000Y-85460000D03*
X92840000Y-88000000D03*
X92840000Y-85460000D03*
X90300000Y-88000000D03*
X90300000Y-85460000D03*
%TD*%
D21*
%TO.C,C15*%
X211100000Y-98550000D03*
X211100000Y-96650000D03*
%TD*%
D12*
%TO.C,R10*%
X105900000Y-86587500D03*
X105900000Y-88412500D03*
%TD*%
D10*
%TO.C,C19*%
X115099916Y-96650000D03*
X115099916Y-98550000D03*
%TD*%
D22*
%TO.C,T13*%
X134900000Y-95800000D03*
%TD*%
D23*
%TO.C,C24*%
X136850000Y-91700000D03*
X134950000Y-91700000D03*
%TD*%
D24*
%TO.C,T2*%
X216700000Y-113200000D03*
%TD*%
D25*
%TO.C,U4*%
X62500000Y-123900000D03*
X64800000Y-123900000D03*
D26*
X64800000Y-117600000D03*
D25*
X67100000Y-123900000D03*
%TD*%
D19*
%TO.C,H5*%
X256000000Y-84000000D03*
%TD*%
D22*
%TO.C,T12*%
X52300000Y-98300000D03*
%TD*%
D27*
%TO.C,T5*%
X158300000Y-103900000D03*
%TD*%
D11*
%TO.C,T8*%
X56200000Y-105200000D03*
%TD*%
D28*
%TO.C,U9*%
X117100000Y-103405500D03*
X117749986Y-103405500D03*
X118399972Y-103405500D03*
X119049958Y-103405500D03*
X119699944Y-103405500D03*
X120349930Y-103405500D03*
X120999916Y-103405500D03*
X120999916Y-97500000D03*
X120349930Y-97500000D03*
X119699944Y-97500000D03*
X119049958Y-97500000D03*
X118399972Y-97500000D03*
X117749986Y-97500000D03*
X117100000Y-97500000D03*
%TD*%
D13*
%TO.C,J9*%
X78000000Y-88000000D03*
D14*
X78000000Y-85460000D03*
X75460000Y-88000000D03*
X75460000Y-85460000D03*
X72920000Y-88000000D03*
X72920000Y-85460000D03*
X70380000Y-88000000D03*
X70380000Y-85460000D03*
X67840000Y-88000000D03*
X67840000Y-85460000D03*
X65300000Y-88000000D03*
X65300000Y-85460000D03*
%TD*%
D10*
%TO.C,C8*%
X64700000Y-126150000D03*
X64700000Y-128050000D03*
%TD*%
D23*
%TO.C,C3*%
X42550000Y-116015868D03*
X40650000Y-116015868D03*
%TD*%
D21*
%TO.C,C7*%
X135400000Y-101550000D03*
X135400000Y-99650000D03*
%TD*%
D29*
%TO.C,C9*%
X171750000Y-113000000D03*
X173650000Y-113000000D03*
%TD*%
D19*
%TO.C,H6*%
X256000000Y-126000000D03*
%TD*%
%TO.C,H4*%
X140000000Y-126000000D03*
%TD*%
D30*
%TO.C,U6*%
X42400000Y-95050002D03*
X42400000Y-95700000D03*
X42400000Y-96350002D03*
X42400000Y-97000000D03*
X42400000Y-97649999D03*
X42400000Y-98300000D03*
X42400000Y-98949999D03*
X42400000Y-99600000D03*
X48242000Y-99600000D03*
X48242000Y-98950002D03*
X48242000Y-98300000D03*
X48242000Y-97650002D03*
X48242000Y-97000003D03*
X48242000Y-96350002D03*
X48242000Y-95700003D03*
X48242000Y-95050002D03*
%TD*%
D21*
%TO.C,C20*%
X123099916Y-102150000D03*
X123099916Y-100250000D03*
%TD*%
D31*
%TO.C,J3*%
X48466600Y-122241901D03*
X45466601Y-122241901D03*
%TD*%
D19*
%TO.C,H1*%
X24000000Y-84000000D03*
%TD*%
D12*
%TO.C,R7*%
X47600000Y-102087500D03*
X47600000Y-103912500D03*
%TD*%
D29*
%TO.C,C11*%
X171550000Y-101000000D03*
X173450000Y-101000000D03*
%TD*%
%TO.C,C10*%
X165450000Y-113200000D03*
X167350000Y-113200000D03*
%TD*%
D32*
%TO.C,U2*%
X174749999Y-103199149D03*
X174250000Y-103199149D03*
X173750001Y-103199149D03*
X173249999Y-103199149D03*
X172750000Y-103199149D03*
X172250001Y-103199149D03*
X171750000Y-103199149D03*
X171250001Y-103199149D03*
X170749999Y-103199149D03*
X170250000Y-103199149D03*
X169750001Y-103199149D03*
X169250000Y-103199149D03*
X168750000Y-103199149D03*
X168249999Y-103199149D03*
X167750000Y-103199149D03*
X167250001Y-103199149D03*
X166749999Y-103199149D03*
X166250000Y-103199149D03*
X165749999Y-103199149D03*
X165250000Y-103199149D03*
X164750001Y-103199149D03*
X164249999Y-103199149D03*
X163750000Y-103199149D03*
X163249999Y-103199149D03*
X163250001Y-110800851D03*
X163750000Y-110800851D03*
X164249999Y-110800851D03*
X164750001Y-110800851D03*
X165250000Y-110800851D03*
X165750001Y-110800851D03*
X166250000Y-110800851D03*
X166749999Y-110800851D03*
X167250001Y-110800851D03*
X167750000Y-110800851D03*
X168250002Y-110800851D03*
X168750000Y-110800851D03*
X169250000Y-110800851D03*
X169750001Y-110800851D03*
X170250000Y-110800851D03*
X170749999Y-110800851D03*
X171250001Y-110800851D03*
X171750000Y-110800851D03*
X172250001Y-110800851D03*
X172750000Y-110800851D03*
X173249999Y-110800851D03*
X173750001Y-110800851D03*
X174250000Y-110800851D03*
X174750001Y-110800851D03*
%TD*%
D33*
%TO.C,D1*%
X150100000Y-104537500D03*
X150100000Y-102662500D03*
%TD*%
D34*
%TO.C,R2*%
X118587500Y-124800000D03*
X120412500Y-124800000D03*
%TD*%
D13*
%TO.C,J11*%
X128000000Y-88000000D03*
D14*
X128000000Y-85460000D03*
X125460000Y-88000000D03*
X125460000Y-85460000D03*
X122920000Y-88000000D03*
X122920000Y-85460000D03*
X120380000Y-88000000D03*
X120380000Y-85460000D03*
X117840000Y-88000000D03*
X117840000Y-85460000D03*
X115300000Y-88000000D03*
X115300000Y-85460000D03*
%TD*%
D29*
%TO.C,C12*%
X166300000Y-100800000D03*
X168200000Y-100800000D03*
%TD*%
D12*
%TO.C,R8*%
X55800000Y-86487500D03*
X55800000Y-88312500D03*
%TD*%
D11*
%TO.C,T10*%
X56500000Y-93800000D03*
%TD*%
D35*
%TO.C,J1*%
X114920000Y-127600000D03*
D14*
X117460000Y-127600000D03*
X120000000Y-127600000D03*
%TD*%
D10*
%TO.C,C14*%
X200400000Y-102400000D03*
X200400000Y-104300000D03*
%TD*%
D11*
%TO.C,T6*%
X64200000Y-102800000D03*
%TD*%
D36*
%TO.C,U1*%
X51900000Y-118799999D03*
X51900000Y-118300000D03*
X51900000Y-117800001D03*
X51900000Y-117299999D03*
X51900000Y-116800000D03*
X51900000Y-116300001D03*
X51900000Y-115800000D03*
X51900000Y-115300001D03*
X51900000Y-114799999D03*
X51900000Y-114300000D03*
X51900000Y-113800001D03*
X51900000Y-113300000D03*
X51900000Y-112800000D03*
X51900000Y-112299999D03*
X51900000Y-111800000D03*
X51900000Y-111300001D03*
X51900000Y-110799999D03*
X51900000Y-110300000D03*
X51900000Y-109799999D03*
X51900000Y-109300000D03*
X51900000Y-108800001D03*
X51900000Y-108299999D03*
X51900000Y-107800000D03*
X51900000Y-107299999D03*
X44298298Y-107300001D03*
X44298298Y-107800000D03*
X44298298Y-108299999D03*
X44298298Y-108800001D03*
X44298298Y-109300000D03*
X44298298Y-109800001D03*
X44298298Y-110300000D03*
X44298298Y-110799999D03*
X44298298Y-111300001D03*
X44298298Y-111800000D03*
X44298298Y-112300002D03*
X44298298Y-112800000D03*
X44298298Y-113300000D03*
X44298298Y-113800001D03*
X44298298Y-114300000D03*
X44298298Y-114799999D03*
X44298298Y-115300001D03*
X44298298Y-115800000D03*
X44298298Y-116300001D03*
X44298298Y-116800000D03*
X44298298Y-117299999D03*
X44298298Y-117800001D03*
X44298298Y-118300000D03*
X44298298Y-118800001D03*
%TD*%
D13*
%TO.C,J14*%
X218000000Y-88000000D03*
D14*
X218000000Y-85460000D03*
X215460000Y-88000000D03*
X215460000Y-85460000D03*
X212920000Y-88000000D03*
X212920000Y-85460000D03*
X210380000Y-88000000D03*
X210380000Y-85460000D03*
X207840000Y-88000000D03*
X207840000Y-85460000D03*
X205300000Y-88000000D03*
X205300000Y-85460000D03*
%TD*%
D13*
%TO.C,J8*%
X53000000Y-88000000D03*
D14*
X53000000Y-85460000D03*
X50460000Y-88000000D03*
X50460000Y-85460000D03*
X47920000Y-88000000D03*
X47920000Y-85460000D03*
X45380000Y-88000000D03*
X45380000Y-85460000D03*
X42840000Y-88000000D03*
X42840000Y-85460000D03*
X40300000Y-88000000D03*
X40300000Y-85460000D03*
%TD*%
D24*
%TO.C,T1*%
X208300000Y-114400000D03*
%TD*%
D12*
%TO.C,R13*%
X177600000Y-87787500D03*
X177600000Y-89612500D03*
%TD*%
D28*
%TO.C,U7*%
X124949958Y-103352750D03*
X125599944Y-103352750D03*
X126249930Y-103352750D03*
X126899916Y-103352750D03*
X127549902Y-103352750D03*
X128199888Y-103352750D03*
X128849874Y-103352750D03*
X128849874Y-97447250D03*
X128199888Y-97447250D03*
X127549902Y-97447250D03*
X126899916Y-97447250D03*
X126249930Y-97447250D03*
X125599944Y-97447250D03*
X124949958Y-97447250D03*
%TD*%
D10*
%TO.C,C23*%
X106899916Y-96950000D03*
X106899916Y-98850000D03*
%TD*%
D29*
%TO.C,C2*%
X54550000Y-110300000D03*
X56450000Y-110300000D03*
%TD*%
%TO.C,C17*%
X211250000Y-110800000D03*
X213150000Y-110800000D03*
%TD*%
D37*
%TO.C,U5*%
X202399866Y-108752834D03*
X202899865Y-108752834D03*
X203399864Y-108752834D03*
X203899866Y-108752834D03*
X204399865Y-108752834D03*
X204899864Y-108752834D03*
X205399865Y-108752834D03*
X205899864Y-108752834D03*
X206399866Y-108752834D03*
X206899865Y-108752834D03*
X207399864Y-108752834D03*
X207899865Y-108752834D03*
X208399865Y-108752834D03*
X208899866Y-108752834D03*
X209399865Y-108752834D03*
X209899864Y-108752834D03*
X210399866Y-108752834D03*
X210899865Y-108752834D03*
X211399866Y-108752834D03*
X211899865Y-108752834D03*
X212399864Y-108752834D03*
X212899866Y-108752834D03*
X213399865Y-108752834D03*
X213899866Y-108752834D03*
X213899864Y-101151132D03*
X213399865Y-101151132D03*
X212899866Y-101151132D03*
X212399864Y-101151132D03*
X211899865Y-101151132D03*
X211399864Y-101151132D03*
X210899865Y-101151132D03*
X210399866Y-101151132D03*
X209899864Y-101151132D03*
X209399865Y-101151132D03*
X208899863Y-101151132D03*
X208399865Y-101151132D03*
X207899865Y-101151132D03*
X207399864Y-101151132D03*
X206899865Y-101151132D03*
X206399866Y-101151132D03*
X205899864Y-101151132D03*
X205399865Y-101151132D03*
X204899864Y-101151132D03*
X204399865Y-101151132D03*
X203899866Y-101151132D03*
X203399864Y-101151132D03*
X202899865Y-101151132D03*
X202399864Y-101151132D03*
%TD*%
D10*
%TO.C,C6*%
X67100000Y-126150000D03*
X67100000Y-128050000D03*
%TD*%
D27*
%TO.C,T4*%
X161200000Y-101000000D03*
%TD*%
D21*
%TO.C,C1*%
X41000000Y-108700000D03*
X41000000Y-106800000D03*
%TD*%
D12*
%TO.C,R6*%
X43600000Y-102087500D03*
X43600000Y-103912500D03*
%TD*%
D28*
%TO.C,U8*%
X108899972Y-103558250D03*
X109549958Y-103558250D03*
X110199944Y-103558250D03*
X110849930Y-103558250D03*
X111499916Y-103558250D03*
X112149902Y-103558250D03*
X112799888Y-103558250D03*
X112799888Y-97652750D03*
X112149902Y-97652750D03*
X111499916Y-97652750D03*
X110849930Y-97652750D03*
X110199944Y-97652750D03*
X109549958Y-97652750D03*
X108899972Y-97652750D03*
%TD*%
D21*
%TO.C,C22*%
X106899916Y-102750000D03*
X106899916Y-100850000D03*
%TD*%
D13*
%TO.C,J12*%
X168000000Y-88000000D03*
D14*
X168000000Y-85460000D03*
X165460000Y-88000000D03*
X165460000Y-85460000D03*
X162920000Y-88000000D03*
X162920000Y-85460000D03*
X160380000Y-88000000D03*
X160380000Y-85460000D03*
X157840000Y-88000000D03*
X157840000Y-85460000D03*
X155300000Y-88000000D03*
X155300000Y-85460000D03*
%TD*%
D12*
%TO.C,R12*%
X152600000Y-87387500D03*
X152600000Y-89212500D03*
%TD*%
D20*
%TO.C,J5*%
X76000000Y-109150000D03*
X76000000Y-124850000D03*
%TD*%
D21*
%TO.C,C5*%
X135400000Y-104950000D03*
X135400000Y-103050000D03*
%TD*%
D38*
%TO.C,R3*%
X150100000Y-101112500D03*
X150100000Y-99287500D03*
%TD*%
D24*
%TO.C,T3*%
X164200000Y-99300000D03*
%TD*%
D23*
%TO.C,C13*%
X47142000Y-93450002D03*
X45242000Y-93450002D03*
%TD*%
D12*
%TO.C,R5*%
X45600000Y-102087500D03*
X45600000Y-103912500D03*
%TD*%
D19*
%TO.C,H3*%
X140000000Y-84000000D03*
%TD*%
D13*
%TO.C,J15*%
X243000000Y-88000000D03*
D14*
X243000000Y-85460000D03*
X240460000Y-88000000D03*
X240460000Y-85460000D03*
X237920000Y-88000000D03*
X237920000Y-85460000D03*
X235380000Y-88000000D03*
X235380000Y-85460000D03*
X232840000Y-88000000D03*
X232840000Y-85460000D03*
X230300000Y-88000000D03*
X230300000Y-85460000D03*
%TD*%
D17*
%TO.C,R1*%
X116212500Y-124800000D03*
X114387500Y-124800000D03*
%TD*%
D12*
%TO.C,R9*%
X80900000Y-86687500D03*
X80900000Y-88512500D03*
%TD*%
D39*
%TO.C,J2*%
X31400000Y-90160000D03*
D16*
X33940000Y-90160000D03*
X31400000Y-92700000D03*
X33940000Y-92700000D03*
X31400000Y-95240000D03*
X33940000Y-95240000D03*
X31400000Y-97780000D03*
X33940000Y-97780000D03*
X31400000Y-100320000D03*
X33940000Y-100320000D03*
X31400000Y-102860000D03*
X33940000Y-102860000D03*
X31400000Y-105400000D03*
X33940000Y-105400000D03*
X31400000Y-107940000D03*
X33940000Y-107940000D03*
X31400000Y-110480000D03*
X33940000Y-110480000D03*
X31400000Y-113020000D03*
X33940000Y-113020000D03*
X31400000Y-115560000D03*
X33940000Y-115560000D03*
X31400000Y-118100000D03*
X33940000Y-118100000D03*
%TD*%
D29*
%TO.C,C4*%
X54450000Y-115900000D03*
X56350000Y-115900000D03*
%TD*%
D40*
%TO.C,U3*%
X137860000Y-99820000D03*
X137860000Y-102100000D03*
D41*
X144160000Y-102100000D03*
D40*
X137860000Y-104380000D03*
%TD*%
D15*
%TO.C,J7*%
X205000000Y-125000000D03*
D16*
X205000000Y-122460000D03*
X207540000Y-125000000D03*
X207540000Y-122460000D03*
X210080000Y-125000000D03*
X210080000Y-122460000D03*
X212620000Y-125000000D03*
X212620000Y-122460000D03*
X215160000Y-125000000D03*
X215160000Y-122460000D03*
X217700000Y-125000000D03*
X217700000Y-122460000D03*
X220240000Y-125000000D03*
X220240000Y-122460000D03*
X222780000Y-125000000D03*
X222780000Y-122460000D03*
X225320000Y-125000000D03*
X225320000Y-122460000D03*
X227860000Y-125000000D03*
X227860000Y-122460000D03*
X230400000Y-125000000D03*
X230400000Y-122460000D03*
X232940000Y-125000000D03*
X232940000Y-122460000D03*
%TD*%
D12*
%TO.C,R4*%
X49600000Y-102087500D03*
X49600000Y-103912500D03*
%TD*%
D11*
%TO.C,T7*%
X60200000Y-102800000D03*
%TD*%
D10*
%TO.C,C16*%
X205000000Y-110650000D03*
X205000000Y-112550000D03*
%TD*%
M02*
