G04 #@! TF.GenerationSoftware,KiCad,Pcbnew,9.0.1*
G04 #@! TF.CreationDate,2025-05-15T03:15:06-07:00*
G04 #@! TF.ProjectId,Input_PCB_V5,496e7075-745f-4504-9342-5f56352e6b69,rev?*
G04 #@! TF.SameCoordinates,Original*
G04 #@! TF.FileFunction,Copper,L4,Bot*
G04 #@! TF.FilePolarity,Positive*
%FSLAX46Y46*%
G04 Gerber Fmt 4.6, Leading zero omitted, Abs format (unit mm)*
G04 Created by KiCad (PCBNEW 9.0.1) date 2025-05-15 03:15:06*
%MOMM*%
%LPD*%
G01*
G04 APERTURE LIST*
G04 Aperture macros list*
%AMRoundRect*
0 Rectangle with rounded corners*
0 $1 Rounding radius*
0 $2 $3 $4 $5 $6 $7 $8 $9 X,Y pos of 4 corners*
0 Add a 4 corners polygon primitive as box body*
4,1,4,$2,$3,$4,$5,$6,$7,$8,$9,$2,$3,0*
0 Add four circle primitives for the rounded corners*
1,1,$1+$1,$2,$3*
1,1,$1+$1,$4,$5*
1,1,$1+$1,$6,$7*
1,1,$1+$1,$8,$9*
0 Add four rect primitives between the rounded corners*
20,1,$1+$1,$2,$3,$4,$5,0*
20,1,$1+$1,$4,$5,$6,$7,0*
20,1,$1+$1,$6,$7,$8,$9,0*
20,1,$1+$1,$8,$9,$2,$3,0*%
G04 Aperture macros list end*
G04 #@! TA.AperFunction,ComponentPad*
%ADD10C,1.574800*%
G04 #@! TD*
G04 #@! TA.AperFunction,ComponentPad*
%ADD11R,1.700000X1.700000*%
G04 #@! TD*
G04 #@! TA.AperFunction,ComponentPad*
%ADD12O,1.700000X1.700000*%
G04 #@! TD*
G04 #@! TA.AperFunction,ComponentPad*
%ADD13RoundRect,0.250000X0.600000X-0.600000X0.600000X0.600000X-0.600000X0.600000X-0.600000X-0.600000X0*%
G04 #@! TD*
G04 #@! TA.AperFunction,ComponentPad*
%ADD14C,1.700000*%
G04 #@! TD*
G04 #@! TA.AperFunction,ComponentPad*
%ADD15C,3.000000*%
G04 #@! TD*
G04 #@! TA.AperFunction,ComponentPad*
%ADD16RoundRect,0.250000X-0.600000X-0.600000X0.600000X-0.600000X0.600000X0.600000X-0.600000X0.600000X0*%
G04 #@! TD*
G04 #@! TA.AperFunction,ViaPad*
%ADD17C,0.600000*%
G04 #@! TD*
G04 #@! TA.AperFunction,ViaPad*
%ADD18C,0.800000*%
G04 #@! TD*
G04 #@! TA.AperFunction,ViaPad*
%ADD19C,1.800000*%
G04 #@! TD*
G04 #@! TA.AperFunction,Conductor*
%ADD20C,0.300000*%
G04 #@! TD*
G04 #@! TA.AperFunction,Conductor*
%ADD21C,2.000000*%
G04 #@! TD*
G04 #@! TA.AperFunction,Conductor*
%ADD22C,0.150000*%
G04 #@! TD*
G04 APERTURE END LIST*
D10*
X48466600Y-122241901D03*
X45466601Y-122241901D03*
D11*
X193000000Y-88000000D03*
D12*
X193000000Y-85460000D03*
X190460000Y-88000000D03*
X190460000Y-85460000D03*
X187920000Y-88000000D03*
X187920000Y-85460000D03*
X185380000Y-88000000D03*
X185380000Y-85460000D03*
X182840000Y-88000000D03*
X182840000Y-85460000D03*
X180300000Y-88000000D03*
X180300000Y-85460000D03*
D13*
X156000000Y-125000000D03*
D14*
X156000000Y-122460000D03*
X158540000Y-125000000D03*
X158540000Y-122460000D03*
X161080000Y-125000000D03*
X161080000Y-122460000D03*
X163620000Y-125000000D03*
X163620000Y-122460000D03*
X166160000Y-125000000D03*
X166160000Y-122460000D03*
X168700000Y-125000000D03*
X168700000Y-122460000D03*
X171240000Y-125000000D03*
X171240000Y-122460000D03*
X173780000Y-125000000D03*
X173780000Y-122460000D03*
X176320000Y-125000000D03*
X176320000Y-122460000D03*
X178860000Y-125000000D03*
X178860000Y-122460000D03*
X181400000Y-125000000D03*
X181400000Y-122460000D03*
X183940000Y-125000000D03*
X183940000Y-122460000D03*
D15*
X91000000Y-109150000D03*
X91000000Y-124850000D03*
D11*
X103000000Y-88000000D03*
D12*
X103000000Y-85460000D03*
X100460000Y-88000000D03*
X100460000Y-85460000D03*
X97920000Y-88000000D03*
X97920000Y-85460000D03*
X95380000Y-88000000D03*
X95380000Y-85460000D03*
X92840000Y-88000000D03*
X92840000Y-85460000D03*
X90300000Y-88000000D03*
X90300000Y-85460000D03*
D11*
X78000000Y-88000000D03*
D12*
X78000000Y-85460000D03*
X75460000Y-88000000D03*
X75460000Y-85460000D03*
X72920000Y-88000000D03*
X72920000Y-85460000D03*
X70380000Y-88000000D03*
X70380000Y-85460000D03*
X67840000Y-88000000D03*
X67840000Y-85460000D03*
X65300000Y-88000000D03*
X65300000Y-85460000D03*
D11*
X128000000Y-88000000D03*
D12*
X128000000Y-85460000D03*
X125460000Y-88000000D03*
X125460000Y-85460000D03*
X122920000Y-88000000D03*
X122920000Y-85460000D03*
X120380000Y-88000000D03*
X120380000Y-85460000D03*
X117840000Y-88000000D03*
X117840000Y-85460000D03*
X115300000Y-88000000D03*
X115300000Y-85460000D03*
D11*
X114920000Y-127600000D03*
D12*
X117460000Y-127600000D03*
X120000000Y-127600000D03*
D11*
X218000000Y-88000000D03*
D12*
X218000000Y-85460000D03*
X215460000Y-88000000D03*
X215460000Y-85460000D03*
X212920000Y-88000000D03*
X212920000Y-85460000D03*
X210380000Y-88000000D03*
X210380000Y-85460000D03*
X207840000Y-88000000D03*
X207840000Y-85460000D03*
X205300000Y-88000000D03*
X205300000Y-85460000D03*
D11*
X53000000Y-88000000D03*
D12*
X53000000Y-85460000D03*
X50460000Y-88000000D03*
X50460000Y-85460000D03*
X47920000Y-88000000D03*
X47920000Y-85460000D03*
X45380000Y-88000000D03*
X45380000Y-85460000D03*
X42840000Y-88000000D03*
X42840000Y-85460000D03*
X40300000Y-88000000D03*
X40300000Y-85460000D03*
D11*
X168000000Y-88000000D03*
D12*
X168000000Y-85460000D03*
X165460000Y-88000000D03*
X165460000Y-85460000D03*
X162920000Y-88000000D03*
X162920000Y-85460000D03*
X160380000Y-88000000D03*
X160380000Y-85460000D03*
X157840000Y-88000000D03*
X157840000Y-85460000D03*
X155300000Y-88000000D03*
X155300000Y-85460000D03*
D15*
X76000000Y-109150000D03*
X76000000Y-124850000D03*
D11*
X243000000Y-88000000D03*
D12*
X243000000Y-85460000D03*
X240460000Y-88000000D03*
X240460000Y-85460000D03*
X237920000Y-88000000D03*
X237920000Y-85460000D03*
X235380000Y-88000000D03*
X235380000Y-85460000D03*
X232840000Y-88000000D03*
X232840000Y-85460000D03*
X230300000Y-88000000D03*
X230300000Y-85460000D03*
D16*
X31400000Y-90160000D03*
D14*
X33940000Y-90160000D03*
X31400000Y-92700000D03*
X33940000Y-92700000D03*
X31400000Y-95240000D03*
X33940000Y-95240000D03*
X31400000Y-97780000D03*
X33940000Y-97780000D03*
X31400000Y-100320000D03*
X33940000Y-100320000D03*
X31400000Y-102860000D03*
X33940000Y-102860000D03*
X31400000Y-105400000D03*
X33940000Y-105400000D03*
X31400000Y-107940000D03*
X33940000Y-107940000D03*
X31400000Y-110480000D03*
X33940000Y-110480000D03*
X31400000Y-113020000D03*
X33940000Y-113020000D03*
X31400000Y-115560000D03*
X33940000Y-115560000D03*
X31400000Y-118100000D03*
X33940000Y-118100000D03*
D13*
X205000000Y-125000000D03*
D14*
X205000000Y-122460000D03*
X207540000Y-125000000D03*
X207540000Y-122460000D03*
X210080000Y-125000000D03*
X210080000Y-122460000D03*
X212620000Y-125000000D03*
X212620000Y-122460000D03*
X215160000Y-125000000D03*
X215160000Y-122460000D03*
X217700000Y-125000000D03*
X217700000Y-122460000D03*
X220240000Y-125000000D03*
X220240000Y-122460000D03*
X222780000Y-125000000D03*
X222780000Y-122460000D03*
X225320000Y-125000000D03*
X225320000Y-122460000D03*
X227860000Y-125000000D03*
X227860000Y-122460000D03*
X230400000Y-125000000D03*
X230400000Y-122460000D03*
X232940000Y-125000000D03*
X232940000Y-122460000D03*
D17*
X67000000Y-109300000D03*
D18*
X50800000Y-103900000D03*
X199484577Y-103321994D03*
X41582822Y-115032822D03*
X171800000Y-114300000D03*
X47400000Y-107475000D03*
X44600000Y-104800000D03*
X165800000Y-99500000D03*
X63600000Y-119150000D03*
X124900000Y-101350000D03*
X55500000Y-111400000D03*
X46266861Y-92614617D03*
X212000000Y-112000000D03*
X120000000Y-119500000D03*
X66200000Y-119150000D03*
X39700000Y-107700000D03*
X116300000Y-101700000D03*
X209800000Y-97600000D03*
X206037370Y-111562630D03*
X55400000Y-117000000D03*
X105800000Y-101700000D03*
X172500000Y-100000000D03*
X166371412Y-114114552D03*
X63600000Y-121075000D03*
D17*
X206949865Y-107651983D03*
X106899916Y-99900000D03*
X45400000Y-117300000D03*
X43000000Y-108000000D03*
X57300000Y-109300000D03*
X50500000Y-114300000D03*
X57600000Y-115525001D03*
X149000000Y-103800000D03*
X47700000Y-100200000D03*
X209800000Y-95547882D03*
X50500000Y-117300000D03*
X142200000Y-95100000D03*
X45500000Y-114300000D03*
X139360000Y-99787500D03*
X115099916Y-99500000D03*
X42342000Y-100250002D03*
X46142000Y-93567649D03*
X50500000Y-108800000D03*
X128899916Y-102300000D03*
X170250001Y-109752124D03*
X207110044Y-102330115D03*
X173250000Y-109752125D03*
X167749999Y-104247876D03*
X173250001Y-104247874D03*
X133710000Y-101587500D03*
X209400000Y-102200000D03*
X167200000Y-109598800D03*
X164177477Y-104401200D03*
X62700000Y-128850000D03*
X202400000Y-102200000D03*
X213282142Y-107550783D03*
X39700000Y-115000000D03*
X205100000Y-113700000D03*
X170250000Y-104247877D03*
X135004074Y-90404074D03*
X203899729Y-107703967D03*
X50500000Y-111800000D03*
X45500000Y-111800000D03*
X200500000Y-105400000D03*
X212949865Y-99949081D03*
X123099916Y-99300000D03*
X41000000Y-105700000D03*
X165300000Y-109598800D03*
X209108028Y-107555492D03*
D19*
X138460000Y-106487500D03*
X134800000Y-121800000D03*
D18*
X121800000Y-96200000D03*
X105700000Y-97900000D03*
X140060000Y-100787500D03*
X113900000Y-96675000D03*
X139960000Y-103587500D03*
X137000000Y-90400000D03*
D17*
X50800000Y-118800000D03*
X51900000Y-106800000D03*
X45400000Y-118800000D03*
X41300000Y-98300000D03*
X44300000Y-106800000D03*
X55500000Y-129200000D03*
X175300000Y-103200000D03*
X175324575Y-111375425D03*
X162700000Y-110900000D03*
X45525000Y-116300000D03*
X42100000Y-112725000D03*
X40300000Y-111900000D03*
X45500000Y-115300000D03*
X42268418Y-111942926D03*
X168675000Y-114600000D03*
X167400000Y-111975000D03*
X172425735Y-109600101D03*
X167701387Y-114419073D03*
X182500000Y-110900000D03*
X206500000Y-110400000D03*
X206087062Y-107550783D03*
X203000000Y-80800000D03*
X85800000Y-80800000D03*
X70000000Y-80800000D03*
X196500000Y-80800000D03*
X185100000Y-80800000D03*
X112700000Y-80800000D03*
X222800000Y-80800000D03*
X125599916Y-96200000D03*
X192000000Y-83135000D03*
X94700000Y-83100000D03*
X117699916Y-96000000D03*
X76000000Y-83100000D03*
X119500000Y-83100000D03*
X211800000Y-83135000D03*
X198600000Y-83135000D03*
X173500000Y-83135000D03*
X84688172Y-82525001D03*
X110800000Y-82525000D03*
X197700000Y-82560000D03*
X225800000Y-82560000D03*
X74456215Y-82525000D03*
X200700000Y-82560000D03*
X118365558Y-95556239D03*
X189400000Y-82560000D03*
X231920000Y-82000000D03*
X194600000Y-81985000D03*
X116900000Y-81950000D03*
X188800000Y-81985000D03*
X206900000Y-81985000D03*
X91900000Y-81950000D03*
X126873326Y-95261309D03*
X73900000Y-81950000D03*
X113800000Y-81375000D03*
X88700000Y-81375000D03*
X203800000Y-81375000D03*
X228790000Y-81410000D03*
X195600000Y-81375000D03*
X185765642Y-81375000D03*
X126165603Y-95634313D03*
X70600000Y-81375000D03*
X44812500Y-101300000D03*
X47010999Y-97000000D03*
X174026646Y-105425000D03*
X125600000Y-105100000D03*
X117400000Y-117250001D03*
X171894080Y-109002319D03*
X49503014Y-98496121D03*
X53675000Y-102661827D03*
X53724697Y-112799758D03*
X168750000Y-104800000D03*
X109200000Y-112075000D03*
X111500000Y-109775000D03*
X145000000Y-112075000D03*
X145600000Y-114375000D03*
X105600000Y-114375001D03*
X152000000Y-114300000D03*
X110800000Y-109300000D03*
X165138172Y-96025000D03*
X168500000Y-99200000D03*
X126200000Y-105700000D03*
X118200000Y-116675001D03*
X171340269Y-108425000D03*
X173322902Y-105044545D03*
X49500000Y-99300000D03*
X53090918Y-103208501D03*
X53100000Y-112300000D03*
X167056587Y-96675000D03*
X118400000Y-107100000D03*
X168513172Y-98100000D03*
X112700000Y-112800000D03*
X110600000Y-113750000D03*
X117700000Y-106700000D03*
X150300000Y-115525001D03*
X146300000Y-115525001D03*
X102000000Y-115525001D03*
X109500000Y-108100000D03*
X171805985Y-105425000D03*
X167100000Y-107175000D03*
X119000000Y-116100001D03*
X172619157Y-105425000D03*
X170841867Y-107750337D03*
X126900000Y-106400000D03*
X167275000Y-99300000D03*
X162200000Y-95450000D03*
X145000000Y-114950001D03*
X152800000Y-114900000D03*
X171306854Y-104799806D03*
X166500000Y-106600000D03*
X103800000Y-114950001D03*
X110200000Y-108700000D03*
X43614746Y-96696145D03*
X50300000Y-105000000D03*
X44615136Y-106064682D03*
D20*
X63600000Y-121075000D02*
X63600000Y-119150000D01*
D21*
X135100000Y-121500000D02*
X135100000Y-109847500D01*
X135100000Y-109847500D02*
X138460000Y-106487500D01*
X134800000Y-121800000D02*
X135100000Y-121500000D01*
D22*
X55500000Y-129100000D02*
X54700000Y-128300000D01*
X41300000Y-103800000D02*
X41300000Y-98300000D01*
X55500000Y-129200000D02*
X55500000Y-129100000D01*
X44300000Y-106800000D02*
X51900000Y-106800000D01*
X50800000Y-118800000D02*
X45400000Y-118800000D01*
X46900000Y-109400000D02*
X44300000Y-106800000D01*
X46900000Y-117300000D02*
X46900000Y-109400000D01*
X45400000Y-118800000D02*
X46900000Y-117300000D01*
X54700000Y-128300000D02*
X54700000Y-122700000D01*
X54700000Y-122700000D02*
X50800000Y-118800000D01*
X44300000Y-106800000D02*
X41300000Y-103800000D01*
X175324575Y-103224575D02*
X175300000Y-103200000D01*
X175324575Y-111375425D02*
X175324575Y-103224575D01*
X170484704Y-103200000D02*
X175300000Y-103200000D01*
X162700000Y-110900000D02*
X162700000Y-109586827D01*
X166911827Y-105375000D02*
X168988173Y-105375000D01*
X168988173Y-105375000D02*
X169675000Y-104688173D01*
X169675000Y-104688173D02*
X169675000Y-104009704D01*
X162700000Y-109586827D02*
X166911827Y-105375000D01*
X169675000Y-104009704D02*
X170484704Y-103200000D01*
X32815000Y-116685000D02*
X32815000Y-118565991D01*
X42600000Y-119225000D02*
X45525000Y-116300000D01*
X32815000Y-118565991D02*
X33474009Y-119225000D01*
X33940000Y-115560000D02*
X32815000Y-116685000D01*
X33474009Y-119225000D02*
X42600000Y-119225000D01*
X32560000Y-109100000D02*
X31400000Y-107940000D01*
X40175000Y-110800000D02*
X35850991Y-110800000D01*
X34150991Y-109100000D02*
X32560000Y-109100000D01*
X42100000Y-112725000D02*
X40175000Y-110800000D01*
X35850991Y-110800000D02*
X34150991Y-109100000D01*
X40300000Y-111900000D02*
X39900000Y-111900000D01*
X39900000Y-111900000D02*
X39895000Y-111895000D01*
X39895000Y-111895000D02*
X32525000Y-111895000D01*
X32525000Y-111895000D02*
X31400000Y-113020000D01*
X42700000Y-118100000D02*
X33940000Y-118100000D01*
X45500000Y-115300000D02*
X42700000Y-118100000D01*
X37990991Y-110400000D02*
X40725492Y-110400000D01*
X42268418Y-111942926D02*
X40725492Y-110400000D01*
X34115991Y-106525000D02*
X32525000Y-106525000D01*
X32525000Y-106525000D02*
X31400000Y-105400000D01*
X37990991Y-110400000D02*
X34115991Y-106525000D01*
X168675000Y-114600000D02*
X167575000Y-115700000D01*
X167575000Y-115700000D02*
X167575000Y-123585000D01*
X167575000Y-123585000D02*
X166160000Y-125000000D01*
X169250000Y-120470000D02*
X171240000Y-122460000D01*
X169250000Y-113825000D02*
X169250000Y-120470000D01*
X167400000Y-111975000D02*
X169250000Y-113825000D01*
X180275000Y-117590298D02*
X180275000Y-125475000D01*
X180275000Y-125475000D02*
X180925000Y-126125000D01*
X182815000Y-126125000D02*
X183940000Y-125000000D01*
X172425735Y-109600101D02*
X172425735Y-109741033D01*
X180925000Y-126125000D02*
X182815000Y-126125000D01*
X172425735Y-109741033D02*
X180275000Y-117590298D01*
X170040000Y-126200000D02*
X171240000Y-125000000D01*
X165769009Y-126200000D02*
X170040000Y-126200000D01*
X165500000Y-121400000D02*
X165000000Y-121900000D01*
X165000000Y-125430991D02*
X165769009Y-126200000D01*
X167680927Y-114419073D02*
X165500000Y-116600000D01*
X165000000Y-121900000D02*
X165000000Y-125430991D01*
X165500000Y-116600000D02*
X165500000Y-121400000D01*
X167701387Y-114419073D02*
X167680927Y-114419073D01*
X182500000Y-110900000D02*
X182525000Y-110925000D01*
X182525000Y-110925000D02*
X182525000Y-123875000D01*
X182525000Y-123875000D02*
X181400000Y-125000000D01*
X217234009Y-123585000D02*
X224195000Y-123585000D01*
X206500000Y-110400000D02*
X216575000Y-120475000D01*
X216575000Y-122925991D02*
X217234009Y-123585000D01*
X224195000Y-123585000D02*
X225320000Y-122460000D01*
X216575000Y-120475000D02*
X216575000Y-122925991D01*
X206087062Y-107602353D02*
X219819709Y-121335000D01*
X221655000Y-121335000D02*
X222780000Y-122460000D01*
X219819709Y-121335000D02*
X221655000Y-121335000D01*
X206087062Y-107550783D02*
X206087062Y-107602353D01*
X112700000Y-82860000D02*
X115300000Y-85460000D01*
X90581239Y-94981239D02*
X124381155Y-94981239D01*
X125628863Y-96228863D02*
X128371137Y-96228863D01*
X112700000Y-80800000D02*
X112700000Y-82860000D01*
X192139949Y-92100000D02*
X196500000Y-87739949D01*
X132500000Y-92100000D02*
X192139949Y-92100000D01*
X82000000Y-84400000D02*
X82000000Y-86400000D01*
X82000000Y-86400000D02*
X90581239Y-94981239D01*
X69960000Y-80800000D02*
X70000000Y-80800000D01*
X85800000Y-80800000D02*
X85600000Y-80800000D01*
X124381155Y-94981239D02*
X125599916Y-96200000D01*
X85600000Y-80800000D02*
X82000000Y-84400000D01*
X85800000Y-80800000D02*
X85800000Y-80960000D01*
X203000000Y-80800000D02*
X203000000Y-83160000D01*
X65300000Y-85460000D02*
X69960000Y-80800000D01*
X225640000Y-80800000D02*
X230300000Y-85460000D01*
X203000000Y-83160000D02*
X205300000Y-85460000D01*
X85800000Y-80960000D02*
X90300000Y-85460000D01*
X184960000Y-80800000D02*
X185100000Y-80800000D01*
X222800000Y-80800000D02*
X225640000Y-80800000D01*
X196500000Y-87739949D02*
X196500000Y-80800000D01*
X125600000Y-96200000D02*
X125628863Y-96228863D01*
X125599916Y-96200000D02*
X125600000Y-96200000D01*
X180300000Y-85460000D02*
X184960000Y-80800000D01*
X128371137Y-96228863D02*
X132500000Y-92100000D01*
X77230991Y-83100000D02*
X76000000Y-83100000D01*
X119610991Y-83100000D02*
X121505000Y-84994009D01*
X118924916Y-97225000D02*
X151375000Y-97225000D01*
X211795000Y-83140000D02*
X211800000Y-83135000D01*
X117699916Y-96000000D02*
X90130990Y-96000000D01*
X119500000Y-83100000D02*
X119610991Y-83100000D01*
X90130990Y-96000000D02*
X89165495Y-95034505D01*
X169760000Y-86875000D02*
X173500000Y-83135000D01*
X74045000Y-86875000D02*
X74045000Y-85055000D01*
X96505000Y-84905000D02*
X94700000Y-83100000D01*
X212920000Y-88000000D02*
X211795000Y-86875000D01*
X162920000Y-88000000D02*
X164045000Y-86875000D01*
X164045000Y-86875000D02*
X169760000Y-86875000D01*
X121505000Y-86585000D02*
X122920000Y-88000000D01*
X97920000Y-88000000D02*
X96505000Y-86585000D01*
X189045000Y-86875000D02*
X187920000Y-88000000D01*
X211795000Y-86875000D02*
X211795000Y-83140000D01*
X191194009Y-83135000D02*
X189045000Y-85284009D01*
X121505000Y-84994009D02*
X121505000Y-86585000D01*
X190419974Y-94875000D02*
X198600000Y-86694974D01*
X198600000Y-86694974D02*
X198600000Y-83135000D01*
X192000000Y-83135000D02*
X191194009Y-83135000D01*
X72920000Y-88000000D02*
X74045000Y-86875000D01*
X153725000Y-94875000D02*
X190419974Y-94875000D01*
X89165495Y-95034505D02*
X77230991Y-83100000D01*
X189045000Y-85284009D02*
X189045000Y-86875000D01*
X96505000Y-86585000D02*
X96505000Y-84905000D01*
X151375000Y-97225000D02*
X153725000Y-94875000D01*
X117699916Y-96000000D02*
X118924916Y-97225000D01*
X74045000Y-85055000D02*
X76000000Y-83100000D01*
X71795000Y-85705000D02*
X71795000Y-84994009D01*
X206425000Y-86585000D02*
X204725000Y-86585000D01*
X68965000Y-86875000D02*
X70625000Y-86875000D01*
X118365558Y-95556239D02*
X119684319Y-96875000D01*
X77325000Y-82525000D02*
X74456215Y-82525000D01*
X190275000Y-94525000D02*
X197700000Y-87100000D01*
X186795000Y-84994009D02*
X189229009Y-82560000D01*
X119684319Y-96875000D02*
X128725000Y-96875000D01*
X70625000Y-86875000D02*
X71795000Y-85705000D01*
X91715000Y-86875000D02*
X92840000Y-88000000D01*
X85500001Y-82525001D02*
X89850000Y-86875000D01*
X115075000Y-86875000D02*
X110800000Y-82600000D01*
X225809009Y-82560000D02*
X229834009Y-86585000D01*
X131075000Y-94525000D02*
X190275000Y-94525000D01*
X207840000Y-88000000D02*
X206425000Y-86585000D01*
X110800000Y-82600000D02*
X110800000Y-82525000D01*
X231425000Y-86585000D02*
X232840000Y-88000000D01*
X184255000Y-86585000D02*
X185845991Y-86585000D01*
X74264009Y-82525000D02*
X74456215Y-82525000D01*
X128725000Y-96875000D02*
X131075000Y-94525000D01*
X197700000Y-87100000D02*
X197700000Y-82560000D01*
X185845991Y-86585000D02*
X186795000Y-85635991D01*
X116715000Y-86875000D02*
X115075000Y-86875000D01*
X90200000Y-95400000D02*
X77325000Y-82525000D01*
X225800000Y-82560000D02*
X225809009Y-82560000D01*
X118209319Y-95400000D02*
X90200000Y-95400000D01*
X67840000Y-88000000D02*
X68965000Y-86875000D01*
X71795000Y-84994009D02*
X74264009Y-82525000D01*
X84688172Y-82525001D02*
X85500001Y-82525001D01*
X229834009Y-86585000D02*
X231425000Y-86585000D01*
X186795000Y-85635991D02*
X186795000Y-84994009D01*
X204725000Y-86585000D02*
X200700000Y-82560000D01*
X117840000Y-88000000D02*
X116715000Y-86875000D01*
X189229009Y-82560000D02*
X189400000Y-82560000D01*
X89850000Y-86875000D02*
X91715000Y-86875000D01*
X118365558Y-95556239D02*
X118209319Y-95400000D01*
X182840000Y-88000000D02*
X184255000Y-86585000D01*
X120380000Y-85460000D02*
X116900000Y-81980000D01*
X116900000Y-81980000D02*
X116900000Y-81950000D01*
X102100000Y-93900000D02*
X96795000Y-88595000D01*
X206905000Y-81985000D02*
X206900000Y-81985000D01*
X185380000Y-85460000D02*
X188800000Y-82040000D01*
X210380000Y-85460000D02*
X206905000Y-81985000D01*
X126873326Y-95261309D02*
X126873326Y-95528863D01*
X73890000Y-81950000D02*
X73900000Y-81950000D01*
X70380000Y-85460000D02*
X73890000Y-81950000D01*
X91900000Y-81980000D02*
X91900000Y-81950000D01*
X96795000Y-87369975D02*
X95380000Y-85954975D01*
X95380000Y-85460000D02*
X91900000Y-81980000D01*
X188800000Y-82040000D02*
X188800000Y-81985000D01*
X96795000Y-88595000D02*
X96795000Y-87369975D01*
X126873326Y-95261309D02*
X126873326Y-95226674D01*
X126873326Y-95226674D02*
X132600000Y-89500000D01*
X231920000Y-82000000D02*
X235380000Y-85460000D01*
X95380000Y-85954975D02*
X95380000Y-85460000D01*
X132600000Y-89500000D02*
X193750000Y-89500000D01*
X125244463Y-93900000D02*
X102100000Y-93900000D01*
X194600000Y-88650000D02*
X194600000Y-81985000D01*
X193750000Y-89500000D02*
X194600000Y-88650000D01*
X126873326Y-95528863D02*
X125244463Y-93900000D01*
X93965000Y-86585000D02*
X93965000Y-88565000D01*
X92840000Y-85460000D02*
X93965000Y-86585000D01*
X127221137Y-95878863D02*
X131900000Y-91200000D01*
X92840000Y-85460000D02*
X88755000Y-81375000D01*
X70600000Y-82700000D02*
X67840000Y-85460000D01*
X125031290Y-94500000D02*
X126165603Y-95634313D01*
X195600000Y-88144974D02*
X195600000Y-81375000D01*
X126165603Y-95634313D02*
X126410153Y-95878863D01*
X113800000Y-81420000D02*
X113800000Y-81375000D01*
X131900000Y-91200000D02*
X192544974Y-91200000D01*
X88755000Y-81375000D02*
X88700000Y-81375000D01*
X185765642Y-82534358D02*
X182840000Y-85460000D01*
X93965000Y-88565000D02*
X99900000Y-94500000D01*
X126410153Y-95878863D02*
X127221137Y-95878863D01*
X99900000Y-94500000D02*
X125031290Y-94500000D01*
X207840000Y-85460000D02*
X203800000Y-81420000D01*
X70600000Y-81375000D02*
X70600000Y-82700000D01*
X117840000Y-85460000D02*
X113800000Y-81420000D01*
X228790000Y-81410000D02*
X232840000Y-85460000D01*
X185765642Y-81375000D02*
X185765642Y-82534358D01*
X192544974Y-91200000D02*
X195600000Y-88144974D01*
X203800000Y-81420000D02*
X203800000Y-81375000D01*
X47010999Y-97000000D02*
X47010999Y-99101501D01*
X47010999Y-99101501D02*
X44812500Y-101300000D01*
X174026646Y-106869753D02*
X171894080Y-109002319D01*
X117400000Y-113300000D02*
X125600000Y-105100000D01*
X174026646Y-105425000D02*
X174026646Y-106869753D01*
X117400000Y-117250001D02*
X117400000Y-113300000D01*
X53675000Y-102661827D02*
X53675000Y-112750061D01*
X49509294Y-98496121D02*
X53675000Y-102661827D01*
X53675000Y-112750061D02*
X53724697Y-112799758D01*
X49503014Y-98496121D02*
X49509294Y-98496121D01*
X145000000Y-112075000D02*
X158625000Y-112075000D01*
X165700000Y-105000000D02*
X168550000Y-105000000D01*
X111500000Y-109775000D02*
X109200000Y-112075000D01*
X168550000Y-105000000D02*
X168750000Y-104800000D01*
X158625000Y-112075000D02*
X165700000Y-105000000D01*
X110800000Y-109300000D02*
X105724999Y-114375001D01*
X145675000Y-114300000D02*
X145600000Y-114375000D01*
X105724999Y-114375001D02*
X105600000Y-114375001D01*
X152000000Y-114300000D02*
X145675000Y-114300000D01*
X165138172Y-96025000D02*
X165325000Y-96025000D01*
X165325000Y-96025000D02*
X168500000Y-99200000D01*
X118200000Y-113700000D02*
X126200000Y-105700000D01*
X173322902Y-105044545D02*
X173322902Y-106442367D01*
X118200000Y-116675001D02*
X118200000Y-113700000D01*
X173322902Y-106442367D02*
X171340269Y-108425000D01*
X53100000Y-112300000D02*
X53100000Y-102900000D01*
X53100000Y-102900000D02*
X49500000Y-99300000D01*
X168513172Y-98100000D02*
X168481587Y-98100000D01*
X118400000Y-107100000D02*
X112700000Y-112800000D01*
X168481587Y-98100000D02*
X167056587Y-96675000D01*
X117700000Y-106700000D02*
X110650000Y-113750000D01*
X110650000Y-113750000D02*
X110600000Y-113750000D01*
X170055985Y-107175000D02*
X171805985Y-105425000D01*
X150300000Y-115525001D02*
X146300000Y-115525001D01*
X109500000Y-108100000D02*
X102074999Y-115525001D01*
X102074999Y-115525001D02*
X102000000Y-115525001D01*
X167100000Y-107175000D02*
X170055985Y-107175000D01*
X172619157Y-105425000D02*
X172619157Y-105973047D01*
X119000000Y-114300000D02*
X126900000Y-106400000D01*
X119000000Y-116100001D02*
X119000000Y-114300000D01*
X172619157Y-105973047D02*
X170841867Y-107750337D01*
X167275000Y-98975000D02*
X167275000Y-99300000D01*
X163750000Y-95450000D02*
X167275000Y-98975000D01*
X162200000Y-95450000D02*
X163750000Y-95450000D01*
X152800000Y-114900000D02*
X152749999Y-114950001D01*
X103949999Y-114950001D02*
X103800000Y-114950001D01*
X152749999Y-114950001D02*
X145000000Y-114950001D01*
X166500000Y-106600000D02*
X169506660Y-106600000D01*
X110200000Y-108700000D02*
X103949999Y-114950001D01*
X169506660Y-106600000D02*
X171306854Y-104799806D01*
X44999327Y-102300000D02*
X43614746Y-100915419D01*
X50399998Y-105100002D02*
X47599997Y-102300000D01*
X43614746Y-100915419D02*
X43614746Y-96696145D01*
X45679818Y-105000000D02*
X50300000Y-105000000D01*
X44615136Y-106064682D02*
X45679818Y-105000000D01*
X47599997Y-102300000D02*
X44999327Y-102300000D01*
M02*
