G04 #@! TF.GenerationSoftware,KiCad,Pcbnew,8.0.8*
G04 #@! TF.CreationDate,2025-04-26T15:59:21-07:00*
G04 #@! TF.ProjectId,Output Board,4f757470-7574-4204-926f-6172642e6b69,rev?*
G04 #@! TF.SameCoordinates,Original*
G04 #@! TF.FileFunction,Copper,L2,Bot*
G04 #@! TF.FilePolarity,Positive*
%FSLAX46Y46*%
G04 Gerber Fmt 4.6, Leading zero omitted, Abs format (unit mm)*
G04 Created by KiCad (PCBNEW 8.0.8) date 2025-04-26 15:59:21*
%MOMM*%
%LPD*%
G01*
G04 APERTURE LIST*
G04 Aperture macros list*
%AMRoundRect*
0 Rectangle with rounded corners*
0 $1 Rounding radius*
0 $2 $3 $4 $5 $6 $7 $8 $9 X,Y pos of 4 corners*
0 Add a 4 corners polygon primitive as box body*
4,1,4,$2,$3,$4,$5,$6,$7,$8,$9,$2,$3,0*
0 Add four circle primitives for the rounded corners*
1,1,$1+$1,$2,$3*
1,1,$1+$1,$4,$5*
1,1,$1+$1,$6,$7*
1,1,$1+$1,$8,$9*
0 Add four rect primitives between the rounded corners*
20,1,$1+$1,$2,$3,$4,$5,0*
20,1,$1+$1,$4,$5,$6,$7,0*
20,1,$1+$1,$6,$7,$8,$9,0*
20,1,$1+$1,$8,$9,$2,$3,0*%
G04 Aperture macros list end*
G04 #@! TA.AperFunction,ComponentPad*
%ADD10C,1.320800*%
G04 #@! TD*
G04 #@! TA.AperFunction,ComponentPad*
%ADD11C,2.400000*%
G04 #@! TD*
G04 #@! TA.AperFunction,ComponentPad*
%ADD12C,1.350000*%
G04 #@! TD*
G04 #@! TA.AperFunction,SMDPad,CuDef*
%ADD13RoundRect,0.250000X-0.262500X-0.450000X0.262500X-0.450000X0.262500X0.450000X-0.262500X0.450000X0*%
G04 #@! TD*
G04 #@! TA.AperFunction,SMDPad,CuDef*
%ADD14RoundRect,0.250000X-0.250000X-0.475000X0.250000X-0.475000X0.250000X0.475000X-0.250000X0.475000X0*%
G04 #@! TD*
G04 #@! TA.AperFunction,ComponentPad*
%ADD15R,1.447800X1.447800*%
G04 #@! TD*
G04 #@! TA.AperFunction,ComponentPad*
%ADD16C,1.447800*%
G04 #@! TD*
G04 #@! TA.AperFunction,ViaPad*
%ADD17C,0.600000*%
G04 #@! TD*
G04 #@! TA.AperFunction,Conductor*
%ADD18C,0.200000*%
G04 #@! TD*
G04 APERTURE END LIST*
D10*
X310314999Y-102645000D03*
X312315000Y-102645000D03*
X284914999Y-102645000D03*
X286915000Y-102645000D03*
X259514999Y-102645000D03*
X261515000Y-102645000D03*
X234114999Y-102645000D03*
X236115000Y-102645000D03*
X183314999Y-102645000D03*
X185315000Y-102645000D03*
X132514999Y-102645000D03*
X134515000Y-102645000D03*
X107114999Y-102645000D03*
X109115000Y-102645000D03*
D11*
X258600000Y-93610000D03*
X258600000Y-97710000D03*
D12*
X260650000Y-95660000D03*
D11*
X262700000Y-93610000D03*
X262700000Y-97710000D03*
X182630000Y-93610000D03*
X182630000Y-97710000D03*
D12*
X184680000Y-95660000D03*
D11*
X186730000Y-93610000D03*
X186730000Y-97710000D03*
X131830000Y-93610000D03*
X131830000Y-97710000D03*
D12*
X133880000Y-95660000D03*
D11*
X135930000Y-93610000D03*
X135930000Y-97710000D03*
X284230000Y-93610000D03*
X284230000Y-97710000D03*
D12*
X286280000Y-95660000D03*
D11*
X288330000Y-93610000D03*
X288330000Y-97710000D03*
X309630000Y-93610000D03*
X309630000Y-97710000D03*
D12*
X311680000Y-95660000D03*
D11*
X313730000Y-93610000D03*
X313730000Y-97710000D03*
X157230000Y-93610000D03*
X157230000Y-97710000D03*
D12*
X159280000Y-95660000D03*
D11*
X161330000Y-93610000D03*
X161330000Y-97710000D03*
X106430000Y-93610000D03*
X106430000Y-97710000D03*
D12*
X108480000Y-95660000D03*
D11*
X110530000Y-93610000D03*
X110530000Y-97710000D03*
X233430000Y-93610000D03*
X233430000Y-97710000D03*
D12*
X235480000Y-95660000D03*
D11*
X237530000Y-93610000D03*
X237530000Y-97710000D03*
D13*
X278255500Y-95660000D03*
X280080500Y-95660000D03*
D14*
X227418000Y-99216000D03*
X229318000Y-99216000D03*
D15*
X95373600Y-88217800D03*
D16*
X95373600Y-103457800D03*
D14*
X303541800Y-98885800D03*
X305441800Y-98885800D03*
X227418000Y-92104000D03*
X229318000Y-92104000D03*
X303618000Y-92053200D03*
X305518000Y-92053200D03*
D15*
X146072000Y-88167000D03*
D16*
X146072000Y-103407000D03*
D14*
X100545000Y-92154800D03*
X102445000Y-92154800D03*
D13*
X227455500Y-95660000D03*
X229280500Y-95660000D03*
D15*
X273199000Y-88167000D03*
D16*
X273199000Y-103407000D03*
D14*
X151218000Y-99216000D03*
X153118000Y-99216000D03*
D13*
X100582500Y-95660000D03*
X102407500Y-95660000D03*
D15*
X120672000Y-88167000D03*
D16*
X120672000Y-103407000D03*
D14*
X125780500Y-92154800D03*
X127680500Y-92154800D03*
X176635100Y-99216000D03*
X178535100Y-99216000D03*
D13*
X303655500Y-95431400D03*
X305480500Y-95431400D03*
X176606600Y-95660000D03*
X178431600Y-95660000D03*
D14*
X100545000Y-99216000D03*
X102445000Y-99216000D03*
D13*
X151255500Y-95660000D03*
X153080500Y-95660000D03*
D15*
X222322800Y-88268600D03*
D16*
X222322800Y-103508600D03*
D14*
X252642100Y-92104000D03*
X254542100Y-92104000D03*
X176569100Y-92104000D03*
X178469100Y-92104000D03*
X252667500Y-99063600D03*
X254567500Y-99063600D03*
D13*
X125855500Y-95660000D03*
X127680500Y-95660000D03*
D15*
X298472000Y-88167000D03*
D16*
X298472000Y-103407000D03*
D15*
X171319600Y-88268600D03*
D16*
X171319600Y-103508600D03*
D14*
X151218000Y-92104000D03*
X153118000Y-92104000D03*
X278218000Y-99216000D03*
X280118000Y-99216000D03*
X125780500Y-99190600D03*
X127680500Y-99190600D03*
D15*
X247468800Y-88268600D03*
D16*
X247468800Y-103508600D03*
D13*
X252705000Y-95583800D03*
X254530000Y-95583800D03*
D14*
X278218000Y-92104000D03*
X280118000Y-92104000D03*
D10*
X157914999Y-102645000D03*
X159915000Y-102645000D03*
D17*
X128901600Y-93348600D03*
X103984200Y-93170800D03*
X281733400Y-93475600D03*
X180514400Y-94034400D03*
X231212800Y-93323200D03*
X256333400Y-93323200D03*
X154377800Y-93323200D03*
X307235000Y-93145400D03*
D18*
X305441800Y-98885800D02*
X305441800Y-99130012D01*
X305441800Y-99130012D02*
X309917188Y-103605400D01*
X309917188Y-103605400D02*
X311354600Y-103605400D01*
X311354600Y-103605400D02*
X312315000Y-102645000D01*
X233586106Y-103484106D02*
X233595894Y-103484106D01*
X235154600Y-103605400D02*
X236115000Y-102645000D01*
X229318000Y-99216000D02*
X233586106Y-103484106D01*
X233717188Y-103605400D02*
X235154600Y-103605400D01*
X233595894Y-103484106D02*
X233717188Y-103605400D01*
X102407500Y-97353500D02*
X107114999Y-102060999D01*
X107114999Y-102060999D02*
X107114999Y-102645000D01*
X102445000Y-99355000D02*
X106690000Y-103600000D01*
X102445000Y-99216000D02*
X102445000Y-99355000D01*
X106690000Y-103600000D02*
X106711788Y-103600000D01*
X106711788Y-103600000D02*
X106717188Y-103605400D01*
X106717188Y-103605400D02*
X108154600Y-103605400D01*
X108154600Y-103605400D02*
X109115000Y-102645000D01*
X127680500Y-97290600D02*
X127680500Y-97380500D01*
X127680500Y-97380500D02*
X132514999Y-102214999D01*
X132514999Y-102214999D02*
X132514999Y-102645000D01*
X127680500Y-99190600D02*
X132095300Y-103605400D01*
X132095300Y-103605400D02*
X133554600Y-103605400D01*
X133554600Y-103605400D02*
X134515000Y-102645000D01*
X153118000Y-99216000D02*
X157507400Y-103605400D01*
X157507400Y-103605400D02*
X158954600Y-103605400D01*
X158954600Y-103605400D02*
X159915000Y-102645000D01*
X153080500Y-97353500D02*
X157914999Y-102187999D01*
X157914999Y-102187999D02*
X157914999Y-102645000D01*
X178535100Y-99216000D02*
X178535100Y-99223312D01*
X178535100Y-99223312D02*
X182917188Y-103605400D01*
X182917188Y-103605400D02*
X184354600Y-103605400D01*
X184354600Y-103605400D02*
X185315000Y-102645000D01*
X178431600Y-97419500D02*
X183314999Y-102302899D01*
X183314999Y-102302899D02*
X183314999Y-102645000D01*
X305480500Y-96947100D02*
X305480500Y-96990500D01*
X305480500Y-96990500D02*
X310314999Y-101824999D01*
X310314999Y-101824999D02*
X310314999Y-102645000D01*
X280118000Y-99216000D02*
X284678786Y-103776786D01*
X284678786Y-103776786D02*
X285783214Y-103776786D01*
X285783214Y-103776786D02*
X286915000Y-102645000D01*
X280080500Y-97353500D02*
X280173500Y-97353500D01*
X284914999Y-102094999D02*
X284914999Y-102645000D01*
X280173500Y-97353500D02*
X284914999Y-102094999D01*
X254567500Y-99063600D02*
X259307986Y-103804086D01*
X260355914Y-103804086D02*
X261515000Y-102645000D01*
X259307986Y-103804086D02*
X260355914Y-103804086D01*
X254530000Y-97201100D02*
X259514999Y-102186099D01*
X259514999Y-102186099D02*
X259514999Y-102645000D01*
X229280500Y-97353500D02*
X234114999Y-102187999D01*
X234114999Y-102187999D02*
X234114999Y-102645000D01*
X128874300Y-93348600D02*
X128901600Y-93348600D01*
X254542100Y-92104000D02*
X255761300Y-93323200D01*
X180399500Y-94034400D02*
X180514400Y-94034400D01*
X103461000Y-93170800D02*
X103984200Y-93170800D01*
X178469100Y-92104000D02*
X180399500Y-94034400D01*
X127680500Y-92154800D02*
X128874300Y-93348600D01*
X306610200Y-93145400D02*
X307235000Y-93145400D01*
X154337200Y-93323200D02*
X154377800Y-93323200D01*
X255761300Y-93323200D02*
X256333400Y-93323200D01*
X281489600Y-93475600D02*
X281733400Y-93475600D01*
X230537200Y-93323200D02*
X231212800Y-93323200D01*
X229318000Y-92104000D02*
X230537200Y-93323200D01*
X305518000Y-92053200D02*
X306610200Y-93145400D01*
X102445000Y-92154800D02*
X103461000Y-93170800D01*
X280118000Y-92104000D02*
X281489600Y-93475600D01*
X153118000Y-92104000D02*
X154337200Y-93323200D01*
X95373600Y-88217800D02*
X96608000Y-88217800D01*
X100582500Y-92192300D02*
X100545000Y-92154800D01*
X101582500Y-94660000D02*
X103111200Y-94660000D01*
X104111200Y-95660000D02*
X108480000Y-95660000D01*
X100582500Y-95660000D02*
X101582500Y-94660000D01*
X96608000Y-88217800D02*
X100545000Y-92154800D01*
X100582500Y-95660000D02*
X100582500Y-92192300D01*
X103111200Y-94660000D02*
X104111200Y-95660000D01*
X102407500Y-97353500D02*
X100545000Y-99216000D01*
X99615400Y-99216000D02*
X100545000Y-99216000D01*
X102407500Y-95660000D02*
X102407500Y-97353500D01*
X95373600Y-103457800D02*
X99615400Y-99216000D01*
X120672000Y-88167000D02*
X121792700Y-88167000D01*
X126855500Y-94660000D02*
X128177744Y-94660000D01*
X128177744Y-94660000D02*
X128796744Y-95279000D01*
X121792700Y-88167000D02*
X125780500Y-92154800D01*
X125855500Y-95660000D02*
X126855500Y-94660000D01*
X125855500Y-95660000D02*
X125855500Y-92229800D01*
X128796744Y-95279000D02*
X129177744Y-95660000D01*
X125855500Y-92229800D02*
X125780500Y-92154800D01*
X128796744Y-95279000D02*
X128800000Y-95279000D01*
X129177744Y-95660000D02*
X133880000Y-95660000D01*
X125780500Y-99190600D02*
X121564100Y-103407000D01*
X121564100Y-103407000D02*
X120672000Y-103407000D01*
X127680500Y-95660000D02*
X127680500Y-97290600D01*
X127680500Y-97290600D02*
X125780500Y-99190600D01*
X152255500Y-94660000D02*
X153577744Y-94660000D01*
X151218000Y-92104000D02*
X151218000Y-95622500D01*
X146072000Y-88167000D02*
X147281000Y-88167000D01*
X154577744Y-95660000D02*
X159280000Y-95660000D01*
X151255500Y-95660000D02*
X152255500Y-94660000D01*
X153577744Y-94660000D02*
X154577744Y-95660000D01*
X147281000Y-88167000D02*
X151218000Y-92104000D01*
X151218000Y-95622500D02*
X151255500Y-95660000D01*
X147027000Y-103407000D02*
X146072000Y-103407000D01*
X153080500Y-97353500D02*
X151218000Y-99216000D01*
X151218000Y-99216000D02*
X147027000Y-103407000D01*
X153080500Y-95660000D02*
X153080500Y-97353500D01*
X172733700Y-88268600D02*
X176569100Y-92104000D01*
X171319600Y-88268600D02*
X172733700Y-88268600D01*
X177606600Y-94660000D02*
X176606600Y-95660000D01*
X184680000Y-95304400D02*
X184324400Y-95660000D01*
X184324400Y-95660000D02*
X179928844Y-95660000D01*
X179928844Y-95660000D02*
X178928844Y-94660000D01*
X178928844Y-94660000D02*
X177606600Y-94660000D01*
X176606600Y-95660000D02*
X176606600Y-92141500D01*
X176606600Y-92141500D02*
X176569100Y-92104000D01*
X178431600Y-95660000D02*
X178431600Y-97419500D01*
X178431600Y-97419500D02*
X176635100Y-99216000D01*
X176635100Y-99216000D02*
X172342500Y-103508600D01*
X172342500Y-103508600D02*
X171319600Y-103508600D01*
X228455500Y-94660000D02*
X229806400Y-94660000D01*
X227455500Y-95660000D02*
X228455500Y-94660000D01*
X230806400Y-95660000D02*
X235480000Y-95660000D01*
X227455500Y-95660000D02*
X227455500Y-92141500D01*
X223582600Y-88268600D02*
X227418000Y-92104000D01*
X229806400Y-94660000D02*
X230806400Y-95660000D01*
X222322800Y-88268600D02*
X223582600Y-88268600D01*
X227455500Y-92141500D02*
X227418000Y-92104000D01*
X223125400Y-103508600D02*
X222322800Y-103508600D01*
X229280500Y-95660000D02*
X229280500Y-97353500D01*
X229280500Y-97353500D02*
X227418000Y-99216000D01*
X227418000Y-99216000D02*
X223125400Y-103508600D01*
X248806700Y-88268600D02*
X252642100Y-92104000D01*
X253705000Y-94583800D02*
X255130200Y-94583800D01*
X252705000Y-95583800D02*
X253705000Y-94583800D01*
X252642100Y-95520900D02*
X252705000Y-95583800D01*
X256206400Y-95660000D02*
X260650000Y-95660000D01*
X247468800Y-88268600D02*
X248806700Y-88268600D01*
X255130200Y-94583800D02*
X256206400Y-95660000D01*
X252642100Y-92104000D02*
X252642100Y-95520900D01*
X254530000Y-97201100D02*
X252667500Y-99063600D01*
X252667500Y-99063600D02*
X248222500Y-103508600D01*
X254530000Y-95583800D02*
X254530000Y-97201100D01*
X248222500Y-103508600D02*
X247468800Y-103508600D01*
X281657200Y-95660000D02*
X286280000Y-95660000D01*
X280657200Y-94660000D02*
X281657200Y-95660000D01*
X273199000Y-88167000D02*
X274281000Y-88167000D01*
X279255500Y-94660000D02*
X280657200Y-94660000D01*
X278255500Y-95660000D02*
X278255500Y-92141500D01*
X278255500Y-95660000D02*
X279255500Y-94660000D01*
X274281000Y-88167000D02*
X278218000Y-92104000D01*
X278255500Y-92141500D02*
X278218000Y-92104000D01*
X286915000Y-102645000D02*
X286432400Y-102645000D01*
X274027000Y-103407000D02*
X273199000Y-103407000D01*
X278218000Y-99216000D02*
X274027000Y-103407000D01*
X280080500Y-97353500D02*
X278218000Y-99216000D01*
X280080500Y-95660000D02*
X280080500Y-97353500D01*
X303618000Y-92053200D02*
X303618000Y-95393900D01*
X299731800Y-88167000D02*
X303618000Y-92053200D01*
X304655500Y-94431400D02*
X306362000Y-94431400D01*
X298472000Y-88167000D02*
X299731800Y-88167000D01*
X303618000Y-95393900D02*
X303655500Y-95431400D01*
X303655500Y-95431400D02*
X304655500Y-94431400D01*
X307590600Y-95660000D02*
X311680000Y-95660000D01*
X306362000Y-94431400D02*
X307590600Y-95660000D01*
X303541800Y-98885800D02*
X299020600Y-103407000D01*
X312315000Y-102645000D02*
X311934000Y-102645000D01*
X299020600Y-103407000D02*
X298472000Y-103407000D01*
X305480500Y-96947100D02*
X303541800Y-98885800D01*
X305480500Y-95431400D02*
X305480500Y-96947100D01*
M02*
