G04 #@! TF.GenerationSoftware,KiCad,Pcbnew,8.0.8*
G04 #@! TF.CreationDate,2025-04-26T15:59:20-07:00*
G04 #@! TF.ProjectId,Output Board,4f757470-7574-4204-926f-6172642e6b69,rev?*
G04 #@! TF.SameCoordinates,Original*
G04 #@! TF.FileFunction,Copper,L1,Top*
G04 #@! TF.FilePolarity,Positive*
%FSLAX46Y46*%
G04 Gerber Fmt 4.6, Leading zero omitted, Abs format (unit mm)*
G04 Created by KiCad (PCBNEW 8.0.8) date 2025-04-26 15:59:20*
%MOMM*%
%LPD*%
G01*
G04 APERTURE LIST*
%ADD10C,0.150000*%
G04 #@! TA.AperFunction,NonConductor*
%ADD11C,0.150000*%
G04 #@! TD*
G04 #@! TA.AperFunction,ComponentPad*
%ADD12C,1.320800*%
G04 #@! TD*
G04 #@! TA.AperFunction,ComponentPad*
%ADD13C,2.400000*%
G04 #@! TD*
G04 #@! TA.AperFunction,ComponentPad*
%ADD14C,1.350000*%
G04 #@! TD*
G04 #@! TA.AperFunction,ComponentPad*
%ADD15R,1.447800X1.447800*%
G04 #@! TD*
G04 #@! TA.AperFunction,ComponentPad*
%ADD16C,1.447800*%
G04 #@! TD*
G04 #@! TA.AperFunction,ViaPad*
%ADD17C,0.600000*%
G04 #@! TD*
G04 #@! TA.AperFunction,Conductor*
%ADD18C,0.200000*%
G04 #@! TD*
G04 APERTURE END LIST*
D10*
D11*
X195078769Y-102521039D02*
X195078769Y-102949610D01*
X195078769Y-102949610D02*
X195050198Y-103035325D01*
X195050198Y-103035325D02*
X194993055Y-103092468D01*
X194993055Y-103092468D02*
X194907341Y-103121039D01*
X194907341Y-103121039D02*
X194850198Y-103121039D01*
X195621627Y-103121039D02*
X195621627Y-102806753D01*
X195621627Y-102806753D02*
X195593055Y-102749610D01*
X195593055Y-102749610D02*
X195535912Y-102721039D01*
X195535912Y-102721039D02*
X195421627Y-102721039D01*
X195421627Y-102721039D02*
X195364484Y-102749610D01*
X195621627Y-103092468D02*
X195564484Y-103121039D01*
X195564484Y-103121039D02*
X195421627Y-103121039D01*
X195421627Y-103121039D02*
X195364484Y-103092468D01*
X195364484Y-103092468D02*
X195335912Y-103035325D01*
X195335912Y-103035325D02*
X195335912Y-102978182D01*
X195335912Y-102978182D02*
X195364484Y-102921039D01*
X195364484Y-102921039D02*
X195421627Y-102892468D01*
X195421627Y-102892468D02*
X195564484Y-102892468D01*
X195564484Y-102892468D02*
X195621627Y-102863896D01*
X196164484Y-103092468D02*
X196107341Y-103121039D01*
X196107341Y-103121039D02*
X195993055Y-103121039D01*
X195993055Y-103121039D02*
X195935912Y-103092468D01*
X195935912Y-103092468D02*
X195907341Y-103063896D01*
X195907341Y-103063896D02*
X195878769Y-103006753D01*
X195878769Y-103006753D02*
X195878769Y-102835325D01*
X195878769Y-102835325D02*
X195907341Y-102778182D01*
X195907341Y-102778182D02*
X195935912Y-102749610D01*
X195935912Y-102749610D02*
X195993055Y-102721039D01*
X195993055Y-102721039D02*
X196107341Y-102721039D01*
X196107341Y-102721039D02*
X196164484Y-102749610D01*
X196421627Y-103121039D02*
X196421627Y-102521039D01*
X196478770Y-102892468D02*
X196650198Y-103121039D01*
X196650198Y-102721039D02*
X196421627Y-102949610D01*
X196878769Y-103092468D02*
X196935912Y-103121039D01*
X196935912Y-103121039D02*
X197050198Y-103121039D01*
X197050198Y-103121039D02*
X197107341Y-103092468D01*
X197107341Y-103092468D02*
X197135912Y-103035325D01*
X197135912Y-103035325D02*
X197135912Y-103006753D01*
X197135912Y-103006753D02*
X197107341Y-102949610D01*
X197107341Y-102949610D02*
X197050198Y-102921039D01*
X197050198Y-102921039D02*
X196964484Y-102921039D01*
X196964484Y-102921039D02*
X196907341Y-102892468D01*
X196907341Y-102892468D02*
X196878769Y-102835325D01*
X196878769Y-102835325D02*
X196878769Y-102806753D01*
X196878769Y-102806753D02*
X196907341Y-102749610D01*
X196907341Y-102749610D02*
X196964484Y-102721039D01*
X196964484Y-102721039D02*
X197050198Y-102721039D01*
X197050198Y-102721039D02*
X197107341Y-102749610D01*
X197478769Y-103121039D02*
X197421626Y-103092468D01*
X197421626Y-103092468D02*
X197393055Y-103063896D01*
X197393055Y-103063896D02*
X197364483Y-103006753D01*
X197364483Y-103006753D02*
X197364483Y-102835325D01*
X197364483Y-102835325D02*
X197393055Y-102778182D01*
X197393055Y-102778182D02*
X197421626Y-102749610D01*
X197421626Y-102749610D02*
X197478769Y-102721039D01*
X197478769Y-102721039D02*
X197564483Y-102721039D01*
X197564483Y-102721039D02*
X197621626Y-102749610D01*
X197621626Y-102749610D02*
X197650198Y-102778182D01*
X197650198Y-102778182D02*
X197678769Y-102835325D01*
X197678769Y-102835325D02*
X197678769Y-103006753D01*
X197678769Y-103006753D02*
X197650198Y-103063896D01*
X197650198Y-103063896D02*
X197621626Y-103092468D01*
X197621626Y-103092468D02*
X197564483Y-103121039D01*
X197564483Y-103121039D02*
X197478769Y-103121039D01*
X197935912Y-102721039D02*
X197935912Y-103121039D01*
X197935912Y-102778182D02*
X197964483Y-102749610D01*
X197964483Y-102749610D02*
X198021626Y-102721039D01*
X198021626Y-102721039D02*
X198107340Y-102721039D01*
X198107340Y-102721039D02*
X198164483Y-102749610D01*
X198164483Y-102749610D02*
X198193055Y-102806753D01*
X198193055Y-102806753D02*
X198193055Y-103121039D01*
X198935912Y-103121039D02*
X198935912Y-102521039D01*
X198935912Y-102521039D02*
X199164483Y-102521039D01*
X199164483Y-102521039D02*
X199221626Y-102549610D01*
X199221626Y-102549610D02*
X199250197Y-102578182D01*
X199250197Y-102578182D02*
X199278769Y-102635325D01*
X199278769Y-102635325D02*
X199278769Y-102721039D01*
X199278769Y-102721039D02*
X199250197Y-102778182D01*
X199250197Y-102778182D02*
X199221626Y-102806753D01*
X199221626Y-102806753D02*
X199164483Y-102835325D01*
X199164483Y-102835325D02*
X198935912Y-102835325D01*
X199535912Y-103121039D02*
X199535912Y-102521039D01*
X199793055Y-103121039D02*
X199793055Y-102806753D01*
X199793055Y-102806753D02*
X199764483Y-102749610D01*
X199764483Y-102749610D02*
X199707340Y-102721039D01*
X199707340Y-102721039D02*
X199621626Y-102721039D01*
X199621626Y-102721039D02*
X199564483Y-102749610D01*
X199564483Y-102749610D02*
X199535912Y-102778182D01*
X200078769Y-103121039D02*
X200078769Y-102721039D01*
X200078769Y-102521039D02*
X200050197Y-102549610D01*
X200050197Y-102549610D02*
X200078769Y-102578182D01*
X200078769Y-102578182D02*
X200107340Y-102549610D01*
X200107340Y-102549610D02*
X200078769Y-102521039D01*
X200078769Y-102521039D02*
X200078769Y-102578182D01*
X200450197Y-103121039D02*
X200393054Y-103092468D01*
X200393054Y-103092468D02*
X200364483Y-103035325D01*
X200364483Y-103035325D02*
X200364483Y-102521039D01*
X200678769Y-103121039D02*
X200678769Y-102721039D01*
X200678769Y-102521039D02*
X200650197Y-102549610D01*
X200650197Y-102549610D02*
X200678769Y-102578182D01*
X200678769Y-102578182D02*
X200707340Y-102549610D01*
X200707340Y-102549610D02*
X200678769Y-102521039D01*
X200678769Y-102521039D02*
X200678769Y-102578182D01*
X201050197Y-103121039D02*
X200993054Y-103092468D01*
X200993054Y-103092468D02*
X200964483Y-103063896D01*
X200964483Y-103063896D02*
X200935911Y-103006753D01*
X200935911Y-103006753D02*
X200935911Y-102835325D01*
X200935911Y-102835325D02*
X200964483Y-102778182D01*
X200964483Y-102778182D02*
X200993054Y-102749610D01*
X200993054Y-102749610D02*
X201050197Y-102721039D01*
X201050197Y-102721039D02*
X201135911Y-102721039D01*
X201135911Y-102721039D02*
X201193054Y-102749610D01*
X201193054Y-102749610D02*
X201221626Y-102778182D01*
X201221626Y-102778182D02*
X201250197Y-102835325D01*
X201250197Y-102835325D02*
X201250197Y-103006753D01*
X201250197Y-103006753D02*
X201221626Y-103063896D01*
X201221626Y-103063896D02*
X201193054Y-103092468D01*
X201193054Y-103092468D02*
X201135911Y-103121039D01*
X201135911Y-103121039D02*
X201050197Y-103121039D01*
X201507340Y-102721039D02*
X201507340Y-103121039D01*
X201507340Y-102778182D02*
X201535911Y-102749610D01*
X201535911Y-102749610D02*
X201593054Y-102721039D01*
X201593054Y-102721039D02*
X201678768Y-102721039D01*
X201678768Y-102721039D02*
X201735911Y-102749610D01*
X201735911Y-102749610D02*
X201764483Y-102806753D01*
X201764483Y-102806753D02*
X201764483Y-103121039D01*
X202078768Y-103092468D02*
X202078768Y-103121039D01*
X202078768Y-103121039D02*
X202050197Y-103178182D01*
X202050197Y-103178182D02*
X202021625Y-103206753D01*
X202735911Y-102521039D02*
X203135911Y-102521039D01*
X203135911Y-102521039D02*
X202735911Y-103121039D01*
X202735911Y-103121039D02*
X203135911Y-103121039D01*
X203450197Y-103121039D02*
X203393054Y-103092468D01*
X203393054Y-103092468D02*
X203364483Y-103063896D01*
X203364483Y-103063896D02*
X203335911Y-103006753D01*
X203335911Y-103006753D02*
X203335911Y-102835325D01*
X203335911Y-102835325D02*
X203364483Y-102778182D01*
X203364483Y-102778182D02*
X203393054Y-102749610D01*
X203393054Y-102749610D02*
X203450197Y-102721039D01*
X203450197Y-102721039D02*
X203535911Y-102721039D01*
X203535911Y-102721039D02*
X203593054Y-102749610D01*
X203593054Y-102749610D02*
X203621626Y-102778182D01*
X203621626Y-102778182D02*
X203650197Y-102835325D01*
X203650197Y-102835325D02*
X203650197Y-103006753D01*
X203650197Y-103006753D02*
X203621626Y-103063896D01*
X203621626Y-103063896D02*
X203593054Y-103092468D01*
X203593054Y-103092468D02*
X203535911Y-103121039D01*
X203535911Y-103121039D02*
X203450197Y-103121039D01*
X204135911Y-103092468D02*
X204078768Y-103121039D01*
X204078768Y-103121039D02*
X203964483Y-103121039D01*
X203964483Y-103121039D02*
X203907340Y-103092468D01*
X203907340Y-103092468D02*
X203878768Y-103035325D01*
X203878768Y-103035325D02*
X203878768Y-102806753D01*
X203878768Y-102806753D02*
X203907340Y-102749610D01*
X203907340Y-102749610D02*
X203964483Y-102721039D01*
X203964483Y-102721039D02*
X204078768Y-102721039D01*
X204078768Y-102721039D02*
X204135911Y-102749610D01*
X204135911Y-102749610D02*
X204164483Y-102806753D01*
X204164483Y-102806753D02*
X204164483Y-102863896D01*
X204164483Y-102863896D02*
X203878768Y-102921039D01*
X204821626Y-102521039D02*
X204964483Y-103121039D01*
X204964483Y-103121039D02*
X205078769Y-102692468D01*
X205078769Y-102692468D02*
X205193054Y-103121039D01*
X205193054Y-103121039D02*
X205335912Y-102521039D01*
X205650197Y-103121039D02*
X205593054Y-103092468D01*
X205593054Y-103092468D02*
X205564483Y-103063896D01*
X205564483Y-103063896D02*
X205535911Y-103006753D01*
X205535911Y-103006753D02*
X205535911Y-102835325D01*
X205535911Y-102835325D02*
X205564483Y-102778182D01*
X205564483Y-102778182D02*
X205593054Y-102749610D01*
X205593054Y-102749610D02*
X205650197Y-102721039D01*
X205650197Y-102721039D02*
X205735911Y-102721039D01*
X205735911Y-102721039D02*
X205793054Y-102749610D01*
X205793054Y-102749610D02*
X205821626Y-102778182D01*
X205821626Y-102778182D02*
X205850197Y-102835325D01*
X205850197Y-102835325D02*
X205850197Y-103006753D01*
X205850197Y-103006753D02*
X205821626Y-103063896D01*
X205821626Y-103063896D02*
X205793054Y-103092468D01*
X205793054Y-103092468D02*
X205735911Y-103121039D01*
X205735911Y-103121039D02*
X205650197Y-103121039D01*
X206107340Y-103121039D02*
X206107340Y-102721039D01*
X206107340Y-102835325D02*
X206135911Y-102778182D01*
X206135911Y-102778182D02*
X206164483Y-102749610D01*
X206164483Y-102749610D02*
X206221625Y-102721039D01*
X206221625Y-102721039D02*
X206278768Y-102721039D01*
X206478769Y-103121039D02*
X206478769Y-102721039D01*
X206478769Y-102835325D02*
X206507340Y-102778182D01*
X206507340Y-102778182D02*
X206535912Y-102749610D01*
X206535912Y-102749610D02*
X206593054Y-102721039D01*
X206593054Y-102721039D02*
X206650197Y-102721039D01*
X207107341Y-103121039D02*
X207107341Y-102806753D01*
X207107341Y-102806753D02*
X207078769Y-102749610D01*
X207078769Y-102749610D02*
X207021626Y-102721039D01*
X207021626Y-102721039D02*
X206907341Y-102721039D01*
X206907341Y-102721039D02*
X206850198Y-102749610D01*
X207107341Y-103092468D02*
X207050198Y-103121039D01*
X207050198Y-103121039D02*
X206907341Y-103121039D01*
X206907341Y-103121039D02*
X206850198Y-103092468D01*
X206850198Y-103092468D02*
X206821626Y-103035325D01*
X206821626Y-103035325D02*
X206821626Y-102978182D01*
X206821626Y-102978182D02*
X206850198Y-102921039D01*
X206850198Y-102921039D02*
X206907341Y-102892468D01*
X206907341Y-102892468D02*
X207050198Y-102892468D01*
X207050198Y-102892468D02*
X207107341Y-102863896D01*
X207478769Y-103121039D02*
X207421626Y-103092468D01*
X207421626Y-103092468D02*
X207393055Y-103035325D01*
X207393055Y-103035325D02*
X207393055Y-102521039D01*
X207793055Y-103121039D02*
X207735912Y-103092468D01*
X207735912Y-103092468D02*
X207707341Y-103035325D01*
X207707341Y-103035325D02*
X207707341Y-102521039D01*
X208050198Y-103092468D02*
X208050198Y-103121039D01*
X208050198Y-103121039D02*
X208021627Y-103178182D01*
X208021627Y-103178182D02*
X207993055Y-103206753D01*
X208764484Y-102806753D02*
X208964484Y-102806753D01*
X209050198Y-103121039D02*
X208764484Y-103121039D01*
X208764484Y-103121039D02*
X208764484Y-102521039D01*
X208764484Y-102521039D02*
X209050198Y-102521039D01*
X209393055Y-103121039D02*
X209335912Y-103092468D01*
X209335912Y-103092468D02*
X209307341Y-103035325D01*
X209307341Y-103035325D02*
X209307341Y-102521039D01*
X209707341Y-103121039D02*
X209650198Y-103092468D01*
X209650198Y-103092468D02*
X209621627Y-103035325D01*
X209621627Y-103035325D02*
X209621627Y-102521039D01*
X209935913Y-103121039D02*
X209935913Y-102721039D01*
X209935913Y-102521039D02*
X209907341Y-102549610D01*
X209907341Y-102549610D02*
X209935913Y-102578182D01*
X209935913Y-102578182D02*
X209964484Y-102549610D01*
X209964484Y-102549610D02*
X209935913Y-102521039D01*
X209935913Y-102521039D02*
X209935913Y-102578182D01*
X210450198Y-103092468D02*
X210393055Y-103121039D01*
X210393055Y-103121039D02*
X210278770Y-103121039D01*
X210278770Y-103121039D02*
X210221627Y-103092468D01*
X210221627Y-103092468D02*
X210193055Y-103035325D01*
X210193055Y-103035325D02*
X210193055Y-102806753D01*
X210193055Y-102806753D02*
X210221627Y-102749610D01*
X210221627Y-102749610D02*
X210278770Y-102721039D01*
X210278770Y-102721039D02*
X210393055Y-102721039D01*
X210393055Y-102721039D02*
X210450198Y-102749610D01*
X210450198Y-102749610D02*
X210478770Y-102806753D01*
X210478770Y-102806753D02*
X210478770Y-102863896D01*
X210478770Y-102863896D02*
X210193055Y-102921039D01*
X211164484Y-103092468D02*
X211250199Y-103121039D01*
X211250199Y-103121039D02*
X211393056Y-103121039D01*
X211393056Y-103121039D02*
X211450199Y-103092468D01*
X211450199Y-103092468D02*
X211478770Y-103063896D01*
X211478770Y-103063896D02*
X211507341Y-103006753D01*
X211507341Y-103006753D02*
X211507341Y-102949610D01*
X211507341Y-102949610D02*
X211478770Y-102892468D01*
X211478770Y-102892468D02*
X211450199Y-102863896D01*
X211450199Y-102863896D02*
X211393056Y-102835325D01*
X211393056Y-102835325D02*
X211278770Y-102806753D01*
X211278770Y-102806753D02*
X211221627Y-102778182D01*
X211221627Y-102778182D02*
X211193056Y-102749610D01*
X211193056Y-102749610D02*
X211164484Y-102692468D01*
X211164484Y-102692468D02*
X211164484Y-102635325D01*
X211164484Y-102635325D02*
X211193056Y-102578182D01*
X211193056Y-102578182D02*
X211221627Y-102549610D01*
X211221627Y-102549610D02*
X211278770Y-102521039D01*
X211278770Y-102521039D02*
X211421627Y-102521039D01*
X211421627Y-102521039D02*
X211507341Y-102549610D01*
X212021628Y-102721039D02*
X212021628Y-103121039D01*
X211764485Y-102721039D02*
X211764485Y-103035325D01*
X211764485Y-103035325D02*
X211793056Y-103092468D01*
X211793056Y-103092468D02*
X211850199Y-103121039D01*
X211850199Y-103121039D02*
X211935913Y-103121039D01*
X211935913Y-103121039D02*
X211993056Y-103092468D01*
X211993056Y-103092468D02*
X212021628Y-103063896D01*
X212307342Y-102721039D02*
X212307342Y-103121039D01*
X212307342Y-102778182D02*
X212335913Y-102749610D01*
X212335913Y-102749610D02*
X212393056Y-102721039D01*
X212393056Y-102721039D02*
X212478770Y-102721039D01*
X212478770Y-102721039D02*
X212535913Y-102749610D01*
X212535913Y-102749610D02*
X212564485Y-102806753D01*
X212564485Y-102806753D02*
X212564485Y-103121039D01*
X213107342Y-103121039D02*
X213107342Y-102521039D01*
X213107342Y-103092468D02*
X213050199Y-103121039D01*
X213050199Y-103121039D02*
X212935913Y-103121039D01*
X212935913Y-103121039D02*
X212878770Y-103092468D01*
X212878770Y-103092468D02*
X212850199Y-103063896D01*
X212850199Y-103063896D02*
X212821627Y-103006753D01*
X212821627Y-103006753D02*
X212821627Y-102835325D01*
X212821627Y-102835325D02*
X212850199Y-102778182D01*
X212850199Y-102778182D02*
X212878770Y-102749610D01*
X212878770Y-102749610D02*
X212935913Y-102721039D01*
X212935913Y-102721039D02*
X213050199Y-102721039D01*
X213050199Y-102721039D02*
X213107342Y-102749610D01*
X213393056Y-103121039D02*
X213393056Y-102521039D01*
X213650199Y-103121039D02*
X213650199Y-102806753D01*
X213650199Y-102806753D02*
X213621627Y-102749610D01*
X213621627Y-102749610D02*
X213564484Y-102721039D01*
X213564484Y-102721039D02*
X213478770Y-102721039D01*
X213478770Y-102721039D02*
X213421627Y-102749610D01*
X213421627Y-102749610D02*
X213393056Y-102778182D01*
X214164484Y-103092468D02*
X214107341Y-103121039D01*
X214107341Y-103121039D02*
X213993056Y-103121039D01*
X213993056Y-103121039D02*
X213935913Y-103092468D01*
X213935913Y-103092468D02*
X213907341Y-103035325D01*
X213907341Y-103035325D02*
X213907341Y-102806753D01*
X213907341Y-102806753D02*
X213935913Y-102749610D01*
X213935913Y-102749610D02*
X213993056Y-102721039D01*
X213993056Y-102721039D02*
X214107341Y-102721039D01*
X214107341Y-102721039D02*
X214164484Y-102749610D01*
X214164484Y-102749610D02*
X214193056Y-102806753D01*
X214193056Y-102806753D02*
X214193056Y-102863896D01*
X214193056Y-102863896D02*
X213907341Y-102921039D01*
X214450199Y-103121039D02*
X214450199Y-102721039D01*
X214450199Y-102521039D02*
X214421627Y-102549610D01*
X214421627Y-102549610D02*
X214450199Y-102578182D01*
X214450199Y-102578182D02*
X214478770Y-102549610D01*
X214478770Y-102549610D02*
X214450199Y-102521039D01*
X214450199Y-102521039D02*
X214450199Y-102578182D01*
X214735913Y-103121039D02*
X214735913Y-102721039D01*
X214735913Y-102778182D02*
X214764484Y-102749610D01*
X214764484Y-102749610D02*
X214821627Y-102721039D01*
X214821627Y-102721039D02*
X214907341Y-102721039D01*
X214907341Y-102721039D02*
X214964484Y-102749610D01*
X214964484Y-102749610D02*
X214993056Y-102806753D01*
X214993056Y-102806753D02*
X214993056Y-103121039D01*
X214993056Y-102806753D02*
X215021627Y-102749610D01*
X215021627Y-102749610D02*
X215078770Y-102721039D01*
X215078770Y-102721039D02*
X215164484Y-102721039D01*
X215164484Y-102721039D02*
X215221627Y-102749610D01*
X215221627Y-102749610D02*
X215250198Y-102806753D01*
X215250198Y-102806753D02*
X215250198Y-103121039D01*
X194907341Y-104087005D02*
X194907341Y-103487005D01*
X194907341Y-103487005D02*
X195250198Y-104087005D01*
X195250198Y-104087005D02*
X195250198Y-103487005D01*
X195793055Y-104087005D02*
X195793055Y-103772719D01*
X195793055Y-103772719D02*
X195764483Y-103715576D01*
X195764483Y-103715576D02*
X195707340Y-103687005D01*
X195707340Y-103687005D02*
X195593055Y-103687005D01*
X195593055Y-103687005D02*
X195535912Y-103715576D01*
X195793055Y-104058434D02*
X195735912Y-104087005D01*
X195735912Y-104087005D02*
X195593055Y-104087005D01*
X195593055Y-104087005D02*
X195535912Y-104058434D01*
X195535912Y-104058434D02*
X195507340Y-104001291D01*
X195507340Y-104001291D02*
X195507340Y-103944148D01*
X195507340Y-103944148D02*
X195535912Y-103887005D01*
X195535912Y-103887005D02*
X195593055Y-103858434D01*
X195593055Y-103858434D02*
X195735912Y-103858434D01*
X195735912Y-103858434D02*
X195793055Y-103829862D01*
X195993054Y-103687005D02*
X196221626Y-103687005D01*
X196078769Y-103487005D02*
X196078769Y-104001291D01*
X196078769Y-104001291D02*
X196107340Y-104058434D01*
X196107340Y-104058434D02*
X196164483Y-104087005D01*
X196164483Y-104087005D02*
X196221626Y-104087005D01*
X196678769Y-104087005D02*
X196678769Y-103772719D01*
X196678769Y-103772719D02*
X196650197Y-103715576D01*
X196650197Y-103715576D02*
X196593054Y-103687005D01*
X196593054Y-103687005D02*
X196478769Y-103687005D01*
X196478769Y-103687005D02*
X196421626Y-103715576D01*
X196678769Y-104058434D02*
X196621626Y-104087005D01*
X196621626Y-104087005D02*
X196478769Y-104087005D01*
X196478769Y-104087005D02*
X196421626Y-104058434D01*
X196421626Y-104058434D02*
X196393054Y-104001291D01*
X196393054Y-104001291D02*
X196393054Y-103944148D01*
X196393054Y-103944148D02*
X196421626Y-103887005D01*
X196421626Y-103887005D02*
X196478769Y-103858434D01*
X196478769Y-103858434D02*
X196621626Y-103858434D01*
X196621626Y-103858434D02*
X196678769Y-103829862D01*
X197050197Y-104087005D02*
X196993054Y-104058434D01*
X196993054Y-104058434D02*
X196964483Y-104001291D01*
X196964483Y-104001291D02*
X196964483Y-103487005D01*
X197278769Y-104087005D02*
X197278769Y-103687005D01*
X197278769Y-103487005D02*
X197250197Y-103515576D01*
X197250197Y-103515576D02*
X197278769Y-103544148D01*
X197278769Y-103544148D02*
X197307340Y-103515576D01*
X197307340Y-103515576D02*
X197278769Y-103487005D01*
X197278769Y-103487005D02*
X197278769Y-103544148D01*
X197793054Y-104058434D02*
X197735911Y-104087005D01*
X197735911Y-104087005D02*
X197621626Y-104087005D01*
X197621626Y-104087005D02*
X197564483Y-104058434D01*
X197564483Y-104058434D02*
X197535911Y-104001291D01*
X197535911Y-104001291D02*
X197535911Y-103772719D01*
X197535911Y-103772719D02*
X197564483Y-103715576D01*
X197564483Y-103715576D02*
X197621626Y-103687005D01*
X197621626Y-103687005D02*
X197735911Y-103687005D01*
X197735911Y-103687005D02*
X197793054Y-103715576D01*
X197793054Y-103715576D02*
X197821626Y-103772719D01*
X197821626Y-103772719D02*
X197821626Y-103829862D01*
X197821626Y-103829862D02*
X197535911Y-103887005D01*
X198507340Y-103915576D02*
X198793055Y-103915576D01*
X198450197Y-104087005D02*
X198650197Y-103487005D01*
X198650197Y-103487005D02*
X198850197Y-104087005D01*
X199050198Y-104087005D02*
X199050198Y-103687005D01*
X199050198Y-103801291D02*
X199078769Y-103744148D01*
X199078769Y-103744148D02*
X199107341Y-103715576D01*
X199107341Y-103715576D02*
X199164483Y-103687005D01*
X199164483Y-103687005D02*
X199221626Y-103687005D01*
X199678770Y-104058434D02*
X199621627Y-104087005D01*
X199621627Y-104087005D02*
X199507341Y-104087005D01*
X199507341Y-104087005D02*
X199450198Y-104058434D01*
X199450198Y-104058434D02*
X199421627Y-104029862D01*
X199421627Y-104029862D02*
X199393055Y-103972719D01*
X199393055Y-103972719D02*
X199393055Y-103801291D01*
X199393055Y-103801291D02*
X199421627Y-103744148D01*
X199421627Y-103744148D02*
X199450198Y-103715576D01*
X199450198Y-103715576D02*
X199507341Y-103687005D01*
X199507341Y-103687005D02*
X199621627Y-103687005D01*
X199621627Y-103687005D02*
X199678770Y-103715576D01*
X200164484Y-104058434D02*
X200107341Y-104087005D01*
X200107341Y-104087005D02*
X199993056Y-104087005D01*
X199993056Y-104087005D02*
X199935913Y-104058434D01*
X199935913Y-104058434D02*
X199907341Y-104001291D01*
X199907341Y-104001291D02*
X199907341Y-103772719D01*
X199907341Y-103772719D02*
X199935913Y-103715576D01*
X199935913Y-103715576D02*
X199993056Y-103687005D01*
X199993056Y-103687005D02*
X200107341Y-103687005D01*
X200107341Y-103687005D02*
X200164484Y-103715576D01*
X200164484Y-103715576D02*
X200193056Y-103772719D01*
X200193056Y-103772719D02*
X200193056Y-103829862D01*
X200193056Y-103829862D02*
X199907341Y-103887005D01*
X200478770Y-104058434D02*
X200478770Y-104087005D01*
X200478770Y-104087005D02*
X200450199Y-104144148D01*
X200450199Y-104144148D02*
X200421627Y-104172719D01*
X201364484Y-103487005D02*
X201364484Y-103915576D01*
X201364484Y-103915576D02*
X201335913Y-104001291D01*
X201335913Y-104001291D02*
X201278770Y-104058434D01*
X201278770Y-104058434D02*
X201193056Y-104087005D01*
X201193056Y-104087005D02*
X201135913Y-104087005D01*
X201878770Y-104058434D02*
X201821627Y-104087005D01*
X201821627Y-104087005D02*
X201707342Y-104087005D01*
X201707342Y-104087005D02*
X201650199Y-104058434D01*
X201650199Y-104058434D02*
X201621627Y-104001291D01*
X201621627Y-104001291D02*
X201621627Y-103772719D01*
X201621627Y-103772719D02*
X201650199Y-103715576D01*
X201650199Y-103715576D02*
X201707342Y-103687005D01*
X201707342Y-103687005D02*
X201821627Y-103687005D01*
X201821627Y-103687005D02*
X201878770Y-103715576D01*
X201878770Y-103715576D02*
X201907342Y-103772719D01*
X201907342Y-103772719D02*
X201907342Y-103829862D01*
X201907342Y-103829862D02*
X201621627Y-103887005D01*
X202135913Y-104058434D02*
X202193056Y-104087005D01*
X202193056Y-104087005D02*
X202307342Y-104087005D01*
X202307342Y-104087005D02*
X202364485Y-104058434D01*
X202364485Y-104058434D02*
X202393056Y-104001291D01*
X202393056Y-104001291D02*
X202393056Y-103972719D01*
X202393056Y-103972719D02*
X202364485Y-103915576D01*
X202364485Y-103915576D02*
X202307342Y-103887005D01*
X202307342Y-103887005D02*
X202221628Y-103887005D01*
X202221628Y-103887005D02*
X202164485Y-103858434D01*
X202164485Y-103858434D02*
X202135913Y-103801291D01*
X202135913Y-103801291D02*
X202135913Y-103772719D01*
X202135913Y-103772719D02*
X202164485Y-103715576D01*
X202164485Y-103715576D02*
X202221628Y-103687005D01*
X202221628Y-103687005D02*
X202307342Y-103687005D01*
X202307342Y-103687005D02*
X202364485Y-103715576D01*
X202621627Y-104058434D02*
X202678770Y-104087005D01*
X202678770Y-104087005D02*
X202793056Y-104087005D01*
X202793056Y-104087005D02*
X202850199Y-104058434D01*
X202850199Y-104058434D02*
X202878770Y-104001291D01*
X202878770Y-104001291D02*
X202878770Y-103972719D01*
X202878770Y-103972719D02*
X202850199Y-103915576D01*
X202850199Y-103915576D02*
X202793056Y-103887005D01*
X202793056Y-103887005D02*
X202707342Y-103887005D01*
X202707342Y-103887005D02*
X202650199Y-103858434D01*
X202650199Y-103858434D02*
X202621627Y-103801291D01*
X202621627Y-103801291D02*
X202621627Y-103772719D01*
X202621627Y-103772719D02*
X202650199Y-103715576D01*
X202650199Y-103715576D02*
X202707342Y-103687005D01*
X202707342Y-103687005D02*
X202793056Y-103687005D01*
X202793056Y-103687005D02*
X202850199Y-103715576D01*
X203135913Y-104087005D02*
X203135913Y-103687005D01*
X203135913Y-103487005D02*
X203107341Y-103515576D01*
X203107341Y-103515576D02*
X203135913Y-103544148D01*
X203135913Y-103544148D02*
X203164484Y-103515576D01*
X203164484Y-103515576D02*
X203135913Y-103487005D01*
X203135913Y-103487005D02*
X203135913Y-103544148D01*
X203678770Y-104058434D02*
X203621627Y-104087005D01*
X203621627Y-104087005D02*
X203507341Y-104087005D01*
X203507341Y-104087005D02*
X203450198Y-104058434D01*
X203450198Y-104058434D02*
X203421627Y-104029862D01*
X203421627Y-104029862D02*
X203393055Y-103972719D01*
X203393055Y-103972719D02*
X203393055Y-103801291D01*
X203393055Y-103801291D02*
X203421627Y-103744148D01*
X203421627Y-103744148D02*
X203450198Y-103715576D01*
X203450198Y-103715576D02*
X203507341Y-103687005D01*
X203507341Y-103687005D02*
X203621627Y-103687005D01*
X203621627Y-103687005D02*
X203678770Y-103715576D01*
X204193056Y-104087005D02*
X204193056Y-103772719D01*
X204193056Y-103772719D02*
X204164484Y-103715576D01*
X204164484Y-103715576D02*
X204107341Y-103687005D01*
X204107341Y-103687005D02*
X203993056Y-103687005D01*
X203993056Y-103687005D02*
X203935913Y-103715576D01*
X204193056Y-104058434D02*
X204135913Y-104087005D01*
X204135913Y-104087005D02*
X203993056Y-104087005D01*
X203993056Y-104087005D02*
X203935913Y-104058434D01*
X203935913Y-104058434D02*
X203907341Y-104001291D01*
X203907341Y-104001291D02*
X203907341Y-103944148D01*
X203907341Y-103944148D02*
X203935913Y-103887005D01*
X203935913Y-103887005D02*
X203993056Y-103858434D01*
X203993056Y-103858434D02*
X204135913Y-103858434D01*
X204135913Y-103858434D02*
X204193056Y-103829862D01*
X205221627Y-104087005D02*
X204935913Y-104087005D01*
X204935913Y-104087005D02*
X204935913Y-103487005D01*
X205421627Y-104087005D02*
X205421627Y-103687005D01*
X205421627Y-103487005D02*
X205393055Y-103515576D01*
X205393055Y-103515576D02*
X205421627Y-103544148D01*
X205421627Y-103544148D02*
X205450198Y-103515576D01*
X205450198Y-103515576D02*
X205421627Y-103487005D01*
X205421627Y-103487005D02*
X205421627Y-103544148D01*
X205964484Y-103687005D02*
X205964484Y-104087005D01*
X205707341Y-103687005D02*
X205707341Y-104001291D01*
X205707341Y-104001291D02*
X205735912Y-104058434D01*
X205735912Y-104058434D02*
X205793055Y-104087005D01*
X205793055Y-104087005D02*
X205878769Y-104087005D01*
X205878769Y-104087005D02*
X205935912Y-104058434D01*
X205935912Y-104058434D02*
X205964484Y-104029862D01*
X206278769Y-104058434D02*
X206278769Y-104087005D01*
X206278769Y-104087005D02*
X206250198Y-104144148D01*
X206250198Y-104144148D02*
X206221626Y-104172719D01*
X207335912Y-104029862D02*
X207307340Y-104058434D01*
X207307340Y-104058434D02*
X207221626Y-104087005D01*
X207221626Y-104087005D02*
X207164483Y-104087005D01*
X207164483Y-104087005D02*
X207078769Y-104058434D01*
X207078769Y-104058434D02*
X207021626Y-104001291D01*
X207021626Y-104001291D02*
X206993055Y-103944148D01*
X206993055Y-103944148D02*
X206964483Y-103829862D01*
X206964483Y-103829862D02*
X206964483Y-103744148D01*
X206964483Y-103744148D02*
X206993055Y-103629862D01*
X206993055Y-103629862D02*
X207021626Y-103572719D01*
X207021626Y-103572719D02*
X207078769Y-103515576D01*
X207078769Y-103515576D02*
X207164483Y-103487005D01*
X207164483Y-103487005D02*
X207221626Y-103487005D01*
X207221626Y-103487005D02*
X207307340Y-103515576D01*
X207307340Y-103515576D02*
X207335912Y-103544148D01*
X207850198Y-104087005D02*
X207850198Y-103772719D01*
X207850198Y-103772719D02*
X207821626Y-103715576D01*
X207821626Y-103715576D02*
X207764483Y-103687005D01*
X207764483Y-103687005D02*
X207650198Y-103687005D01*
X207650198Y-103687005D02*
X207593055Y-103715576D01*
X207850198Y-104058434D02*
X207793055Y-104087005D01*
X207793055Y-104087005D02*
X207650198Y-104087005D01*
X207650198Y-104087005D02*
X207593055Y-104058434D01*
X207593055Y-104058434D02*
X207564483Y-104001291D01*
X207564483Y-104001291D02*
X207564483Y-103944148D01*
X207564483Y-103944148D02*
X207593055Y-103887005D01*
X207593055Y-103887005D02*
X207650198Y-103858434D01*
X207650198Y-103858434D02*
X207793055Y-103858434D01*
X207793055Y-103858434D02*
X207850198Y-103829862D01*
X208135912Y-104087005D02*
X208135912Y-103687005D01*
X208135912Y-103744148D02*
X208164483Y-103715576D01*
X208164483Y-103715576D02*
X208221626Y-103687005D01*
X208221626Y-103687005D02*
X208307340Y-103687005D01*
X208307340Y-103687005D02*
X208364483Y-103715576D01*
X208364483Y-103715576D02*
X208393055Y-103772719D01*
X208393055Y-103772719D02*
X208393055Y-104087005D01*
X208393055Y-103772719D02*
X208421626Y-103715576D01*
X208421626Y-103715576D02*
X208478769Y-103687005D01*
X208478769Y-103687005D02*
X208564483Y-103687005D01*
X208564483Y-103687005D02*
X208621626Y-103715576D01*
X208621626Y-103715576D02*
X208650197Y-103772719D01*
X208650197Y-103772719D02*
X208650197Y-104087005D01*
X209164483Y-104058434D02*
X209107340Y-104087005D01*
X209107340Y-104087005D02*
X208993055Y-104087005D01*
X208993055Y-104087005D02*
X208935912Y-104058434D01*
X208935912Y-104058434D02*
X208907340Y-104001291D01*
X208907340Y-104001291D02*
X208907340Y-103772719D01*
X208907340Y-103772719D02*
X208935912Y-103715576D01*
X208935912Y-103715576D02*
X208993055Y-103687005D01*
X208993055Y-103687005D02*
X209107340Y-103687005D01*
X209107340Y-103687005D02*
X209164483Y-103715576D01*
X209164483Y-103715576D02*
X209193055Y-103772719D01*
X209193055Y-103772719D02*
X209193055Y-103829862D01*
X209193055Y-103829862D02*
X208907340Y-103887005D01*
X209450198Y-104087005D02*
X209450198Y-103687005D01*
X209450198Y-103801291D02*
X209478769Y-103744148D01*
X209478769Y-103744148D02*
X209507341Y-103715576D01*
X209507341Y-103715576D02*
X209564483Y-103687005D01*
X209564483Y-103687005D02*
X209621626Y-103687005D01*
X209907341Y-104087005D02*
X209850198Y-104058434D01*
X209850198Y-104058434D02*
X209821627Y-104029862D01*
X209821627Y-104029862D02*
X209793055Y-103972719D01*
X209793055Y-103972719D02*
X209793055Y-103801291D01*
X209793055Y-103801291D02*
X209821627Y-103744148D01*
X209821627Y-103744148D02*
X209850198Y-103715576D01*
X209850198Y-103715576D02*
X209907341Y-103687005D01*
X209907341Y-103687005D02*
X209993055Y-103687005D01*
X209993055Y-103687005D02*
X210050198Y-103715576D01*
X210050198Y-103715576D02*
X210078770Y-103744148D01*
X210078770Y-103744148D02*
X210107341Y-103801291D01*
X210107341Y-103801291D02*
X210107341Y-103972719D01*
X210107341Y-103972719D02*
X210078770Y-104029862D01*
X210078770Y-104029862D02*
X210050198Y-104058434D01*
X210050198Y-104058434D02*
X209993055Y-104087005D01*
X209993055Y-104087005D02*
X209907341Y-104087005D01*
X210364484Y-103687005D02*
X210364484Y-104087005D01*
X210364484Y-103744148D02*
X210393055Y-103715576D01*
X210393055Y-103715576D02*
X210450198Y-103687005D01*
X210450198Y-103687005D02*
X210535912Y-103687005D01*
X210535912Y-103687005D02*
X210593055Y-103715576D01*
X210593055Y-103715576D02*
X210621627Y-103772719D01*
X210621627Y-103772719D02*
X210621627Y-104087005D01*
X211364484Y-104087005D02*
X211364484Y-103487005D01*
X211364484Y-103772719D02*
X211707341Y-103772719D01*
X211707341Y-104087005D02*
X211707341Y-103487005D01*
X212221626Y-104058434D02*
X212164483Y-104087005D01*
X212164483Y-104087005D02*
X212050198Y-104087005D01*
X212050198Y-104087005D02*
X211993055Y-104058434D01*
X211993055Y-104058434D02*
X211964483Y-104001291D01*
X211964483Y-104001291D02*
X211964483Y-103772719D01*
X211964483Y-103772719D02*
X211993055Y-103715576D01*
X211993055Y-103715576D02*
X212050198Y-103687005D01*
X212050198Y-103687005D02*
X212164483Y-103687005D01*
X212164483Y-103687005D02*
X212221626Y-103715576D01*
X212221626Y-103715576D02*
X212250198Y-103772719D01*
X212250198Y-103772719D02*
X212250198Y-103829862D01*
X212250198Y-103829862D02*
X211964483Y-103887005D01*
X212507341Y-104087005D02*
X212507341Y-103687005D01*
X212507341Y-103801291D02*
X212535912Y-103744148D01*
X212535912Y-103744148D02*
X212564484Y-103715576D01*
X212564484Y-103715576D02*
X212621626Y-103687005D01*
X212621626Y-103687005D02*
X212678769Y-103687005D01*
X212878770Y-103687005D02*
X212878770Y-104087005D01*
X212878770Y-103744148D02*
X212907341Y-103715576D01*
X212907341Y-103715576D02*
X212964484Y-103687005D01*
X212964484Y-103687005D02*
X213050198Y-103687005D01*
X213050198Y-103687005D02*
X213107341Y-103715576D01*
X213107341Y-103715576D02*
X213135913Y-103772719D01*
X213135913Y-103772719D02*
X213135913Y-104087005D01*
X213678770Y-104087005D02*
X213678770Y-103772719D01*
X213678770Y-103772719D02*
X213650198Y-103715576D01*
X213650198Y-103715576D02*
X213593055Y-103687005D01*
X213593055Y-103687005D02*
X213478770Y-103687005D01*
X213478770Y-103687005D02*
X213421627Y-103715576D01*
X213678770Y-104058434D02*
X213621627Y-104087005D01*
X213621627Y-104087005D02*
X213478770Y-104087005D01*
X213478770Y-104087005D02*
X213421627Y-104058434D01*
X213421627Y-104058434D02*
X213393055Y-104001291D01*
X213393055Y-104001291D02*
X213393055Y-103944148D01*
X213393055Y-103944148D02*
X213421627Y-103887005D01*
X213421627Y-103887005D02*
X213478770Y-103858434D01*
X213478770Y-103858434D02*
X213621627Y-103858434D01*
X213621627Y-103858434D02*
X213678770Y-103829862D01*
X213964484Y-103687005D02*
X213964484Y-104087005D01*
X213964484Y-103744148D02*
X213993055Y-103715576D01*
X213993055Y-103715576D02*
X214050198Y-103687005D01*
X214050198Y-103687005D02*
X214135912Y-103687005D01*
X214135912Y-103687005D02*
X214193055Y-103715576D01*
X214193055Y-103715576D02*
X214221627Y-103772719D01*
X214221627Y-103772719D02*
X214221627Y-104087005D01*
X214764484Y-104087005D02*
X214764484Y-103487005D01*
X214764484Y-104058434D02*
X214707341Y-104087005D01*
X214707341Y-104087005D02*
X214593055Y-104087005D01*
X214593055Y-104087005D02*
X214535912Y-104058434D01*
X214535912Y-104058434D02*
X214507341Y-104029862D01*
X214507341Y-104029862D02*
X214478769Y-103972719D01*
X214478769Y-103972719D02*
X214478769Y-103801291D01*
X214478769Y-103801291D02*
X214507341Y-103744148D01*
X214507341Y-103744148D02*
X214535912Y-103715576D01*
X214535912Y-103715576D02*
X214593055Y-103687005D01*
X214593055Y-103687005D02*
X214707341Y-103687005D01*
X214707341Y-103687005D02*
X214764484Y-103715576D01*
X215278769Y-104058434D02*
X215221626Y-104087005D01*
X215221626Y-104087005D02*
X215107341Y-104087005D01*
X215107341Y-104087005D02*
X215050198Y-104058434D01*
X215050198Y-104058434D02*
X215021626Y-104001291D01*
X215021626Y-104001291D02*
X215021626Y-103772719D01*
X215021626Y-103772719D02*
X215050198Y-103715576D01*
X215050198Y-103715576D02*
X215107341Y-103687005D01*
X215107341Y-103687005D02*
X215221626Y-103687005D01*
X215221626Y-103687005D02*
X215278769Y-103715576D01*
X215278769Y-103715576D02*
X215307341Y-103772719D01*
X215307341Y-103772719D02*
X215307341Y-103829862D01*
X215307341Y-103829862D02*
X215021626Y-103887005D01*
X215507341Y-103687005D02*
X215821627Y-103687005D01*
X215821627Y-103687005D02*
X215507341Y-104087005D01*
X215507341Y-104087005D02*
X215821627Y-104087005D01*
X216078769Y-104058434D02*
X216078769Y-104087005D01*
X216078769Y-104087005D02*
X216050198Y-104144148D01*
X216050198Y-104144148D02*
X216021626Y-104172719D01*
X197164483Y-105052971D02*
X197164483Y-104452971D01*
X197421625Y-105024400D02*
X197478768Y-105052971D01*
X197478768Y-105052971D02*
X197593054Y-105052971D01*
X197593054Y-105052971D02*
X197650197Y-105024400D01*
X197650197Y-105024400D02*
X197678768Y-104967257D01*
X197678768Y-104967257D02*
X197678768Y-104938685D01*
X197678768Y-104938685D02*
X197650197Y-104881542D01*
X197650197Y-104881542D02*
X197593054Y-104852971D01*
X197593054Y-104852971D02*
X197507340Y-104852971D01*
X197507340Y-104852971D02*
X197450197Y-104824400D01*
X197450197Y-104824400D02*
X197421625Y-104767257D01*
X197421625Y-104767257D02*
X197421625Y-104738685D01*
X197421625Y-104738685D02*
X197450197Y-104681542D01*
X197450197Y-104681542D02*
X197507340Y-104652971D01*
X197507340Y-104652971D02*
X197593054Y-104652971D01*
X197593054Y-104652971D02*
X197650197Y-104681542D01*
X198193054Y-105052971D02*
X198193054Y-104738685D01*
X198193054Y-104738685D02*
X198164482Y-104681542D01*
X198164482Y-104681542D02*
X198107339Y-104652971D01*
X198107339Y-104652971D02*
X197993054Y-104652971D01*
X197993054Y-104652971D02*
X197935911Y-104681542D01*
X198193054Y-105024400D02*
X198135911Y-105052971D01*
X198135911Y-105052971D02*
X197993054Y-105052971D01*
X197993054Y-105052971D02*
X197935911Y-105024400D01*
X197935911Y-105024400D02*
X197907339Y-104967257D01*
X197907339Y-104967257D02*
X197907339Y-104910114D01*
X197907339Y-104910114D02*
X197935911Y-104852971D01*
X197935911Y-104852971D02*
X197993054Y-104824400D01*
X197993054Y-104824400D02*
X198135911Y-104824400D01*
X198135911Y-104824400D02*
X198193054Y-104795828D01*
X198478768Y-105052971D02*
X198478768Y-104452971D01*
X198478768Y-104681542D02*
X198535911Y-104652971D01*
X198535911Y-104652971D02*
X198650196Y-104652971D01*
X198650196Y-104652971D02*
X198707339Y-104681542D01*
X198707339Y-104681542D02*
X198735911Y-104710114D01*
X198735911Y-104710114D02*
X198764482Y-104767257D01*
X198764482Y-104767257D02*
X198764482Y-104938685D01*
X198764482Y-104938685D02*
X198735911Y-104995828D01*
X198735911Y-104995828D02*
X198707339Y-105024400D01*
X198707339Y-105024400D02*
X198650196Y-105052971D01*
X198650196Y-105052971D02*
X198535911Y-105052971D01*
X198535911Y-105052971D02*
X198478768Y-105024400D01*
X199250196Y-105024400D02*
X199193053Y-105052971D01*
X199193053Y-105052971D02*
X199078768Y-105052971D01*
X199078768Y-105052971D02*
X199021625Y-105024400D01*
X199021625Y-105024400D02*
X198993053Y-104967257D01*
X198993053Y-104967257D02*
X198993053Y-104738685D01*
X198993053Y-104738685D02*
X199021625Y-104681542D01*
X199021625Y-104681542D02*
X199078768Y-104652971D01*
X199078768Y-104652971D02*
X199193053Y-104652971D01*
X199193053Y-104652971D02*
X199250196Y-104681542D01*
X199250196Y-104681542D02*
X199278768Y-104738685D01*
X199278768Y-104738685D02*
X199278768Y-104795828D01*
X199278768Y-104795828D02*
X198993053Y-104852971D01*
X199621625Y-105052971D02*
X199564482Y-105024400D01*
X199564482Y-105024400D02*
X199535911Y-104967257D01*
X199535911Y-104967257D02*
X199535911Y-104452971D01*
X199935911Y-105052971D02*
X199878768Y-105024400D01*
X199878768Y-105024400D02*
X199850197Y-104967257D01*
X199850197Y-104967257D02*
X199850197Y-104452971D01*
X200421626Y-105052971D02*
X200421626Y-104738685D01*
X200421626Y-104738685D02*
X200393054Y-104681542D01*
X200393054Y-104681542D02*
X200335911Y-104652971D01*
X200335911Y-104652971D02*
X200221626Y-104652971D01*
X200221626Y-104652971D02*
X200164483Y-104681542D01*
X200421626Y-105024400D02*
X200364483Y-105052971D01*
X200364483Y-105052971D02*
X200221626Y-105052971D01*
X200221626Y-105052971D02*
X200164483Y-105024400D01*
X200164483Y-105024400D02*
X200135911Y-104967257D01*
X200135911Y-104967257D02*
X200135911Y-104910114D01*
X200135911Y-104910114D02*
X200164483Y-104852971D01*
X200164483Y-104852971D02*
X200221626Y-104824400D01*
X200221626Y-104824400D02*
X200364483Y-104824400D01*
X200364483Y-104824400D02*
X200421626Y-104795828D01*
X201164483Y-105052971D02*
X201164483Y-104452971D01*
X201164483Y-104738685D02*
X201507340Y-104738685D01*
X201507340Y-105052971D02*
X201507340Y-104452971D01*
X201878768Y-105052971D02*
X201821625Y-105024400D01*
X201821625Y-105024400D02*
X201793054Y-104995828D01*
X201793054Y-104995828D02*
X201764482Y-104938685D01*
X201764482Y-104938685D02*
X201764482Y-104767257D01*
X201764482Y-104767257D02*
X201793054Y-104710114D01*
X201793054Y-104710114D02*
X201821625Y-104681542D01*
X201821625Y-104681542D02*
X201878768Y-104652971D01*
X201878768Y-104652971D02*
X201964482Y-104652971D01*
X201964482Y-104652971D02*
X202021625Y-104681542D01*
X202021625Y-104681542D02*
X202050197Y-104710114D01*
X202050197Y-104710114D02*
X202078768Y-104767257D01*
X202078768Y-104767257D02*
X202078768Y-104938685D01*
X202078768Y-104938685D02*
X202050197Y-104995828D01*
X202050197Y-104995828D02*
X202021625Y-105024400D01*
X202021625Y-105024400D02*
X201964482Y-105052971D01*
X201964482Y-105052971D02*
X201878768Y-105052971D01*
X202250196Y-104652971D02*
X202478768Y-104652971D01*
X202335911Y-104452971D02*
X202335911Y-104967257D01*
X202335911Y-104967257D02*
X202364482Y-105024400D01*
X202364482Y-105024400D02*
X202421625Y-105052971D01*
X202421625Y-105052971D02*
X202478768Y-105052971D01*
X202593053Y-104652971D02*
X202821625Y-104652971D01*
X202678768Y-104452971D02*
X202678768Y-104967257D01*
X202678768Y-104967257D02*
X202707339Y-105024400D01*
X202707339Y-105024400D02*
X202764482Y-105052971D01*
X202764482Y-105052971D02*
X202821625Y-105052971D01*
X203250196Y-105024400D02*
X203193053Y-105052971D01*
X203193053Y-105052971D02*
X203078768Y-105052971D01*
X203078768Y-105052971D02*
X203021625Y-105024400D01*
X203021625Y-105024400D02*
X202993053Y-104967257D01*
X202993053Y-104967257D02*
X202993053Y-104738685D01*
X202993053Y-104738685D02*
X203021625Y-104681542D01*
X203021625Y-104681542D02*
X203078768Y-104652971D01*
X203078768Y-104652971D02*
X203193053Y-104652971D01*
X203193053Y-104652971D02*
X203250196Y-104681542D01*
X203250196Y-104681542D02*
X203278768Y-104738685D01*
X203278768Y-104738685D02*
X203278768Y-104795828D01*
X203278768Y-104795828D02*
X202993053Y-104852971D01*
X203535911Y-104652971D02*
X203535911Y-105052971D01*
X203535911Y-104710114D02*
X203564482Y-104681542D01*
X203564482Y-104681542D02*
X203621625Y-104652971D01*
X203621625Y-104652971D02*
X203707339Y-104652971D01*
X203707339Y-104652971D02*
X203764482Y-104681542D01*
X203764482Y-104681542D02*
X203793054Y-104738685D01*
X203793054Y-104738685D02*
X203793054Y-105052971D01*
X204078768Y-105052971D02*
X204078768Y-104652971D01*
X204078768Y-104767257D02*
X204107339Y-104710114D01*
X204107339Y-104710114D02*
X204135911Y-104681542D01*
X204135911Y-104681542D02*
X204193053Y-104652971D01*
X204193053Y-104652971D02*
X204250196Y-104652971D01*
X204535911Y-105052971D02*
X204478768Y-105024400D01*
X204478768Y-105024400D02*
X204450197Y-104995828D01*
X204450197Y-104995828D02*
X204421625Y-104938685D01*
X204421625Y-104938685D02*
X204421625Y-104767257D01*
X204421625Y-104767257D02*
X204450197Y-104710114D01*
X204450197Y-104710114D02*
X204478768Y-104681542D01*
X204478768Y-104681542D02*
X204535911Y-104652971D01*
X204535911Y-104652971D02*
X204621625Y-104652971D01*
X204621625Y-104652971D02*
X204678768Y-104681542D01*
X204678768Y-104681542D02*
X204707340Y-104710114D01*
X204707340Y-104710114D02*
X204735911Y-104767257D01*
X204735911Y-104767257D02*
X204735911Y-104938685D01*
X204735911Y-104938685D02*
X204707340Y-104995828D01*
X204707340Y-104995828D02*
X204678768Y-105024400D01*
X204678768Y-105024400D02*
X204621625Y-105052971D01*
X204621625Y-105052971D02*
X204535911Y-105052971D01*
X204907339Y-104652971D02*
X205135911Y-104652971D01*
X204993054Y-104452971D02*
X204993054Y-104967257D01*
X204993054Y-104967257D02*
X205021625Y-105024400D01*
X205021625Y-105024400D02*
X205078768Y-105052971D01*
X205078768Y-105052971D02*
X205135911Y-105052971D01*
X205250196Y-104652971D02*
X205478768Y-104652971D01*
X205335911Y-104452971D02*
X205335911Y-104967257D01*
X205335911Y-104967257D02*
X205364482Y-105024400D01*
X205364482Y-105024400D02*
X205421625Y-105052971D01*
X205421625Y-105052971D02*
X205478768Y-105052971D01*
X205707339Y-105024400D02*
X205707339Y-105052971D01*
X205707339Y-105052971D02*
X205678768Y-105110114D01*
X205678768Y-105110114D02*
X205650196Y-105138685D01*
X206707339Y-105052971D02*
X206421625Y-105052971D01*
X206421625Y-105052971D02*
X206421625Y-104452971D01*
X207164482Y-104652971D02*
X207164482Y-105052971D01*
X206907339Y-104652971D02*
X206907339Y-104967257D01*
X206907339Y-104967257D02*
X206935910Y-105024400D01*
X206935910Y-105024400D02*
X206993053Y-105052971D01*
X206993053Y-105052971D02*
X207078767Y-105052971D01*
X207078767Y-105052971D02*
X207135910Y-105024400D01*
X207135910Y-105024400D02*
X207164482Y-104995828D01*
X207707339Y-105024400D02*
X207650196Y-105052971D01*
X207650196Y-105052971D02*
X207535910Y-105052971D01*
X207535910Y-105052971D02*
X207478767Y-105024400D01*
X207478767Y-105024400D02*
X207450196Y-104995828D01*
X207450196Y-104995828D02*
X207421624Y-104938685D01*
X207421624Y-104938685D02*
X207421624Y-104767257D01*
X207421624Y-104767257D02*
X207450196Y-104710114D01*
X207450196Y-104710114D02*
X207478767Y-104681542D01*
X207478767Y-104681542D02*
X207535910Y-104652971D01*
X207535910Y-104652971D02*
X207650196Y-104652971D01*
X207650196Y-104652971D02*
X207707339Y-104681542D01*
X208221625Y-105052971D02*
X208221625Y-104738685D01*
X208221625Y-104738685D02*
X208193053Y-104681542D01*
X208193053Y-104681542D02*
X208135910Y-104652971D01*
X208135910Y-104652971D02*
X208021625Y-104652971D01*
X208021625Y-104652971D02*
X207964482Y-104681542D01*
X208221625Y-105024400D02*
X208164482Y-105052971D01*
X208164482Y-105052971D02*
X208021625Y-105052971D01*
X208021625Y-105052971D02*
X207964482Y-105024400D01*
X207964482Y-105024400D02*
X207935910Y-104967257D01*
X207935910Y-104967257D02*
X207935910Y-104910114D01*
X207935910Y-104910114D02*
X207964482Y-104852971D01*
X207964482Y-104852971D02*
X208021625Y-104824400D01*
X208021625Y-104824400D02*
X208164482Y-104824400D01*
X208164482Y-104824400D02*
X208221625Y-104795828D01*
X208478767Y-105024400D02*
X208535910Y-105052971D01*
X208535910Y-105052971D02*
X208650196Y-105052971D01*
X208650196Y-105052971D02*
X208707339Y-105024400D01*
X208707339Y-105024400D02*
X208735910Y-104967257D01*
X208735910Y-104967257D02*
X208735910Y-104938685D01*
X208735910Y-104938685D02*
X208707339Y-104881542D01*
X208707339Y-104881542D02*
X208650196Y-104852971D01*
X208650196Y-104852971D02*
X208564482Y-104852971D01*
X208564482Y-104852971D02*
X208507339Y-104824400D01*
X208507339Y-104824400D02*
X208478767Y-104767257D01*
X208478767Y-104767257D02*
X208478767Y-104738685D01*
X208478767Y-104738685D02*
X208507339Y-104681542D01*
X208507339Y-104681542D02*
X208564482Y-104652971D01*
X208564482Y-104652971D02*
X208650196Y-104652971D01*
X208650196Y-104652971D02*
X208707339Y-104681542D01*
X209735910Y-105052971D02*
X209450196Y-105052971D01*
X209450196Y-105052971D02*
X209450196Y-104452971D01*
X210164481Y-105024400D02*
X210107338Y-105052971D01*
X210107338Y-105052971D02*
X209993053Y-105052971D01*
X209993053Y-105052971D02*
X209935910Y-105024400D01*
X209935910Y-105024400D02*
X209907338Y-104967257D01*
X209907338Y-104967257D02*
X209907338Y-104738685D01*
X209907338Y-104738685D02*
X209935910Y-104681542D01*
X209935910Y-104681542D02*
X209993053Y-104652971D01*
X209993053Y-104652971D02*
X210107338Y-104652971D01*
X210107338Y-104652971D02*
X210164481Y-104681542D01*
X210164481Y-104681542D02*
X210193053Y-104738685D01*
X210193053Y-104738685D02*
X210193053Y-104795828D01*
X210193053Y-104795828D02*
X209907338Y-104852971D01*
X210450196Y-105052971D02*
X210450196Y-104652971D01*
X210450196Y-104710114D02*
X210478767Y-104681542D01*
X210478767Y-104681542D02*
X210535910Y-104652971D01*
X210535910Y-104652971D02*
X210621624Y-104652971D01*
X210621624Y-104652971D02*
X210678767Y-104681542D01*
X210678767Y-104681542D02*
X210707339Y-104738685D01*
X210707339Y-104738685D02*
X210707339Y-105052971D01*
X210707339Y-104738685D02*
X210735910Y-104681542D01*
X210735910Y-104681542D02*
X210793053Y-104652971D01*
X210793053Y-104652971D02*
X210878767Y-104652971D01*
X210878767Y-104652971D02*
X210935910Y-104681542D01*
X210935910Y-104681542D02*
X210964481Y-104738685D01*
X210964481Y-104738685D02*
X210964481Y-105052971D01*
X211335910Y-105052971D02*
X211278767Y-105024400D01*
X211278767Y-105024400D02*
X211250196Y-104995828D01*
X211250196Y-104995828D02*
X211221624Y-104938685D01*
X211221624Y-104938685D02*
X211221624Y-104767257D01*
X211221624Y-104767257D02*
X211250196Y-104710114D01*
X211250196Y-104710114D02*
X211278767Y-104681542D01*
X211278767Y-104681542D02*
X211335910Y-104652971D01*
X211335910Y-104652971D02*
X211421624Y-104652971D01*
X211421624Y-104652971D02*
X211478767Y-104681542D01*
X211478767Y-104681542D02*
X211507339Y-104710114D01*
X211507339Y-104710114D02*
X211535910Y-104767257D01*
X211535910Y-104767257D02*
X211535910Y-104938685D01*
X211535910Y-104938685D02*
X211507339Y-104995828D01*
X211507339Y-104995828D02*
X211478767Y-105024400D01*
X211478767Y-105024400D02*
X211421624Y-105052971D01*
X211421624Y-105052971D02*
X211335910Y-105052971D01*
X211764481Y-105024400D02*
X211821624Y-105052971D01*
X211821624Y-105052971D02*
X211935910Y-105052971D01*
X211935910Y-105052971D02*
X211993053Y-105024400D01*
X211993053Y-105024400D02*
X212021624Y-104967257D01*
X212021624Y-104967257D02*
X212021624Y-104938685D01*
X212021624Y-104938685D02*
X211993053Y-104881542D01*
X211993053Y-104881542D02*
X211935910Y-104852971D01*
X211935910Y-104852971D02*
X211850196Y-104852971D01*
X211850196Y-104852971D02*
X211793053Y-104824400D01*
X211793053Y-104824400D02*
X211764481Y-104767257D01*
X211764481Y-104767257D02*
X211764481Y-104738685D01*
X211764481Y-104738685D02*
X211793053Y-104681542D01*
X211793053Y-104681542D02*
X211850196Y-104652971D01*
X211850196Y-104652971D02*
X211935910Y-104652971D01*
X211935910Y-104652971D02*
X211993053Y-104681542D01*
D12*
X310314999Y-102645000D03*
X312315000Y-102645000D03*
X284914999Y-102645000D03*
X286915000Y-102645000D03*
X259514999Y-102645000D03*
X261515000Y-102645000D03*
X234114999Y-102645000D03*
X236115000Y-102645000D03*
X183314999Y-102645000D03*
X185315000Y-102645000D03*
X132514999Y-102645000D03*
X134515000Y-102645000D03*
X107114999Y-102645000D03*
X109115000Y-102645000D03*
D13*
X258600000Y-93610000D03*
X258600000Y-97710000D03*
D14*
X260650000Y-95660000D03*
D13*
X262700000Y-93610000D03*
X262700000Y-97710000D03*
X182630000Y-93610000D03*
X182630000Y-97710000D03*
D14*
X184680000Y-95660000D03*
D13*
X186730000Y-93610000D03*
X186730000Y-97710000D03*
X131830000Y-93610000D03*
X131830000Y-97710000D03*
D14*
X133880000Y-95660000D03*
D13*
X135930000Y-93610000D03*
X135930000Y-97710000D03*
X284230000Y-93610000D03*
X284230000Y-97710000D03*
D14*
X286280000Y-95660000D03*
D13*
X288330000Y-93610000D03*
X288330000Y-97710000D03*
X309630000Y-93610000D03*
X309630000Y-97710000D03*
D14*
X311680000Y-95660000D03*
D13*
X313730000Y-93610000D03*
X313730000Y-97710000D03*
X157230000Y-93610000D03*
X157230000Y-97710000D03*
D14*
X159280000Y-95660000D03*
D13*
X161330000Y-93610000D03*
X161330000Y-97710000D03*
X106430000Y-93610000D03*
X106430000Y-97710000D03*
D14*
X108480000Y-95660000D03*
D13*
X110530000Y-93610000D03*
X110530000Y-97710000D03*
X233430000Y-93610000D03*
X233430000Y-97710000D03*
D14*
X235480000Y-95660000D03*
D13*
X237530000Y-93610000D03*
X237530000Y-97710000D03*
D15*
X95373600Y-88217800D03*
D16*
X95373600Y-103457800D03*
D15*
X146072000Y-88167000D03*
D16*
X146072000Y-103407000D03*
D15*
X273199000Y-88167000D03*
D16*
X273199000Y-103407000D03*
D15*
X120672000Y-88167000D03*
D16*
X120672000Y-103407000D03*
D15*
X222322800Y-88268600D03*
D16*
X222322800Y-103508600D03*
D15*
X298472000Y-88167000D03*
D16*
X298472000Y-103407000D03*
D15*
X171319600Y-88268600D03*
D16*
X171319600Y-103508600D03*
D15*
X247468800Y-88268600D03*
D16*
X247468800Y-103508600D03*
D12*
X157914999Y-102645000D03*
X159915000Y-102645000D03*
D17*
X128901600Y-93348600D03*
X103984200Y-93170800D03*
X281733400Y-93475600D03*
X180514400Y-94034400D03*
X231212800Y-93323200D03*
X256333400Y-93323200D03*
X154377800Y-93323200D03*
X307235000Y-93145400D03*
D18*
X180514400Y-94034400D02*
X180640000Y-94160000D01*
X299020600Y-103407000D02*
X298472000Y-103407000D01*
G04 #@! TA.AperFunction,Conductor*
G36*
X344142539Y-31340185D02*
G01*
X344188294Y-31392989D01*
X344199500Y-31444500D01*
X344199500Y-105195500D01*
X344179815Y-105262539D01*
X344127011Y-105308294D01*
X344075500Y-105319500D01*
X216784125Y-105319500D01*
X216717086Y-105299815D01*
X216671331Y-105247011D01*
X216660125Y-105195500D01*
X216660125Y-103508597D01*
X221093723Y-103508597D01*
X221093723Y-103508602D01*
X221112395Y-103722025D01*
X221112395Y-103722029D01*
X221167842Y-103928961D01*
X221167844Y-103928965D01*
X221167845Y-103928969D01*
X221211011Y-104021538D01*
X221258387Y-104123138D01*
X221258388Y-104123139D01*
X221381272Y-104298635D01*
X221532765Y-104450128D01*
X221708261Y-104573012D01*
X221902431Y-104663555D01*
X222109373Y-104719005D01*
X222288458Y-104734672D01*
X222322798Y-104737677D01*
X222322800Y-104737677D01*
X222322802Y-104737677D01*
X222350464Y-104735256D01*
X222536227Y-104719005D01*
X222743169Y-104663555D01*
X222937339Y-104573012D01*
X223112835Y-104450128D01*
X223264328Y-104298635D01*
X223387212Y-104123139D01*
X223477755Y-103928969D01*
X223533205Y-103722027D01*
X223551877Y-103508600D01*
X223533205Y-103295173D01*
X223477755Y-103088231D01*
X223387212Y-102894062D01*
X223351640Y-102843260D01*
X223264329Y-102718566D01*
X223190762Y-102644999D01*
X232949126Y-102644999D01*
X232949126Y-102645000D01*
X232968976Y-102859228D01*
X233027854Y-103066159D01*
X233027859Y-103066172D01*
X233123750Y-103258746D01*
X233123752Y-103258749D01*
X233123754Y-103258753D01*
X233123757Y-103258757D01*
X233123759Y-103258760D01*
X233172380Y-103323145D01*
X233253408Y-103430444D01*
X233253411Y-103430446D01*
X233253413Y-103430449D01*
X233412401Y-103575385D01*
X233412403Y-103575386D01*
X233412404Y-103575387D01*
X233595325Y-103688647D01*
X233795943Y-103766367D01*
X234007426Y-103805900D01*
X234007428Y-103805900D01*
X234222570Y-103805900D01*
X234222572Y-103805900D01*
X234434055Y-103766367D01*
X234634673Y-103688647D01*
X234817594Y-103575387D01*
X234976590Y-103430444D01*
X235057620Y-103323141D01*
X235113725Y-103281509D01*
X235126803Y-103279642D01*
X235708600Y-102697845D01*
X235708600Y-102698504D01*
X235736295Y-102801865D01*
X235789799Y-102894536D01*
X235865464Y-102970201D01*
X235958135Y-103023705D01*
X236061496Y-103051400D01*
X236062153Y-103051400D01*
X235490437Y-103623114D01*
X235595551Y-103688197D01*
X235796083Y-103765883D01*
X236007475Y-103805400D01*
X236222525Y-103805400D01*
X236433916Y-103765883D01*
X236433926Y-103765880D01*
X236634450Y-103688197D01*
X236634452Y-103688196D01*
X236739561Y-103623114D01*
X236625044Y-103508597D01*
X246239723Y-103508597D01*
X246239723Y-103508602D01*
X246258395Y-103722025D01*
X246258395Y-103722029D01*
X246313842Y-103928961D01*
X246313844Y-103928965D01*
X246313845Y-103928969D01*
X246357011Y-104021538D01*
X246404387Y-104123138D01*
X246404388Y-104123139D01*
X246527272Y-104298635D01*
X246678765Y-104450128D01*
X246854261Y-104573012D01*
X247048431Y-104663555D01*
X247255373Y-104719005D01*
X247434458Y-104734672D01*
X247468798Y-104737677D01*
X247468800Y-104737677D01*
X247468802Y-104737677D01*
X247496464Y-104735256D01*
X247682227Y-104719005D01*
X247889169Y-104663555D01*
X248083339Y-104573012D01*
X248258835Y-104450128D01*
X248410328Y-104298635D01*
X248533212Y-104123139D01*
X248623755Y-103928969D01*
X248679205Y-103722027D01*
X248697877Y-103508600D01*
X248679205Y-103295173D01*
X248623755Y-103088231D01*
X248533212Y-102894062D01*
X248497640Y-102843260D01*
X248410329Y-102718566D01*
X248336762Y-102644999D01*
X258349126Y-102644999D01*
X258349126Y-102645000D01*
X258368976Y-102859228D01*
X258427854Y-103066159D01*
X258427859Y-103066172D01*
X258523750Y-103258746D01*
X258523752Y-103258749D01*
X258523754Y-103258753D01*
X258523757Y-103258757D01*
X258523759Y-103258760D01*
X258572380Y-103323145D01*
X258653408Y-103430444D01*
X258653411Y-103430446D01*
X258653413Y-103430449D01*
X258812401Y-103575385D01*
X258812403Y-103575386D01*
X258812404Y-103575387D01*
X258995325Y-103688647D01*
X259195943Y-103766367D01*
X259407426Y-103805900D01*
X259407428Y-103805900D01*
X259622570Y-103805900D01*
X259622572Y-103805900D01*
X259834055Y-103766367D01*
X260034673Y-103688647D01*
X260217594Y-103575387D01*
X260376590Y-103430444D01*
X260457620Y-103323141D01*
X260513725Y-103281509D01*
X260526803Y-103279642D01*
X261108600Y-102697845D01*
X261108600Y-102698504D01*
X261136295Y-102801865D01*
X261189799Y-102894536D01*
X261265464Y-102970201D01*
X261358135Y-103023705D01*
X261461496Y-103051400D01*
X261462153Y-103051400D01*
X260890437Y-103623114D01*
X260995551Y-103688197D01*
X261196083Y-103765883D01*
X261407475Y-103805400D01*
X261622525Y-103805400D01*
X261833916Y-103765883D01*
X261833926Y-103765880D01*
X262034450Y-103688197D01*
X262034452Y-103688196D01*
X262139561Y-103623114D01*
X261923447Y-103407000D01*
X271969923Y-103407000D01*
X271984654Y-103575385D01*
X271988595Y-103620425D01*
X271988595Y-103620429D01*
X272044042Y-103827361D01*
X272044044Y-103827365D01*
X272044045Y-103827369D01*
X272067734Y-103878170D01*
X272134587Y-104021538D01*
X272134588Y-104021539D01*
X272257472Y-104197035D01*
X272408965Y-104348528D01*
X272584461Y-104471412D01*
X272778631Y-104561955D01*
X272985573Y-104617405D01*
X273164658Y-104633072D01*
X273198998Y-104636077D01*
X273199000Y-104636077D01*
X273199002Y-104636077D01*
X273226664Y-104633656D01*
X273412427Y-104617405D01*
X273619369Y-104561955D01*
X273813539Y-104471412D01*
X273989035Y-104348528D01*
X274140528Y-104197035D01*
X274263412Y-104021539D01*
X274353955Y-103827369D01*
X274409405Y-103620427D01*
X274428077Y-103407000D01*
X274409405Y-103193573D01*
X274363889Y-103023705D01*
X274353957Y-102986638D01*
X274353956Y-102986637D01*
X274353955Y-102986631D01*
X274263412Y-102792462D01*
X274211667Y-102718563D01*
X274160158Y-102644999D01*
X283749126Y-102644999D01*
X283749126Y-102645000D01*
X283768976Y-102859228D01*
X283827854Y-103066159D01*
X283827859Y-103066172D01*
X283923750Y-103258746D01*
X283923752Y-103258749D01*
X283923754Y-103258753D01*
X283923757Y-103258757D01*
X283923759Y-103258760D01*
X283972380Y-103323145D01*
X284053408Y-103430444D01*
X284053411Y-103430446D01*
X284053413Y-103430449D01*
X284212401Y-103575385D01*
X284212403Y-103575386D01*
X284212404Y-103575387D01*
X284395325Y-103688647D01*
X284595943Y-103766367D01*
X284807426Y-103805900D01*
X284807428Y-103805900D01*
X285022570Y-103805900D01*
X285022572Y-103805900D01*
X285234055Y-103766367D01*
X285434673Y-103688647D01*
X285617594Y-103575387D01*
X285776590Y-103430444D01*
X285857620Y-103323141D01*
X285913725Y-103281509D01*
X285926803Y-103279642D01*
X286508600Y-102697845D01*
X286508600Y-102698504D01*
X286536295Y-102801865D01*
X286589799Y-102894536D01*
X286665464Y-102970201D01*
X286758135Y-103023705D01*
X286861496Y-103051400D01*
X286862153Y-103051400D01*
X286290437Y-103623114D01*
X286395551Y-103688197D01*
X286596083Y-103765883D01*
X286807475Y-103805400D01*
X287022525Y-103805400D01*
X287233916Y-103765883D01*
X287233926Y-103765880D01*
X287434450Y-103688197D01*
X287434452Y-103688196D01*
X287539561Y-103623114D01*
X287323447Y-103407000D01*
X297242923Y-103407000D01*
X297257654Y-103575385D01*
X297261595Y-103620425D01*
X297261595Y-103620429D01*
X297317042Y-103827361D01*
X297317044Y-103827365D01*
X297317045Y-103827369D01*
X297340734Y-103878170D01*
X297407587Y-104021538D01*
X297407588Y-104021539D01*
X297530472Y-104197035D01*
X297681965Y-104348528D01*
X297857461Y-104471412D01*
X298051631Y-104561955D01*
X298258573Y-104617405D01*
X298437658Y-104633072D01*
X298471998Y-104636077D01*
X298472000Y-104636077D01*
X298472002Y-104636077D01*
X298499664Y-104633656D01*
X298685427Y-104617405D01*
X298892369Y-104561955D01*
X299086539Y-104471412D01*
X299262035Y-104348528D01*
X299413528Y-104197035D01*
X299536412Y-104021539D01*
X299626955Y-103827369D01*
X299682405Y-103620427D01*
X299701077Y-103407000D01*
X299682405Y-103193573D01*
X299636889Y-103023705D01*
X299626957Y-102986638D01*
X299626956Y-102986637D01*
X299626955Y-102986631D01*
X299536412Y-102792462D01*
X299484667Y-102718563D01*
X299433158Y-102644999D01*
X309149126Y-102644999D01*
X309149126Y-102645000D01*
X309168976Y-102859228D01*
X309227854Y-103066159D01*
X309227859Y-103066172D01*
X309323750Y-103258746D01*
X309323752Y-103258749D01*
X309323754Y-103258753D01*
X309323757Y-103258757D01*
X309323759Y-103258760D01*
X309372380Y-103323145D01*
X309453408Y-103430444D01*
X309453411Y-103430446D01*
X309453413Y-103430449D01*
X309612401Y-103575385D01*
X309612403Y-103575386D01*
X309612404Y-103575387D01*
X309795325Y-103688647D01*
X309995943Y-103766367D01*
X310207426Y-103805900D01*
X310207428Y-103805900D01*
X310422570Y-103805900D01*
X310422572Y-103805900D01*
X310634055Y-103766367D01*
X310834673Y-103688647D01*
X311017594Y-103575387D01*
X311176590Y-103430444D01*
X311257620Y-103323141D01*
X311313725Y-103281509D01*
X311326803Y-103279642D01*
X311908600Y-102697845D01*
X311908600Y-102698504D01*
X311936295Y-102801865D01*
X311989799Y-102894536D01*
X312065464Y-102970201D01*
X312158135Y-103023705D01*
X312261496Y-103051400D01*
X312262153Y-103051400D01*
X311690437Y-103623114D01*
X311795551Y-103688197D01*
X311996083Y-103765883D01*
X312207475Y-103805400D01*
X312422525Y-103805400D01*
X312633916Y-103765883D01*
X312633926Y-103765880D01*
X312834450Y-103688197D01*
X312834452Y-103688196D01*
X312939561Y-103623114D01*
X312367848Y-103051400D01*
X312368504Y-103051400D01*
X312471865Y-103023705D01*
X312564536Y-102970201D01*
X312640201Y-102894536D01*
X312693705Y-102801865D01*
X312721400Y-102698504D01*
X312721400Y-102697847D01*
X313295588Y-103272035D01*
X313305816Y-103258491D01*
X313401674Y-103065984D01*
X313460528Y-102859131D01*
X313480370Y-102645000D01*
X313460528Y-102430868D01*
X313401674Y-102224015D01*
X313305821Y-102031517D01*
X313305813Y-102031504D01*
X313295587Y-102017963D01*
X312721400Y-102592151D01*
X312721400Y-102591496D01*
X312693705Y-102488135D01*
X312640201Y-102395464D01*
X312564536Y-102319799D01*
X312471865Y-102266295D01*
X312368504Y-102238600D01*
X312367847Y-102238600D01*
X312939561Y-101666884D01*
X312939560Y-101666883D01*
X312834454Y-101601804D01*
X312834448Y-101601802D01*
X312633916Y-101524116D01*
X312422525Y-101484600D01*
X312207475Y-101484600D01*
X311996083Y-101524116D01*
X311996082Y-101524116D01*
X311795552Y-101601801D01*
X311690437Y-101666884D01*
X312262154Y-102238600D01*
X312261496Y-102238600D01*
X312158135Y-102266295D01*
X312065464Y-102319799D01*
X311989799Y-102395464D01*
X311936295Y-102488135D01*
X311908600Y-102591496D01*
X311908600Y-102592153D01*
X311323015Y-102006568D01*
X311296914Y-102000833D01*
X311257616Y-101966853D01*
X311236707Y-101939165D01*
X311176590Y-101859556D01*
X311176587Y-101859553D01*
X311176584Y-101859550D01*
X311017596Y-101714614D01*
X310940507Y-101666883D01*
X310834673Y-101601353D01*
X310634055Y-101523633D01*
X310422572Y-101484100D01*
X310207426Y-101484100D01*
X309995943Y-101523633D01*
X309869074Y-101572782D01*
X309795327Y-101601352D01*
X309795326Y-101601352D01*
X309612401Y-101714614D01*
X309453413Y-101859550D01*
X309453406Y-101859558D01*
X309323759Y-102031239D01*
X309323750Y-102031253D01*
X309227859Y-102223827D01*
X309227854Y-102223840D01*
X309168976Y-102430771D01*
X309149126Y-102644999D01*
X299433158Y-102644999D01*
X299413529Y-102616966D01*
X299363635Y-102567072D01*
X299262035Y-102465472D01*
X299127015Y-102370930D01*
X299086538Y-102342587D01*
X298976865Y-102291446D01*
X298892369Y-102252045D01*
X298892365Y-102252044D01*
X298892361Y-102252042D01*
X298685427Y-102196595D01*
X298472002Y-102177923D01*
X298471998Y-102177923D01*
X298329715Y-102190371D01*
X298258573Y-102196595D01*
X298258570Y-102196595D01*
X298051638Y-102252042D01*
X298051629Y-102252046D01*
X297857462Y-102342587D01*
X297857460Y-102342588D01*
X297681963Y-102465472D01*
X297530472Y-102616963D01*
X297407588Y-102792460D01*
X297407587Y-102792462D01*
X297317046Y-102986629D01*
X297317042Y-102986638D01*
X297261595Y-103193570D01*
X297261595Y-103193573D01*
X297242923Y-103407000D01*
X287323447Y-103407000D01*
X286967848Y-103051400D01*
X286968504Y-103051400D01*
X287071865Y-103023705D01*
X287164536Y-102970201D01*
X287240201Y-102894536D01*
X287293705Y-102801865D01*
X287321400Y-102698504D01*
X287321400Y-102697847D01*
X287895588Y-103272035D01*
X287905816Y-103258491D01*
X288001674Y-103065984D01*
X288060528Y-102859131D01*
X288080370Y-102645000D01*
X288060528Y-102430868D01*
X288001674Y-102224015D01*
X287905821Y-102031517D01*
X287905813Y-102031504D01*
X287895587Y-102017963D01*
X287321400Y-102592151D01*
X287321400Y-102591496D01*
X287293705Y-102488135D01*
X287240201Y-102395464D01*
X287164536Y-102319799D01*
X287071865Y-102266295D01*
X286968504Y-102238600D01*
X286967847Y-102238600D01*
X287539561Y-101666884D01*
X287539560Y-101666883D01*
X287434454Y-101601804D01*
X287434448Y-101601802D01*
X287233916Y-101524116D01*
X287022525Y-101484600D01*
X286807475Y-101484600D01*
X286596083Y-101524116D01*
X286596082Y-101524116D01*
X286395552Y-101601801D01*
X286290437Y-101666884D01*
X286862154Y-102238600D01*
X286861496Y-102238600D01*
X286758135Y-102266295D01*
X286665464Y-102319799D01*
X286589799Y-102395464D01*
X286536295Y-102488135D01*
X286508600Y-102591496D01*
X286508600Y-102592153D01*
X285923015Y-102006568D01*
X285896914Y-102000833D01*
X285857616Y-101966853D01*
X285836707Y-101939165D01*
X285776590Y-101859556D01*
X285776587Y-101859553D01*
X285776584Y-101859550D01*
X285617596Y-101714614D01*
X285540507Y-101666883D01*
X285434673Y-101601353D01*
X285234055Y-101523633D01*
X285022572Y-101484100D01*
X284807426Y-101484100D01*
X284595943Y-101523633D01*
X284469074Y-101572782D01*
X284395327Y-101601352D01*
X284395326Y-101601352D01*
X284212401Y-101714614D01*
X284053413Y-101859550D01*
X284053406Y-101859558D01*
X283923759Y-102031239D01*
X283923750Y-102031253D01*
X283827859Y-102223827D01*
X283827854Y-102223840D01*
X283768976Y-102430771D01*
X283749126Y-102644999D01*
X274160158Y-102644999D01*
X274140529Y-102616966D01*
X274090635Y-102567072D01*
X273989035Y-102465472D01*
X273854015Y-102370930D01*
X273813538Y-102342587D01*
X273703865Y-102291446D01*
X273619369Y-102252045D01*
X273619365Y-102252044D01*
X273619361Y-102252042D01*
X273412427Y-102196595D01*
X273199002Y-102177923D01*
X273198998Y-102177923D01*
X273056715Y-102190371D01*
X272985573Y-102196595D01*
X272985570Y-102196595D01*
X272778638Y-102252042D01*
X272778629Y-102252046D01*
X272584462Y-102342587D01*
X272584460Y-102342588D01*
X272408963Y-102465472D01*
X272257472Y-102616963D01*
X272134588Y-102792460D01*
X272134587Y-102792462D01*
X272044046Y-102986629D01*
X272044042Y-102986638D01*
X271988595Y-103193570D01*
X271988595Y-103193573D01*
X271969923Y-103407000D01*
X261923447Y-103407000D01*
X261567848Y-103051400D01*
X261568504Y-103051400D01*
X261671865Y-103023705D01*
X261764536Y-102970201D01*
X261840201Y-102894536D01*
X261893705Y-102801865D01*
X261921400Y-102698504D01*
X261921400Y-102697847D01*
X262495588Y-103272035D01*
X262505816Y-103258491D01*
X262601674Y-103065984D01*
X262660528Y-102859131D01*
X262680370Y-102645000D01*
X262660528Y-102430868D01*
X262601674Y-102224015D01*
X262505821Y-102031517D01*
X262505813Y-102031504D01*
X262495587Y-102017963D01*
X261921400Y-102592151D01*
X261921400Y-102591496D01*
X261893705Y-102488135D01*
X261840201Y-102395464D01*
X261764536Y-102319799D01*
X261671865Y-102266295D01*
X261568504Y-102238600D01*
X261567847Y-102238600D01*
X262139561Y-101666884D01*
X262139560Y-101666883D01*
X262034454Y-101601804D01*
X262034448Y-101601802D01*
X261833916Y-101524116D01*
X261622525Y-101484600D01*
X261407475Y-101484600D01*
X261196083Y-101524116D01*
X261196082Y-101524116D01*
X260995552Y-101601801D01*
X260890437Y-101666884D01*
X261462154Y-102238600D01*
X261461496Y-102238600D01*
X261358135Y-102266295D01*
X261265464Y-102319799D01*
X261189799Y-102395464D01*
X261136295Y-102488135D01*
X261108600Y-102591496D01*
X261108600Y-102592153D01*
X260523015Y-102006568D01*
X260496914Y-102000833D01*
X260457616Y-101966853D01*
X260436707Y-101939165D01*
X260376590Y-101859556D01*
X260376587Y-101859553D01*
X260376584Y-101859550D01*
X260217596Y-101714614D01*
X260140507Y-101666883D01*
X260034673Y-101601353D01*
X259834055Y-101523633D01*
X259622572Y-101484100D01*
X259407426Y-101484100D01*
X259195943Y-101523633D01*
X259069074Y-101572782D01*
X258995327Y-101601352D01*
X258995326Y-101601352D01*
X258812401Y-101714614D01*
X258653413Y-101859550D01*
X258653406Y-101859558D01*
X258523759Y-102031239D01*
X258523750Y-102031253D01*
X258427859Y-102223827D01*
X258427854Y-102223840D01*
X258368976Y-102430771D01*
X258349126Y-102644999D01*
X248336762Y-102644999D01*
X248258835Y-102567072D01*
X248083339Y-102444188D01*
X248083340Y-102444188D01*
X248083338Y-102444187D01*
X247974396Y-102393387D01*
X247889169Y-102353645D01*
X247889165Y-102353644D01*
X247889161Y-102353642D01*
X247682227Y-102298195D01*
X247468802Y-102279523D01*
X247468798Y-102279523D01*
X247332516Y-102291446D01*
X247255373Y-102298195D01*
X247255370Y-102298195D01*
X247048438Y-102353642D01*
X247048429Y-102353646D01*
X246854262Y-102444187D01*
X246854260Y-102444188D01*
X246678763Y-102567072D01*
X246527272Y-102718563D01*
X246404388Y-102894060D01*
X246404387Y-102894062D01*
X246313846Y-103088229D01*
X246313842Y-103088238D01*
X246258395Y-103295170D01*
X246258395Y-103295174D01*
X246239723Y-103508597D01*
X236625044Y-103508597D01*
X236167848Y-103051400D01*
X236168504Y-103051400D01*
X236271865Y-103023705D01*
X236364536Y-102970201D01*
X236440201Y-102894536D01*
X236493705Y-102801865D01*
X236521400Y-102698504D01*
X236521400Y-102697847D01*
X237095588Y-103272035D01*
X237105816Y-103258491D01*
X237201674Y-103065984D01*
X237260528Y-102859131D01*
X237280370Y-102645000D01*
X237260528Y-102430868D01*
X237201674Y-102224015D01*
X237105821Y-102031517D01*
X237105813Y-102031504D01*
X237095587Y-102017963D01*
X236521400Y-102592151D01*
X236521400Y-102591496D01*
X236493705Y-102488135D01*
X236440201Y-102395464D01*
X236364536Y-102319799D01*
X236271865Y-102266295D01*
X236168504Y-102238600D01*
X236167847Y-102238600D01*
X236739561Y-101666884D01*
X236739560Y-101666883D01*
X236634454Y-101601804D01*
X236634448Y-101601802D01*
X236433916Y-101524116D01*
X236222525Y-101484600D01*
X236007475Y-101484600D01*
X235796083Y-101524116D01*
X235796082Y-101524116D01*
X235595552Y-101601801D01*
X235490437Y-101666884D01*
X236062154Y-102238600D01*
X236061496Y-102238600D01*
X235958135Y-102266295D01*
X235865464Y-102319799D01*
X235789799Y-102395464D01*
X235736295Y-102488135D01*
X235708600Y-102591496D01*
X235708600Y-102592153D01*
X235123015Y-102006568D01*
X235096914Y-102000833D01*
X235057616Y-101966853D01*
X235036707Y-101939165D01*
X234976590Y-101859556D01*
X234976587Y-101859553D01*
X234976584Y-101859550D01*
X234817596Y-101714614D01*
X234740507Y-101666883D01*
X234634673Y-101601353D01*
X234434055Y-101523633D01*
X234222572Y-101484100D01*
X234007426Y-101484100D01*
X233795943Y-101523633D01*
X233669074Y-101572782D01*
X233595327Y-101601352D01*
X233595326Y-101601352D01*
X233412401Y-101714614D01*
X233253413Y-101859550D01*
X233253406Y-101859558D01*
X233123759Y-102031239D01*
X233123750Y-102031253D01*
X233027859Y-102223827D01*
X233027854Y-102223840D01*
X232968976Y-102430771D01*
X232949126Y-102644999D01*
X223190762Y-102644999D01*
X223112835Y-102567072D01*
X222937339Y-102444188D01*
X222937340Y-102444188D01*
X222937338Y-102444187D01*
X222828396Y-102393387D01*
X222743169Y-102353645D01*
X222743165Y-102353644D01*
X222743161Y-102353642D01*
X222536227Y-102298195D01*
X222322802Y-102279523D01*
X222322798Y-102279523D01*
X222186516Y-102291446D01*
X222109373Y-102298195D01*
X222109370Y-102298195D01*
X221902438Y-102353642D01*
X221902429Y-102353646D01*
X221708262Y-102444187D01*
X221708260Y-102444188D01*
X221532763Y-102567072D01*
X221381272Y-102718563D01*
X221258388Y-102894060D01*
X221258387Y-102894062D01*
X221167846Y-103088229D01*
X221167842Y-103088238D01*
X221112395Y-103295170D01*
X221112395Y-103295174D01*
X221093723Y-103508597D01*
X216660125Y-103508597D01*
X216660125Y-101939165D01*
X194269698Y-101939165D01*
X194269698Y-105195500D01*
X194250013Y-105262539D01*
X194197209Y-105308294D01*
X194145698Y-105319500D01*
X65924500Y-105319500D01*
X65857461Y-105299815D01*
X65811706Y-105247011D01*
X65800500Y-105195500D01*
X65800500Y-103457797D01*
X94144523Y-103457797D01*
X94144523Y-103457802D01*
X94163195Y-103671225D01*
X94163195Y-103671229D01*
X94218642Y-103878161D01*
X94218644Y-103878165D01*
X94218645Y-103878169D01*
X94242334Y-103928970D01*
X94309187Y-104072338D01*
X94309188Y-104072339D01*
X94432072Y-104247835D01*
X94583565Y-104399328D01*
X94759061Y-104522212D01*
X94953231Y-104612755D01*
X95160173Y-104668205D01*
X95339258Y-104683872D01*
X95373598Y-104686877D01*
X95373600Y-104686877D01*
X95373602Y-104686877D01*
X95401264Y-104684456D01*
X95587027Y-104668205D01*
X95793969Y-104612755D01*
X95988139Y-104522212D01*
X96163635Y-104399328D01*
X96315128Y-104247835D01*
X96438012Y-104072339D01*
X96528555Y-103878169D01*
X96584005Y-103671227D01*
X96602677Y-103457800D01*
X96600283Y-103430441D01*
X96588449Y-103295173D01*
X96584005Y-103244373D01*
X96536256Y-103066172D01*
X96528557Y-103037438D01*
X96528556Y-103037437D01*
X96528555Y-103037431D01*
X96438012Y-102843262D01*
X96402440Y-102792460D01*
X96315129Y-102667766D01*
X96292362Y-102644999D01*
X105949126Y-102644999D01*
X105949126Y-102645000D01*
X105968976Y-102859228D01*
X106027854Y-103066159D01*
X106027859Y-103066172D01*
X106123750Y-103258746D01*
X106123752Y-103258749D01*
X106123754Y-103258753D01*
X106123757Y-103258757D01*
X106123759Y-103258760D01*
X106172380Y-103323145D01*
X106253408Y-103430444D01*
X106253411Y-103430446D01*
X106253413Y-103430449D01*
X106412401Y-103575385D01*
X106412403Y-103575386D01*
X106412404Y-103575387D01*
X106595325Y-103688647D01*
X106795943Y-103766367D01*
X107007426Y-103805900D01*
X107007428Y-103805900D01*
X107222570Y-103805900D01*
X107222572Y-103805900D01*
X107434055Y-103766367D01*
X107634673Y-103688647D01*
X107817594Y-103575387D01*
X107976590Y-103430444D01*
X108057620Y-103323141D01*
X108113725Y-103281509D01*
X108126803Y-103279642D01*
X108708600Y-102697845D01*
X108708600Y-102698504D01*
X108736295Y-102801865D01*
X108789799Y-102894536D01*
X108865464Y-102970201D01*
X108958135Y-103023705D01*
X109061496Y-103051400D01*
X109062153Y-103051400D01*
X108490437Y-103623114D01*
X108595551Y-103688197D01*
X108796083Y-103765883D01*
X109007475Y-103805400D01*
X109222525Y-103805400D01*
X109433916Y-103765883D01*
X109433926Y-103765880D01*
X109634450Y-103688197D01*
X109634452Y-103688196D01*
X109739561Y-103623114D01*
X109523447Y-103407000D01*
X119442923Y-103407000D01*
X119457654Y-103575385D01*
X119461595Y-103620425D01*
X119461595Y-103620429D01*
X119517042Y-103827361D01*
X119517044Y-103827365D01*
X119517045Y-103827369D01*
X119540734Y-103878170D01*
X119607587Y-104021538D01*
X119607588Y-104021539D01*
X119730472Y-104197035D01*
X119881965Y-104348528D01*
X120057461Y-104471412D01*
X120251631Y-104561955D01*
X120458573Y-104617405D01*
X120637658Y-104633072D01*
X120671998Y-104636077D01*
X120672000Y-104636077D01*
X120672002Y-104636077D01*
X120699664Y-104633656D01*
X120885427Y-104617405D01*
X121092369Y-104561955D01*
X121286539Y-104471412D01*
X121462035Y-104348528D01*
X121613528Y-104197035D01*
X121736412Y-104021539D01*
X121826955Y-103827369D01*
X121882405Y-103620427D01*
X121901077Y-103407000D01*
X121882405Y-103193573D01*
X121836889Y-103023705D01*
X121826957Y-102986638D01*
X121826956Y-102986637D01*
X121826955Y-102986631D01*
X121736412Y-102792462D01*
X121684667Y-102718563D01*
X121633158Y-102644999D01*
X131349126Y-102644999D01*
X131349126Y-102645000D01*
X131368976Y-102859228D01*
X131427854Y-103066159D01*
X131427859Y-103066172D01*
X131523750Y-103258746D01*
X131523752Y-103258749D01*
X131523754Y-103258753D01*
X131523757Y-103258757D01*
X131523759Y-103258760D01*
X131572380Y-103323145D01*
X131653408Y-103430444D01*
X131653411Y-103430446D01*
X131653413Y-103430449D01*
X131812401Y-103575385D01*
X131812403Y-103575386D01*
X131812404Y-103575387D01*
X131995325Y-103688647D01*
X132195943Y-103766367D01*
X132407426Y-103805900D01*
X132407428Y-103805900D01*
X132622570Y-103805900D01*
X132622572Y-103805900D01*
X132834055Y-103766367D01*
X133034673Y-103688647D01*
X133217594Y-103575387D01*
X133376590Y-103430444D01*
X133457620Y-103323141D01*
X133513725Y-103281509D01*
X133526803Y-103279642D01*
X134108600Y-102697845D01*
X134108600Y-102698504D01*
X134136295Y-102801865D01*
X134189799Y-102894536D01*
X134265464Y-102970201D01*
X134358135Y-103023705D01*
X134461496Y-103051400D01*
X134462153Y-103051400D01*
X133890437Y-103623114D01*
X133995551Y-103688197D01*
X134196083Y-103765883D01*
X134407475Y-103805400D01*
X134622525Y-103805400D01*
X134833916Y-103765883D01*
X134833926Y-103765880D01*
X135034450Y-103688197D01*
X135034452Y-103688196D01*
X135139561Y-103623114D01*
X134923447Y-103407000D01*
X144842923Y-103407000D01*
X144857654Y-103575385D01*
X144861595Y-103620425D01*
X144861595Y-103620429D01*
X144917042Y-103827361D01*
X144917044Y-103827365D01*
X144917045Y-103827369D01*
X144940734Y-103878170D01*
X145007587Y-104021538D01*
X145007588Y-104021539D01*
X145130472Y-104197035D01*
X145281965Y-104348528D01*
X145457461Y-104471412D01*
X145651631Y-104561955D01*
X145858573Y-104617405D01*
X146037658Y-104633072D01*
X146071998Y-104636077D01*
X146072000Y-104636077D01*
X146072002Y-104636077D01*
X146099664Y-104633656D01*
X146285427Y-104617405D01*
X146492369Y-104561955D01*
X146686539Y-104471412D01*
X146862035Y-104348528D01*
X147013528Y-104197035D01*
X147136412Y-104021539D01*
X147226955Y-103827369D01*
X147282405Y-103620427D01*
X147301077Y-103407000D01*
X147282405Y-103193573D01*
X147236889Y-103023705D01*
X147226957Y-102986638D01*
X147226956Y-102986637D01*
X147226955Y-102986631D01*
X147136412Y-102792462D01*
X147084667Y-102718563D01*
X147033158Y-102644999D01*
X156749126Y-102644999D01*
X156749126Y-102645000D01*
X156768976Y-102859228D01*
X156827854Y-103066159D01*
X156827859Y-103066172D01*
X156923750Y-103258746D01*
X156923752Y-103258749D01*
X156923754Y-103258753D01*
X156923757Y-103258757D01*
X156923759Y-103258760D01*
X156972380Y-103323145D01*
X157053408Y-103430444D01*
X157053411Y-103430446D01*
X157053413Y-103430449D01*
X157212401Y-103575385D01*
X157212403Y-103575386D01*
X157212404Y-103575387D01*
X157395325Y-103688647D01*
X157595943Y-103766367D01*
X157807426Y-103805900D01*
X157807428Y-103805900D01*
X158022570Y-103805900D01*
X158022572Y-103805900D01*
X158234055Y-103766367D01*
X158434673Y-103688647D01*
X158617594Y-103575387D01*
X158776590Y-103430444D01*
X158857620Y-103323141D01*
X158913725Y-103281509D01*
X158926803Y-103279642D01*
X159508600Y-102697845D01*
X159508600Y-102698504D01*
X159536295Y-102801865D01*
X159589799Y-102894536D01*
X159665464Y-102970201D01*
X159758135Y-103023705D01*
X159861496Y-103051400D01*
X159862153Y-103051400D01*
X159290437Y-103623114D01*
X159395551Y-103688197D01*
X159596083Y-103765883D01*
X159807475Y-103805400D01*
X160022525Y-103805400D01*
X160233916Y-103765883D01*
X160233926Y-103765880D01*
X160434450Y-103688197D01*
X160434452Y-103688196D01*
X160539561Y-103623114D01*
X160425044Y-103508597D01*
X170090523Y-103508597D01*
X170090523Y-103508602D01*
X170109195Y-103722025D01*
X170109195Y-103722029D01*
X170164642Y-103928961D01*
X170164644Y-103928965D01*
X170164645Y-103928969D01*
X170207811Y-104021538D01*
X170255187Y-104123138D01*
X170255188Y-104123139D01*
X170378072Y-104298635D01*
X170529565Y-104450128D01*
X170705061Y-104573012D01*
X170899231Y-104663555D01*
X171106173Y-104719005D01*
X171285258Y-104734672D01*
X171319598Y-104737677D01*
X171319600Y-104737677D01*
X171319602Y-104737677D01*
X171347264Y-104735256D01*
X171533027Y-104719005D01*
X171739969Y-104663555D01*
X171934139Y-104573012D01*
X172109635Y-104450128D01*
X172261128Y-104298635D01*
X172384012Y-104123139D01*
X172474555Y-103928969D01*
X172530005Y-103722027D01*
X172548677Y-103508600D01*
X172530005Y-103295173D01*
X172474555Y-103088231D01*
X172384012Y-102894062D01*
X172348440Y-102843260D01*
X172261129Y-102718566D01*
X172187562Y-102644999D01*
X182149126Y-102644999D01*
X182149126Y-102645000D01*
X182168976Y-102859228D01*
X182227854Y-103066159D01*
X182227859Y-103066172D01*
X182323750Y-103258746D01*
X182323752Y-103258749D01*
X182323754Y-103258753D01*
X182323757Y-103258757D01*
X182323759Y-103258760D01*
X182372380Y-103323145D01*
X182453408Y-103430444D01*
X182453411Y-103430446D01*
X182453413Y-103430449D01*
X182612401Y-103575385D01*
X182612403Y-103575386D01*
X182612404Y-103575387D01*
X182795325Y-103688647D01*
X182995943Y-103766367D01*
X183207426Y-103805900D01*
X183207428Y-103805900D01*
X183422570Y-103805900D01*
X183422572Y-103805900D01*
X183634055Y-103766367D01*
X183834673Y-103688647D01*
X184017594Y-103575387D01*
X184176590Y-103430444D01*
X184257620Y-103323141D01*
X184313725Y-103281509D01*
X184326803Y-103279642D01*
X184908600Y-102697845D01*
X184908600Y-102698504D01*
X184936295Y-102801865D01*
X184989799Y-102894536D01*
X185065464Y-102970201D01*
X185158135Y-103023705D01*
X185261496Y-103051400D01*
X185262153Y-103051400D01*
X184690437Y-103623114D01*
X184795551Y-103688197D01*
X184996083Y-103765883D01*
X185207475Y-103805400D01*
X185422525Y-103805400D01*
X185633916Y-103765883D01*
X185633926Y-103765880D01*
X185834450Y-103688197D01*
X185834452Y-103688196D01*
X185939561Y-103623114D01*
X185367848Y-103051400D01*
X185368504Y-103051400D01*
X185471865Y-103023705D01*
X185564536Y-102970201D01*
X185640201Y-102894536D01*
X185693705Y-102801865D01*
X185721400Y-102698504D01*
X185721400Y-102697847D01*
X186295588Y-103272035D01*
X186305816Y-103258491D01*
X186401674Y-103065984D01*
X186460528Y-102859131D01*
X186480370Y-102645000D01*
X186460528Y-102430868D01*
X186401674Y-102224015D01*
X186305821Y-102031517D01*
X186305813Y-102031504D01*
X186295587Y-102017963D01*
X185721400Y-102592151D01*
X185721400Y-102591496D01*
X185693705Y-102488135D01*
X185640201Y-102395464D01*
X185564536Y-102319799D01*
X185471865Y-102266295D01*
X185368504Y-102238600D01*
X185367847Y-102238600D01*
X185939561Y-101666884D01*
X185939560Y-101666883D01*
X185834454Y-101601804D01*
X185834448Y-101601802D01*
X185633916Y-101524116D01*
X185422525Y-101484600D01*
X185207475Y-101484600D01*
X184996083Y-101524116D01*
X184996082Y-101524116D01*
X184795552Y-101601801D01*
X184690437Y-101666884D01*
X185262154Y-102238600D01*
X185261496Y-102238600D01*
X185158135Y-102266295D01*
X185065464Y-102319799D01*
X184989799Y-102395464D01*
X184936295Y-102488135D01*
X184908600Y-102591496D01*
X184908600Y-102592153D01*
X184323015Y-102006568D01*
X184296914Y-102000833D01*
X184257616Y-101966853D01*
X184236707Y-101939165D01*
X184176590Y-101859556D01*
X184176587Y-101859553D01*
X184176584Y-101859550D01*
X184017596Y-101714614D01*
X183940507Y-101666883D01*
X183834673Y-101601353D01*
X183634055Y-101523633D01*
X183422572Y-101484100D01*
X183207426Y-101484100D01*
X182995943Y-101523633D01*
X182869074Y-101572782D01*
X182795327Y-101601352D01*
X182795326Y-101601352D01*
X182612401Y-101714614D01*
X182453413Y-101859550D01*
X182453406Y-101859558D01*
X182323759Y-102031239D01*
X182323750Y-102031253D01*
X182227859Y-102223827D01*
X182227854Y-102223840D01*
X182168976Y-102430771D01*
X182149126Y-102644999D01*
X172187562Y-102644999D01*
X172109635Y-102567072D01*
X171934139Y-102444188D01*
X171934140Y-102444188D01*
X171934138Y-102444187D01*
X171825196Y-102393387D01*
X171739969Y-102353645D01*
X171739965Y-102353644D01*
X171739961Y-102353642D01*
X171533027Y-102298195D01*
X171319602Y-102279523D01*
X171319598Y-102279523D01*
X171183316Y-102291446D01*
X171106173Y-102298195D01*
X171106170Y-102298195D01*
X170899238Y-102353642D01*
X170899229Y-102353646D01*
X170705062Y-102444187D01*
X170705060Y-102444188D01*
X170529563Y-102567072D01*
X170378072Y-102718563D01*
X170255188Y-102894060D01*
X170255187Y-102894062D01*
X170164646Y-103088229D01*
X170164642Y-103088238D01*
X170109195Y-103295170D01*
X170109195Y-103295174D01*
X170090523Y-103508597D01*
X160425044Y-103508597D01*
X159967848Y-103051400D01*
X159968504Y-103051400D01*
X160071865Y-103023705D01*
X160164536Y-102970201D01*
X160240201Y-102894536D01*
X160293705Y-102801865D01*
X160321400Y-102698504D01*
X160321400Y-102697847D01*
X160895588Y-103272035D01*
X160905816Y-103258491D01*
X161001674Y-103065984D01*
X161060528Y-102859131D01*
X161080370Y-102645000D01*
X161060528Y-102430868D01*
X161001674Y-102224015D01*
X160905821Y-102031517D01*
X160905813Y-102031504D01*
X160895587Y-102017963D01*
X160321400Y-102592151D01*
X160321400Y-102591496D01*
X160293705Y-102488135D01*
X160240201Y-102395464D01*
X160164536Y-102319799D01*
X160071865Y-102266295D01*
X159968504Y-102238600D01*
X159967847Y-102238600D01*
X160539561Y-101666884D01*
X160539560Y-101666883D01*
X160434454Y-101601804D01*
X160434448Y-101601802D01*
X160233916Y-101524116D01*
X160022525Y-101484600D01*
X159807475Y-101484600D01*
X159596083Y-101524116D01*
X159596082Y-101524116D01*
X159395552Y-101601801D01*
X159290437Y-101666884D01*
X159862154Y-102238600D01*
X159861496Y-102238600D01*
X159758135Y-102266295D01*
X159665464Y-102319799D01*
X159589799Y-102395464D01*
X159536295Y-102488135D01*
X159508600Y-102591496D01*
X159508600Y-102592153D01*
X158923015Y-102006568D01*
X158896914Y-102000833D01*
X158857616Y-101966853D01*
X158836707Y-101939165D01*
X158776590Y-101859556D01*
X158776587Y-101859553D01*
X158776584Y-101859550D01*
X158617596Y-101714614D01*
X158540507Y-101666883D01*
X158434673Y-101601353D01*
X158234055Y-101523633D01*
X158022572Y-101484100D01*
X157807426Y-101484100D01*
X157595943Y-101523633D01*
X157469074Y-101572782D01*
X157395327Y-101601352D01*
X157395326Y-101601352D01*
X157212401Y-101714614D01*
X157053413Y-101859550D01*
X157053406Y-101859558D01*
X156923759Y-102031239D01*
X156923750Y-102031253D01*
X156827859Y-102223827D01*
X156827854Y-102223840D01*
X156768976Y-102430771D01*
X156749126Y-102644999D01*
X147033158Y-102644999D01*
X147013529Y-102616966D01*
X146963635Y-102567072D01*
X146862035Y-102465472D01*
X146727015Y-102370930D01*
X146686538Y-102342587D01*
X146576865Y-102291446D01*
X146492369Y-102252045D01*
X146492365Y-102252044D01*
X146492361Y-102252042D01*
X146285427Y-102196595D01*
X146072002Y-102177923D01*
X146071998Y-102177923D01*
X145929715Y-102190371D01*
X145858573Y-102196595D01*
X145858570Y-102196595D01*
X145651638Y-102252042D01*
X145651629Y-102252046D01*
X145457462Y-102342587D01*
X145457460Y-102342588D01*
X145281963Y-102465472D01*
X145130472Y-102616963D01*
X145007588Y-102792460D01*
X145007587Y-102792462D01*
X144917046Y-102986629D01*
X144917042Y-102986638D01*
X144861595Y-103193570D01*
X144861595Y-103193573D01*
X144842923Y-103407000D01*
X134923447Y-103407000D01*
X134567848Y-103051400D01*
X134568504Y-103051400D01*
X134671865Y-103023705D01*
X134764536Y-102970201D01*
X134840201Y-102894536D01*
X134893705Y-102801865D01*
X134921400Y-102698504D01*
X134921400Y-102697847D01*
X135495588Y-103272035D01*
X135505816Y-103258491D01*
X135601674Y-103065984D01*
X135660528Y-102859131D01*
X135680370Y-102645000D01*
X135660528Y-102430868D01*
X135601674Y-102224015D01*
X135505821Y-102031517D01*
X135505813Y-102031504D01*
X135495587Y-102017963D01*
X134921400Y-102592151D01*
X134921400Y-102591496D01*
X134893705Y-102488135D01*
X134840201Y-102395464D01*
X134764536Y-102319799D01*
X134671865Y-102266295D01*
X134568504Y-102238600D01*
X134567847Y-102238600D01*
X135139561Y-101666884D01*
X135139560Y-101666883D01*
X135034454Y-101601804D01*
X135034448Y-101601802D01*
X134833916Y-101524116D01*
X134622525Y-101484600D01*
X134407475Y-101484600D01*
X134196083Y-101524116D01*
X134196082Y-101524116D01*
X133995552Y-101601801D01*
X133890437Y-101666884D01*
X134462154Y-102238600D01*
X134461496Y-102238600D01*
X134358135Y-102266295D01*
X134265464Y-102319799D01*
X134189799Y-102395464D01*
X134136295Y-102488135D01*
X134108600Y-102591496D01*
X134108600Y-102592153D01*
X133523015Y-102006568D01*
X133496914Y-102000833D01*
X133457616Y-101966853D01*
X133436707Y-101939165D01*
X133376590Y-101859556D01*
X133376587Y-101859553D01*
X133376584Y-101859550D01*
X133217596Y-101714614D01*
X133140507Y-101666883D01*
X133034673Y-101601353D01*
X132834055Y-101523633D01*
X132622572Y-101484100D01*
X132407426Y-101484100D01*
X132195943Y-101523633D01*
X132069074Y-101572782D01*
X131995327Y-101601352D01*
X131995326Y-101601352D01*
X131812401Y-101714614D01*
X131653413Y-101859550D01*
X131653406Y-101859558D01*
X131523759Y-102031239D01*
X131523750Y-102031253D01*
X131427859Y-102223827D01*
X131427854Y-102223840D01*
X131368976Y-102430771D01*
X131349126Y-102644999D01*
X121633158Y-102644999D01*
X121613529Y-102616966D01*
X121563635Y-102567072D01*
X121462035Y-102465472D01*
X121327015Y-102370930D01*
X121286538Y-102342587D01*
X121176865Y-102291446D01*
X121092369Y-102252045D01*
X121092365Y-102252044D01*
X121092361Y-102252042D01*
X120885427Y-102196595D01*
X120672002Y-102177923D01*
X120671998Y-102177923D01*
X120529715Y-102190371D01*
X120458573Y-102196595D01*
X120458570Y-102196595D01*
X120251638Y-102252042D01*
X120251629Y-102252046D01*
X120057462Y-102342587D01*
X120057460Y-102342588D01*
X119881963Y-102465472D01*
X119730472Y-102616963D01*
X119607588Y-102792460D01*
X119607587Y-102792462D01*
X119517046Y-102986629D01*
X119517042Y-102986638D01*
X119461595Y-103193570D01*
X119461595Y-103193573D01*
X119442923Y-103407000D01*
X109523447Y-103407000D01*
X109167848Y-103051400D01*
X109168504Y-103051400D01*
X109271865Y-103023705D01*
X109364536Y-102970201D01*
X109440201Y-102894536D01*
X109493705Y-102801865D01*
X109521400Y-102698504D01*
X109521400Y-102697847D01*
X110095588Y-103272035D01*
X110105816Y-103258491D01*
X110201674Y-103065984D01*
X110260528Y-102859131D01*
X110280370Y-102645000D01*
X110260528Y-102430868D01*
X110201674Y-102224015D01*
X110105821Y-102031517D01*
X110105813Y-102031504D01*
X110095587Y-102017963D01*
X109521400Y-102592151D01*
X109521400Y-102591496D01*
X109493705Y-102488135D01*
X109440201Y-102395464D01*
X109364536Y-102319799D01*
X109271865Y-102266295D01*
X109168504Y-102238600D01*
X109167847Y-102238600D01*
X109739561Y-101666884D01*
X109739560Y-101666883D01*
X109634454Y-101601804D01*
X109634448Y-101601802D01*
X109433916Y-101524116D01*
X109222525Y-101484600D01*
X109007475Y-101484600D01*
X108796083Y-101524116D01*
X108796082Y-101524116D01*
X108595552Y-101601801D01*
X108490437Y-101666884D01*
X109062154Y-102238600D01*
X109061496Y-102238600D01*
X108958135Y-102266295D01*
X108865464Y-102319799D01*
X108789799Y-102395464D01*
X108736295Y-102488135D01*
X108708600Y-102591496D01*
X108708600Y-102592153D01*
X108123015Y-102006568D01*
X108096914Y-102000833D01*
X108057616Y-101966853D01*
X108036707Y-101939165D01*
X107976590Y-101859556D01*
X107976587Y-101859553D01*
X107976584Y-101859550D01*
X107817596Y-101714614D01*
X107740507Y-101666883D01*
X107634673Y-101601353D01*
X107434055Y-101523633D01*
X107222572Y-101484100D01*
X107007426Y-101484100D01*
X106795943Y-101523633D01*
X106669074Y-101572782D01*
X106595327Y-101601352D01*
X106595326Y-101601352D01*
X106412401Y-101714614D01*
X106253413Y-101859550D01*
X106253406Y-101859558D01*
X106123759Y-102031239D01*
X106123750Y-102031253D01*
X106027859Y-102223827D01*
X106027854Y-102223840D01*
X105968976Y-102430771D01*
X105949126Y-102644999D01*
X96292362Y-102644999D01*
X96264326Y-102616963D01*
X96163635Y-102516272D01*
X95988139Y-102393388D01*
X95988140Y-102393388D01*
X95988138Y-102393387D01*
X95879196Y-102342587D01*
X95793969Y-102302845D01*
X95793965Y-102302844D01*
X95793961Y-102302842D01*
X95587027Y-102247395D01*
X95373602Y-102228723D01*
X95373598Y-102228723D01*
X95231315Y-102241171D01*
X95160173Y-102247395D01*
X95160170Y-102247395D01*
X94953238Y-102302842D01*
X94953229Y-102302846D01*
X94759062Y-102393387D01*
X94759060Y-102393388D01*
X94583563Y-102516272D01*
X94432072Y-102667763D01*
X94309188Y-102843260D01*
X94309187Y-102843262D01*
X94218646Y-103037429D01*
X94218642Y-103037438D01*
X94163195Y-103244370D01*
X94163195Y-103244374D01*
X94144523Y-103457797D01*
X65800500Y-103457797D01*
X65800500Y-95545258D01*
X76249500Y-95545258D01*
X76249500Y-95774741D01*
X76262954Y-95876925D01*
X76279452Y-96002238D01*
X76311706Y-96122612D01*
X76338842Y-96223887D01*
X76426650Y-96435876D01*
X76426657Y-96435890D01*
X76541392Y-96634617D01*
X76681081Y-96816661D01*
X76681089Y-96816670D01*
X76843330Y-96978911D01*
X76843338Y-96978918D01*
X77025382Y-97118607D01*
X77025385Y-97118608D01*
X77025388Y-97118611D01*
X77224112Y-97233344D01*
X77224117Y-97233346D01*
X77224123Y-97233349D01*
X77315480Y-97271190D01*
X77436113Y-97321158D01*
X77657762Y-97380548D01*
X77885266Y-97410500D01*
X77885273Y-97410500D01*
X78114727Y-97410500D01*
X78114734Y-97410500D01*
X78342238Y-97380548D01*
X78563887Y-97321158D01*
X78775888Y-97233344D01*
X78974612Y-97118611D01*
X79156661Y-96978919D01*
X79156665Y-96978914D01*
X79156670Y-96978911D01*
X79318911Y-96816670D01*
X79318914Y-96816665D01*
X79318919Y-96816661D01*
X79458611Y-96634612D01*
X79573344Y-96435888D01*
X79661158Y-96223887D01*
X79720548Y-96002238D01*
X79750500Y-95774734D01*
X79750500Y-95545266D01*
X79720548Y-95317762D01*
X79661158Y-95096113D01*
X79611190Y-94975480D01*
X79573349Y-94884123D01*
X79573346Y-94884117D01*
X79573344Y-94884112D01*
X79458611Y-94685388D01*
X79458608Y-94685385D01*
X79458607Y-94685382D01*
X79349207Y-94542811D01*
X79318919Y-94503339D01*
X79318918Y-94503338D01*
X79318911Y-94503330D01*
X79156670Y-94341089D01*
X79156661Y-94341081D01*
X78974617Y-94201392D01*
X78775890Y-94086657D01*
X78775876Y-94086650D01*
X78563887Y-93998842D01*
X78342238Y-93939452D01*
X78304215Y-93934446D01*
X78114741Y-93909500D01*
X78114734Y-93909500D01*
X77885266Y-93909500D01*
X77885258Y-93909500D01*
X77668715Y-93938009D01*
X77657762Y-93939452D01*
X77564076Y-93964554D01*
X77436112Y-93998842D01*
X77224123Y-94086650D01*
X77224109Y-94086657D01*
X77025382Y-94201392D01*
X76843338Y-94341081D01*
X76681081Y-94503338D01*
X76541392Y-94685382D01*
X76426657Y-94884109D01*
X76426650Y-94884123D01*
X76338842Y-95096112D01*
X76325298Y-95146661D01*
X76290914Y-95274987D01*
X76279453Y-95317759D01*
X76279451Y-95317770D01*
X76249500Y-95545258D01*
X65800500Y-95545258D01*
X65800500Y-93609995D01*
X104724732Y-93609995D01*
X104724732Y-93610004D01*
X104743777Y-93864154D01*
X104794560Y-94086650D01*
X104800492Y-94112637D01*
X104893607Y-94349888D01*
X105021041Y-94570612D01*
X105179950Y-94769877D01*
X105366783Y-94943232D01*
X105577366Y-95086805D01*
X105577371Y-95086807D01*
X105577372Y-95086808D01*
X105577373Y-95086809D01*
X105642498Y-95118171D01*
X105806992Y-95197387D01*
X105806993Y-95197387D01*
X105806996Y-95197389D01*
X106050542Y-95272513D01*
X106302565Y-95310500D01*
X106557435Y-95310500D01*
X106809458Y-95272513D01*
X107053004Y-95197389D01*
X107194325Y-95129332D01*
X107263262Y-95117981D01*
X107327397Y-95145703D01*
X107366363Y-95203698D01*
X107367788Y-95273553D01*
X107367390Y-95274986D01*
X107319564Y-95443079D01*
X107299464Y-95659999D01*
X107299464Y-95660000D01*
X107319564Y-95876920D01*
X107367390Y-96045013D01*
X107366802Y-96114880D01*
X107328535Y-96173338D01*
X107264738Y-96201828D01*
X107195665Y-96191303D01*
X107194322Y-96190666D01*
X107053006Y-96122612D01*
X107053008Y-96122612D01*
X106809466Y-96047489D01*
X106809462Y-96047488D01*
X106809458Y-96047487D01*
X106688231Y-96029214D01*
X106557440Y-96009500D01*
X106557435Y-96009500D01*
X106302565Y-96009500D01*
X106302559Y-96009500D01*
X106145609Y-96033157D01*
X106050542Y-96047487D01*
X106050539Y-96047488D01*
X106050533Y-96047489D01*
X105806992Y-96122612D01*
X105577373Y-96233190D01*
X105577372Y-96233191D01*
X105366782Y-96376768D01*
X105179952Y-96550121D01*
X105179950Y-96550123D01*
X105021041Y-96749388D01*
X104893608Y-96970109D01*
X104800492Y-97207362D01*
X104800490Y-97207369D01*
X104743777Y-97455845D01*
X104724732Y-97709995D01*
X104724732Y-97710004D01*
X104743777Y-97964154D01*
X104743778Y-97964157D01*
X104800492Y-98212637D01*
X104893607Y-98449888D01*
X105021041Y-98670612D01*
X105179950Y-98869877D01*
X105366783Y-99043232D01*
X105577366Y-99186805D01*
X105577371Y-99186807D01*
X105577372Y-99186808D01*
X105577373Y-99186809D01*
X105699328Y-99245538D01*
X105806992Y-99297387D01*
X105806993Y-99297387D01*
X105806996Y-99297389D01*
X106050542Y-99372513D01*
X106302565Y-99410500D01*
X106557435Y-99410500D01*
X106809458Y-99372513D01*
X107053004Y-99297389D01*
X107282634Y-99186805D01*
X107493217Y-99043232D01*
X107680050Y-98869877D01*
X107838959Y-98670612D01*
X107966393Y-98449888D01*
X108059508Y-98212637D01*
X108116222Y-97964157D01*
X108135268Y-97710000D01*
X108116222Y-97455843D01*
X108059508Y-97207363D01*
X107966393Y-96970112D01*
X107957561Y-96954815D01*
X107941088Y-96886917D01*
X107963939Y-96820890D01*
X108018860Y-96777698D01*
X108088413Y-96771055D01*
X108109734Y-96777185D01*
X108156931Y-96795470D01*
X108371074Y-96835500D01*
X108371076Y-96835500D01*
X108588924Y-96835500D01*
X108588926Y-96835500D01*
X108803069Y-96795470D01*
X108850257Y-96777188D01*
X108919880Y-96771326D01*
X108981620Y-96804036D01*
X109015875Y-96864932D01*
X109011770Y-96934681D01*
X109002439Y-96954813D01*
X108993608Y-96970107D01*
X108900492Y-97207362D01*
X108900490Y-97207369D01*
X108843777Y-97455845D01*
X108824732Y-97709995D01*
X108824732Y-97710004D01*
X108843777Y-97964154D01*
X108843778Y-97964157D01*
X108900492Y-98212637D01*
X108993607Y-98449888D01*
X109121041Y-98670612D01*
X109279950Y-98869877D01*
X109466783Y-99043232D01*
X109677366Y-99186805D01*
X109677371Y-99186807D01*
X109677372Y-99186808D01*
X109677373Y-99186809D01*
X109799328Y-99245538D01*
X109906992Y-99297387D01*
X109906993Y-99297387D01*
X109906996Y-99297389D01*
X110150542Y-99372513D01*
X110402565Y-99410500D01*
X110657435Y-99410500D01*
X110909458Y-99372513D01*
X111153004Y-99297389D01*
X111382634Y-99186805D01*
X111593217Y-99043232D01*
X111780050Y-98869877D01*
X111938959Y-98670612D01*
X112066393Y-98449888D01*
X112159508Y-98212637D01*
X112216222Y-97964157D01*
X112235268Y-97710000D01*
X112216222Y-97455843D01*
X112159508Y-97207363D01*
X112066393Y-96970112D01*
X111938959Y-96749388D01*
X111780050Y-96550123D01*
X111593217Y-96376768D01*
X111382634Y-96233195D01*
X111382630Y-96233193D01*
X111382627Y-96233191D01*
X111382626Y-96233190D01*
X111153006Y-96122612D01*
X111153008Y-96122612D01*
X110909466Y-96047489D01*
X110909462Y-96047488D01*
X110909458Y-96047487D01*
X110788231Y-96029214D01*
X110657440Y-96009500D01*
X110657435Y-96009500D01*
X110402565Y-96009500D01*
X110402559Y-96009500D01*
X110245609Y-96033157D01*
X110150542Y-96047487D01*
X110150539Y-96047488D01*
X110150533Y-96047489D01*
X109906992Y-96122612D01*
X109765677Y-96190666D01*
X109696736Y-96202018D01*
X109632601Y-96174296D01*
X109593636Y-96116300D01*
X109592211Y-96046445D01*
X109592610Y-96045012D01*
X109640434Y-95876925D01*
X109640435Y-95876922D01*
X109660536Y-95660000D01*
X109660536Y-95659999D01*
X109640435Y-95443077D01*
X109640434Y-95443074D01*
X109592610Y-95274987D01*
X109593197Y-95205120D01*
X109631464Y-95146661D01*
X109695261Y-95118171D01*
X109764333Y-95128695D01*
X109765563Y-95129278D01*
X109906996Y-95197389D01*
X110150542Y-95272513D01*
X110402565Y-95310500D01*
X110657435Y-95310500D01*
X110909458Y-95272513D01*
X111153004Y-95197389D01*
X111382634Y-95086805D01*
X111593217Y-94943232D01*
X111780050Y-94769877D01*
X111938959Y-94570612D01*
X112066393Y-94349888D01*
X112159508Y-94112637D01*
X112216222Y-93864157D01*
X112235268Y-93610000D01*
X112235268Y-93609995D01*
X130124732Y-93609995D01*
X130124732Y-93610004D01*
X130143777Y-93864154D01*
X130194560Y-94086650D01*
X130200492Y-94112637D01*
X130293607Y-94349888D01*
X130421041Y-94570612D01*
X130579950Y-94769877D01*
X130766783Y-94943232D01*
X130977366Y-95086805D01*
X130977371Y-95086807D01*
X130977372Y-95086808D01*
X130977373Y-95086809D01*
X131042498Y-95118171D01*
X131206992Y-95197387D01*
X131206993Y-95197387D01*
X131206996Y-95197389D01*
X131450542Y-95272513D01*
X131702565Y-95310500D01*
X131957435Y-95310500D01*
X132209458Y-95272513D01*
X132453004Y-95197389D01*
X132594325Y-95129332D01*
X132663262Y-95117981D01*
X132727397Y-95145703D01*
X132766363Y-95203698D01*
X132767788Y-95273553D01*
X132767390Y-95274986D01*
X132719564Y-95443079D01*
X132699464Y-95659999D01*
X132699464Y-95660000D01*
X132719564Y-95876920D01*
X132767390Y-96045013D01*
X132766802Y-96114880D01*
X132728535Y-96173338D01*
X132664738Y-96201828D01*
X132595665Y-96191303D01*
X132594322Y-96190666D01*
X132453006Y-96122612D01*
X132453008Y-96122612D01*
X132209466Y-96047489D01*
X132209462Y-96047488D01*
X132209458Y-96047487D01*
X132088231Y-96029214D01*
X131957440Y-96009500D01*
X131957435Y-96009500D01*
X131702565Y-96009500D01*
X131702559Y-96009500D01*
X131545609Y-96033157D01*
X131450542Y-96047487D01*
X131450539Y-96047488D01*
X131450533Y-96047489D01*
X131206992Y-96122612D01*
X130977373Y-96233190D01*
X130977372Y-96233191D01*
X130766782Y-96376768D01*
X130579952Y-96550121D01*
X130579950Y-96550123D01*
X130421041Y-96749388D01*
X130293608Y-96970109D01*
X130200492Y-97207362D01*
X130200490Y-97207369D01*
X130143777Y-97455845D01*
X130124732Y-97709995D01*
X130124732Y-97710004D01*
X130143777Y-97964154D01*
X130143778Y-97964157D01*
X130200492Y-98212637D01*
X130293607Y-98449888D01*
X130421041Y-98670612D01*
X130579950Y-98869877D01*
X130766783Y-99043232D01*
X130977366Y-99186805D01*
X130977371Y-99186807D01*
X130977372Y-99186808D01*
X130977373Y-99186809D01*
X131099328Y-99245538D01*
X131206992Y-99297387D01*
X131206993Y-99297387D01*
X131206996Y-99297389D01*
X131450542Y-99372513D01*
X131702565Y-99410500D01*
X131957435Y-99410500D01*
X132209458Y-99372513D01*
X132453004Y-99297389D01*
X132682634Y-99186805D01*
X132893217Y-99043232D01*
X133080050Y-98869877D01*
X133238959Y-98670612D01*
X133366393Y-98449888D01*
X133459508Y-98212637D01*
X133516222Y-97964157D01*
X133535268Y-97710000D01*
X133516222Y-97455843D01*
X133459508Y-97207363D01*
X133366393Y-96970112D01*
X133357561Y-96954815D01*
X133341088Y-96886917D01*
X133363939Y-96820890D01*
X133418860Y-96777698D01*
X133488413Y-96771055D01*
X133509734Y-96777185D01*
X133556931Y-96795470D01*
X133771074Y-96835500D01*
X133771076Y-96835500D01*
X133988924Y-96835500D01*
X133988926Y-96835500D01*
X134203069Y-96795470D01*
X134250257Y-96777188D01*
X134319880Y-96771326D01*
X134381620Y-96804036D01*
X134415875Y-96864932D01*
X134411770Y-96934681D01*
X134402439Y-96954813D01*
X134393608Y-96970107D01*
X134300492Y-97207362D01*
X134300490Y-97207369D01*
X134243777Y-97455845D01*
X134224732Y-97709995D01*
X134224732Y-97710004D01*
X134243777Y-97964154D01*
X134243778Y-97964157D01*
X134300492Y-98212637D01*
X134393607Y-98449888D01*
X134521041Y-98670612D01*
X134679950Y-98869877D01*
X134866783Y-99043232D01*
X135077366Y-99186805D01*
X135077371Y-99186807D01*
X135077372Y-99186808D01*
X135077373Y-99186809D01*
X135199328Y-99245538D01*
X135306992Y-99297387D01*
X135306993Y-99297387D01*
X135306996Y-99297389D01*
X135550542Y-99372513D01*
X135802565Y-99410500D01*
X136057435Y-99410500D01*
X136309458Y-99372513D01*
X136553004Y-99297389D01*
X136782634Y-99186805D01*
X136993217Y-99043232D01*
X137180050Y-98869877D01*
X137338959Y-98670612D01*
X137466393Y-98449888D01*
X137559508Y-98212637D01*
X137616222Y-97964157D01*
X137635268Y-97710000D01*
X137616222Y-97455843D01*
X137559508Y-97207363D01*
X137466393Y-96970112D01*
X137338959Y-96749388D01*
X137180050Y-96550123D01*
X136993217Y-96376768D01*
X136782634Y-96233195D01*
X136782630Y-96233193D01*
X136782627Y-96233191D01*
X136782626Y-96233190D01*
X136553006Y-96122612D01*
X136553008Y-96122612D01*
X136309466Y-96047489D01*
X136309462Y-96047488D01*
X136309458Y-96047487D01*
X136188231Y-96029214D01*
X136057440Y-96009500D01*
X136057435Y-96009500D01*
X135802565Y-96009500D01*
X135802559Y-96009500D01*
X135645609Y-96033157D01*
X135550542Y-96047487D01*
X135550539Y-96047488D01*
X135550533Y-96047489D01*
X135306992Y-96122612D01*
X135165677Y-96190666D01*
X135096736Y-96202018D01*
X135032601Y-96174296D01*
X134993636Y-96116300D01*
X134992211Y-96046445D01*
X134992610Y-96045012D01*
X135040434Y-95876925D01*
X135040435Y-95876922D01*
X135060536Y-95660000D01*
X135060536Y-95659999D01*
X135040435Y-95443077D01*
X135040434Y-95443074D01*
X134992610Y-95274987D01*
X134993197Y-95205120D01*
X135031464Y-95146661D01*
X135095261Y-95118171D01*
X135164333Y-95128695D01*
X135165563Y-95129278D01*
X135306996Y-95197389D01*
X135550542Y-95272513D01*
X135802565Y-95310500D01*
X136057435Y-95310500D01*
X136309458Y-95272513D01*
X136553004Y-95197389D01*
X136782634Y-95086805D01*
X136993217Y-94943232D01*
X137180050Y-94769877D01*
X137338959Y-94570612D01*
X137466393Y-94349888D01*
X137559508Y-94112637D01*
X137616222Y-93864157D01*
X137635268Y-93610000D01*
X137635268Y-93609995D01*
X155524732Y-93609995D01*
X155524732Y-93610004D01*
X155543777Y-93864154D01*
X155594560Y-94086650D01*
X155600492Y-94112637D01*
X155693607Y-94349888D01*
X155821041Y-94570612D01*
X155979950Y-94769877D01*
X156166783Y-94943232D01*
X156377366Y-95086805D01*
X156377371Y-95086807D01*
X156377372Y-95086808D01*
X156377373Y-95086809D01*
X156442498Y-95118171D01*
X156606992Y-95197387D01*
X156606993Y-95197387D01*
X156606996Y-95197389D01*
X156850542Y-95272513D01*
X157102565Y-95310500D01*
X157357435Y-95310500D01*
X157609458Y-95272513D01*
X157853004Y-95197389D01*
X157994325Y-95129332D01*
X158063262Y-95117981D01*
X158127397Y-95145703D01*
X158166363Y-95203698D01*
X158167788Y-95273553D01*
X158167390Y-95274986D01*
X158119564Y-95443079D01*
X158099464Y-95659999D01*
X158099464Y-95660000D01*
X158119564Y-95876920D01*
X158167390Y-96045013D01*
X158166802Y-96114880D01*
X158128535Y-96173338D01*
X158064738Y-96201828D01*
X157995665Y-96191303D01*
X157994322Y-96190666D01*
X157853006Y-96122612D01*
X157853008Y-96122612D01*
X157609466Y-96047489D01*
X157609462Y-96047488D01*
X157609458Y-96047487D01*
X157488231Y-96029214D01*
X157357440Y-96009500D01*
X157357435Y-96009500D01*
X157102565Y-96009500D01*
X157102559Y-96009500D01*
X156945609Y-96033157D01*
X156850542Y-96047487D01*
X156850539Y-96047488D01*
X156850533Y-96047489D01*
X156606992Y-96122612D01*
X156377373Y-96233190D01*
X156377372Y-96233191D01*
X156166782Y-96376768D01*
X155979952Y-96550121D01*
X155979950Y-96550123D01*
X155821041Y-96749388D01*
X155693608Y-96970109D01*
X155600492Y-97207362D01*
X155600490Y-97207369D01*
X155543777Y-97455845D01*
X155524732Y-97709995D01*
X155524732Y-97710004D01*
X155543777Y-97964154D01*
X155543778Y-97964157D01*
X155600492Y-98212637D01*
X155693607Y-98449888D01*
X155821041Y-98670612D01*
X155979950Y-98869877D01*
X156166783Y-99043232D01*
X156377366Y-99186805D01*
X156377371Y-99186807D01*
X156377372Y-99186808D01*
X156377373Y-99186809D01*
X156499328Y-99245538D01*
X156606992Y-99297387D01*
X156606993Y-99297387D01*
X156606996Y-99297389D01*
X156850542Y-99372513D01*
X157102565Y-99410500D01*
X157357435Y-99410500D01*
X157609458Y-99372513D01*
X157853004Y-99297389D01*
X158082634Y-99186805D01*
X158293217Y-99043232D01*
X158480050Y-98869877D01*
X158638959Y-98670612D01*
X158766393Y-98449888D01*
X158859508Y-98212637D01*
X158916222Y-97964157D01*
X158935268Y-97710000D01*
X158916222Y-97455843D01*
X158859508Y-97207363D01*
X158766393Y-96970112D01*
X158757561Y-96954815D01*
X158741088Y-96886917D01*
X158763939Y-96820890D01*
X158818860Y-96777698D01*
X158888413Y-96771055D01*
X158909734Y-96777185D01*
X158956931Y-96795470D01*
X159171074Y-96835500D01*
X159171076Y-96835500D01*
X159388924Y-96835500D01*
X159388926Y-96835500D01*
X159603069Y-96795470D01*
X159650257Y-96777188D01*
X159719880Y-96771326D01*
X159781620Y-96804036D01*
X159815875Y-96864932D01*
X159811770Y-96934681D01*
X159802439Y-96954813D01*
X159793608Y-96970107D01*
X159700492Y-97207362D01*
X159700490Y-97207369D01*
X159643777Y-97455845D01*
X159624732Y-97709995D01*
X159624732Y-97710004D01*
X159643777Y-97964154D01*
X159643778Y-97964157D01*
X159700492Y-98212637D01*
X159793607Y-98449888D01*
X159921041Y-98670612D01*
X160079950Y-98869877D01*
X160266783Y-99043232D01*
X160477366Y-99186805D01*
X160477371Y-99186807D01*
X160477372Y-99186808D01*
X160477373Y-99186809D01*
X160599328Y-99245538D01*
X160706992Y-99297387D01*
X160706993Y-99297387D01*
X160706996Y-99297389D01*
X160950542Y-99372513D01*
X161202565Y-99410500D01*
X161457435Y-99410500D01*
X161709458Y-99372513D01*
X161953004Y-99297389D01*
X162182634Y-99186805D01*
X162393217Y-99043232D01*
X162580050Y-98869877D01*
X162738959Y-98670612D01*
X162866393Y-98449888D01*
X162959508Y-98212637D01*
X163016222Y-97964157D01*
X163035268Y-97710000D01*
X163016222Y-97455843D01*
X162959508Y-97207363D01*
X162866393Y-96970112D01*
X162738959Y-96749388D01*
X162580050Y-96550123D01*
X162393217Y-96376768D01*
X162182634Y-96233195D01*
X162182630Y-96233193D01*
X162182627Y-96233191D01*
X162182626Y-96233190D01*
X161953006Y-96122612D01*
X161953008Y-96122612D01*
X161709466Y-96047489D01*
X161709462Y-96047488D01*
X161709458Y-96047487D01*
X161588231Y-96029214D01*
X161457440Y-96009500D01*
X161457435Y-96009500D01*
X161202565Y-96009500D01*
X161202559Y-96009500D01*
X161045609Y-96033157D01*
X160950542Y-96047487D01*
X160950539Y-96047488D01*
X160950533Y-96047489D01*
X160706992Y-96122612D01*
X160565677Y-96190666D01*
X160496736Y-96202018D01*
X160432601Y-96174296D01*
X160393636Y-96116300D01*
X160392211Y-96046445D01*
X160392610Y-96045012D01*
X160440434Y-95876925D01*
X160440435Y-95876922D01*
X160460536Y-95660000D01*
X160460536Y-95659999D01*
X160440435Y-95443077D01*
X160440434Y-95443074D01*
X160392610Y-95274987D01*
X160393197Y-95205120D01*
X160431464Y-95146661D01*
X160495261Y-95118171D01*
X160564333Y-95128695D01*
X160565563Y-95129278D01*
X160706996Y-95197389D01*
X160950542Y-95272513D01*
X161202565Y-95310500D01*
X161457435Y-95310500D01*
X161709458Y-95272513D01*
X161953004Y-95197389D01*
X162182634Y-95086805D01*
X162393217Y-94943232D01*
X162580050Y-94769877D01*
X162738959Y-94570612D01*
X162866393Y-94349888D01*
X162959508Y-94112637D01*
X163016222Y-93864157D01*
X163035268Y-93610000D01*
X163035268Y-93609995D01*
X180924732Y-93609995D01*
X180924732Y-93610004D01*
X180943777Y-93864154D01*
X180994560Y-94086650D01*
X181000492Y-94112637D01*
X181093607Y-94349888D01*
X181221041Y-94570612D01*
X181379950Y-94769877D01*
X181566783Y-94943232D01*
X181777366Y-95086805D01*
X181777371Y-95086807D01*
X181777372Y-95086808D01*
X181777373Y-95086809D01*
X181842498Y-95118171D01*
X182006992Y-95197387D01*
X182006993Y-95197387D01*
X182006996Y-95197389D01*
X182250542Y-95272513D01*
X182502565Y-95310500D01*
X182757435Y-95310500D01*
X183009458Y-95272513D01*
X183253004Y-95197389D01*
X183394325Y-95129332D01*
X183463262Y-95117981D01*
X183527397Y-95145703D01*
X183566363Y-95203698D01*
X183567788Y-95273553D01*
X183567390Y-95274986D01*
X183519564Y-95443079D01*
X183499464Y-95659999D01*
X183499464Y-95660000D01*
X183519564Y-95876920D01*
X183567390Y-96045013D01*
X183566802Y-96114880D01*
X183528535Y-96173338D01*
X183464738Y-96201828D01*
X183395665Y-96191303D01*
X183394322Y-96190666D01*
X183253006Y-96122612D01*
X183253008Y-96122612D01*
X183009466Y-96047489D01*
X183009462Y-96047488D01*
X183009458Y-96047487D01*
X182888231Y-96029214D01*
X182757440Y-96009500D01*
X182757435Y-96009500D01*
X182502565Y-96009500D01*
X182502559Y-96009500D01*
X182345609Y-96033157D01*
X182250542Y-96047487D01*
X182250539Y-96047488D01*
X182250533Y-96047489D01*
X182006992Y-96122612D01*
X181777373Y-96233190D01*
X181777372Y-96233191D01*
X181566782Y-96376768D01*
X181379952Y-96550121D01*
X181379950Y-96550123D01*
X181221041Y-96749388D01*
X181093608Y-96970109D01*
X181000492Y-97207362D01*
X181000490Y-97207369D01*
X180943777Y-97455845D01*
X180924732Y-97709995D01*
X180924732Y-97710004D01*
X180943777Y-97964154D01*
X180943778Y-97964157D01*
X181000492Y-98212637D01*
X181093607Y-98449888D01*
X181221041Y-98670612D01*
X181379950Y-98869877D01*
X181566783Y-99043232D01*
X181777366Y-99186805D01*
X181777371Y-99186807D01*
X181777372Y-99186808D01*
X181777373Y-99186809D01*
X181899328Y-99245538D01*
X182006992Y-99297387D01*
X182006993Y-99297387D01*
X182006996Y-99297389D01*
X182250542Y-99372513D01*
X182502565Y-99410500D01*
X182757435Y-99410500D01*
X183009458Y-99372513D01*
X183253004Y-99297389D01*
X183482634Y-99186805D01*
X183693217Y-99043232D01*
X183880050Y-98869877D01*
X184038959Y-98670612D01*
X184166393Y-98449888D01*
X184259508Y-98212637D01*
X184316222Y-97964157D01*
X184335268Y-97710000D01*
X184316222Y-97455843D01*
X184259508Y-97207363D01*
X184166393Y-96970112D01*
X184157561Y-96954815D01*
X184141088Y-96886917D01*
X184163939Y-96820890D01*
X184218860Y-96777698D01*
X184288413Y-96771055D01*
X184309734Y-96777185D01*
X184356931Y-96795470D01*
X184571074Y-96835500D01*
X184571076Y-96835500D01*
X184788924Y-96835500D01*
X184788926Y-96835500D01*
X185003069Y-96795470D01*
X185050257Y-96777188D01*
X185119880Y-96771326D01*
X185181620Y-96804036D01*
X185215875Y-96864932D01*
X185211770Y-96934681D01*
X185202439Y-96954813D01*
X185193608Y-96970107D01*
X185100492Y-97207362D01*
X185100490Y-97207369D01*
X185043777Y-97455845D01*
X185024732Y-97709995D01*
X185024732Y-97710004D01*
X185043777Y-97964154D01*
X185043778Y-97964157D01*
X185100492Y-98212637D01*
X185193607Y-98449888D01*
X185321041Y-98670612D01*
X185479950Y-98869877D01*
X185666783Y-99043232D01*
X185877366Y-99186805D01*
X185877371Y-99186807D01*
X185877372Y-99186808D01*
X185877373Y-99186809D01*
X185999328Y-99245538D01*
X186106992Y-99297387D01*
X186106993Y-99297387D01*
X186106996Y-99297389D01*
X186350542Y-99372513D01*
X186602565Y-99410500D01*
X186857435Y-99410500D01*
X187109458Y-99372513D01*
X187353004Y-99297389D01*
X187582634Y-99186805D01*
X187793217Y-99043232D01*
X187980050Y-98869877D01*
X188138959Y-98670612D01*
X188266393Y-98449888D01*
X188359508Y-98212637D01*
X188416222Y-97964157D01*
X188435268Y-97710000D01*
X188416222Y-97455843D01*
X188359508Y-97207363D01*
X188266393Y-96970112D01*
X188138959Y-96749388D01*
X187980050Y-96550123D01*
X187793217Y-96376768D01*
X187582634Y-96233195D01*
X187582630Y-96233193D01*
X187582627Y-96233191D01*
X187582626Y-96233190D01*
X187353006Y-96122612D01*
X187353008Y-96122612D01*
X187109466Y-96047489D01*
X187109462Y-96047488D01*
X187109458Y-96047487D01*
X186988231Y-96029214D01*
X186857440Y-96009500D01*
X186857435Y-96009500D01*
X186602565Y-96009500D01*
X186602559Y-96009500D01*
X186445609Y-96033157D01*
X186350542Y-96047487D01*
X186350539Y-96047488D01*
X186350533Y-96047489D01*
X186106992Y-96122612D01*
X185965677Y-96190666D01*
X185896736Y-96202018D01*
X185832601Y-96174296D01*
X185793636Y-96116300D01*
X185792211Y-96046445D01*
X185792610Y-96045012D01*
X185840434Y-95876925D01*
X185840435Y-95876922D01*
X185860536Y-95660000D01*
X185860536Y-95659999D01*
X185849904Y-95545258D01*
X203249500Y-95545258D01*
X203249500Y-95774741D01*
X203262954Y-95876925D01*
X203279452Y-96002238D01*
X203311706Y-96122612D01*
X203338842Y-96223887D01*
X203426650Y-96435876D01*
X203426657Y-96435890D01*
X203541392Y-96634617D01*
X203681081Y-96816661D01*
X203681089Y-96816670D01*
X203843330Y-96978911D01*
X203843338Y-96978918D01*
X204025382Y-97118607D01*
X204025385Y-97118608D01*
X204025388Y-97118611D01*
X204224112Y-97233344D01*
X204224117Y-97233346D01*
X204224123Y-97233349D01*
X204315480Y-97271190D01*
X204436113Y-97321158D01*
X204657762Y-97380548D01*
X204885266Y-97410500D01*
X204885273Y-97410500D01*
X205114727Y-97410500D01*
X205114734Y-97410500D01*
X205342238Y-97380548D01*
X205563887Y-97321158D01*
X205775888Y-97233344D01*
X205974612Y-97118611D01*
X206156661Y-96978919D01*
X206156665Y-96978914D01*
X206156670Y-96978911D01*
X206318911Y-96816670D01*
X206318914Y-96816665D01*
X206318919Y-96816661D01*
X206458611Y-96634612D01*
X206573344Y-96435888D01*
X206661158Y-96223887D01*
X206720548Y-96002238D01*
X206750500Y-95774734D01*
X206750500Y-95545266D01*
X206720548Y-95317762D01*
X206661158Y-95096113D01*
X206611190Y-94975480D01*
X206573349Y-94884123D01*
X206573346Y-94884117D01*
X206573344Y-94884112D01*
X206458611Y-94685388D01*
X206458608Y-94685385D01*
X206458607Y-94685382D01*
X206349207Y-94542811D01*
X206318919Y-94503339D01*
X206318918Y-94503338D01*
X206318911Y-94503330D01*
X206156670Y-94341089D01*
X206156661Y-94341081D01*
X205974617Y-94201392D01*
X205775890Y-94086657D01*
X205775876Y-94086650D01*
X205563887Y-93998842D01*
X205342238Y-93939452D01*
X205304215Y-93934446D01*
X205114741Y-93909500D01*
X205114734Y-93909500D01*
X204885266Y-93909500D01*
X204885258Y-93909500D01*
X204668715Y-93938009D01*
X204657762Y-93939452D01*
X204564076Y-93964554D01*
X204436112Y-93998842D01*
X204224123Y-94086650D01*
X204224109Y-94086657D01*
X204025382Y-94201392D01*
X203843338Y-94341081D01*
X203681081Y-94503338D01*
X203541392Y-94685382D01*
X203426657Y-94884109D01*
X203426650Y-94884123D01*
X203338842Y-95096112D01*
X203325298Y-95146661D01*
X203290914Y-95274987D01*
X203279453Y-95317759D01*
X203279451Y-95317770D01*
X203249500Y-95545258D01*
X185849904Y-95545258D01*
X185840435Y-95443077D01*
X185840434Y-95443074D01*
X185792610Y-95274987D01*
X185793197Y-95205120D01*
X185831464Y-95146661D01*
X185895261Y-95118171D01*
X185964333Y-95128695D01*
X185965563Y-95129278D01*
X186106996Y-95197389D01*
X186350542Y-95272513D01*
X186602565Y-95310500D01*
X186857435Y-95310500D01*
X187109458Y-95272513D01*
X187353004Y-95197389D01*
X187582634Y-95086805D01*
X187793217Y-94943232D01*
X187980050Y-94769877D01*
X188138959Y-94570612D01*
X188266393Y-94349888D01*
X188359508Y-94112637D01*
X188416222Y-93864157D01*
X188435268Y-93610000D01*
X188435268Y-93609995D01*
X231724732Y-93609995D01*
X231724732Y-93610004D01*
X231743777Y-93864154D01*
X231794560Y-94086650D01*
X231800492Y-94112637D01*
X231893607Y-94349888D01*
X232021041Y-94570612D01*
X232179950Y-94769877D01*
X232366783Y-94943232D01*
X232577366Y-95086805D01*
X232577371Y-95086807D01*
X232577372Y-95086808D01*
X232577373Y-95086809D01*
X232642498Y-95118171D01*
X232806992Y-95197387D01*
X232806993Y-95197387D01*
X232806996Y-95197389D01*
X233050542Y-95272513D01*
X233302565Y-95310500D01*
X233557435Y-95310500D01*
X233809458Y-95272513D01*
X234053004Y-95197389D01*
X234194325Y-95129332D01*
X234263262Y-95117981D01*
X234327397Y-95145703D01*
X234366363Y-95203698D01*
X234367788Y-95273553D01*
X234367390Y-95274986D01*
X234319564Y-95443079D01*
X234299464Y-95659999D01*
X234299464Y-95660000D01*
X234319564Y-95876920D01*
X234367390Y-96045013D01*
X234366802Y-96114880D01*
X234328535Y-96173338D01*
X234264738Y-96201828D01*
X234195665Y-96191303D01*
X234194322Y-96190666D01*
X234053006Y-96122612D01*
X234053008Y-96122612D01*
X233809466Y-96047489D01*
X233809462Y-96047488D01*
X233809458Y-96047487D01*
X233688231Y-96029214D01*
X233557440Y-96009500D01*
X233557435Y-96009500D01*
X233302565Y-96009500D01*
X233302559Y-96009500D01*
X233145609Y-96033157D01*
X233050542Y-96047487D01*
X233050539Y-96047488D01*
X233050533Y-96047489D01*
X232806992Y-96122612D01*
X232577373Y-96233190D01*
X232577372Y-96233191D01*
X232366782Y-96376768D01*
X232179952Y-96550121D01*
X232179950Y-96550123D01*
X232021041Y-96749388D01*
X231893608Y-96970109D01*
X231800492Y-97207362D01*
X231800490Y-97207369D01*
X231743777Y-97455845D01*
X231724732Y-97709995D01*
X231724732Y-97710004D01*
X231743777Y-97964154D01*
X231743778Y-97964157D01*
X231800492Y-98212637D01*
X231893607Y-98449888D01*
X232021041Y-98670612D01*
X232179950Y-98869877D01*
X232366783Y-99043232D01*
X232577366Y-99186805D01*
X232577371Y-99186807D01*
X232577372Y-99186808D01*
X232577373Y-99186809D01*
X232699328Y-99245538D01*
X232806992Y-99297387D01*
X232806993Y-99297387D01*
X232806996Y-99297389D01*
X233050542Y-99372513D01*
X233302565Y-99410500D01*
X233557435Y-99410500D01*
X233809458Y-99372513D01*
X234053004Y-99297389D01*
X234282634Y-99186805D01*
X234493217Y-99043232D01*
X234680050Y-98869877D01*
X234838959Y-98670612D01*
X234966393Y-98449888D01*
X235059508Y-98212637D01*
X235116222Y-97964157D01*
X235135268Y-97710000D01*
X235116222Y-97455843D01*
X235059508Y-97207363D01*
X234966393Y-96970112D01*
X234957561Y-96954815D01*
X234941088Y-96886917D01*
X234963939Y-96820890D01*
X235018860Y-96777698D01*
X235088413Y-96771055D01*
X235109734Y-96777185D01*
X235156931Y-96795470D01*
X235371074Y-96835500D01*
X235371076Y-96835500D01*
X235588924Y-96835500D01*
X235588926Y-96835500D01*
X235803069Y-96795470D01*
X235850257Y-96777188D01*
X235919880Y-96771326D01*
X235981620Y-96804036D01*
X236015875Y-96864932D01*
X236011770Y-96934681D01*
X236002439Y-96954813D01*
X235993608Y-96970107D01*
X235900492Y-97207362D01*
X235900490Y-97207369D01*
X235843777Y-97455845D01*
X235824732Y-97709995D01*
X235824732Y-97710004D01*
X235843777Y-97964154D01*
X235843778Y-97964157D01*
X235900492Y-98212637D01*
X235993607Y-98449888D01*
X236121041Y-98670612D01*
X236279950Y-98869877D01*
X236466783Y-99043232D01*
X236677366Y-99186805D01*
X236677371Y-99186807D01*
X236677372Y-99186808D01*
X236677373Y-99186809D01*
X236799328Y-99245538D01*
X236906992Y-99297387D01*
X236906993Y-99297387D01*
X236906996Y-99297389D01*
X237150542Y-99372513D01*
X237402565Y-99410500D01*
X237657435Y-99410500D01*
X237909458Y-99372513D01*
X238153004Y-99297389D01*
X238382634Y-99186805D01*
X238593217Y-99043232D01*
X238780050Y-98869877D01*
X238938959Y-98670612D01*
X239066393Y-98449888D01*
X239159508Y-98212637D01*
X239216222Y-97964157D01*
X239235268Y-97710000D01*
X239216222Y-97455843D01*
X239159508Y-97207363D01*
X239066393Y-96970112D01*
X238938959Y-96749388D01*
X238780050Y-96550123D01*
X238593217Y-96376768D01*
X238382634Y-96233195D01*
X238382630Y-96233193D01*
X238382627Y-96233191D01*
X238382626Y-96233190D01*
X238153006Y-96122612D01*
X238153008Y-96122612D01*
X237909466Y-96047489D01*
X237909462Y-96047488D01*
X237909458Y-96047487D01*
X237788231Y-96029214D01*
X237657440Y-96009500D01*
X237657435Y-96009500D01*
X237402565Y-96009500D01*
X237402559Y-96009500D01*
X237245609Y-96033157D01*
X237150542Y-96047487D01*
X237150539Y-96047488D01*
X237150533Y-96047489D01*
X236906992Y-96122612D01*
X236765677Y-96190666D01*
X236696736Y-96202018D01*
X236632601Y-96174296D01*
X236593636Y-96116300D01*
X236592211Y-96046445D01*
X236592610Y-96045012D01*
X236640434Y-95876925D01*
X236640435Y-95876922D01*
X236660536Y-95660000D01*
X236660536Y-95659999D01*
X236640435Y-95443077D01*
X236640434Y-95443074D01*
X236592610Y-95274987D01*
X236593197Y-95205120D01*
X236631464Y-95146661D01*
X236695261Y-95118171D01*
X236764333Y-95128695D01*
X236765563Y-95129278D01*
X236906996Y-95197389D01*
X237150542Y-95272513D01*
X237402565Y-95310500D01*
X237657435Y-95310500D01*
X237909458Y-95272513D01*
X238153004Y-95197389D01*
X238382634Y-95086805D01*
X238593217Y-94943232D01*
X238780050Y-94769877D01*
X238938959Y-94570612D01*
X239066393Y-94349888D01*
X239159508Y-94112637D01*
X239216222Y-93864157D01*
X239235268Y-93610000D01*
X239235268Y-93609995D01*
X256894732Y-93609995D01*
X256894732Y-93610004D01*
X256913777Y-93864154D01*
X256964560Y-94086650D01*
X256970492Y-94112637D01*
X257063607Y-94349888D01*
X257191041Y-94570612D01*
X257349950Y-94769877D01*
X257536783Y-94943232D01*
X257747366Y-95086805D01*
X257747371Y-95086807D01*
X257747372Y-95086808D01*
X257747373Y-95086809D01*
X257812498Y-95118171D01*
X257976992Y-95197387D01*
X257976993Y-95197387D01*
X257976996Y-95197389D01*
X258220542Y-95272513D01*
X258472565Y-95310500D01*
X258727435Y-95310500D01*
X258979458Y-95272513D01*
X259223004Y-95197389D01*
X259364325Y-95129332D01*
X259433262Y-95117981D01*
X259497397Y-95145703D01*
X259536363Y-95203698D01*
X259537788Y-95273553D01*
X259537390Y-95274986D01*
X259489564Y-95443079D01*
X259469464Y-95659999D01*
X259469464Y-95660000D01*
X259489564Y-95876920D01*
X259537390Y-96045013D01*
X259536802Y-96114880D01*
X259498535Y-96173338D01*
X259434738Y-96201828D01*
X259365665Y-96191303D01*
X259364322Y-96190666D01*
X259223006Y-96122612D01*
X259223008Y-96122612D01*
X258979466Y-96047489D01*
X258979462Y-96047488D01*
X258979458Y-96047487D01*
X258858231Y-96029214D01*
X258727440Y-96009500D01*
X258727435Y-96009500D01*
X258472565Y-96009500D01*
X258472559Y-96009500D01*
X258315609Y-96033157D01*
X258220542Y-96047487D01*
X258220539Y-96047488D01*
X258220533Y-96047489D01*
X257976992Y-96122612D01*
X257747373Y-96233190D01*
X257747372Y-96233191D01*
X257536782Y-96376768D01*
X257349952Y-96550121D01*
X257349950Y-96550123D01*
X257191041Y-96749388D01*
X257063608Y-96970109D01*
X256970492Y-97207362D01*
X256970490Y-97207369D01*
X256913777Y-97455845D01*
X256894732Y-97709995D01*
X256894732Y-97710004D01*
X256913777Y-97964154D01*
X256913778Y-97964157D01*
X256970492Y-98212637D01*
X257063607Y-98449888D01*
X257191041Y-98670612D01*
X257349950Y-98869877D01*
X257536783Y-99043232D01*
X257747366Y-99186805D01*
X257747371Y-99186807D01*
X257747372Y-99186808D01*
X257747373Y-99186809D01*
X257869328Y-99245538D01*
X257976992Y-99297387D01*
X257976993Y-99297387D01*
X257976996Y-99297389D01*
X258220542Y-99372513D01*
X258472565Y-99410500D01*
X258727435Y-99410500D01*
X258979458Y-99372513D01*
X259223004Y-99297389D01*
X259452634Y-99186805D01*
X259663217Y-99043232D01*
X259850050Y-98869877D01*
X260008959Y-98670612D01*
X260136393Y-98449888D01*
X260229508Y-98212637D01*
X260286222Y-97964157D01*
X260305268Y-97710000D01*
X260286222Y-97455843D01*
X260229508Y-97207363D01*
X260136393Y-96970112D01*
X260127561Y-96954815D01*
X260111088Y-96886917D01*
X260133939Y-96820890D01*
X260188860Y-96777698D01*
X260258413Y-96771055D01*
X260279734Y-96777185D01*
X260326931Y-96795470D01*
X260541074Y-96835500D01*
X260541076Y-96835500D01*
X260758924Y-96835500D01*
X260758926Y-96835500D01*
X260973069Y-96795470D01*
X261020257Y-96777188D01*
X261089880Y-96771326D01*
X261151620Y-96804036D01*
X261185875Y-96864932D01*
X261181770Y-96934681D01*
X261172439Y-96954813D01*
X261163608Y-96970107D01*
X261070492Y-97207362D01*
X261070490Y-97207369D01*
X261013777Y-97455845D01*
X260994732Y-97709995D01*
X260994732Y-97710004D01*
X261013777Y-97964154D01*
X261013778Y-97964157D01*
X261070492Y-98212637D01*
X261163607Y-98449888D01*
X261291041Y-98670612D01*
X261449950Y-98869877D01*
X261636783Y-99043232D01*
X261847366Y-99186805D01*
X261847371Y-99186807D01*
X261847372Y-99186808D01*
X261847373Y-99186809D01*
X261969328Y-99245538D01*
X262076992Y-99297387D01*
X262076993Y-99297387D01*
X262076996Y-99297389D01*
X262320542Y-99372513D01*
X262572565Y-99410500D01*
X262827435Y-99410500D01*
X263079458Y-99372513D01*
X263323004Y-99297389D01*
X263552634Y-99186805D01*
X263763217Y-99043232D01*
X263950050Y-98869877D01*
X264108959Y-98670612D01*
X264236393Y-98449888D01*
X264329508Y-98212637D01*
X264386222Y-97964157D01*
X264405268Y-97710000D01*
X264386222Y-97455843D01*
X264329508Y-97207363D01*
X264236393Y-96970112D01*
X264108959Y-96749388D01*
X263950050Y-96550123D01*
X263763217Y-96376768D01*
X263552634Y-96233195D01*
X263552630Y-96233193D01*
X263552627Y-96233191D01*
X263552626Y-96233190D01*
X263323006Y-96122612D01*
X263323008Y-96122612D01*
X263079466Y-96047489D01*
X263079462Y-96047488D01*
X263079458Y-96047487D01*
X262958231Y-96029214D01*
X262827440Y-96009500D01*
X262827435Y-96009500D01*
X262572565Y-96009500D01*
X262572559Y-96009500D01*
X262415609Y-96033157D01*
X262320542Y-96047487D01*
X262320539Y-96047488D01*
X262320533Y-96047489D01*
X262076992Y-96122612D01*
X261935677Y-96190666D01*
X261866736Y-96202018D01*
X261802601Y-96174296D01*
X261763636Y-96116300D01*
X261762211Y-96046445D01*
X261762610Y-96045012D01*
X261810434Y-95876925D01*
X261810435Y-95876922D01*
X261830536Y-95660000D01*
X261830536Y-95659999D01*
X261810435Y-95443077D01*
X261810434Y-95443074D01*
X261762610Y-95274987D01*
X261763197Y-95205120D01*
X261801464Y-95146661D01*
X261865261Y-95118171D01*
X261934333Y-95128695D01*
X261935563Y-95129278D01*
X262076996Y-95197389D01*
X262320542Y-95272513D01*
X262572565Y-95310500D01*
X262827435Y-95310500D01*
X263079458Y-95272513D01*
X263323004Y-95197389D01*
X263552634Y-95086805D01*
X263763217Y-94943232D01*
X263950050Y-94769877D01*
X264108959Y-94570612D01*
X264236393Y-94349888D01*
X264329508Y-94112637D01*
X264386222Y-93864157D01*
X264405268Y-93610000D01*
X264405268Y-93609995D01*
X282524732Y-93609995D01*
X282524732Y-93610004D01*
X282543777Y-93864154D01*
X282594560Y-94086650D01*
X282600492Y-94112637D01*
X282693607Y-94349888D01*
X282821041Y-94570612D01*
X282979950Y-94769877D01*
X283166783Y-94943232D01*
X283377366Y-95086805D01*
X283377371Y-95086807D01*
X283377372Y-95086808D01*
X283377373Y-95086809D01*
X283442498Y-95118171D01*
X283606992Y-95197387D01*
X283606993Y-95197387D01*
X283606996Y-95197389D01*
X283850542Y-95272513D01*
X284102565Y-95310500D01*
X284357435Y-95310500D01*
X284609458Y-95272513D01*
X284853004Y-95197389D01*
X284994325Y-95129332D01*
X285063262Y-95117981D01*
X285127397Y-95145703D01*
X285166363Y-95203698D01*
X285167788Y-95273553D01*
X285167390Y-95274986D01*
X285119564Y-95443079D01*
X285099464Y-95659999D01*
X285099464Y-95660000D01*
X285119564Y-95876920D01*
X285167390Y-96045013D01*
X285166802Y-96114880D01*
X285128535Y-96173338D01*
X285064738Y-96201828D01*
X284995665Y-96191303D01*
X284994322Y-96190666D01*
X284853006Y-96122612D01*
X284853008Y-96122612D01*
X284609466Y-96047489D01*
X284609462Y-96047488D01*
X284609458Y-96047487D01*
X284488231Y-96029214D01*
X284357440Y-96009500D01*
X284357435Y-96009500D01*
X284102565Y-96009500D01*
X284102559Y-96009500D01*
X283945609Y-96033157D01*
X283850542Y-96047487D01*
X283850539Y-96047488D01*
X283850533Y-96047489D01*
X283606992Y-96122612D01*
X283377373Y-96233190D01*
X283377372Y-96233191D01*
X283166782Y-96376768D01*
X282979952Y-96550121D01*
X282979950Y-96550123D01*
X282821041Y-96749388D01*
X282693608Y-96970109D01*
X282600492Y-97207362D01*
X282600490Y-97207369D01*
X282543777Y-97455845D01*
X282524732Y-97709995D01*
X282524732Y-97710004D01*
X282543777Y-97964154D01*
X282543778Y-97964157D01*
X282600492Y-98212637D01*
X282693607Y-98449888D01*
X282821041Y-98670612D01*
X282979950Y-98869877D01*
X283166783Y-99043232D01*
X283377366Y-99186805D01*
X283377371Y-99186807D01*
X283377372Y-99186808D01*
X283377373Y-99186809D01*
X283499328Y-99245538D01*
X283606992Y-99297387D01*
X283606993Y-99297387D01*
X283606996Y-99297389D01*
X283850542Y-99372513D01*
X284102565Y-99410500D01*
X284357435Y-99410500D01*
X284609458Y-99372513D01*
X284853004Y-99297389D01*
X285082634Y-99186805D01*
X285293217Y-99043232D01*
X285480050Y-98869877D01*
X285638959Y-98670612D01*
X285766393Y-98449888D01*
X285859508Y-98212637D01*
X285916222Y-97964157D01*
X285935268Y-97710000D01*
X285916222Y-97455843D01*
X285859508Y-97207363D01*
X285766393Y-96970112D01*
X285757561Y-96954815D01*
X285741088Y-96886917D01*
X285763939Y-96820890D01*
X285818860Y-96777698D01*
X285888413Y-96771055D01*
X285909734Y-96777185D01*
X285956931Y-96795470D01*
X286171074Y-96835500D01*
X286171076Y-96835500D01*
X286388924Y-96835500D01*
X286388926Y-96835500D01*
X286603069Y-96795470D01*
X286650257Y-96777188D01*
X286719880Y-96771326D01*
X286781620Y-96804036D01*
X286815875Y-96864932D01*
X286811770Y-96934681D01*
X286802439Y-96954813D01*
X286793608Y-96970107D01*
X286700492Y-97207362D01*
X286700490Y-97207369D01*
X286643777Y-97455845D01*
X286624732Y-97709995D01*
X286624732Y-97710004D01*
X286643777Y-97964154D01*
X286643778Y-97964157D01*
X286700492Y-98212637D01*
X286793607Y-98449888D01*
X286921041Y-98670612D01*
X287079950Y-98869877D01*
X287266783Y-99043232D01*
X287477366Y-99186805D01*
X287477371Y-99186807D01*
X287477372Y-99186808D01*
X287477373Y-99186809D01*
X287599328Y-99245538D01*
X287706992Y-99297387D01*
X287706993Y-99297387D01*
X287706996Y-99297389D01*
X287950542Y-99372513D01*
X288202565Y-99410500D01*
X288457435Y-99410500D01*
X288709458Y-99372513D01*
X288953004Y-99297389D01*
X289182634Y-99186805D01*
X289393217Y-99043232D01*
X289580050Y-98869877D01*
X289738959Y-98670612D01*
X289866393Y-98449888D01*
X289959508Y-98212637D01*
X290016222Y-97964157D01*
X290035268Y-97710000D01*
X290016222Y-97455843D01*
X289959508Y-97207363D01*
X289866393Y-96970112D01*
X289738959Y-96749388D01*
X289580050Y-96550123D01*
X289393217Y-96376768D01*
X289182634Y-96233195D01*
X289182630Y-96233193D01*
X289182627Y-96233191D01*
X289182626Y-96233190D01*
X288953006Y-96122612D01*
X288953008Y-96122612D01*
X288709466Y-96047489D01*
X288709462Y-96047488D01*
X288709458Y-96047487D01*
X288588231Y-96029214D01*
X288457440Y-96009500D01*
X288457435Y-96009500D01*
X288202565Y-96009500D01*
X288202559Y-96009500D01*
X288045609Y-96033157D01*
X287950542Y-96047487D01*
X287950539Y-96047488D01*
X287950533Y-96047489D01*
X287706992Y-96122612D01*
X287565677Y-96190666D01*
X287496736Y-96202018D01*
X287432601Y-96174296D01*
X287393636Y-96116300D01*
X287392211Y-96046445D01*
X287392610Y-96045012D01*
X287440434Y-95876925D01*
X287440435Y-95876922D01*
X287460536Y-95660000D01*
X287460536Y-95659999D01*
X287440435Y-95443077D01*
X287440434Y-95443074D01*
X287392610Y-95274987D01*
X287393197Y-95205120D01*
X287431464Y-95146661D01*
X287495261Y-95118171D01*
X287564333Y-95128695D01*
X287565563Y-95129278D01*
X287706996Y-95197389D01*
X287950542Y-95272513D01*
X288202565Y-95310500D01*
X288457435Y-95310500D01*
X288709458Y-95272513D01*
X288953004Y-95197389D01*
X289182634Y-95086805D01*
X289393217Y-94943232D01*
X289580050Y-94769877D01*
X289738959Y-94570612D01*
X289866393Y-94349888D01*
X289959508Y-94112637D01*
X290016222Y-93864157D01*
X290035268Y-93610000D01*
X290035268Y-93609995D01*
X307924732Y-93609995D01*
X307924732Y-93610004D01*
X307943777Y-93864154D01*
X307994560Y-94086650D01*
X308000492Y-94112637D01*
X308093607Y-94349888D01*
X308221041Y-94570612D01*
X308379950Y-94769877D01*
X308566783Y-94943232D01*
X308777366Y-95086805D01*
X308777371Y-95086807D01*
X308777372Y-95086808D01*
X308777373Y-95086809D01*
X308842498Y-95118171D01*
X309006992Y-95197387D01*
X309006993Y-95197387D01*
X309006996Y-95197389D01*
X309250542Y-95272513D01*
X309502565Y-95310500D01*
X309757435Y-95310500D01*
X310009458Y-95272513D01*
X310253004Y-95197389D01*
X310394325Y-95129332D01*
X310463262Y-95117981D01*
X310527397Y-95145703D01*
X310566363Y-95203698D01*
X310567788Y-95273553D01*
X310567390Y-95274986D01*
X310519564Y-95443079D01*
X310499464Y-95659999D01*
X310499464Y-95660000D01*
X310519564Y-95876920D01*
X310567390Y-96045013D01*
X310566802Y-96114880D01*
X310528535Y-96173338D01*
X310464738Y-96201828D01*
X310395665Y-96191303D01*
X310394322Y-96190666D01*
X310253006Y-96122612D01*
X310253008Y-96122612D01*
X310009466Y-96047489D01*
X310009462Y-96047488D01*
X310009458Y-96047487D01*
X309888231Y-96029214D01*
X309757440Y-96009500D01*
X309757435Y-96009500D01*
X309502565Y-96009500D01*
X309502559Y-96009500D01*
X309345609Y-96033157D01*
X309250542Y-96047487D01*
X309250539Y-96047488D01*
X309250533Y-96047489D01*
X309006992Y-96122612D01*
X308777373Y-96233190D01*
X308777372Y-96233191D01*
X308566782Y-96376768D01*
X308379952Y-96550121D01*
X308379950Y-96550123D01*
X308221041Y-96749388D01*
X308093608Y-96970109D01*
X308000492Y-97207362D01*
X308000490Y-97207369D01*
X307943777Y-97455845D01*
X307924732Y-97709995D01*
X307924732Y-97710004D01*
X307943777Y-97964154D01*
X307943778Y-97964157D01*
X308000492Y-98212637D01*
X308093607Y-98449888D01*
X308221041Y-98670612D01*
X308379950Y-98869877D01*
X308566783Y-99043232D01*
X308777366Y-99186805D01*
X308777371Y-99186807D01*
X308777372Y-99186808D01*
X308777373Y-99186809D01*
X308899328Y-99245538D01*
X309006992Y-99297387D01*
X309006993Y-99297387D01*
X309006996Y-99297389D01*
X309250542Y-99372513D01*
X309502565Y-99410500D01*
X309757435Y-99410500D01*
X310009458Y-99372513D01*
X310253004Y-99297389D01*
X310482634Y-99186805D01*
X310693217Y-99043232D01*
X310880050Y-98869877D01*
X311038959Y-98670612D01*
X311166393Y-98449888D01*
X311259508Y-98212637D01*
X311316222Y-97964157D01*
X311335268Y-97710000D01*
X311316222Y-97455843D01*
X311259508Y-97207363D01*
X311166393Y-96970112D01*
X311157561Y-96954815D01*
X311141088Y-96886917D01*
X311163939Y-96820890D01*
X311218860Y-96777698D01*
X311288413Y-96771055D01*
X311309734Y-96777185D01*
X311356931Y-96795470D01*
X311571074Y-96835500D01*
X311571076Y-96835500D01*
X311788924Y-96835500D01*
X311788926Y-96835500D01*
X312003069Y-96795470D01*
X312050257Y-96777188D01*
X312119880Y-96771326D01*
X312181620Y-96804036D01*
X312215875Y-96864932D01*
X312211770Y-96934681D01*
X312202439Y-96954813D01*
X312193608Y-96970107D01*
X312100492Y-97207362D01*
X312100490Y-97207369D01*
X312043777Y-97455845D01*
X312024732Y-97709995D01*
X312024732Y-97710004D01*
X312043777Y-97964154D01*
X312043778Y-97964157D01*
X312100492Y-98212637D01*
X312193607Y-98449888D01*
X312321041Y-98670612D01*
X312479950Y-98869877D01*
X312666783Y-99043232D01*
X312877366Y-99186805D01*
X312877371Y-99186807D01*
X312877372Y-99186808D01*
X312877373Y-99186809D01*
X312999328Y-99245538D01*
X313106992Y-99297387D01*
X313106993Y-99297387D01*
X313106996Y-99297389D01*
X313350542Y-99372513D01*
X313602565Y-99410500D01*
X313857435Y-99410500D01*
X314109458Y-99372513D01*
X314353004Y-99297389D01*
X314582634Y-99186805D01*
X314793217Y-99043232D01*
X314980050Y-98869877D01*
X315138959Y-98670612D01*
X315266393Y-98449888D01*
X315359508Y-98212637D01*
X315416222Y-97964157D01*
X315435268Y-97710000D01*
X315416222Y-97455843D01*
X315359508Y-97207363D01*
X315266393Y-96970112D01*
X315138959Y-96749388D01*
X314980050Y-96550123D01*
X314793217Y-96376768D01*
X314582634Y-96233195D01*
X314582630Y-96233193D01*
X314582627Y-96233191D01*
X314582626Y-96233190D01*
X314353006Y-96122612D01*
X314353008Y-96122612D01*
X314109466Y-96047489D01*
X314109462Y-96047488D01*
X314109458Y-96047487D01*
X313988231Y-96029214D01*
X313857440Y-96009500D01*
X313857435Y-96009500D01*
X313602565Y-96009500D01*
X313602559Y-96009500D01*
X313445609Y-96033157D01*
X313350542Y-96047487D01*
X313350539Y-96047488D01*
X313350533Y-96047489D01*
X313106992Y-96122612D01*
X312965677Y-96190666D01*
X312896736Y-96202018D01*
X312832601Y-96174296D01*
X312793636Y-96116300D01*
X312792211Y-96046445D01*
X312792610Y-96045012D01*
X312840434Y-95876925D01*
X312840435Y-95876922D01*
X312860536Y-95660000D01*
X312860536Y-95659999D01*
X312849904Y-95545258D01*
X330249500Y-95545258D01*
X330249500Y-95774741D01*
X330262954Y-95876925D01*
X330279452Y-96002238D01*
X330311706Y-96122612D01*
X330338842Y-96223887D01*
X330426650Y-96435876D01*
X330426657Y-96435890D01*
X330541392Y-96634617D01*
X330681081Y-96816661D01*
X330681089Y-96816670D01*
X330843330Y-96978911D01*
X330843338Y-96978918D01*
X331025382Y-97118607D01*
X331025385Y-97118608D01*
X331025388Y-97118611D01*
X331224112Y-97233344D01*
X331224117Y-97233346D01*
X331224123Y-97233349D01*
X331315480Y-97271190D01*
X331436113Y-97321158D01*
X331657762Y-97380548D01*
X331885266Y-97410500D01*
X331885273Y-97410500D01*
X332114727Y-97410500D01*
X332114734Y-97410500D01*
X332342238Y-97380548D01*
X332563887Y-97321158D01*
X332775888Y-97233344D01*
X332974612Y-97118611D01*
X333156661Y-96978919D01*
X333156665Y-96978914D01*
X333156670Y-96978911D01*
X333318911Y-96816670D01*
X333318914Y-96816665D01*
X333318919Y-96816661D01*
X333458611Y-96634612D01*
X333573344Y-96435888D01*
X333661158Y-96223887D01*
X333720548Y-96002238D01*
X333750500Y-95774734D01*
X333750500Y-95545266D01*
X333720548Y-95317762D01*
X333661158Y-95096113D01*
X333611190Y-94975480D01*
X333573349Y-94884123D01*
X333573346Y-94884117D01*
X333573344Y-94884112D01*
X333458611Y-94685388D01*
X333458608Y-94685385D01*
X333458607Y-94685382D01*
X333349207Y-94542811D01*
X333318919Y-94503339D01*
X333318918Y-94503338D01*
X333318911Y-94503330D01*
X333156670Y-94341089D01*
X333156661Y-94341081D01*
X332974617Y-94201392D01*
X332775890Y-94086657D01*
X332775876Y-94086650D01*
X332563887Y-93998842D01*
X332342238Y-93939452D01*
X332304215Y-93934446D01*
X332114741Y-93909500D01*
X332114734Y-93909500D01*
X331885266Y-93909500D01*
X331885258Y-93909500D01*
X331668715Y-93938009D01*
X331657762Y-93939452D01*
X331564076Y-93964554D01*
X331436112Y-93998842D01*
X331224123Y-94086650D01*
X331224109Y-94086657D01*
X331025382Y-94201392D01*
X330843338Y-94341081D01*
X330681081Y-94503338D01*
X330541392Y-94685382D01*
X330426657Y-94884109D01*
X330426650Y-94884123D01*
X330338842Y-95096112D01*
X330325298Y-95146661D01*
X330290914Y-95274987D01*
X330279453Y-95317759D01*
X330279451Y-95317770D01*
X330249500Y-95545258D01*
X312849904Y-95545258D01*
X312840435Y-95443077D01*
X312840434Y-95443074D01*
X312792610Y-95274987D01*
X312793197Y-95205120D01*
X312831464Y-95146661D01*
X312895261Y-95118171D01*
X312964333Y-95128695D01*
X312965563Y-95129278D01*
X313106996Y-95197389D01*
X313350542Y-95272513D01*
X313602565Y-95310500D01*
X313857435Y-95310500D01*
X314109458Y-95272513D01*
X314353004Y-95197389D01*
X314582634Y-95086805D01*
X314793217Y-94943232D01*
X314980050Y-94769877D01*
X315138959Y-94570612D01*
X315266393Y-94349888D01*
X315359508Y-94112637D01*
X315416222Y-93864157D01*
X315435268Y-93610000D01*
X315416222Y-93355843D01*
X315359508Y-93107363D01*
X315266393Y-92870112D01*
X315138959Y-92649388D01*
X314980050Y-92450123D01*
X314793217Y-92276768D01*
X314582634Y-92133195D01*
X314582630Y-92133193D01*
X314582627Y-92133191D01*
X314582626Y-92133190D01*
X314353006Y-92022612D01*
X314353008Y-92022612D01*
X314109466Y-91947489D01*
X314109462Y-91947488D01*
X314109458Y-91947487D01*
X313988231Y-91929214D01*
X313857440Y-91909500D01*
X313857435Y-91909500D01*
X313602565Y-91909500D01*
X313602559Y-91909500D01*
X313445609Y-91933157D01*
X313350542Y-91947487D01*
X313350539Y-91947488D01*
X313350533Y-91947489D01*
X313106992Y-92022612D01*
X312877373Y-92133190D01*
X312877372Y-92133191D01*
X312666782Y-92276768D01*
X312479952Y-92450121D01*
X312479950Y-92450123D01*
X312321041Y-92649388D01*
X312193608Y-92870109D01*
X312100492Y-93107362D01*
X312100490Y-93107369D01*
X312043777Y-93355845D01*
X312024732Y-93609995D01*
X312024732Y-93610004D01*
X312043777Y-93864154D01*
X312094560Y-94086650D01*
X312100492Y-94112637D01*
X312190150Y-94341081D01*
X312193608Y-94349890D01*
X312202438Y-94365184D01*
X312218911Y-94433084D01*
X312196059Y-94499111D01*
X312141137Y-94542302D01*
X312071584Y-94548943D01*
X312050259Y-94542811D01*
X312003075Y-94524532D01*
X312003073Y-94524531D01*
X312003069Y-94524530D01*
X311788926Y-94484500D01*
X311571074Y-94484500D01*
X311356931Y-94524530D01*
X311356928Y-94524531D01*
X311356924Y-94524532D01*
X311309740Y-94542811D01*
X311240116Y-94548672D01*
X311178377Y-94515961D01*
X311144123Y-94455064D01*
X311148230Y-94385315D01*
X311157557Y-94365190D01*
X311166393Y-94349888D01*
X311259508Y-94112637D01*
X311316222Y-93864157D01*
X311335268Y-93610000D01*
X311316222Y-93355843D01*
X311259508Y-93107363D01*
X311166393Y-92870112D01*
X311038959Y-92649388D01*
X310880050Y-92450123D01*
X310693217Y-92276768D01*
X310482634Y-92133195D01*
X310482630Y-92133193D01*
X310482627Y-92133191D01*
X310482626Y-92133190D01*
X310253006Y-92022612D01*
X310253008Y-92022612D01*
X310009466Y-91947489D01*
X310009462Y-91947488D01*
X310009458Y-91947487D01*
X309888231Y-91929214D01*
X309757440Y-91909500D01*
X309757435Y-91909500D01*
X309502565Y-91909500D01*
X309502559Y-91909500D01*
X309345609Y-91933157D01*
X309250542Y-91947487D01*
X309250539Y-91947488D01*
X309250533Y-91947489D01*
X309006992Y-92022612D01*
X308777373Y-92133190D01*
X308777372Y-92133191D01*
X308566782Y-92276768D01*
X308379952Y-92450121D01*
X308379950Y-92450123D01*
X308221041Y-92649388D01*
X308093608Y-92870109D01*
X308000492Y-93107362D01*
X308000490Y-93107369D01*
X307943777Y-93355845D01*
X307924732Y-93609995D01*
X290035268Y-93609995D01*
X290016222Y-93355843D01*
X289959508Y-93107363D01*
X289866393Y-92870112D01*
X289738959Y-92649388D01*
X289580050Y-92450123D01*
X289393217Y-92276768D01*
X289182634Y-92133195D01*
X289182630Y-92133193D01*
X289182627Y-92133191D01*
X289182626Y-92133190D01*
X288953006Y-92022612D01*
X288953008Y-92022612D01*
X288709466Y-91947489D01*
X288709462Y-91947488D01*
X288709458Y-91947487D01*
X288588231Y-91929214D01*
X288457440Y-91909500D01*
X288457435Y-91909500D01*
X288202565Y-91909500D01*
X288202559Y-91909500D01*
X288045609Y-91933157D01*
X287950542Y-91947487D01*
X287950539Y-91947488D01*
X287950533Y-91947489D01*
X287706992Y-92022612D01*
X287477373Y-92133190D01*
X287477372Y-92133191D01*
X287266782Y-92276768D01*
X287079952Y-92450121D01*
X287079950Y-92450123D01*
X286921041Y-92649388D01*
X286793608Y-92870109D01*
X286700492Y-93107362D01*
X286700490Y-93107369D01*
X286643777Y-93355845D01*
X286624732Y-93609995D01*
X286624732Y-93610004D01*
X286643777Y-93864154D01*
X286694560Y-94086650D01*
X286700492Y-94112637D01*
X286790150Y-94341081D01*
X286793608Y-94349890D01*
X286802438Y-94365184D01*
X286818911Y-94433084D01*
X286796059Y-94499111D01*
X286741137Y-94542302D01*
X286671584Y-94548943D01*
X286650259Y-94542811D01*
X286603075Y-94524532D01*
X286603073Y-94524531D01*
X286603069Y-94524530D01*
X286388926Y-94484500D01*
X286171074Y-94484500D01*
X285956931Y-94524530D01*
X285956928Y-94524531D01*
X285956924Y-94524532D01*
X285909740Y-94542811D01*
X285840116Y-94548672D01*
X285778377Y-94515961D01*
X285744123Y-94455064D01*
X285748230Y-94385315D01*
X285757557Y-94365190D01*
X285766393Y-94349888D01*
X285859508Y-94112637D01*
X285916222Y-93864157D01*
X285935268Y-93610000D01*
X285916222Y-93355843D01*
X285859508Y-93107363D01*
X285766393Y-92870112D01*
X285638959Y-92649388D01*
X285480050Y-92450123D01*
X285293217Y-92276768D01*
X285082634Y-92133195D01*
X285082630Y-92133193D01*
X285082627Y-92133191D01*
X285082626Y-92133190D01*
X284853006Y-92022612D01*
X284853008Y-92022612D01*
X284609466Y-91947489D01*
X284609462Y-91947488D01*
X284609458Y-91947487D01*
X284488231Y-91929214D01*
X284357440Y-91909500D01*
X284357435Y-91909500D01*
X284102565Y-91909500D01*
X284102559Y-91909500D01*
X283945609Y-91933157D01*
X283850542Y-91947487D01*
X283850539Y-91947488D01*
X283850533Y-91947489D01*
X283606992Y-92022612D01*
X283377373Y-92133190D01*
X283377372Y-92133191D01*
X283166782Y-92276768D01*
X282979952Y-92450121D01*
X282979950Y-92450123D01*
X282821041Y-92649388D01*
X282693608Y-92870109D01*
X282600492Y-93107362D01*
X282600490Y-93107369D01*
X282543777Y-93355845D01*
X282524732Y-93609995D01*
X264405268Y-93609995D01*
X264386222Y-93355843D01*
X264329508Y-93107363D01*
X264236393Y-92870112D01*
X264108959Y-92649388D01*
X263950050Y-92450123D01*
X263763217Y-92276768D01*
X263552634Y-92133195D01*
X263552630Y-92133193D01*
X263552627Y-92133191D01*
X263552626Y-92133190D01*
X263323006Y-92022612D01*
X263323008Y-92022612D01*
X263079466Y-91947489D01*
X263079462Y-91947488D01*
X263079458Y-91947487D01*
X262958231Y-91929214D01*
X262827440Y-91909500D01*
X262827435Y-91909500D01*
X262572565Y-91909500D01*
X262572559Y-91909500D01*
X262415609Y-91933157D01*
X262320542Y-91947487D01*
X262320539Y-91947488D01*
X262320533Y-91947489D01*
X262076992Y-92022612D01*
X261847373Y-92133190D01*
X261847372Y-92133191D01*
X261636782Y-92276768D01*
X261449952Y-92450121D01*
X261449950Y-92450123D01*
X261291041Y-92649388D01*
X261163608Y-92870109D01*
X261070492Y-93107362D01*
X261070490Y-93107369D01*
X261013777Y-93355845D01*
X260994732Y-93609995D01*
X260994732Y-93610004D01*
X261013777Y-93864154D01*
X261064560Y-94086650D01*
X261070492Y-94112637D01*
X261160150Y-94341081D01*
X261163608Y-94349890D01*
X261172438Y-94365184D01*
X261188911Y-94433084D01*
X261166059Y-94499111D01*
X261111137Y-94542302D01*
X261041584Y-94548943D01*
X261020259Y-94542811D01*
X260973075Y-94524532D01*
X260973073Y-94524531D01*
X260973069Y-94524530D01*
X260758926Y-94484500D01*
X260541074Y-94484500D01*
X260326931Y-94524530D01*
X260326928Y-94524531D01*
X260326924Y-94524532D01*
X260279740Y-94542811D01*
X260210116Y-94548672D01*
X260148377Y-94515961D01*
X260114123Y-94455064D01*
X260118230Y-94385315D01*
X260127557Y-94365190D01*
X260136393Y-94349888D01*
X260229508Y-94112637D01*
X260286222Y-93864157D01*
X260305268Y-93610000D01*
X260286222Y-93355843D01*
X260229508Y-93107363D01*
X260136393Y-92870112D01*
X260008959Y-92649388D01*
X259850050Y-92450123D01*
X259663217Y-92276768D01*
X259452634Y-92133195D01*
X259452630Y-92133193D01*
X259452627Y-92133191D01*
X259452626Y-92133190D01*
X259223006Y-92022612D01*
X259223008Y-92022612D01*
X258979466Y-91947489D01*
X258979462Y-91947488D01*
X258979458Y-91947487D01*
X258858231Y-91929214D01*
X258727440Y-91909500D01*
X258727435Y-91909500D01*
X258472565Y-91909500D01*
X258472559Y-91909500D01*
X258315609Y-91933157D01*
X258220542Y-91947487D01*
X258220539Y-91947488D01*
X258220533Y-91947489D01*
X257976992Y-92022612D01*
X257747373Y-92133190D01*
X257747372Y-92133191D01*
X257536782Y-92276768D01*
X257349952Y-92450121D01*
X257349950Y-92450123D01*
X257191041Y-92649388D01*
X257063608Y-92870109D01*
X256970492Y-93107362D01*
X256970490Y-93107369D01*
X256913777Y-93355845D01*
X256894732Y-93609995D01*
X239235268Y-93609995D01*
X239216222Y-93355843D01*
X239159508Y-93107363D01*
X239066393Y-92870112D01*
X238938959Y-92649388D01*
X238780050Y-92450123D01*
X238593217Y-92276768D01*
X238382634Y-92133195D01*
X238382630Y-92133193D01*
X238382627Y-92133191D01*
X238382626Y-92133190D01*
X238153006Y-92022612D01*
X238153008Y-92022612D01*
X237909466Y-91947489D01*
X237909462Y-91947488D01*
X237909458Y-91947487D01*
X237788231Y-91929214D01*
X237657440Y-91909500D01*
X237657435Y-91909500D01*
X237402565Y-91909500D01*
X237402559Y-91909500D01*
X237245609Y-91933157D01*
X237150542Y-91947487D01*
X237150539Y-91947488D01*
X237150533Y-91947489D01*
X236906992Y-92022612D01*
X236677373Y-92133190D01*
X236677372Y-92133191D01*
X236466782Y-92276768D01*
X236279952Y-92450121D01*
X236279950Y-92450123D01*
X236121041Y-92649388D01*
X235993608Y-92870109D01*
X235900492Y-93107362D01*
X235900490Y-93107369D01*
X235843777Y-93355845D01*
X235824732Y-93609995D01*
X235824732Y-93610004D01*
X235843777Y-93864154D01*
X235894560Y-94086650D01*
X235900492Y-94112637D01*
X235990150Y-94341081D01*
X235993608Y-94349890D01*
X236002438Y-94365184D01*
X236018911Y-94433084D01*
X235996059Y-94499111D01*
X235941137Y-94542302D01*
X235871584Y-94548943D01*
X235850259Y-94542811D01*
X235803075Y-94524532D01*
X235803073Y-94524531D01*
X235803069Y-94524530D01*
X235588926Y-94484500D01*
X235371074Y-94484500D01*
X235156931Y-94524530D01*
X235156928Y-94524531D01*
X235156924Y-94524532D01*
X235109740Y-94542811D01*
X235040116Y-94548672D01*
X234978377Y-94515961D01*
X234944123Y-94455064D01*
X234948230Y-94385315D01*
X234957557Y-94365190D01*
X234966393Y-94349888D01*
X235059508Y-94112637D01*
X235116222Y-93864157D01*
X235135268Y-93610000D01*
X235116222Y-93355843D01*
X235059508Y-93107363D01*
X234966393Y-92870112D01*
X234838959Y-92649388D01*
X234680050Y-92450123D01*
X234493217Y-92276768D01*
X234282634Y-92133195D01*
X234282630Y-92133193D01*
X234282627Y-92133191D01*
X234282626Y-92133190D01*
X234053006Y-92022612D01*
X234053008Y-92022612D01*
X233809466Y-91947489D01*
X233809462Y-91947488D01*
X233809458Y-91947487D01*
X233688231Y-91929214D01*
X233557440Y-91909500D01*
X233557435Y-91909500D01*
X233302565Y-91909500D01*
X233302559Y-91909500D01*
X233145609Y-91933157D01*
X233050542Y-91947487D01*
X233050539Y-91947488D01*
X233050533Y-91947489D01*
X232806992Y-92022612D01*
X232577373Y-92133190D01*
X232577372Y-92133191D01*
X232366782Y-92276768D01*
X232179952Y-92450121D01*
X232179950Y-92450123D01*
X232021041Y-92649388D01*
X231893608Y-92870109D01*
X231800492Y-93107362D01*
X231800490Y-93107369D01*
X231743777Y-93355845D01*
X231724732Y-93609995D01*
X188435268Y-93609995D01*
X188416222Y-93355843D01*
X188359508Y-93107363D01*
X188266393Y-92870112D01*
X188138959Y-92649388D01*
X187980050Y-92450123D01*
X187793217Y-92276768D01*
X187582634Y-92133195D01*
X187582630Y-92133193D01*
X187582627Y-92133191D01*
X187582626Y-92133190D01*
X187353006Y-92022612D01*
X187353008Y-92022612D01*
X187109466Y-91947489D01*
X187109462Y-91947488D01*
X187109458Y-91947487D01*
X186988231Y-91929214D01*
X186857440Y-91909500D01*
X186857435Y-91909500D01*
X186602565Y-91909500D01*
X186602559Y-91909500D01*
X186445609Y-91933157D01*
X186350542Y-91947487D01*
X186350539Y-91947488D01*
X186350533Y-91947489D01*
X186106992Y-92022612D01*
X185877373Y-92133190D01*
X185877372Y-92133191D01*
X185666782Y-92276768D01*
X185479952Y-92450121D01*
X185479950Y-92450123D01*
X185321041Y-92649388D01*
X185193608Y-92870109D01*
X185100492Y-93107362D01*
X185100490Y-93107369D01*
X185043777Y-93355845D01*
X185024732Y-93609995D01*
X185024732Y-93610004D01*
X185043777Y-93864154D01*
X185094560Y-94086650D01*
X185100492Y-94112637D01*
X185190150Y-94341081D01*
X185193608Y-94349890D01*
X185202438Y-94365184D01*
X185218911Y-94433084D01*
X185196059Y-94499111D01*
X185141137Y-94542302D01*
X185071584Y-94548943D01*
X185050259Y-94542811D01*
X185003075Y-94524532D01*
X185003073Y-94524531D01*
X185003069Y-94524530D01*
X184788926Y-94484500D01*
X184571074Y-94484500D01*
X184356931Y-94524530D01*
X184356928Y-94524531D01*
X184356924Y-94524532D01*
X184309740Y-94542811D01*
X184240116Y-94548672D01*
X184178377Y-94515961D01*
X184144123Y-94455064D01*
X184148230Y-94385315D01*
X184157557Y-94365190D01*
X184166393Y-94349888D01*
X184259508Y-94112637D01*
X184316222Y-93864157D01*
X184335268Y-93610000D01*
X184316222Y-93355843D01*
X184259508Y-93107363D01*
X184166393Y-92870112D01*
X184038959Y-92649388D01*
X183880050Y-92450123D01*
X183693217Y-92276768D01*
X183482634Y-92133195D01*
X183482630Y-92133193D01*
X183482627Y-92133191D01*
X183482626Y-92133190D01*
X183253006Y-92022612D01*
X183253008Y-92022612D01*
X183009466Y-91947489D01*
X183009462Y-91947488D01*
X183009458Y-91947487D01*
X182888231Y-91929214D01*
X182757440Y-91909500D01*
X182757435Y-91909500D01*
X182502565Y-91909500D01*
X182502559Y-91909500D01*
X182345609Y-91933157D01*
X182250542Y-91947487D01*
X182250539Y-91947488D01*
X182250533Y-91947489D01*
X182006992Y-92022612D01*
X181777373Y-92133190D01*
X181777372Y-92133191D01*
X181566782Y-92276768D01*
X181379952Y-92450121D01*
X181379950Y-92450123D01*
X181221041Y-92649388D01*
X181093608Y-92870109D01*
X181000492Y-93107362D01*
X181000490Y-93107369D01*
X180943777Y-93355845D01*
X180924732Y-93609995D01*
X163035268Y-93609995D01*
X163016222Y-93355843D01*
X162959508Y-93107363D01*
X162866393Y-92870112D01*
X162738959Y-92649388D01*
X162580050Y-92450123D01*
X162393217Y-92276768D01*
X162182634Y-92133195D01*
X162182630Y-92133193D01*
X162182627Y-92133191D01*
X162182626Y-92133190D01*
X161953006Y-92022612D01*
X161953008Y-92022612D01*
X161709466Y-91947489D01*
X161709462Y-91947488D01*
X161709458Y-91947487D01*
X161588231Y-91929214D01*
X161457440Y-91909500D01*
X161457435Y-91909500D01*
X161202565Y-91909500D01*
X161202559Y-91909500D01*
X161045609Y-91933157D01*
X160950542Y-91947487D01*
X160950539Y-91947488D01*
X160950533Y-91947489D01*
X160706992Y-92022612D01*
X160477373Y-92133190D01*
X160477372Y-92133191D01*
X160266782Y-92276768D01*
X160079952Y-92450121D01*
X160079950Y-92450123D01*
X159921041Y-92649388D01*
X159793608Y-92870109D01*
X159700492Y-93107362D01*
X159700490Y-93107369D01*
X159643777Y-93355845D01*
X159624732Y-93609995D01*
X159624732Y-93610004D01*
X159643777Y-93864154D01*
X159694560Y-94086650D01*
X159700492Y-94112637D01*
X159790150Y-94341081D01*
X159793608Y-94349890D01*
X159802438Y-94365184D01*
X159818911Y-94433084D01*
X159796059Y-94499111D01*
X159741137Y-94542302D01*
X159671584Y-94548943D01*
X159650259Y-94542811D01*
X159603075Y-94524532D01*
X159603073Y-94524531D01*
X159603069Y-94524530D01*
X159388926Y-94484500D01*
X159171074Y-94484500D01*
X158956931Y-94524530D01*
X158956928Y-94524531D01*
X158956924Y-94524532D01*
X158909740Y-94542811D01*
X158840116Y-94548672D01*
X158778377Y-94515961D01*
X158744123Y-94455064D01*
X158748230Y-94385315D01*
X158757557Y-94365190D01*
X158766393Y-94349888D01*
X158859508Y-94112637D01*
X158916222Y-93864157D01*
X158935268Y-93610000D01*
X158916222Y-93355843D01*
X158859508Y-93107363D01*
X158766393Y-92870112D01*
X158638959Y-92649388D01*
X158480050Y-92450123D01*
X158293217Y-92276768D01*
X158082634Y-92133195D01*
X158082630Y-92133193D01*
X158082627Y-92133191D01*
X158082626Y-92133190D01*
X157853006Y-92022612D01*
X157853008Y-92022612D01*
X157609466Y-91947489D01*
X157609462Y-91947488D01*
X157609458Y-91947487D01*
X157488231Y-91929214D01*
X157357440Y-91909500D01*
X157357435Y-91909500D01*
X157102565Y-91909500D01*
X157102559Y-91909500D01*
X156945609Y-91933157D01*
X156850542Y-91947487D01*
X156850539Y-91947488D01*
X156850533Y-91947489D01*
X156606992Y-92022612D01*
X156377373Y-92133190D01*
X156377372Y-92133191D01*
X156166782Y-92276768D01*
X155979952Y-92450121D01*
X155979950Y-92450123D01*
X155821041Y-92649388D01*
X155693608Y-92870109D01*
X155600492Y-93107362D01*
X155600490Y-93107369D01*
X155543777Y-93355845D01*
X155524732Y-93609995D01*
X137635268Y-93609995D01*
X137616222Y-93355843D01*
X137559508Y-93107363D01*
X137466393Y-92870112D01*
X137338959Y-92649388D01*
X137180050Y-92450123D01*
X136993217Y-92276768D01*
X136782634Y-92133195D01*
X136782630Y-92133193D01*
X136782627Y-92133191D01*
X136782626Y-92133190D01*
X136553006Y-92022612D01*
X136553008Y-92022612D01*
X136309466Y-91947489D01*
X136309462Y-91947488D01*
X136309458Y-91947487D01*
X136188231Y-91929214D01*
X136057440Y-91909500D01*
X136057435Y-91909500D01*
X135802565Y-91909500D01*
X135802559Y-91909500D01*
X135645609Y-91933157D01*
X135550542Y-91947487D01*
X135550539Y-91947488D01*
X135550533Y-91947489D01*
X135306992Y-92022612D01*
X135077373Y-92133190D01*
X135077372Y-92133191D01*
X134866782Y-92276768D01*
X134679952Y-92450121D01*
X134679950Y-92450123D01*
X134521041Y-92649388D01*
X134393608Y-92870109D01*
X134300492Y-93107362D01*
X134300490Y-93107369D01*
X134243777Y-93355845D01*
X134224732Y-93609995D01*
X134224732Y-93610004D01*
X134243777Y-93864154D01*
X134294560Y-94086650D01*
X134300492Y-94112637D01*
X134390150Y-94341081D01*
X134393608Y-94349890D01*
X134402438Y-94365184D01*
X134418911Y-94433084D01*
X134396059Y-94499111D01*
X134341137Y-94542302D01*
X134271584Y-94548943D01*
X134250259Y-94542811D01*
X134203075Y-94524532D01*
X134203073Y-94524531D01*
X134203069Y-94524530D01*
X133988926Y-94484500D01*
X133771074Y-94484500D01*
X133556931Y-94524530D01*
X133556928Y-94524531D01*
X133556924Y-94524532D01*
X133509740Y-94542811D01*
X133440116Y-94548672D01*
X133378377Y-94515961D01*
X133344123Y-94455064D01*
X133348230Y-94385315D01*
X133357557Y-94365190D01*
X133366393Y-94349888D01*
X133459508Y-94112637D01*
X133516222Y-93864157D01*
X133535268Y-93610000D01*
X133516222Y-93355843D01*
X133459508Y-93107363D01*
X133366393Y-92870112D01*
X133238959Y-92649388D01*
X133080050Y-92450123D01*
X132893217Y-92276768D01*
X132682634Y-92133195D01*
X132682630Y-92133193D01*
X132682627Y-92133191D01*
X132682626Y-92133190D01*
X132453006Y-92022612D01*
X132453008Y-92022612D01*
X132209466Y-91947489D01*
X132209462Y-91947488D01*
X132209458Y-91947487D01*
X132088231Y-91929214D01*
X131957440Y-91909500D01*
X131957435Y-91909500D01*
X131702565Y-91909500D01*
X131702559Y-91909500D01*
X131545609Y-91933157D01*
X131450542Y-91947487D01*
X131450539Y-91947488D01*
X131450533Y-91947489D01*
X131206992Y-92022612D01*
X130977373Y-92133190D01*
X130977372Y-92133191D01*
X130766782Y-92276768D01*
X130579952Y-92450121D01*
X130579950Y-92450123D01*
X130421041Y-92649388D01*
X130293608Y-92870109D01*
X130200492Y-93107362D01*
X130200490Y-93107369D01*
X130143777Y-93355845D01*
X130124732Y-93609995D01*
X112235268Y-93609995D01*
X112216222Y-93355843D01*
X112159508Y-93107363D01*
X112066393Y-92870112D01*
X111938959Y-92649388D01*
X111780050Y-92450123D01*
X111593217Y-92276768D01*
X111382634Y-92133195D01*
X111382630Y-92133193D01*
X111382627Y-92133191D01*
X111382626Y-92133190D01*
X111153006Y-92022612D01*
X111153008Y-92022612D01*
X110909466Y-91947489D01*
X110909462Y-91947488D01*
X110909458Y-91947487D01*
X110788231Y-91929214D01*
X110657440Y-91909500D01*
X110657435Y-91909500D01*
X110402565Y-91909500D01*
X110402559Y-91909500D01*
X110245609Y-91933157D01*
X110150542Y-91947487D01*
X110150539Y-91947488D01*
X110150533Y-91947489D01*
X109906992Y-92022612D01*
X109677373Y-92133190D01*
X109677372Y-92133191D01*
X109466782Y-92276768D01*
X109279952Y-92450121D01*
X109279950Y-92450123D01*
X109121041Y-92649388D01*
X108993608Y-92870109D01*
X108900492Y-93107362D01*
X108900490Y-93107369D01*
X108843777Y-93355845D01*
X108824732Y-93609995D01*
X108824732Y-93610004D01*
X108843777Y-93864154D01*
X108894560Y-94086650D01*
X108900492Y-94112637D01*
X108990150Y-94341081D01*
X108993608Y-94349890D01*
X109002438Y-94365184D01*
X109018911Y-94433084D01*
X108996059Y-94499111D01*
X108941137Y-94542302D01*
X108871584Y-94548943D01*
X108850259Y-94542811D01*
X108803075Y-94524532D01*
X108803073Y-94524531D01*
X108803069Y-94524530D01*
X108588926Y-94484500D01*
X108371074Y-94484500D01*
X108156931Y-94524530D01*
X108156928Y-94524531D01*
X108156924Y-94524532D01*
X108109740Y-94542811D01*
X108040116Y-94548672D01*
X107978377Y-94515961D01*
X107944123Y-94455064D01*
X107948230Y-94385315D01*
X107957557Y-94365190D01*
X107966393Y-94349888D01*
X108059508Y-94112637D01*
X108116222Y-93864157D01*
X108135268Y-93610000D01*
X108116222Y-93355843D01*
X108059508Y-93107363D01*
X107966393Y-92870112D01*
X107838959Y-92649388D01*
X107680050Y-92450123D01*
X107493217Y-92276768D01*
X107282634Y-92133195D01*
X107282630Y-92133193D01*
X107282627Y-92133191D01*
X107282626Y-92133190D01*
X107053006Y-92022612D01*
X107053008Y-92022612D01*
X106809466Y-91947489D01*
X106809462Y-91947488D01*
X106809458Y-91947487D01*
X106688231Y-91929214D01*
X106557440Y-91909500D01*
X106557435Y-91909500D01*
X106302565Y-91909500D01*
X106302559Y-91909500D01*
X106145609Y-91933157D01*
X106050542Y-91947487D01*
X106050539Y-91947488D01*
X106050533Y-91947489D01*
X105806992Y-92022612D01*
X105577373Y-92133190D01*
X105577372Y-92133191D01*
X105366782Y-92276768D01*
X105179952Y-92450121D01*
X105179950Y-92450123D01*
X105021041Y-92649388D01*
X104893608Y-92870109D01*
X104800492Y-93107362D01*
X104800490Y-93107369D01*
X104743777Y-93355845D01*
X104724732Y-93609995D01*
X65800500Y-93609995D01*
X65800500Y-87446035D01*
X94149200Y-87446035D01*
X94149200Y-88989570D01*
X94149201Y-88989576D01*
X94155608Y-89049183D01*
X94205902Y-89184028D01*
X94205906Y-89184035D01*
X94292152Y-89299244D01*
X94292155Y-89299247D01*
X94407364Y-89385493D01*
X94407371Y-89385497D01*
X94542217Y-89435791D01*
X94542216Y-89435791D01*
X94546886Y-89436293D01*
X94601827Y-89442200D01*
X96145372Y-89442199D01*
X96204983Y-89435791D01*
X96339831Y-89385496D01*
X96455046Y-89299246D01*
X96541296Y-89184031D01*
X96591591Y-89049183D01*
X96598000Y-88989573D01*
X96597999Y-87446028D01*
X96592539Y-87395235D01*
X119447600Y-87395235D01*
X119447600Y-88938770D01*
X119447601Y-88938776D01*
X119454008Y-88998383D01*
X119504302Y-89133228D01*
X119504306Y-89133235D01*
X119590552Y-89248444D01*
X119590555Y-89248447D01*
X119705764Y-89334693D01*
X119705771Y-89334697D01*
X119840617Y-89384991D01*
X119840616Y-89384991D01*
X119845286Y-89385493D01*
X119900227Y-89391400D01*
X121443772Y-89391399D01*
X121503383Y-89384991D01*
X121638231Y-89334696D01*
X121753446Y-89248446D01*
X121839696Y-89133231D01*
X121889991Y-88998383D01*
X121896400Y-88938773D01*
X121896399Y-87395235D01*
X144847600Y-87395235D01*
X144847600Y-88938770D01*
X144847601Y-88938776D01*
X144854008Y-88998383D01*
X144904302Y-89133228D01*
X144904306Y-89133235D01*
X144990552Y-89248444D01*
X144990555Y-89248447D01*
X145105764Y-89334693D01*
X145105771Y-89334697D01*
X145240617Y-89384991D01*
X145240616Y-89384991D01*
X145245286Y-89385493D01*
X145300227Y-89391400D01*
X146843772Y-89391399D01*
X146903383Y-89384991D01*
X147038231Y-89334696D01*
X147153446Y-89248446D01*
X147239696Y-89133231D01*
X147289991Y-88998383D01*
X147296400Y-88938773D01*
X147296399Y-87496835D01*
X170095200Y-87496835D01*
X170095200Y-89040370D01*
X170095201Y-89040376D01*
X170101608Y-89099983D01*
X170151902Y-89234828D01*
X170151906Y-89234835D01*
X170238152Y-89350044D01*
X170238155Y-89350047D01*
X170353364Y-89436293D01*
X170353371Y-89436297D01*
X170488217Y-89486591D01*
X170488216Y-89486591D01*
X170495144Y-89487335D01*
X170547827Y-89493000D01*
X172091372Y-89492999D01*
X172150983Y-89486591D01*
X172285831Y-89436296D01*
X172401046Y-89350046D01*
X172487296Y-89234831D01*
X172537591Y-89099983D01*
X172544000Y-89040373D01*
X172543999Y-87496835D01*
X221098400Y-87496835D01*
X221098400Y-89040370D01*
X221098401Y-89040376D01*
X221104808Y-89099983D01*
X221155102Y-89234828D01*
X221155106Y-89234835D01*
X221241352Y-89350044D01*
X221241355Y-89350047D01*
X221356564Y-89436293D01*
X221356571Y-89436297D01*
X221491417Y-89486591D01*
X221491416Y-89486591D01*
X221498344Y-89487335D01*
X221551027Y-89493000D01*
X223094572Y-89492999D01*
X223154183Y-89486591D01*
X223289031Y-89436296D01*
X223404246Y-89350046D01*
X223490496Y-89234831D01*
X223540791Y-89099983D01*
X223547200Y-89040373D01*
X223547199Y-87496835D01*
X246244400Y-87496835D01*
X246244400Y-89040370D01*
X246244401Y-89040376D01*
X246250808Y-89099983D01*
X246301102Y-89234828D01*
X246301106Y-89234835D01*
X246387352Y-89350044D01*
X246387355Y-89350047D01*
X246502564Y-89436293D01*
X246502571Y-89436297D01*
X246637417Y-89486591D01*
X246637416Y-89486591D01*
X246644344Y-89487335D01*
X246697027Y-89493000D01*
X248240572Y-89492999D01*
X248300183Y-89486591D01*
X248435031Y-89436296D01*
X248550246Y-89350046D01*
X248636496Y-89234831D01*
X248686791Y-89099983D01*
X248693200Y-89040373D01*
X248693199Y-87496828D01*
X248686791Y-87437217D01*
X248671132Y-87395235D01*
X271974600Y-87395235D01*
X271974600Y-88938770D01*
X271974601Y-88938776D01*
X271981008Y-88998383D01*
X272031302Y-89133228D01*
X272031306Y-89133235D01*
X272117552Y-89248444D01*
X272117555Y-89248447D01*
X272232764Y-89334693D01*
X272232771Y-89334697D01*
X272367617Y-89384991D01*
X272367616Y-89384991D01*
X272372286Y-89385493D01*
X272427227Y-89391400D01*
X273970772Y-89391399D01*
X274030383Y-89384991D01*
X274165231Y-89334696D01*
X274280446Y-89248446D01*
X274366696Y-89133231D01*
X274416991Y-88998383D01*
X274423400Y-88938773D01*
X274423399Y-87395235D01*
X297247600Y-87395235D01*
X297247600Y-88938770D01*
X297247601Y-88938776D01*
X297254008Y-88998383D01*
X297304302Y-89133228D01*
X297304306Y-89133235D01*
X297390552Y-89248444D01*
X297390555Y-89248447D01*
X297505764Y-89334693D01*
X297505771Y-89334697D01*
X297640617Y-89384991D01*
X297640616Y-89384991D01*
X297645286Y-89385493D01*
X297700227Y-89391400D01*
X299243772Y-89391399D01*
X299303383Y-89384991D01*
X299438231Y-89334696D01*
X299553446Y-89248446D01*
X299639696Y-89133231D01*
X299689991Y-88998383D01*
X299696400Y-88938773D01*
X299696399Y-87395228D01*
X299689991Y-87335617D01*
X299677590Y-87302369D01*
X299639697Y-87200771D01*
X299639693Y-87200764D01*
X299553447Y-87085555D01*
X299553444Y-87085552D01*
X299438235Y-86999306D01*
X299438228Y-86999302D01*
X299303382Y-86949008D01*
X299303383Y-86949008D01*
X299243783Y-86942601D01*
X299243781Y-86942600D01*
X299243773Y-86942600D01*
X299243764Y-86942600D01*
X297700229Y-86942600D01*
X297700223Y-86942601D01*
X297640616Y-86949008D01*
X297505771Y-86999302D01*
X297505764Y-86999306D01*
X297390555Y-87085552D01*
X297390552Y-87085555D01*
X297304306Y-87200764D01*
X297304302Y-87200771D01*
X297254008Y-87335617D01*
X297248547Y-87386416D01*
X297247601Y-87395223D01*
X297247600Y-87395235D01*
X274423399Y-87395235D01*
X274423399Y-87395228D01*
X274416991Y-87335617D01*
X274404590Y-87302369D01*
X274366697Y-87200771D01*
X274366693Y-87200764D01*
X274280447Y-87085555D01*
X274280444Y-87085552D01*
X274165235Y-86999306D01*
X274165228Y-86999302D01*
X274030382Y-86949008D01*
X274030383Y-86949008D01*
X273970783Y-86942601D01*
X273970781Y-86942600D01*
X273970773Y-86942600D01*
X273970764Y-86942600D01*
X272427229Y-86942600D01*
X272427223Y-86942601D01*
X272367616Y-86949008D01*
X272232771Y-86999302D01*
X272232764Y-86999306D01*
X272117555Y-87085552D01*
X272117552Y-87085555D01*
X272031306Y-87200764D01*
X272031302Y-87200771D01*
X271981008Y-87335617D01*
X271975547Y-87386416D01*
X271974601Y-87395223D01*
X271974600Y-87395235D01*
X248671132Y-87395235D01*
X248671128Y-87395223D01*
X248636497Y-87302371D01*
X248636493Y-87302364D01*
X248550247Y-87187155D01*
X248550244Y-87187152D01*
X248435035Y-87100906D01*
X248435028Y-87100902D01*
X248300182Y-87050608D01*
X248300183Y-87050608D01*
X248240583Y-87044201D01*
X248240581Y-87044200D01*
X248240573Y-87044200D01*
X248240564Y-87044200D01*
X246697029Y-87044200D01*
X246697023Y-87044201D01*
X246637416Y-87050608D01*
X246502571Y-87100902D01*
X246502564Y-87100906D01*
X246387355Y-87187152D01*
X246387352Y-87187155D01*
X246301106Y-87302364D01*
X246301102Y-87302371D01*
X246250808Y-87437217D01*
X246244401Y-87496816D01*
X246244401Y-87496823D01*
X246244400Y-87496835D01*
X223547199Y-87496835D01*
X223547199Y-87496828D01*
X223540791Y-87437217D01*
X223525128Y-87395223D01*
X223490497Y-87302371D01*
X223490493Y-87302364D01*
X223404247Y-87187155D01*
X223404244Y-87187152D01*
X223289035Y-87100906D01*
X223289028Y-87100902D01*
X223154182Y-87050608D01*
X223154183Y-87050608D01*
X223094583Y-87044201D01*
X223094581Y-87044200D01*
X223094573Y-87044200D01*
X223094564Y-87044200D01*
X221551029Y-87044200D01*
X221551023Y-87044201D01*
X221491416Y-87050608D01*
X221356571Y-87100902D01*
X221356564Y-87100906D01*
X221241355Y-87187152D01*
X221241352Y-87187155D01*
X221155106Y-87302364D01*
X221155102Y-87302371D01*
X221104808Y-87437217D01*
X221098401Y-87496816D01*
X221098401Y-87496823D01*
X221098400Y-87496835D01*
X172543999Y-87496835D01*
X172543999Y-87496828D01*
X172537591Y-87437217D01*
X172521928Y-87395223D01*
X172487297Y-87302371D01*
X172487293Y-87302364D01*
X172401047Y-87187155D01*
X172401044Y-87187152D01*
X172285835Y-87100906D01*
X172285828Y-87100902D01*
X172150982Y-87050608D01*
X172150983Y-87050608D01*
X172091383Y-87044201D01*
X172091381Y-87044200D01*
X172091373Y-87044200D01*
X172091364Y-87044200D01*
X170547829Y-87044200D01*
X170547823Y-87044201D01*
X170488216Y-87050608D01*
X170353371Y-87100902D01*
X170353364Y-87100906D01*
X170238155Y-87187152D01*
X170238152Y-87187155D01*
X170151906Y-87302364D01*
X170151902Y-87302371D01*
X170101608Y-87437217D01*
X170095201Y-87496816D01*
X170095201Y-87496823D01*
X170095200Y-87496835D01*
X147296399Y-87496835D01*
X147296399Y-87395228D01*
X147289991Y-87335617D01*
X147277590Y-87302369D01*
X147239697Y-87200771D01*
X147239693Y-87200764D01*
X147153447Y-87085555D01*
X147153444Y-87085552D01*
X147038235Y-86999306D01*
X147038228Y-86999302D01*
X146903382Y-86949008D01*
X146903383Y-86949008D01*
X146843783Y-86942601D01*
X146843781Y-86942600D01*
X146843773Y-86942600D01*
X146843764Y-86942600D01*
X145300229Y-86942600D01*
X145300223Y-86942601D01*
X145240616Y-86949008D01*
X145105771Y-86999302D01*
X145105764Y-86999306D01*
X144990555Y-87085552D01*
X144990552Y-87085555D01*
X144904306Y-87200764D01*
X144904302Y-87200771D01*
X144854008Y-87335617D01*
X144848547Y-87386416D01*
X144847601Y-87395223D01*
X144847600Y-87395235D01*
X121896399Y-87395235D01*
X121896399Y-87395228D01*
X121889991Y-87335617D01*
X121877590Y-87302369D01*
X121839697Y-87200771D01*
X121839693Y-87200764D01*
X121753447Y-87085555D01*
X121753444Y-87085552D01*
X121638235Y-86999306D01*
X121638228Y-86999302D01*
X121503382Y-86949008D01*
X121503383Y-86949008D01*
X121443783Y-86942601D01*
X121443781Y-86942600D01*
X121443773Y-86942600D01*
X121443764Y-86942600D01*
X119900229Y-86942600D01*
X119900223Y-86942601D01*
X119840616Y-86949008D01*
X119705771Y-86999302D01*
X119705764Y-86999306D01*
X119590555Y-87085552D01*
X119590552Y-87085555D01*
X119504306Y-87200764D01*
X119504302Y-87200771D01*
X119454008Y-87335617D01*
X119448547Y-87386416D01*
X119447601Y-87395223D01*
X119447600Y-87395235D01*
X96592539Y-87395235D01*
X96591591Y-87386417D01*
X96572643Y-87335616D01*
X96541297Y-87251571D01*
X96541293Y-87251564D01*
X96455047Y-87136355D01*
X96455044Y-87136352D01*
X96339835Y-87050106D01*
X96339828Y-87050102D01*
X96204982Y-86999808D01*
X96204983Y-86999808D01*
X96145383Y-86993401D01*
X96145381Y-86993400D01*
X96145373Y-86993400D01*
X96145364Y-86993400D01*
X94601829Y-86993400D01*
X94601823Y-86993401D01*
X94542216Y-86999808D01*
X94407371Y-87050102D01*
X94407364Y-87050106D01*
X94292155Y-87136352D01*
X94292152Y-87136355D01*
X94205906Y-87251564D01*
X94205902Y-87251571D01*
X94155608Y-87386417D01*
X94150147Y-87437216D01*
X94149201Y-87446023D01*
X94149200Y-87446035D01*
X65800500Y-87446035D01*
X65800500Y-31444500D01*
X65820185Y-31377461D01*
X65872989Y-31331706D01*
X65924500Y-31320500D01*
X344075500Y-31320500D01*
X344142539Y-31340185D01*
G37*
G04 #@! TD.AperFunction*
M02*
