%TF.GenerationSoftware,KiCad,Pcbnew,8.0.6*%
%TF.CreationDate,2025-03-15T00:46:26-07:00*%
%TF.ProjectId,input_pcb2,696e7075-745f-4706-9362-322e6b696361,rev?*%
%TF.SameCoordinates,Original*%
%TF.FileFunction,Copper,L1,Top*%
%TF.FilePolarity,Positive*%
%FSLAX46Y46*%
G04 Gerber Fmt 4.6, Leading zero omitted, Abs format (unit mm)*
G04 Created by KiCad (PCBNEW 8.0.6) date 2025-03-15 00:46:26*
%MOMM*%
%LPD*%
G01*
G04 APERTURE LIST*
G04 Aperture macros list*
%AMRoundRect*
0 Rectangle with rounded corners*
0 $1 Rounding radius*
0 $2 $3 $4 $5 $6 $7 $8 $9 X,Y pos of 4 corners*
0 Add a 4 corners polygon primitive as box body*
4,1,4,$2,$3,$4,$5,$6,$7,$8,$9,$2,$3,0*
0 Add four circle primitives for the rounded corners*
1,1,$1+$1,$2,$3*
1,1,$1+$1,$4,$5*
1,1,$1+$1,$6,$7*
1,1,$1+$1,$8,$9*
0 Add four rect primitives between the rounded corners*
20,1,$1+$1,$2,$3,$4,$5,0*
20,1,$1+$1,$4,$5,$6,$7,0*
20,1,$1+$1,$6,$7,$8,$9,0*
20,1,$1+$1,$8,$9,$2,$3,0*%
G04 Aperture macros list end*
%ADD10C,0.150000*%
%TA.AperFunction,NonConductor*%
%ADD11C,0.150000*%
%TD*%
%TA.AperFunction,SMDPad,CuDef*%
%ADD12RoundRect,0.250000X-0.475000X0.250000X-0.475000X-0.250000X0.475000X-0.250000X0.475000X0.250000X0*%
%TD*%
%TA.AperFunction,SMDPad,CuDef*%
%ADD13R,3.450000X1.850000*%
%TD*%
%TA.AperFunction,SMDPad,CuDef*%
%ADD14RoundRect,0.250000X-0.450000X0.262500X-0.450000X-0.262500X0.450000X-0.262500X0.450000X0.262500X0*%
%TD*%
%TA.AperFunction,ComponentPad*%
%ADD15R,1.700000X1.700000*%
%TD*%
%TA.AperFunction,ComponentPad*%
%ADD16O,1.700000X1.700000*%
%TD*%
%TA.AperFunction,ComponentPad*%
%ADD17RoundRect,0.250000X0.600000X-0.600000X0.600000X0.600000X-0.600000X0.600000X-0.600000X-0.600000X0*%
%TD*%
%TA.AperFunction,ComponentPad*%
%ADD18C,1.700000*%
%TD*%
%TA.AperFunction,SMDPad,CuDef*%
%ADD19RoundRect,0.250000X0.262500X0.450000X-0.262500X0.450000X-0.262500X-0.450000X0.262500X-0.450000X0*%
%TD*%
%TA.AperFunction,SMDPad,CuDef*%
%ADD20R,0.354800X1.461999*%
%TD*%
%TA.AperFunction,ComponentPad*%
%ADD21C,3.000000*%
%TD*%
%TA.AperFunction,SMDPad,CuDef*%
%ADD22RoundRect,0.250000X0.475000X-0.250000X0.475000X0.250000X-0.475000X0.250000X-0.475000X-0.250000X0*%
%TD*%
%TA.AperFunction,SMDPad,CuDef*%
%ADD23RoundRect,0.250000X0.250000X0.475000X-0.250000X0.475000X-0.250000X-0.475000X0.250000X-0.475000X0*%
%TD*%
%TA.AperFunction,SMDPad,CuDef*%
%ADD24R,1.850000X3.450000*%
%TD*%
%TA.AperFunction,SMDPad,CuDef*%
%ADD25RoundRect,0.375000X0.375000X-0.625000X0.375000X0.625000X-0.375000X0.625000X-0.375000X-0.625000X0*%
%TD*%
%TA.AperFunction,SMDPad,CuDef*%
%ADD26RoundRect,0.500000X1.400000X-0.500000X1.400000X0.500000X-1.400000X0.500000X-1.400000X-0.500000X0*%
%TD*%
%TA.AperFunction,SMDPad,CuDef*%
%ADD27R,0.355600X1.409700*%
%TD*%
%TA.AperFunction,SMDPad,CuDef*%
%ADD28RoundRect,0.250000X-0.250000X-0.475000X0.250000X-0.475000X0.250000X0.475000X-0.250000X0.475000X0*%
%TD*%
%TA.AperFunction,SMDPad,CuDef*%
%ADD29R,1.461999X0.354800*%
%TD*%
%TA.AperFunction,ComponentPad*%
%ADD30C,1.574800*%
%TD*%
%TA.AperFunction,SMDPad,CuDef*%
%ADD31R,0.279400X1.404099*%
%TD*%
%TA.AperFunction,SMDPad,CuDef*%
%ADD32RoundRect,0.243750X0.456250X-0.243750X0.456250X0.243750X-0.456250X0.243750X-0.456250X-0.243750X0*%
%TD*%
%TA.AperFunction,SMDPad,CuDef*%
%ADD33RoundRect,0.250000X-0.262500X-0.450000X0.262500X-0.450000X0.262500X0.450000X-0.262500X0.450000X0*%
%TD*%
%TA.AperFunction,SMDPad,CuDef*%
%ADD34R,1.404099X0.279400*%
%TD*%
%TA.AperFunction,SMDPad,CuDef*%
%ADD35RoundRect,0.250000X0.450000X-0.262500X0.450000X0.262500X-0.450000X0.262500X-0.450000X-0.262500X0*%
%TD*%
%TA.AperFunction,ComponentPad*%
%ADD36RoundRect,0.250000X-0.600000X-0.600000X0.600000X-0.600000X0.600000X0.600000X-0.600000X0.600000X0*%
%TD*%
%TA.AperFunction,SMDPad,CuDef*%
%ADD37RoundRect,0.250000X-0.850000X-0.350000X0.850000X-0.350000X0.850000X0.350000X-0.850000X0.350000X0*%
%TD*%
%TA.AperFunction,SMDPad,CuDef*%
%ADD38RoundRect,0.250000X-1.275000X-1.125000X1.275000X-1.125000X1.275000X1.125000X-1.275000X1.125000X0*%
%TD*%
%TA.AperFunction,SMDPad,CuDef*%
%ADD39RoundRect,0.249997X-2.950003X-2.650003X2.950003X-2.650003X2.950003X2.650003X-2.950003X2.650003X0*%
%TD*%
%TA.AperFunction,ViaPad*%
%ADD40C,1.800000*%
%TD*%
%TA.AperFunction,ViaPad*%
%ADD41C,0.800000*%
%TD*%
%TA.AperFunction,ViaPad*%
%ADD42C,0.600000*%
%TD*%
%TA.AperFunction,Conductor*%
%ADD43C,0.300000*%
%TD*%
%TA.AperFunction,Conductor*%
%ADD44C,0.150000*%
%TD*%
%TA.AperFunction,Conductor*%
%ADD45C,0.200000*%
%TD*%
%TA.AperFunction,Conductor*%
%ADD46C,2.000000*%
%TD*%
G04 APERTURE END LIST*
D10*
D11*
X65795236Y-97449931D02*
X65795236Y-98164216D01*
X65795236Y-98164216D02*
X65747617Y-98307073D01*
X65747617Y-98307073D02*
X65652379Y-98402312D01*
X65652379Y-98402312D02*
X65509522Y-98449931D01*
X65509522Y-98449931D02*
X65414284Y-98449931D01*
X66699998Y-98449931D02*
X66699998Y-97926121D01*
X66699998Y-97926121D02*
X66652379Y-97830883D01*
X66652379Y-97830883D02*
X66557141Y-97783264D01*
X66557141Y-97783264D02*
X66366665Y-97783264D01*
X66366665Y-97783264D02*
X66271427Y-97830883D01*
X66699998Y-98402312D02*
X66604760Y-98449931D01*
X66604760Y-98449931D02*
X66366665Y-98449931D01*
X66366665Y-98449931D02*
X66271427Y-98402312D01*
X66271427Y-98402312D02*
X66223808Y-98307073D01*
X66223808Y-98307073D02*
X66223808Y-98211835D01*
X66223808Y-98211835D02*
X66271427Y-98116597D01*
X66271427Y-98116597D02*
X66366665Y-98068978D01*
X66366665Y-98068978D02*
X66604760Y-98068978D01*
X66604760Y-98068978D02*
X66699998Y-98021359D01*
X67604760Y-98402312D02*
X67509522Y-98449931D01*
X67509522Y-98449931D02*
X67319046Y-98449931D01*
X67319046Y-98449931D02*
X67223808Y-98402312D01*
X67223808Y-98402312D02*
X67176189Y-98354692D01*
X67176189Y-98354692D02*
X67128570Y-98259454D01*
X67128570Y-98259454D02*
X67128570Y-97973740D01*
X67128570Y-97973740D02*
X67176189Y-97878502D01*
X67176189Y-97878502D02*
X67223808Y-97830883D01*
X67223808Y-97830883D02*
X67319046Y-97783264D01*
X67319046Y-97783264D02*
X67509522Y-97783264D01*
X67509522Y-97783264D02*
X67604760Y-97830883D01*
X68033332Y-98449931D02*
X68033332Y-97449931D01*
X68128570Y-98068978D02*
X68414284Y-98449931D01*
X68414284Y-97783264D02*
X68033332Y-98164216D01*
X68795237Y-98402312D02*
X68890475Y-98449931D01*
X68890475Y-98449931D02*
X69080951Y-98449931D01*
X69080951Y-98449931D02*
X69176189Y-98402312D01*
X69176189Y-98402312D02*
X69223808Y-98307073D01*
X69223808Y-98307073D02*
X69223808Y-98259454D01*
X69223808Y-98259454D02*
X69176189Y-98164216D01*
X69176189Y-98164216D02*
X69080951Y-98116597D01*
X69080951Y-98116597D02*
X68938094Y-98116597D01*
X68938094Y-98116597D02*
X68842856Y-98068978D01*
X68842856Y-98068978D02*
X68795237Y-97973740D01*
X68795237Y-97973740D02*
X68795237Y-97926121D01*
X68795237Y-97926121D02*
X68842856Y-97830883D01*
X68842856Y-97830883D02*
X68938094Y-97783264D01*
X68938094Y-97783264D02*
X69080951Y-97783264D01*
X69080951Y-97783264D02*
X69176189Y-97830883D01*
X69795237Y-98449931D02*
X69699999Y-98402312D01*
X69699999Y-98402312D02*
X69652380Y-98354692D01*
X69652380Y-98354692D02*
X69604761Y-98259454D01*
X69604761Y-98259454D02*
X69604761Y-97973740D01*
X69604761Y-97973740D02*
X69652380Y-97878502D01*
X69652380Y-97878502D02*
X69699999Y-97830883D01*
X69699999Y-97830883D02*
X69795237Y-97783264D01*
X69795237Y-97783264D02*
X69938094Y-97783264D01*
X69938094Y-97783264D02*
X70033332Y-97830883D01*
X70033332Y-97830883D02*
X70080951Y-97878502D01*
X70080951Y-97878502D02*
X70128570Y-97973740D01*
X70128570Y-97973740D02*
X70128570Y-98259454D01*
X70128570Y-98259454D02*
X70080951Y-98354692D01*
X70080951Y-98354692D02*
X70033332Y-98402312D01*
X70033332Y-98402312D02*
X69938094Y-98449931D01*
X69938094Y-98449931D02*
X69795237Y-98449931D01*
X70557142Y-97783264D02*
X70557142Y-98449931D01*
X70557142Y-97878502D02*
X70604761Y-97830883D01*
X70604761Y-97830883D02*
X70699999Y-97783264D01*
X70699999Y-97783264D02*
X70842856Y-97783264D01*
X70842856Y-97783264D02*
X70938094Y-97830883D01*
X70938094Y-97830883D02*
X70985713Y-97926121D01*
X70985713Y-97926121D02*
X70985713Y-98449931D01*
X72223809Y-98449931D02*
X72223809Y-97449931D01*
X72223809Y-97449931D02*
X72604761Y-97449931D01*
X72604761Y-97449931D02*
X72699999Y-97497550D01*
X72699999Y-97497550D02*
X72747618Y-97545169D01*
X72747618Y-97545169D02*
X72795237Y-97640407D01*
X72795237Y-97640407D02*
X72795237Y-97783264D01*
X72795237Y-97783264D02*
X72747618Y-97878502D01*
X72747618Y-97878502D02*
X72699999Y-97926121D01*
X72699999Y-97926121D02*
X72604761Y-97973740D01*
X72604761Y-97973740D02*
X72223809Y-97973740D01*
X73223809Y-98449931D02*
X73223809Y-97449931D01*
X73652380Y-98449931D02*
X73652380Y-97926121D01*
X73652380Y-97926121D02*
X73604761Y-97830883D01*
X73604761Y-97830883D02*
X73509523Y-97783264D01*
X73509523Y-97783264D02*
X73366666Y-97783264D01*
X73366666Y-97783264D02*
X73271428Y-97830883D01*
X73271428Y-97830883D02*
X73223809Y-97878502D01*
X74128571Y-98449931D02*
X74128571Y-97783264D01*
X74128571Y-97449931D02*
X74080952Y-97497550D01*
X74080952Y-97497550D02*
X74128571Y-97545169D01*
X74128571Y-97545169D02*
X74176190Y-97497550D01*
X74176190Y-97497550D02*
X74128571Y-97449931D01*
X74128571Y-97449931D02*
X74128571Y-97545169D01*
X74747618Y-98449931D02*
X74652380Y-98402312D01*
X74652380Y-98402312D02*
X74604761Y-98307073D01*
X74604761Y-98307073D02*
X74604761Y-97449931D01*
X75128571Y-98449931D02*
X75128571Y-97783264D01*
X75128571Y-97449931D02*
X75080952Y-97497550D01*
X75080952Y-97497550D02*
X75128571Y-97545169D01*
X75128571Y-97545169D02*
X75176190Y-97497550D01*
X75176190Y-97497550D02*
X75128571Y-97449931D01*
X75128571Y-97449931D02*
X75128571Y-97545169D01*
X75747618Y-98449931D02*
X75652380Y-98402312D01*
X75652380Y-98402312D02*
X75604761Y-98354692D01*
X75604761Y-98354692D02*
X75557142Y-98259454D01*
X75557142Y-98259454D02*
X75557142Y-97973740D01*
X75557142Y-97973740D02*
X75604761Y-97878502D01*
X75604761Y-97878502D02*
X75652380Y-97830883D01*
X75652380Y-97830883D02*
X75747618Y-97783264D01*
X75747618Y-97783264D02*
X75890475Y-97783264D01*
X75890475Y-97783264D02*
X75985713Y-97830883D01*
X75985713Y-97830883D02*
X76033332Y-97878502D01*
X76033332Y-97878502D02*
X76080951Y-97973740D01*
X76080951Y-97973740D02*
X76080951Y-98259454D01*
X76080951Y-98259454D02*
X76033332Y-98354692D01*
X76033332Y-98354692D02*
X75985713Y-98402312D01*
X75985713Y-98402312D02*
X75890475Y-98449931D01*
X75890475Y-98449931D02*
X75747618Y-98449931D01*
X76509523Y-97783264D02*
X76509523Y-98449931D01*
X76509523Y-97878502D02*
X76557142Y-97830883D01*
X76557142Y-97830883D02*
X76652380Y-97783264D01*
X76652380Y-97783264D02*
X76795237Y-97783264D01*
X76795237Y-97783264D02*
X76890475Y-97830883D01*
X76890475Y-97830883D02*
X76938094Y-97926121D01*
X76938094Y-97926121D02*
X76938094Y-98449931D01*
X77461904Y-98402312D02*
X77461904Y-98449931D01*
X77461904Y-98449931D02*
X77414285Y-98545169D01*
X77414285Y-98545169D02*
X77366666Y-98592788D01*
X78557142Y-97449931D02*
X79223808Y-97449931D01*
X79223808Y-97449931D02*
X78557142Y-98449931D01*
X78557142Y-98449931D02*
X79223808Y-98449931D01*
X79747618Y-98449931D02*
X79652380Y-98402312D01*
X79652380Y-98402312D02*
X79604761Y-98354692D01*
X79604761Y-98354692D02*
X79557142Y-98259454D01*
X79557142Y-98259454D02*
X79557142Y-97973740D01*
X79557142Y-97973740D02*
X79604761Y-97878502D01*
X79604761Y-97878502D02*
X79652380Y-97830883D01*
X79652380Y-97830883D02*
X79747618Y-97783264D01*
X79747618Y-97783264D02*
X79890475Y-97783264D01*
X79890475Y-97783264D02*
X79985713Y-97830883D01*
X79985713Y-97830883D02*
X80033332Y-97878502D01*
X80033332Y-97878502D02*
X80080951Y-97973740D01*
X80080951Y-97973740D02*
X80080951Y-98259454D01*
X80080951Y-98259454D02*
X80033332Y-98354692D01*
X80033332Y-98354692D02*
X79985713Y-98402312D01*
X79985713Y-98402312D02*
X79890475Y-98449931D01*
X79890475Y-98449931D02*
X79747618Y-98449931D01*
X80890475Y-98402312D02*
X80795237Y-98449931D01*
X80795237Y-98449931D02*
X80604761Y-98449931D01*
X80604761Y-98449931D02*
X80509523Y-98402312D01*
X80509523Y-98402312D02*
X80461904Y-98307073D01*
X80461904Y-98307073D02*
X80461904Y-97926121D01*
X80461904Y-97926121D02*
X80509523Y-97830883D01*
X80509523Y-97830883D02*
X80604761Y-97783264D01*
X80604761Y-97783264D02*
X80795237Y-97783264D01*
X80795237Y-97783264D02*
X80890475Y-97830883D01*
X80890475Y-97830883D02*
X80938094Y-97926121D01*
X80938094Y-97926121D02*
X80938094Y-98021359D01*
X80938094Y-98021359D02*
X80461904Y-98116597D01*
X82033333Y-97449931D02*
X82271428Y-98449931D01*
X82271428Y-98449931D02*
X82461904Y-97735645D01*
X82461904Y-97735645D02*
X82652380Y-98449931D01*
X82652380Y-98449931D02*
X82890476Y-97449931D01*
X83414285Y-98449931D02*
X83319047Y-98402312D01*
X83319047Y-98402312D02*
X83271428Y-98354692D01*
X83271428Y-98354692D02*
X83223809Y-98259454D01*
X83223809Y-98259454D02*
X83223809Y-97973740D01*
X83223809Y-97973740D02*
X83271428Y-97878502D01*
X83271428Y-97878502D02*
X83319047Y-97830883D01*
X83319047Y-97830883D02*
X83414285Y-97783264D01*
X83414285Y-97783264D02*
X83557142Y-97783264D01*
X83557142Y-97783264D02*
X83652380Y-97830883D01*
X83652380Y-97830883D02*
X83699999Y-97878502D01*
X83699999Y-97878502D02*
X83747618Y-97973740D01*
X83747618Y-97973740D02*
X83747618Y-98259454D01*
X83747618Y-98259454D02*
X83699999Y-98354692D01*
X83699999Y-98354692D02*
X83652380Y-98402312D01*
X83652380Y-98402312D02*
X83557142Y-98449931D01*
X83557142Y-98449931D02*
X83414285Y-98449931D01*
X84176190Y-98449931D02*
X84176190Y-97783264D01*
X84176190Y-97973740D02*
X84223809Y-97878502D01*
X84223809Y-97878502D02*
X84271428Y-97830883D01*
X84271428Y-97830883D02*
X84366666Y-97783264D01*
X84366666Y-97783264D02*
X84461904Y-97783264D01*
X84795238Y-98449931D02*
X84795238Y-97783264D01*
X84795238Y-97973740D02*
X84842857Y-97878502D01*
X84842857Y-97878502D02*
X84890476Y-97830883D01*
X84890476Y-97830883D02*
X84985714Y-97783264D01*
X84985714Y-97783264D02*
X85080952Y-97783264D01*
X85842857Y-98449931D02*
X85842857Y-97926121D01*
X85842857Y-97926121D02*
X85795238Y-97830883D01*
X85795238Y-97830883D02*
X85700000Y-97783264D01*
X85700000Y-97783264D02*
X85509524Y-97783264D01*
X85509524Y-97783264D02*
X85414286Y-97830883D01*
X85842857Y-98402312D02*
X85747619Y-98449931D01*
X85747619Y-98449931D02*
X85509524Y-98449931D01*
X85509524Y-98449931D02*
X85414286Y-98402312D01*
X85414286Y-98402312D02*
X85366667Y-98307073D01*
X85366667Y-98307073D02*
X85366667Y-98211835D01*
X85366667Y-98211835D02*
X85414286Y-98116597D01*
X85414286Y-98116597D02*
X85509524Y-98068978D01*
X85509524Y-98068978D02*
X85747619Y-98068978D01*
X85747619Y-98068978D02*
X85842857Y-98021359D01*
X86461905Y-98449931D02*
X86366667Y-98402312D01*
X86366667Y-98402312D02*
X86319048Y-98307073D01*
X86319048Y-98307073D02*
X86319048Y-97449931D01*
X86890477Y-98402312D02*
X86890477Y-98449931D01*
X86890477Y-98449931D02*
X86842858Y-98545169D01*
X86842858Y-98545169D02*
X86795239Y-98592788D01*
X88080953Y-97926121D02*
X88414286Y-97926121D01*
X88557143Y-98449931D02*
X88080953Y-98449931D01*
X88080953Y-98449931D02*
X88080953Y-97449931D01*
X88080953Y-97449931D02*
X88557143Y-97449931D01*
X89128572Y-98449931D02*
X89033334Y-98402312D01*
X89033334Y-98402312D02*
X88985715Y-98307073D01*
X88985715Y-98307073D02*
X88985715Y-97449931D01*
X89652382Y-98449931D02*
X89557144Y-98402312D01*
X89557144Y-98402312D02*
X89509525Y-98307073D01*
X89509525Y-98307073D02*
X89509525Y-97449931D01*
X90033335Y-98449931D02*
X90033335Y-97783264D01*
X90033335Y-97449931D02*
X89985716Y-97497550D01*
X89985716Y-97497550D02*
X90033335Y-97545169D01*
X90033335Y-97545169D02*
X90080954Y-97497550D01*
X90080954Y-97497550D02*
X90033335Y-97449931D01*
X90033335Y-97449931D02*
X90033335Y-97545169D01*
X90890477Y-98402312D02*
X90795239Y-98449931D01*
X90795239Y-98449931D02*
X90604763Y-98449931D01*
X90604763Y-98449931D02*
X90509525Y-98402312D01*
X90509525Y-98402312D02*
X90461906Y-98307073D01*
X90461906Y-98307073D02*
X90461906Y-97926121D01*
X90461906Y-97926121D02*
X90509525Y-97830883D01*
X90509525Y-97830883D02*
X90604763Y-97783264D01*
X90604763Y-97783264D02*
X90795239Y-97783264D01*
X90795239Y-97783264D02*
X90890477Y-97830883D01*
X90890477Y-97830883D02*
X90938096Y-97926121D01*
X90938096Y-97926121D02*
X90938096Y-98021359D01*
X90938096Y-98021359D02*
X90461906Y-98116597D01*
X92080954Y-98402312D02*
X92223811Y-98449931D01*
X92223811Y-98449931D02*
X92461906Y-98449931D01*
X92461906Y-98449931D02*
X92557144Y-98402312D01*
X92557144Y-98402312D02*
X92604763Y-98354692D01*
X92604763Y-98354692D02*
X92652382Y-98259454D01*
X92652382Y-98259454D02*
X92652382Y-98164216D01*
X92652382Y-98164216D02*
X92604763Y-98068978D01*
X92604763Y-98068978D02*
X92557144Y-98021359D01*
X92557144Y-98021359D02*
X92461906Y-97973740D01*
X92461906Y-97973740D02*
X92271430Y-97926121D01*
X92271430Y-97926121D02*
X92176192Y-97878502D01*
X92176192Y-97878502D02*
X92128573Y-97830883D01*
X92128573Y-97830883D02*
X92080954Y-97735645D01*
X92080954Y-97735645D02*
X92080954Y-97640407D01*
X92080954Y-97640407D02*
X92128573Y-97545169D01*
X92128573Y-97545169D02*
X92176192Y-97497550D01*
X92176192Y-97497550D02*
X92271430Y-97449931D01*
X92271430Y-97449931D02*
X92509525Y-97449931D01*
X92509525Y-97449931D02*
X92652382Y-97497550D01*
X93509525Y-97783264D02*
X93509525Y-98449931D01*
X93080954Y-97783264D02*
X93080954Y-98307073D01*
X93080954Y-98307073D02*
X93128573Y-98402312D01*
X93128573Y-98402312D02*
X93223811Y-98449931D01*
X93223811Y-98449931D02*
X93366668Y-98449931D01*
X93366668Y-98449931D02*
X93461906Y-98402312D01*
X93461906Y-98402312D02*
X93509525Y-98354692D01*
X93985716Y-97783264D02*
X93985716Y-98449931D01*
X93985716Y-97878502D02*
X94033335Y-97830883D01*
X94033335Y-97830883D02*
X94128573Y-97783264D01*
X94128573Y-97783264D02*
X94271430Y-97783264D01*
X94271430Y-97783264D02*
X94366668Y-97830883D01*
X94366668Y-97830883D02*
X94414287Y-97926121D01*
X94414287Y-97926121D02*
X94414287Y-98449931D01*
X95319049Y-98449931D02*
X95319049Y-97449931D01*
X95319049Y-98402312D02*
X95223811Y-98449931D01*
X95223811Y-98449931D02*
X95033335Y-98449931D01*
X95033335Y-98449931D02*
X94938097Y-98402312D01*
X94938097Y-98402312D02*
X94890478Y-98354692D01*
X94890478Y-98354692D02*
X94842859Y-98259454D01*
X94842859Y-98259454D02*
X94842859Y-97973740D01*
X94842859Y-97973740D02*
X94890478Y-97878502D01*
X94890478Y-97878502D02*
X94938097Y-97830883D01*
X94938097Y-97830883D02*
X95033335Y-97783264D01*
X95033335Y-97783264D02*
X95223811Y-97783264D01*
X95223811Y-97783264D02*
X95319049Y-97830883D01*
X95795240Y-98449931D02*
X95795240Y-97449931D01*
X96223811Y-98449931D02*
X96223811Y-97926121D01*
X96223811Y-97926121D02*
X96176192Y-97830883D01*
X96176192Y-97830883D02*
X96080954Y-97783264D01*
X96080954Y-97783264D02*
X95938097Y-97783264D01*
X95938097Y-97783264D02*
X95842859Y-97830883D01*
X95842859Y-97830883D02*
X95795240Y-97878502D01*
X97080954Y-98402312D02*
X96985716Y-98449931D01*
X96985716Y-98449931D02*
X96795240Y-98449931D01*
X96795240Y-98449931D02*
X96700002Y-98402312D01*
X96700002Y-98402312D02*
X96652383Y-98307073D01*
X96652383Y-98307073D02*
X96652383Y-97926121D01*
X96652383Y-97926121D02*
X96700002Y-97830883D01*
X96700002Y-97830883D02*
X96795240Y-97783264D01*
X96795240Y-97783264D02*
X96985716Y-97783264D01*
X96985716Y-97783264D02*
X97080954Y-97830883D01*
X97080954Y-97830883D02*
X97128573Y-97926121D01*
X97128573Y-97926121D02*
X97128573Y-98021359D01*
X97128573Y-98021359D02*
X96652383Y-98116597D01*
X97557145Y-98449931D02*
X97557145Y-97783264D01*
X97557145Y-97449931D02*
X97509526Y-97497550D01*
X97509526Y-97497550D02*
X97557145Y-97545169D01*
X97557145Y-97545169D02*
X97604764Y-97497550D01*
X97604764Y-97497550D02*
X97557145Y-97449931D01*
X97557145Y-97449931D02*
X97557145Y-97545169D01*
X98033335Y-98449931D02*
X98033335Y-97783264D01*
X98033335Y-97878502D02*
X98080954Y-97830883D01*
X98080954Y-97830883D02*
X98176192Y-97783264D01*
X98176192Y-97783264D02*
X98319049Y-97783264D01*
X98319049Y-97783264D02*
X98414287Y-97830883D01*
X98414287Y-97830883D02*
X98461906Y-97926121D01*
X98461906Y-97926121D02*
X98461906Y-98449931D01*
X98461906Y-97926121D02*
X98509525Y-97830883D01*
X98509525Y-97830883D02*
X98604763Y-97783264D01*
X98604763Y-97783264D02*
X98747620Y-97783264D01*
X98747620Y-97783264D02*
X98842859Y-97830883D01*
X98842859Y-97830883D02*
X98890478Y-97926121D01*
X98890478Y-97926121D02*
X98890478Y-98449931D01*
X64819046Y-100059875D02*
X64819046Y-99059875D01*
X64819046Y-99059875D02*
X65390474Y-100059875D01*
X65390474Y-100059875D02*
X65390474Y-99059875D01*
X66295236Y-100059875D02*
X66295236Y-99536065D01*
X66295236Y-99536065D02*
X66247617Y-99440827D01*
X66247617Y-99440827D02*
X66152379Y-99393208D01*
X66152379Y-99393208D02*
X65961903Y-99393208D01*
X65961903Y-99393208D02*
X65866665Y-99440827D01*
X66295236Y-100012256D02*
X66199998Y-100059875D01*
X66199998Y-100059875D02*
X65961903Y-100059875D01*
X65961903Y-100059875D02*
X65866665Y-100012256D01*
X65866665Y-100012256D02*
X65819046Y-99917017D01*
X65819046Y-99917017D02*
X65819046Y-99821779D01*
X65819046Y-99821779D02*
X65866665Y-99726541D01*
X65866665Y-99726541D02*
X65961903Y-99678922D01*
X65961903Y-99678922D02*
X66199998Y-99678922D01*
X66199998Y-99678922D02*
X66295236Y-99631303D01*
X66628570Y-99393208D02*
X67009522Y-99393208D01*
X66771427Y-99059875D02*
X66771427Y-99917017D01*
X66771427Y-99917017D02*
X66819046Y-100012256D01*
X66819046Y-100012256D02*
X66914284Y-100059875D01*
X66914284Y-100059875D02*
X67009522Y-100059875D01*
X67771427Y-100059875D02*
X67771427Y-99536065D01*
X67771427Y-99536065D02*
X67723808Y-99440827D01*
X67723808Y-99440827D02*
X67628570Y-99393208D01*
X67628570Y-99393208D02*
X67438094Y-99393208D01*
X67438094Y-99393208D02*
X67342856Y-99440827D01*
X67771427Y-100012256D02*
X67676189Y-100059875D01*
X67676189Y-100059875D02*
X67438094Y-100059875D01*
X67438094Y-100059875D02*
X67342856Y-100012256D01*
X67342856Y-100012256D02*
X67295237Y-99917017D01*
X67295237Y-99917017D02*
X67295237Y-99821779D01*
X67295237Y-99821779D02*
X67342856Y-99726541D01*
X67342856Y-99726541D02*
X67438094Y-99678922D01*
X67438094Y-99678922D02*
X67676189Y-99678922D01*
X67676189Y-99678922D02*
X67771427Y-99631303D01*
X68390475Y-100059875D02*
X68295237Y-100012256D01*
X68295237Y-100012256D02*
X68247618Y-99917017D01*
X68247618Y-99917017D02*
X68247618Y-99059875D01*
X68771428Y-100059875D02*
X68771428Y-99393208D01*
X68771428Y-99059875D02*
X68723809Y-99107494D01*
X68723809Y-99107494D02*
X68771428Y-99155113D01*
X68771428Y-99155113D02*
X68819047Y-99107494D01*
X68819047Y-99107494D02*
X68771428Y-99059875D01*
X68771428Y-99059875D02*
X68771428Y-99155113D01*
X69628570Y-100012256D02*
X69533332Y-100059875D01*
X69533332Y-100059875D02*
X69342856Y-100059875D01*
X69342856Y-100059875D02*
X69247618Y-100012256D01*
X69247618Y-100012256D02*
X69199999Y-99917017D01*
X69199999Y-99917017D02*
X69199999Y-99536065D01*
X69199999Y-99536065D02*
X69247618Y-99440827D01*
X69247618Y-99440827D02*
X69342856Y-99393208D01*
X69342856Y-99393208D02*
X69533332Y-99393208D01*
X69533332Y-99393208D02*
X69628570Y-99440827D01*
X69628570Y-99440827D02*
X69676189Y-99536065D01*
X69676189Y-99536065D02*
X69676189Y-99631303D01*
X69676189Y-99631303D02*
X69199999Y-99726541D01*
X70819047Y-99774160D02*
X71295237Y-99774160D01*
X70723809Y-100059875D02*
X71057142Y-99059875D01*
X71057142Y-99059875D02*
X71390475Y-100059875D01*
X71723809Y-100059875D02*
X71723809Y-99393208D01*
X71723809Y-99583684D02*
X71771428Y-99488446D01*
X71771428Y-99488446D02*
X71819047Y-99440827D01*
X71819047Y-99440827D02*
X71914285Y-99393208D01*
X71914285Y-99393208D02*
X72009523Y-99393208D01*
X72771428Y-100012256D02*
X72676190Y-100059875D01*
X72676190Y-100059875D02*
X72485714Y-100059875D01*
X72485714Y-100059875D02*
X72390476Y-100012256D01*
X72390476Y-100012256D02*
X72342857Y-99964636D01*
X72342857Y-99964636D02*
X72295238Y-99869398D01*
X72295238Y-99869398D02*
X72295238Y-99583684D01*
X72295238Y-99583684D02*
X72342857Y-99488446D01*
X72342857Y-99488446D02*
X72390476Y-99440827D01*
X72390476Y-99440827D02*
X72485714Y-99393208D01*
X72485714Y-99393208D02*
X72676190Y-99393208D01*
X72676190Y-99393208D02*
X72771428Y-99440827D01*
X73580952Y-100012256D02*
X73485714Y-100059875D01*
X73485714Y-100059875D02*
X73295238Y-100059875D01*
X73295238Y-100059875D02*
X73200000Y-100012256D01*
X73200000Y-100012256D02*
X73152381Y-99917017D01*
X73152381Y-99917017D02*
X73152381Y-99536065D01*
X73152381Y-99536065D02*
X73200000Y-99440827D01*
X73200000Y-99440827D02*
X73295238Y-99393208D01*
X73295238Y-99393208D02*
X73485714Y-99393208D01*
X73485714Y-99393208D02*
X73580952Y-99440827D01*
X73580952Y-99440827D02*
X73628571Y-99536065D01*
X73628571Y-99536065D02*
X73628571Y-99631303D01*
X73628571Y-99631303D02*
X73152381Y-99726541D01*
X74104762Y-100012256D02*
X74104762Y-100059875D01*
X74104762Y-100059875D02*
X74057143Y-100155113D01*
X74057143Y-100155113D02*
X74009524Y-100202732D01*
X75580952Y-99059875D02*
X75580952Y-99774160D01*
X75580952Y-99774160D02*
X75533333Y-99917017D01*
X75533333Y-99917017D02*
X75438095Y-100012256D01*
X75438095Y-100012256D02*
X75295238Y-100059875D01*
X75295238Y-100059875D02*
X75200000Y-100059875D01*
X76438095Y-100012256D02*
X76342857Y-100059875D01*
X76342857Y-100059875D02*
X76152381Y-100059875D01*
X76152381Y-100059875D02*
X76057143Y-100012256D01*
X76057143Y-100012256D02*
X76009524Y-99917017D01*
X76009524Y-99917017D02*
X76009524Y-99536065D01*
X76009524Y-99536065D02*
X76057143Y-99440827D01*
X76057143Y-99440827D02*
X76152381Y-99393208D01*
X76152381Y-99393208D02*
X76342857Y-99393208D01*
X76342857Y-99393208D02*
X76438095Y-99440827D01*
X76438095Y-99440827D02*
X76485714Y-99536065D01*
X76485714Y-99536065D02*
X76485714Y-99631303D01*
X76485714Y-99631303D02*
X76009524Y-99726541D01*
X76866667Y-100012256D02*
X76961905Y-100059875D01*
X76961905Y-100059875D02*
X77152381Y-100059875D01*
X77152381Y-100059875D02*
X77247619Y-100012256D01*
X77247619Y-100012256D02*
X77295238Y-99917017D01*
X77295238Y-99917017D02*
X77295238Y-99869398D01*
X77295238Y-99869398D02*
X77247619Y-99774160D01*
X77247619Y-99774160D02*
X77152381Y-99726541D01*
X77152381Y-99726541D02*
X77009524Y-99726541D01*
X77009524Y-99726541D02*
X76914286Y-99678922D01*
X76914286Y-99678922D02*
X76866667Y-99583684D01*
X76866667Y-99583684D02*
X76866667Y-99536065D01*
X76866667Y-99536065D02*
X76914286Y-99440827D01*
X76914286Y-99440827D02*
X77009524Y-99393208D01*
X77009524Y-99393208D02*
X77152381Y-99393208D01*
X77152381Y-99393208D02*
X77247619Y-99440827D01*
X77676191Y-100012256D02*
X77771429Y-100059875D01*
X77771429Y-100059875D02*
X77961905Y-100059875D01*
X77961905Y-100059875D02*
X78057143Y-100012256D01*
X78057143Y-100012256D02*
X78104762Y-99917017D01*
X78104762Y-99917017D02*
X78104762Y-99869398D01*
X78104762Y-99869398D02*
X78057143Y-99774160D01*
X78057143Y-99774160D02*
X77961905Y-99726541D01*
X77961905Y-99726541D02*
X77819048Y-99726541D01*
X77819048Y-99726541D02*
X77723810Y-99678922D01*
X77723810Y-99678922D02*
X77676191Y-99583684D01*
X77676191Y-99583684D02*
X77676191Y-99536065D01*
X77676191Y-99536065D02*
X77723810Y-99440827D01*
X77723810Y-99440827D02*
X77819048Y-99393208D01*
X77819048Y-99393208D02*
X77961905Y-99393208D01*
X77961905Y-99393208D02*
X78057143Y-99440827D01*
X78533334Y-100059875D02*
X78533334Y-99393208D01*
X78533334Y-99059875D02*
X78485715Y-99107494D01*
X78485715Y-99107494D02*
X78533334Y-99155113D01*
X78533334Y-99155113D02*
X78580953Y-99107494D01*
X78580953Y-99107494D02*
X78533334Y-99059875D01*
X78533334Y-99059875D02*
X78533334Y-99155113D01*
X79438095Y-100012256D02*
X79342857Y-100059875D01*
X79342857Y-100059875D02*
X79152381Y-100059875D01*
X79152381Y-100059875D02*
X79057143Y-100012256D01*
X79057143Y-100012256D02*
X79009524Y-99964636D01*
X79009524Y-99964636D02*
X78961905Y-99869398D01*
X78961905Y-99869398D02*
X78961905Y-99583684D01*
X78961905Y-99583684D02*
X79009524Y-99488446D01*
X79009524Y-99488446D02*
X79057143Y-99440827D01*
X79057143Y-99440827D02*
X79152381Y-99393208D01*
X79152381Y-99393208D02*
X79342857Y-99393208D01*
X79342857Y-99393208D02*
X79438095Y-99440827D01*
X80295238Y-100059875D02*
X80295238Y-99536065D01*
X80295238Y-99536065D02*
X80247619Y-99440827D01*
X80247619Y-99440827D02*
X80152381Y-99393208D01*
X80152381Y-99393208D02*
X79961905Y-99393208D01*
X79961905Y-99393208D02*
X79866667Y-99440827D01*
X80295238Y-100012256D02*
X80200000Y-100059875D01*
X80200000Y-100059875D02*
X79961905Y-100059875D01*
X79961905Y-100059875D02*
X79866667Y-100012256D01*
X79866667Y-100012256D02*
X79819048Y-99917017D01*
X79819048Y-99917017D02*
X79819048Y-99821779D01*
X79819048Y-99821779D02*
X79866667Y-99726541D01*
X79866667Y-99726541D02*
X79961905Y-99678922D01*
X79961905Y-99678922D02*
X80200000Y-99678922D01*
X80200000Y-99678922D02*
X80295238Y-99631303D01*
X82009524Y-100059875D02*
X81533334Y-100059875D01*
X81533334Y-100059875D02*
X81533334Y-99059875D01*
X82342858Y-100059875D02*
X82342858Y-99393208D01*
X82342858Y-99059875D02*
X82295239Y-99107494D01*
X82295239Y-99107494D02*
X82342858Y-99155113D01*
X82342858Y-99155113D02*
X82390477Y-99107494D01*
X82390477Y-99107494D02*
X82342858Y-99059875D01*
X82342858Y-99059875D02*
X82342858Y-99155113D01*
X83247619Y-99393208D02*
X83247619Y-100059875D01*
X82819048Y-99393208D02*
X82819048Y-99917017D01*
X82819048Y-99917017D02*
X82866667Y-100012256D01*
X82866667Y-100012256D02*
X82961905Y-100059875D01*
X82961905Y-100059875D02*
X83104762Y-100059875D01*
X83104762Y-100059875D02*
X83200000Y-100012256D01*
X83200000Y-100012256D02*
X83247619Y-99964636D01*
X83771429Y-100012256D02*
X83771429Y-100059875D01*
X83771429Y-100059875D02*
X83723810Y-100155113D01*
X83723810Y-100155113D02*
X83676191Y-100202732D01*
X85533333Y-99964636D02*
X85485714Y-100012256D01*
X85485714Y-100012256D02*
X85342857Y-100059875D01*
X85342857Y-100059875D02*
X85247619Y-100059875D01*
X85247619Y-100059875D02*
X85104762Y-100012256D01*
X85104762Y-100012256D02*
X85009524Y-99917017D01*
X85009524Y-99917017D02*
X84961905Y-99821779D01*
X84961905Y-99821779D02*
X84914286Y-99631303D01*
X84914286Y-99631303D02*
X84914286Y-99488446D01*
X84914286Y-99488446D02*
X84961905Y-99297970D01*
X84961905Y-99297970D02*
X85009524Y-99202732D01*
X85009524Y-99202732D02*
X85104762Y-99107494D01*
X85104762Y-99107494D02*
X85247619Y-99059875D01*
X85247619Y-99059875D02*
X85342857Y-99059875D01*
X85342857Y-99059875D02*
X85485714Y-99107494D01*
X85485714Y-99107494D02*
X85533333Y-99155113D01*
X86390476Y-100059875D02*
X86390476Y-99536065D01*
X86390476Y-99536065D02*
X86342857Y-99440827D01*
X86342857Y-99440827D02*
X86247619Y-99393208D01*
X86247619Y-99393208D02*
X86057143Y-99393208D01*
X86057143Y-99393208D02*
X85961905Y-99440827D01*
X86390476Y-100012256D02*
X86295238Y-100059875D01*
X86295238Y-100059875D02*
X86057143Y-100059875D01*
X86057143Y-100059875D02*
X85961905Y-100012256D01*
X85961905Y-100012256D02*
X85914286Y-99917017D01*
X85914286Y-99917017D02*
X85914286Y-99821779D01*
X85914286Y-99821779D02*
X85961905Y-99726541D01*
X85961905Y-99726541D02*
X86057143Y-99678922D01*
X86057143Y-99678922D02*
X86295238Y-99678922D01*
X86295238Y-99678922D02*
X86390476Y-99631303D01*
X86866667Y-100059875D02*
X86866667Y-99393208D01*
X86866667Y-99488446D02*
X86914286Y-99440827D01*
X86914286Y-99440827D02*
X87009524Y-99393208D01*
X87009524Y-99393208D02*
X87152381Y-99393208D01*
X87152381Y-99393208D02*
X87247619Y-99440827D01*
X87247619Y-99440827D02*
X87295238Y-99536065D01*
X87295238Y-99536065D02*
X87295238Y-100059875D01*
X87295238Y-99536065D02*
X87342857Y-99440827D01*
X87342857Y-99440827D02*
X87438095Y-99393208D01*
X87438095Y-99393208D02*
X87580952Y-99393208D01*
X87580952Y-99393208D02*
X87676191Y-99440827D01*
X87676191Y-99440827D02*
X87723810Y-99536065D01*
X87723810Y-99536065D02*
X87723810Y-100059875D01*
X88580952Y-100012256D02*
X88485714Y-100059875D01*
X88485714Y-100059875D02*
X88295238Y-100059875D01*
X88295238Y-100059875D02*
X88200000Y-100012256D01*
X88200000Y-100012256D02*
X88152381Y-99917017D01*
X88152381Y-99917017D02*
X88152381Y-99536065D01*
X88152381Y-99536065D02*
X88200000Y-99440827D01*
X88200000Y-99440827D02*
X88295238Y-99393208D01*
X88295238Y-99393208D02*
X88485714Y-99393208D01*
X88485714Y-99393208D02*
X88580952Y-99440827D01*
X88580952Y-99440827D02*
X88628571Y-99536065D01*
X88628571Y-99536065D02*
X88628571Y-99631303D01*
X88628571Y-99631303D02*
X88152381Y-99726541D01*
X89057143Y-100059875D02*
X89057143Y-99393208D01*
X89057143Y-99583684D02*
X89104762Y-99488446D01*
X89104762Y-99488446D02*
X89152381Y-99440827D01*
X89152381Y-99440827D02*
X89247619Y-99393208D01*
X89247619Y-99393208D02*
X89342857Y-99393208D01*
X89819048Y-100059875D02*
X89723810Y-100012256D01*
X89723810Y-100012256D02*
X89676191Y-99964636D01*
X89676191Y-99964636D02*
X89628572Y-99869398D01*
X89628572Y-99869398D02*
X89628572Y-99583684D01*
X89628572Y-99583684D02*
X89676191Y-99488446D01*
X89676191Y-99488446D02*
X89723810Y-99440827D01*
X89723810Y-99440827D02*
X89819048Y-99393208D01*
X89819048Y-99393208D02*
X89961905Y-99393208D01*
X89961905Y-99393208D02*
X90057143Y-99440827D01*
X90057143Y-99440827D02*
X90104762Y-99488446D01*
X90104762Y-99488446D02*
X90152381Y-99583684D01*
X90152381Y-99583684D02*
X90152381Y-99869398D01*
X90152381Y-99869398D02*
X90104762Y-99964636D01*
X90104762Y-99964636D02*
X90057143Y-100012256D01*
X90057143Y-100012256D02*
X89961905Y-100059875D01*
X89961905Y-100059875D02*
X89819048Y-100059875D01*
X90580953Y-99393208D02*
X90580953Y-100059875D01*
X90580953Y-99488446D02*
X90628572Y-99440827D01*
X90628572Y-99440827D02*
X90723810Y-99393208D01*
X90723810Y-99393208D02*
X90866667Y-99393208D01*
X90866667Y-99393208D02*
X90961905Y-99440827D01*
X90961905Y-99440827D02*
X91009524Y-99536065D01*
X91009524Y-99536065D02*
X91009524Y-100059875D01*
X92247620Y-100059875D02*
X92247620Y-99059875D01*
X92247620Y-99536065D02*
X92819048Y-99536065D01*
X92819048Y-100059875D02*
X92819048Y-99059875D01*
X93676191Y-100012256D02*
X93580953Y-100059875D01*
X93580953Y-100059875D02*
X93390477Y-100059875D01*
X93390477Y-100059875D02*
X93295239Y-100012256D01*
X93295239Y-100012256D02*
X93247620Y-99917017D01*
X93247620Y-99917017D02*
X93247620Y-99536065D01*
X93247620Y-99536065D02*
X93295239Y-99440827D01*
X93295239Y-99440827D02*
X93390477Y-99393208D01*
X93390477Y-99393208D02*
X93580953Y-99393208D01*
X93580953Y-99393208D02*
X93676191Y-99440827D01*
X93676191Y-99440827D02*
X93723810Y-99536065D01*
X93723810Y-99536065D02*
X93723810Y-99631303D01*
X93723810Y-99631303D02*
X93247620Y-99726541D01*
X94152382Y-100059875D02*
X94152382Y-99393208D01*
X94152382Y-99583684D02*
X94200001Y-99488446D01*
X94200001Y-99488446D02*
X94247620Y-99440827D01*
X94247620Y-99440827D02*
X94342858Y-99393208D01*
X94342858Y-99393208D02*
X94438096Y-99393208D01*
X94771430Y-99393208D02*
X94771430Y-100059875D01*
X94771430Y-99488446D02*
X94819049Y-99440827D01*
X94819049Y-99440827D02*
X94914287Y-99393208D01*
X94914287Y-99393208D02*
X95057144Y-99393208D01*
X95057144Y-99393208D02*
X95152382Y-99440827D01*
X95152382Y-99440827D02*
X95200001Y-99536065D01*
X95200001Y-99536065D02*
X95200001Y-100059875D01*
X96104763Y-100059875D02*
X96104763Y-99536065D01*
X96104763Y-99536065D02*
X96057144Y-99440827D01*
X96057144Y-99440827D02*
X95961906Y-99393208D01*
X95961906Y-99393208D02*
X95771430Y-99393208D01*
X95771430Y-99393208D02*
X95676192Y-99440827D01*
X96104763Y-100012256D02*
X96009525Y-100059875D01*
X96009525Y-100059875D02*
X95771430Y-100059875D01*
X95771430Y-100059875D02*
X95676192Y-100012256D01*
X95676192Y-100012256D02*
X95628573Y-99917017D01*
X95628573Y-99917017D02*
X95628573Y-99821779D01*
X95628573Y-99821779D02*
X95676192Y-99726541D01*
X95676192Y-99726541D02*
X95771430Y-99678922D01*
X95771430Y-99678922D02*
X96009525Y-99678922D01*
X96009525Y-99678922D02*
X96104763Y-99631303D01*
X96580954Y-99393208D02*
X96580954Y-100059875D01*
X96580954Y-99488446D02*
X96628573Y-99440827D01*
X96628573Y-99440827D02*
X96723811Y-99393208D01*
X96723811Y-99393208D02*
X96866668Y-99393208D01*
X96866668Y-99393208D02*
X96961906Y-99440827D01*
X96961906Y-99440827D02*
X97009525Y-99536065D01*
X97009525Y-99536065D02*
X97009525Y-100059875D01*
X97914287Y-100059875D02*
X97914287Y-99059875D01*
X97914287Y-100012256D02*
X97819049Y-100059875D01*
X97819049Y-100059875D02*
X97628573Y-100059875D01*
X97628573Y-100059875D02*
X97533335Y-100012256D01*
X97533335Y-100012256D02*
X97485716Y-99964636D01*
X97485716Y-99964636D02*
X97438097Y-99869398D01*
X97438097Y-99869398D02*
X97438097Y-99583684D01*
X97438097Y-99583684D02*
X97485716Y-99488446D01*
X97485716Y-99488446D02*
X97533335Y-99440827D01*
X97533335Y-99440827D02*
X97628573Y-99393208D01*
X97628573Y-99393208D02*
X97819049Y-99393208D01*
X97819049Y-99393208D02*
X97914287Y-99440827D01*
X98771430Y-100012256D02*
X98676192Y-100059875D01*
X98676192Y-100059875D02*
X98485716Y-100059875D01*
X98485716Y-100059875D02*
X98390478Y-100012256D01*
X98390478Y-100012256D02*
X98342859Y-99917017D01*
X98342859Y-99917017D02*
X98342859Y-99536065D01*
X98342859Y-99536065D02*
X98390478Y-99440827D01*
X98390478Y-99440827D02*
X98485716Y-99393208D01*
X98485716Y-99393208D02*
X98676192Y-99393208D01*
X98676192Y-99393208D02*
X98771430Y-99440827D01*
X98771430Y-99440827D02*
X98819049Y-99536065D01*
X98819049Y-99536065D02*
X98819049Y-99631303D01*
X98819049Y-99631303D02*
X98342859Y-99726541D01*
X99152383Y-99393208D02*
X99676192Y-99393208D01*
X99676192Y-99393208D02*
X99152383Y-100059875D01*
X99152383Y-100059875D02*
X99676192Y-100059875D01*
X69842855Y-101669819D02*
X69842855Y-100669819D01*
X70271426Y-101622200D02*
X70366664Y-101669819D01*
X70366664Y-101669819D02*
X70557140Y-101669819D01*
X70557140Y-101669819D02*
X70652378Y-101622200D01*
X70652378Y-101622200D02*
X70699997Y-101526961D01*
X70699997Y-101526961D02*
X70699997Y-101479342D01*
X70699997Y-101479342D02*
X70652378Y-101384104D01*
X70652378Y-101384104D02*
X70557140Y-101336485D01*
X70557140Y-101336485D02*
X70414283Y-101336485D01*
X70414283Y-101336485D02*
X70319045Y-101288866D01*
X70319045Y-101288866D02*
X70271426Y-101193628D01*
X70271426Y-101193628D02*
X70271426Y-101146009D01*
X70271426Y-101146009D02*
X70319045Y-101050771D01*
X70319045Y-101050771D02*
X70414283Y-101003152D01*
X70414283Y-101003152D02*
X70557140Y-101003152D01*
X70557140Y-101003152D02*
X70652378Y-101050771D01*
X71557140Y-101669819D02*
X71557140Y-101146009D01*
X71557140Y-101146009D02*
X71509521Y-101050771D01*
X71509521Y-101050771D02*
X71414283Y-101003152D01*
X71414283Y-101003152D02*
X71223807Y-101003152D01*
X71223807Y-101003152D02*
X71128569Y-101050771D01*
X71557140Y-101622200D02*
X71461902Y-101669819D01*
X71461902Y-101669819D02*
X71223807Y-101669819D01*
X71223807Y-101669819D02*
X71128569Y-101622200D01*
X71128569Y-101622200D02*
X71080950Y-101526961D01*
X71080950Y-101526961D02*
X71080950Y-101431723D01*
X71080950Y-101431723D02*
X71128569Y-101336485D01*
X71128569Y-101336485D02*
X71223807Y-101288866D01*
X71223807Y-101288866D02*
X71461902Y-101288866D01*
X71461902Y-101288866D02*
X71557140Y-101241247D01*
X72033331Y-101669819D02*
X72033331Y-100669819D01*
X72033331Y-101050771D02*
X72128569Y-101003152D01*
X72128569Y-101003152D02*
X72319045Y-101003152D01*
X72319045Y-101003152D02*
X72414283Y-101050771D01*
X72414283Y-101050771D02*
X72461902Y-101098390D01*
X72461902Y-101098390D02*
X72509521Y-101193628D01*
X72509521Y-101193628D02*
X72509521Y-101479342D01*
X72509521Y-101479342D02*
X72461902Y-101574580D01*
X72461902Y-101574580D02*
X72414283Y-101622200D01*
X72414283Y-101622200D02*
X72319045Y-101669819D01*
X72319045Y-101669819D02*
X72128569Y-101669819D01*
X72128569Y-101669819D02*
X72033331Y-101622200D01*
X73319045Y-101622200D02*
X73223807Y-101669819D01*
X73223807Y-101669819D02*
X73033331Y-101669819D01*
X73033331Y-101669819D02*
X72938093Y-101622200D01*
X72938093Y-101622200D02*
X72890474Y-101526961D01*
X72890474Y-101526961D02*
X72890474Y-101146009D01*
X72890474Y-101146009D02*
X72938093Y-101050771D01*
X72938093Y-101050771D02*
X73033331Y-101003152D01*
X73033331Y-101003152D02*
X73223807Y-101003152D01*
X73223807Y-101003152D02*
X73319045Y-101050771D01*
X73319045Y-101050771D02*
X73366664Y-101146009D01*
X73366664Y-101146009D02*
X73366664Y-101241247D01*
X73366664Y-101241247D02*
X72890474Y-101336485D01*
X73938093Y-101669819D02*
X73842855Y-101622200D01*
X73842855Y-101622200D02*
X73795236Y-101526961D01*
X73795236Y-101526961D02*
X73795236Y-100669819D01*
X74461903Y-101669819D02*
X74366665Y-101622200D01*
X74366665Y-101622200D02*
X74319046Y-101526961D01*
X74319046Y-101526961D02*
X74319046Y-100669819D01*
X75271427Y-101669819D02*
X75271427Y-101146009D01*
X75271427Y-101146009D02*
X75223808Y-101050771D01*
X75223808Y-101050771D02*
X75128570Y-101003152D01*
X75128570Y-101003152D02*
X74938094Y-101003152D01*
X74938094Y-101003152D02*
X74842856Y-101050771D01*
X75271427Y-101622200D02*
X75176189Y-101669819D01*
X75176189Y-101669819D02*
X74938094Y-101669819D01*
X74938094Y-101669819D02*
X74842856Y-101622200D01*
X74842856Y-101622200D02*
X74795237Y-101526961D01*
X74795237Y-101526961D02*
X74795237Y-101431723D01*
X74795237Y-101431723D02*
X74842856Y-101336485D01*
X74842856Y-101336485D02*
X74938094Y-101288866D01*
X74938094Y-101288866D02*
X75176189Y-101288866D01*
X75176189Y-101288866D02*
X75271427Y-101241247D01*
X76509523Y-101669819D02*
X76509523Y-100669819D01*
X76509523Y-101146009D02*
X77080951Y-101146009D01*
X77080951Y-101669819D02*
X77080951Y-100669819D01*
X77699999Y-101669819D02*
X77604761Y-101622200D01*
X77604761Y-101622200D02*
X77557142Y-101574580D01*
X77557142Y-101574580D02*
X77509523Y-101479342D01*
X77509523Y-101479342D02*
X77509523Y-101193628D01*
X77509523Y-101193628D02*
X77557142Y-101098390D01*
X77557142Y-101098390D02*
X77604761Y-101050771D01*
X77604761Y-101050771D02*
X77699999Y-101003152D01*
X77699999Y-101003152D02*
X77842856Y-101003152D01*
X77842856Y-101003152D02*
X77938094Y-101050771D01*
X77938094Y-101050771D02*
X77985713Y-101098390D01*
X77985713Y-101098390D02*
X78033332Y-101193628D01*
X78033332Y-101193628D02*
X78033332Y-101479342D01*
X78033332Y-101479342D02*
X77985713Y-101574580D01*
X77985713Y-101574580D02*
X77938094Y-101622200D01*
X77938094Y-101622200D02*
X77842856Y-101669819D01*
X77842856Y-101669819D02*
X77699999Y-101669819D01*
X78319047Y-101003152D02*
X78699999Y-101003152D01*
X78461904Y-100669819D02*
X78461904Y-101526961D01*
X78461904Y-101526961D02*
X78509523Y-101622200D01*
X78509523Y-101622200D02*
X78604761Y-101669819D01*
X78604761Y-101669819D02*
X78699999Y-101669819D01*
X78890476Y-101003152D02*
X79271428Y-101003152D01*
X79033333Y-100669819D02*
X79033333Y-101526961D01*
X79033333Y-101526961D02*
X79080952Y-101622200D01*
X79080952Y-101622200D02*
X79176190Y-101669819D01*
X79176190Y-101669819D02*
X79271428Y-101669819D01*
X79985714Y-101622200D02*
X79890476Y-101669819D01*
X79890476Y-101669819D02*
X79700000Y-101669819D01*
X79700000Y-101669819D02*
X79604762Y-101622200D01*
X79604762Y-101622200D02*
X79557143Y-101526961D01*
X79557143Y-101526961D02*
X79557143Y-101146009D01*
X79557143Y-101146009D02*
X79604762Y-101050771D01*
X79604762Y-101050771D02*
X79700000Y-101003152D01*
X79700000Y-101003152D02*
X79890476Y-101003152D01*
X79890476Y-101003152D02*
X79985714Y-101050771D01*
X79985714Y-101050771D02*
X80033333Y-101146009D01*
X80033333Y-101146009D02*
X80033333Y-101241247D01*
X80033333Y-101241247D02*
X79557143Y-101336485D01*
X80461905Y-101003152D02*
X80461905Y-101669819D01*
X80461905Y-101098390D02*
X80509524Y-101050771D01*
X80509524Y-101050771D02*
X80604762Y-101003152D01*
X80604762Y-101003152D02*
X80747619Y-101003152D01*
X80747619Y-101003152D02*
X80842857Y-101050771D01*
X80842857Y-101050771D02*
X80890476Y-101146009D01*
X80890476Y-101146009D02*
X80890476Y-101669819D01*
X81366667Y-101669819D02*
X81366667Y-101003152D01*
X81366667Y-101193628D02*
X81414286Y-101098390D01*
X81414286Y-101098390D02*
X81461905Y-101050771D01*
X81461905Y-101050771D02*
X81557143Y-101003152D01*
X81557143Y-101003152D02*
X81652381Y-101003152D01*
X82128572Y-101669819D02*
X82033334Y-101622200D01*
X82033334Y-101622200D02*
X81985715Y-101574580D01*
X81985715Y-101574580D02*
X81938096Y-101479342D01*
X81938096Y-101479342D02*
X81938096Y-101193628D01*
X81938096Y-101193628D02*
X81985715Y-101098390D01*
X81985715Y-101098390D02*
X82033334Y-101050771D01*
X82033334Y-101050771D02*
X82128572Y-101003152D01*
X82128572Y-101003152D02*
X82271429Y-101003152D01*
X82271429Y-101003152D02*
X82366667Y-101050771D01*
X82366667Y-101050771D02*
X82414286Y-101098390D01*
X82414286Y-101098390D02*
X82461905Y-101193628D01*
X82461905Y-101193628D02*
X82461905Y-101479342D01*
X82461905Y-101479342D02*
X82414286Y-101574580D01*
X82414286Y-101574580D02*
X82366667Y-101622200D01*
X82366667Y-101622200D02*
X82271429Y-101669819D01*
X82271429Y-101669819D02*
X82128572Y-101669819D01*
X82747620Y-101003152D02*
X83128572Y-101003152D01*
X82890477Y-100669819D02*
X82890477Y-101526961D01*
X82890477Y-101526961D02*
X82938096Y-101622200D01*
X82938096Y-101622200D02*
X83033334Y-101669819D01*
X83033334Y-101669819D02*
X83128572Y-101669819D01*
X83319049Y-101003152D02*
X83700001Y-101003152D01*
X83461906Y-100669819D02*
X83461906Y-101526961D01*
X83461906Y-101526961D02*
X83509525Y-101622200D01*
X83509525Y-101622200D02*
X83604763Y-101669819D01*
X83604763Y-101669819D02*
X83700001Y-101669819D01*
X84080954Y-101622200D02*
X84080954Y-101669819D01*
X84080954Y-101669819D02*
X84033335Y-101765057D01*
X84033335Y-101765057D02*
X83985716Y-101812676D01*
X85747620Y-101669819D02*
X85271430Y-101669819D01*
X85271430Y-101669819D02*
X85271430Y-100669819D01*
X86509525Y-101003152D02*
X86509525Y-101669819D01*
X86080954Y-101003152D02*
X86080954Y-101526961D01*
X86080954Y-101526961D02*
X86128573Y-101622200D01*
X86128573Y-101622200D02*
X86223811Y-101669819D01*
X86223811Y-101669819D02*
X86366668Y-101669819D01*
X86366668Y-101669819D02*
X86461906Y-101622200D01*
X86461906Y-101622200D02*
X86509525Y-101574580D01*
X87414287Y-101622200D02*
X87319049Y-101669819D01*
X87319049Y-101669819D02*
X87128573Y-101669819D01*
X87128573Y-101669819D02*
X87033335Y-101622200D01*
X87033335Y-101622200D02*
X86985716Y-101574580D01*
X86985716Y-101574580D02*
X86938097Y-101479342D01*
X86938097Y-101479342D02*
X86938097Y-101193628D01*
X86938097Y-101193628D02*
X86985716Y-101098390D01*
X86985716Y-101098390D02*
X87033335Y-101050771D01*
X87033335Y-101050771D02*
X87128573Y-101003152D01*
X87128573Y-101003152D02*
X87319049Y-101003152D01*
X87319049Y-101003152D02*
X87414287Y-101050771D01*
X88271430Y-101669819D02*
X88271430Y-101146009D01*
X88271430Y-101146009D02*
X88223811Y-101050771D01*
X88223811Y-101050771D02*
X88128573Y-101003152D01*
X88128573Y-101003152D02*
X87938097Y-101003152D01*
X87938097Y-101003152D02*
X87842859Y-101050771D01*
X88271430Y-101622200D02*
X88176192Y-101669819D01*
X88176192Y-101669819D02*
X87938097Y-101669819D01*
X87938097Y-101669819D02*
X87842859Y-101622200D01*
X87842859Y-101622200D02*
X87795240Y-101526961D01*
X87795240Y-101526961D02*
X87795240Y-101431723D01*
X87795240Y-101431723D02*
X87842859Y-101336485D01*
X87842859Y-101336485D02*
X87938097Y-101288866D01*
X87938097Y-101288866D02*
X88176192Y-101288866D01*
X88176192Y-101288866D02*
X88271430Y-101241247D01*
X88700002Y-101622200D02*
X88795240Y-101669819D01*
X88795240Y-101669819D02*
X88985716Y-101669819D01*
X88985716Y-101669819D02*
X89080954Y-101622200D01*
X89080954Y-101622200D02*
X89128573Y-101526961D01*
X89128573Y-101526961D02*
X89128573Y-101479342D01*
X89128573Y-101479342D02*
X89080954Y-101384104D01*
X89080954Y-101384104D02*
X88985716Y-101336485D01*
X88985716Y-101336485D02*
X88842859Y-101336485D01*
X88842859Y-101336485D02*
X88747621Y-101288866D01*
X88747621Y-101288866D02*
X88700002Y-101193628D01*
X88700002Y-101193628D02*
X88700002Y-101146009D01*
X88700002Y-101146009D02*
X88747621Y-101050771D01*
X88747621Y-101050771D02*
X88842859Y-101003152D01*
X88842859Y-101003152D02*
X88985716Y-101003152D01*
X88985716Y-101003152D02*
X89080954Y-101050771D01*
X90795240Y-101669819D02*
X90319050Y-101669819D01*
X90319050Y-101669819D02*
X90319050Y-100669819D01*
X91509526Y-101622200D02*
X91414288Y-101669819D01*
X91414288Y-101669819D02*
X91223812Y-101669819D01*
X91223812Y-101669819D02*
X91128574Y-101622200D01*
X91128574Y-101622200D02*
X91080955Y-101526961D01*
X91080955Y-101526961D02*
X91080955Y-101146009D01*
X91080955Y-101146009D02*
X91128574Y-101050771D01*
X91128574Y-101050771D02*
X91223812Y-101003152D01*
X91223812Y-101003152D02*
X91414288Y-101003152D01*
X91414288Y-101003152D02*
X91509526Y-101050771D01*
X91509526Y-101050771D02*
X91557145Y-101146009D01*
X91557145Y-101146009D02*
X91557145Y-101241247D01*
X91557145Y-101241247D02*
X91080955Y-101336485D01*
X91985717Y-101669819D02*
X91985717Y-101003152D01*
X91985717Y-101098390D02*
X92033336Y-101050771D01*
X92033336Y-101050771D02*
X92128574Y-101003152D01*
X92128574Y-101003152D02*
X92271431Y-101003152D01*
X92271431Y-101003152D02*
X92366669Y-101050771D01*
X92366669Y-101050771D02*
X92414288Y-101146009D01*
X92414288Y-101146009D02*
X92414288Y-101669819D01*
X92414288Y-101146009D02*
X92461907Y-101050771D01*
X92461907Y-101050771D02*
X92557145Y-101003152D01*
X92557145Y-101003152D02*
X92700002Y-101003152D01*
X92700002Y-101003152D02*
X92795241Y-101050771D01*
X92795241Y-101050771D02*
X92842860Y-101146009D01*
X92842860Y-101146009D02*
X92842860Y-101669819D01*
X93461907Y-101669819D02*
X93366669Y-101622200D01*
X93366669Y-101622200D02*
X93319050Y-101574580D01*
X93319050Y-101574580D02*
X93271431Y-101479342D01*
X93271431Y-101479342D02*
X93271431Y-101193628D01*
X93271431Y-101193628D02*
X93319050Y-101098390D01*
X93319050Y-101098390D02*
X93366669Y-101050771D01*
X93366669Y-101050771D02*
X93461907Y-101003152D01*
X93461907Y-101003152D02*
X93604764Y-101003152D01*
X93604764Y-101003152D02*
X93700002Y-101050771D01*
X93700002Y-101050771D02*
X93747621Y-101098390D01*
X93747621Y-101098390D02*
X93795240Y-101193628D01*
X93795240Y-101193628D02*
X93795240Y-101479342D01*
X93795240Y-101479342D02*
X93747621Y-101574580D01*
X93747621Y-101574580D02*
X93700002Y-101622200D01*
X93700002Y-101622200D02*
X93604764Y-101669819D01*
X93604764Y-101669819D02*
X93461907Y-101669819D01*
X94176193Y-101622200D02*
X94271431Y-101669819D01*
X94271431Y-101669819D02*
X94461907Y-101669819D01*
X94461907Y-101669819D02*
X94557145Y-101622200D01*
X94557145Y-101622200D02*
X94604764Y-101526961D01*
X94604764Y-101526961D02*
X94604764Y-101479342D01*
X94604764Y-101479342D02*
X94557145Y-101384104D01*
X94557145Y-101384104D02*
X94461907Y-101336485D01*
X94461907Y-101336485D02*
X94319050Y-101336485D01*
X94319050Y-101336485D02*
X94223812Y-101288866D01*
X94223812Y-101288866D02*
X94176193Y-101193628D01*
X94176193Y-101193628D02*
X94176193Y-101146009D01*
X94176193Y-101146009D02*
X94223812Y-101050771D01*
X94223812Y-101050771D02*
X94319050Y-101003152D01*
X94319050Y-101003152D02*
X94461907Y-101003152D01*
X94461907Y-101003152D02*
X94557145Y-101050771D01*
D12*
%TO.P,C21,1*%
%TO.N,/3V3*%
X123099916Y-96450000D03*
%TO.P,C21,2*%
%TO.N,GND*%
X123099916Y-98350000D03*
%TD*%
D13*
%TO.P,T11,1,1*%
%TO.N,/leadP1_1V8*%
X52300000Y-93800000D03*
%TD*%
D14*
%TO.P,R11,1*%
%TO.N,/CS_3*%
X130800000Y-86675000D03*
%TO.P,R11,2*%
%TO.N,/3V3*%
X130800000Y-88500000D03*
%TD*%
D15*
%TO.P,J13,1,Pin_1*%
%TO.N,/3V3*%
X193000000Y-88000000D03*
D16*
%TO.P,J13,2,Pin_2*%
X193000000Y-85460000D03*
%TO.P,J13,3,Pin_3*%
%TO.N,GND*%
X190460000Y-88000000D03*
%TO.P,J13,4,Pin_4*%
X190460000Y-85460000D03*
%TO.P,J13,5,Pin_5*%
%TO.N,/SCLK*%
X187920000Y-88000000D03*
%TO.P,J13,6,Pin_6*%
%TO.N,unconnected-(J13-Pin_6-Pad6)*%
X187920000Y-85460000D03*
%TO.P,J13,7,Pin_7*%
%TO.N,unconnected-(J13-Pin_7-Pad7)*%
X185380000Y-88000000D03*
%TO.P,J13,8,Pin_8*%
%TO.N,/~{CLR}*%
X185380000Y-85460000D03*
%TO.P,J13,9,Pin_9*%
%TO.N,/COPI*%
X182840000Y-88000000D03*
%TO.P,J13,10,Pin_10*%
%TO.N,/~{RESET}*%
X182840000Y-85460000D03*
%TO.P,J13,11,Pin_11*%
%TO.N,/CS_5*%
X180300000Y-88000000D03*
%TO.P,J13,12,Pin_12*%
%TO.N,/~{LDAC}*%
X180300000Y-85460000D03*
%TD*%
D17*
%TO.P,J4,1,Pin_1*%
%TO.N,GND*%
X156000000Y-125000000D03*
D18*
%TO.P,J4,2,Pin_2*%
%TO.N,/supplyPower*%
X156000000Y-122460000D03*
%TO.P,J4,3,Pin_3*%
%TO.N,GND*%
X158540000Y-125000000D03*
%TO.P,J4,4,Pin_4*%
%TO.N,/Din_SCLK*%
X158540000Y-122460000D03*
%TO.P,J4,5,Pin_5*%
%TO.N,GND*%
X161080000Y-125000000D03*
%TO.P,J4,6,Pin_6*%
%TO.N,/Din_COPI*%
X161080000Y-122460000D03*
%TO.P,J4,7,Pin_7*%
%TO.N,GND*%
X163620000Y-125000000D03*
%TO.P,J4,8,Pin_8*%
%TO.N,/supplyPower*%
X163620000Y-122460000D03*
%TO.P,J4,9,Pin_9*%
%TO.N,/Din_pass0*%
X166160000Y-125000000D03*
%TO.P,J4,10,Pin_10*%
%TO.N,/supplyPower*%
X166160000Y-122460000D03*
%TO.P,J4,11,Pin_11*%
%TO.N,GND*%
X168700000Y-125000000D03*
%TO.P,J4,12,Pin_12*%
%TO.N,/supplyPower*%
X168700000Y-122460000D03*
%TO.P,J4,13,Pin_13*%
%TO.N,/Din_pass1*%
X171240000Y-125000000D03*
%TO.P,J4,14,Pin_14*%
%TO.N,/Din_pass2*%
X171240000Y-122460000D03*
%TO.P,J4,15,Pin_15*%
%TO.N,GND*%
X173780000Y-125000000D03*
%TO.P,J4,16,Pin_16*%
%TO.N,/Din_S2*%
X173780000Y-122460000D03*
%TO.P,J4,17,Pin_17*%
%TO.N,GND*%
X176320000Y-125000000D03*
%TO.P,J4,18,Pin_18*%
%TO.N,/Din_S1*%
X176320000Y-122460000D03*
%TO.P,J4,19,Pin_19*%
%TO.N,GND*%
X178860000Y-125000000D03*
%TO.P,J4,20,Pin_20*%
%TO.N,/supplyPower*%
X178860000Y-122460000D03*
%TO.P,J4,21,Pin_21*%
%TO.N,/Din_~{LDAC}*%
X181400000Y-125000000D03*
%TO.P,J4,22,Pin_22*%
%TO.N,/Din_S0*%
X181400000Y-122460000D03*
%TO.P,J4,23,Pin_23*%
%TO.N,/Din_~{CLR}*%
X183940000Y-125000000D03*
%TO.P,J4,24,Pin_24*%
%TO.N,/Din_~{RESET}*%
X183940000Y-122460000D03*
%TD*%
D19*
%TO.P,R15,1*%
%TO.N,/CS_7*%
X227612500Y-88000000D03*
%TO.P,R15,2*%
%TO.N,/3V3*%
X225787500Y-88000000D03*
%TD*%
D20*
%TO.P,U10,1,A4*%
%TO.N,/CS_4*%
X138300000Y-96242000D03*
%TO.P,U10,2,A6*%
%TO.N,/CS_6*%
X138949998Y-96242000D03*
%TO.P,U10,3,A*%
%TO.N,/int_CS*%
X139600000Y-96242000D03*
%TO.P,U10,4,A7*%
%TO.N,/CS_7*%
X140249998Y-96242000D03*
%TO.P,U10,5,A5*%
%TO.N,/CS_5*%
X140899997Y-96242000D03*
%TO.P,U10,6,~{E}*%
%TO.N,GND*%
X141549998Y-96242000D03*
%TO.P,U10,7,VEE*%
X142199997Y-96242000D03*
%TO.P,U10,8,GND*%
X142849998Y-96242000D03*
%TO.P,U10,9,S2*%
%TO.N,/S2*%
X142849998Y-90400000D03*
%TO.P,U10,10,S1*%
%TO.N,/S1*%
X142200000Y-90400000D03*
%TO.P,U10,11,S0*%
%TO.N,/S0*%
X141549998Y-90400000D03*
%TO.P,U10,12,A3*%
%TO.N,/CS_3*%
X140900000Y-90400000D03*
%TO.P,U10,13,A0*%
%TO.N,/CS_0*%
X140250001Y-90400000D03*
%TO.P,U10,14,A1*%
%TO.N,/CS_1*%
X139600000Y-90400000D03*
%TO.P,U10,15,A2*%
%TO.N,/CS_2*%
X138950001Y-90400000D03*
%TO.P,U10,16,VCC*%
%TO.N,/3V3*%
X138300000Y-90400000D03*
%TD*%
D13*
%TO.P,T9,1,1*%
%TO.N,/leadCS_1V8*%
X56500000Y-98300000D03*
%TD*%
D14*
%TO.P,R14,1*%
%TO.N,/CS_6*%
X202500000Y-85887500D03*
%TO.P,R14,2*%
%TO.N,/3V3*%
X202500000Y-87712500D03*
%TD*%
D21*
%TO.P,J6,1,1*%
%TO.N,GND*%
X91000000Y-109150000D03*
%TO.P,J6,2,2*%
X91000000Y-124850000D03*
%TD*%
D22*
%TO.P,C18,1*%
%TO.N,/1V8*%
X115099916Y-102400000D03*
%TO.P,C18,2*%
%TO.N,GND*%
X115099916Y-100500000D03*
%TD*%
D15*
%TO.P,J10,1,Pin_1*%
%TO.N,/3V3*%
X103000000Y-88000000D03*
D16*
%TO.P,J10,2,Pin_2*%
X103000000Y-85460000D03*
%TO.P,J10,3,Pin_3*%
%TO.N,GND*%
X100460000Y-88000000D03*
%TO.P,J10,4,Pin_4*%
X100460000Y-85460000D03*
%TO.P,J10,5,Pin_5*%
%TO.N,/SCLK*%
X97920000Y-88000000D03*
%TO.P,J10,6,Pin_6*%
%TO.N,unconnected-(J10-Pin_6-Pad6)*%
X97920000Y-85460000D03*
%TO.P,J10,7,Pin_7*%
%TO.N,unconnected-(J10-Pin_7-Pad7)*%
X95380000Y-88000000D03*
%TO.P,J10,8,Pin_8*%
%TO.N,/~{CLR}*%
X95380000Y-85460000D03*
%TO.P,J10,9,Pin_9*%
%TO.N,/COPI*%
X92840000Y-88000000D03*
%TO.P,J10,10,Pin_10*%
%TO.N,/~{RESET}*%
X92840000Y-85460000D03*
%TO.P,J10,11,Pin_11*%
%TO.N,/CS_2*%
X90300000Y-88000000D03*
%TO.P,J10,12,Pin_12*%
%TO.N,/~{LDAC}*%
X90300000Y-85460000D03*
%TD*%
D22*
%TO.P,C15,1*%
%TO.N,/1V8*%
X211100000Y-98550000D03*
%TO.P,C15,2*%
%TO.N,GND*%
X211100000Y-96650000D03*
%TD*%
D14*
%TO.P,R10,1*%
%TO.N,/CS_2*%
X105900000Y-86587500D03*
%TO.P,R10,2*%
%TO.N,/3V3*%
X105900000Y-88412500D03*
%TD*%
D12*
%TO.P,C19,1*%
%TO.N,/3V3*%
X115099916Y-96650000D03*
%TO.P,C19,2*%
%TO.N,GND*%
X115099916Y-98550000D03*
%TD*%
D13*
%TO.P,T13,1,1*%
%TO.N,/int_CS*%
X134900000Y-95800000D03*
%TD*%
D23*
%TO.P,C24,1*%
%TO.N,/3V3*%
X136850000Y-91700000D03*
%TO.P,C24,2*%
%TO.N,GND*%
X134950000Y-91700000D03*
%TD*%
D24*
%TO.P,T2,1,1*%
%TO.N,/test_COPI*%
X216700000Y-113200000D03*
%TD*%
D25*
%TO.P,U4,1,GND*%
%TO.N,GND*%
X62500000Y-123900000D03*
%TO.P,U4,2,VO*%
%TO.N,/1V8*%
X64800000Y-123900000D03*
D26*
X64800000Y-117600000D03*
D25*
%TO.P,U4,3,VI*%
%TO.N,/supplyPower*%
X67100000Y-123900000D03*
%TD*%
D13*
%TO.P,T12,1,1*%
%TO.N,/leadP2_1V8*%
X52300000Y-98300000D03*
%TD*%
D24*
%TO.P,T5,1,1*%
%TO.N,/test_S2*%
X158300000Y-103900000D03*
%TD*%
D13*
%TO.P,T8,1,1*%
%TO.N,/test_CS*%
X56200000Y-105200000D03*
%TD*%
D27*
%TO.P,U9,1,VCCA*%
%TO.N,/1V8*%
X117100000Y-103405500D03*
%TO.P,U9,2,A1*%
%TO.N,/SCLK_1V8*%
X117749986Y-103405500D03*
%TO.P,U9,3,A2*%
%TO.N,/COPI_1V8*%
X118399972Y-103405500D03*
%TO.P,U9,4,A3*%
%TO.N,GND*%
X119049958Y-103405500D03*
%TO.P,U9,5,A4*%
X119699944Y-103405500D03*
%TO.P,U9,6,NC*%
%TO.N,unconnected-(U9-NC-Pad6)*%
X120349930Y-103405500D03*
%TO.P,U9,7,GND*%
%TO.N,GND*%
X120999916Y-103405500D03*
%TO.P,U9,8,OE*%
%TO.N,/3V3*%
X120999916Y-97500000D03*
%TO.P,U9,9,NC*%
%TO.N,unconnected-(U9-NC-Pad9)*%
X120349930Y-97500000D03*
%TO.P,U9,10,B4Y*%
%TO.N,unconnected-(U9-B4Y-Pad10)*%
X119699944Y-97500000D03*
%TO.P,U9,11,B3Y*%
%TO.N,unconnected-(U9-B3Y-Pad11)*%
X119049958Y-97500000D03*
%TO.P,U9,12,B2Y*%
%TO.N,/COPI*%
X118399972Y-97500000D03*
%TO.P,U9,13,B1Y*%
%TO.N,/SCLK*%
X117749986Y-97500000D03*
%TO.P,U9,14,VCCB*%
%TO.N,/3V3*%
X117100000Y-97500000D03*
%TD*%
D15*
%TO.P,J9,1,Pin_1*%
%TO.N,/3V3*%
X78000000Y-88000000D03*
D16*
%TO.P,J9,2,Pin_2*%
X78000000Y-85460000D03*
%TO.P,J9,3,Pin_3*%
%TO.N,GND*%
X75460000Y-88000000D03*
%TO.P,J9,4,Pin_4*%
X75460000Y-85460000D03*
%TO.P,J9,5,Pin_5*%
%TO.N,/SCLK*%
X72920000Y-88000000D03*
%TO.P,J9,6,Pin_6*%
%TO.N,unconnected-(J9-Pin_6-Pad6)*%
X72920000Y-85460000D03*
%TO.P,J9,7,Pin_7*%
%TO.N,unconnected-(J9-Pin_7-Pad7)*%
X70380000Y-88000000D03*
%TO.P,J9,8,Pin_8*%
%TO.N,/~{CLR}*%
X70380000Y-85460000D03*
%TO.P,J9,9,Pin_9*%
%TO.N,/COPI*%
X67840000Y-88000000D03*
%TO.P,J9,10,Pin_10*%
%TO.N,/~{RESET}*%
X67840000Y-85460000D03*
%TO.P,J9,11,Pin_11*%
%TO.N,/CS_1*%
X65300000Y-88000000D03*
%TO.P,J9,12,Pin_12*%
%TO.N,/~{LDAC}*%
X65300000Y-85460000D03*
%TD*%
D12*
%TO.P,C8,1*%
%TO.N,/1V8*%
X64700000Y-126150000D03*
%TO.P,C8,2*%
%TO.N,GND*%
X64700000Y-128050000D03*
%TD*%
D23*
%TO.P,C3,1*%
%TO.N,/1V8*%
X42550000Y-116015868D03*
%TO.P,C3,2*%
%TO.N,GND*%
X40650000Y-116015868D03*
%TD*%
D22*
%TO.P,C7,1*%
%TO.N,/3V3*%
X135400000Y-101550000D03*
%TO.P,C7,2*%
%TO.N,GND*%
X135400000Y-99650000D03*
%TD*%
D28*
%TO.P,C9,1*%
%TO.N,/1V8*%
X171750000Y-113000000D03*
%TO.P,C9,2*%
%TO.N,GND*%
X173650000Y-113000000D03*
%TD*%
D29*
%TO.P,U6,1,A4*%
%TO.N,unconnected-(U6-A4-Pad1)*%
X42400000Y-95050002D03*
%TO.P,U6,2,A6*%
%TO.N,unconnected-(U6-A6-Pad2)*%
X42400000Y-95700000D03*
%TO.P,U6,3,A*%
%TO.N,/CS_1V8*%
X42400000Y-96350002D03*
%TO.P,U6,4,A7*%
%TO.N,unconnected-(U6-A7-Pad4)*%
X42400000Y-97000000D03*
%TO.P,U6,5,A5*%
%TO.N,unconnected-(U6-A5-Pad5)*%
X42400000Y-97649999D03*
%TO.P,U6,6,~{E}*%
%TO.N,/~{leader}*%
X42400000Y-98300000D03*
%TO.P,U6,7,VEE*%
%TO.N,GND*%
X42400000Y-98949999D03*
%TO.P,U6,8,GND*%
X42400000Y-99600000D03*
%TO.P,U6,9,S2*%
X48242000Y-99600000D03*
%TO.P,U6,10,S1*%
%TO.N,/S4_1V8*%
X48242000Y-98950002D03*
%TO.P,U6,11,S0*%
%TO.N,/S3_1V8*%
X48242000Y-98300000D03*
%TO.P,U6,12,A3*%
%TO.N,/leadP2_1V8*%
X48242000Y-97650002D03*
%TO.P,U6,13,A0*%
%TO.N,/leadCS_1V8*%
X48242000Y-97000003D03*
%TO.P,U6,14,A1*%
%TO.N,/leadP0_1V8*%
X48242000Y-96350002D03*
%TO.P,U6,15,A2*%
%TO.N,/leadP1_1V8*%
X48242000Y-95700003D03*
%TO.P,U6,16,VCC*%
%TO.N,/1V8*%
X48242000Y-95050002D03*
%TD*%
D22*
%TO.P,C20,1*%
%TO.N,/1V8*%
X123099916Y-102150000D03*
%TO.P,C20,2*%
%TO.N,GND*%
X123099916Y-100250000D03*
%TD*%
D30*
%TO.P,J3,1,1*%
%TO.N,/supplyPower*%
X48466600Y-122241901D03*
%TO.P,J3,2,2*%
%TO.N,GND*%
X45466601Y-122241901D03*
%TD*%
D14*
%TO.P,R7,1*%
%TO.N,/leadP2_1V8*%
X47600000Y-102087500D03*
%TO.P,R7,2*%
%TO.N,/1V8*%
X47600000Y-103912500D03*
%TD*%
D28*
%TO.P,C11,1*%
%TO.N,/1V8*%
X171550000Y-101000000D03*
%TO.P,C11,2*%
%TO.N,GND*%
X173450000Y-101000000D03*
%TD*%
%TO.P,C10,1*%
%TO.N,/1V8*%
X165450000Y-113200000D03*
%TO.P,C10,2*%
%TO.N,GND*%
X167350000Y-113200000D03*
%TD*%
D31*
%TO.P,U2,1,~{1OE}*%
%TO.N,/~{follower}*%
X174749999Y-103199149D03*
%TO.P,U2,2,1Y1*%
%TO.N,/~{LDAC}_1V8*%
X174250000Y-103199149D03*
%TO.P,U2,3,1Y2*%
%TO.N,/~{RESET}_1V8*%
X173750001Y-103199149D03*
%TO.P,U2,4,GND*%
%TO.N,GND*%
X173249999Y-103199149D03*
%TO.P,U2,5,1Y3*%
%TO.N,/~{CLR}_1V8*%
X172750000Y-103199149D03*
%TO.P,U2,6,1Y4*%
%TO.N,/S0_1V8*%
X172250001Y-103199149D03*
%TO.P,U2,7,VCC*%
%TO.N,/1V8*%
X171750000Y-103199149D03*
%TO.P,U2,8,2Y1*%
%TO.N,/S1_1V8*%
X171250001Y-103199149D03*
%TO.P,U2,9,2Y2*%
%TO.N,/S2_1V8*%
X170749999Y-103199149D03*
%TO.P,U2,10,GND*%
%TO.N,GND*%
X170250000Y-103199149D03*
%TO.P,U2,11,2Y3*%
%TO.N,/SCLK_1V8*%
X169750001Y-103199149D03*
%TO.P,U2,12,2Y4*%
%TO.N,/COPI_1V8*%
X169250000Y-103199149D03*
%TO.P,U2,13,3Y1*%
%TO.N,/int_CS_1V8*%
X168750000Y-103199149D03*
%TO.P,U2,14,3Y2*%
%TO.N,/pass0_1V8*%
X168249999Y-103199149D03*
%TO.P,U2,15,GND*%
%TO.N,GND*%
X167750000Y-103199149D03*
%TO.P,U2,16,3Y3*%
%TO.N,/pass1_1V8*%
X167250001Y-103199149D03*
%TO.P,U2,17,3Y4*%
%TO.N,unconnected-(U2A-3Y4-Pad17)*%
X166749999Y-103199149D03*
%TO.P,U2,18,VCC*%
%TO.N,/1V8*%
X166250000Y-103199149D03*
%TO.P,U2,19,4Y1*%
%TO.N,unconnected-(U2A-4Y1-Pad19)*%
X165749999Y-103199149D03*
%TO.P,U2,20,4Y2*%
%TO.N,/test_S0*%
X165250000Y-103199149D03*
%TO.P,U2,21,GND*%
%TO.N,GND*%
X164750001Y-103199149D03*
%TO.P,U2,22,4Y3*%
%TO.N,/test_S1*%
X164249999Y-103199149D03*
%TO.P,U2,23,4Y4*%
%TO.N,/test_S2*%
X163750000Y-103199149D03*
%TO.P,U2,24,~{4OE}*%
%TO.N,GND*%
X163249999Y-103199149D03*
%TO.P,U2,25,~{3OE}*%
%TO.N,/~{follower}*%
X163250001Y-110800851D03*
%TO.P,U2,26,4A4*%
%TO.N,/S2_1V8*%
X163750000Y-110800851D03*
%TO.P,U2,27,4A3*%
%TO.N,/S1_1V8*%
X164249999Y-110800851D03*
%TO.P,U2,28,GND*%
%TO.N,GND*%
X164750001Y-110800851D03*
%TO.P,U2,29,4A2*%
%TO.N,/S0_1V8*%
X165250000Y-110800851D03*
%TO.P,U2,30,4A1*%
%TO.N,GND*%
X165750001Y-110800851D03*
%TO.P,U2,31,VCC*%
%TO.N,/1V8*%
X166250000Y-110800851D03*
%TO.P,U2,32,3A4*%
%TO.N,GND*%
X166749999Y-110800851D03*
%TO.P,U2,33,3A3*%
%TO.N,/Din_pass2*%
X167250001Y-110800851D03*
%TO.P,U2,34,GND*%
%TO.N,GND*%
X167750000Y-110800851D03*
%TO.P,U2,35,3A2*%
%TO.N,/Din_pass1*%
X168250002Y-110800851D03*
%TO.P,U2,36,3A1*%
%TO.N,/Din_pass0*%
X168750000Y-110800851D03*
%TO.P,U2,37,2A4*%
%TO.N,/Din_COPI*%
X169250000Y-110800851D03*
%TO.P,U2,38,2A3*%
%TO.N,/Din_SCLK*%
X169750001Y-110800851D03*
%TO.P,U2,39,GND*%
%TO.N,GND*%
X170250000Y-110800851D03*
%TO.P,U2,40,2A2*%
%TO.N,/Din_S2*%
X170749999Y-110800851D03*
%TO.P,U2,41,2A1*%
%TO.N,/Din_S1*%
X171250001Y-110800851D03*
%TO.P,U2,42,VCC*%
%TO.N,/1V8*%
X171750000Y-110800851D03*
%TO.P,U2,43,1A4*%
%TO.N,/Din_S0*%
X172250001Y-110800851D03*
%TO.P,U2,44,1A3*%
%TO.N,/Din_~{CLR}*%
X172750000Y-110800851D03*
%TO.P,U2,45,GND*%
%TO.N,GND*%
X173249999Y-110800851D03*
%TO.P,U2,46,1A2*%
%TO.N,/Din_~{RESET}*%
X173750001Y-110800851D03*
%TO.P,U2,47,1A1*%
%TO.N,/Din_~{LDAC}*%
X174250000Y-110800851D03*
%TO.P,U2,48,~{2OE}*%
%TO.N,/~{follower}*%
X174750001Y-110800851D03*
%TD*%
D32*
%TO.P,D1,1,K*%
%TO.N,GND*%
X150100000Y-104537500D03*
%TO.P,D1,2,A*%
%TO.N,Net-(D1-A)*%
X150100000Y-102662500D03*
%TD*%
D33*
%TO.P,R2,1*%
%TO.N,/1V8*%
X118587500Y-124800000D03*
%TO.P,R2,2*%
%TO.N,/~{follower}*%
X120412500Y-124800000D03*
%TD*%
D15*
%TO.P,J11,1,Pin_1*%
%TO.N,/3V3*%
X128000000Y-88000000D03*
D16*
%TO.P,J11,2,Pin_2*%
X128000000Y-85460000D03*
%TO.P,J11,3,Pin_3*%
%TO.N,GND*%
X125460000Y-88000000D03*
%TO.P,J11,4,Pin_4*%
X125460000Y-85460000D03*
%TO.P,J11,5,Pin_5*%
%TO.N,/SCLK*%
X122920000Y-88000000D03*
%TO.P,J11,6,Pin_6*%
%TO.N,unconnected-(J11-Pin_6-Pad6)*%
X122920000Y-85460000D03*
%TO.P,J11,7,Pin_7*%
%TO.N,unconnected-(J11-Pin_7-Pad7)*%
X120380000Y-88000000D03*
%TO.P,J11,8,Pin_8*%
%TO.N,/~{CLR}*%
X120380000Y-85460000D03*
%TO.P,J11,9,Pin_9*%
%TO.N,/COPI*%
X117840000Y-88000000D03*
%TO.P,J11,10,Pin_10*%
%TO.N,/~{RESET}*%
X117840000Y-85460000D03*
%TO.P,J11,11,Pin_11*%
%TO.N,/CS_3*%
X115300000Y-88000000D03*
%TO.P,J11,12,Pin_12*%
%TO.N,/~{LDAC}*%
X115300000Y-85460000D03*
%TD*%
D28*
%TO.P,C12,1*%
%TO.N,/1V8*%
X166300000Y-100800000D03*
%TO.P,C12,2*%
%TO.N,GND*%
X168200000Y-100800000D03*
%TD*%
D14*
%TO.P,R8,1*%
%TO.N,/CS_0*%
X55800000Y-86487500D03*
%TO.P,R8,2*%
%TO.N,/3V3*%
X55800000Y-88312500D03*
%TD*%
D13*
%TO.P,T10,1,1*%
%TO.N,/leadP0_1V8*%
X56500000Y-93800000D03*
%TD*%
D15*
%TO.P,J1,1,Pin_1*%
%TO.N,/~{leader}*%
X114920000Y-127600000D03*
D16*
%TO.P,J1,2,Pin_2*%
%TO.N,GND*%
X117460000Y-127600000D03*
%TO.P,J1,3,Pin_3*%
%TO.N,/~{follower}*%
X120000000Y-127600000D03*
%TD*%
D12*
%TO.P,C14,1*%
%TO.N,/1V8*%
X200400000Y-102400000D03*
%TO.P,C14,2*%
%TO.N,GND*%
X200400000Y-104300000D03*
%TD*%
D13*
%TO.P,T6,1,1*%
%TO.N,/S3_1V8*%
X64200000Y-102800000D03*
%TD*%
D34*
%TO.P,U1,1,~{1OE}*%
%TO.N,/~{leader}*%
X51900000Y-118799999D03*
%TO.P,U1,2,1Y1*%
%TO.N,/~{LDAC}_1V8*%
X51900000Y-118300000D03*
%TO.P,U1,3,1Y2*%
%TO.N,/~{RESET}_1V8*%
X51900000Y-117800001D03*
%TO.P,U1,4,GND*%
%TO.N,GND*%
X51900000Y-117299999D03*
%TO.P,U1,5,1Y3*%
%TO.N,/~{CLR}_1V8*%
X51900000Y-116800000D03*
%TO.P,U1,6,1Y4*%
%TO.N,/S0_1V8*%
X51900000Y-116300001D03*
%TO.P,U1,7,VCC*%
%TO.N,/1V8*%
X51900000Y-115800000D03*
%TO.P,U1,8,2Y1*%
%TO.N,/S1_1V8*%
X51900000Y-115300001D03*
%TO.P,U1,9,2Y2*%
%TO.N,/S2_1V8*%
X51900000Y-114799999D03*
%TO.P,U1,10,GND*%
%TO.N,GND*%
X51900000Y-114300000D03*
%TO.P,U1,11,2Y3*%
%TO.N,/SCLK_1V8*%
X51900000Y-113800001D03*
%TO.P,U1,12,2Y4*%
%TO.N,/COPI_1V8*%
X51900000Y-113300000D03*
%TO.P,U1,13,3Y1*%
%TO.N,/S3_1V8*%
X51900000Y-112800000D03*
%TO.P,U1,14,3Y2*%
%TO.N,/S4_1V8*%
X51900000Y-112299999D03*
%TO.P,U1,15,GND*%
%TO.N,GND*%
X51900000Y-111800000D03*
%TO.P,U1,16,3Y3*%
%TO.N,/CS_1V8*%
X51900000Y-111300001D03*
%TO.P,U1,17,3Y4*%
%TO.N,/int_CS_1V8*%
X51900000Y-110799999D03*
%TO.P,U1,18,VCC*%
%TO.N,/1V8*%
X51900000Y-110300000D03*
%TO.P,U1,19,4Y1*%
%TO.N,/pass0_1V8*%
X51900000Y-109799999D03*
%TO.P,U1,20,4Y2*%
%TO.N,/pass1_1V8*%
X51900000Y-109300000D03*
%TO.P,U1,21,GND*%
%TO.N,GND*%
X51900000Y-108800001D03*
%TO.P,U1,22,4Y3*%
%TO.N,/pass2_1V8*%
X51900000Y-108299999D03*
%TO.P,U1,23,4Y4*%
%TO.N,/test_CS*%
X51900000Y-107800000D03*
%TO.P,U1,24,~{4OE}*%
%TO.N,/~{leader}*%
X51900000Y-107299999D03*
%TO.P,U1,25,~{3OE}*%
X44298298Y-107300001D03*
%TO.P,U1,26,4A4*%
%TO.N,/CS_1V8*%
X44298298Y-107800000D03*
%TO.P,U1,27,4A3*%
%TO.N,/leadP2_1V8*%
X44298298Y-108299999D03*
%TO.P,U1,28,GND*%
%TO.N,GND*%
X44298298Y-108800001D03*
%TO.P,U1,29,4A2*%
%TO.N,/leadP1_1V8*%
X44298298Y-109300000D03*
%TO.P,U1,30,4A1*%
%TO.N,/leadP0_1V8*%
X44298298Y-109800001D03*
%TO.P,U1,31,VCC*%
%TO.N,/1V8*%
X44298298Y-110300000D03*
%TO.P,U1,32,3A4*%
%TO.N,/leadCS_1V8*%
X44298298Y-110799999D03*
%TO.P,U1,33,3A3*%
%TO.N,/Fin_CS*%
X44298298Y-111300001D03*
%TO.P,U1,34,GND*%
%TO.N,GND*%
X44298298Y-111800000D03*
%TO.P,U1,35,3A2*%
%TO.N,/Fin_S4*%
X44298298Y-112300002D03*
%TO.P,U1,36,3A1*%
%TO.N,/Fin_S3*%
X44298298Y-112800000D03*
%TO.P,U1,37,2A4*%
%TO.N,/Fin_COPI*%
X44298298Y-113300000D03*
%TO.P,U1,38,2A3*%
%TO.N,/Fin_SCLK*%
X44298298Y-113800001D03*
%TO.P,U1,39,GND*%
%TO.N,GND*%
X44298298Y-114300000D03*
%TO.P,U1,40,2A2*%
%TO.N,/Fin_S2*%
X44298298Y-114799999D03*
%TO.P,U1,41,2A1*%
%TO.N,/Fin_S1*%
X44298298Y-115300001D03*
%TO.P,U1,42,VCC*%
%TO.N,/1V8*%
X44298298Y-115800000D03*
%TO.P,U1,43,1A4*%
%TO.N,/Fin_S0*%
X44298298Y-116300001D03*
%TO.P,U1,44,1A3*%
%TO.N,/Fin_~{CLR}*%
X44298298Y-116800000D03*
%TO.P,U1,45,GND*%
%TO.N,GND*%
X44298298Y-117299999D03*
%TO.P,U1,46,1A2*%
%TO.N,/Fin_~{RESET}*%
X44298298Y-117800001D03*
%TO.P,U1,47,1A1*%
%TO.N,/Fin_~{LDAC}*%
X44298298Y-118300000D03*
%TO.P,U1,48,~{2OE}*%
%TO.N,/~{leader}*%
X44298298Y-118800001D03*
%TD*%
D15*
%TO.P,J14,1,Pin_1*%
%TO.N,/3V3*%
X218000000Y-88000000D03*
D16*
%TO.P,J14,2,Pin_2*%
X218000000Y-85460000D03*
%TO.P,J14,3,Pin_3*%
%TO.N,GND*%
X215460000Y-88000000D03*
%TO.P,J14,4,Pin_4*%
X215460000Y-85460000D03*
%TO.P,J14,5,Pin_5*%
%TO.N,/SCLK*%
X212920000Y-88000000D03*
%TO.P,J14,6,Pin_6*%
%TO.N,unconnected-(J14-Pin_6-Pad6)*%
X212920000Y-85460000D03*
%TO.P,J14,7,Pin_7*%
%TO.N,unconnected-(J14-Pin_7-Pad7)*%
X210380000Y-88000000D03*
%TO.P,J14,8,Pin_8*%
%TO.N,/~{CLR}*%
X210380000Y-85460000D03*
%TO.P,J14,9,Pin_9*%
%TO.N,/COPI*%
X207840000Y-88000000D03*
%TO.P,J14,10,Pin_10*%
%TO.N,/~{RESET}*%
X207840000Y-85460000D03*
%TO.P,J14,11,Pin_11*%
%TO.N,/CS_6*%
X205300000Y-88000000D03*
%TO.P,J14,12,Pin_12*%
%TO.N,/~{LDAC}*%
X205300000Y-85460000D03*
%TD*%
D15*
%TO.P,J8,1,Pin_1*%
%TO.N,/3V3*%
X53000000Y-88000000D03*
D16*
%TO.P,J8,2,Pin_2*%
X53000000Y-85460000D03*
%TO.P,J8,3,Pin_3*%
%TO.N,GND*%
X50460000Y-88000000D03*
%TO.P,J8,4,Pin_4*%
X50460000Y-85460000D03*
%TO.P,J8,5,Pin_5*%
%TO.N,/SCLK*%
X47920000Y-88000000D03*
%TO.P,J8,6,Pin_6*%
%TO.N,unconnected-(J8-Pin_6-Pad6)*%
X47920000Y-85460000D03*
%TO.P,J8,7,Pin_7*%
%TO.N,unconnected-(J8-Pin_7-Pad7)*%
X45380000Y-88000000D03*
%TO.P,J8,8,Pin_8*%
%TO.N,/~{CLR}*%
X45380000Y-85460000D03*
%TO.P,J8,9,Pin_9*%
%TO.N,/COPI*%
X42840000Y-88000000D03*
%TO.P,J8,10,Pin_10*%
%TO.N,/~{RESET}*%
X42840000Y-85460000D03*
%TO.P,J8,11,Pin_11*%
%TO.N,/CS_0*%
X40300000Y-88000000D03*
%TO.P,J8,12,Pin_12*%
%TO.N,/~{LDAC}*%
X40300000Y-85460000D03*
%TD*%
D24*
%TO.P,T1,1,1*%
%TO.N,/test_SCLK*%
X208300000Y-114400000D03*
%TD*%
D14*
%TO.P,R13,1*%
%TO.N,/CS_5*%
X177600000Y-87787500D03*
%TO.P,R13,2*%
%TO.N,/3V3*%
X177600000Y-89612500D03*
%TD*%
D27*
%TO.P,U7,1,VCCA*%
%TO.N,/1V8*%
X124949958Y-103352750D03*
%TO.P,U7,2,A1*%
%TO.N,/~{LDAC}_1V8*%
X125599944Y-103352750D03*
%TO.P,U7,3,A2*%
%TO.N,/~{RESET}_1V8*%
X126249930Y-103352750D03*
%TO.P,U7,4,A3*%
%TO.N,/~{CLR}_1V8*%
X126899916Y-103352750D03*
%TO.P,U7,5,A4*%
%TO.N,GND*%
X127549902Y-103352750D03*
%TO.P,U7,6,NC*%
%TO.N,unconnected-(U7-NC-Pad6)*%
X128199888Y-103352750D03*
%TO.P,U7,7,GND*%
%TO.N,GND*%
X128849874Y-103352750D03*
%TO.P,U7,8,OE*%
%TO.N,/3V3*%
X128849874Y-97447250D03*
%TO.P,U7,9,NC*%
%TO.N,unconnected-(U7-NC-Pad9)*%
X128199888Y-97447250D03*
%TO.P,U7,10,B4Y*%
%TO.N,unconnected-(U7-B4Y-Pad10)*%
X127549902Y-97447250D03*
%TO.P,U7,11,B3Y*%
%TO.N,/~{CLR}*%
X126899916Y-97447250D03*
%TO.P,U7,12,B2Y*%
%TO.N,/~{RESET}*%
X126249930Y-97447250D03*
%TO.P,U7,13,B1Y*%
%TO.N,/~{LDAC}*%
X125599944Y-97447250D03*
%TO.P,U7,14,VCCB*%
%TO.N,/3V3*%
X124949958Y-97447250D03*
%TD*%
D12*
%TO.P,C23,1*%
%TO.N,/3V3*%
X106899916Y-96950000D03*
%TO.P,C23,2*%
%TO.N,GND*%
X106899916Y-98850000D03*
%TD*%
D28*
%TO.P,C2,1*%
%TO.N,/1V8*%
X54550000Y-110300000D03*
%TO.P,C2,2*%
%TO.N,GND*%
X56450000Y-110300000D03*
%TD*%
%TO.P,C17,1*%
%TO.N,/1V8*%
X211250000Y-110800000D03*
%TO.P,C17,2*%
%TO.N,GND*%
X213150000Y-110800000D03*
%TD*%
D31*
%TO.P,U5,1,~{1OE}*%
%TO.N,GND*%
X202399866Y-108752834D03*
%TO.P,U5,2,1Y1*%
%TO.N,/Dout_~{LDAC}*%
X202899865Y-108752834D03*
%TO.P,U5,3,1Y2*%
%TO.N,/Dout_~{RESET}*%
X203399864Y-108752834D03*
%TO.P,U5,4,GND*%
%TO.N,GND*%
X203899866Y-108752834D03*
%TO.P,U5,5,1Y3*%
%TO.N,/Dout_~{CLR}*%
X204399865Y-108752834D03*
%TO.P,U5,6,1Y4*%
%TO.N,/Dout_S0*%
X204899864Y-108752834D03*
%TO.P,U5,7,VCC*%
%TO.N,/1V8*%
X205399865Y-108752834D03*
%TO.P,U5,8,2Y1*%
%TO.N,/Dout_S1*%
X205899864Y-108752834D03*
%TO.P,U5,9,2Y2*%
%TO.N,/Dout_S2*%
X206399866Y-108752834D03*
%TO.P,U5,10,GND*%
%TO.N,GND*%
X206899865Y-108752834D03*
%TO.P,U5,11,2Y3*%
%TO.N,/Dout_SCLK*%
X207399864Y-108752834D03*
%TO.P,U5,12,2Y4*%
%TO.N,/test_SCLK*%
X207899865Y-108752834D03*
%TO.P,U5,13,3Y1*%
%TO.N,/Dout_COPI*%
X208399865Y-108752834D03*
%TO.P,U5,14,3Y2*%
%TO.N,/test_COPI*%
X208899866Y-108752834D03*
%TO.P,U5,15,GND*%
%TO.N,GND*%
X209399865Y-108752834D03*
%TO.P,U5,16,3Y3*%
%TO.N,/Dout_pass0*%
X209899864Y-108752834D03*
%TO.P,U5,17,3Y4*%
%TO.N,/Dout_pass1*%
X210399866Y-108752834D03*
%TO.P,U5,18,VCC*%
%TO.N,/1V8*%
X210899865Y-108752834D03*
%TO.P,U5,19,4Y1*%
%TO.N,/Dout_pass2*%
X211399866Y-108752834D03*
%TO.P,U5,20,4Y2*%
%TO.N,unconnected-(U5A-4Y2-Pad20)*%
X211899865Y-108752834D03*
%TO.P,U5,21,GND*%
%TO.N,GND*%
X212399864Y-108752834D03*
%TO.P,U5,22,4Y3*%
%TO.N,unconnected-(U5A-4Y3-Pad22)*%
X212899866Y-108752834D03*
%TO.P,U5,23,4Y4*%
%TO.N,unconnected-(U5A-4Y4-Pad23)*%
X213399865Y-108752834D03*
%TO.P,U5,24,~{4OE}*%
%TO.N,GND*%
X213899866Y-108752834D03*
%TO.P,U5,25,~{3OE}*%
X213899864Y-101151132D03*
%TO.P,U5,26,4A4*%
X213399865Y-101151132D03*
%TO.P,U5,27,4A3*%
X212899866Y-101151132D03*
%TO.P,U5,28,GND*%
X212399864Y-101151132D03*
%TO.P,U5,29,4A2*%
X211899865Y-101151132D03*
%TO.P,U5,30,4A1*%
%TO.N,/pass2_1V8*%
X211399864Y-101151132D03*
%TO.P,U5,31,VCC*%
%TO.N,/1V8*%
X210899865Y-101151132D03*
%TO.P,U5,32,3A4*%
%TO.N,/pass1_1V8*%
X210399866Y-101151132D03*
%TO.P,U5,33,3A3*%
%TO.N,/pass0_1V8*%
X209899864Y-101151132D03*
%TO.P,U5,34,GND*%
%TO.N,GND*%
X209399865Y-101151132D03*
%TO.P,U5,35,3A2*%
%TO.N,/COPI_1V8*%
X208899863Y-101151132D03*
%TO.P,U5,36,3A1*%
X208399865Y-101151132D03*
%TO.P,U5,37,2A4*%
%TO.N,/SCLK_1V8*%
X207899865Y-101151132D03*
%TO.P,U5,38,2A3*%
X207399864Y-101151132D03*
%TO.P,U5,39,GND*%
%TO.N,GND*%
X206899865Y-101151132D03*
%TO.P,U5,40,2A2*%
%TO.N,/S2_1V8*%
X206399866Y-101151132D03*
%TO.P,U5,41,2A1*%
%TO.N,/S1_1V8*%
X205899864Y-101151132D03*
%TO.P,U5,42,VCC*%
%TO.N,/1V8*%
X205399865Y-101151132D03*
%TO.P,U5,43,1A4*%
%TO.N,/S0_1V8*%
X204899864Y-101151132D03*
%TO.P,U5,44,1A3*%
%TO.N,/~{CLR}_1V8*%
X204399865Y-101151132D03*
%TO.P,U5,45,GND*%
%TO.N,GND*%
X203899866Y-101151132D03*
%TO.P,U5,46,1A2*%
%TO.N,/~{RESET}_1V8*%
X203399864Y-101151132D03*
%TO.P,U5,47,1A1*%
%TO.N,/~{LDAC}_1V8*%
X202899865Y-101151132D03*
%TO.P,U5,48,~{2OE}*%
%TO.N,GND*%
X202399864Y-101151132D03*
%TD*%
D12*
%TO.P,C6,1*%
%TO.N,/supplyPower*%
X67100000Y-126150000D03*
%TO.P,C6,2*%
%TO.N,GND*%
X67100000Y-128050000D03*
%TD*%
D24*
%TO.P,T4,1,1*%
%TO.N,/test_S1*%
X161200000Y-101000000D03*
%TD*%
D22*
%TO.P,C1,1*%
%TO.N,/1V8*%
X41000000Y-108700000D03*
%TO.P,C1,2*%
%TO.N,GND*%
X41000000Y-106800000D03*
%TD*%
D14*
%TO.P,R6,1*%
%TO.N,/leadP1_1V8*%
X43600000Y-102087500D03*
%TO.P,R6,2*%
%TO.N,/1V8*%
X43600000Y-103912500D03*
%TD*%
D27*
%TO.P,U8,1,VCCA*%
%TO.N,/1V8*%
X108899972Y-103558250D03*
%TO.P,U8,2,A1*%
%TO.N,/S0_1V8*%
X109549958Y-103558250D03*
%TO.P,U8,3,A2*%
%TO.N,/S1_1V8*%
X110199944Y-103558250D03*
%TO.P,U8,4,A3*%
%TO.N,/S2_1V8*%
X110849930Y-103558250D03*
%TO.P,U8,5,A4*%
%TO.N,/int_CS_1V8*%
X111499916Y-103558250D03*
%TO.P,U8,6,NC*%
%TO.N,unconnected-(U8-NC-Pad6)*%
X112149902Y-103558250D03*
%TO.P,U8,7,GND*%
%TO.N,GND*%
X112799888Y-103558250D03*
%TO.P,U8,8,OE*%
%TO.N,/3V3*%
X112799888Y-97652750D03*
%TO.P,U8,9,NC*%
%TO.N,unconnected-(U8-NC-Pad9)*%
X112149902Y-97652750D03*
%TO.P,U8,10,B4Y*%
%TO.N,/int_CS*%
X111499916Y-97652750D03*
%TO.P,U8,11,B3Y*%
%TO.N,/S2*%
X110849930Y-97652750D03*
%TO.P,U8,12,B2Y*%
%TO.N,/S1*%
X110199944Y-97652750D03*
%TO.P,U8,13,B1Y*%
%TO.N,/S0*%
X109549958Y-97652750D03*
%TO.P,U8,14,VCCB*%
%TO.N,/3V3*%
X108899972Y-97652750D03*
%TD*%
D22*
%TO.P,C22,1*%
%TO.N,/1V8*%
X106899916Y-102750000D03*
%TO.P,C22,2*%
%TO.N,GND*%
X106899916Y-100850000D03*
%TD*%
D15*
%TO.P,J12,1,Pin_1*%
%TO.N,/3V3*%
X168000000Y-88000000D03*
D16*
%TO.P,J12,2,Pin_2*%
X168000000Y-85460000D03*
%TO.P,J12,3,Pin_3*%
%TO.N,GND*%
X165460000Y-88000000D03*
%TO.P,J12,4,Pin_4*%
X165460000Y-85460000D03*
%TO.P,J12,5,Pin_5*%
%TO.N,/SCLK*%
X162920000Y-88000000D03*
%TO.P,J12,6,Pin_6*%
%TO.N,unconnected-(J12-Pin_6-Pad6)*%
X162920000Y-85460000D03*
%TO.P,J12,7,Pin_7*%
%TO.N,unconnected-(J12-Pin_7-Pad7)*%
X160380000Y-88000000D03*
%TO.P,J12,8,Pin_8*%
%TO.N,/~{CLR}*%
X160380000Y-85460000D03*
%TO.P,J12,9,Pin_9*%
%TO.N,/COPI*%
X157840000Y-88000000D03*
%TO.P,J12,10,Pin_10*%
%TO.N,/~{RESET}*%
X157840000Y-85460000D03*
%TO.P,J12,11,Pin_11*%
%TO.N,/CS_4*%
X155300000Y-88000000D03*
%TO.P,J12,12,Pin_12*%
%TO.N,/~{LDAC}*%
X155300000Y-85460000D03*
%TD*%
D14*
%TO.P,R12,1*%
%TO.N,/CS_4*%
X152600000Y-87387500D03*
%TO.P,R12,2*%
%TO.N,/3V3*%
X152600000Y-89212500D03*
%TD*%
D21*
%TO.P,J5,1,1*%
%TO.N,unconnected-(J5-Pad1)*%
X76000000Y-109150000D03*
%TO.P,J5,2,2*%
%TO.N,/supplyPower*%
X76000000Y-124850000D03*
%TD*%
D22*
%TO.P,C5,1*%
%TO.N,/supplyPower*%
X135400000Y-104950000D03*
%TO.P,C5,2*%
%TO.N,GND*%
X135400000Y-103050000D03*
%TD*%
D35*
%TO.P,R3,1*%
%TO.N,Net-(D1-A)*%
X150100000Y-101112500D03*
%TO.P,R3,2*%
%TO.N,/3V3*%
X150100000Y-99287500D03*
%TD*%
D24*
%TO.P,T3,1,1*%
%TO.N,/test_S0*%
X164200000Y-99300000D03*
%TD*%
D23*
%TO.P,C13,1*%
%TO.N,/1V8*%
X47142000Y-93450002D03*
%TO.P,C13,2*%
%TO.N,GND*%
X45242000Y-93450002D03*
%TD*%
D14*
%TO.P,R5,1*%
%TO.N,/leadP0_1V8*%
X45600000Y-102087500D03*
%TO.P,R5,2*%
%TO.N,/1V8*%
X45600000Y-103912500D03*
%TD*%
D15*
%TO.P,J15,1,Pin_1*%
%TO.N,/3V3*%
X243000000Y-88000000D03*
D16*
%TO.P,J15,2,Pin_2*%
X243000000Y-85460000D03*
%TO.P,J15,3,Pin_3*%
%TO.N,GND*%
X240460000Y-88000000D03*
%TO.P,J15,4,Pin_4*%
X240460000Y-85460000D03*
%TO.P,J15,5,Pin_5*%
%TO.N,/SCLK*%
X237920000Y-88000000D03*
%TO.P,J15,6,Pin_6*%
%TO.N,unconnected-(J15-Pin_6-Pad6)*%
X237920000Y-85460000D03*
%TO.P,J15,7,Pin_7*%
%TO.N,unconnected-(J15-Pin_7-Pad7)*%
X235380000Y-88000000D03*
%TO.P,J15,8,Pin_8*%
%TO.N,/~{CLR}*%
X235380000Y-85460000D03*
%TO.P,J15,9,Pin_9*%
%TO.N,/COPI*%
X232840000Y-88000000D03*
%TO.P,J15,10,Pin_10*%
%TO.N,/~{RESET}*%
X232840000Y-85460000D03*
%TO.P,J15,11,Pin_11*%
%TO.N,/CS_7*%
X230300000Y-88000000D03*
%TO.P,J15,12,Pin_12*%
%TO.N,/~{LDAC}*%
X230300000Y-85460000D03*
%TD*%
D19*
%TO.P,R1,1*%
%TO.N,/1V8*%
X116212500Y-124800000D03*
%TO.P,R1,2*%
%TO.N,/~{leader}*%
X114387500Y-124800000D03*
%TD*%
D14*
%TO.P,R9,1*%
%TO.N,/CS_1*%
X80900000Y-86687500D03*
%TO.P,R9,2*%
%TO.N,/3V3*%
X80900000Y-88512500D03*
%TD*%
D36*
%TO.P,J2,1,Pin_1*%
%TO.N,unconnected-(J2-Pin_1-Pad1)*%
X31400000Y-90160000D03*
D18*
%TO.P,J2,2,Pin_2*%
%TO.N,GND*%
X33940000Y-90160000D03*
%TO.P,J2,3,Pin_3*%
%TO.N,unconnected-(J2-Pin_3-Pad3)*%
X31400000Y-92700000D03*
%TO.P,J2,4,Pin_4*%
%TO.N,/Fin_~{LDAC}*%
X33940000Y-92700000D03*
%TO.P,J2,5,Pin_5*%
%TO.N,GND*%
X31400000Y-95240000D03*
%TO.P,J2,6,Pin_6*%
%TO.N,/Fin_~{RESET}*%
X33940000Y-95240000D03*
%TO.P,J2,7,Pin_7*%
%TO.N,unconnected-(J2-Pin_7-Pad7)*%
X31400000Y-97780000D03*
%TO.P,J2,8,Pin_8*%
%TO.N,GND*%
X33940000Y-97780000D03*
%TO.P,J2,9,Pin_9*%
%TO.N,unconnected-(J2-Pin_9-Pad9)*%
X31400000Y-100320000D03*
%TO.P,J2,10,Pin_10*%
%TO.N,/Fin_~{CLR}*%
X33940000Y-100320000D03*
%TO.P,J2,11,Pin_11*%
%TO.N,GND*%
X31400000Y-102860000D03*
%TO.P,J2,12,Pin_12*%
%TO.N,/Fin_COPI*%
X33940000Y-102860000D03*
%TO.P,J2,13,Pin_13*%
%TO.N,/Fin_S4*%
X31400000Y-105400000D03*
%TO.P,J2,14,Pin_14*%
%TO.N,GND*%
X33940000Y-105400000D03*
%TO.P,J2,15,Pin_15*%
%TO.N,/Fin_S3*%
X31400000Y-107940000D03*
%TO.P,J2,16,Pin_16*%
%TO.N,unconnected-(J2-Pin_16-Pad16)*%
X33940000Y-107940000D03*
%TO.P,J2,17,Pin_17*%
%TO.N,GND*%
X31400000Y-110480000D03*
%TO.P,J2,18,Pin_18*%
%TO.N,/Fin_SCLK*%
X33940000Y-110480000D03*
%TO.P,J2,19,Pin_19*%
%TO.N,/Fin_CS*%
X31400000Y-113020000D03*
%TO.P,J2,20,Pin_20*%
%TO.N,GND*%
X33940000Y-113020000D03*
%TO.P,J2,21,Pin_21*%
%TO.N,/Fin_S2*%
X31400000Y-115560000D03*
%TO.P,J2,22,Pin_22*%
%TO.N,/Fin_S0*%
X33940000Y-115560000D03*
%TO.P,J2,23,Pin_23*%
%TO.N,GND*%
X31400000Y-118100000D03*
%TO.P,J2,24,Pin_24*%
%TO.N,/Fin_S1*%
X33940000Y-118100000D03*
%TD*%
D28*
%TO.P,C4,1*%
%TO.N,/1V8*%
X54450000Y-115900000D03*
%TO.P,C4,2*%
%TO.N,GND*%
X56350000Y-115900000D03*
%TD*%
D37*
%TO.P,U3,1,GND*%
%TO.N,GND*%
X137860000Y-99820000D03*
%TO.P,U3,2,VO*%
%TO.N,/3V3*%
X137860000Y-102100000D03*
D38*
X142485000Y-100575000D03*
X142485000Y-103625000D03*
D39*
X144160000Y-102100000D03*
D38*
X145835000Y-100575000D03*
X145835000Y-103625000D03*
D37*
%TO.P,U3,3,VI*%
%TO.N,/supplyPower*%
X137860000Y-104380000D03*
%TD*%
D17*
%TO.P,J7,1,Pin_1*%
%TO.N,GND*%
X205000000Y-125000000D03*
D18*
%TO.P,J7,2,Pin_2*%
%TO.N,/supplyPower*%
X205000000Y-122460000D03*
%TO.P,J7,3,Pin_3*%
%TO.N,GND*%
X207540000Y-125000000D03*
%TO.P,J7,4,Pin_4*%
%TO.N,/Dout_SCLK*%
X207540000Y-122460000D03*
%TO.P,J7,5,Pin_5*%
%TO.N,GND*%
X210080000Y-125000000D03*
%TO.P,J7,6,Pin_6*%
%TO.N,/Dout_COPI*%
X210080000Y-122460000D03*
%TO.P,J7,7,Pin_7*%
%TO.N,GND*%
X212620000Y-125000000D03*
%TO.P,J7,8,Pin_8*%
%TO.N,/supplyPower*%
X212620000Y-122460000D03*
%TO.P,J7,9,Pin_9*%
%TO.N,/Dout_pass0*%
X215160000Y-125000000D03*
%TO.P,J7,10,Pin_10*%
%TO.N,/supplyPower*%
X215160000Y-122460000D03*
%TO.P,J7,11,Pin_11*%
%TO.N,GND*%
X217700000Y-125000000D03*
%TO.P,J7,12,Pin_12*%
%TO.N,/supplyPower*%
X217700000Y-122460000D03*
%TO.P,J7,13,Pin_13*%
%TO.N,/Dout_pass1*%
X220240000Y-125000000D03*
%TO.P,J7,14,Pin_14*%
%TO.N,/Dout_pass2*%
X220240000Y-122460000D03*
%TO.P,J7,15,Pin_15*%
%TO.N,GND*%
X222780000Y-125000000D03*
%TO.P,J7,16,Pin_16*%
%TO.N,/Dout_S2*%
X222780000Y-122460000D03*
%TO.P,J7,17,Pin_17*%
%TO.N,GND*%
X225320000Y-125000000D03*
%TO.P,J7,18,Pin_18*%
%TO.N,/Dout_S1*%
X225320000Y-122460000D03*
%TO.P,J7,19,Pin_19*%
%TO.N,GND*%
X227860000Y-125000000D03*
%TO.P,J7,20,Pin_20*%
%TO.N,/supplyPower*%
X227860000Y-122460000D03*
%TO.P,J7,21,Pin_21*%
%TO.N,/Dout_~{LDAC}*%
X230400000Y-125000000D03*
%TO.P,J7,22,Pin_22*%
%TO.N,/Dout_S0*%
X230400000Y-122460000D03*
%TO.P,J7,23,Pin_23*%
%TO.N,/Dout_~{CLR}*%
X232940000Y-125000000D03*
%TO.P,J7,24,Pin_24*%
%TO.N,/Dout_~{RESET}*%
X232940000Y-122460000D03*
%TD*%
D14*
%TO.P,R4,1*%
%TO.N,/leadCS_1V8*%
X49600000Y-102087500D03*
%TO.P,R4,2*%
%TO.N,/1V8*%
X49600000Y-103912500D03*
%TD*%
D13*
%TO.P,T7,1,1*%
%TO.N,/S4_1V8*%
X60200000Y-102800000D03*
%TD*%
D12*
%TO.P,C16,1*%
%TO.N,/1V8*%
X205000000Y-110650000D03*
%TO.P,C16,2*%
%TO.N,GND*%
X205000000Y-112550000D03*
%TD*%
D40*
%TO.N,/supplyPower*%
X134800000Y-121800000D03*
D41*
%TO.N,/1V8*%
X50800000Y-103900000D03*
X199484577Y-103321994D03*
X41582822Y-115032822D03*
X171800000Y-114300000D03*
X47400000Y-107475000D03*
X44600000Y-104800000D03*
X165800000Y-99500000D03*
X63600000Y-119150000D03*
X124900000Y-101350000D03*
X55500000Y-111400000D03*
X46266861Y-92614617D03*
X212000000Y-112000000D03*
X119500000Y-122300000D03*
X66200000Y-119150000D03*
X39700000Y-107700000D03*
X116300000Y-101700000D03*
X209800000Y-97600000D03*
X206037370Y-111562630D03*
X55400000Y-117000000D03*
X105800000Y-101700000D03*
X172500000Y-100000000D03*
X166371412Y-114114552D03*
X63600000Y-122600000D03*
D42*
%TO.N,GND*%
X206949865Y-107651983D03*
X106899916Y-99900000D03*
X45400000Y-117300000D03*
X43000000Y-108000000D03*
X57300000Y-109300000D03*
X50500000Y-114300000D03*
X57600000Y-115525001D03*
X149000000Y-103800000D03*
X47700000Y-100200000D03*
X209800000Y-95547882D03*
X50500000Y-117300000D03*
X142200000Y-95100000D03*
X45500000Y-114300000D03*
X139360000Y-99787500D03*
X115099916Y-99500000D03*
X42342000Y-100250002D03*
X46142000Y-93567649D03*
X50500000Y-108800000D03*
X128899916Y-102300000D03*
X170250001Y-109752124D03*
X207110044Y-102330115D03*
X173250000Y-109752125D03*
X167749999Y-104247876D03*
X173250001Y-104247874D03*
X133710000Y-101587500D03*
X209400000Y-102200000D03*
X167200000Y-109598800D03*
X164177477Y-104401200D03*
X63200000Y-128215600D03*
X202400000Y-102200000D03*
X213282142Y-107550783D03*
X39700000Y-115000000D03*
X205100000Y-113700000D03*
X170250000Y-104247877D03*
X135004074Y-90404074D03*
X203899729Y-107703967D03*
X50500000Y-111800000D03*
X45500000Y-111800000D03*
X200500000Y-105400000D03*
X212949865Y-99949081D03*
X123099916Y-99300000D03*
X41000000Y-105700000D03*
X165300000Y-109598800D03*
X209108028Y-107555492D03*
D40*
%TO.N,/supplyPower*%
X138460000Y-106487500D03*
D41*
%TO.N,/3V3*%
X121800000Y-96200000D03*
X105700000Y-97900000D03*
X140060000Y-100787500D03*
X113900000Y-96675000D03*
X139960000Y-103587500D03*
X137000000Y-90400000D03*
D42*
%TO.N,/~{leader}*%
X50800000Y-118800000D03*
X51900000Y-106800000D03*
X45400000Y-118800000D03*
X41300000Y-98300000D03*
X44300000Y-106800000D03*
X54800000Y-128400000D03*
%TO.N,/~{follower}*%
X175300000Y-103200000D03*
X175324575Y-111375425D03*
X162700000Y-110900000D03*
%TO.N,/Fin_S0*%
X45525000Y-116300000D03*
%TO.N,/Fin_S3*%
X42100000Y-112725000D03*
%TO.N,/Fin_CS*%
X40300000Y-111900000D03*
%TO.N,/Fin_S1*%
X45500000Y-115300000D03*
%TO.N,/Fin_S4*%
X42268418Y-111942926D03*
%TO.N,/Din_pass0*%
X168675000Y-114600000D03*
%TO.N,/Din_pass2*%
X167400000Y-111975000D03*
%TO.N,/Din_~{CLR}*%
X172425735Y-109600101D03*
%TO.N,/Din_pass1*%
X165500000Y-116400000D03*
%TO.N,/Din_~{LDAC}*%
X182500000Y-110900000D03*
%TO.N,/Dout_S1*%
X206500000Y-110400000D03*
%TO.N,/Dout_S2*%
X206087062Y-107550783D03*
%TO.N,/~{LDAC}*%
X203000000Y-80800000D03*
X85800000Y-80800000D03*
X70000000Y-80800000D03*
X196500000Y-80800000D03*
X185100000Y-80800000D03*
X112700000Y-80800000D03*
X222800000Y-80800000D03*
X125599916Y-96200000D03*
%TO.N,/SCLK*%
X192000000Y-83135000D03*
X94700000Y-83100000D03*
X117699916Y-96000000D03*
X76000000Y-83100000D03*
X119500000Y-83100000D03*
X211800000Y-83135000D03*
X198600000Y-83135000D03*
X173500000Y-83135000D03*
%TO.N,/COPI*%
X84688172Y-82525001D03*
X110800000Y-82525000D03*
X197700000Y-82560000D03*
X225800000Y-82560000D03*
X74456215Y-82525000D03*
X200700000Y-82560000D03*
X118365558Y-95556239D03*
X189400000Y-82560000D03*
%TO.N,/~{CLR}*%
X231920000Y-82000000D03*
X194600000Y-81985000D03*
X116900000Y-81950000D03*
X188800000Y-81985000D03*
X206900000Y-81985000D03*
X91900000Y-81950000D03*
X126873326Y-95261309D03*
X73900000Y-81950000D03*
%TO.N,/~{RESET}*%
X113800000Y-81375000D03*
X88700000Y-81375000D03*
X203800000Y-81375000D03*
X228790000Y-81410000D03*
X195600000Y-81375000D03*
X185765642Y-81375000D03*
X126165603Y-95634313D03*
X70600000Y-81375000D03*
%TO.N,/leadP0_1V8*%
X44812500Y-101300000D03*
X47010999Y-97000000D03*
%TO.N,/~{LDAC}_1V8*%
X174026646Y-105425000D03*
X125600000Y-105100000D03*
X113500000Y-117250001D03*
X171894080Y-109002319D03*
%TO.N,/S3_1V8*%
X49503014Y-98496121D03*
X53675000Y-102661827D03*
X53724697Y-112799758D03*
%TO.N,/int_CS_1V8*%
X168750000Y-104800000D03*
X109200000Y-112075000D03*
X111500000Y-109775000D03*
X145000000Y-112075000D03*
%TO.N,/S2_1V8*%
X145600000Y-114375000D03*
X105600000Y-114375001D03*
X152000000Y-114300000D03*
X110800000Y-109300000D03*
%TO.N,/pass0_1V8*%
X165138172Y-96025000D03*
X168500000Y-99200000D03*
%TO.N,/~{RESET}_1V8*%
X126200000Y-105700000D03*
X115200000Y-116675001D03*
X171340269Y-108425000D03*
X173322902Y-105044545D03*
%TO.N,/S4_1V8*%
X49500000Y-99300000D03*
X53090918Y-103208501D03*
X53100000Y-112300000D03*
%TO.N,/COPI_1V8*%
X167056587Y-96675000D03*
X118400000Y-107100000D03*
X168513172Y-98100000D03*
X112700000Y-112800000D03*
%TO.N,/SCLK_1V8*%
X110600000Y-113750000D03*
X117700000Y-106700000D03*
%TO.N,/S0_1V8*%
X150300000Y-115525001D03*
X146300000Y-115525001D03*
X102000000Y-115525001D03*
X109500000Y-108100000D03*
X171805985Y-105425000D03*
X167100000Y-107175000D03*
%TO.N,/~{CLR}_1V8*%
X117200000Y-116100001D03*
X172619157Y-105425000D03*
X170841867Y-107750337D03*
X126900000Y-106400000D03*
%TO.N,/pass1_1V8*%
X167275000Y-99300000D03*
X162200000Y-95450000D03*
%TO.N,/S1_1V8*%
X145000000Y-114950001D03*
X152800000Y-114900000D03*
X171306854Y-104799806D03*
X166500000Y-106600000D03*
X103800000Y-114950001D03*
X110200000Y-108700000D03*
%TO.N,/CS_1V8*%
X43614746Y-96696145D03*
X50300000Y-105000000D03*
X44615136Y-106064682D03*
%TD*%
D43*
%TO.N,/1V8*%
X42600000Y-110300000D02*
X44298298Y-110300000D01*
X210899865Y-98750135D02*
X211100000Y-98550000D01*
X206037370Y-111562630D02*
X205426723Y-110951983D01*
D44*
X123099916Y-102150000D02*
X124302666Y-103352750D01*
D43*
X212000000Y-112000000D02*
X211250000Y-111250000D01*
X66200000Y-119150000D02*
X66200000Y-119000000D01*
X66200000Y-119000000D02*
X64800000Y-117600000D01*
X64650000Y-126300000D02*
X64650000Y-124050000D01*
X166300000Y-100800000D02*
X166250000Y-100850000D01*
X64650000Y-124050000D02*
X64800000Y-123900000D01*
X48242000Y-94550002D02*
X47142000Y-93450002D01*
X41000000Y-108700000D02*
X40700000Y-108700000D01*
D44*
X50787500Y-103912500D02*
X49600000Y-103912500D01*
D43*
X115099916Y-102400000D02*
X115600000Y-102400000D01*
X166250000Y-100850000D02*
X166250000Y-103199149D01*
X210899865Y-101151132D02*
X210899865Y-98750135D01*
X166300000Y-100000000D02*
X166300000Y-100800000D01*
X166364552Y-114114552D02*
X165450000Y-113200000D01*
D44*
X205399865Y-101151132D02*
X205399865Y-102042880D01*
D43*
X165800000Y-99500000D02*
X166300000Y-100000000D01*
X166250000Y-112400000D02*
X166250000Y-110800851D01*
D44*
X200775000Y-102775000D02*
X200400000Y-102400000D01*
D43*
X171550000Y-100950000D02*
X172500000Y-100000000D01*
D44*
X119500000Y-123887500D02*
X118587500Y-124800000D01*
D43*
X210899865Y-110349865D02*
X210899865Y-108752834D01*
X171800000Y-114300000D02*
X171750000Y-114250000D01*
X47142000Y-93450002D02*
X47102246Y-93450002D01*
X54450000Y-116050000D02*
X55400000Y-117000000D01*
D44*
X54350000Y-115800000D02*
X54450000Y-115900000D01*
D43*
X211250000Y-111250000D02*
X211250000Y-110700000D01*
X48242000Y-95050002D02*
X48242000Y-94550002D01*
X210150000Y-97600000D02*
X211100000Y-98550000D01*
X44298298Y-115800000D02*
X42550000Y-115800000D01*
X64800000Y-123800000D02*
X63600000Y-122600000D01*
X64800000Y-123900000D02*
X64800000Y-123800000D01*
X199484577Y-103321994D02*
X200400000Y-102406571D01*
X115099916Y-102400000D02*
X116094500Y-102400000D01*
D44*
X205399865Y-102042880D02*
X204667745Y-102775000D01*
D43*
X205426723Y-110951983D02*
X205399865Y-110951983D01*
D44*
X43712500Y-103912500D02*
X44600000Y-104800000D01*
X47600000Y-107275000D02*
X47400000Y-107475000D01*
D43*
X200400000Y-102406571D02*
X200400000Y-102400000D01*
X105849916Y-101700000D02*
X106899916Y-102750000D01*
X171750000Y-114250000D02*
X171750000Y-113000000D01*
X63600000Y-119150000D02*
X63600000Y-118800000D01*
X116094500Y-102400000D02*
X117100000Y-103405500D01*
X40700000Y-108700000D02*
X39700000Y-107700000D01*
X54550000Y-110450000D02*
X55500000Y-111400000D01*
X108091722Y-102750000D02*
X108899972Y-103558250D01*
D44*
X116212500Y-124800000D02*
X118587500Y-124800000D01*
D43*
X47102246Y-93450002D02*
X46266861Y-92614617D01*
X42550000Y-116000000D02*
X42550000Y-116015868D01*
X106899916Y-102750000D02*
X108091722Y-102750000D01*
X165450000Y-113200000D02*
X166250000Y-112400000D01*
X200400000Y-102400000D02*
X200300000Y-102500000D01*
X211250000Y-110700000D02*
X210899865Y-110349865D01*
X205399865Y-110951983D02*
X205399865Y-108752834D01*
X115600000Y-102400000D02*
X116300000Y-101700000D01*
D44*
X43600000Y-103912500D02*
X43712500Y-103912500D01*
X204667745Y-102775000D02*
X200775000Y-102775000D01*
D43*
X41000000Y-108700000D02*
X42600000Y-110300000D01*
D44*
X47600000Y-103912500D02*
X47600000Y-107275000D01*
D43*
X54550000Y-110300000D02*
X54550000Y-110450000D01*
X105800000Y-101700000D02*
X105849916Y-101700000D01*
X41582822Y-115032822D02*
X42550000Y-116000000D01*
D44*
X119500000Y-122300000D02*
X119500000Y-123887500D01*
X124100000Y-102150000D02*
X124900000Y-101350000D01*
D43*
X171550000Y-101000000D02*
X171750000Y-101200000D01*
D44*
X124302666Y-103352750D02*
X124949958Y-103352750D01*
D43*
X171750000Y-110800851D02*
X171750000Y-113000000D01*
X51900000Y-110300000D02*
X54550000Y-110300000D01*
X171550000Y-101000000D02*
X171550000Y-100950000D01*
X171750000Y-101200000D02*
X171750000Y-103199149D01*
X63600000Y-118800000D02*
X64800000Y-117600000D01*
D44*
X43600000Y-103912500D02*
X45600000Y-103912500D01*
D43*
X209800000Y-97600000D02*
X210150000Y-97600000D01*
D44*
X123099916Y-102150000D02*
X124100000Y-102150000D01*
X51900000Y-115800000D02*
X54350000Y-115800000D01*
D43*
X166371412Y-114114552D02*
X166364552Y-114114552D01*
X54450000Y-115900000D02*
X54450000Y-116050000D01*
D44*
X50800000Y-103900000D02*
X50787500Y-103912500D01*
D43*
%TO.N,GND*%
X57600000Y-115525001D02*
X56724999Y-115525001D01*
X166749999Y-110800851D02*
X166749999Y-112599999D01*
X56724999Y-115525001D02*
X56350000Y-115900000D01*
D44*
X127549902Y-103352750D02*
X127549902Y-102497900D01*
D43*
X51900000Y-111800000D02*
X50500000Y-111800000D01*
X51900000Y-114300000D02*
X50500000Y-114300000D01*
X213399865Y-100109382D02*
X213399865Y-101151132D01*
X200500000Y-104400000D02*
X200400000Y-104300000D01*
D44*
X119699944Y-103405500D02*
X119699944Y-102550650D01*
D43*
X209108028Y-107555492D02*
X209399865Y-107847329D01*
X43000000Y-108503986D02*
X43000000Y-108000000D01*
X44298298Y-108800001D02*
X43296015Y-108800001D01*
X213389566Y-100099083D02*
X213099867Y-100099083D01*
D44*
X205000000Y-113600000D02*
X205100000Y-113700000D01*
X119699944Y-102550650D02*
X119900594Y-102350000D01*
D43*
X45399999Y-117299999D02*
X45400000Y-117300000D01*
X213899866Y-107711086D02*
X213739563Y-107550783D01*
X164589697Y-104401200D02*
X164177477Y-104401200D01*
X173249999Y-104247872D02*
X173250001Y-104247874D01*
X44298298Y-114300000D02*
X45500000Y-114300000D01*
X42400000Y-98949999D02*
X42400000Y-99600000D01*
X166749999Y-110800851D02*
X166749999Y-109800802D01*
X203889564Y-102203181D02*
X202403181Y-102203181D01*
X212799863Y-100099083D02*
X212410166Y-100099083D01*
X173249999Y-110800851D02*
X173249999Y-109752126D01*
X123099916Y-100250000D02*
X123099916Y-99300000D01*
X112799888Y-103558250D02*
X112799888Y-102800028D01*
X206899865Y-102192882D02*
X206899865Y-101151132D01*
X202399864Y-102199864D02*
X202400000Y-102200000D01*
X202399866Y-108752834D02*
X202399866Y-107711084D01*
X139327500Y-99820000D02*
X139360000Y-99787500D01*
X167750000Y-103199149D02*
X167750000Y-104247875D01*
D45*
X211100000Y-96650000D02*
X210902118Y-96650000D01*
D43*
X142199997Y-96242000D02*
X142199997Y-95100003D01*
X166749999Y-109800802D02*
X166952001Y-109598800D01*
X141549998Y-96242000D02*
X142199997Y-96242000D01*
D45*
X213150000Y-110700000D02*
X213899866Y-109950134D01*
D43*
X173249999Y-101200001D02*
X173249999Y-103199149D01*
X62750000Y-124150000D02*
X62500000Y-123900000D01*
X213399865Y-100109382D02*
X213399865Y-100651133D01*
X203899866Y-102192879D02*
X203889564Y-102203181D01*
X42400000Y-99600000D02*
X42400000Y-100192002D01*
X50500001Y-108800001D02*
X50500000Y-108800000D01*
X46024353Y-93450002D02*
X46142000Y-93567649D01*
X212399864Y-107711087D02*
X212560168Y-107550783D01*
X202399866Y-107711084D02*
X202410165Y-107700785D01*
X137860000Y-99820000D02*
X139327500Y-99820000D01*
X209399865Y-102199865D02*
X209400000Y-102200000D01*
X135172500Y-103050000D02*
X135400000Y-103050000D01*
X170250000Y-109752125D02*
X170250001Y-109752124D01*
X203899866Y-107704104D02*
X203899729Y-107703967D01*
X207110044Y-102330115D02*
X206983110Y-102203181D01*
X211899865Y-101151132D02*
X211899865Y-100951982D01*
X166697999Y-109748802D02*
X165760300Y-109748802D01*
D44*
X119049958Y-103405500D02*
X119699944Y-103405500D01*
D43*
X212410166Y-100099083D02*
X212399864Y-100109385D01*
X115099916Y-98550000D02*
X115099916Y-99500000D01*
X167750000Y-101250000D02*
X167750000Y-103199149D01*
X163410302Y-104401200D02*
X164177477Y-104401200D01*
D44*
X41000000Y-106800000D02*
X41000000Y-105700000D01*
D43*
X43296015Y-108800001D02*
X43000000Y-108503986D01*
D44*
X127549902Y-102497900D02*
X127747802Y-102300000D01*
D43*
X44298298Y-111800000D02*
X45500000Y-111800000D01*
X45242000Y-93450002D02*
X46024353Y-93450002D01*
X133710000Y-101587500D02*
X135172500Y-103050000D01*
D44*
X135004074Y-90404074D02*
X134950000Y-90458148D01*
D43*
X164910302Y-109598800D02*
X164750001Y-109759101D01*
D44*
X149362500Y-103800000D02*
X150100000Y-104537500D01*
D43*
X167589699Y-109598800D02*
X167200000Y-109598800D01*
D45*
X213899866Y-109950134D02*
X213899866Y-108752834D01*
D44*
X134950000Y-90458148D02*
X134950000Y-91700000D01*
D43*
X165760300Y-109748802D02*
X165750001Y-109759101D01*
X63215600Y-128200000D02*
X66950000Y-128200000D01*
X165760300Y-109748802D02*
X165610298Y-109598800D01*
X163249999Y-103199149D02*
X163249999Y-104240897D01*
X203896547Y-107700785D02*
X203899729Y-107703967D01*
X57300000Y-109300000D02*
X57300000Y-109450000D01*
X213399865Y-100651133D02*
X213899864Y-101151132D01*
X212899866Y-101151132D02*
X212899866Y-99999080D01*
X202403181Y-102203181D02*
X202400000Y-102200000D01*
X51900000Y-117299999D02*
X50500001Y-117299999D01*
D44*
X119900594Y-102350000D02*
X120999916Y-102350000D01*
D43*
X211899865Y-100951982D02*
X212399864Y-100451983D01*
X173249999Y-112599999D02*
X173249999Y-110800851D01*
X165300000Y-109598800D02*
X164910302Y-109598800D01*
X42400000Y-100192002D02*
X42342000Y-100250002D01*
X115099916Y-100500000D02*
X115099916Y-99500000D01*
X206899865Y-108752834D02*
X206899865Y-107701983D01*
X166952001Y-109598800D02*
X167200000Y-109598800D01*
X165610298Y-109598800D02*
X165300000Y-109598800D01*
X167750000Y-110800851D02*
X167750000Y-109759101D01*
X164750001Y-109759101D02*
X164750001Y-110800851D01*
X168200000Y-100800000D02*
X167750000Y-101250000D01*
X62750000Y-127765600D02*
X62750000Y-124150000D01*
X209399865Y-107847329D02*
X209399865Y-108752834D01*
X212899866Y-99999080D02*
X212949865Y-99949081D01*
X212399864Y-108752834D02*
X212399864Y-107711087D01*
X212949865Y-99949081D02*
X212799863Y-100099083D01*
X112799888Y-102800028D02*
X115099916Y-100500000D01*
X66950000Y-128200000D02*
X67100000Y-128050000D01*
D45*
X210902118Y-96650000D02*
X209800000Y-95547882D01*
D43*
X63200000Y-128215600D02*
X62750000Y-127765600D01*
X173249999Y-103199149D02*
X173249999Y-104247872D01*
X213899866Y-108752834D02*
X213899866Y-107711086D01*
X202410165Y-107700785D02*
X203896547Y-107700785D01*
D44*
X127747802Y-102300000D02*
X128899916Y-102300000D01*
D43*
X173249999Y-109752126D02*
X173250000Y-109752125D01*
X44298298Y-117299999D02*
X45399999Y-117299999D01*
D44*
X205000000Y-112550000D02*
X205000000Y-113600000D01*
D43*
X163249999Y-104240897D02*
X163410302Y-104401200D01*
X128849874Y-103352750D02*
X128849874Y-102350042D01*
X202399864Y-101151132D02*
X202399864Y-102199864D01*
X63200000Y-128215600D02*
X63215600Y-128200000D01*
X50500001Y-117299999D02*
X50500000Y-117300000D01*
X164750001Y-103199149D02*
X164750001Y-104240896D01*
X165750001Y-109759101D02*
X165750001Y-110800851D01*
X47700000Y-100200000D02*
X47700000Y-100142000D01*
X212399864Y-100451983D02*
X212399864Y-101151132D01*
X39700000Y-115000000D02*
X39700000Y-115065868D01*
X142849998Y-96242000D02*
X142199997Y-96242000D01*
X166749999Y-112599999D02*
X167350000Y-113200000D01*
X39700000Y-115065868D02*
X40650000Y-116015868D01*
X106899916Y-100850000D02*
X106899916Y-99900000D01*
X167750000Y-104247875D02*
X167749999Y-104247876D01*
X206899865Y-107701983D02*
X206949865Y-107651983D01*
X120999916Y-103405500D02*
X120999916Y-102350000D01*
X170250000Y-110800851D02*
X170250000Y-109752125D01*
X142199997Y-95100003D02*
X142200000Y-95100000D01*
X170250000Y-103199149D02*
X170250000Y-104247877D01*
X203899866Y-101151132D02*
X203899866Y-102192879D01*
X133710000Y-101587500D02*
X135477500Y-99820000D01*
X106899916Y-98850000D02*
X106899916Y-99900000D01*
X173650000Y-113000000D02*
X173249999Y-112599999D01*
X57300000Y-109450000D02*
X56450000Y-110300000D01*
X203899866Y-108752834D02*
X203899866Y-107704104D01*
X47700000Y-100142000D02*
X48242000Y-99600000D01*
D44*
X149000000Y-103800000D02*
X149362500Y-103800000D01*
D43*
X213099867Y-100099083D02*
X212949865Y-99949081D01*
X213739563Y-107550783D02*
X213282142Y-107550783D01*
X206983110Y-102203181D02*
X206910164Y-102203181D01*
X212399864Y-100109385D02*
X212399864Y-100451983D01*
X206910164Y-102203181D02*
X206899865Y-102192882D01*
X167750000Y-109759101D02*
X167589699Y-109598800D01*
X164750001Y-104240896D02*
X164589697Y-104401200D01*
X209399865Y-101151132D02*
X209399865Y-102199865D01*
X51900000Y-108800001D02*
X50500001Y-108800001D01*
X166749999Y-109800802D02*
X166697999Y-109748802D01*
X173450000Y-101000000D02*
X173249999Y-101200001D01*
X212560168Y-107550783D02*
X213282142Y-107550783D01*
X135477500Y-99820000D02*
X137860000Y-99820000D01*
X200500000Y-105400000D02*
X200500000Y-104400000D01*
X128849874Y-102350042D02*
X128899916Y-102300000D01*
X213389566Y-100099083D02*
X213399865Y-100109382D01*
X120999916Y-102350000D02*
X123099916Y-100250000D01*
X123099916Y-98350000D02*
X123099916Y-99300000D01*
D46*
%TO.N,/supplyPower*%
X67100000Y-125050000D02*
X67100000Y-123900000D01*
X67100000Y-126150000D02*
X67100000Y-125050000D01*
D43*
X135400000Y-104950000D02*
X137290000Y-104950000D01*
X137290000Y-104950000D02*
X137860000Y-104380000D01*
D46*
X67150000Y-125100000D02*
X67100000Y-125050000D01*
X76000000Y-124850000D02*
X67150000Y-124850000D01*
D43*
X137860000Y-104380000D02*
X137860000Y-105887500D01*
X137860000Y-105887500D02*
X138460000Y-106487500D01*
D44*
%TO.N,/3V3*%
X112799888Y-98435414D02*
X112602702Y-98632600D01*
D43*
X150100000Y-99287500D02*
X150032458Y-99287500D01*
D44*
X152687500Y-89125000D02*
X166875000Y-89125000D01*
X108899972Y-98435414D02*
X108899972Y-97652750D01*
D43*
X122049916Y-96449916D02*
X121800000Y-96200000D01*
X136850000Y-90600000D02*
X136850000Y-91700000D01*
X117100000Y-98504850D02*
X117150000Y-98554850D01*
D44*
X78612500Y-88512500D02*
X80900000Y-88512500D01*
X128000000Y-88000000D02*
X130300000Y-88000000D01*
D43*
X116250000Y-96650000D02*
X117100000Y-97500000D01*
X122049916Y-96450000D02*
X122049916Y-96449916D01*
D44*
X193000000Y-88000000D02*
X191387500Y-89612500D01*
D43*
X128849874Y-97447250D02*
X128849874Y-98452100D01*
D44*
X218000000Y-88000000D02*
X225787500Y-88000000D01*
X130300000Y-88000000D02*
X130800000Y-88500000D01*
D43*
X117100000Y-97500000D02*
X117100000Y-98504850D01*
X115099916Y-96650000D02*
X116250000Y-96650000D01*
X120999916Y-98432664D02*
X120999916Y-97500000D01*
X135360000Y-101837500D02*
X137597500Y-101837500D01*
X128849874Y-98452100D02*
X128799874Y-98502100D01*
X137860000Y-102100000D02*
X144160000Y-102100000D01*
X105949916Y-97900000D02*
X106899916Y-96950000D01*
X138300000Y-90400000D02*
X137050000Y-90400000D01*
D44*
X105487500Y-88000000D02*
X105900000Y-88412500D01*
X191387500Y-89612500D02*
X177600000Y-89612500D01*
D43*
X148744958Y-100575000D02*
X145835000Y-100575000D01*
X117150000Y-98554850D02*
X120877730Y-98554850D01*
D44*
X103000000Y-88000000D02*
X105487500Y-88000000D01*
X55487500Y-88000000D02*
X55800000Y-88312500D01*
D43*
X124097166Y-97447250D02*
X123099916Y-96450000D01*
D44*
X112799888Y-97652750D02*
X112799888Y-98435414D01*
D43*
X142485000Y-100575000D02*
X140272500Y-100575000D01*
D44*
X78000000Y-88000000D02*
X78100000Y-88000000D01*
D43*
X105700000Y-97900000D02*
X105949916Y-97900000D01*
D44*
X193287500Y-87712500D02*
X193000000Y-88000000D01*
D43*
X150032458Y-99287500D02*
X148744958Y-100575000D01*
X139997500Y-103625000D02*
X139960000Y-103587500D01*
D44*
X53000000Y-88000000D02*
X55487500Y-88000000D01*
D43*
X150100000Y-99287500D02*
X150487500Y-99287500D01*
X123099916Y-96450000D02*
X122049916Y-96450000D01*
X113925000Y-96650000D02*
X113900000Y-96675000D01*
X124949958Y-97447250D02*
X124097166Y-97447250D01*
X137050000Y-90400000D02*
X137000000Y-90400000D01*
X106899916Y-96950000D02*
X108197222Y-96950000D01*
X108197222Y-96950000D02*
X108899972Y-97652750D01*
X125202016Y-98502100D02*
X124949958Y-98250042D01*
D44*
X152600000Y-89212500D02*
X152687500Y-89125000D01*
X202500000Y-87712500D02*
X193287500Y-87712500D01*
X109097158Y-98632600D02*
X108899972Y-98435414D01*
D43*
X120877730Y-98554850D02*
X120999916Y-98432664D01*
D44*
X112602702Y-98632600D02*
X109097158Y-98632600D01*
X78100000Y-88000000D02*
X78612500Y-88512500D01*
D43*
X140272500Y-100575000D02*
X140060000Y-100787500D01*
D44*
X166875000Y-89125000D02*
X168000000Y-88000000D01*
D43*
X137597500Y-101837500D02*
X137860000Y-102100000D01*
X128799874Y-98502100D02*
X125202016Y-98502100D01*
X142485000Y-103625000D02*
X139997500Y-103625000D01*
X115099916Y-96650000D02*
X113925000Y-96650000D01*
X124949958Y-98250042D02*
X124949958Y-97447250D01*
D44*
%TO.N,Net-(D1-A)*%
X150100000Y-101112500D02*
X150100000Y-102662500D01*
%TO.N,/~{leader}*%
X55825000Y-129425000D02*
X54800000Y-128400000D01*
X50800000Y-118800000D02*
X51899999Y-118800000D01*
X112200000Y-129425000D02*
X55825000Y-129425000D01*
X114920000Y-127600000D02*
X114920000Y-125332500D01*
X113095000Y-129425000D02*
X112200000Y-129425000D01*
X114920000Y-127600000D02*
X113095000Y-129425000D01*
X44300000Y-107298299D02*
X44298298Y-107300001D01*
X44298299Y-118800000D02*
X44298298Y-118800001D01*
X44300000Y-106800000D02*
X44300000Y-107298299D01*
X114920000Y-125332500D02*
X114387500Y-124800000D01*
X45400000Y-118800000D02*
X44298299Y-118800000D01*
X41300000Y-98300000D02*
X42400000Y-98300000D01*
X51899999Y-118800000D02*
X51900000Y-118799999D01*
X51900000Y-106800000D02*
X51900000Y-107299999D01*
%TO.N,/~{follower}*%
X192075000Y-129425000D02*
X194300000Y-127200000D01*
X163150852Y-110900000D02*
X163250001Y-110800851D01*
X120000000Y-125212500D02*
X120412500Y-124800000D01*
X175300000Y-103200000D02*
X174750850Y-103200000D01*
X121825000Y-129425000D02*
X192075000Y-129425000D01*
X187700000Y-111600000D02*
X175549150Y-111600000D01*
X194300000Y-118200000D02*
X187700000Y-111600000D01*
X120000000Y-127600000D02*
X120000000Y-125212500D01*
X174750001Y-110800851D02*
X175324575Y-111375425D01*
X162700000Y-110900000D02*
X163150852Y-110900000D01*
X174750850Y-103200000D02*
X174749999Y-103199149D01*
X120000000Y-127600000D02*
X121825000Y-129425000D01*
X194300000Y-127200000D02*
X194300000Y-118200000D01*
X175549150Y-111600000D02*
X175324575Y-111375425D01*
%TO.N,/Fin_~{LDAC}*%
X44298298Y-118300000D02*
X38300000Y-118300000D01*
X38300000Y-118300000D02*
X35500000Y-121100000D01*
X30934009Y-91575000D02*
X32815000Y-91575000D01*
X32815000Y-91575000D02*
X33940000Y-92700000D01*
X29100000Y-121100000D02*
X26800000Y-118800000D01*
X26800000Y-118800000D02*
X26800000Y-95709009D01*
X26800000Y-95709009D02*
X30934009Y-91575000D01*
X35500000Y-121100000D02*
X29100000Y-121100000D01*
%TO.N,/Fin_S0*%
X45524999Y-116300001D02*
X45525000Y-116300000D01*
X44298298Y-116300001D02*
X45524999Y-116300001D01*
%TO.N,/Fin_S3*%
X44298298Y-112800000D02*
X42175000Y-112800000D01*
X42175000Y-112800000D02*
X42100000Y-112725000D01*
%TO.N,/Fin_~{RESET}*%
X32815000Y-94115000D02*
X33940000Y-95240000D01*
X37699999Y-117800001D02*
X34900000Y-120600000D01*
X27700000Y-96200000D02*
X29785000Y-94115000D01*
X27700000Y-118700000D02*
X27700000Y-96200000D01*
X37699999Y-117800001D02*
X44298298Y-117800001D01*
X34900000Y-120600000D02*
X29600000Y-120600000D01*
X29785000Y-94115000D02*
X32815000Y-94115000D01*
X29600000Y-120600000D02*
X27700000Y-118700000D01*
%TO.N,/Fin_CS*%
X44298298Y-111300001D02*
X40899999Y-111300001D01*
X40899999Y-111300001D02*
X40300000Y-111900000D01*
%TO.N,/Fin_SCLK*%
X33940000Y-110480000D02*
X37260001Y-113800001D01*
X37260001Y-113800001D02*
X44298298Y-113800001D01*
%TO.N,/Fin_S2*%
X32602178Y-114357822D02*
X41862417Y-114357822D01*
X32602178Y-114357822D02*
X31400000Y-115560000D01*
X44298298Y-114799999D02*
X42304594Y-114799999D01*
X42304594Y-114799999D02*
X41862417Y-114357822D01*
%TO.N,/Fin_S1*%
X45499999Y-115300001D02*
X45500000Y-115300000D01*
X44298298Y-115300001D02*
X45499999Y-115300001D01*
%TO.N,/Fin_S4*%
X42488175Y-112300002D02*
X44298298Y-112300002D01*
X42268418Y-112080245D02*
X42488175Y-112300002D01*
X42268418Y-111942926D02*
X42268418Y-112080245D01*
%TO.N,/Fin_~{CLR}*%
X34400000Y-120100000D02*
X30100000Y-120100000D01*
X31224009Y-101445000D02*
X32815000Y-101445000D01*
X43406548Y-116800000D02*
X42806548Y-117400000D01*
X30100000Y-120100000D02*
X28200000Y-118200000D01*
X28200000Y-118200000D02*
X28200000Y-104469009D01*
X28200000Y-104469009D02*
X31224009Y-101445000D01*
X37100000Y-117400000D02*
X42806548Y-117400000D01*
X44298298Y-116800000D02*
X43406548Y-116800000D01*
X37100000Y-117400000D02*
X34400000Y-120100000D01*
X32815000Y-101445000D02*
X33940000Y-100320000D01*
%TO.N,/Fin_COPI*%
X44298298Y-113300000D02*
X38300000Y-113300000D01*
X36800000Y-111800000D02*
X38300000Y-113300000D01*
X36800000Y-105720000D02*
X36800000Y-111800000D01*
X33940000Y-102860000D02*
X36800000Y-105720000D01*
%TO.N,/Din_pass0*%
X168750000Y-110800851D02*
X168750000Y-114525000D01*
X168750000Y-114525000D02*
X168675000Y-114600000D01*
%TO.N,/Din_pass2*%
X167250001Y-110800851D02*
X167250001Y-111825001D01*
X167250001Y-111825001D02*
X167400000Y-111975000D01*
%TO.N,/Din_~{CLR}*%
X172664701Y-110715552D02*
X172664701Y-109839067D01*
X172664701Y-109839067D02*
X172425735Y-109600101D01*
X172750000Y-110800851D02*
X172664701Y-110715552D01*
%TO.N,/Din_S2*%
X170749999Y-110800851D02*
X170749999Y-111550001D01*
X170749999Y-111550001D02*
X170200000Y-112100000D01*
X170200000Y-118880000D02*
X173780000Y-122460000D01*
X170200000Y-112100000D02*
X170200000Y-118880000D01*
%TO.N,/Din_~{RESET}*%
X183940000Y-121740000D02*
X183940000Y-122460000D01*
X173750001Y-110800851D02*
X173750001Y-111550001D01*
X173750001Y-111550001D02*
X183940000Y-121740000D01*
%TO.N,/Din_S1*%
X170700000Y-116840000D02*
X176320000Y-122460000D01*
X171250001Y-112025609D02*
X170700000Y-112575610D01*
X170700000Y-112575610D02*
X170700000Y-116840000D01*
X171250001Y-110800851D02*
X171250001Y-112025609D01*
%TO.N,/Din_pass1*%
X165500000Y-116400000D02*
X165700000Y-116400000D01*
X168250002Y-113849998D02*
X168250002Y-110800851D01*
X165700000Y-116400000D02*
X168250002Y-113849998D01*
%TO.N,/Din_COPI*%
X161640000Y-122460000D02*
X161080000Y-122460000D01*
X169250000Y-114850000D02*
X161640000Y-122460000D01*
X169250000Y-110800851D02*
X169250000Y-114850000D01*
%TO.N,/Din_S0*%
X172250001Y-112025611D02*
X172824999Y-112600609D01*
X172824999Y-113884999D02*
X181400000Y-122460000D01*
X172250001Y-110800851D02*
X172250001Y-112025611D01*
X172824999Y-112600609D02*
X172824999Y-113884999D01*
%TO.N,/Din_~{LDAC}*%
X174250000Y-109909103D02*
X174335301Y-109823802D01*
X181423802Y-109823802D02*
X182500000Y-110900000D01*
X174335301Y-109823802D02*
X181423802Y-109823802D01*
X174250000Y-110800851D02*
X174250000Y-109909103D01*
%TO.N,/Din_SCLK*%
X159680000Y-123600000D02*
X158540000Y-122460000D01*
X164900000Y-122770991D02*
X164070991Y-123600000D01*
X164900000Y-122100000D02*
X164900000Y-122770991D01*
X169750001Y-110800851D02*
X169750001Y-117249999D01*
X169750001Y-117249999D02*
X164900000Y-122100000D01*
X164070991Y-123600000D02*
X159680000Y-123600000D01*
%TO.N,/Dout_S0*%
X230400000Y-113100000D02*
X230400000Y-122460000D01*
X204899864Y-108752834D02*
X204899864Y-107861086D01*
X222600000Y-105300000D02*
X230400000Y-113100000D01*
X207460950Y-105300000D02*
X222600000Y-105300000D01*
X204899864Y-107861086D02*
X207460950Y-105300000D01*
%TO.N,/Dout_S1*%
X205899864Y-108752834D02*
X205899864Y-109799864D01*
X205899864Y-109799864D02*
X206500000Y-110400000D01*
D45*
%TO.N,/Dout_SCLK*%
X207399864Y-108752834D02*
X207399864Y-112050136D01*
X207075000Y-121995000D02*
X207540000Y-122460000D01*
X207075000Y-112375000D02*
X207075000Y-121995000D01*
D44*
X207399864Y-122319864D02*
X207540000Y-122460000D01*
D45*
X207399864Y-112050136D02*
X207075000Y-112375000D01*
D44*
%TO.N,/Dout_pass1*%
X214425783Y-106625783D02*
X221365000Y-113565000D01*
X221365000Y-123875000D02*
X220240000Y-125000000D01*
X221365000Y-113565000D02*
X221365000Y-123875000D01*
X211635167Y-106625783D02*
X214425783Y-106625783D01*
X210399866Y-108752834D02*
X210399866Y-107861084D01*
X210399866Y-107861084D02*
X211635167Y-106625783D01*
%TO.N,/Dout_~{CLR}*%
X203875000Y-125824390D02*
X204600610Y-126550000D01*
X231390000Y-126550000D02*
X232940000Y-125000000D01*
X204399865Y-109644584D02*
X203875000Y-110169449D01*
X204399865Y-108752834D02*
X204399865Y-109644584D01*
X203875000Y-110169449D02*
X203875000Y-125824390D01*
X204600610Y-126550000D02*
X231390000Y-126550000D01*
%TO.N,/Dout_COPI*%
X210275000Y-122265000D02*
X210080000Y-122460000D01*
X209525000Y-121905000D02*
X210080000Y-122460000D01*
X209525000Y-110875000D02*
X209525000Y-121905000D01*
X208399865Y-109749865D02*
X209525000Y-110875000D01*
X208399865Y-108752834D02*
X208399865Y-109749865D01*
%TO.N,/Dout_~{RESET}*%
X234065000Y-123585000D02*
X232940000Y-122460000D01*
X203399864Y-125844229D02*
X204455635Y-126900000D01*
X203399864Y-108752834D02*
X203399864Y-125844229D01*
X232630991Y-126900000D02*
X234065000Y-125465991D01*
X234065000Y-125465991D02*
X234065000Y-123585000D01*
X204455635Y-126900000D02*
X232630991Y-126900000D01*
%TO.N,/Dout_pass0*%
X224000000Y-115500000D02*
X224000000Y-125370991D01*
X223170991Y-126200000D02*
X216360000Y-126200000D01*
X214775783Y-106275783D02*
X224000000Y-115500000D01*
X211490192Y-106275783D02*
X214775783Y-106275783D01*
X224000000Y-125370991D02*
X223170991Y-126200000D01*
X209899864Y-107866111D02*
X211490192Y-106275783D01*
X216360000Y-126200000D02*
X215160000Y-125000000D01*
X209899864Y-108752834D02*
X209899864Y-107866111D01*
%TO.N,/Dout_pass2*%
X212285167Y-106975783D02*
X214275783Y-106975783D01*
X220240000Y-112940000D02*
X220240000Y-122460000D01*
X211399866Y-107861084D02*
X212285167Y-106975783D01*
X211399866Y-108752834D02*
X211399866Y-107861084D01*
X214275783Y-106975783D02*
X220240000Y-112940000D01*
%TO.N,/Dout_S2*%
X206399866Y-108752834D02*
X206399866Y-107863587D01*
X206399866Y-107863587D02*
X206087062Y-107550783D01*
%TO.N,/Dout_~{LDAC}*%
X201974866Y-107535043D02*
X204559909Y-104950000D01*
X202899865Y-109644584D02*
X202814566Y-109729883D01*
X202814566Y-109729883D02*
X201985166Y-109729883D01*
X231815000Y-123585000D02*
X230400000Y-125000000D01*
X202899865Y-108752834D02*
X202899865Y-109644584D01*
X222744975Y-104950000D02*
X231815000Y-114020025D01*
X204559909Y-104950000D02*
X222744975Y-104950000D01*
X231815000Y-114020025D02*
X231815000Y-123585000D01*
X201974866Y-109719583D02*
X201974866Y-107535043D01*
X201985166Y-109729883D02*
X201974866Y-109719583D01*
%TO.N,/CS_0*%
X109350000Y-83750000D02*
X81550000Y-83750000D01*
X138400000Y-87600000D02*
X140250001Y-89450001D01*
X40300000Y-88000000D02*
X41425000Y-89125000D01*
X51875000Y-86875000D02*
X55412500Y-86875000D01*
X55800000Y-86487500D02*
X55897500Y-86585000D01*
X51875000Y-88175991D02*
X51875000Y-86875000D01*
X115500000Y-89900000D02*
X109350000Y-83750000D01*
X41425000Y-89125000D02*
X50925991Y-89125000D01*
X50925991Y-89125000D02*
X51875000Y-88175991D01*
X55897500Y-86585000D02*
X78715000Y-86585000D01*
X81550000Y-83750000D02*
X78715000Y-86585000D01*
X133400000Y-89900000D02*
X135700000Y-87600000D01*
X115500000Y-89900000D02*
X133400000Y-89900000D01*
X135700000Y-87600000D02*
X138400000Y-87600000D01*
X140250001Y-89450001D02*
X140250001Y-90400000D01*
X55412500Y-86875000D02*
X55800000Y-86487500D01*
%TO.N,/~{LDAC}*%
X85800000Y-80800000D02*
X112700000Y-80800000D01*
X155300000Y-85460000D02*
X159960000Y-80800000D01*
X203000000Y-80800000D02*
X222800000Y-80800000D01*
X196500000Y-80800000D02*
X203000000Y-80800000D01*
X44960000Y-80800000D02*
X40300000Y-85460000D01*
X85800000Y-80800000D02*
X44960000Y-80800000D01*
X185100000Y-80800000D02*
X196500000Y-80800000D01*
X159960000Y-80800000D02*
X185100000Y-80800000D01*
X125599944Y-96200028D02*
X125599916Y-96200000D01*
X125599944Y-97447250D02*
X125599944Y-96200028D01*
%TO.N,/SCLK*%
X224800000Y-83135000D02*
X211800000Y-83135000D01*
X237920000Y-88000000D02*
X236795000Y-86875000D01*
X52800000Y-83100000D02*
X76000000Y-83100000D01*
X76000000Y-83100000D02*
X94700000Y-83100000D01*
X117749986Y-97500000D02*
X117749986Y-96050070D01*
X228540000Y-86875000D02*
X224800000Y-83135000D01*
X49335000Y-86585000D02*
X49335000Y-84994009D01*
X191300000Y-83135000D02*
X173500000Y-83135000D01*
X211800000Y-83135000D02*
X198600000Y-83135000D01*
X198600000Y-83135000D02*
X191300000Y-83135000D01*
X94700000Y-83100000D02*
X119500000Y-83100000D01*
X51229009Y-83100000D02*
X52800000Y-83100000D01*
X47920000Y-88000000D02*
X49335000Y-86585000D01*
X236795000Y-86875000D02*
X228540000Y-86875000D01*
X49335000Y-84994009D02*
X51229009Y-83100000D01*
X117749986Y-96050070D02*
X117699916Y-96000000D01*
%TO.N,/COPI*%
X84688172Y-82525001D02*
X84688171Y-82525000D01*
X189400000Y-82560000D02*
X172500000Y-82560000D01*
X46795000Y-85635991D02*
X45555991Y-86875000D01*
X118399972Y-95590653D02*
X118365558Y-95556239D01*
X197600000Y-82560000D02*
X189400000Y-82560000D01*
X43965000Y-86875000D02*
X42840000Y-88000000D01*
X49264009Y-82525000D02*
X46795000Y-84994009D01*
X45555991Y-86875000D02*
X43965000Y-86875000D01*
X46795000Y-84994009D02*
X46795000Y-85635991D01*
X118399972Y-97500000D02*
X118399972Y-95590653D01*
X84688172Y-82525001D02*
X84688173Y-82525000D01*
X225800000Y-82560000D02*
X200700000Y-82560000D01*
X158965000Y-86875000D02*
X168185000Y-86875000D01*
X168185000Y-86875000D02*
X172500000Y-82560000D01*
X200700000Y-82560000D02*
X197700000Y-82560000D01*
X157840000Y-88000000D02*
X158965000Y-86875000D01*
X197700000Y-82560000D02*
X197600000Y-82560000D01*
X84688171Y-82525000D02*
X49264009Y-82525000D01*
X84688173Y-82525000D02*
X110800000Y-82525000D01*
%TO.N,/~{CLR}*%
X163855000Y-81985000D02*
X160380000Y-85460000D01*
X194600000Y-81985000D02*
X188800000Y-81985000D01*
X231920000Y-82000000D02*
X231905000Y-81985000D01*
X45380000Y-85460000D02*
X48890000Y-81950000D01*
X53600000Y-81950000D02*
X73900000Y-81950000D01*
X231905000Y-81985000D02*
X206900000Y-81985000D01*
X126899916Y-95287899D02*
X126873326Y-95261309D01*
X206900000Y-81985000D02*
X194600000Y-81985000D01*
X91900000Y-81950000D02*
X116900000Y-81950000D01*
X48890000Y-81950000D02*
X53600000Y-81950000D01*
X188800000Y-81985000D02*
X163855000Y-81985000D01*
X73900000Y-81950000D02*
X91900000Y-81950000D01*
X126899916Y-97447250D02*
X126899916Y-95287899D01*
%TO.N,/~{RESET}*%
X126249930Y-95718640D02*
X126165603Y-95634313D01*
X88700000Y-81375000D02*
X113800000Y-81375000D01*
X203800000Y-81375000D02*
X195600000Y-81375000D01*
X126249930Y-97447250D02*
X126249930Y-95718640D01*
X70600000Y-81375000D02*
X46925000Y-81375000D01*
X228755000Y-81375000D02*
X203800000Y-81375000D01*
X70600000Y-81375000D02*
X88700000Y-81375000D01*
X195600000Y-81375000D02*
X185765642Y-81375000D01*
X46925000Y-81375000D02*
X42840000Y-85460000D01*
X161925000Y-81375000D02*
X157840000Y-85460000D01*
X228790000Y-81410000D02*
X228755000Y-81375000D01*
X185765642Y-81375000D02*
X161925000Y-81375000D01*
%TO.N,/CS_1*%
X81875000Y-89025000D02*
X81600000Y-89300000D01*
X139600000Y-90400000D02*
X139600000Y-89700000D01*
X133600000Y-90500000D02*
X115500000Y-90500000D01*
X115500000Y-90500000D02*
X109100000Y-84100000D01*
X138000000Y-88100000D02*
X136000000Y-88100000D01*
X81875000Y-87662500D02*
X81875000Y-89025000D01*
X66600000Y-89300000D02*
X65300000Y-88000000D01*
X109100000Y-84100000D02*
X83487500Y-84100000D01*
X83487500Y-84100000D02*
X80900000Y-86687500D01*
X139600000Y-89700000D02*
X138000000Y-88100000D01*
X80900000Y-86687500D02*
X81875000Y-87662500D01*
X81600000Y-89300000D02*
X66600000Y-89300000D01*
X136000000Y-88100000D02*
X133600000Y-90500000D01*
%TO.N,/CS_2*%
X90300000Y-88000000D02*
X91712500Y-86587500D01*
X111087500Y-86587500D02*
X115350000Y-90850000D01*
X135200974Y-89394001D02*
X138752400Y-89394001D01*
X91712500Y-86587500D02*
X105900000Y-86587500D01*
X115350000Y-90850000D02*
X133744975Y-90850000D01*
X133744975Y-90850000D02*
X135200974Y-89394001D01*
X138752400Y-89394001D02*
X138950001Y-89591602D01*
X138950001Y-89591602D02*
X138950001Y-90400000D01*
X105900000Y-86587500D02*
X111087500Y-86587500D01*
%TO.N,/CS_3*%
X116425000Y-86875000D02*
X138255999Y-86875000D01*
X138255999Y-86875000D02*
X140900000Y-89519001D01*
X140900000Y-89519001D02*
X140900000Y-90400000D01*
X115300000Y-88000000D02*
X116425000Y-86875000D01*
%TO.N,/CS_4*%
X138300000Y-95300000D02*
X139125000Y-94475000D01*
X153212500Y-88000000D02*
X152600000Y-87387500D01*
X147238471Y-87387500D02*
X152600000Y-87387500D01*
X139125000Y-94475000D02*
X140150971Y-94475000D01*
X138300000Y-96242000D02*
X138300000Y-95300000D01*
X140150971Y-94475000D02*
X147238471Y-87387500D01*
X155300000Y-88000000D02*
X153212500Y-88000000D01*
%TO.N,/CS_5*%
X175111890Y-90350000D02*
X177261890Y-88200000D01*
X177825000Y-88000000D02*
X177625000Y-88200000D01*
X140899997Y-95210896D02*
X143055447Y-93055447D01*
X177261890Y-88200000D02*
X177625000Y-88200000D01*
X180300000Y-88000000D02*
X177825000Y-88000000D01*
X145760894Y-90350000D02*
X175111890Y-90350000D01*
X143055447Y-93055447D02*
X145760894Y-90350000D01*
X140899997Y-96242000D02*
X140899997Y-95210896D01*
%TO.N,/CS_6*%
X145120945Y-90000000D02*
X168810000Y-90000000D01*
X175100000Y-83710000D02*
X201010000Y-83710000D01*
X138949998Y-95361001D02*
X139485999Y-94825000D01*
X140295945Y-94825000D02*
X145120945Y-90000000D01*
X139485999Y-94825000D02*
X140295945Y-94825000D01*
X138949998Y-96242000D02*
X138949998Y-95361001D01*
X201010000Y-83710000D02*
X205300000Y-88000000D01*
X168810000Y-90000000D02*
X175100000Y-83710000D01*
%TO.N,/CS_7*%
X140249998Y-96242000D02*
X140249998Y-97050400D01*
X143152001Y-97247999D02*
X149700000Y-90700000D01*
X140447597Y-97247999D02*
X143152001Y-97247999D01*
X228400000Y-88000000D02*
X230300000Y-88000000D01*
X149700000Y-90700000D02*
X225700000Y-90700000D01*
X225700000Y-90700000D02*
X228400000Y-88000000D01*
X140249998Y-97050400D02*
X140447597Y-97247999D01*
%TO.N,/leadP0_1V8*%
X48949998Y-96350002D02*
X50300000Y-95000000D01*
X43200001Y-109800001D02*
X42050000Y-108650000D01*
X47361001Y-96350002D02*
X47010999Y-96700004D01*
X48242000Y-96350002D02*
X47361001Y-96350002D01*
X42925610Y-101300000D02*
X44812500Y-101300000D01*
X54500000Y-95000000D02*
X55700000Y-93800000D01*
X44812500Y-101300000D02*
X45600000Y-102087500D01*
X42050000Y-102175610D02*
X42925610Y-101300000D01*
X50300000Y-95000000D02*
X54500000Y-95000000D01*
X42050000Y-108650000D02*
X42050000Y-102175610D01*
X44298298Y-109800001D02*
X43200001Y-109800001D01*
X47010999Y-96700004D02*
X47010999Y-97000000D01*
X48242000Y-96350002D02*
X48949998Y-96350002D01*
X55700000Y-93800000D02*
X56500000Y-93800000D01*
%TO.N,/leadP1_1V8*%
X46575000Y-102574390D02*
X46274390Y-102875000D01*
X46575000Y-97377174D02*
X46575000Y-102574390D01*
X50800000Y-93800000D02*
X52300000Y-93800000D01*
X44298298Y-109300000D02*
X43194974Y-109300000D01*
X46274390Y-102875000D02*
X44387500Y-102875000D01*
X48242000Y-95700003D02*
X47433600Y-95700003D01*
X42400000Y-108505026D02*
X42400000Y-103287500D01*
X47433600Y-95700003D02*
X46435999Y-96697604D01*
X48242000Y-95700003D02*
X48899997Y-95700003D01*
X42400000Y-103287500D02*
X43600000Y-102087500D01*
X44387500Y-102875000D02*
X43600000Y-102087500D01*
X46435999Y-96697604D02*
X46435999Y-97238173D01*
X46435999Y-97238173D02*
X46575000Y-97377174D01*
X43194974Y-109300000D02*
X42400000Y-108505026D01*
X48899997Y-95700003D02*
X50800000Y-93800000D01*
%TO.N,/leadP2_1V8*%
X51650002Y-97650002D02*
X52300000Y-98300000D01*
X48242000Y-97650002D02*
X51650002Y-97650002D01*
X47125000Y-101612500D02*
X47125000Y-98075000D01*
X47549998Y-97650002D02*
X48242000Y-97650002D01*
X47125000Y-98075000D02*
X47549998Y-97650002D01*
X47600000Y-102087500D02*
X46625000Y-103062500D01*
X46625000Y-106865047D02*
X45190048Y-108299999D01*
X46625000Y-103062500D02*
X46625000Y-106865047D01*
X45190048Y-108299999D02*
X44298298Y-108299999D01*
X47600000Y-102087500D02*
X47125000Y-101612500D01*
%TO.N,/test_SCLK*%
X207899865Y-108752834D02*
X207899865Y-113899865D01*
D45*
%TO.N,/test_COPI*%
X210450000Y-111939950D02*
X211710050Y-113200000D01*
X208899866Y-109694584D02*
X210450000Y-111244718D01*
X210450000Y-111244718D02*
X210450000Y-111939950D01*
X208899866Y-108752834D02*
X208899866Y-109694584D01*
X211710050Y-113200000D02*
X216700000Y-113200000D01*
D44*
%TO.N,/test_S0*%
X165250000Y-103199149D02*
X165250000Y-101650000D01*
X165250000Y-101650000D02*
X164200000Y-100600000D01*
%TO.N,/test_S1*%
X164249999Y-103199149D02*
X164249999Y-102227070D01*
X161500000Y-101300000D02*
X161200000Y-101000000D01*
X164249999Y-102227070D02*
X163322929Y-101300000D01*
X163322929Y-101300000D02*
X161500000Y-101300000D01*
D45*
%TO.N,/test_S2*%
X163750000Y-102257401D02*
X163689699Y-102197100D01*
X162810299Y-102197100D02*
X162810299Y-102989701D01*
X163750000Y-103199149D02*
X163750000Y-102257401D01*
X161100000Y-104700000D02*
X158400000Y-104700000D01*
X162810299Y-102989701D02*
X161100000Y-104700000D01*
X163689699Y-102197100D02*
X162810299Y-102197100D01*
D44*
%TO.N,/test_CS*%
X51900000Y-107800000D02*
X52791748Y-107800000D01*
X52791748Y-107800000D02*
X54691748Y-105900000D01*
%TO.N,/leadCS_1V8*%
X55300000Y-99500000D02*
X56500000Y-98300000D01*
X48575000Y-103112500D02*
X49600000Y-102087500D01*
X49812500Y-102087500D02*
X52400000Y-99500000D01*
D45*
X48242000Y-97000003D02*
X55200003Y-97000003D01*
D44*
X49600000Y-102087500D02*
X49812500Y-102087500D01*
X49600000Y-102087500D02*
X50078014Y-101609486D01*
X45190048Y-110799999D02*
X48575000Y-107415047D01*
X48575000Y-107415047D02*
X48575000Y-103112500D01*
X52400000Y-99500000D02*
X55300000Y-99500000D01*
X44298298Y-110799999D02*
X45190048Y-110799999D01*
D45*
X55200003Y-97000003D02*
X56500000Y-98300000D01*
D44*
%TO.N,/~{LDAC}_1V8*%
X113500000Y-117250001D02*
X117800000Y-117250001D01*
X117800000Y-117250001D02*
X147349999Y-117250001D01*
X125599944Y-105099944D02*
X125600000Y-105100000D01*
X201990481Y-99350000D02*
X198489949Y-99350000D01*
X202899865Y-101151132D02*
X202899865Y-100259384D01*
X70800000Y-120400000D02*
X73949999Y-117250001D01*
X174250000Y-105201646D02*
X174026646Y-105425000D01*
X73949999Y-117250001D02*
X113500000Y-117250001D01*
X125599944Y-103352750D02*
X125599944Y-105099944D01*
X174250000Y-103199149D02*
X174250000Y-105201646D01*
X147349999Y-117250001D02*
X155600000Y-109000000D01*
X198489949Y-99350000D02*
X188839949Y-109000000D01*
X188839949Y-109000000D02*
X177400000Y-109000000D01*
X53805026Y-118300000D02*
X55905026Y-120400000D01*
X202899865Y-100259384D02*
X201990481Y-99350000D01*
X155600000Y-109000000D02*
X178000000Y-109000000D01*
X55905026Y-120400000D02*
X70800000Y-120400000D01*
X51900000Y-118300000D02*
X53805026Y-118300000D01*
%TO.N,/S3_1V8*%
X51975000Y-112875000D02*
X51900000Y-112800000D01*
X48242000Y-98300000D02*
X49306893Y-98300000D01*
X49306893Y-98300000D02*
X49503014Y-98496121D01*
X53675000Y-102661827D02*
X54736827Y-101600000D01*
X54736827Y-101600000D02*
X63000000Y-101600000D01*
X53724697Y-112799758D02*
X53649455Y-112875000D01*
X63000000Y-101600000D02*
X64200000Y-102800000D01*
X53649455Y-112875000D02*
X51975000Y-112875000D01*
%TO.N,/pass2_1V8*%
X213374865Y-97352593D02*
X213374865Y-98799216D01*
X54416749Y-106675000D02*
X100769974Y-106675000D01*
X100769974Y-106675000D02*
X104444974Y-110350000D01*
X104444974Y-110350000D02*
X145727878Y-110350000D01*
X145727878Y-110350000D02*
X163077878Y-93000000D01*
X212774081Y-99400000D02*
X212259248Y-99400000D01*
X212259248Y-99400000D02*
X211399864Y-100259384D01*
X211399864Y-100259384D02*
X211399864Y-101151132D01*
X209022272Y-93000000D02*
X213374865Y-97352593D01*
X52791750Y-108299999D02*
X54416749Y-106675000D01*
X163077878Y-93000000D02*
X209022272Y-93000000D01*
X51900000Y-108299999D02*
X52791750Y-108299999D01*
X213374865Y-98799216D02*
X212774081Y-99400000D01*
%TO.N,/int_CS_1V8*%
X51900000Y-110799999D02*
X53575609Y-110799999D01*
X111499916Y-109774916D02*
X111500000Y-109775000D01*
X53575609Y-110799999D02*
X54850610Y-112075000D01*
X54850610Y-112075000D02*
X109200000Y-112075000D01*
X145000000Y-112075000D02*
X109200000Y-112075000D01*
X111499916Y-103558250D02*
X111499916Y-109774916D01*
X168750000Y-104800000D02*
X168750000Y-103199149D01*
%TO.N,/S2_1V8*%
X53750001Y-114325000D02*
X145550000Y-114325000D01*
X169311050Y-106000000D02*
X167600000Y-106000000D01*
X146039948Y-114375000D02*
X154414948Y-106000000D01*
X145550000Y-114325000D02*
X145600000Y-114375000D01*
X145600000Y-114375000D02*
X146039948Y-114375000D01*
X170825000Y-103274150D02*
X170825000Y-104486050D01*
X163750000Y-110800851D02*
X163750000Y-111692601D01*
X51900000Y-114799999D02*
X53275002Y-114799999D01*
X53275002Y-114799999D02*
X53750001Y-114325000D01*
X154414948Y-106000000D02*
X167600000Y-106000000D01*
X170749999Y-103199149D02*
X170825000Y-103274150D01*
X203740481Y-97600000D02*
X206399866Y-100259385D01*
X110849930Y-103558250D02*
X110849930Y-109250070D01*
X110849930Y-109250070D02*
X110800000Y-109300000D01*
X189025000Y-106000000D02*
X197425000Y-97600000D01*
X163750000Y-111692601D02*
X161142601Y-114300000D01*
X206399866Y-100259385D02*
X206399866Y-101151132D01*
X170825000Y-104486050D02*
X169311050Y-106000000D01*
X167600000Y-106000000D02*
X189025000Y-106000000D01*
X197425000Y-97600000D02*
X203740481Y-97600000D01*
X161142601Y-114300000D02*
X152000000Y-114300000D01*
%TO.N,/pass0_1V8*%
X165213172Y-96100000D02*
X206100000Y-96100000D01*
X168249999Y-102224391D02*
X168249999Y-103199149D01*
X53599999Y-109799999D02*
X51900000Y-109799999D01*
X168975000Y-99675000D02*
X168975000Y-101499390D01*
X161650000Y-96100000D02*
X146250000Y-111500000D01*
X168500000Y-99200000D02*
X168975000Y-99675000D01*
X165063172Y-96100000D02*
X161650000Y-96100000D01*
X165138172Y-96025000D02*
X165063172Y-96100000D01*
X165138172Y-96025000D02*
X165213172Y-96100000D01*
X209899864Y-99899864D02*
X209899864Y-101151132D01*
X206100000Y-96100000D02*
X209899864Y-99899864D01*
X146250000Y-111500000D02*
X104600000Y-111500000D01*
X53600000Y-109775610D02*
X53600000Y-109800000D01*
X104600000Y-111500000D02*
X100475000Y-107375000D01*
X100475000Y-107375000D02*
X56000610Y-107375000D01*
X53600000Y-109800000D02*
X53599999Y-109799999D01*
X56000610Y-107375000D02*
X53600000Y-109775610D01*
X168975000Y-101499390D02*
X168249999Y-102224391D01*
%TO.N,/~{RESET}_1V8*%
X53900000Y-117900000D02*
X54375000Y-118375000D01*
X203399864Y-99899864D02*
X203399864Y-101151132D01*
X51900000Y-117800001D02*
X53800001Y-117800001D01*
X188919974Y-108425000D02*
X198344974Y-99000000D01*
X126249930Y-103352750D02*
X126249930Y-105650070D01*
X73349999Y-116675001D02*
X115200000Y-116675001D01*
X155300000Y-108425000D02*
X188919974Y-108425000D01*
X198344974Y-99000000D02*
X202500000Y-99000000D01*
X147049999Y-116675001D02*
X155300000Y-108425000D01*
X126249930Y-105650070D02*
X126200000Y-105700000D01*
X173825001Y-104542446D02*
X173322902Y-105044545D01*
X173825001Y-103274149D02*
X173825001Y-104542446D01*
X53800001Y-117800001D02*
X53900000Y-117900000D01*
X54375000Y-118375000D02*
X55825000Y-119825000D01*
X173750001Y-103199149D02*
X173825001Y-103274149D01*
X55825000Y-119825000D02*
X70200000Y-119825000D01*
X70200000Y-119825000D02*
X73349999Y-116675001D01*
X202500000Y-99000000D02*
X203399864Y-99899864D01*
X115200000Y-116675001D02*
X147049999Y-116675001D01*
%TO.N,/S4_1V8*%
X49150002Y-98950002D02*
X48242000Y-98950002D01*
X53090918Y-103208501D02*
X53119244Y-103236827D01*
X51900000Y-112299999D02*
X53099999Y-112299999D01*
X49500000Y-99300000D02*
X49150002Y-98950002D01*
X53119244Y-103236827D02*
X59763173Y-103236827D01*
X59763173Y-103236827D02*
X60200000Y-102800000D01*
X53099999Y-112299999D02*
X53100000Y-112300000D01*
%TO.N,/COPI_1V8*%
X167056587Y-96675000D02*
X161825000Y-96675000D01*
X208899863Y-101151132D02*
X208399865Y-101151132D01*
X168513172Y-98100000D02*
X169325000Y-98911828D01*
X145700000Y-112800000D02*
X112700000Y-112800000D01*
X167056587Y-96675000D02*
X205975000Y-96675000D01*
X169325000Y-103124149D02*
X169250000Y-103199149D01*
X107925242Y-113374758D02*
X108500000Y-112800000D01*
X51900000Y-113300000D02*
X51974758Y-113374758D01*
X205975000Y-96675000D02*
X208899863Y-99599863D01*
X118399972Y-107099972D02*
X118400000Y-107100000D01*
X169325000Y-98911828D02*
X169325000Y-103124149D01*
X161825000Y-96675000D02*
X145700000Y-112800000D01*
X108500000Y-112800000D02*
X112700000Y-112800000D01*
X51974758Y-113374758D02*
X107925242Y-113374758D01*
X118399972Y-103405500D02*
X118399972Y-107099972D01*
X208899863Y-99599863D02*
X208899863Y-101151132D01*
%TO.N,/SCLK_1V8*%
X207899865Y-101151132D02*
X207399864Y-101151132D01*
X168950000Y-97250000D02*
X168100000Y-97250000D01*
X117749986Y-106650014D02*
X117700000Y-106700000D01*
X113400001Y-113800000D02*
X145200000Y-113800000D01*
X205850000Y-97250000D02*
X207899865Y-99299865D01*
X113400000Y-113800001D02*
X113400001Y-113800000D01*
X161750000Y-97250000D02*
X168100000Y-97250000D01*
X168100000Y-97250000D02*
X205850000Y-97250000D01*
X117749986Y-103405500D02*
X117749986Y-106650014D01*
X169750001Y-103199149D02*
X169750001Y-98050001D01*
X207899865Y-99299865D02*
X207899865Y-101151132D01*
X51900000Y-113800001D02*
X113400000Y-113800001D01*
X169750001Y-98050001D02*
X168950000Y-97250000D01*
X145200000Y-113800000D02*
X161750000Y-97250000D01*
%TO.N,/S0_1V8*%
X146300000Y-115525001D02*
X102000000Y-115525001D01*
X171805985Y-105425000D02*
X172250001Y-104980984D01*
X172250001Y-104980984D02*
X172250001Y-103199149D01*
X146300000Y-115525001D02*
X146356586Y-115525001D01*
X161417600Y-115525001D02*
X150300000Y-115525001D01*
X146356586Y-115525001D02*
X154706587Y-107175000D01*
X154706587Y-107175000D02*
X189125000Y-107175000D01*
X51900000Y-116300001D02*
X53375611Y-116300001D01*
X109549958Y-103558250D02*
X109549958Y-108050042D01*
X58500000Y-115525001D02*
X102000000Y-115525001D01*
X189125000Y-107175000D02*
X198000000Y-98300000D01*
X204899864Y-100259382D02*
X204899864Y-101151132D01*
X198000000Y-98300000D02*
X202940482Y-98300000D01*
X53375611Y-116300001D02*
X54750610Y-117675000D01*
X165250000Y-110800851D02*
X165250000Y-111692601D01*
X109549958Y-108050042D02*
X109500000Y-108100000D01*
X165250000Y-111692601D02*
X161417600Y-115525001D01*
X54750610Y-117675000D02*
X56350001Y-117675000D01*
X56350001Y-117675000D02*
X58500000Y-115525001D01*
X202940482Y-98300000D02*
X204899864Y-100259382D01*
%TO.N,/~{CLR}_1V8*%
X146697379Y-116100001D02*
X117200000Y-116100001D01*
X59200000Y-116100001D02*
X117200000Y-116100001D01*
X204399865Y-100259382D02*
X202790483Y-98650000D01*
X172675000Y-103274149D02*
X172675000Y-105369157D01*
X172750000Y-103199149D02*
X172675000Y-103274149D01*
X54605636Y-118025000D02*
X56575000Y-118025000D01*
X51900000Y-116800000D02*
X53380636Y-116800000D01*
X56600000Y-118000000D02*
X58499999Y-116100001D01*
X172675000Y-105369157D02*
X172619157Y-105425000D01*
X189000000Y-107850000D02*
X154947380Y-107850000D01*
X154947380Y-107850000D02*
X146697379Y-116100001D01*
X202790483Y-98650000D02*
X198200000Y-98650000D01*
X126899916Y-106399916D02*
X126900000Y-106400000D01*
X126899916Y-103352750D02*
X126899916Y-106399916D01*
X204399865Y-101151132D02*
X204399865Y-100259382D01*
X56575000Y-118025000D02*
X56600000Y-118000000D01*
X53390318Y-116809682D02*
X54605636Y-118025000D01*
X198200000Y-98650000D02*
X189000000Y-107850000D01*
X53380636Y-116800000D02*
X53390318Y-116809682D01*
X58499999Y-116100001D02*
X59200000Y-116100001D01*
%TO.N,/pass1_1V8*%
X55075000Y-107025000D02*
X52800000Y-109300000D01*
X145975000Y-110925000D02*
X104525000Y-110925000D01*
X210399866Y-99324256D02*
X206525610Y-95450000D01*
X161450000Y-95450000D02*
X145975000Y-110925000D01*
X104525000Y-110925000D02*
X100625000Y-107025000D01*
X167275000Y-103174150D02*
X167250001Y-103199149D01*
X52800000Y-109300000D02*
X51900000Y-109300000D01*
X210399866Y-101151132D02*
X210399866Y-99324256D01*
X100625000Y-107025000D02*
X55075000Y-107025000D01*
X162200000Y-95450000D02*
X205900000Y-95450000D01*
X206525610Y-95450000D02*
X205900000Y-95450000D01*
X167275000Y-99300000D02*
X167275000Y-103174150D01*
X162200000Y-95450000D02*
X161450000Y-95450000D01*
%TO.N,/S1_1V8*%
X171250001Y-104742953D02*
X171250001Y-103199149D01*
X197850000Y-97950000D02*
X189200000Y-106600000D01*
X110199944Y-108699944D02*
X110200000Y-108700000D01*
X161037576Y-114900000D02*
X152800000Y-114900000D01*
X154400000Y-106600000D02*
X146049999Y-114950001D01*
X205899864Y-100259382D02*
X203590482Y-97950000D01*
X52877048Y-115300001D02*
X52877049Y-115300000D01*
X57000000Y-114700000D02*
X53869976Y-114700000D01*
X51900000Y-115300001D02*
X52877048Y-115300001D01*
X164249999Y-111687577D02*
X161037576Y-114900000D01*
X205899864Y-101151132D02*
X205899864Y-100259382D01*
X53869976Y-114700000D02*
X53269976Y-115300000D01*
X110199944Y-103558250D02*
X110199944Y-108699944D01*
X166500000Y-106600000D02*
X154400000Y-106600000D01*
X145000000Y-114950001D02*
X103800000Y-114950001D01*
X103800000Y-114950001D02*
X57250001Y-114950001D01*
X146049999Y-114950001D02*
X145000000Y-114950001D01*
X203590482Y-97950000D02*
X197850000Y-97950000D01*
X171306854Y-104799806D02*
X171250001Y-104742953D01*
X53269976Y-115300000D02*
X52877049Y-115300000D01*
X164249999Y-110800851D02*
X164249999Y-111687577D01*
X57250001Y-114950001D02*
X57000000Y-114700000D01*
X189200000Y-106600000D02*
X166500000Y-106600000D01*
%TO.N,/CS_1V8*%
X51047951Y-111300001D02*
X51900000Y-111300001D01*
X45195073Y-107800000D02*
X44298298Y-107800000D01*
X45275347Y-106724893D02*
X45275347Y-107719726D01*
X44615136Y-106064682D02*
X45275347Y-106724893D01*
X50300000Y-105000000D02*
X49925000Y-105375000D01*
X49925000Y-110177050D02*
X51047951Y-111300001D01*
X43268603Y-96350002D02*
X42400000Y-96350002D01*
X49925000Y-105375000D02*
X49925000Y-110177050D01*
X43614746Y-96696145D02*
X43268603Y-96350002D01*
X45275347Y-107719726D02*
X45195073Y-107800000D01*
%TO.N,/S2*%
X110849930Y-97652750D02*
X110849930Y-96797900D01*
X114247830Y-93400000D02*
X140100000Y-93400000D01*
X110849930Y-96797900D02*
X114247830Y-93400000D01*
X142849998Y-90400000D02*
X142849998Y-91280999D01*
X140100000Y-93400000D02*
X140658399Y-93400000D01*
X142849998Y-91208401D02*
X142849998Y-90400000D01*
X140672598Y-93400000D02*
X140100000Y-93400000D01*
X140658399Y-93400000D02*
X142849998Y-91208401D01*
%TO.N,/S0*%
X109549958Y-96797900D02*
X113647858Y-92700000D01*
X141549998Y-91208401D02*
X141549998Y-90400000D01*
X113647858Y-92700000D02*
X140058399Y-92700000D01*
X140058399Y-92700000D02*
X141549998Y-91208401D01*
X109549958Y-97652750D02*
X109549958Y-96797900D01*
%TO.N,/int_CS*%
X111499916Y-96700084D02*
X111499916Y-97652750D01*
X137997999Y-97247999D02*
X134500000Y-93750000D01*
X134500000Y-93750000D02*
X114450000Y-93750000D01*
X139600000Y-97050397D02*
X139402398Y-97247999D01*
X114450000Y-93750000D02*
X111499916Y-96700084D01*
X139600000Y-96242000D02*
X139600000Y-97050397D01*
X139402398Y-97247999D02*
X137997999Y-97247999D01*
%TO.N,/S1*%
X142200000Y-91208397D02*
X142200000Y-90400000D01*
X113947844Y-93050000D02*
X140358397Y-93050000D01*
X110199944Y-96797900D02*
X113947844Y-93050000D01*
X140358397Y-93050000D02*
X142200000Y-91208397D01*
X110199944Y-97652750D02*
X110199944Y-96797900D01*
%TD*%
M02*
