M48
; DRILL file {KiCad 9.0.1} date 2025-04-14T23:47:01-0700
; FORMAT={-:-/ absolute / metric / decimal}
; #@! TF.CreationDate,2025-04-14T23:47:01-07:00
; #@! TF.GenerationSoftware,Kicad,Pcbnew,9.0.1
; #@! TF.FileFunction,Plated,1,4,PTH
FMAT,2
METRIC
; #@! TA.AperFunction,Plated,PTH,ViaDrill
T1C0.300
; #@! TA.AperFunction,Plated,PTH,ViaDrill
T2C0.400
; #@! TA.AperFunction,Plated,PTH,ViaDrill
T3C1.000
; #@! TA.AperFunction,Plated,PTH,ComponentDrill
T4C1.000
; #@! TA.AperFunction,Plated,PTH,ComponentDrill
T5C1.067
; #@! TA.AperFunction,Plated,PTH,ComponentDrill
T6C2.000
%
G90
G05
T1
X39.7Y-115.0
X40.3Y-111.9
X41.0Y-105.7
X41.3Y-98.3
X42.1Y-112.725
X42.268Y-111.943
X42.342Y-100.25
X43.0Y-108.0
X43.615Y-96.696
X44.3Y-106.8
X44.615Y-106.065
X44.812Y-101.3
X45.4Y-117.3
X45.4Y-118.8
X45.5Y-111.8
X45.5Y-114.3
X45.5Y-115.3
X45.525Y-116.3
X46.142Y-93.568
X47.011Y-97.0
X47.7Y-100.2
X49.5Y-99.3
X49.503Y-98.496
X50.3Y-105.0
X50.5Y-108.8
X50.5Y-111.8
X50.5Y-114.3
X50.5Y-117.3
X50.8Y-118.8
X51.9Y-106.8
X53.091Y-103.209
X53.1Y-112.3
X53.675Y-102.662
X53.725Y-112.8
X55.5Y-129.2
X57.3Y-109.3
X57.6Y-115.525
X62.7Y-128.85
X70.0Y-80.8
X70.6Y-81.375
X73.9Y-81.95
X74.456Y-82.525
X76.0Y-83.1
X84.688Y-82.525
X85.8Y-80.8
X88.7Y-81.375
X91.9Y-81.95
X94.7Y-83.1
X102.0Y-115.525
X103.8Y-114.95
X105.6Y-114.375
X106.9Y-99.9
X109.2Y-112.075
X109.5Y-108.1
X110.2Y-108.7
X110.6Y-113.75
X110.8Y-82.525
X110.8Y-109.3
X111.5Y-109.775
X112.7Y-80.8
X112.7Y-112.8
X113.8Y-81.375
X115.1Y-99.5
X116.9Y-81.95
X117.4Y-117.25
X117.7Y-96.0
X117.7Y-106.7
X118.2Y-116.675
X118.366Y-95.556
X118.4Y-107.1
X119.0Y-116.1
X119.5Y-83.1
X123.1Y-99.3
X125.6Y-96.2
X125.6Y-105.1
X126.166Y-95.634
X126.2Y-105.7
X126.873Y-95.261
X126.9Y-106.4
X128.9Y-102.3
X133.71Y-101.587
X135.004Y-90.404
X139.36Y-99.787
X142.2Y-95.1
X145.0Y-112.075
X145.0Y-114.95
X145.6Y-114.375
X146.3Y-115.525
X149.0Y-103.8
X150.3Y-115.525
X152.0Y-114.3
X152.8Y-114.9
X162.2Y-95.45
X162.7Y-110.9
X164.177Y-104.401
X165.138Y-96.025
X165.3Y-109.599
X166.5Y-106.6
X167.057Y-96.675
X167.1Y-107.175
X167.2Y-109.599
X167.275Y-99.3
X167.4Y-111.975
X167.701Y-114.419
X167.75Y-104.248
X168.5Y-99.2
X168.513Y-98.1
X168.675Y-114.6
X168.75Y-104.8
X170.25Y-104.248
X170.25Y-109.752
X170.842Y-107.75
X171.307Y-104.8
X171.34Y-108.425
X171.806Y-105.425
X171.894Y-109.002
X172.426Y-109.6
X172.619Y-105.425
X173.25Y-109.752
X173.25Y-104.248
X173.323Y-105.045
X173.5Y-83.135
X174.027Y-105.425
X175.3Y-103.2
X175.325Y-111.375
X182.5Y-110.9
X185.1Y-80.8
X185.766Y-81.375
X188.8Y-81.985
X189.4Y-82.56
X192.0Y-83.135
X194.6Y-81.985
X195.6Y-81.375
X196.5Y-80.8
X197.7Y-82.56
X198.6Y-83.135
X200.5Y-105.4
X200.7Y-82.56
X202.4Y-102.2
X203.0Y-80.8
X203.8Y-81.375
X203.9Y-107.704
X205.1Y-113.7
X206.087Y-107.551
X206.5Y-110.4
X206.9Y-81.985
X206.95Y-107.652
X207.11Y-102.33
X209.108Y-107.555
X209.4Y-102.2
X209.8Y-95.548
X211.8Y-83.135
X212.95Y-99.949
X213.282Y-107.551
X222.8Y-80.8
X225.8Y-82.56
X228.79Y-81.41
X231.92Y-82.0
T2
X39.7Y-107.7
X41.583Y-115.033
X44.6Y-104.8
X46.267Y-92.615
X47.4Y-107.475
X50.8Y-103.9
X55.4Y-117.0
X55.5Y-111.4
X63.6Y-119.15
X63.6Y-121.075
X66.2Y-119.15
X105.7Y-97.9
X105.8Y-101.7
X113.9Y-96.675
X116.3Y-101.7
X120.0Y-119.5
X121.8Y-96.2
X124.9Y-101.35
X137.0Y-90.4
X139.96Y-103.587
X140.06Y-100.787
X165.8Y-99.5
X166.371Y-114.115
X171.8Y-114.3
X172.5Y-100.0
X199.485Y-103.322
X206.037Y-111.563
X209.8Y-97.6
X212.0Y-112.0
T3
X134.8Y-121.8
X138.46Y-106.487
T4
X31.4Y-90.16
X31.4Y-92.7
X31.4Y-95.24
X31.4Y-97.78
X31.4Y-100.32
X31.4Y-102.86
X31.4Y-105.4
X31.4Y-107.94
X31.4Y-110.48
X31.4Y-113.02
X31.4Y-115.56
X31.4Y-118.1
X33.94Y-90.16
X33.94Y-92.7
X33.94Y-95.24
X33.94Y-97.78
X33.94Y-100.32
X33.94Y-102.86
X33.94Y-105.4
X33.94Y-107.94
X33.94Y-110.48
X33.94Y-113.02
X33.94Y-115.56
X33.94Y-118.1
X40.3Y-85.46
X40.3Y-88.0
X42.84Y-85.46
X42.84Y-88.0
X45.38Y-85.46
X45.38Y-88.0
X47.92Y-85.46
X47.92Y-88.0
X50.46Y-85.46
X50.46Y-88.0
X53.0Y-85.46
X53.0Y-88.0
X65.3Y-85.46
X65.3Y-88.0
X67.84Y-85.46
X67.84Y-88.0
X70.38Y-85.46
X70.38Y-88.0
X72.92Y-85.46
X72.92Y-88.0
X75.46Y-85.46
X75.46Y-88.0
X78.0Y-85.46
X78.0Y-88.0
X90.3Y-85.46
X90.3Y-88.0
X92.84Y-85.46
X92.84Y-88.0
X95.38Y-85.46
X95.38Y-88.0
X97.92Y-85.46
X97.92Y-88.0
X100.46Y-85.46
X100.46Y-88.0
X103.0Y-85.46
X103.0Y-88.0
X114.92Y-127.6
X115.3Y-85.46
X115.3Y-88.0
X117.46Y-127.6
X117.84Y-85.46
X117.84Y-88.0
X120.0Y-127.6
X120.38Y-85.46
X120.38Y-88.0
X122.92Y-85.46
X122.92Y-88.0
X125.46Y-85.46
X125.46Y-88.0
X128.0Y-85.46
X128.0Y-88.0
X155.3Y-85.46
X155.3Y-88.0
X156.0Y-122.46
X156.0Y-125.0
X157.84Y-85.46
X157.84Y-88.0
X158.54Y-122.46
X158.54Y-125.0
X160.38Y-85.46
X160.38Y-88.0
X161.08Y-122.46
X161.08Y-125.0
X162.92Y-85.46
X162.92Y-88.0
X163.62Y-122.46
X163.62Y-125.0
X165.46Y-85.46
X165.46Y-88.0
X166.16Y-122.46
X166.16Y-125.0
X168.0Y-85.46
X168.0Y-88.0
X168.7Y-122.46
X168.7Y-125.0
X171.24Y-122.46
X171.24Y-125.0
X173.78Y-122.46
X173.78Y-125.0
X176.32Y-122.46
X176.32Y-125.0
X178.86Y-122.46
X178.86Y-125.0
X180.3Y-85.46
X180.3Y-88.0
X181.4Y-122.46
X181.4Y-125.0
X182.84Y-85.46
X182.84Y-88.0
X183.94Y-122.46
X183.94Y-125.0
X185.38Y-85.46
X185.38Y-88.0
X187.92Y-85.46
X187.92Y-88.0
X190.46Y-85.46
X190.46Y-88.0
X193.0Y-85.46
X193.0Y-88.0
X205.0Y-122.46
X205.0Y-125.0
X205.3Y-85.46
X205.3Y-88.0
X207.54Y-122.46
X207.54Y-125.0
X207.84Y-85.46
X207.84Y-88.0
X210.08Y-122.46
X210.08Y-125.0
X210.38Y-85.46
X210.38Y-88.0
X212.62Y-122.46
X212.62Y-125.0
X212.92Y-85.46
X212.92Y-88.0
X215.16Y-122.46
X215.16Y-125.0
X215.46Y-85.46
X215.46Y-88.0
X217.7Y-122.46
X217.7Y-125.0
X218.0Y-85.46
X218.0Y-88.0
X220.24Y-122.46
X220.24Y-125.0
X222.78Y-122.46
X222.78Y-125.0
X225.32Y-122.46
X225.32Y-125.0
X227.86Y-122.46
X227.86Y-125.0
X230.3Y-85.46
X230.3Y-88.0
X230.4Y-122.46
X230.4Y-125.0
X232.84Y-85.46
X232.84Y-88.0
X232.94Y-122.46
X232.94Y-125.0
X235.38Y-85.46
X235.38Y-88.0
X237.92Y-85.46
X237.92Y-88.0
X240.46Y-85.46
X240.46Y-88.0
X243.0Y-85.46
X243.0Y-88.0
T5
X45.467Y-122.242
X48.467Y-122.242
T6
X76.0Y-109.15
X76.0Y-124.85
X91.0Y-109.15
X91.0Y-124.85
M30
